<svg width="1920" height="744" viewBox="0 0 1920 744" fill="none" xmlns="http://www.w3.org/2000/svg">
<g opacity="0.3">
<path d="M350.823 743.89C332.295 743.89 314.263 743.282 296.932 742.069C260.587 739.525 227.008 734.301 197.128 726.541C165.011 718.204 136.844 706.842 113.4 692.775C66.2821 664.5 42.709 630.638 19.9099 597.89C15.4304 591.459 10.8003 584.81 6.09863 578.359C-25.9821 534.387 -66.6493 495.87 -118.218 460.608C-221.09 390.265 -365.761 330.232 -536.6 287C-734.173 237.005 -946.597 212.1 -1134.74 216.875C-1245.33 219.683 -1391.44 246.384 -1456.74 291.984C-1495.49 319.047 -1498.62 349.08 -1465.77 378.832L-1466.42 378.957C-1483.65 363.354 -1491.15 347.712 -1488.72 332.465C-1486.49 318.479 -1475.94 304.806 -1457.36 291.829C-1427.8 271.187 -1379.06 252.893 -1316.39 238.921C-1258.49 226.012 -1194 218.076 -1134.79 216.573C-1036.32 214.076 -931.603 219.618 -823.535 233.047C-725.572 245.223 -628.907 263.287 -536.227 286.739C-365.288 329.995 -220.531 390.061 -117.601 460.446C-66.0043 495.733 -25.3156 534.271 6.78662 578.266C11.4955 584.717 16.1256 591.369 20.598 597.8C43.3756 630.524 66.9344 664.362 113.988 692.595C159.493 719.904 221.088 736.447 297.054 741.764C402.255 749.129 530.005 733.726 638.775 700.559C795.523 652.764 904.308 583.197 1009.52 515.922C1027.96 504.13 1047.02 491.937 1065.9 480.162C1114.91 449.588 1181.29 409.969 1260.17 374.673C1340.8 338.596 1422.74 312.09 1510.67 293.637C1564.49 282.342 1621.52 274.732 1680.19 271.019C1734.39 267.589 1791.75 267.376 1850.68 270.382C1951.78 275.54 2060.69 290.11 2183.65 314.922C2425.76 363.782 2667.61 423.087 2902.49 491.194C3125.73 555.927 3344.67 629.177 3553.24 708.902L3552.75 709.124C3120.41 543.856 2659.67 411.319 2183.34 315.191C1914.22 260.883 1700.58 254.117 1510.99 293.903C1318.11 334.378 1183.37 407.421 1066.5 480.327C1047.62 492.098 1028.56 504.292 1010.12 516.084C904.882 583.382 796.061 652.971 639.205 700.798C588.518 716.255 531.495 728.31 474.308 735.66C444.098 739.543 414.067 742.081 385.039 743.207C373.471 743.665 362.054 743.89 350.823 743.89Z" fill="white"/>
<path d="M368.94 727.122C321.693 727.122 277.93 723.365 238.818 715.949C195.205 707.681 157.57 694.868 126.951 677.869C124.242 676.363 121.554 674.807 118.96 673.238C72.3438 645.085 47.7244 611.664 23.9218 579.341C19.1053 572.808 14.1313 566.052 9.08557 559.495C-20.9668 520.458 -57.1544 486.051 -101.556 454.315C-107.024 450.408 -112.686 446.492 -118.399 442.678C-222.783 372.94 -368.63 313.668 -540.171 271.268C-739.17 222.126 -952.196 198.251 -1140.01 204.044C-1249.79 207.466 -1395.23 234.604 -1460.81 279.854C-1500.08 306.95 -1504.52 337.042 -1473.67 366.881L-1474.33 367C-1490.5 351.361 -1497.15 335.689 -1494.07 320.424C-1491.25 306.405 -1480.27 292.703 -1461.42 279.698C-1431.56 259.092 -1382.96 240.777 -1320.89 226.733C-1263.51 213.753 -1199.3 205.589 -1140.07 203.745C-1041.73 200.712 -936.894 205.724 -828.482 218.639C-730.283 230.338 -633.159 247.959 -539.813 271.01C-368.171 313.434 -222.245 372.742 -117.797 442.52C-112.084 446.337 -106.415 450.255 -100.946 454.165C-56.5165 485.922 -20.3075 520.347 9.75928 559.406C14.8121 565.962 19.7863 572.719 24.6027 579.254C48.3979 611.556 72.9961 644.954 119.547 673.068C122.135 674.63 124.823 676.187 127.525 677.69C190.797 712.827 277.736 727.122 369.162 727.122C369.664 727.122 370.158 727.122 370.66 727.122C370.087 727.119 369.513 727.122 368.94 727.122ZM388.442 726.912C473.439 725.089 561.145 711.447 636.387 691.152C798.689 647.196 915.337 579.305 1028.15 513.65C1032.79 510.944 1037.44 508.243 1042.08 505.543C1052.28 499.615 1064.37 492.598 1076.72 485.524C1132.08 453.8 1199.09 416.887 1276.26 383.663C1358.37 348.311 1440.4 322.077 1527.03 303.459C1580.26 292.032 1636.51 283.982 1694.23 279.533C1747.71 275.411 1804.22 274.247 1862.18 276.07C1962.32 279.222 2069.98 291.173 2191.34 312.608C2309.66 333.474 2406.92 353.116 2497.42 374.422C2625.63 404.634 2747.75 439.445 2850.31 469.511C3088.73 539.611 3322.67 619.211 3545.63 706.1L3545.14 706.318C3322.21 619.441 3088.3 539.848 2849.9 469.756C2747.36 439.693 2625.25 404.889 2497.07 374.685C2406.59 353.385 2309.36 333.749 2191.07 312.889C1926.7 266.193 1715.8 263.281 1527.36 303.729C1331.78 345.754 1192.5 419.696 1077.3 485.704C1064.95 492.778 1052.86 499.792 1042.66 505.723C1038.02 508.42 1033.37 511.123 1028.73 513.829C915.882 579.505 799.191 647.42 636.773 691.41C596.501 702.271 553.647 710.899 509.397 717.051C468.207 722.772 427.604 726.08 388.442 726.912Z" fill="white"/>
<path d="M388.915 710.738C383.232 710.738 377.584 710.687 371.979 710.582C324.776 709.711 281.091 705.188 242.144 697.132C199.549 688.321 162.645 675.271 132.463 658.342C129.783 656.833 127.109 655.274 124.529 653.705C78.4364 625.69 52.7919 592.714 28.0002 560.828C22.8326 554.182 17.486 547.309 12.0675 540.639C-19.4685 501.733 -56.6093 467.601 -101.491 436.293C-107.045 432.422 -112.794 428.54 -118.592 424.756C-224.488 355.625 -371.51 297.113 -543.754 255.546C-744.173 207.257 -957.801 184.409 -1145.28 191.22C-1250.84 195.115 -1395.86 220.705 -1464.81 267.682C-1504.64 294.823 -1510.44 324.996 -1481.58 354.939L-1482.24 355.05C-1497.37 339.363 -1503.14 323.655 -1499.41 308.363C-1495.98 294.299 -1484.54 280.561 -1465.42 267.526C-1435.24 246.969 -1386.8 228.647 -1325.32 214.538C-1268.48 201.494 -1204.56 193.109 -1145.35 190.924C-1047.12 187.358 -942.169 191.837 -833.42 204.237C-734.977 215.463 -637.402 232.638 -543.396 255.288C-371.052 296.883 -223.951 355.427 -117.99 424.597C-112.192 428.384 -106.436 432.267 -100.882 436.144C-55.9786 467.47 -18.8164 501.622 12.734 540.549C18.1525 547.222 23.4991 554.095 28.6667 560.741C53.4512 592.609 79.0742 625.561 125.11 653.543C127.69 655.112 130.349 656.669 133.03 658.172C255.669 726.961 473.009 719.575 633.993 681.744C803.069 641.661 928.719 575.042 1050.23 510.618L1051.48 509.956C1063.25 503.711 1075.42 497.257 1087.53 490.883C1215.34 423.645 1355.83 354.544 1543.4 313.276C1596.06 301.714 1651.54 293.224 1708.29 288.042C1761.08 283.222 1816.73 281.106 1873.7 281.752C1973.03 282.878 2079.45 292.212 2199.05 310.288C2324.73 329.218 2419.31 346.617 2505.72 366.708C2628.83 395.39 2748.09 431.635 2853.3 463.614C3087.57 535.196 3317.94 615.835 3538.04 703.284L3537.54 703.499C3317.47 616.059 3087.11 535.43 2852.88 463.853C2747.68 431.881 2628.44 395.642 2505.37 366.968C2418.99 346.883 2324.44 329.49 2198.8 310.567C1939.57 271.385 1731.42 272.328 1543.73 313.537C1356.28 354.778 1215.85 423.848 1088.09 491.063C1075.98 497.437 1063.81 503.894 1052.04 510.136L1050.79 510.798C990.235 542.902 927.622 576.099 860.006 605.752C784.019 639.075 710.203 664.015 634.337 681.998C554.967 700.649 468.508 710.738 388.915 710.738Z" fill="white"/>
<path d="M3529.95 700.676C3312.73 612.673 3085.94 531.008 2855.87 457.95C2846.13 454.878 2836.36 451.792 2826.57 448.696C2726.91 417.196 2623.87 384.625 2513.68 359.25C2406.78 334.702 2298.44 319.691 2206.56 308.247C1952.93 276.459 1747.52 281.258 1560.12 323.344C1367.74 366.675 1218.68 438.616 1098.9 496.425C1091.72 499.894 1084.54 503.37 1077.35 506.849C1072.05 509.417 1066.74 511.986 1061.43 514.552C993.23 547.5 931.197 576.958 862.656 603.839C784.354 634.545 708.883 657.034 631.913 672.592C559.782 687.174 482.726 694.889 411.054 694.892C397.995 694.892 385.13 694.638 372.487 694.12C326.329 692.231 283.598 686.923 245.483 678.343C203.891 668.982 167.718 655.684 137.952 638.817C135.293 637.305 132.641 635.743 130.075 634.171C84.5271 606.302 57.8865 573.791 32.1273 542.351C26.5798 535.579 20.8387 528.574 15.0333 521.775C-18.0078 482.992 -56.109 449.133 -101.435 418.262C-107.076 414.421 -112.917 410.574 -118.794 406.823C-226.21 338.3 -374.4 280.549 -547.339 239.811C-749.177 192.375 -963.4 170.56 -1150.55 178.38C-1278.49 183.831 -1409.33 215.523 -1468.71 255.444C-1509.17 282.641 -1516.35 312.911 -1489.48 342.979L-1490.15 343.084C-1504.22 327.34 -1509.12 311.585 -1504.72 296.254C-1500.67 282.138 -1488.76 268.355 -1469.32 255.285C-1438.83 234.787 -1390.55 216.466 -1329.68 202.305C-1273.39 189.208 -1209.8 180.604 -1150.62 178.083C-1052.51 173.982 -947.452 177.931 -838.367 189.816C-739.688 200.569 -641.646 217.301 -546.981 239.547C-373.934 280.309 -225.665 338.094 -118.185 406.658C-112.3 410.413 -106.459 414.262 -100.818 418.103C-55.4639 448.992 -17.3485 482.869 15.7141 521.671C21.5197 528.472 27.2607 535.474 32.8081 542.249C58.553 573.671 85.1794 606.162 130.67 633.997C133.236 635.566 135.881 637.126 138.533 638.635C266.562 711.184 484.167 702.122 631.605 672.32C807.511 636.76 942.12 571.731 1060.89 514.354C1066.2 511.785 1071.5 509.217 1076.81 506.651C1084 503.172 1091.18 499.697 1098.37 496.227C1166.74 463.231 1234.25 431.165 1308.48 401.617C1393.83 367.636 1476.04 341.947 1559.79 323.08C1611.89 311.378 1666.59 302.448 1722.36 296.541C1774.48 291.018 1829.28 287.952 1885.24 287.425C1983.93 286.497 2089.11 293.215 2206.77 307.959C2298.68 319.41 2407.07 334.426 2514.03 358.99C2624.27 384.373 2727.34 416.954 2827.01 448.46C2836.8 451.555 2846.57 454.642 2856.32 457.713C3086.4 530.777 3313.22 612.452 3530.46 700.463L3529.95 700.676Z" fill="white"/>
<path d="M3522.36 697.855C3303.9 607.607 3080.68 524.903 2858.87 452.045C2845.59 447.687 2832.02 443.193 2818.89 438.849C2724.85 407.739 2627.61 375.568 2521.99 351.532C2416.52 327.615 2307.27 315.054 2214.31 305.923C1966.85 281.384 1764.18 290.035 1576.51 333.151C1397.5 374.425 1257.25 436.49 1121.63 496.511L1106.73 503.1C1094.97 508.306 1082.81 513.686 1070.82 518.964C935.057 578.64 799.151 634.572 629.495 663.179C588.326 670.122 546.053 674.933 503.838 677.486C458.505 680.225 414.469 680.264 372.949 677.6C327.853 674.705 286.089 668.625 248.82 659.527C208.26 649.627 172.811 636.086 143.468 619.286C140.823 617.765 138.193 616.199 135.648 614.63C90.6593 586.927 63.0581 554.894 36.3672 523.915C30.4113 517.003 24.2474 509.854 18.0262 502.911C-16.5487 464.248 -55.5959 430.661 -101.352 400.234C-107.071 396.432 -112.999 392.615 -118.969 388.893C-227.897 320.978 -377.256 263.987 -550.905 224.078C-754.168 177.502 -968.993 156.714 -1155.82 165.548C-1282.6 171.67 -1412.83 203.583 -1472.52 243.157C-1513.66 270.424 -1522.25 300.81 -1497.38 331.031L-1498.06 331.13C-1511.08 315.317 -1515.1 299.501 -1510.01 284.126C-1505.33 269.951 -1492.92 256.114 -1473.14 243.001C-1442.32 222.572 -1394.21 204.269 -1333.99 190.067C-1278.25 176.921 -1215.01 168.111 -1155.91 165.255C-1057.91 160.621 -952.745 164.036 -843.315 175.406C-744.392 185.687 -645.9 201.973 -550.568 223.818C-376.819 263.748 -227.374 320.775 -118.381 388.729C-112.411 392.453 -106.476 396.273 -100.757 400.075C-54.9724 430.518 -15.9037 464.122 18.6855 502.807C24.9067 509.749 31.0707 516.901 37.0267 523.814C63.7032 554.774 91.29 586.792 136.229 614.463C138.766 616.026 141.396 617.588 144.034 619.109C268.981 690.649 476.588 688.641 629.215 662.904C798.736 634.32 934.584 578.41 1070.29 518.76C1082.28 513.482 1094.44 508.103 1106.2 502.896L1121.1 496.307C1187.67 466.846 1256.51 436.379 1331.27 408.038C1415.95 375.94 1496.05 351.358 1576.15 332.887C1627.72 321.038 1681.64 311.668 1736.4 305.04C1787.88 298.807 1841.83 294.789 1896.75 293.098C1995.01 290.071 2098.93 294.173 2214.47 305.63C2307.47 314.766 2416.78 327.331 2522.32 351.268C2628 375.314 2725.26 407.493 2819.33 438.613C2832.46 442.957 2846.03 447.447 2859.3 451.809C3081.14 524.673 3304.39 607.383 3522.85 697.64L3522.36 697.855Z" fill="white"/>
<path d="M3514.75 695.036C3298.18 603.785 3078.51 520.045 2861.85 446.145C2845.57 440.592 2828.87 434.817 2812.73 429.234C2723.77 398.459 2631.77 366.635 2530.29 343.82C2425.31 320.314 2315.57 310.3 2222.05 303.606C1981.45 286.12 1781.53 298.628 1592.88 342.964C1428.25 381.82 1293.08 436.886 1162.35 490.138C1148.6 495.742 1134.37 501.535 1120.51 507.148C1104.24 513.74 1091.8 518.748 1080.2 523.383C1018.05 548.189 944.054 576.751 866.404 600.509C784.116 625.683 705.828 643.107 627.06 653.776C585.64 659.387 543.547 662.925 501.941 664.29C457.267 665.757 414.013 664.679 373.389 661.084C329.375 657.189 288.586 650.337 252.14 640.718C212.62 630.288 177.909 616.505 148.967 599.758C146.358 598.24 143.742 596.671 141.205 595.097C96.8109 567.579 68.2853 536.04 40.6913 505.54C34.2909 498.466 27.6755 491.152 21.0028 484.048C-15.1274 445.493 -55.1279 412.182 -101.292 382.206C-107.098 378.437 -113.111 374.656 -119.168 370.964C-229.608 303.657 -380.142 247.426 -554.493 208.346C-759.169 162.627 -974.596 142.871 -1161.1 152.715C-1267.21 158.438 -1405.81 184.807 -1476.24 230.808C-1518.11 258.159 -1528.16 288.682 -1505.29 319.078L-1505.97 319.167C-1517.93 303.274 -1521.06 287.389 -1515.27 271.954C-1509.92 257.707 -1497 243.81 -1476.84 230.647C-1445.69 210.301 -1397.76 192.028 -1338.21 177.796C-1283.03 164.612 -1220.17 155.6 -1161.18 152.418C-1063.3 147.251 -958.018 150.134 -848.258 160.989C-749.099 170.796 -650.148 186.639 -554.156 208.083C-379.705 247.184 -229.085 303.447 -118.58 370.794C-112.524 374.485 -106.503 378.272 -100.698 382.044C-54.5116 412.035 -14.4896 445.364 21.6621 483.938C28.342 491.045 34.9574 498.358 41.3578 505.432C68.9303 535.917 97.4489 567.438 141.793 594.926C144.33 596.498 146.939 598.064 149.548 599.578C253.495 659.734 431.924 679.887 626.838 653.486C803.354 629.578 947.344 575.994 1079.7 523.161C1091.31 518.527 1103.73 513.518 1120.01 506.926C1133.87 501.313 1148.1 495.52 1161.85 489.916C1226.21 463.7 1292.75 436.592 1363.73 411.209C1443.99 382.502 1518.83 360.091 1592.53 342.698C1643.62 330.693 1696.75 320.883 1750.47 313.542C1801.35 306.588 1854.44 301.621 1908.27 298.774C2006.29 293.595 2108.97 295.077 2222.17 303.304C2315.74 310.004 2425.57 320.021 2530.62 343.548C2632.17 366.378 2724.19 398.21 2813.19 428.994C2829.33 434.578 2846.02 440.352 2862.3 445.906C3078.98 519.814 3298.67 603.56 3515.26 694.817L3514.75 695.036Z" fill="white"/>
<path d="M3507.15 692.216C3292.46 599.956 3076.35 515.177 2864.83 440.242C2846.84 433.868 2828.36 427.177 2810.48 420.708C2725.34 389.891 2637.3 358.026 2538.59 336.103C2433.54 312.878 2323.55 305.468 2229.8 301.283C2000.11 290.754 1797.12 307.597 1609.26 352.772C1459.67 388.906 1331.44 437.245 1207.43 483.995C1182.38 493.437 1156.49 503.202 1131.31 512.51C1115.9 518.207 1102.26 523.209 1089.57 527.802C1030.58 549.135 952.104 576.488 868.247 598.842C783.988 621.301 704.295 636.195 624.617 644.37C537.714 653.289 450.982 653.354 373.805 644.565C330.895 639.676 291.073 632.054 255.445 621.909C216.978 610.955 183.005 596.932 154.458 580.236C151.871 578.716 149.276 577.144 146.753 575.569C102.99 548.261 73.5753 517.24 45.1356 487.243C38.255 479.986 31.1453 472.484 23.9708 465.194C-13.7433 426.74 -54.6971 393.699 -101.234 364.187C-107.126 360.451 -113.225 356.703 -119.367 353.044C-231.32 286.345 -383.023 230.871 -558.076 192.627C-764.164 147.766 -980.193 129.041 -1166.37 139.893C-1292.54 147.407 -1418.52 178.961 -1479.84 218.406C-1522.52 245.855 -1534.05 276.537 -1513.19 307.136L-1513.88 307.217C-1524.78 291.227 -1527.01 275.259 -1520.49 259.758C-1514.47 245.43 -1501 231.461 -1480.45 218.241C-1448.97 197.992 -1401.22 179.76 -1342.36 165.516C-1287.77 152.305 -1225.3 143.096 -1166.47 139.593C-1068.7 133.893 -963.306 136.246 -853.21 146.584C-753.807 155.918 -654.397 171.318 -557.746 192.357C-382.593 230.626 -230.804 286.129 -118.78 352.871C-112.637 356.529 -106.538 360.28 -100.639 364.019C-54.0808 393.549 -13.1055 426.606 24.6301 465.078C31.8046 472.367 38.9146 479.873 45.7952 487.129C74.2206 517.111 103.621 548.117 147.341 575.399C149.864 576.973 152.451 578.539 155.039 580.06C257.201 639.826 432.677 663.758 624.445 644.08C799.269 626.139 951.086 577.482 1089.1 527.577C1101.78 522.985 1115.43 517.985 1130.83 512.288C1156 502.981 1181.9 493.218 1206.94 483.776C1330.98 437.018 1459.23 388.666 1608.89 352.517C1659.52 340.342 1711.88 330.095 1764.51 322.054C1814.84 314.366 1867.08 308.447 1919.78 304.463C2017.78 297.053 2119.21 295.919 2229.86 300.99C2323.68 305.178 2433.76 312.59 2538.92 335.843C2637.7 357.78 2725.77 389.657 2810.95 420.486C2828.82 426.956 2847.3 433.644 2865.3 440.017C3076.83 514.959 3292.96 599.743 3507.67 692.009L3507.15 692.216Z" fill="white"/>
<path d="M3499.55 689.395C3286.77 596.118 3074.23 510.306 2867.82 434.341C2848.86 427.36 2829.34 419.968 2810.48 412.819C2728.44 381.742 2643.62 349.604 2546.89 328.388C2441.4 305.361 2331.32 300.592 2237.54 298.963C2016.53 294.844 1816.37 315.653 1625.63 362.582C1491.87 395.651 1372.63 437.502 1257.31 477.974C1217.66 491.892 1180.2 505.037 1142.11 517.871C1126.61 523.095 1112.5 527.789 1098.95 532.217C1011.55 560.762 938.831 581.401 870.097 597.166C783.867 616.945 702.777 629.309 622.188 634.961C590.924 637.152 559.775 638.245 529.192 638.245C474.979 638.245 422.522 634.82 374.229 628.037C286.831 615.759 214.743 593.106 159.963 560.705C157.383 559.17 154.81 557.598 152.316 556.029C109.219 528.957 78.9802 498.487 49.7377 469.017C42.3268 461.551 34.6721 453.833 26.9529 446.328C-12.3739 407.964 -54.2882 375.198 -101.162 346.156C-107.14 342.452 -113.325 338.737 -119.553 335.112C-233.018 269.02 -385.896 214.307 -561.652 176.892C-769.152 132.893 -985.776 115.195 -1171.63 127.056C-1298.33 135.309 -1420.67 166.264 -1483.31 205.919C-1526.85 233.482 -1539.91 264.347 -1521.08 295.179L-1521.78 295.254C-1531.61 279.154 -1532.91 263.089 -1525.65 247.507C-1518.93 233.084 -1504.89 219.037 -1483.9 205.754C-1452.09 185.615 -1404.55 167.444 -1346.41 153.2C-1292.41 139.968 -1230.37 130.579 -1171.74 126.759C-1074.08 120.526 -968.574 122.347 -858.148 132.169C-758.501 141.033 -658.64 155.99 -561.323 176.622C-385.466 214.062 -232.502 268.804 -118.966 334.935C-112.737 338.564 -106.552 342.279 -100.567 345.985C-53.6646 375.042 -11.7289 407.826 27.6123 446.205C35.3314 453.71 42.9933 461.431 50.3971 468.897C79.6252 498.352 109.85 528.81 152.911 555.859C155.405 557.424 157.971 558.996 160.551 560.529C262.842 621.037 431.058 648.058 622.066 634.662C803.892 621.909 964.941 575.599 1098.51 531.978C1112.05 527.55 1126.16 522.859 1141.66 517.635C1179.74 504.801 1217.2 491.659 1256.85 477.741C1372.19 437.26 1491.46 395.402 1625.27 362.322C1675.52 349.958 1727.09 339.27 1778.57 330.553C1828.43 322.11 1879.81 315.24 1931.3 310.135C2029.5 300.403 2129.69 296.649 2237.57 298.661C2331.42 300.289 2441.61 305.064 2547.22 328.119C2644.02 349.35 2728.89 381.502 2810.95 412.592C2829.82 419.741 2849.33 427.132 2868.29 434.111C3074.71 510.082 3287.27 595.902 3500.06 689.186L3499.55 689.395Z" fill="white"/>
<path d="M3491.95 686.576C3278.12 590.945 3074.94 506.507 2870.81 428.438C2851.33 420.989 2832.16 413.382 2811.85 405.329C2732.49 373.848 2650.42 341.297 2555.18 320.673C2448.38 297.655 2333.47 295.739 2245.29 296.643C2034.34 298.523 1837 323.302 1642.01 372.396C1525.02 401.994 1417 437.539 1312.54 471.915C1257.64 489.982 1205.78 507.043 1152.9 523.236C1137.2 528.047 1122.62 532.43 1108.33 536.636C1019.73 562.669 944.62 581.368 871.93 595.486C783.7 612.622 701.212 622.456 619.749 625.552C577.892 627.142 536.322 626.842 496.193 624.663C453.705 622.355 412.808 617.927 374.643 611.506C290.047 597.271 219.672 573.611 165.466 541.181C162.907 539.642 160.356 538.067 157.876 536.498C115.503 509.705 84.5046 479.816 54.5239 450.911C46.5253 443.2 38.2542 435.224 29.933 427.471C-11.0424 389.19 -53.9026 356.697 -101.099 328.134C-107.17 324.463 -113.441 320.781 -119.741 317.189C-234.719 251.705 -388.765 197.752 -565.223 161.166C-728.092 127.538 -896.05 109.992 -1050.07 109.992C-1093.61 109.992 -1136 111.393 -1176.89 114.228C-1302.06 123.077 -1423.64 154.143 -1486.64 193.372C-1531.11 221.064 -1545.75 252.139 -1528.98 283.234L-1529.69 283.3C-1538.44 267.074 -1538.8 250.899 -1530.78 235.227C-1523.34 220.699 -1508.69 206.56 -1487.24 193.205C-1455.1 173.192 -1407.79 155.095 -1350.39 140.866C-1296.21 127.433 -1236.26 118.12 -1177.02 113.934C-1079.48 107.169 -973.858 108.459 -863.095 117.763C-763.212 126.152 -662.884 140.662 -564.907 160.894C-388.349 197.501 -234.21 251.483 -119.161 317.006C-112.853 320.599 -106.575 324.284 -100.504 327.957C-53.2861 356.535 -10.4043 389.044 30.5924 427.342C38.9137 435.096 47.1918 443.071 55.1904 450.786C85.1567 479.678 116.141 509.555 158.478 536.328C160.958 537.893 163.509 539.468 166.061 541.004C267.428 601.647 432.762 632.351 619.692 625.25C808.843 618.062 979.969 573.983 1107.93 536.385C1122.22 532.178 1136.8 527.796 1152.49 522.988C1205.37 506.801 1257.21 489.737 1312.11 471.673C1416.58 437.293 1524.62 401.74 1641.65 372.132C1742.04 346.856 1840.56 328.436 1942.83 315.815C2041.47 303.642 2140.41 297.272 2245.29 296.338C2305.12 295.724 2353.93 296.79 2398.92 299.688C2456.99 303.43 2508.22 310.204 2555.53 320.401C2650.85 341.043 2732.95 373.611 2812.36 405.108C2832.66 413.161 2851.84 420.765 2871.3 428.213C3075.44 506.286 3278.63 590.729 3492.48 686.366L3491.95 686.576Z" fill="white"/>
<path d="M3484.35 683.756C3272.47 587.077 3072.75 501.634 2873.79 422.534C2854.11 414.708 2834.7 406.646 2814.15 398.111C2737.16 366.133 2657.55 333.061 2563.48 312.956C2455.79 290.045 2341 290.961 2253.03 294.317C2053.96 301.648 1859.45 330.397 1658.39 382.2C1559.32 407.847 1465 437.197 1373.78 465.583C1301.67 488.021 1233.57 509.217 1163.7 528.589C1147.91 532.972 1132.43 537.163 1117.7 541.043C1028.93 564.406 949.141 581.658 873.762 593.789C783.505 608.314 699.619 615.625 617.311 616.134C575.432 616.391 534.027 614.811 494.27 611.431C452.592 607.886 412.484 602.345 375.057 594.956C293.364 578.829 224.695 554.164 170.962 521.644C168.439 520.108 165.901 518.53 163.429 516.952C121.851 490.485 90.1791 461.228 59.5461 432.934C50.881 424.929 41.9148 416.648 32.9055 408.598C-9.74695 370.39 -53.5604 338.172 -101.036 310.097C-107.193 306.459 -113.551 302.81 -119.937 299.25C-236.426 234.374 -391.648 181.182 -568.808 145.425C-779.125 103.154 -996.96 87.5149 -1182.17 101.388C-1305.72 110.803 -1426.49 141.949 -1489.84 180.733C-1535.31 208.571 -1551.58 239.879 -1536.9 271.277L-1537.6 271.334C-1545.26 254.968 -1544.67 238.667 -1535.85 222.887C-1527.65 208.239 -1512.38 193.998 -1490.43 180.562C-1457.98 160.693 -1410.9 142.686 -1354.28 128.487C-1300.72 115.057 -1241.26 105.585 -1182.3 101.091C-1084.87 93.7956 -979.135 94.5501 -868.042 103.34C-767.915 111.261 -667.136 125.328 -568.5 145.153C-391.232 180.927 -235.924 234.152 -119.37 299.068C-112.977 302.627 -106.613 306.28 -100.456 309.92C-52.9513 338.01 -9.12341 370.243 33.5505 408.467C42.5669 416.517 51.5261 424.797 60.1985 432.805C90.8171 461.087 122.475 490.332 164.024 516.782C166.496 518.356 169.033 519.934 171.549 521.467C273.984 583.46 432.287 616.978 617.296 615.828C767.415 614.9 926.299 591.053 1117.31 540.782C1132.04 536.902 1147.51 532.714 1163.3 528.331C1233.14 508.962 1301.25 487.773 1373.34 465.335C1464.57 436.946 1558.91 407.59 1658.01 381.936C1759.38 355.816 1856.31 336.046 1954.34 321.488C2053.65 306.741 2151.33 297.751 2252.97 294.008C2341.03 290.647 2455.96 289.733 2563.81 312.68C2657.98 332.81 2737.63 365.896 2814.66 397.89C2835.2 406.425 2854.61 414.484 2874.28 422.307C3073.26 501.409 3272.99 586.858 3484.87 683.543L3484.35 683.756Z" fill="white"/>
<path d="M3476.75 680.935C3266.85 583.206 3070.6 496.751 2876.79 416.633C2857.11 408.499 2837.68 400.048 2817.12 391.1C2742.31 358.549 2664.94 324.891 2571.8 305.241C2463.09 282.414 2348.49 286.171 2260.79 291.993C2073.49 304.193 1887.28 335.974 1674.77 392.01C1595.07 413.122 1517.18 436.281 1441.86 458.677C1350.38 485.878 1263.97 511.572 1174.5 533.95C1158.38 537.986 1142.43 541.86 1127.08 545.458C1036.73 566.636 954.467 581.891 875.606 592.094C831.434 597.809 787.828 601.949 746 604.401C701.383 607.015 657.269 607.796 614.882 606.724C528.882 604.548 448.336 595.022 375.488 578.413C296.813 560.475 229.856 534.807 176.481 502.115C173.973 500.568 171.457 498.987 168.999 497.418C128.31 471.34 96.0716 442.777 64.9011 415.157C55.4618 406.796 45.7071 398.15 35.8951 389.738C-8.47744 351.592 -53.2442 319.646 -100.964 292.071C-107.207 288.464 -113.657 284.848 -120.122 281.324C-238.124 217.052 -394.514 164.62 -572.377 129.699C-784.098 88.293 -1002.53 73.6838 -1187.43 88.5595C-1385.41 104.734 -1578.33 174.622 -1544.79 259.329L-1545.5 259.377C-1553.89 238.188 -1548.97 217.313 -1530.89 197.327C-1514.38 179.074 -1487.28 161.896 -1450.35 146.275C-1416.01 131.75 -1374.81 119.209 -1327.91 109C-1283.3 99.2919 -1234.77 92.119 -1187.57 88.2631C-1090.26 80.4346 -984.409 80.6591 -872.979 88.9337C-772.609 96.385 -671.371 110.009 -572.076 129.429C-394.113 164.375 -237.629 216.837 -119.556 281.144C-113.084 284.671 -106.633 288.287 -100.383 291.898C-52.6421 319.485 -7.85392 351.448 36.5402 389.609C46.3522 398.021 56.107 406.667 65.5463 415.032C96.7096 442.642 128.934 471.193 169.601 497.257C172.052 498.825 174.56 500.406 177.069 501.951C279.654 564.777 435.155 601.877 614.925 606.428C767.114 610.275 934.528 590.25 1126.73 545.201C1142.07 541.602 1158.02 537.731 1174.14 533.696C1263.58 511.324 1349.98 485.632 1441.45 458.434C1516.78 436.035 1594.67 412.873 1674.38 391.759C1886.98 335.698 2073.27 303.905 2260.67 291.697C2319.6 287.784 2368.39 286.533 2414.23 287.763C2472.82 289.335 2524.46 294.963 2572.11 304.971C2665.37 324.643 2742.77 358.322 2817.63 390.89C2838.19 399.836 2857.61 408.287 2877.28 416.418C3071.11 496.541 3267.37 582.999 3477.27 680.735L3476.75 680.935Z" fill="white"/>
<path d="M3469.15 678.115C3261.25 579.32 3068.45 491.859 2879.78 410.73C2860.25 402.335 2840.96 393.543 2820.53 384.229C2747.75 351.056 2672.48 316.751 2580.1 297.523C2469.03 274.504 2349.09 282.015 2268.54 289.667C2049.91 310.18 1853.97 357.87 1691.16 401.82C1632.63 417.681 1574.26 434.482 1517.81 450.729C1404.56 483.321 1297.59 514.105 1185.31 539.312C1168.8 543.021 1152.37 546.575 1136.47 549.877C1044.35 568.974 959.628 582.23 877.462 590.397C784.316 599.656 695.163 601.985 612.459 597.315C527.499 592.516 447.913 580.589 375.925 561.864C300.418 542.225 235.174 515.554 181.993 482.59C179.513 481.043 177.012 479.459 174.568 477.884C134.89 452.285 102.25 424.507 70.6782 397.641C60.3358 388.837 49.6353 379.736 38.8843 370.877C-7.8822 332.253 -52.2979 301.486 -100.885 274.046C-107.214 270.472 -113.743 266.891 -120.301 263.398C-239.829 199.737 -397.395 148.065 -575.96 113.97C-789.086 73.4323 -1008.12 59.8498 -1192.7 75.7284C-1391.39 93.047 -1580.37 161.986 -1552.69 247.381L-1553.4 247.42C-1560.27 226.234 -1554.33 205.38 -1535.75 185.439C-1518.72 167.168 -1491.46 149.972 -1454.72 134.333C-1420.47 119.748 -1379.48 107.114 -1332.91 96.7771C-1288.57 86.9338 -1240.13 79.5544 -1192.85 75.432C-1095.64 67.0706 -989.684 66.7653 -877.924 74.522C-777.31 81.5033 -675.614 94.6845 -575.659 113.698C-396.986 147.811 -239.335 199.512 -119.749 263.212C-113.191 266.709 -106.654 270.292 -100.318 273.867C-51.7029 301.319 -7.27295 332.103 39.5149 370.743C50.2659 379.601 60.9667 388.705 71.3091 397.509C102.874 424.366 135.506 452.136 175.156 477.723C177.6 479.297 180.094 480.878 182.574 482.426C285.954 546.503 438.653 587.199 612.545 597.019C768.505 605.826 939.774 590.316 1136.15 549.607C1152.04 546.308 1168.47 542.758 1184.97 539.049C1297.22 513.848 1404.17 483.069 1517.4 450.48C1573.86 434.233 1632.23 417.43 1690.76 401.566C1800.25 372.015 1891.33 350.182 1977.38 332.857C2078.68 312.464 2173.86 298.241 2268.37 289.374C2325.98 283.901 2376.2 281.423 2421.89 281.8C2480.72 282.285 2532.57 287.338 2580.41 297.253C2672.92 316.506 2748.23 350.832 2821.05 384.026C2841.48 393.336 2860.77 402.129 2880.28 410.517C3068.98 491.649 3261.77 579.116 3469.69 677.915L3469.15 678.115Z" fill="white"/>
<path d="M3461.55 675.292C3255.65 575.428 3066.33 486.958 2882.76 404.823C2863.51 396.21 2844.46 387.112 2824.29 377.479C2753.43 343.638 2680.16 308.645 2588.4 289.805C2476.11 266.84 2356.5 277.399 2276.29 287.341C2078.2 311.683 1901.51 358.032 1707.54 411.628C1672.55 421.33 1637.17 431.344 1602.95 441.032C1471.33 478.286 1335.23 516.806 1196.11 544.671C1179.21 548.06 1162.29 551.296 1145.85 554.29C1053.1 571.15 963.424 582.724 879.302 588.69C784.006 595.45 693.411 595.184 610.013 587.903C526.242 580.589 447.624 566.259 376.339 545.309C304.2 524.107 240.655 496.436 187.474 463.066C185.015 461.515 182.536 459.928 180.106 458.354C141.625 433.353 108.777 406.479 77.0118 380.49C65.5658 371.126 53.7325 361.444 41.842 352.023C-6.75208 313.437 -52.0922 282.935 -100.844 256.027C-107.244 252.495 -113.867 248.944 -120.518 245.477C-241.538 182.415 -400.264 131.504 -579.546 98.2412C-794.07 58.5717 -1013.7 46.0191 -1197.98 62.8976C-1390.37 80.7101 -1582.84 147.23 -1560.61 235.431L-1561.32 235.46C-1566.66 214.274 -1559.69 193.444 -1540.62 173.548C-1523.08 155.256 -1495.66 138.045 -1459.12 122.388C-1391.71 93.5052 -1296.58 71.714 -1198.14 62.6012C-1101.04 53.7099 -994.975 52.8717 -882.879 60.1104C-782.021 66.6247 -679.873 79.3599 -579.259 97.9658C-399.877 131.247 -241.057 182.191 -119.959 245.283C-113.301 248.753 -106.678 252.303 -100.271 255.839C-51.4973 282.761 -6.13562 313.276 42.4728 351.877C54.3633 361.301 66.2036 370.982 77.6497 380.347C109.408 406.329 142.248 433.197 180.708 458.186C183.13 459.761 185.61 461.344 188.069 462.895C294.467 529.66 440.421 572.785 610.149 587.607C767.313 601.33 947.441 590.028 1145.54 554.014C1161.99 551.021 1178.89 547.787 1195.78 544.401C1334.85 516.545 1470.93 478.031 1602.52 440.783C1636.75 431.096 1672.13 421.082 1707.12 411.379C1792.03 387.918 1890.83 361.007 1988.89 338.54C2091.46 315.039 2185.39 298.199 2276.07 287.057C2333.15 279.983 2383.35 276.313 2429.54 275.84C2487.79 275.241 2541.33 279.851 2588.7 289.539C2629.8 297.978 2671.17 310.572 2715.17 328.044C2754.02 343.47 2790.01 360.66 2824.81 377.281C2844.98 386.912 2864.03 396.01 2883.27 404.62C3066.85 486.758 3256.18 575.231 3462.09 675.097L3461.55 675.292Z" fill="white"/>
<path d="M3453.96 672.472C3250.08 571.53 3064.22 482.051 2885.75 398.922C2866.85 390.121 2848.13 380.747 2828.31 370.826C2759.3 336.282 2687.94 300.561 2596.71 282.093C2511.45 264.888 2409.18 265.846 2284.04 285.021C2109.07 311.68 1952.66 356.271 1787.07 403.484C1766.45 409.364 1745.14 415.441 1723.92 421.444C1715.61 423.8 1707.3 426.162 1698.99 428.521C1541.21 473.334 1378.06 519.673 1206.92 550.035C1189.62 553.107 1172.23 556.026 1155.23 558.708C1060.45 573.656 968.247 583.169 881.179 586.983C783.683 591.252 691.633 588.396 607.604 578.493C525.137 568.773 447.487 552.038 376.811 528.753C308.306 506.183 246.467 477.516 193.006 443.54C190.569 441.986 188.111 440.397 185.695 438.819C148.677 414.603 115.936 388.812 84.2642 363.872C71.4419 353.771 58.1753 343.326 44.8513 333.159C-5.62061 294.601 -51.8783 264.361 -100.745 237.999C-107.238 234.496 -113.94 230.981 -120.677 227.548C-243.23 165.096 -403.132 114.943 -583.116 82.5118C-799.03 43.7134 -1019.27 32.1877 -1203.24 50.0661C-1392.09 68.5701 -1584.29 135.635 -1568.5 223.482L-1569.22 223.506C-1573.02 202.317 -1565.04 181.511 -1545.47 161.665C-1527.42 143.353 -1499.84 126.121 -1463.49 110.452C-1396.37 81.5089 -1301.57 59.3944 -1203.41 49.7757C-1106.42 40.3515 -1000.24 38.9804 -887.819 45.7043C-786.717 51.7455 -684.103 64.0377 -582.83 82.2364C-402.745 114.688 -242.743 164.869 -120.139 227.353C-113.402 230.787 -106.686 234.307 -100.193 237.81C-51.3048 264.188 -5.01868 294.436 45.4677 333.01C58.7988 343.176 72.0583 353.624 84.8878 363.725C116.546 388.66 149.286 414.444 186.29 438.651C188.706 440.229 191.157 441.816 193.594 443.37C302.3 512.452 445.523 559.073 607.79 578.197C767.972 597.075 952.07 590.42 1154.98 558.42C1171.96 555.738 1189.34 552.822 1206.63 549.754C1377.72 519.404 1540.84 473.073 1698.58 428.266C1706.9 425.904 1715.21 423.545 1723.51 421.189C1744.73 415.187 1766.04 409.11 1786.66 403.233C1952.29 356.01 2108.74 311.407 2283.79 284.736C2340.32 276.073 2390.51 271.214 2437.22 269.876C2495.69 268.202 2549.45 272.223 2597.02 281.82C2637.88 290.092 2678.73 302.743 2721.91 320.499C2760.01 336.165 2795.01 353.687 2828.86 370.632C2848.68 380.55 2867.4 389.92 2886.29 398.719C3064.76 481.851 3250.63 571.332 3454.51 672.277L3453.96 672.472Z" fill="white"/>
<path d="M3446.36 669.652C3260.27 575.59 3072.66 482.516 2888.74 393.019C2870.01 383.96 2851.45 374.227 2831.81 363.926C2767.91 330.415 2695.49 292.434 2605.01 274.379C2518.76 257.204 2416.3 259.925 2291.78 282.695C2143.71 309.68 2012.69 349.359 1873.97 391.366C1830.53 404.521 1785.6 418.127 1740.29 431.251C1661.2 454.21 1575.64 478.504 1485.96 500.631C1389.91 524.329 1302.16 542.24 1217.69 555.394C1199.95 558.158 1182.09 560.759 1164.59 563.121C1067.81 576.183 973.09 583.616 883.076 585.215C783.43 586.981 689.926 581.556 605.151 569.079C448.604 545.752 311.78 496.945 198.487 424.013C196.072 422.456 193.635 420.863 191.234 419.286C156.093 396.138 123.926 371.719 92.8202 348.101C78.1775 336.986 63.0402 325.49 47.8097 314.303C-4.58301 275.753 -51.7723 245.78 -100.696 219.977C-107.283 216.504 -114.07 213.023 -120.886 209.625C-244.93 147.775 -406.008 98.3848 -586.695 66.7833C-804.006 28.8531 -1024.84 18.3601 -1208.51 37.2354C-1398.51 56.8711 -1585.89 123.047 -1576.41 211.535L-1577.13 211.547C-1579.4 190.351 -1570.38 169.569 -1550.33 149.775C-1531.76 131.438 -1504.02 114.189 -1467.88 98.5075C-1433.84 83.7336 -1393.49 70.8158 -1347.95 60.1103C-1303.74 49.7192 -1256.89 41.9236 -1208.69 36.942C-1111.81 26.988 -1005.52 25.084 -892.766 31.2899C-791.421 36.8672 -688.355 48.7133 -586.422 66.5048C-405.628 98.1243 -244.457 147.544 -120.342 209.424C-113.526 212.825 -106.724 216.31 -100.137 219.782C-51.1919 245.6 -3.98108 275.585 48.4332 314.147C63.6637 325.337 78.8009 336.833 93.4437 347.952C124.55 371.566 156.709 395.983 191.836 419.121C194.23 420.702 196.674 422.291 199.082 423.848C312.289 496.724 448.991 545.491 605.388 568.794C766.486 592.504 959.781 590.445 1164.37 562.834C1181.85 560.472 1199.71 557.873 1217.44 555.113C1406.29 525.706 1579.08 477.678 1739.87 431.003C1785.19 417.879 1830.1 404.275 1873.54 391.121C2012.29 349.104 2143.35 309.417 2291.48 282.42C2416.2 259.614 2518.86 256.892 2605.31 274.106C2645.83 282.192 2686.07 294.867 2728.32 312.851C2765.57 328.708 2799.53 346.518 2832.37 363.738C2852.01 374.039 2870.56 383.768 2889.28 392.821C3073.22 482.321 3260.83 575.395 3446.91 669.46L3446.36 669.652Z" fill="white"/>
<path d="M3438.75 666.832C3255.52 572.249 3071.47 478.139 2891.72 387.116C2873.58 377.958 2855.58 368.055 2836.52 357.571C2774.2 323.278 2703.55 284.408 2613.3 266.658C2526.02 249.513 2423.37 253.998 2299.51 280.363C2169.73 307.947 2050.5 346.895 1935.19 384.565C1877.37 403.452 1817.58 422.983 1756.66 441.056C1660.5 469.61 1579.6 491.392 1502.04 509.609C1406.41 532.071 1316.93 548.8 1228.49 560.75C1210.34 563.205 1191.99 565.487 1173.96 567.531C1080.04 578.18 987.813 583.568 899.584 583.571C894.682 583.571 889.808 583.553 884.934 583.521C782.93 582.826 687.978 574.797 602.716 559.661C561.562 552.314 521.26 542.989 482.936 531.942C446.914 521.56 411.515 509.331 377.721 495.596C316.921 470.886 260.084 441.08 203.979 404.482C201.571 402.908 199.17 401.33 196.783 399.746C164.229 378.153 133.432 355.58 103.652 333.75C86.4573 321.15 68.6825 308.118 50.7787 295.434C-4.34485 256.354 -51.0397 227.519 -100.644 201.943C-107.317 198.504 -114.19 195.055 -121.092 191.69C-246.642 130.454 -408.887 81.8241 -590.276 51.0518C-808.978 13.9928 -1030.41 4.52968 -1213.79 24.4019C-1400.22 44.6632 -1587.36 111.342 -1584.31 199.581L-1585.03 199.584C-1586.45 158.484 -1547.45 119.401 -1472.26 86.5631C-1438.27 71.7203 -1398.14 58.7097 -1352.95 47.8845C-1308.99 37.3526 -1262.23 29.3534 -1213.97 24.1085C-1117.2 13.6215 -1010.79 11.1877 -897.709 16.8757C-796.12 21.9859 -692.596 33.389 -590.011 50.7704C-408.507 81.5636 -246.168 130.223 -120.541 191.495C-113.639 194.863 -106.751 198.315 -100.078 201.755C-50.4519 227.345 -3.7356 256.189 51.4022 295.284C69.3062 307.971 87.0881 321.003 104.275 333.603C134.055 355.43 164.846 378 197.392 399.588C199.779 401.171 202.173 402.749 204.581 404.321C323.802 482.091 454.124 532.813 602.995 559.385C809.19 595.992 1027.2 583.865 1173.78 567.244C1191.79 565.199 1210.12 562.921 1228.27 560.466C1431.67 532.978 1617.27 482.082 1756.25 440.814C1817.16 422.747 1876.94 403.216 1934.75 384.332C2050.09 346.656 2169.34 307.696 2299.19 280.1C2354.61 268.302 2404.78 261.057 2452.54 257.955C2511.44 254.13 2565.63 256.968 2613.6 266.392C2654.02 274.34 2693.87 287.117 2735.43 305.451C2772.05 321.605 2805.12 339.797 2837.1 357.394C2856.15 367.875 2874.14 377.775 2892.27 386.927C3072.02 477.951 3256.07 572.061 3439.31 666.644L3438.75 666.832Z" fill="white"/>
<path d="M3431.15 664.012L2894.71 381.215C2877.19 371.979 2859.79 361.929 2841.37 351.293C2780.58 316.189 2711.68 276.402 2621.6 258.946C2534.49 242.068 2428.73 248.492 2307.26 278.043C2190.47 306.45 2083.96 344.228 1980.95 380.763C1913.81 404.578 1844.38 429.201 1773.04 450.872C1558.63 516.009 1371.25 554.481 1183.35 571.95C1105.4 579.194 1028.5 582.841 953.924 582.841C931.318 582.841 908.942 582.505 886.802 581.835C782.389 578.673 685.99 568.046 600.291 550.251C520.863 533.756 448.201 510.471 378.177 479.061C322.258 453.98 268.654 424.079 209.488 384.96C178.26 364.315 148.021 342.865 118.779 322.122C52.5963 275.181 -15.8368 226.641 -100.561 183.921C-230.518 118.398 -401.099 67.0138 -593.863 35.3225C-813.948 -0.862409 -1035.98 -9.29866 -1219.06 11.5704C-1396.3 31.7749 -1588.68 95.4869 -1592.22 187.633L-1592.94 187.627C-1591.35 146.44 -1551.14 107.363 -1476.64 74.6208C-1409.28 45.0161 -1317.87 22.5214 -1219.24 11.28C-1122.59 0.263225 -1016.07 -2.70353 -902.658 2.46659C-800.825 7.10683 -696.842 18.0698 -593.598 35.0441C-498.216 50.7251 -407.629 71.3666 -324.345 96.397C-240.366 121.637 -164.887 151.017 -100.016 183.723C-15.2562 226.458 53.1985 275.01 119.395 321.963C148.638 342.704 178.876 364.151 210.097 384.792C296.42 441.87 418.822 512.225 600.613 549.976C809.095 593.268 1032.49 585.658 1183.19 571.65C1371 554.194 1558.3 515.737 1772.62 450.624C1843.93 428.961 1913.35 404.338 1980.48 380.529C2083.51 343.988 2190.06 306.202 2306.9 277.779C2428.58 248.178 2534.57 241.747 2621.91 258.671C2662.24 266.487 2701.72 279.375 2742.62 298.077C2778.61 314.539 2810.81 333.133 2841.95 351.113C2860.37 361.75 2877.76 371.794 2895.27 381.026L3431.72 663.823L3431.15 664.012Z" fill="white"/>
<path d="M3426.83 642.271C3290.23 563.531 3173.03 499.636 3057.99 441.196C3002.15 412.807 2945.12 384.864 2888.49 358.142C2871.36 350.059 2854.38 341.461 2836.42 332.357C2791.26 309.476 2744.57 285.817 2690.83 268.259C2661.99 258.814 2634.21 252.051 2605.93 247.585C2519.11 233.739 2417.25 242.894 2303.19 274.797C2244.15 291.284 2190.39 310.045 2145.6 326.223C2098.17 343.35 2051.39 362.237 2006.15 380.502C1941.12 406.757 1873.87 433.904 1801.58 457.219C1757.6 471.448 1713.01 484.162 1669.05 495.011C1581.11 516.715 1486.72 534.6 1388.5 548.167C1327.81 556.457 1266.83 562.723 1207.27 566.788C1155.93 570.279 1104.5 572.293 1054.39 572.775C979.398 573.5 906.335 570.737 837.228 564.555C763.749 557.981 694.212 547.488 630.553 533.363C573.788 520.769 520.17 504.911 466.637 484.88C366.883 447.585 287.319 404.461 229.15 371.057C200.574 354.571 172.672 337.758 145.687 321.499C67.9865 274.675 -5.40637 230.449 -97.2478 191.055C-172.153 159.136 -257.615 131.591 -351.285 109.18C-423.265 91.9571 -501.554 77.8717 -583.97 67.313C-603.601 64.8013 -623.605 62.4602 -643.408 60.3616C-728.67 51.3416 -824.654 45.4679 -928.687 42.9023C-1033.57 40.2559 -1124.32 42.5461 -1206.09 49.9106C-1252.32 54.0419 -1297.11 60.5233 -1339.23 69.1721C-1487.93 99.7078 -1583.42 150.969 -1594.66 206.299L-1595.56 206.266C-1592.56 191.516 -1583.77 176.987 -1569.43 163.078C-1555.8 149.867 -1537.09 137.126 -1513.81 125.208C-1469.82 102.696 -1409.59 83.2005 -1339.62 68.8338C-1297.44 60.17 -1252.58 53.6796 -1206.28 49.5424C-1124.42 42.1719 -1033.6 39.8787 -928.63 42.5281C-824.539 45.0937 -728.505 50.9733 -643.186 59.9994C-623.361 62.1009 -603.35 64.442 -583.705 66.9567C-501.224 77.5215 -422.871 91.6188 -350.833 108.857C-257.099 131.282 -171.565 158.851 -96.6241 190.791C-4.72546 230.209 68.6818 274.447 146.411 321.284C173.388 337.542 201.29 354.352 229.859 370.835C288 404.224 367.528 447.327 467.225 484.599C520.7 504.609 574.261 520.452 630.961 533.031C755.55 560.672 898 573.919 1054.36 572.401C1104.42 571.919 1155.82 569.905 1207.12 566.417C1266.64 562.351 1327.58 556.092 1388.21 547.808C1486.37 534.249 1580.71 516.377 1668.6 494.685C1712.52 483.845 1757.08 471.136 1801.03 456.919C1873.28 433.616 1940.51 406.475 2005.51 380.23C2050.77 361.962 2097.56 343.069 2145 325.936C2189.82 309.749 2243.6 290.981 2302.68 274.483C2353.47 260.278 2402.65 250.465 2448.85 245.312C2505.61 238.984 2558.57 239.63 2606.25 247.234C2634.61 251.716 2662.47 258.497 2691.39 267.963C2745.2 285.548 2791.92 309.222 2837.11 332.118C2855.07 341.219 2872.04 349.817 2889.16 357.894C2945.81 384.618 3002.85 412.565 3058.7 440.96C3173.74 499.406 3290.95 563.306 3427.57 642.053L3426.83 642.271Z" fill="white"/>
<path d="M3422.52 620.525C3295.87 540.453 3177 473.448 3059.12 415.684C3001.63 387.469 2942.13 360.346 2882.28 335.07C2866.4 328.364 2850.72 321.395 2834.12 314.018C2784.41 291.928 2733.01 269.086 2675.43 253.282C2646.36 245.268 2618.51 239.687 2590.26 236.221C2482.11 222.941 2372.25 248.1 2299.12 271.543C2247.31 288.105 2199.99 306.83 2152.06 326.161C2110.11 343.081 2070.64 361.283 2028.86 380.55C1966.84 409.152 1902.71 438.727 1830.13 463.56C1787.06 478.375 1742.12 491.185 1696.54 501.633C1611.64 521.098 1518.68 536.214 1412.33 547.847C1352.81 554.356 1291.86 558.993 1231.17 561.624C1179.96 563.819 1128.84 564.603 1079.23 563.947C1005.42 562.983 933.276 558.649 864.785 551.065C792.855 543.099 724.221 531.46 660.798 516.47C605.23 503.34 551.576 487.048 496.768 466.667C397.229 429.704 311.96 388.726 248.802 357.154C225.422 345.467 202.415 333.708 180.161 322.332C91.5372 277.031 7.83075 234.239 -93.9302 198.189C-169.982 171.245 -255.366 148.463 -347.695 130.477C-417.554 116.868 -491.599 106.671 -574.052 99.3038C-593.081 97.6064 -612.439 96.0766 -631.583 94.7564C-715.67 88.9875 -805.411 86.8051 -913.988 84.5479C-992.255 82.8385 -1094.71 81.7128 -1193.14 88.2451C-1239.75 91.2807 -1284.82 96.5526 -1327.08 103.908C-1475.89 129.813 -1576.83 175.065 -1597.12 224.964L-1598.18 224.89C-1592.8 211.657 -1581.91 198.68 -1565.82 186.313C-1550.48 174.53 -1530.32 163.231 -1505.92 152.723C-1459.54 132.761 -1397.84 115.736 -1327.5 103.492C-1285.15 96.1215 -1240.01 90.8406 -1193.31 87.799C-1094.79 81.2578 -992.255 82.3864 -913.938 84.0958C-805.325 86.3531 -715.555 88.5355 -631.411 94.3073C-612.253 95.6305 -592.88 97.1603 -573.829 98.8578C-491.298 106.234 -417.181 116.44 -347.243 130.064C-254.821 148.068 -169.366 170.868 -93.235 197.839C8.59762 233.916 92.3401 276.72 180.992 322.038C203.239 333.411 226.246 345.171 249.626 356.855C312.769 388.415 398.003 429.377 497.484 466.323C552.228 486.683 605.825 502.957 661.328 516.072C786.039 545.545 926.661 561.499 1079.27 563.492C1128.83 564.145 1179.9 563.364 1231.06 561.169C1291.7 558.541 1352.6 553.909 1412.06 547.404C1518.32 535.783 1611.21 520.679 1696.03 501.232C1741.55 490.796 1786.44 478.004 1829.46 463.203C1901.97 438.391 1966.07 408.829 2028.07 380.242C2069.87 360.965 2109.35 342.761 2151.33 325.831C2199.27 306.489 2246.61 287.757 2298.48 271.178C2345.88 255.979 2392.64 245.046 2437.46 238.676C2491.8 230.952 2543.32 229.979 2590.58 235.781C2618.93 239.262 2646.88 244.861 2676.03 252.899C2733.71 268.732 2785.16 291.595 2834.91 313.704C2851.5 321.077 2867.18 328.044 2883.05 334.747C2942.93 360.031 3002.44 387.163 3059.95 415.388C3177.85 473.166 3296.75 540.183 3423.42 620.274L3422.52 620.525Z" fill="white"/>
<path d="M3418.19 598.78C3299.66 516.288 3182.58 448.053 3060.24 390.175C3001.09 362.133 2939.12 335.834 2876.07 312.001C2862.59 306.906 2848.72 301.499 2835.3 296.272C2779.89 274.675 2722.59 252.345 2660.04 238.308C2630.67 231.674 2602.73 227.273 2574.61 224.857C2466.69 215.58 2363.02 243.355 2295.06 268.287C2249 285.117 2206.89 304.193 2166.16 322.643L2158.54 326.098C2121.56 342.836 2086.88 361.193 2050.15 380.632C1991.68 411.583 1931.21 443.586 1858.67 469.901C1816.46 485.324 1771.16 498.23 1724.01 508.259C1641.81 525.745 1550.33 538.223 1436.13 547.527C1377.08 552.338 1316.16 555.344 1255.05 556.458C1203.97 557.353 1153.17 556.904 1104.05 555.117C955.324 549.731 816.365 531.044 691.024 499.577C636.84 485.974 583.15 469.254 526.894 448.454C431.691 413.329 347.017 377.225 268.456 343.255C257.92 338.702 247.499 334.178 237.157 329.691C129.856 283.142 28.5103 239.173 -90.5955 205.332C-168.353 183.239 -253.651 165.223 -344.109 151.781C-410.521 141.914 -482.495 135.214 -564.13 131.298C-582.528 130.421 -601.242 129.699 -619.755 129.155C-666.328 127.807 -715.725 127.589 -768.024 127.358C-810.032 127.173 -853.466 126.981 -899.3 126.2C-987.823 124.562 -1088.15 122.709 -1180.21 126.589C-1227.7 128.592 -1273.04 132.651 -1314.95 138.657C-1463.7 159.972 -1570.11 199.222 -1599.59 243.652L-1600.8 243.511C-1593.03 231.797 -1580.04 220.37 -1562.2 209.547C-1545.14 199.198 -1523.56 189.337 -1498.04 180.239C-1449.24 162.84 -1386.07 148.29 -1315.37 138.16C-1273.36 132.139 -1227.93 128.071 -1180.34 126.065C-1088.19 122.182 -987.816 124.038 -899.257 125.676C-853.451 126.454 -810.017 126.649 -768.024 126.834C-715.703 127.065 -666.292 127.284 -619.676 128.634C-601.149 129.182 -582.414 129.903 -564.001 130.78C-482.265 134.699 -410.206 141.408 -343.701 151.29C-253.135 164.747 -167.744 182.784 -89.9001 204.901C29.313 238.772 130.708 282.761 238.053 329.331C248.395 333.819 258.823 338.339 269.352 342.896C347.898 376.859 432.544 412.955 527.718 448.068C583.917 468.844 637.549 485.549 691.669 499.134C816.846 530.562 955.625 549.222 1104.15 554.602C1153.22 556.386 1203.97 556.835 1255 555.94C1316.04 554.826 1376.9 551.823 1435.89 547.019C1549.97 537.723 1641.35 525.26 1723.44 507.798C1770.49 497.79 1815.71 484.908 1857.84 469.512C1930.29 443.23 1990.72 411.245 2049.16 380.311C2085.9 360.864 2120.6 342.498 2157.61 325.748L2165.23 322.293C2205.98 303.834 2248.11 284.746 2294.22 267.898C2362.4 242.885 2466.43 215.029 2574.86 224.348C2603.1 226.776 2631.15 231.192 2660.63 237.853C2723.32 251.92 2780.68 274.274 2836.15 295.895C2849.56 301.122 2863.43 306.528 2876.9 311.621C2939.98 335.466 3001.98 361.78 3061.16 389.837C3183.55 447.738 3300.68 515.998 3419.25 598.516L3418.19 598.78Z" fill="white"/>
<path d="M3413.86 577.03C3305.03 493.293 3186.44 421.842 3061.36 364.669C3000.55 336.803 2936.13 311.324 2869.87 288.937C2860.3 285.704 2850.51 282.348 2841.02 279.103C2778.4 257.665 2713.65 235.494 2644.68 223.339C2615.07 218.067 2587.04 214.849 2558.98 213.496C2451.36 208.311 2353.86 238.658 2291.01 265.029C2251.98 281.321 2216.75 299.439 2182.69 316.961C2176.8 319.994 2170.9 323.02 2165.01 326.035C2132.6 342.596 2102.31 361.097 2070.23 380.682C2015.7 413.978 1959.32 448.406 1887.22 476.247C1844.87 492.596 1800.48 505.235 1751.48 514.893C1649.01 535.091 1546.59 542.567 1459.93 547.219C1401.32 550.362 1340.43 551.739 1278.93 551.302C1228.01 550.898 1177.51 549.212 1128.86 546.297C984.606 537.672 847.468 516.273 721.259 482.692C668.745 468.724 615.026 451.57 557.021 430.252C498.429 408.769 443.828 388.097 391.02 368.106C355.134 354.517 321.232 341.683 288.127 329.37C162.986 282.824 48.3599 241.9 -87.2377 212.484C-166.665 195.255 -251.877 181.999 -340.507 173.087C-404.031 166.698 -471.934 163.588 -554.193 163.291C-571.939 163.238 -590.015 163.324 -607.911 163.552C-635.097 163.92 -663.221 164.69 -692.987 165.507C-750.11 167.073 -814.866 168.848 -884.618 167.854C-911.18 167.474 -938.279 166.938 -964.49 166.417C-1031.91 165.079 -1101.61 163.696 -1167.29 164.932C-1215.52 165.842 -1261.13 168.692 -1302.84 173.404C-1451.34 190.184 -1563.2 223.435 -1602.08 262.35L-1603.4 262.12C-1593.22 251.929 -1578.14 242.056 -1558.59 232.772C-1539.8 223.857 -1516.78 215.436 -1490.17 207.745C-1438.91 192.926 -1374.26 180.853 -1303.23 172.826C-1261.42 168.102 -1215.7 165.243 -1167.37 164.333C-1101.62 163.094 -1031.88 164.48 -964.433 165.818C-938.229 166.339 -911.13 166.875 -884.575 167.255C-814.888 168.249 -750.182 166.477 -693.087 164.911C-663.307 164.094 -635.176 163.324 -607.961 162.956C-590.043 162.729 -571.953 162.642 -554.185 162.696C-471.812 162.989 -403.809 166.109 -340.178 172.506C-251.44 181.43 -166.113 194.701 -86.5853 211.954C-25.3339 225.24 36.7347 242.074 103.168 263.413C162.642 282.516 220.496 303.418 289.073 328.924C322.178 341.24 356.08 354.074 391.973 367.662C444.775 387.651 499.375 408.323 557.953 429.803C615.9 451.1 669.562 468.236 722.012 482.19C848.048 515.725 984.993 537.094 1129.05 545.707C1177.64 548.62 1228.07 550.302 1278.94 550.706C1340.36 551.143 1401.19 549.769 1459.73 546.626C1546.28 541.983 1648.56 534.516 1750.86 514.354C1799.72 504.723 1844 492.117 1886.23 475.81C1958.21 448.016 2014.55 413.616 2069.04 380.347C2101.13 360.75 2131.44 342.24 2163.88 325.661C2169.78 322.646 2175.66 319.62 2181.55 316.59C2215.64 299.056 2250.89 280.926 2289.97 264.613C2330.86 247.456 2372.81 234.257 2414.65 225.384C2464.21 214.873 2512.82 210.676 2559.12 212.909C2587.32 214.268 2615.48 217.501 2645.21 222.794C2714.36 234.982 2779.2 257.18 2841.9 278.645C2851.38 281.89 2861.18 285.246 2870.74 288.476C2937.04 310.881 3001.52 336.384 3062.38 364.271C3128.79 394.63 3193.83 429.219 3255.69 467.077C3310.36 500.538 3363.98 537.438 3415.08 576.749L3413.86 577.03Z" fill="white"/>
<path d="M3409.53 555.274C3308.81 469.136 3192.04 396.425 3062.48 339.159C3000.01 311.47 2933.13 286.814 2863.68 265.87C2860.38 264.873 2857.07 263.876 2853.76 262.876C2781.55 241.07 2706.88 218.522 2629.33 208.37C2599.29 204.436 2571.17 202.398 2543.39 202.134C2436.19 201.122 2344.78 234.005 2286.98 261.766C2252.96 278.007 2222.76 295.807 2193.56 313.021C2186.35 317.278 2178.88 321.679 2171.51 325.966C2143.44 342.293 2117.34 360.857 2089.72 380.514C2039.47 416.268 1987.51 453.237 1915.78 482.587C1874.28 499.567 1829.53 512.303 1778.97 521.523C1679.35 539.686 1578.2 544.455 1483.73 546.904C1425.48 548.413 1364.61 548.155 1302.81 546.14C1252.05 544.434 1201.88 541.515 1153.68 537.468C1014.33 525.792 879.015 501.681 751.502 465.801C700.436 451.435 648.215 434.353 587.171 412.044C471.155 369.76 385.004 339.979 307.841 315.482C154.369 266.759 37.2338 238.095 -83.8143 219.635C-164.855 207.277 -249.98 198.784 -336.84 194.389C-397.103 191.342 -461.056 191.614 -544.197 195.282C-561.233 196.042 -578.664 196.937 -596.009 197.946C-612.393 198.913 -629.036 200.021 -646.66 201.191C-711.732 205.517 -785.49 210.421 -869.906 209.505C-914.401 209.023 -959.848 207.702 -1003.8 206.427C-1053.75 204.978 -1105.39 203.478 -1154.36 203.275C-1203.46 203.071 -1249.35 204.712 -1290.73 208.155C-1438.73 220.462 -1556.06 247.719 -1604.57 281.066L-1605.95 280.716C-1593.35 272.052 -1576.18 263.733 -1554.91 255.988C-1534.38 248.51 -1509.94 241.531 -1482.26 235.242C-1428.49 223.021 -1362.37 213.423 -1291.04 207.493C-1249.55 204.044 -1203.56 202.398 -1154.35 202.601C-1105.34 202.805 -1053.66 204.305 -1003.69 205.757C-959.755 207.032 -914.329 208.352 -869.87 208.834C-785.605 209.747 -711.925 204.849 -646.925 200.53C-629.294 199.356 -612.637 198.251 -596.246 197.281C-578.879 196.273 -561.434 195.377 -544.383 194.614C-461.114 190.944 -397.053 190.668 -336.661 193.725C-249.679 198.126 -164.432 206.631 -83.2767 219.007C37.9362 237.49 155.193 266.184 308.802 314.949C385.993 339.455 472.173 369.246 588.218 411.541C649.219 433.832 701.382 450.896 752.391 465.248C879.732 501.076 1014.85 525.155 1153.99 536.812C1202.12 540.854 1252.24 543.766 1302.92 545.473C1364.66 547.485 1425.45 547.742 1483.62 546.236C1577.95 543.79 1678.93 539.033 1778.31 520.913C1828.69 511.728 1873.29 499.035 1914.64 482.114C1986.22 452.827 2038.12 415.896 2088.31 380.182C2115.96 360.513 2142.07 341.934 2170.19 325.582C2177.55 321.298 2185.02 316.898 2192.24 312.641C2221.46 295.412 2251.68 277.599 2285.75 261.332C2323.47 243.214 2363.02 228.883 2403.29 218.734C2450.47 206.846 2497.62 201.041 2543.41 201.47C2571.36 201.733 2599.62 203.784 2629.81 207.735C2707.62 217.923 2782.39 240.501 2854.7 262.341C2858.01 263.34 2861.33 264.34 2864.62 265.334C2934.14 286.302 3001.11 310.988 3063.65 338.707C3193.32 396.024 3310.18 468.792 3410.97 554.99L3409.53 555.274Z" fill="white"/>
<path d="M1519.4 546.593C1515.38 546.593 1511.42 546.59 1507.52 546.581C1449.57 546.479 1388.72 544.593 1326.67 540.971C1276.1 537.962 1226.25 533.81 1178.49 528.634C1110.26 521.251 1041.78 510.642 974.946 497.101C910.405 484.025 845.405 467.811 781.745 448.906C719.369 430.384 661.106 409.745 617.314 393.834C514.851 356.706 417.361 325.673 327.555 301.595C182.103 262.599 52.4825 238.826 -80.3772 226.782C-160.529 219.516 -246.522 215.684 -329.318 215.684C-330.601 215.684 -331.877 215.684 -333.16 215.687C-404.288 215.789 -471.818 221.31 -534.187 227.261C-550.421 228.821 -567.214 230.524 -584.1 232.329C-593.353 233.329 -602.62 234.359 -612.425 235.449C-681.582 243.146 -759.971 251.866 -855.202 251.151C-913.2 250.714 -972.437 248.205 -1029.73 245.777C-1066.72 244.208 -1104.96 242.589 -1141.44 241.61C-1191.59 240.266 -1237.74 240.697 -1278.62 242.897C-1425.84 250.812 -1548.64 272.08 -1607.11 299.789L-1608.46 299.295C-1578.47 285.084 -1533.35 272.78 -1474.36 262.721C-1418.03 253.118 -1350.42 246.005 -1278.85 242.158C-1237.86 239.954 -1191.59 239.517 -1141.33 240.867C-1104.81 241.846 -1066.54 243.469 -1029.54 245.038C-972.287 247.466 -913.085 249.974 -855.166 250.408C-760.179 251.124 -681.926 242.415 -612.884 234.733C-603.072 233.641 -593.805 232.611 -584.544 231.611C-567.644 229.806 -550.837 228.099 -534.589 226.54C-472.112 220.579 -404.467 215.05 -333.167 214.945C-249.052 214.822 -161.518 218.666 -79.9973 226.058C-11.428 232.275 55.0485 241.427 123.216 254.037C188.869 266.182 256.026 281.534 328.516 300.972C418.393 325.068 515.954 356.125 618.482 393.277C662.238 409.179 720.458 429.803 782.77 448.304C911.946 486.665 1045.24 513.45 1178.93 527.919C1226.62 533.089 1276.42 537.235 1326.92 540.241C1388.88 543.857 1449.65 545.743 1507.52 545.842C1598.07 545.997 1703.21 544.722 1805.76 527.463C1857.67 518.728 1902.57 505.954 1943.04 488.414C2014.12 457.608 2061.24 418.071 2106.82 379.832C2130.26 360.163 2152.4 341.585 2176.48 325.502C2184.19 320.35 2191.97 315.042 2199.5 309.908C2224.93 292.563 2251.22 274.63 2281.5 258.054C2316.12 238.984 2353.27 223.516 2391.91 212.08C2436.71 198.821 2482.38 191.402 2527.66 190.031C2555.6 189.184 2583.96 190.049 2614.37 192.678C2695.65 199.701 2776.22 220.106 2858.47 242.191C2930.19 261.446 3001.56 285.979 3064.89 313.141C3135.22 343.225 3201.31 378.518 3261.31 418.038C3314.76 453.247 3363.72 492.003 3406.83 533.232L3405.19 533.532C3312.61 444.99 3197.69 371.016 3063.6 313.665C3000.37 286.542 2929.11 262.045 2857.5 242.822C2775.39 220.777 2694.98 200.411 2614 193.411C2583.76 190.798 2555.56 189.939 2527.79 190.78C2444.6 193.303 2357.63 217.355 2282.93 258.509C2252.7 275.055 2226.43 292.973 2201.02 310.3C2193.5 315.438 2185.71 320.748 2177.99 325.901C2153.96 341.953 2131.84 360.517 2108.42 380.167C2086.06 398.929 2062.94 418.331 2036.4 436.982C2006.32 458.126 1976.21 475.119 1944.34 488.935C1903.69 506.552 1858.58 519.383 1806.44 528.161C1760.44 535.903 1711.01 541.019 1655.31 543.809C1608.15 546.159 1560.77 546.593 1519.4 546.593Z" fill="white"/>
<path d="M1634.34 548.093C1597.79 548.093 1562.69 547.183 1531.28 546.261C1473.53 544.566 1412.71 541.049 1350.51 535.804C1300.16 531.496 1250.62 526.113 1203.27 519.799C1073.62 502.547 945.621 473.828 811.958 432.009C753.667 413.774 698.716 394.154 647.441 375.623C546.21 339.144 445.224 309.567 347.268 287.707C203.206 255.557 68.4187 238.466 -76.9192 233.922C-159.73 231.332 -247.056 232.389 -329.465 236.975C-398.443 240.813 -463.472 250.076 -524.178 259.23C-539.366 261.533 -555.521 264.047 -572.185 266.703C-576.349 267.37 -580.549 268.05 -584.806 268.735C-654.723 280.028 -733.836 292.805 -835.367 292.805C-837.08 292.805 -838.786 292.802 -840.513 292.793C-909.204 292.502 -979.336 288.407 -1047.17 284.443C-1074.06 282.872 -1101.87 281.249 -1128.55 279.935C-1180.67 277.372 -1225.81 276.615 -1266.56 277.627C-1414.75 281.309 -1539.85 296.206 -1609.74 318.506L-1610.94 317.85C-1576.38 306.827 -1526.42 297.256 -1466.47 290.173C-1407.49 283.207 -1338.41 278.585 -1266.68 276.803C-1225.82 275.789 -1180.56 276.546 -1128.33 279.115C-1101.62 280.429 -1073.8 282.054 -1046.9 283.623C-979.135 287.581 -909.068 291.673 -840.506 291.964C-736.86 292.407 -656.458 279.417 -585.53 267.96C-581.28 267.275 -577.073 266.595 -572.909 265.924C-556.23 263.266 -540.068 260.751 -524.866 258.449C-464.059 249.276 -398.909 240.002 -329.745 236.152C-247.206 231.56 -159.737 230.5 -76.7903 233.092C-4.76636 235.344 63.9034 240.661 133.139 249.342C204.446 258.284 274.786 270.592 348.179 286.973C446.256 308.863 547.372 338.477 648.71 374.991C699.963 393.516 754.878 413.125 813.12 431.341C946.603 473.104 1074.41 501.78 1203.85 519.006C1251.13 525.308 1300.6 530.684 1350.89 534.986C1413 540.225 1473.73 543.74 1531.4 545.428C1628.43 548.272 1731.65 549.733 1833.19 533.995C1886.63 525.712 1931.84 512.857 1971.42 494.694C2041.93 462.341 2085.82 418.211 2124.54 379.275C2144.02 359.684 2162.43 341.18 2182.73 325.406C2190.06 319.715 2197.44 313.833 2204.57 308.145C2226.87 290.347 2249.94 271.945 2277.24 254.758C2308.82 234.736 2343.57 218.13 2380.51 205.401C2422.94 190.782 2467.14 181.753 2511.87 178.571C2539.83 176.58 2568.3 176.263 2598.89 177.592C2684.36 181.313 2771.19 199.701 2852.29 219.019C2927.19 236.856 3001.12 260.554 3066.11 287.551C3138.4 317.494 3205.02 353.14 3264.09 393.492C3316.91 429.578 3363.54 469.263 3402.68 511.45L3400.85 511.746C3317.65 422.073 3201.42 344.749 3064.73 288.132C2999.86 261.185 2926.07 237.532 2851.33 219.732C2770.42 200.458 2683.81 182.116 2598.69 178.409C2568.28 177.086 2540 177.404 2512.21 179.379C2429.62 185.256 2346.76 212.184 2278.89 255.207C2251.64 272.358 2228.61 290.742 2206.32 308.522C2199.19 314.213 2191.82 320.095 2184.48 325.792C2164.22 341.53 2145.84 360.016 2126.37 379.586C2087.58 418.582 2043.63 462.784 1972.88 495.245C1933.08 513.507 1887.62 526.433 1833.88 534.765C1787.25 541.992 1736.95 546.177 1680.09 547.551C1664.72 547.94 1649.41 548.093 1634.34 548.093Z" fill="white"/>
<path d="M1706.47 551.335C1705.95 551.335 1705.43 551.335 1704.91 551.335C1653.26 551.281 1602.55 548.641 1555.03 545.941C1497.37 542.665 1436.59 537.513 1374.35 530.634C1324.23 525.033 1275 518.413 1228.06 510.965C1103.59 491.246 980.979 460.791 842.184 415.116C792.2 398.671 743.011 380.964 695.434 363.843C689.485 361.699 683.53 359.559 677.574 357.418C575.82 320.949 471.328 292.823 367.009 273.825C224.158 247.813 80.0884 237.095 -73.4346 241.062C-157.614 243.238 -244.861 249.187 -325.744 258.264C-389.562 265.428 -446.427 276.92 -514.143 291.2C-527.868 294.107 -542.525 297.245 -560.257 301.077L-561.246 301.292C-595.456 308.735 -634.231 317.168 -677.722 323.58C-727.67 330.945 -776.128 334.489 -825.819 334.447C-903.304 334.367 -982.381 328.343 -1058.85 322.515C-1077.58 321.087 -1096.96 319.611 -1115.67 318.275C-1169.32 314.453 -1214.73 312.522 -1254.5 312.375C-1400.94 311.836 -1531.4 320.901 -1612.42 337.241L-1613.35 336.432C-1573.67 328.427 -1520.13 321.931 -1458.55 317.644C-1396.84 313.348 -1326.27 311.216 -1254.48 311.48C-1214.59 311.626 -1169.07 313.56 -1115.31 317.392C-1096.58 318.728 -1077.2 320.203 -1058.46 321.631C-982.087 327.451 -903.111 333.469 -825.812 333.549C-825.468 333.549 -825.117 333.549 -824.773 333.549C-714.203 333.549 -629.966 315.228 -562.235 300.496L-561.239 300.28C-543.5 296.445 -528.843 293.308 -515.11 290.401C-447.279 276.097 -390.314 264.583 -326.296 257.399C-245.277 248.304 -157.887 242.346 -73.5637 240.167C1.56361 238.227 72.4266 239.706 143.089 244.693C219.234 250.067 292.763 259.327 367.869 273.005C472.389 292.039 577.06 320.209 678.979 356.739C684.935 358.879 690.89 361.023 696.839 363.166C744.394 380.281 793.569 397.983 843.51 414.415C982.125 460.033 1104.56 490.446 1228.82 510.133C1275.7 517.572 1324.85 524.179 1374.91 529.775C1437.05 536.645 1497.75 541.788 1555.32 545.057C1658.44 550.919 1759.39 554.985 1860.66 540.567C1915.62 532.741 1961.15 519.806 1999.83 501.017C2069.71 467.077 2107.88 420.049 2141.57 378.554C2157.34 359.128 2172.23 340.776 2189.03 325.356C2195.49 319.422 2201.98 313.285 2208.25 307.348C2227.86 288.788 2248.14 269.598 2273 251.504C2301.62 230.521 2333.97 212.774 2369.13 198.758C2409.21 182.784 2451.93 172.15 2496.1 167.156C2523.48 164.061 2551.43 162.552 2581.46 162.552C2582.11 162.552 2582.76 162.552 2583.42 162.555C2676.78 162.759 2772.86 180.475 2846.14 195.887C2924.2 212.307 3000.69 235.167 3067.36 261.997C3141.62 291.802 3208.76 327.798 3266.9 368.989C3319.07 405.952 3363.37 446.568 3398.56 489.713L3396.52 490.003C3344.16 425.806 3244.29 334.253 3065.87 262.647C2999.36 235.877 2923.04 213.071 2845.17 196.689C2772.11 181.32 2676.32 163.654 2583.42 163.453C2552.82 163.378 2524.46 164.881 2496.66 168.025C2414.83 177.278 2336.07 207.083 2274.86 251.95C2250.06 270.002 2229.8 289.171 2210.22 307.711C2203.94 313.65 2197.45 319.79 2190.99 325.727C2174.23 341.108 2159.35 359.436 2143.6 378.841C2109.86 420.412 2071.61 467.53 2001.46 501.601C1962.52 520.515 1916.69 533.538 1861.36 541.414C1814.46 548.087 1763.77 551.335 1706.47 551.335Z" fill="white"/>
<path d="M1763.83 555.55C1752.71 555.55 1741.34 555.4 1729.7 555.101C1678.76 553.792 1629.25 549.868 1578.79 545.616C1520.3 540.689 1461.22 534.097 1398.2 525.463C1348.33 518.571 1299.42 510.722 1252.84 502.127C1134.68 480.357 1017.35 448.309 872.419 398.219C836.425 385.78 800.445 372.733 765.648 360.115C746.705 353.247 727.124 346.143 707.722 339.207C604.757 302.492 496.775 275.824 386.771 259.94C241.426 238.951 92.046 235.107 -69.92 248.189C-155.49 255.102 -242.658 265.942 -321.993 279.536C-385.724 290.457 -441.242 305.794 -500.021 322.032L-504.085 323.155C-513.266 325.699 -522.547 328.28 -531.944 330.89C-537.355 332.396 -542.802 333.911 -548.3 335.438C-582.573 345.009 -619.592 354.993 -662.044 362.677C-711.333 371.599 -760.085 375.987 -811.102 376.095C-896.034 376.269 -982.665 368.024 -1066.44 360.043C-1078.39 358.902 -1090.76 357.726 -1102.77 356.609C-1159.05 351.37 -1203.42 348.356 -1242.43 347.116C-1386.36 342.545 -1522.2 345.766 -1615.11 355.957L-1615.71 355.017C-1522.55 344.799 -1386.43 341.566 -1242.25 346.146C-1203.14 347.389 -1158.65 350.412 -1102.26 355.66C-1090.25 356.78 -1077.87 357.956 -1065.91 359.097C-983.167 366.979 -897.632 375.125 -813.825 375.125C-812.922 375.125 -812.019 375.125 -811.109 375.122C-702.711 374.895 -625.548 355.837 -549.583 334.629C-544.085 333.103 -538.638 331.588 -533.227 330.082C-523.83 327.468 -514.556 324.891 -505.368 322.343L-501.304 321.221C-442.425 304.956 -386.814 289.592 -322.875 278.635C-243.397 265.014 -156.078 254.156 -70.3571 247.231C92.0175 234.116 241.799 237.972 387.538 259.018C497.814 274.944 606.047 301.672 709.241 338.467C728.643 345.407 748.231 352.508 767.174 359.378C801.957 371.994 837.93 385.037 873.902 397.467C1018.66 447.501 1135.82 479.504 1253.78 501.238C1300.3 509.818 1349.13 517.658 1398.93 524.538C1461.86 533.16 1520.85 539.743 1579.25 544.662C1667.91 552.131 1778.25 561.429 1888.14 547.107C1944.63 539.746 1990.46 526.729 2028.23 507.312C2097.44 471.747 2129.53 421.725 2157.85 377.595C2170.15 358.423 2181.76 340.314 2195.32 325.286C2200.61 319.43 2205.9 313.374 2211.02 307.515C2228.19 287.868 2245.95 267.553 2268.76 248.231C2294.48 226.272 2324.42 207.385 2357.74 192.093C2395.5 174.766 2436.74 162.53 2480.32 155.726C2508.28 151.358 2536.95 148.667 2567.94 147.496C2609.46 145.927 2653.64 147.604 2703.03 152.609C2744.81 156.848 2789.61 163.429 2839.98 172.73C2921.21 187.731 3000.27 209.756 3068.6 236.421C3144.85 266.086 3212.5 302.438 3269.71 344.464C3321.22 382.307 3363.18 423.854 3394.43 467.954L3392.19 468.229C3326.21 375.125 3210.73 293.053 3067.01 237.134C2998.86 210.54 2920.03 188.579 2839.03 173.622C2730.51 153.582 2644.44 145.586 2568.15 148.466C2537.36 149.628 2508.9 152.301 2481.13 156.636C2377.45 172.823 2309.55 215.615 2270.85 248.659C2248.1 267.933 2230.36 288.224 2213.21 307.848C2208.08 313.709 2202.79 319.769 2197.5 325.627C2183.99 340.611 2172.38 358.699 2160.1 377.846C2131.72 422.072 2099.56 472.199 2030.04 507.926C1991.96 527.496 1945.77 540.617 1888.82 548.038C1850.23 553.068 1809.07 555.55 1763.83 555.55Z" fill="white"/>
<path d="M1813.53 560.382C1737.74 560.382 1664.87 552.248 1602.53 545.291C1543.88 538.746 1484.83 530.568 1422.02 520.29C1372.43 512.117 1323.84 503.034 1277.61 493.29C1139.03 464.113 1015.49 422.235 902.635 381.323C879.592 372.97 856.313 364.36 833.808 356.035C802.558 344.473 770.241 332.519 737.859 320.999C633.353 283.923 521.881 258.707 406.545 246.052C257.344 229.686 102.638 232.712 -66.4089 255.309C-153.448 266.942 -240.531 282.674 -318.245 300.804C-378.185 314.785 -428.901 332.435 -482.591 351.122C-486.397 352.445 -490.21 353.775 -494.044 355.104L-496.123 355.828C-509.174 360.376 -522.67 365.076 -536.353 369.794C-569.136 381.149 -605.237 392.893 -646.994 401.865C-695.466 412.28 -744.332 417.475 -796.403 417.744C-887.8 418.22 -980.953 407.488 -1071.03 397.108C-1077.35 396.381 -1083.63 395.656 -1089.89 394.941C-1149.29 388.133 -1192.62 384.098 -1230.38 381.852C-1370.7 373.512 -1511.93 370.89 -1617.84 374.659L-1618.06 373.614C-1511.97 369.836 -1370.54 372.461 -1230.03 380.814C-1192.17 383.065 -1148.74 387.109 -1089.23 393.929C-1082.97 394.645 -1076.69 395.369 -1070.36 396.099C-980.458 406.458 -887.484 417.163 -796.438 416.696C-683.36 416.109 -603.725 391.762 -537.958 368.986C-524.276 364.267 -510.78 359.567 -497.728 355.023L-495.65 354.298C-491.815 352.966 -488.002 351.64 -484.196 350.317C-430.413 331.597 -379.611 313.916 -319.471 299.888C-241.613 281.725 -154.366 265.966 -67.1759 254.312C12.9686 243.6 88.2465 237.415 162.951 235.404C246.285 233.161 328.45 236.403 407.176 245.04C522.877 257.734 634.679 283.021 739.479 320.2C771.882 331.726 804.207 343.683 835.463 355.247C857.969 363.573 881.233 372.18 904.269 380.529C1017.01 421.396 1140.4 463.23 1278.73 492.353C1324.89 502.082 1373.41 511.153 1422.93 519.314C1485.65 529.577 1544.6 537.743 1603.16 544.279C1693.08 554.314 1804.99 566.803 1915.57 553.661C1973.6 546.763 2019.73 533.666 2056.6 513.62C2125.09 476.382 2150.72 423.282 2173.33 376.431C2182.42 357.606 2191 339.827 2201.58 325.227C2205.49 319.826 2209.42 314.246 2213.22 308.848C2228.09 287.736 2243.46 265.903 2264.48 244.968C2287.35 222.016 2314.88 201.982 2346.3 185.43C2381.75 166.752 2421.52 152.915 2464.49 144.302C2492.4 138.71 2521.16 134.833 2552.42 132.447C2594.53 129.235 2641.26 129.343 2691.31 132.768C2735.14 135.767 2783.07 141.422 2833.76 149.58C2918.16 163.163 2999.79 184.349 3069.8 210.849C3148.03 240.376 3216.22 277.079 3272.48 319.943C3323.31 358.666 3362.94 401.147 3390.27 446.202L3387.84 446.46C3329.94 350.99 3216.4 267.592 3068.13 211.628C2998.33 185.214 2916.98 164.097 2832.87 150.559C2723.83 133.013 2632.24 127.424 2552.87 133.48C2521.84 135.848 2493.28 139.698 2465.57 145.248C2363.32 165.74 2301.04 211.005 2266.8 245.373C2245.82 266.254 2230.47 288.057 2215.63 309.141C2211.83 314.539 2207.9 320.122 2203.98 325.529C2193.44 340.081 2184.87 357.837 2175.79 376.637C2164.91 399.177 2152.59 424.722 2134.69 448.672C2114.18 476.112 2089.29 497.565 2058.59 514.258C2040.84 523.91 2020.44 532.124 1997.96 538.674C1973.78 545.719 1946.29 551.101 1916.26 554.67C1881.9 558.756 1847.42 560.382 1813.53 560.382Z" fill="white"/>
<path d="M1858.33 565.683C1833.27 565.683 1807.01 564.665 1779.28 562.632C1724.67 558.63 1672.39 551.367 1626.26 544.964C1568.12 536.89 1507.42 526.846 1445.84 515.113C1396.57 505.671 1348.29 495.355 1302.38 484.446C1170.6 453.171 1057.06 411.585 932.851 364.422C921.813 360.231 910.604 355.956 899.767 351.819C857.086 335.536 812.957 318.7 767.997 302.791C661.756 265.28 546.8 241.519 426.319 232.167C274.344 220.369 109.74 230.547 -62.8979 262.424C-151.485 278.782 -238.489 299.402 -314.498 322.062C-371.729 339.123 -418.839 359.237 -468.716 380.535C-473.783 382.699 -478.872 384.869 -483.99 387.049C-496.726 392.479 -510.444 398.308 -524.399 404.143C-553.663 416.42 -589.327 430.41 -631.936 441.046C-679.635 452.955 -728.623 458.958 -781.689 459.392C-878.835 460.191 -977.721 446.755 -1073.35 433.763L-1077 433.269C-1123.82 426.91 -1173.35 420.486 -1218.32 416.585C-1355.39 404.697 -1498.24 396.443 -1620.55 393.345L-1620.38 392.225C-1497.94 395.326 -1354.96 403.586 -1217.77 415.486C-1172.68 419.399 -1123.06 425.832 -1076.16 432.2L-1072.52 432.694C-977.098 445.657 -878.412 459.059 -781.74 458.266C-670.095 457.35 -592.99 431.329 -526.298 403.344C-512.343 397.512 -498.639 391.683 -485.903 386.256C-480.786 384.079 -475.697 381.906 -470.63 379.744C-420.667 358.411 -373.47 338.261 -316.053 321.143C-239.901 298.438 -152.733 277.779 -63.9802 261.391C17.0171 246.438 96.7244 236.133 172.912 230.769C259.966 224.641 345.393 224.736 426.82 231.056C547.761 240.444 663.139 264.289 769.738 301.929C814.734 317.852 858.885 334.695 901.587 350.987C912.424 355.121 923.634 359.396 934.672 363.587C1058.76 410.705 1172.17 452.246 1303.72 483.467C1349.57 494.358 1397.77 504.659 1446.97 514.09C1508.46 525.804 1569.07 535.833 1627.12 543.895C1718.13 556.534 1831.38 572.26 1943.06 560.21C2002.63 553.783 2049.06 540.608 2085.01 519.927C2152.75 480.964 2172.35 422.237 2188.11 375.047C2194.24 356.666 2200.03 339.305 2207.89 325.175C2210.36 320.72 2212.86 316.131 2215.28 311.691C2227.82 288.628 2240.8 264.777 2260.26 241.714C2290.31 205.822 2347.4 157.809 2448.71 132.893C2476.68 126.013 2505.54 120.948 2536.94 117.409C2619.07 108.018 2716.87 111.057 2827.6 126.435C2915.17 138.599 2999.35 158.947 3071.06 185.282C3151.26 214.669 3219.98 251.725 3275.3 295.43C3300.68 315.475 3323.11 336.886 3341.97 359.067C3359.99 380.253 3374.86 402.254 3386.16 424.458L3383.53 424.692C3333.74 326.852 3222.14 242.127 3069.28 186.124C2997.84 159.887 2913.98 139.616 2826.75 127.498C2716.53 112.188 2619.26 109.159 2537.64 118.49C2506.48 122.002 2477.84 127.028 2450.07 133.857C2349.46 158.6 2292.7 206.367 2262.8 242.082C2243.38 265.085 2230.43 288.903 2217.89 311.937C2215.48 316.377 2212.98 320.969 2210.5 325.427C2202.68 339.509 2196.89 356.845 2190.76 375.2C2182.84 398.946 2173.86 425.859 2158.5 451.261C2140.87 480.449 2117.54 503.127 2087.18 520.586C2069.87 530.546 2049.61 538.946 2026.99 545.55C2002.62 552.666 1974.61 557.965 1943.73 561.294C1916.63 564.222 1888.33 565.683 1858.33 565.683Z" fill="white"/>
<path d="M1899.61 571.282C1869.58 571.282 1837.91 569.657 1804.08 566.397C1749.26 561.119 1696.52 552.359 1649.99 544.629C1591.42 534.9 1530.75 523.227 1469.67 509.932C1420.71 499.23 1372.76 487.68 1327.15 475.601C1201.64 442.385 1093.99 399.576 980.012 354.257C974.372 352.015 968.731 349.769 963.076 347.524C910.074 326.472 855.273 304.702 798.143 284.584C690.053 246.597 571.614 224.288 446.115 218.277C288.478 210.724 118.406 227.971 -59.3853 269.532C-148.317 290.32 -237.585 316.524 -310.749 343.315C-365.994 363.543 -410.302 386.304 -457.212 410.404C-462.766 413.257 -468.335 416.119 -473.947 418.987C-485.157 424.726 -498.495 431.53 -512.457 438.491C-538.317 451.414 -573.551 467.838 -616.884 480.193C-663.823 493.578 -712.919 500.4 -766.981 501.044C-811.418 501.508 -860.457 498.643 -916.906 492.281C-965.371 486.821 -1012.25 479.684 -1064.13 471.601C-1111.48 464.132 -1161.46 456.417 -1206.3 451.322C-1339.12 436.227 -1479.41 423.01 -1623.27 412.029L-1622.75 410.853C-1478.81 421.837 -1338.44 435.066 -1205.55 450.166C-1160.59 455.276 -1110.54 463.003 -1063.13 470.478C-976.172 484.031 -867.954 500.903 -767.06 499.847C-651.71 498.469 -577.579 469.173 -514.657 437.718C-500.703 430.764 -487.372 423.962 -476.169 418.226C-470.557 415.358 -464.988 412.496 -459.441 409.646C-412.452 385.508 -368.065 362.708 -312.641 342.414C-239.327 315.569 -149.886 289.314 -60.7828 268.487C117.546 226.8 288.206 209.508 446.445 217.088C507.116 219.995 566.712 226.746 623.562 237.152C684.563 248.316 743.923 263.97 799.992 283.671C857.187 303.81 912.024 325.592 965.054 346.659C970.709 348.907 976.357 351.149 981.998 353.392C1095.86 398.671 1203.42 441.439 1328.69 474.592C1374.24 486.653 1422.12 498.188 1471 508.873C1531.99 522.147 1592.57 533.804 1651.06 543.519C1742.99 558.786 1857.4 577.788 1970.53 566.768C2031.81 560.798 2078.55 547.542 2113.39 526.245C2180.53 485.567 2192.49 423.426 2202.1 373.497C2205.54 355.64 2208.78 338.773 2214.17 325.134C2215.28 322.32 2216.39 319.491 2217.5 316.647C2227.55 290.958 2237.94 264.392 2256.01 238.466C2281.8 201.177 2333.42 150.613 2432.9 121.491C2460.65 113.366 2489.6 107.115 2521.43 102.379C2565.66 95.7357 2614.95 92.6133 2667.92 93.0923C2716.28 93.5293 2767.92 96.9631 2821.4 103.295C2912.12 114.033 2998.88 133.543 3072.27 159.714C3154.46 188.957 3223.71 226.372 3278.09 270.915C3303.05 291.353 3324.66 313.204 3342.32 335.861C3359.23 357.559 3372.59 380.054 3382.01 402.719L3379.19 402.922C3338.15 304.157 3225.6 215.843 3070.41 160.624C2997.33 134.567 2910.95 115.138 2820.61 104.441C2709.22 91.2512 2606.1 90.9278 2522.38 103.501C2490.8 108.201 2462.07 114.404 2434.53 122.466C2335.74 151.389 2284.41 201.692 2258.75 238.796C2240.74 264.652 2230.36 291.18 2220.32 316.836C2219.21 319.68 2218.1 322.512 2216.99 325.326C2211.62 338.914 2208.38 355.76 2204.95 373.59C2195.31 423.663 2183.32 485.983 2115.75 526.922C2098.95 537.187 2078.86 545.779 2056.05 552.452C2031.5 559.631 2002.95 564.84 1971.18 567.935C1948.25 570.163 1924.49 571.282 1899.61 571.282Z" fill="white"/>
<path d="M1938.4 577.111C1904.18 577.111 1867.93 574.8 1828.86 570.16C1773.59 563.595 1720.52 553.341 1673.71 544.297C1614.55 532.867 1553.91 519.56 1493.47 504.754C1444.87 492.809 1397.24 480.023 1351.9 466.758C1240.26 434.102 1144.84 394.097 1043.82 351.743C1027.3 344.818 1010.22 337.66 993.28 330.622C933.72 305.894 882.861 285.504 828.268 266.377C718.25 227.887 596.335 207.03 465.898 204.384C301.997 201.058 126.435 225.366 -55.9009 276.634C-146.481 302.104 -235.67 333.328 -307.035 364.559C-360.797 388.086 -402.826 413.697 -447.32 440.811C-452.832 444.17 -458.365 447.541 -463.934 450.915C-473.853 456.935 -486.984 464.869 -500.537 472.823C-557.574 506.376 -632.092 540.921 -752.295 542.687C-756.043 542.738 -759.806 542.762 -763.561 542.762C-857.424 542.762 -953.25 527.245 -1051.28 509.921L-1057.41 508.831C-1105.96 500.173 -1151.83 491.997 -1194.29 486.046C-1354.3 463.617 -1509.05 444.685 -1625.99 430.698L-1625.15 429.474C-1508.18 443.467 -1353.39 462.402 -1193.33 484.84C-1150.75 490.806 -1104.83 498.994 -1056.21 507.66L-1050.09 508.75C-948.47 526.709 -849.225 542.729 -752.402 541.418C-633.533 539.669 -559.638 505.391 -503.024 472.089C-489.478 464.141 -476.362 456.214 -466.442 450.196C-460.873 446.819 -455.347 443.452 -449.836 440.093C-405.27 412.937 -363.176 387.284 -309.242 363.681C-237.735 332.385 -148.366 301.098 -57.6067 275.577C26.6302 251.891 110.896 233.704 192.846 221.517C286.874 207.533 378.794 201.342 466.042 203.111C597.152 205.77 719.684 226.729 830.218 265.398C884.889 284.555 935.799 304.966 995.416 329.715C1012.37 336.753 1029.45 343.914 1045.97 350.838C1146.89 393.151 1242.21 433.117 1353.64 465.707C1398.92 478.957 1446.47 491.722 1495 503.649C1555.36 518.438 1615.91 531.724 1674.98 543.136C1767.71 561.053 1883.12 583.35 1997.98 573.312C2060.77 567.825 2107.8 554.491 2141.76 532.55C2208.05 490.019 2212.03 424.382 2215.24 371.642C2216.28 354.434 2217.27 338.178 2220.43 325.081L2220.5 324.781C2227.59 295.452 2234.92 265.126 2251.73 235.204C2266.29 209.105 2286.56 185.64 2311.99 165.456C2340.66 142.701 2376 124.069 2417.06 110.073C2444.52 100.709 2473.58 93.2693 2505.88 87.3328C2593.16 71.1998 2700.11 68.709 2815.17 80.136C2861.48 84.7343 2907.16 91.7006 2950.95 100.837C2994.99 110.028 3036.22 121.234 3073.48 134.136C3157.66 163.238 3227.44 201.007 3280.88 246.394C3328.91 287.189 3362.45 333.726 3377.86 380.97L3374.84 381.141C3341.87 280.025 3231.32 190.352 3071.54 135.115C2996.82 109.244 2907.92 90.6588 2814.48 81.3813C2700.07 70.0202 2593.79 72.484 2507.12 88.5063C2475.07 94.3979 2446.25 101.777 2418.99 111.067C2342.35 137.199 2285.54 180.227 2254.71 235.5C2237.94 265.344 2230.62 295.629 2223.54 324.916L2223.47 325.215C2220.32 338.265 2219.33 354.497 2218.28 371.681C2215.06 424.582 2211.06 490.417 2144.31 533.248C2127.94 543.827 2107.99 552.605 2085.04 559.335C2060.29 566.591 2031.22 571.714 1998.6 574.567C1979.18 576.261 1959.16 577.111 1938.4 577.111Z" fill="white"/>
<path d="M-750.064 584.442C-792.036 584.442 -837.741 581.026 -889.324 574.051C-940.577 567.12 -991.264 557.552 -1038.41 548.248C-1046.95 546.553 -1055.42 544.862 -1063.83 543.183C-1105.72 534.821 -1145.28 526.924 -1182.26 520.772C-1329.7 496.25 -1470.23 474.211 -1606.14 452.902L-1628.66 449.369L-1627.53 448.109L-1605.01 451.641C-1469.09 472.956 -1328.53 494.996 -1181.07 519.523C-1143.99 525.69 -1104.38 533.597 -1062.44 541.97C-1054.04 543.65 -1045.56 545.341 -1037.03 547.033C-940.255 566.132 -837.433 584.642 -737.708 582.993C-615.119 580.861 -541.654 540.973 -491.354 506.465C-478.468 497.639 -466.054 488.844 -456.679 482.168C-451.504 478.489 -446.365 474.812 -441.241 471.145C-398.739 440.744 -358.595 412.029 -305.801 384.953C-236.113 349.221 -146.831 312.895 -54.3872 282.674C31.3763 254.635 117.921 232.481 202.853 216.83C300.271 198.877 395.424 189.561 485.667 189.138C621.458 188.294 747.58 207.807 860.479 247.129C923.064 268.953 979.176 292.562 1025.82 312.778C1051.2 323.78 1076.58 335.057 1101.13 345.964C1188.02 384.573 1277.87 424.494 1378.63 456.829C1423.64 471.277 1470.89 485.275 1519.04 498.433C1578.64 514.68 1639.16 529.594 1698.94 542.761C1792.37 563.339 1908.64 588.95 2025.46 579.861C2089.76 574.859 2137.08 561.447 2170.15 538.86C2235.56 494.4 2231.14 425.168 2227.59 369.539C2226.54 353.089 2225.54 337.548 2226.74 325.038C2229.43 296.834 2233.48 264.056 2247.5 231.951C2259.32 204.748 2277.17 180.136 2300.55 158.803C2327 134.671 2360.88 114.44 2401.26 98.6687C2428.02 88.2177 2458.01 79.3473 2490.38 72.3002C2536.58 62.2114 2588.42 55.8678 2644.48 53.4488C2696.97 51.1826 2752.32 52.3741 2808.97 56.9874C2856.76 60.8792 2903.85 67.2797 2948.96 76.0154C2994.34 84.8049 3036.66 95.7558 3074.71 108.563C3118.59 123.31 3158.94 140.724 3194.62 160.324C3228.44 178.894 3258.4 199.604 3283.7 221.878C3331.02 263.547 3362.15 311.045 3373.73 359.229L3370.52 359.363C3345.64 255.892 3237.09 164.862 3072.69 109.614C2997.4 84.281 2903.53 66.0613 2808.36 58.3106C2690.68 48.7278 2581.24 53.9787 2491.87 73.4947C2459.76 80.485 2430.01 89.2864 2403.46 99.6536C2327.38 129.369 2275.97 173.96 2250.67 232.194C2236.67 264.211 2232.64 296.933 2229.96 325.091C2228.77 337.557 2229.76 353.074 2230.81 369.503C2232.56 396.946 2234.55 428.054 2227.89 458.126C2220.18 493.02 2202.19 519.658 2172.9 539.563C2156.96 550.454 2137.16 559.42 2114.07 566.21C2089.13 573.545 2059.51 578.583 2026.06 581.185C2009.18 582.499 1992.31 583.095 1975.55 583.095C1875.16 583.095 1777.88 561.666 1697.44 543.949C1637.58 530.762 1576.96 515.826 1517.29 499.555C1469.06 486.38 1421.75 472.361 1376.67 457.892C1275.7 425.491 1185.76 385.528 1098.78 346.883C1074.24 335.98 1048.87 324.705 1023.51 313.709C976.926 293.517 920.892 269.941 858.422 248.159C746.133 209.047 620.748 189.647 485.717 190.48C273.659 191.473 76.0427 241.735 -52.3948 283.727C-144.652 313.889 -233.755 350.137 -303.292 385.798C-355.929 412.792 -396.015 441.463 -438.453 471.816C-443.577 475.483 -448.723 479.159 -453.898 482.842C-463.28 489.52 -475.701 498.322 -488.595 507.156C-509.71 521.643 -542.858 542.731 -586.765 558.537C-608.088 566.213 -630.779 572.245 -654.209 576.47C-680.334 581.179 -708.386 583.825 -737.572 584.331C-741.707 584.406 -745.871 584.442 -750.064 584.442Z" fill="white"/>
<path d="M-736.591 626.121C-778.613 626.121 -824.226 622.442 -875.536 614.934C-928.66 607.162 -981.182 596.235 -1025.55 586.568C-1039.18 583.592 -1052.78 580.575 -1065.94 577.656C-1102.72 569.498 -1137.47 561.789 -1170.23 555.497C-1287.88 532.894 -1404.77 510.828 -1517.81 489.486C-1555.2 482.426 -1593.86 475.128 -1631.33 468.039L-1629.93 466.742C-1592.46 473.831 -1553.8 481.13 -1516.4 488.189C-1403.36 509.531 -1286.46 531.601 -1168.81 554.206C-1135.96 560.517 -1101.17 568.232 -1064.34 576.402C-1051.19 579.321 -1037.59 582.335 -1023.97 585.311C-931.957 605.351 -825.229 626.564 -723.031 624.567C-597.554 622.059 -527.078 578.503 -479.688 540.839C-467.539 531.191 -455.792 521.503 -446.919 514.142C-442.36 510.364 -437.831 506.589 -433.308 502.822C-392.656 468.949 -354.26 436.955 -302.355 406.231C-234.847 366.271 -145.636 324.913 -51.1709 289.776C80.3844 241.053 283.713 181.622 505.281 175.177C646.19 170.968 775.882 189.032 890.738 228.872C942.342 246.78 993.373 267.437 1056.22 295.856C1087.97 310.217 1119.49 325.101 1149.96 339.492C1229.26 376.934 1311.23 415.652 1403.61 447.969C1448.37 463.629 1495.29 478.858 1543.08 493.234C1600.95 510.624 1661.45 527.167 1722.89 542.405C1817.26 565.669 1934.71 594.627 2052.93 586.431C2117.75 582.03 2166.73 568.154 2198.53 545.192C2263.03 498.721 2249.19 422.693 2239.08 367.181C2236.24 351.602 2233.56 336.888 2233.04 325.018C2231.86 298.637 2231.96 263.853 2243.27 228.722C2262.78 167.845 2310.62 120.257 2385.46 87.2877C2411.7 75.6721 2441.79 65.5804 2474.88 57.2908C2521.95 45.4836 2575.07 37.5414 2632.76 33.6885C2687.11 30.0601 2744.3 30.117 2802.76 33.8591C2852.1 37.0863 2900.6 42.936 2946.95 51.2405C2993.74 59.6289 3037.14 70.3164 3075.95 83.0067C3120.81 97.6698 3161.79 115.144 3197.75 134.947C3231.83 153.715 3261.69 174.719 3286.51 197.381C3333.09 239.928 3361.83 288.384 3369.6 337.51L3366.21 337.603C3349.46 231.77 3242.9 139.381 3073.85 84.1293C2997.21 59.0631 2900.75 41.7086 2802.26 35.2661C2680.83 27.4975 2568.24 35.5356 2476.64 58.5122C2443.81 66.7329 2413.98 76.7439 2387.95 88.2666C2313.6 121.018 2266.06 168.336 2246.65 228.914C2235.37 263.949 2235.28 298.664 2236.45 324.994C2236.98 336.822 2239.65 351.518 2242.49 367.076C2247.71 395.771 2253.63 428.297 2250.25 460.051C2246.3 497.027 2230.35 525.111 2201.48 545.908C2185.95 557.125 2166.31 566.286 2143.1 573.136C2117.93 580.563 2087.79 585.509 2053.5 587.838C2000.32 591.523 1943.08 588.212 1878.51 577.713C1822.38 568.585 1768.61 555.329 1721.17 543.636C1659.64 528.377 1599.06 511.81 1541.1 494.395C1493.24 479.999 1446.25 464.749 1401.43 449.068C1308.86 416.685 1226.79 377.925 1147.42 340.444C1116.96 326.056 1085.45 311.181 1053.72 296.832C990.986 268.464 940.048 247.846 888.566 229.98C774.391 190.367 645.524 172.411 505.511 176.593C284.895 183.014 82.2407 242.263 -48.9203 290.838C-143.199 325.904 -232.223 367.175 -299.589 407.051C-351.351 437.689 -389.688 469.637 -430.276 503.46C-434.799 507.229 -439.329 511.004 -443.887 514.782C-452.767 522.15 -464.522 531.846 -476.685 541.504C-524.49 579.503 -595.676 623.448 -722.88 625.989C-727.403 626.076 -731.983 626.121 -736.591 626.121Z" fill="white"/>
<path d="M-722.846 667.802C-837.666 667.802 -958.141 638.347 -1064.94 612.233C-1097.76 604.21 -1128.76 596.63 -1158.21 590.22L-1634 486.707L-1632.34 485.381L-1156.56 588.894C-1127.02 595.318 -1095.99 602.907 -1063.13 610.943C-952.199 638.066 -826.464 668.808 -708.354 666.143C-580.11 663.255 -512.551 616.032 -468.021 575.219C-453.457 561.87 -439.395 548.287 -425.792 535.151C-388.586 499.227 -350.12 462.078 -298.924 427.503C-258.271 400.051 -207.77 371.261 -152.883 344.249C-92.6711 314.614 -28.2014 287.425 38.7194 263.44C112.506 236.996 187.533 215.121 261.708 198.425C343.751 179.96 424.576 167.905 501.954 162.591C656.961 151.948 797.941 168.099 920.968 210.601C1023.21 245.918 1110.1 289.59 1194.14 331.825C1267.29 368.587 1342.93 406.598 1428.57 439.092C1527.5 476.621 1634.58 511.255 1746.82 542.028C1841.4 567.956 1959.1 600.228 2080.4 592.974C2182.85 586.849 2242.09 558.218 2261.48 505.439C2277.98 460.545 2262.29 407.29 2249.68 364.501C2245.38 349.919 2241.32 336.145 2239.33 324.975C2228.33 263.401 2235.34 212.571 2260.75 169.584C2276.61 142.764 2300 118.856 2330.28 98.5256C2364.1 75.8154 2407.53 56.8832 2459.35 42.256C2504.18 29.6016 2554.7 20.411 2609.53 14.9385C2661.71 9.72943 2716.66 7.9841 2772.83 9.75039C2883.32 13.2231 2991.39 30.1555 3077.14 57.4251C3122.98 72.0014 3164.6 89.5385 3200.84 109.545C3235.19 128.508 3264.94 149.808 3289.28 172.859C3335.13 216.283 3361.47 265.7 3365.43 315.764L3361.85 315.814C3353.4 209.203 3246.15 113.054 3074.96 58.6196C2893.17 0.811189 2635.11 -5.55042 2461.34 43.4984C2289.21 92.0862 2217.76 184.122 2242.89 324.864C2244.88 335.998 2248.93 349.754 2253.23 364.318C2265.86 407.2 2281.6 460.569 2265.02 505.666C2255.99 530.229 2237.84 549.97 2211.08 564.343C2196.03 572.423 2177.89 579.027 2157.16 583.966C2135.09 589.223 2109.44 592.753 2080.9 594.459C2069.24 595.157 2057.38 595.507 2045.32 595.507C2001.36 595.507 1954.54 590.864 1903.23 581.458C1845.44 570.86 1789.66 555.568 1744.85 543.282C1632.45 512.465 1525.23 477.786 1426.15 440.203C1340.31 407.64 1264.59 369.584 1191.37 332.783C1107.44 290.602 1020.65 246.983 918.667 211.756C796.465 169.545 656.452 153.499 502.514 164.07C191.124 185.451 -129.64 316.024 -295.899 428.294C-346.959 462.772 -385.375 499.87 -422.53 535.747C-436.141 548.889 -450.21 562.481 -464.789 575.841C-494.354 602.937 -523.553 622.34 -556.68 636.895C-577.358 645.978 -599.791 653.139 -623.357 658.177C-649.561 663.778 -678.101 666.964 -708.189 667.643C-713.049 667.748 -717.944 667.802 -722.846 667.802Z" fill="white"/>
</g>
</svg>
