<svg width="508" height="545" viewBox="0 0 508 545" fill="none" xmlns="http://www.w3.org/2000/svg">
<g filter="url(#filter0_d_2377_2476)">
<circle cx="254" cy="287" r="250" fill="#FFB700"/>
</g>
<path d="M449.846 156.54C436.926 163.23 427.026 174.74 419.906 187.41C412.786 200.08 408.196 214 403.656 227.8L399.656 299.01C414.656 273.46 426.736 243.42 429.996 214.01L419.996 213.12C426.706 212.12 432.336 207.24 435.916 201.48C439.496 195.72 441.336 189.09 443.136 182.55L430.996 184.33C440.611 177.827 447.36 167.878 449.846 156.54Z" fill="#E0E0E0"/>
<path d="M397.461 315.69C397.461 315.69 364.841 276.69 365.221 239.43H378.391C378.391 239.43 364.081 230.03 365.221 224.76C366.361 219.49 366.721 199.55 366.721 199.55L378.721 202.55C378.721 202.55 369.721 198.04 368.561 190.89C367.401 183.74 371.191 150.63 371.191 150.63C371.191 150.63 385.871 166.06 390.391 181.86C394.911 197.66 406.761 216.1 403.281 264.25C399.801 312.4 397.461 315.69 397.461 315.69Z" fill="#EBEBEB"/>
<path d="M413.997 319.38C413.997 319.38 449.327 295.85 457.177 265.82L446.587 262.94C446.587 262.94 460.147 258.51 460.397 254.03C460.647 249.55 464.697 233.43 464.697 233.43L454.357 233.22C454.357 233.22 462.607 231.56 465.077 226.06C467.547 220.56 471.777 193.12 471.777 193.12C471.777 193.12 456.587 202.31 449.497 214C442.407 225.69 428.837 238 421.097 277.45C413.357 316.9 413.997 319.38 413.997 319.38Z" fill="#EBEBEB"/>
<path d="M380.148 184.66C380.199 184.793 380.236 184.93 380.258 185.07L380.538 186.27C380.778 187.35 381.128 188.91 381.538 190.9C381.948 192.89 382.538 195.38 383.078 198.25C383.618 201.12 384.328 204.38 384.988 208C386.378 215.24 387.848 223.89 389.368 233.51C390.888 243.13 392.298 253.75 393.608 264.91C394.918 276.07 395.878 286.75 396.608 296.46C397.338 306.17 397.868 314.93 398.168 322.29C398.358 325.97 398.438 329.29 398.538 332.23C398.638 335.17 398.688 337.67 398.708 339.73C398.728 341.79 398.758 343.36 398.768 344.47V345.71C398.768 345.98 398.768 346.13 398.768 346.13C398.752 345.991 398.752 345.85 398.768 345.71C398.768 345.4 398.768 345 398.718 344.47C398.718 343.36 398.628 341.77 398.558 339.73C398.488 337.69 398.418 335.16 398.288 332.24C398.158 329.32 398.058 325.98 397.848 322.31C397.508 314.95 396.928 306.2 396.178 296.5C395.428 286.8 394.378 276.13 393.098 264.97C391.818 253.81 390.348 243.21 388.898 233.58C387.448 223.95 385.978 215.31 384.638 208.07C383.998 204.44 383.348 201.18 382.798 198.3C382.248 195.42 381.798 192.96 381.348 190.94C380.898 188.92 380.638 187.38 380.418 186.29C380.318 185.78 380.248 185.38 380.188 185.08C380.162 184.942 380.149 184.801 380.148 184.66Z" fill="#E0E0E0"/>
<path d="M392.928 339.58C392.928 339.58 363.088 305.74 353.818 285.28L360.818 282.28C355.738 283.12 350.548 280.94 346.618 277.63C342.688 274.32 339.798 270 336.998 265.69L346.208 264.14C337.744 261.723 330.535 256.14 326.078 248.55C336.948 250.34 346.788 256.31 354.898 263.77C361.458 269.77 367.018 276.83 372.358 283.99C374.969 287.484 377.242 291.217 379.148 295.14C384.128 305.5 392.998 327.15 392.928 339.58Z" fill="#EBEBEB"/>
<path d="M457.64 212.82C457.606 212.941 457.559 213.058 457.5 213.17C457.38 213.41 457.23 213.74 457.04 214.17C456.61 215.05 455.99 216.31 455.21 217.92C454.43 219.53 453.44 221.53 452.33 223.86C451.22 226.19 449.94 228.81 448.59 231.75C445.83 237.61 442.67 244.64 439.26 252.5C435.85 260.36 432.26 269.07 428.72 278.28C425.18 287.49 421.96 296.35 419.17 304.45C416.38 312.55 414.01 319.88 412.11 326.07C411.11 329.15 410.31 331.97 409.56 334.43C408.81 336.89 408.19 339.02 407.69 340.76C407.19 342.5 406.79 343.82 406.52 344.76L406.2 345.76C406.166 345.88 406.122 345.997 406.07 346.11C406.084 345.984 406.111 345.86 406.15 345.74C406.21 345.48 406.3 345.13 406.42 344.69C406.67 343.74 407.03 342.39 407.5 340.69C407.97 338.99 408.56 336.81 409.28 334.34C410 331.87 410.79 329.04 411.75 325.95C413.61 319.75 415.97 312.4 418.75 304.28C421.53 296.16 424.75 287.28 428.27 278.08C431.79 268.88 435.46 260.16 438.86 252.3C442.26 244.44 445.5 237.43 448.3 231.59C449.67 228.65 450.98 226.03 452.11 223.72C453.24 221.41 454.24 219.43 455.11 217.82L457.02 214.11C457.24 213.71 457.41 213.376 457.53 213.11C457.562 213.011 457.598 212.914 457.64 212.82Z" fill="#E0E0E0"/>
<path d="M395.459 354.09C395.4 353.883 395.357 353.673 395.329 353.46C395.259 353 395.159 352.4 395.049 351.67C394.939 350.94 394.789 349.93 394.589 348.83C394.389 347.73 394.199 346.46 393.899 345.08C393.369 342.31 392.599 339.03 391.629 335.43C390.659 331.83 389.379 327.93 387.869 323.9C386.359 319.87 384.679 316.12 383.059 312.76C381.439 309.4 379.819 306.45 378.389 304.02C377.699 302.79 377.009 301.72 376.389 300.76C375.769 299.8 375.289 298.98 374.849 298.32L373.849 296.79C373.723 296.617 373.619 296.429 373.539 296.23C373.688 296.383 373.822 296.551 373.939 296.73L374.989 298.21C375.449 298.85 375.989 299.65 376.599 300.6C377.209 301.55 377.919 302.6 378.599 303.83C380.079 306.25 381.709 309.2 383.389 312.55C385.069 315.9 386.719 319.68 388.259 323.72C389.799 327.76 390.999 331.72 391.989 335.31C392.979 338.9 393.669 342.22 394.159 345.01C394.439 346.4 394.599 347.67 394.769 348.78C394.939 349.89 395.069 350.85 395.149 351.64C395.229 352.43 395.289 352.98 395.329 353.45C395.399 353.657 395.443 353.872 395.459 354.09Z" fill="#E0E0E0"/>
<path d="M434.836 346.13H369.516V359.45H434.836V346.13Z" fill="#E0E0E0"/>
<path d="M375.75 359.44L382.81 404.24H422.28L428.87 359.44H375.75Z" fill="#E0E0E0"/>
<path d="M430.841 359.44C430.841 359.59 418.481 359.7 403.241 359.7C388.001 359.7 375.641 359.59 375.641 359.44C375.641 359.29 388.001 359.18 403.241 359.18C418.481 359.18 430.841 359.3 430.841 359.44Z" fill="#EBEBEB"/>
<path d="M328.36 103.16C327.48 106.504 326.003 109.661 324 112.48L328.29 116.48L346.59 133L346.16 133.2C346.16 133.2 362 122.14 366.38 118.53C369.99 115.53 379.65 109.41 380.44 103.45C380.572 102.391 380.369 101.317 379.86 100.379C379.351 99.441 378.56 98.686 377.6 98.2201C376.942 97.8849 376.204 97.7383 375.468 97.7965C374.732 97.8548 374.027 98.1156 373.43 98.5501C373.43 98.5501 377.69 93.5501 374.32 90.2701C370.95 86.9901 368.32 89.5601 368.32 89.5601C368.32 89.5601 372.49 83.2101 368.62 79.6901C367.819 79.0753 366.85 78.7176 365.842 78.664C364.833 78.6105 363.832 78.8636 362.97 79.3901L364.54 77.7101L372.63 69.0001C373.595 67.9899 374.133 66.6468 374.133 65.2501C374.133 63.8533 373.595 62.5102 372.63 61.5001C372.134 60.998 371.542 60.6006 370.89 60.3311C370.238 60.0617 369.538 59.9257 368.832 59.9313C368.127 59.9369 367.429 60.0839 366.781 60.3637C366.133 60.6434 365.548 61.0502 365.06 61.5601L342.3 85.3801L343.46 72.3801C343.75 69.0101 339.2 66.5701 337.18 67.8101C337.18 67.8101 334.07 69.0201 333.18 74.2901C332.59 78.2701 328.36 103.16 328.36 103.16Z" fill="#F5F5F5"/>
<path d="M328.362 103.16C328.362 103.16 328.362 102.94 328.442 102.51C328.522 102.08 328.602 101.44 328.732 100.62C329.002 98.9403 329.392 96.5003 329.902 93.3503L331.802 81.8303C332.175 79.5836 332.572 77.1803 332.992 74.6203C333.167 73.2781 333.562 71.9741 334.162 70.7603C334.784 69.4356 335.819 68.348 337.112 67.6603C337.92 67.2604 338.853 67.1922 339.712 67.4703C340.558 67.7366 341.339 68.1797 342.002 68.7703C342.717 69.3704 343.247 70.161 343.532 71.0503C343.602 71.2803 343.622 71.5203 343.672 71.7503C343.722 71.9803 343.672 72.2403 343.672 72.4703L343.552 73.8403C343.232 77.5203 342.898 81.3736 342.552 85.4003L342.132 85.2103L362.862 63.5503C363.332 63.0703 363.792 62.5503 364.262 62.0903C364.719 61.5672 365.229 61.0915 365.782 60.6703C366.988 59.8523 368.465 59.5333 369.902 59.7803C370.629 59.9056 371.323 60.1762 371.943 60.576C372.563 60.9757 373.097 61.4964 373.511 62.1068C373.926 62.7173 374.213 63.405 374.355 64.129C374.498 64.8529 374.493 65.5982 374.342 66.3203C374.195 67.0526 373.914 67.7512 373.512 68.3803C373.087 68.9614 372.612 69.5036 372.092 70.0003L369.152 73.1503L363.152 79.5403L362.802 79.0903C363.982 78.4029 365.375 78.1784 366.712 78.4603C367.272 78.5835 367.809 78.7962 368.302 79.0903C368.56 79.2308 368.79 79.4171 368.982 79.6403C369.187 79.8437 369.374 80.0645 369.542 80.3003C370.203 81.2351 370.553 82.3549 370.542 83.5003C370.43 85.6972 369.74 87.8256 368.542 89.6703L368.102 89.3103C368.648 88.8271 369.313 88.4982 370.028 88.3576C370.743 88.217 371.483 88.2697 372.172 88.5103C372.844 88.762 373.464 89.1348 374.002 89.6103C374.272 89.8241 374.52 90.0654 374.742 90.3303L375.092 90.7303L375.362 91.1903C375.666 91.808 375.841 92.4811 375.877 93.1687C375.914 93.8563 375.809 94.5441 375.572 95.1903C375.139 96.4585 374.486 97.6401 373.642 98.6803L373.272 98.2703C373.858 97.8495 374.541 97.5831 375.258 97.4958C375.974 97.4084 376.701 97.5028 377.372 97.7703C378.352 98.1595 379.195 98.8292 379.796 99.6955C380.397 100.562 380.73 101.586 380.752 102.64C380.736 103.318 380.629 103.991 380.432 104.64C379.984 105.885 379.35 107.056 378.552 108.11C375.342 112.22 371.172 115.11 367.422 117.96C363.672 120.81 359.962 123.61 356.422 126.16L346.272 133.31L346.062 132.95L346.492 132.75L346.442 133.1L328.202 116.59H328.392L328.292 116.69L328.192 116.6L323.922 112.6L323.852 112.53L323.912 112.45C325.398 110.372 326.608 108.11 327.512 105.72C327.822 104.91 328.022 104.27 328.152 103.84C328.282 103.41 328.362 103.2 328.362 103.2C328.178 104.071 327.931 104.926 327.622 105.76C326.76 108.187 325.573 110.484 324.092 112.59V112.44C325.332 113.59 326.712 114.86 328.392 116.44H328.202L328.292 116.34L328.402 116.43L346.742 132.89L346.982 133.1L346.692 133.23L346.262 133.43L346.002 133L356.122 125.81C359.642 123.25 363.372 120.6 367.072 117.6C370.772 114.6 374.972 111.84 378.072 107.82C378.834 106.815 379.438 105.699 379.862 104.51C380.04 103.912 380.141 103.294 380.162 102.67C380.142 102.047 380.007 101.433 379.762 100.86C379.254 99.6922 378.305 98.7721 377.122 98.3003C376.533 98.0682 375.896 97.9878 375.269 98.0665C374.642 98.1451 374.044 98.3802 373.532 98.7503L372.002 99.8803L373.222 98.3603C374.018 97.378 374.632 96.2601 375.032 95.0603C375.255 94.4797 375.356 93.8589 375.327 93.2374C375.297 92.6158 375.139 92.0072 374.862 91.4503C374.2 90.3653 373.192 89.5342 372.002 89.0903C371.413 88.8831 370.781 88.835 370.168 88.9509C369.555 89.0668 368.984 89.3425 368.512 89.7503L367.132 91.0003L368.082 89.4103C369.221 87.659 369.877 85.6371 369.982 83.5503C370.041 82.5244 369.735 81.5107 369.118 80.6889C368.501 79.867 367.613 79.2901 366.612 79.0603C365.413 78.8116 364.165 79.0184 363.112 79.6403L361.522 80.5203L362.762 79.2003L368.762 72.8103C369.755 71.7569 370.735 70.7069 371.702 69.6603C372.184 69.172 372.619 68.6396 373.002 68.0703C373.364 67.5018 373.618 66.8712 373.752 66.2103C373.887 65.5573 373.89 64.8838 373.762 64.2295C373.633 63.5752 373.374 62.9532 373.002 62.4003C372.626 61.8596 372.147 61.3984 371.593 61.0431C371.039 60.6879 370.42 60.4457 369.772 60.3303C368.479 60.1015 367.149 60.3848 366.062 61.1203C365.539 61.5221 365.056 61.9742 364.622 62.4703L363.222 63.9303L342.472 85.5403L342.002 86.0003L342.072 85.3203C342.432 81.3203 342.782 77.4403 343.122 73.7703C343.287 72.898 343.287 72.0025 343.122 71.1303C342.862 70.3204 342.381 69.5997 341.732 69.0503C341.108 68.4971 340.371 68.0875 339.572 67.8503C338.823 67.5988 338.007 67.6454 337.292 67.9803C336.09 68.6303 335.127 69.646 334.542 70.8803C333.953 72.0544 333.565 73.3184 333.392 74.6203C332.952 77.1703 332.532 79.6203 332.152 81.8303C331.372 86.3103 330.702 90.1703 330.152 93.3303C329.602 96.4903 329.152 98.9103 328.872 100.58C328.722 101.4 328.612 102.02 328.522 102.46C328.432 102.9 328.362 103.16 328.362 103.16Z" fill="#E0E0E0"/>
<path d="M318.044 112.648L318.249 112.429C319.019 111.605 320.084 111.121 321.21 111.083C322.337 111.045 323.432 111.456 324.256 112.226L346.8 133.3C347.621 134.068 348.104 135.131 348.142 136.255C348.18 137.379 347.769 138.472 347.002 139.293L346.797 139.512C346.027 140.336 344.962 140.82 343.835 140.857C342.709 140.895 341.613 140.484 340.79 139.715L318.253 118.647C317.432 117.879 316.949 116.817 316.911 115.693C316.873 114.569 317.283 113.476 318.051 112.655L318.044 112.648Z" fill="#F5F5F5"/>
<path d="M340.779 139.69C340.779 139.69 341.019 139.89 341.529 140.18C342.164 140.541 342.883 140.731 343.614 140.731C344.345 140.731 345.063 140.541 345.699 140.18C346.312 139.794 346.839 139.287 347.249 138.69C347.736 137.966 347.977 137.105 347.937 136.234C347.898 135.363 347.579 134.527 347.029 133.85L324.029 112.42C323.502 111.928 322.853 111.588 322.148 111.435C321.444 111.282 320.712 111.322 320.029 111.55C319.38 111.789 318.795 112.173 318.316 112.672C317.838 113.171 317.48 113.772 317.269 114.43C317.085 115.072 317.065 115.749 317.21 116.401C317.355 117.052 317.66 117.657 318.099 118.16C319.049 119.11 320.099 120.05 321.049 120.95L331.339 130.66L338.239 137.23L340.099 139.04C340.324 139.242 340.531 139.463 340.719 139.7C340.471 139.525 340.237 139.331 340.019 139.12L338.089 137.39L331.089 130.95L320.719 121.34C319.719 120.42 318.719 119.54 317.719 118.52C317.209 117.954 316.85 117.269 316.676 116.528C316.501 115.787 316.516 115.014 316.719 114.28C316.957 113.533 317.363 112.85 317.905 112.283C318.448 111.716 319.112 111.281 319.849 111.01C320.622 110.761 321.447 110.723 322.239 110.898C323.032 111.074 323.764 111.458 324.359 112.01C333.359 120.42 341.459 128.01 347.269 133.61C347.86 134.354 348.195 135.268 348.226 136.217C348.256 137.166 347.98 138.1 347.439 138.88C346.997 139.51 346.424 140.035 345.759 140.42C345.193 140.733 344.564 140.914 343.919 140.95C343.031 141.003 342.15 140.776 341.399 140.3C341.162 140.13 340.953 139.924 340.779 139.69Z" fill="#E0E0E0"/>
<path d="M354.516 87.9999C355.756 86.2659 357.144 84.6431 358.666 83.1499C360.05 81.5307 361.576 80.0381 363.226 78.6899C361.989 80.4236 360.604 82.0464 359.086 83.5399C357.699 85.1609 356.17 86.6536 354.516 87.9999Z" fill="#E0E0E0"/>
<path d="M363.141 94.8901C363.78 93.7771 364.582 92.7659 365.521 91.8901C366.323 90.902 367.263 90.0333 368.311 89.3101C367.675 90.4257 366.872 91.4374 365.931 92.3101C365.134 93.3036 364.193 94.1731 363.141 94.8901Z" fill="#E0E0E0"/>
<path d="M368.266 104.06C368.905 102.947 369.708 101.936 370.646 101.06C371.443 100.066 372.387 99.1994 373.446 98.4902C372.805 99.6022 372.003 100.613 371.066 101.49C370.266 102.482 369.322 103.349 368.266 104.06Z" fill="#E0E0E0"/>
<path d="M367.348 55.8802C366.331 53.9177 365.488 51.8699 364.828 49.7602C363.982 47.7181 363.313 45.607 362.828 43.4502C363.843 45.4139 364.686 47.4615 365.348 49.5702C366.194 51.6123 366.864 53.7234 367.348 55.8802Z" fill="#E0E0E0"/>
<path d="M373.297 57.33C374.646 54.8391 376.16 52.4405 377.827 50.15C379.339 47.7544 381.009 45.4626 382.827 43.29C381.474 45.7809 379.957 48.1794 378.287 50.47C376.78 52.8667 375.113 55.1587 373.297 57.33Z" fill="#E0E0E0"/>
<path d="M377.625 62.4198C379.803 61.6762 382.037 61.1077 384.305 60.7198C386.533 60.1525 388.804 59.7679 391.095 59.5698C388.924 60.3278 386.693 60.8998 384.425 61.2798C382.194 61.8475 379.919 62.2288 377.625 62.4198Z" fill="#E0E0E0"/>
<path d="M90.9303 274.4L58.8203 404.23H67.2703L100.17 274.4H90.9303Z" fill="#F5F5F5"/>
<path d="M151.406 274.4L181.446 404.23H172.996L142.156 274.4H151.406Z" fill="#F5F5F5"/>
<path d="M126.31 402.32H116.47L115 253.31H124.84L126.31 402.32Z" fill="#F5F5F5"/>
<path d="M189.338 165.8H50.5078V254.74H189.338V165.8Z" fill="#EBEBEB"/>
<path d="M154.797 273.04H85.1172V281.63H154.797V273.04Z" fill="#F5F5F5"/>
<path d="M59.7306 243.14C59.8163 243.679 59.8498 244.225 59.8306 244.77H59.6406C59.5006 240.42 59.3906 226.01 59.3906 208.93C59.3906 198.63 59.4706 189.3 59.4906 182.44C59.4906 179.12 59.5706 176.44 59.6006 174.44C59.6006 173.55 59.6006 172.83 59.6606 172.25C59.6604 171.995 59.6838 171.741 59.7306 171.49C59.7902 171.739 59.8138 171.995 59.8006 172.25C59.8006 172.83 59.8006 173.55 59.8706 174.44C59.8706 176.44 59.9306 179.15 59.9806 182.44C59.9806 189.3 60.0406 198.63 60.0806 208.93C60.0806 226.01 59.9706 240.42 59.8306 244.77H59.6406C59.6293 244.225 59.6594 243.681 59.7306 243.14Z" fill="#F5F5F5"/>
<path d="M70.07 243.14C70.1412 243.681 70.1713 244.225 70.16 244.77H70C69.86 240.42 69.75 226.01 69.75 208.93C69.75 198.63 69.83 189.3 69.85 182.44C69.9 179.12 69.94 176.44 69.96 174.44C69.96 173.55 69.96 172.83 70.03 172.25C70.0168 171.995 70.0404 171.739 70.1 171.49C70.1458 171.741 70.1659 171.996 70.16 172.25C70.16 172.83 70.16 173.55 70.23 174.44C70.23 176.44 70.29 179.15 70.34 182.44C70.34 189.3 70.4 198.63 70.44 208.93C70.44 226.01 70.33 240.42 70.19 244.77H70C69.9709 244.226 69.9943 243.68 70.07 243.14Z" fill="#F5F5F5"/>
<path d="M80.3947 243.14C80.4659 243.681 80.496 244.225 80.4847 244.77H80.2947C80.1547 240.42 80.0547 226.01 80.0547 208.93C80.0547 198.63 80.1247 189.3 80.1547 182.44C80.1547 179.12 80.2347 176.44 80.2647 174.44C80.2647 173.55 80.2647 172.83 80.3247 172.25C80.3179 171.995 80.3414 171.74 80.3947 171.49C80.448 171.74 80.4715 171.995 80.4647 172.25C80.4647 172.83 80.4647 173.55 80.5247 174.44C80.5247 176.44 80.5947 179.15 80.6347 182.44C80.6347 189.3 80.6947 198.63 80.7347 208.93C80.7347 226.01 80.6347 240.42 80.4847 244.77H80.2947C80.2822 244.225 80.3156 243.68 80.3947 243.14Z" fill="#F5F5F5"/>
<path d="M90.7306 243.14C90.8097 243.68 90.8431 244.225 90.8306 244.77H90.6406C90.4906 240.42 90.3906 226.01 90.3906 208.93C90.3906 198.63 90.4606 189.3 90.4906 182.44C90.4906 179.12 90.5706 176.44 90.6006 174.44C90.6006 173.55 90.6506 172.83 90.6606 172.25C90.6538 171.995 90.6773 171.74 90.7306 171.49C90.7839 171.74 90.8074 171.995 90.8006 172.25C90.8006 172.83 90.8006 173.55 90.8606 174.44C90.8606 176.44 90.9306 179.15 90.9706 182.44C90.9706 189.3 91.0306 198.63 91.0706 208.93C91.0706 226.01 90.9706 240.42 90.8306 244.77H90.6406C90.6293 244.225 90.6594 243.681 90.7306 243.14Z" fill="#F5F5F5"/>
<path d="M101.06 243.14C101.146 243.679 101.179 244.225 101.16 244.77H101C100.86 240.42 100.75 226.01 100.75 208.93C100.75 198.63 100.83 189.3 100.85 182.44C100.9 179.12 100.93 176.44 100.96 174.44C100.96 173.55 100.96 172.83 101.02 172.25C101.02 171.995 101.043 171.741 101.09 171.49C101.15 171.739 101.173 171.995 101.16 172.25C101.16 172.83 101.16 173.55 101.23 174.44C101.23 176.44 101.29 179.15 101.34 182.44C101.34 189.3 101.4 198.63 101.44 208.93C101.44 226.01 101.33 240.42 101.19 244.77H101C100.979 244.226 100.999 243.681 101.06 243.14Z" fill="#F5F5F5"/>
<path d="M111.397 243.14C111.468 243.681 111.498 244.225 111.487 244.77H111.297C111.157 240.42 111.047 226.01 111.047 208.93C111.047 198.63 111.127 189.3 111.147 182.44C111.147 179.12 111.237 176.44 111.257 174.44C111.257 173.55 111.257 172.83 111.327 172.25C111.314 171.995 111.337 171.739 111.397 171.49C111.443 171.741 111.463 171.996 111.457 172.25C111.457 172.83 111.457 173.55 111.527 174.44C111.527 176.44 111.587 179.15 111.637 182.44C111.637 189.3 111.697 198.63 111.737 208.93C111.737 226.01 111.627 240.42 111.487 244.77H111.297C111.278 244.225 111.311 243.679 111.397 243.14Z" fill="#F5F5F5"/>
<path d="M121.731 243.14C121.802 243.681 121.832 244.225 121.821 244.77H121.631C121.491 240.42 121.391 226.01 121.391 208.93C121.391 198.63 121.461 189.3 121.491 182.44C121.491 179.12 121.571 176.44 121.601 174.44C121.601 173.55 121.601 172.83 121.661 172.25C121.654 171.995 121.677 171.74 121.731 171.49C121.784 171.74 121.807 171.995 121.801 172.25C121.801 172.83 121.801 173.55 121.861 174.44C121.861 176.44 121.931 179.15 121.971 182.44C121.971 189.3 122.031 198.63 122.071 208.93C122.071 226.01 121.971 240.42 121.821 244.77H121.631C121.618 244.225 121.652 243.68 121.731 243.14Z" fill="#F5F5F5"/>
<path d="M132.06 243.14C132.139 243.68 132.173 244.225 132.16 244.77H132C131.85 240.42 131.75 226.01 131.75 208.93C131.75 198.63 131.82 189.3 131.85 182.44C131.85 179.12 131.93 176.44 131.96 174.44C131.96 173.55 131.96 172.83 132.02 172.25C132.013 171.995 132.037 171.74 132.09 171.49C132.143 171.74 132.167 171.995 132.16 172.25C132.16 172.83 132.16 173.55 132.22 174.44C132.22 176.44 132.29 179.15 132.33 182.44C132.33 189.3 132.39 198.63 132.43 208.93C132.43 226.01 132.33 240.42 132.19 244.77H132C131.979 244.226 131.999 243.681 132.06 243.14Z" fill="#F5F5F5"/>
<path d="M142.387 243.14C142.473 243.679 142.506 244.225 142.487 244.77H142.297C142.157 240.42 142.047 226.01 142.047 208.93C142.047 198.63 142.127 189.3 142.147 182.44C142.147 179.12 142.227 176.44 142.257 174.44C142.257 173.55 142.307 172.83 142.317 172.25C142.317 171.995 142.34 171.741 142.387 171.49C142.446 171.739 142.47 171.995 142.457 172.25C142.457 172.83 142.457 173.55 142.527 174.44C142.527 176.44 142.587 179.15 142.637 182.44C142.637 189.3 142.697 198.63 142.737 208.93C142.737 226.01 142.627 240.42 142.487 244.77H142.297C142.286 244.225 142.316 243.681 142.387 243.14Z" fill="#F5F5F5"/>
<path d="M152.725 243.14C152.796 243.681 152.826 244.225 152.815 244.77H152.625C152.485 240.42 152.375 226.01 152.375 208.93C152.375 198.63 152.455 189.3 152.475 182.44C152.525 179.12 152.565 176.44 152.585 174.44C152.585 173.55 152.585 172.83 152.655 172.25C152.642 171.995 152.665 171.739 152.725 171.49C152.772 171.741 152.795 171.995 152.795 172.25C152.795 172.83 152.795 173.55 152.855 174.44C152.855 176.44 152.915 179.15 152.965 182.44C152.965 189.3 153.025 198.63 153.065 208.93C153.065 226.01 152.955 240.42 152.815 244.77H152.625C152.606 244.225 152.639 243.679 152.725 243.14Z" fill="#F5F5F5"/>
<path d="M163.058 243.14C163.129 243.681 163.159 244.225 163.148 244.77H162.998C162.858 240.42 162.758 226.01 162.758 208.93C162.758 198.63 162.828 189.3 162.858 182.44C162.858 179.12 162.938 176.44 162.968 174.44C162.968 173.55 162.968 172.83 163.028 172.25C163.021 171.995 163.045 171.74 163.098 171.49C163.151 171.74 163.175 171.995 163.168 172.25C163.168 172.83 163.168 173.55 163.228 174.44C163.228 176.44 163.298 179.15 163.338 182.44C163.338 189.3 163.398 198.63 163.438 208.93C163.438 226.01 163.338 240.42 163.188 244.77H162.998C162.972 244.226 162.992 243.681 163.058 243.14Z" fill="#F5F5F5"/>
<path d="M173.387 243.14C173.466 243.68 173.499 244.225 173.487 244.77H173.297C173.147 240.42 173.047 226.01 173.047 208.93C173.047 198.63 173.117 189.3 173.147 182.44C173.147 179.12 173.227 176.44 173.257 174.44C173.257 173.55 173.307 172.83 173.317 172.25C173.31 171.995 173.334 171.74 173.387 171.49C173.44 171.74 173.464 171.995 173.457 172.25C173.457 172.83 173.457 173.55 173.517 174.44C173.517 176.44 173.587 179.15 173.627 182.44C173.627 189.3 173.687 198.63 173.727 208.93C173.727 226.01 173.627 240.42 173.487 244.77H173.297C173.286 244.225 173.316 243.681 173.387 243.14Z" fill="#F5F5F5"/>
<path d="M183.715 243.14C183.801 243.679 183.834 244.225 183.815 244.77H183.625C183.485 240.42 183.375 226.01 183.375 208.93C183.375 198.63 183.455 189.3 183.475 182.44C183.525 179.12 183.555 176.44 183.585 174.44C183.585 173.55 183.585 172.83 183.645 172.25C183.645 171.995 183.668 171.741 183.715 171.49C183.775 171.739 183.798 171.995 183.785 172.25C183.785 172.83 183.785 173.55 183.855 174.44C183.855 176.44 183.915 179.15 183.965 182.44C183.965 189.3 184.025 198.63 184.065 208.93C184.065 226.01 183.955 240.42 183.815 244.77H183.625C183.614 244.225 183.644 243.681 183.715 243.14Z" fill="#F5F5F5"/>
<path d="M288.696 102.27L280.906 172.46C279.576 184.4 275.186 201.66 256.416 198.71C240.316 194.91 237.896 178.93 239.146 167.79C239.736 162.51 240.216 158.1 240.246 157.56C240.246 157.56 222.566 153.89 223.246 136.06C223.576 127.45 225.686 109.75 227.786 93.7705C228.876 85.4922 233.043 77.9281 239.459 72.5838C245.874 67.2395 254.067 64.5071 262.406 64.9305L264.126 65.0105C282.606 67.0005 291.216 83.8505 288.696 102.27Z" fill="#FFBE9D"/>
<path d="M240.241 157.56C248.472 157.951 256.641 155.972 263.781 151.86C263.781 151.86 257.471 164.59 239.781 162.09L240.241 157.56Z" fill="#6F4C47"/>
<path d="M257.003 104.73C257.313 105.13 259.553 103.73 262.513 104.03C265.473 104.33 267.513 106.03 267.863 105.7C268.043 105.54 267.753 104.85 266.863 104.05C265.673 103.023 264.189 102.396 262.623 102.26C261.077 102.107 259.523 102.458 258.193 103.26C257.263 103.91 256.893 104.55 257.003 104.73Z" fill="#263238"/>
<path d="M256.371 110.85C256.335 111.478 256.544 112.095 256.955 112.571C257.365 113.047 257.945 113.344 258.571 113.4C258.876 113.439 259.186 113.417 259.483 113.334C259.779 113.252 260.056 113.111 260.298 112.92C260.539 112.729 260.739 112.492 260.888 112.222C261.036 111.953 261.129 111.656 261.161 111.35C261.197 110.724 260.988 110.108 260.577 109.634C260.166 109.159 259.586 108.864 258.961 108.81C258.657 108.771 258.348 108.793 258.052 108.875C257.756 108.957 257.479 109.097 257.238 109.287C256.997 109.477 256.796 109.713 256.647 109.981C256.498 110.25 256.405 110.545 256.371 110.85Z" fill="#263238"/>
<path d="M247.09 124.38C247.09 124.22 245.43 123.84 242.69 123.38C241.99 123.27 241.34 123.1 241.24 122.62C241.226 121.912 241.424 121.215 241.81 120.62L244.15 115.4C247.4 107.96 249.79 101.83 249.49 101.71C249.19 101.59 246.31 107.5 243.06 114.94C242.266 116.767 241.516 118.517 240.81 120.19C240.323 121.011 240.145 121.98 240.31 122.92C240.397 123.173 240.542 123.402 240.733 123.59C240.924 123.777 241.155 123.918 241.41 124C241.791 124.128 242.188 124.202 242.59 124.22C245.35 124.43 247.07 124.53 247.09 124.38Z" fill="#263238"/>
<path d="M259.672 93.7701C259.882 94.4601 262.302 94.2601 265.122 94.7701C267.942 95.2801 270.192 96.1801 270.592 95.5901C270.782 95.3001 270.412 94.5901 269.522 93.9401C268.345 93.0623 266.972 92.4855 265.522 92.2601C264.082 92.0019 262.6 92.1084 261.212 92.5701C260.142 92.9401 259.592 93.4401 259.672 93.7701Z" fill="#263238"/>
<path d="M231.887 93.7703C232.137 94.3403 234.517 94.0303 237.317 94.2903C240.117 94.5503 242.407 95.2003 242.767 94.6703C242.927 94.4203 242.527 93.8903 241.607 93.3403C240.374 92.6634 239.01 92.2576 237.607 92.1503C236.175 92.0163 234.73 92.1867 233.367 92.6503C232.297 93.0003 231.787 93.4903 231.887 93.7703Z" fill="#263238"/>
<path d="M286.57 115.39C286.88 115.27 299 112.39 298 124.55C297 136.71 285 133.19 285 132.84C285 132.49 286.57 115.39 286.57 115.39Z" fill="#FFBE9D"/>
<path d="M289.091 128.54C289.151 128.54 289.291 128.71 289.641 128.9C290.126 129.158 290.693 129.216 291.221 129.06C292.541 128.7 293.791 126.75 294.031 124.56C294.149 123.521 294.033 122.469 293.691 121.48C293.608 121.091 293.432 120.727 293.178 120.42C292.923 120.114 292.598 119.874 292.231 119.72C291.992 119.637 291.732 119.64 291.495 119.727C291.257 119.815 291.058 119.982 290.931 120.2C290.741 120.52 290.801 120.77 290.731 120.79C290.661 120.81 290.491 120.56 290.631 120.07C290.72 119.774 290.911 119.519 291.171 119.35C291.523 119.123 291.951 119.044 292.361 119.13C292.852 119.271 293.299 119.535 293.66 119.898C294.02 120.26 294.282 120.708 294.421 121.2C294.858 122.294 295.016 123.48 294.881 124.65C294.601 127.1 293.161 129.29 291.361 129.65C291.025 129.718 290.679 129.71 290.346 129.627C290.014 129.544 289.705 129.388 289.441 129.17C289.091 128.84 289.051 128.56 289.091 128.54Z" fill="#6F4C47"/>
<path d="M248.916 133.11C248.826 132.79 251.286 132.37 253.226 130.35C254.039 129.461 254.732 128.47 255.286 127.4C255.746 126.56 256.086 126.04 256.216 126.1C256.346 126.16 256.216 126.75 255.916 127.68C255.504 128.927 254.821 130.068 253.916 131.02C252.996 131.986 251.826 132.678 250.536 133.02C249.566 133.27 248.936 133.22 248.916 133.11Z" fill="#263238"/>
<path d="M231.005 100.9C231.315 101.3 233.555 99.9002 236.515 100.2C239.475 100.5 241.515 102.2 241.865 101.86C242.045 101.71 241.755 101.02 240.865 100.22C239.678 99.1886 238.193 98.5617 236.625 98.4302C235.079 98.2769 233.525 98.6277 232.195 99.4302C231.235 100.08 230.865 100.72 231.005 100.9Z" fill="#263238"/>
<path d="M230.801 107.69C230.765 108.318 230.974 108.935 231.385 109.411C231.795 109.887 232.375 110.184 233.001 110.24C233.302 110.28 233.609 110.259 233.902 110.18C234.196 110.1 234.47 109.964 234.711 109.778C234.952 109.592 235.153 109.361 235.304 109.097C235.455 108.833 235.553 108.542 235.591 108.24C235.632 107.614 235.426 106.997 235.016 106.522C234.606 106.046 234.026 105.751 233.401 105.7C233.099 105.658 232.792 105.676 232.498 105.754C232.203 105.831 231.927 105.967 231.685 106.152C231.443 106.337 231.24 106.568 231.089 106.832C230.937 107.096 230.839 107.388 230.801 107.69Z" fill="#263238"/>
<path d="M296.186 104.51C295.296 107.9 293.186 115.63 290.186 114.94C284.186 113.58 284.536 123.2 281.636 122.07C278.736 120.94 278.056 113.29 278.386 110.24C279.386 100.71 283.046 93.8702 279.016 82.9902C277.765 80.8313 275.979 79.0316 273.83 77.765C271.68 76.4985 269.24 75.808 266.746 75.7602C264.232 75.7619 261.761 76.4059 259.566 77.631C257.372 78.8561 255.526 80.6217 254.206 82.7602C253.586 79.4302 251.846 74.4302 248.836 72.8902C247.329 72.1044 245.625 71.7801 243.935 71.9579C242.245 72.1358 240.646 72.8079 239.336 73.8902C238.086 75.0379 237.296 76.6004 237.112 78.2872C236.928 79.974 237.363 81.6702 238.336 83.0602C237.651 83.2807 236.914 83.2763 236.232 83.0478C235.55 82.8193 234.959 82.3786 234.546 81.7902C234.505 82.5729 234.625 83.3556 234.898 84.0901C235.172 84.8245 235.593 85.4951 236.136 86.0602C234.902 85.7853 233.809 85.0753 233.056 84.0602L234.056 88.1802C229.056 88.4302 223.966 83.6702 222.466 79.3602C220.196 72.8202 221.676 66.1402 225.216 60.2002C228.756 54.2602 235.216 49.9802 242.216 49.8802C249.216 49.7802 255.006 52.9302 257.816 59.2502C262.236 55.9702 271.306 54.6602 276.356 56.8202C278.881 57.9323 281.08 59.6722 282.743 61.8741C284.406 64.0761 285.477 66.667 285.856 69.4002C288.956 68.0102 292.736 68.9502 295.426 71.0302L296.076 71.5702C297.876 73.2072 299.231 75.2741 300.014 77.5775C300.798 79.8808 300.984 82.3453 300.556 84.7402C300.236 86.6602 299.616 88.6602 299.266 90.2102C298.086 94.8002 296.186 104.51 296.186 104.51Z" fill="#263238"/>
<path d="M233.683 81.53C233.683 81.53 233.523 81.44 233.273 81.22C232.904 80.9025 232.569 80.5472 232.273 80.16C231.13 78.7175 230.406 76.9873 230.183 75.16C229.982 73.8118 230.071 72.4359 230.445 71.125C230.819 69.8141 231.47 68.5986 232.353 67.56C233.436 66.2808 234.814 65.2845 236.368 64.6572C237.922 64.03 239.606 63.7907 241.273 63.96C242.989 64.175 244.634 64.7768 246.083 65.72C247.435 66.5709 248.646 67.6269 249.673 68.85C251.417 70.8862 252.703 73.2734 253.443 75.85C253.942 77.5887 254.181 79.3915 254.153 81.2C254.153 81.84 254.093 82.33 254.043 82.66C254.033 82.8297 254.003 82.9976 253.953 83.16C254.062 80.7259 253.772 78.2903 253.093 75.95C252.322 73.4301 251.031 71.0999 249.303 69.11C247.268 66.6133 244.391 64.9456 241.213 64.42C239.629 64.2657 238.031 64.494 236.554 65.0856C235.077 65.6773 233.763 66.6151 232.723 67.82C231.872 68.806 231.239 69.9607 230.865 71.2083C230.491 72.4559 230.385 73.7685 230.553 75.06C230.732 76.8407 231.373 78.5438 232.413 80C233.163 81.05 233.713 81.49 233.683 81.53Z" fill="#455A64"/>
<path d="M231.495 86.8503C231.35 86.6788 231.226 86.4908 231.125 86.2903C230.895 85.9103 230.565 85.2903 230.125 84.6103C228.942 82.544 227.964 80.3669 227.205 78.1103C226.695 76.5335 226.395 74.8959 226.315 73.2403C226.217 71.3254 226.52 69.4111 227.205 67.6203C228.004 65.6356 229.371 63.9309 231.135 62.7203C233.02 61.4285 235.208 60.6497 237.485 60.4603C239.751 60.2858 242.028 60.596 244.165 61.3703C246.149 62.0859 248.013 63.0973 249.695 64.3703C252.629 66.4432 254.795 69.4282 255.855 72.8603C256.515 75.1879 256.449 77.6615 255.665 79.9503C255.445 80.5605 255.163 81.1468 254.825 81.7003C254.708 81.8947 254.574 82.0787 254.425 82.2503C254.823 81.4892 255.157 80.6965 255.425 79.8803C256.11 77.6245 256.11 75.2162 255.425 72.9603C254.343 69.6338 252.204 66.7512 249.335 64.7503C245.98 62.1533 241.814 60.8252 237.575 61.0003C235.386 61.1886 233.282 61.9358 231.465 63.1703C229.78 64.3222 228.47 65.9422 227.695 67.8303C227.021 69.5549 226.711 71.4002 226.785 73.2503C226.847 74.872 227.12 76.4787 227.595 78.0303C228.32 80.2766 229.24 82.4549 230.345 84.5403L231.215 86.2703C231.326 86.4548 231.419 86.649 231.495 86.8503Z" fill="#455A64"/>
<path d="M291.854 97.0002C291.794 96.9202 292.924 96.0902 294.314 94.3502C296.141 92.1032 297.374 89.4324 297.898 86.5838C298.423 83.7353 298.222 80.8007 297.314 78.0502C296.624 75.9302 295.864 74.7502 295.954 74.7102C296.044 74.6702 296.194 74.9602 296.524 75.5102C296.978 76.2798 297.36 77.0899 297.664 77.9302C298.693 80.7266 298.952 83.7482 298.414 86.679C297.876 89.6098 296.56 92.3421 294.604 94.5902C294.02 95.2661 293.378 95.8886 292.684 96.4502C292.435 96.6726 292.156 96.8578 291.854 97.0002Z" fill="#455A64"/>
<path d="M281.125 96.9001C281.125 96.8501 281.705 96.6201 282.625 95.9601C283.906 95.0369 284.906 93.777 285.515 92.3201L285.975 91.1801L285.895 92.4101C285.785 94.0701 285.655 95.9801 285.525 98.0601L285.135 97.8401C286.792 96.6479 288.197 95.1401 289.269 93.4035C290.342 91.6668 291.061 89.7354 291.385 87.7201C291.656 85.8783 291.601 84.0033 291.225 82.1801C290.824 80.5056 290.227 78.8843 289.445 77.3501C289.533 77.4374 289.61 77.5347 289.675 77.6401C289.871 77.9235 290.051 78.2172 290.215 78.5201C290.825 79.6479 291.282 80.8517 291.575 82.1001C292.278 85.0979 292.067 88.2377 290.969 91.1145C289.871 93.9913 287.937 96.4732 285.415 98.2401L284.985 98.5401V98.0201L285.455 92.3801L285.845 92.4701C285.184 93.9765 284.096 95.256 282.715 96.1501C282.342 96.39 281.947 96.5942 281.535 96.7601C281.404 96.8229 281.267 96.8699 281.125 96.9001Z" fill="#455A64"/>
<path d="M277.285 72.1701C276.573 70.8888 275.618 69.7579 274.475 68.8401C273.214 67.8961 271.747 67.2654 270.195 67.0001C268.285 66.69 266.327 66.9114 264.535 67.6401C262.737 68.36 261.136 69.4981 259.865 70.9601C258.832 72.1501 258.001 73.5013 257.405 74.9601C256.9 76.3441 256.502 77.765 256.215 79.2101C256.175 78.8094 256.196 78.4049 256.275 78.0101C256.415 76.9243 256.677 75.8576 257.055 74.8301C257.625 73.2941 258.454 71.8668 259.505 70.6101C260.811 69.0708 262.472 67.8729 264.345 67.1201C266.227 66.359 268.285 66.1408 270.285 66.4901C271.906 66.8015 273.424 67.5092 274.705 68.5501C275.564 69.2454 276.283 70.0971 276.825 71.0601C276.968 71.3221 277.095 71.5926 277.205 71.8701C277.249 71.9645 277.277 72.0661 277.285 72.1701Z" fill="#455A64"/>
<path d="M274.325 63.2503C273.261 62.7453 272.149 62.3499 271.005 62.0703C268.265 61.5545 265.431 62.0257 263.005 63.4003C260.599 64.856 258.66 66.9689 257.415 69.4903C256.415 71.4103 256.145 72.7403 256.055 72.7103C256.051 72.3907 256.101 72.0727 256.205 71.7703C256.426 70.9293 256.72 70.1095 257.085 69.3203C258.278 66.6885 260.245 64.4836 262.725 63.0003C265.268 61.5421 268.269 61.0992 271.125 61.7603C271.979 61.9729 272.798 62.3099 273.555 62.7603C273.834 62.8862 274.093 63.0512 274.325 63.2503Z" fill="#455A64"/>
<path d="M202.266 340.23L314.006 341.75C314.006 341.75 345.256 328.67 353.846 328.32C362.436 327.97 379.476 329.06 387.356 341.75C395.506 354.87 396.646 378.01 371.536 394.82C347.076 411.2 235.246 426.33 219.916 424.94L191.676 387C191.676 387 191.386 355.91 191.676 354.43C191.966 352.95 196.676 339.63 196.676 339.63L202.266 340.23Z" fill="#263238"/>
<path d="M269.166 392.71L327.076 414.22L300.686 486.39C293.946 483.45 293.756 441.05 293.756 441.05L256.086 428.79L269.166 392.71Z" fill="#FFB700"/>
<g opacity="0.6">
<path d="M298.784 417.59C299.249 416.973 299.926 416.549 300.684 416.4C301.442 416.25 302.229 416.386 302.894 416.78C303.529 417.219 303.971 417.885 304.128 418.642C304.284 419.398 304.143 420.185 303.734 420.84C302.864 422.12 300.564 422.66 299.374 421.68C298.184 420.7 297.824 418.38 298.974 417.35" fill="white"/>
</g>
<path d="M327.073 414.22L321.223 412L298.062 482.2C298.062 482.2 298.282 485.93 300.682 486.39L327.073 414.22Z" fill="#263238"/>
<path d="M293.002 442.08C293.362 442.2 294.162 440.5 295.932 439.18C297.702 437.86 299.522 437.48 299.502 437.1C299.482 436.72 297.252 436.51 295.142 438.1C293.032 439.69 292.602 442 293.002 442.08Z" fill="#263238"/>
<path d="M293.32 450.8C293.63 451 294.78 449.7 296.71 449.05C298.64 448.4 300.34 448.62 300.46 448.27C300.58 447.92 298.66 446.96 296.28 447.81C293.9 448.66 293 450.67 293.32 450.8Z" fill="#263238"/>
<path d="M300.801 458.41C301.001 458.12 299.411 456.98 297.151 457.18C294.891 457.38 293.522 458.75 293.762 459.01C294.002 459.27 295.402 458.62 297.262 458.48C299.122 458.34 300.641 458.75 300.801 458.41Z" fill="#263238"/>
<path d="M284.682 438.34C285.052 438.34 285.162 436.51 286.022 434.57C286.882 432.63 288.082 431.3 287.852 431.01C287.622 430.72 285.852 431.75 284.852 434.01C283.852 436.27 284.342 438.41 284.682 438.34Z" fill="#263238"/>
<path d="M276.745 433.49C276.895 433.54 277.615 432.23 278.055 429.87C278.295 428.481 278.369 427.068 278.275 425.66C278.213 424.828 278.099 423.999 277.935 423.18C277.852 422.694 277.697 422.222 277.475 421.78C277.312 421.457 277.045 421.197 276.717 421.043C276.389 420.889 276.019 420.849 275.665 420.93C275.355 421.016 275.069 421.174 274.831 421.392C274.593 421.609 274.41 421.879 274.295 422.18C274.127 422.637 274.023 423.115 273.985 423.6C273.89 424.44 273.873 425.287 273.935 426.13C274.045 427.555 274.383 428.953 274.935 430.27C275.875 432.51 276.935 433.56 277.095 433.47C277.255 433.38 276.455 432.13 275.805 429.96C275.424 428.697 275.209 427.389 275.165 426.07C275.142 425.298 275.182 424.526 275.285 423.76C275.365 422.92 275.595 422.27 276.005 422.2C276.165 422.2 276.215 422.2 276.385 422.43C276.536 422.749 276.647 423.085 276.715 423.43C276.89 424.189 277.02 424.957 277.105 425.73C277.249 427.059 277.269 428.398 277.165 429.73C277.005 432 276.555 433.42 276.745 433.49Z" fill="#263238"/>
<path d="M277.422 433.21C277.522 433.11 276.512 431.95 274.272 430.98C272.963 430.412 271.566 430.074 270.142 429.98C269.294 429.937 268.443 429.977 267.602 430.1C267.055 430.12 266.523 430.282 266.056 430.57C265.59 430.857 265.206 431.26 264.942 431.74C264.83 432.062 264.813 432.41 264.893 432.741C264.973 433.073 265.146 433.374 265.392 433.61C265.746 433.952 266.147 434.242 266.582 434.47C267.345 434.89 268.168 435.19 269.022 435.36C270.445 435.662 271.92 435.6 273.312 435.18C275.702 434.46 276.662 433.18 276.552 433.07C276.442 432.96 275.292 433.86 273.102 434.29C271.837 434.531 270.534 434.496 269.282 434.19C268.562 434.006 267.869 433.727 267.222 433.36C266.492 432.96 265.982 432.45 266.162 432.19C266.342 431.93 267.092 431.43 267.812 431.36C268.566 431.233 269.329 431.172 270.092 431.18C271.405 431.208 272.707 431.417 273.962 431.8C276.112 432.53 277.292 433.39 277.422 433.21Z" fill="#263238"/>
<path d="M221.406 383.79L165.406 409.79L197.406 479.67C203.886 476.21 200.746 433.92 200.746 433.92L237.336 418.74L221.406 383.79Z" fill="#FFB700"/>
<g opacity="0.6">
<path d="M193.836 410.92C193.324 410.341 192.617 409.97 191.849 409.88C191.082 409.79 190.308 409.985 189.676 410.43C189.076 410.919 188.688 411.62 188.593 412.388C188.498 413.155 188.703 413.93 189.166 414.55C190.166 415.75 192.456 416.11 193.566 415.04C194.676 413.97 194.856 411.63 193.626 410.7" fill="white"/>
</g>
<path d="M165.375 409.78L171.025 407.16L199.635 475.28C199.635 475.28 199.705 479.01 197.355 479.66L165.375 409.78Z" fill="#263238"/>
<path d="M201.573 434.88C201.223 435.03 200.283 433.39 198.423 432.21C196.563 431.03 194.713 430.8 194.703 430.42C194.693 430.04 196.903 429.65 199.133 431.12C201.363 432.59 201.913 434.81 201.573 434.88Z" fill="#263238"/>
<path d="M201.89 443.6C201.59 443.83 200.34 442.6 198.36 442.12C196.38 441.64 194.71 441.98 194.57 441.64C194.43 441.3 196.26 440.19 198.7 440.85C201.14 441.51 202.21 443.44 201.89 443.6Z" fill="#263238"/>
<path d="M195.004 451.78C194.794 451.5 196.274 450.24 198.544 450.26C200.814 450.28 202.294 451.54 202.074 451.82C201.854 452.1 200.404 451.56 198.544 451.57C196.684 451.58 195.214 452.1 195.004 451.78Z" fill="#263238"/>
<path d="M209.52 430.5C209.14 430.5 208.9 428.71 207.88 426.85C206.86 424.99 205.57 423.75 205.79 423.44C206.01 423.13 207.87 424.02 209.04 426.24C210.21 428.46 209.86 430.54 209.52 430.5Z" fill="#263238"/>
<path d="M217.054 425C216.914 425.07 216.054 423.81 215.474 421.49C215.116 420.125 214.928 418.721 214.914 417.31C214.911 416.478 214.961 415.646 215.064 414.82C215.1 414.325 215.215 413.839 215.404 413.38C215.54 413.042 215.785 412.76 216.101 412.578C216.416 412.397 216.784 412.327 217.144 412.38C217.462 412.436 217.762 412.568 218.018 412.764C218.274 412.961 218.479 413.217 218.614 413.51C218.817 413.985 218.949 414.487 219.004 415C219.164 415.831 219.248 416.674 219.254 417.52C219.259 418.941 219.043 420.355 218.614 421.71C217.854 424.02 216.834 425.16 216.714 425.07C216.594 424.98 217.234 423.69 217.714 421.47C217.994 420.183 218.105 418.866 218.044 417.55C218.01 416.776 217.91 416.007 217.744 415.25C217.604 414.43 217.324 413.79 216.904 413.75C216.744 413.75 216.694 413.75 216.544 414.01C216.422 414.332 216.342 414.668 216.304 415.01C216.187 415.782 216.117 416.56 216.094 417.34C216.049 418.678 216.133 420.018 216.344 421.34C216.734 423.6 217.244 425 217.054 425Z" fill="#263238"/>
<path d="M216.36 424.82C216.25 424.72 217.16 423.48 219.31 422.35C221.341 421.302 223.621 420.835 225.9 421C226.448 420.976 226.993 421.094 227.482 421.343C227.971 421.592 228.387 421.963 228.69 422.42C228.825 422.735 228.867 423.082 228.812 423.42C228.757 423.758 228.608 424.074 228.38 424.33C228.053 424.698 227.676 425.018 227.26 425.28C226.533 425.757 225.737 426.122 224.9 426.36C223.506 426.767 222.032 426.822 220.61 426.52C218.17 425.98 217.11 424.75 217.21 424.66C217.31 424.57 218.53 425.36 220.75 425.66C222.031 425.803 223.328 425.667 224.55 425.26C225.261 425.024 225.935 424.687 226.55 424.26C227.24 423.81 227.72 423.26 227.55 423.02C227.336 422.786 227.072 422.602 226.778 422.481C226.484 422.36 226.168 422.305 225.85 422.32C225.086 422.245 224.315 422.245 223.55 422.32C222.246 422.444 220.967 422.754 219.75 423.24C217.6 424 216.49 425 216.36 424.82Z" fill="#263238"/>
<path d="M196.704 339.64C196.704 339.64 148.444 321.64 130.704 323.94C120.774 325.25 105.244 332.83 104.054 345.56C102.864 358.29 105.984 375.32 123.154 383.61C140.324 391.9 208.864 422.66 225.154 427.39C241.444 432.12 282.004 443.22 282.004 443.22L297.424 399.22C297.424 399.22 213.274 370.08 208.834 366.82C204.394 363.56 193.144 359.13 193.144 359.13L196.704 339.64Z" fill="#263238"/>
<path d="M364.474 345.61L364.134 345.53L363.134 345.23C362.284 344.98 361.024 344.61 359.384 344.23C354.759 343.056 349.963 342.7 345.214 343.18C341.94 343.461 338.703 344.077 335.554 345.02C333.807 345.55 332.105 346.218 330.464 347.02L325.214 349.59C317.994 353.04 309.924 356.59 301.344 359.96C284.144 366.85 267.634 370.12 255.864 372.8C249.964 374.1 245.184 375.18 241.864 375.96L238.074 376.86L237.074 377.08L236.734 377.14C236.834 377.086 236.942 377.048 237.054 377.03L238.054 376.76C238.914 376.53 240.174 376.17 241.824 375.76C245.094 374.92 249.824 373.76 255.754 372.44C267.514 369.67 283.974 366.35 301.114 359.44C309.694 356.05 317.754 352.54 324.974 349.11L330.234 346.57C331.901 345.765 333.63 345.096 335.404 344.57C338.581 343.628 341.85 343.028 345.154 342.78C349.959 342.32 354.807 342.734 359.464 344C361.104 344.42 362.354 344.82 363.204 345.11L364.154 345.46L364.474 345.61Z" fill="#455A64"/>
<path d="M361.933 339.25C361.933 339.34 360.463 339.07 358.103 338.82C351.942 338.141 345.711 338.462 339.653 339.77C337.323 340.26 335.903 340.67 335.883 340.59C336.198 340.419 336.534 340.288 336.883 340.2C337.513 339.98 338.443 339.7 339.603 339.41C342.634 338.65 345.732 338.188 348.853 338.03C351.969 337.873 355.093 338.014 358.183 338.45C359.373 338.63 360.323 338.81 360.973 338.96C361.302 339.023 361.624 339.12 361.933 339.25Z" fill="#455A64"/>
<path d="M176.405 352.4C176.355 352.47 175.015 351.4 172.705 350.01C166.671 346.258 159.889 343.869 152.835 343.01C150.135 342.67 148.445 342.64 148.445 342.55C148.838 342.48 149.237 342.456 149.635 342.48C150.405 342.48 151.515 342.48 152.875 342.64C160.021 343.32 166.89 345.748 172.875 349.71C173.782 350.3 174.657 350.937 175.495 351.62C175.832 351.839 176.138 352.101 176.405 352.4Z" fill="#455A64"/>
<path d="M200.625 418L201.005 418.14L202.095 418.6C203.095 419 204.475 419.66 206.365 420.39C210.125 421.88 215.675 423.92 222.805 426.27C237.055 430.92 257.545 436.86 282.065 443.03L281.795 443.18L296.715 401.77L296.855 402.1L278.375 394.51L176.145 352.4C171.985 348 168.145 344.12 164.565 340.98C161.522 338.296 158.275 335.852 154.855 333.67C152.702 332.316 150.479 331.077 148.195 329.96L146.405 329.12L145.805 328.82L146.425 329.08L148.235 329.87C150.544 330.951 152.788 332.166 154.955 333.51C158.406 335.67 161.68 338.101 164.745 340.78C168.365 343.9 172.215 347.78 176.395 352.16H176.335L278.575 394L297.055 401.59L297.275 401.68L297.195 401.92L282.195 443.31L282.125 443.51L281.915 443.46C257.395 437.24 236.915 431.24 222.675 426.46C215.555 424.08 210.015 421.99 206.265 420.46C204.385 419.72 202.985 419.03 202.025 418.61L200.945 418.12L200.625 418Z" fill="#455A64"/>
<path d="M319.902 185.83C319.902 185.83 333.802 193.83 336.622 203.24C338.332 208.95 351.292 282.01 353.342 296.41C355.392 310.81 351.062 321.49 344.922 326.27C338.782 331.05 320.152 337.41 320.152 337.41L294.002 345.9L286.492 326.78L311.392 291L309.002 266.83L319.902 185.83Z" fill="#FFB700"/>
<path d="M292.592 173.21L282.152 167.21C282.152 167.21 272.642 178.33 259.672 176.97C246.702 175.61 239.002 165.72 239.002 165.72L200.322 173.59C197.732 174.11 193.002 175.75 188.472 182.22C183.422 189.43 159.472 221.42 159.472 221.42H142.752C140.487 221.42 138.266 222.038 136.327 223.209C134.388 224.379 132.806 226.056 131.752 228.06C128.892 233.51 125.462 240.79 125.752 243.81C126.322 248.92 125.332 262.93 132.182 267.3C134.352 268.69 142.112 272.85 148.182 272.57C157.072 272.15 167.402 267.52 173.352 263.36C178.352 259.83 190.102 247.65 194.612 242.9V243L197.512 344.45L298.912 341.57L319.912 185.85C319.912 185.85 293.612 173.21 292.592 173.21Z" fill="#FFB700"/>
<path d="M194.244 200.4C194.384 200.4 194.654 212.97 194.834 228.48C195.014 243.99 195.054 256.57 194.904 256.57C194.754 256.57 194.494 244 194.314 228.49C194.134 212.98 194.104 200.4 194.244 200.4Z" fill="#263238"/>
<path d="M332.182 282.41C332.182 282.41 331.322 282.55 329.792 282.84C327.631 283.271 325.524 283.942 323.512 284.84C320.534 286.184 317.727 287.879 315.152 289.89C311.996 292.36 309.049 295.086 306.342 298.04C303.442 301.17 300.802 304.26 298.342 307.04C296.158 309.488 293.851 311.825 291.432 314.04C289.795 315.54 288.061 316.929 286.242 318.2C285.602 318.65 285.072 318.95 284.722 319.2C284.552 319.323 284.367 319.423 284.172 319.5C284.322 319.354 284.486 319.224 284.662 319.11C284.992 318.86 285.502 318.53 286.122 318.05C287.891 316.731 289.58 315.309 291.182 313.79C293.232 311.89 295.522 309.47 297.982 306.7C300.442 303.93 303.082 300.83 305.982 297.7C308.712 294.73 311.689 291.997 314.882 289.53C317.497 287.518 320.352 285.838 323.382 284.53C325.428 283.653 327.574 283.029 329.772 282.67C330.552 282.52 331.162 282.52 331.572 282.47C331.772 282.425 331.977 282.405 332.182 282.41Z" fill="#263238"/>
<path d="M334.483 275.54C334.483 275.63 332.943 275.85 330.483 276.54C324.16 278.29 318.424 281.706 313.873 286.43C312.133 288.24 311.203 289.5 311.133 289.43C311.288 289.098 311.482 288.786 311.713 288.5C312.291 287.683 312.922 286.905 313.603 286.17C318.069 281.233 323.915 277.749 330.383 276.17C331.355 275.931 332.34 275.748 333.333 275.62C333.711 275.54 334.098 275.513 334.483 275.54Z" fill="#263238"/>
<g opacity="0.3">
<path d="M145.75 257.73C151.12 259.19 157.56 251.47 162.44 246.64C164.97 244.12 167.61 241.44 168.55 237.99C169.21 235.091 168.912 232.056 167.7 229.34C166.801 226.892 165.602 224.564 164.13 222.41C164.58 226.58 165.61 232.96 164.21 238.2C163.04 242.57 160.27 246.04 157.33 249.34C154.23 252.83 150.55 256.49 145.75 257.73Z" fill="black"/>
</g>
<path d="M168.704 253.31C168.604 253.31 169.224 251.54 169.704 248.63C169.995 246.928 170.159 245.207 170.194 243.48C170.23 241.369 170.089 239.258 169.774 237.17C169.429 235.085 168.914 233.031 168.234 231.03C167.664 229.399 166.976 227.811 166.174 226.28C164.804 223.66 163.674 222.2 163.754 222.14C164.069 222.44 164.348 222.775 164.584 223.14C164.899 223.535 165.19 223.949 165.454 224.38C165.774 224.88 166.154 225.44 166.504 226.1C167.357 227.626 168.086 229.218 168.684 230.86C169.403 232.881 169.939 234.963 170.284 237.08C170.609 239.2 170.74 241.346 170.674 243.49C170.62 245.241 170.416 246.984 170.064 248.7C169.944 249.44 169.754 250.08 169.604 250.7C169.483 251.191 169.336 251.675 169.164 252.15C169.048 252.551 168.894 252.939 168.704 253.31Z" fill="#263238"/>
<path d="M243.24 169.64C243.31 169.77 242.12 170.46 240.88 171.58C239.64 172.7 238.8 173.79 238.68 173.7C239.115 172.743 239.746 171.888 240.531 171.189C241.316 170.489 242.239 169.962 243.24 169.64Z" fill="#263238"/>
<path d="M253.794 175.77C253.904 175.88 252.884 176.97 252.064 178.59C251.244 180.21 250.934 181.67 250.784 181.59C250.712 180.435 250.999 179.286 251.604 178.3C252.064 177.256 252.827 176.374 253.794 175.77Z" fill="#263238"/>
<path d="M271.863 182.13C271.38 181.17 270.991 180.165 270.703 179.13C270.262 178.145 269.927 177.116 269.703 176.06C270.41 176.908 270.928 177.896 271.223 178.96C271.665 179.957 271.883 181.039 271.863 182.13Z" fill="#263238"/>
<path d="M283.497 176.63C283.337 176.63 282.947 174.9 281.797 173.03C280.647 171.16 279.287 169.98 279.397 169.86C280.613 170.524 281.605 171.533 282.247 172.76C283.037 173.898 283.472 175.245 283.497 176.63Z" fill="#263238"/>
<path d="M316.876 209.49C317.026 209.49 315.306 223.37 313.046 240.44C310.786 257.51 308.836 271.34 308.696 271.32C308.556 271.3 310.266 257.45 312.526 240.37C314.786 223.29 316.736 209.47 316.876 209.49Z" fill="#263238"/>
<path d="M164.924 231.93C164.963 232.406 164.963 232.884 164.924 233.36C164.897 233.921 164.826 234.48 164.714 235.03C164.654 235.36 164.604 235.7 164.534 236.03C164.464 236.36 164.354 236.77 164.244 237.17C163.751 239.046 163.081 240.871 162.244 242.62C161.193 244.749 159.944 246.775 158.514 248.67C157.042 250.551 155.365 252.261 153.514 253.77C151.99 254.991 150.308 256 148.514 256.77C148.124 256.92 147.764 257.09 147.414 257.22L146.414 257.5L145.534 257.74C145.264 257.8 145.004 257.81 144.774 257.85C144.301 257.925 143.823 257.962 143.344 257.96C145.058 257.621 146.733 257.108 148.344 256.43C150.07 255.636 151.689 254.628 153.164 253.43C154.947 251.937 156.569 250.261 158.004 248.43C159.414 246.566 160.652 244.578 161.704 242.49C162.549 240.773 163.245 238.987 163.784 237.15C164.254 235.431 164.634 233.689 164.924 231.93Z" fill="#263238"/>
<g opacity="0.3">
<path d="M313.613 347.9C317.913 345.82 318.893 340.25 319.333 335.49C320.613 321.563 321.897 307.627 323.183 293.68C323.793 287.13 324.083 279.68 319.463 274.96C315.243 270.68 308.533 270.43 302.523 270.45C265.423 270.55 232.653 271.64 195.523 271.74L197.413 336.65L313.613 347.9Z" fill="black"/>
</g>
<path d="M179.554 281.8L183.504 357.08C183.586 358.486 184.204 359.807 185.231 360.771C186.258 361.734 187.615 362.268 189.024 362.26L308.944 362.47C310.355 362.475 311.714 361.938 312.741 360.971C313.768 360.003 314.384 358.679 314.464 357.27L319.034 283.27C319.194 280.19 317.034 276.1 313.894 276.04H185.184C184.428 276.02 183.676 276.156 182.975 276.44C182.274 276.724 181.639 277.15 181.111 277.691C180.582 278.231 180.171 278.876 179.903 279.583C179.635 280.29 179.516 281.045 179.554 281.8Z" fill="#E0E0E0"/>
<path d="M179.551 281.8C179.551 281.8 179.551 281.7 179.551 281.52C179.525 281.241 179.525 280.96 179.551 280.68C179.714 279.582 180.21 278.559 180.971 277.75C181.529 277.153 182.212 276.685 182.971 276.38C183.899 276.047 184.887 275.91 185.871 275.98H193.161L239.621 275.9L308.531 275.83H313.431C314.299 275.784 315.161 276.004 315.901 276.46C316.631 276.925 317.254 277.538 317.731 278.26C318.712 279.691 319.238 281.385 319.241 283.12C319.141 284.79 319.041 286.48 318.941 288.18C318.521 294.954 318.094 301.864 317.661 308.91C316.801 323 315.901 337.58 314.971 352.52L314.801 355.32C314.721 356.25 314.741 357.15 314.571 358.13C314.378 359.088 313.945 359.981 313.311 360.724C312.678 361.468 311.866 362.038 310.951 362.38C310.051 362.7 309.093 362.826 308.141 362.75H299.891H278.361L237.661 362.66L200.831 362.57H192.331H190.301C189.611 362.57 188.931 362.57 188.211 362.5C186.808 362.302 185.528 361.589 184.621 360.5C183.736 359.438 183.261 358.093 183.281 356.71C183.211 355.4 183.151 354.11 183.081 352.83C182.951 350.26 182.821 347.76 182.691 345.31C181.691 325.72 180.901 309.87 180.341 298.91C180.081 293.44 179.871 289.19 179.731 286.29C179.671 284.85 179.621 283.76 179.581 283.01C179.541 282.26 179.581 281.89 179.581 281.89C179.581 281.89 179.581 282.27 179.671 283.01C179.761 283.75 179.781 284.85 179.861 286.28C180.031 289.18 180.271 293.43 180.581 298.9C181.171 309.9 182.031 325.71 183.091 345.29C183.221 347.74 183.361 350.24 183.501 352.81C183.561 354.09 183.631 355.38 183.701 356.69C183.681 357.987 184.128 359.247 184.961 360.24C185.806 361.248 186.997 361.904 188.301 362.08C188.966 362.14 189.634 362.16 190.301 362.14H200.871H237.701L278.401 362.2H299.931H308.181C309.072 362.272 309.968 362.156 310.811 361.86C311.642 361.55 312.381 361.032 312.956 360.357C313.532 359.681 313.926 358.87 314.101 358C314.251 357.15 314.251 356.17 314.321 355.26L314.491 352.46C315.421 337.52 316.321 322.94 317.201 308.86C317.634 301.807 318.061 294.894 318.481 288.12C318.591 286.43 318.691 284.75 318.791 283.07C318.784 281.443 318.29 279.854 317.371 278.51C316.976 277.826 316.405 277.259 315.718 276.869C315.03 276.479 314.251 276.279 313.461 276.29H308.571H239.661L193.201 276.22H185.911C184.946 276.145 183.975 276.271 183.061 276.59C182.176 276.932 181.395 277.497 180.796 278.232C180.196 278.967 179.798 279.845 179.641 280.78C179.594 281.119 179.564 281.459 179.551 281.8Z" fill="#263238"/>
<path d="M250.185 325.58C254.084 325.58 257.245 322.42 257.245 318.52C257.245 314.621 254.084 311.46 250.185 311.46C246.286 311.46 243.125 314.621 243.125 318.52C243.125 322.42 246.286 325.58 250.185 325.58Z" fill="white"/>
<path d="M257.247 318.52C257.197 318.52 257.247 317.89 256.927 316.82C256.513 315.31 255.604 313.983 254.347 313.05C253.494 312.406 252.5 311.974 251.447 311.79C250.246 311.58 249.011 311.691 247.867 312.11C246.599 312.568 245.498 313.398 244.707 314.49C243.9 315.593 243.443 316.912 243.395 318.278C243.346 319.643 243.708 320.992 244.434 322.149C245.16 323.307 246.216 324.22 247.466 324.771C248.716 325.322 250.103 325.485 251.447 325.24C252.5 325.056 253.494 324.624 254.347 323.98C255.602 323.05 256.511 321.726 256.927 320.22C257.217 319.15 257.197 318.51 257.247 318.52C257.273 318.669 257.273 318.821 257.247 318.97C257.253 319.408 257.202 319.845 257.097 320.27C256.733 321.857 255.832 323.27 254.547 324.27C253.586 325.019 252.451 325.513 251.248 325.705C250.045 325.897 248.813 325.782 247.667 325.37C246.596 324.988 245.63 324.36 244.846 323.537C244.062 322.714 243.481 321.719 243.15 320.631C242.82 319.543 242.749 318.393 242.943 317.273C243.136 316.153 243.59 315.093 244.267 314.18C245.119 313.013 246.304 312.131 247.667 311.65C248.894 311.211 250.217 311.111 251.497 311.36C252.592 311.58 253.62 312.057 254.497 312.75C255.786 313.746 256.688 315.161 257.047 316.75C257.153 317.172 257.203 317.605 257.197 318.04C257.242 318.196 257.258 318.358 257.247 318.52Z" fill="#263238"/>
<path d="M183.594 290.13C183.734 290.13 184.334 302.78 184.914 318.39C185.494 334 185.854 346.66 185.714 346.66C185.574 346.66 185.004 334 184.394 318.4C183.784 302.8 183.454 290.14 183.594 290.13Z" fill="#263238"/>
<path d="M147.552 191.91C146.842 191.31 149.922 179.49 149.922 179.49C149.922 179.49 141.782 166.22 141.572 161.94C141.362 157.66 144.782 148.88 144.782 148.88L168.112 142.88C168.112 142.88 175.612 156.8 177.112 161.72C178.612 166.64 174.542 183.34 174.542 183.34L170.542 191.91C170.542 191.91 158.662 201.33 147.552 191.91Z" fill="#FFBE9D"/>
<path d="M141.611 164.5C140.697 162.816 139.876 161.083 139.151 159.31C137.681 155.81 135.861 152.37 139.151 150.41C139.664 150.072 140.244 149.848 140.851 149.753C141.458 149.659 142.079 149.695 142.671 149.86C142.671 149.86 142.171 146.86 143.931 145.8C144.443 145.48 145.023 145.286 145.625 145.234C146.226 145.182 146.831 145.273 147.391 145.5C147.391 145.5 146.831 141.34 149.391 139.58C150.343 138.951 151.453 138.6 152.594 138.566C153.735 138.533 154.863 138.818 155.851 139.39C155.851 139.39 153.851 121.18 153.671 120.22C153.031 116.68 154.341 113.54 157.861 114.42C159.151 114.74 159.861 116.1 161.381 122.03C162.901 127.96 165.331 138.08 165.331 138.08C165.331 138.08 169.431 145.2 171.331 149.08C173.231 152.96 177.101 161.74 177.421 164.08C178.241 170.08 174.711 178.08 174.711 178.08L149.911 179.52L141.611 164.5Z" fill="#FFBE9D"/>
<path d="M143.167 150.64C143.874 151.483 144.515 152.379 145.087 153.32L147.087 156.32C147.492 156.911 147.85 157.533 148.157 158.18C148.505 158.918 148.607 159.75 148.447 160.55C148.371 160.968 148.186 161.359 147.91 161.682C147.634 162.006 147.278 162.25 146.877 162.39C146.128 162.577 145.336 162.478 144.657 162.11C144.073 161.83 143.517 161.496 142.997 161.11C142.517 160.76 142.067 160.42 141.667 160.11C140.857 159.48 140.237 158.94 139.817 158.55C139.397 158.16 139.177 157.94 139.197 157.91C139.217 157.88 140.197 158.64 141.887 159.81C142.831 160.521 143.835 161.15 144.887 161.69C145.461 161.992 146.126 162.074 146.757 161.92C147.071 161.806 147.35 161.609 147.563 161.351C147.776 161.092 147.915 160.781 147.967 160.45C148.094 159.774 148.006 159.074 147.717 158.45C147.429 157.826 147.095 157.224 146.717 156.65L144.847 153.65C144.203 152.696 143.641 151.689 143.167 150.64Z" fill="#6F4C47"/>
<path d="M163.504 152.81C163.29 151.508 163.379 150.173 163.764 148.91C163.988 147.608 164.52 146.377 165.314 145.32C165.454 145.39 164.764 146.98 164.314 149.03C163.864 151.08 163.664 152.81 163.504 152.81Z" fill="#6F4C47"/>
<path d="M173.341 158.13C171.052 155.914 168.169 154.41 165.041 153.8C161.928 153.2 158.741 153.079 155.591 153.44C153.071 153.67 150.181 154.32 149.041 156.58C147.901 158.84 149.281 161.9 151.511 163.23C153.741 164.56 156.511 164.62 159.121 164.39C161.731 164.16 164.332 163.67 166.912 164.07" fill="#FFBE9D"/>
<path d="M166.912 164.07C166.912 164.07 166.212 164 164.912 164.07C163.135 164.147 161.363 164.314 159.602 164.57C158.366 164.728 157.118 164.782 155.872 164.73C154.42 164.681 152.995 164.323 151.692 163.68C150.238 162.914 149.129 161.624 148.592 160.07C148.307 159.241 148.245 158.351 148.412 157.49C148.625 156.602 149.103 155.8 149.782 155.19C151.16 154.125 152.817 153.482 154.552 153.34C156.115 153.156 157.688 153.063 159.262 153.06C161.94 153.011 164.608 153.414 167.152 154.25C168.864 154.825 170.464 155.691 171.882 156.81C172.269 157.116 172.634 157.451 172.972 157.81C173.099 157.925 173.21 158.056 173.302 158.2C173.302 158.2 172.782 157.73 171.762 156.99C170.321 155.954 168.725 155.154 167.032 154.62C164.52 153.847 161.899 153.489 159.272 153.56C157.718 153.577 156.165 153.681 154.622 153.87C152.99 154.001 151.43 154.602 150.132 155.6C149.535 156.128 149.113 156.826 148.922 157.6C148.766 158.37 148.818 159.167 149.072 159.91C149.564 161.347 150.582 162.544 151.922 163.26C153.169 163.875 154.533 164.216 155.922 164.26C157.143 164.327 158.366 164.297 159.582 164.17C161.359 163.938 163.15 163.821 164.942 163.82C165.428 163.842 165.912 163.889 166.392 163.96C166.57 163.971 166.745 164.008 166.912 164.07Z" fill="#6F4C47"/>
<path d="M143.344 150.93C145.954 154.93 148.254 159.25 150.454 163.45C150.979 164.736 151.843 165.856 152.954 166.69C153.894 167.27 156.224 166.22 157.274 165.86L150.104 149.56" fill="#FFBE9D"/>
<path d="M150.76 150C151.011 150.382 151.225 150.788 151.4 151.21L152.98 154.63C154.31 157.53 156.13 161.63 158.16 166.2L158.28 166.45L158.01 166.55C157.24 166.82 156.41 167.17 155.51 167.4C155.15 167.49 154.781 167.543 154.41 167.56C154.215 167.569 154.019 167.549 153.83 167.5C153.632 167.451 153.448 167.359 153.29 167.23C152.713 166.814 152.221 166.291 151.84 165.69C151.11 164.53 150.59 163.37 150 162.3C148.88 160.13 147.85 158.19 146.95 156.57C146.05 154.95 145.31 153.66 144.78 152.77C144.488 152.322 144.227 151.854 144 151.37C144.36 151.77 144.678 152.206 144.95 152.67C145.53 153.52 146.34 154.79 147.27 156.39C148.2 157.99 149.27 159.91 150.43 162.07C151.02 163.14 151.57 164.32 152.27 165.41C152.618 165.953 153.062 166.427 153.58 166.81C153.856 166.953 154.16 167.035 154.471 167.049C154.782 167.062 155.092 167.008 155.38 166.89C156.23 166.68 157.04 166.34 157.84 166.06L157.66 166.44C155.66 161.83 153.88 157.74 152.66 154.8L151.22 151.32C151.028 150.894 150.874 150.453 150.76 150Z" fill="#FFBE9D"/>
<path d="M148.172 144.71C150.472 150.49 152.775 156.267 155.082 162.04C155.502 163.297 156.131 164.473 156.942 165.52C157.352 166.04 157.884 166.451 158.491 166.714C159.099 166.978 159.762 167.086 160.422 167.03C162.222 166.77 163.422 164.86 163.492 163.03C163.437 161.205 162.994 159.412 162.192 157.77C160.125 152.5 158.47 147.077 157.242 141.55" fill="#FFBE9D"/>
<path d="M157.241 141.56C157.311 141.732 157.368 141.909 157.411 142.09C157.521 142.49 157.651 143 157.821 143.62C158.181 144.95 158.701 146.87 159.431 149.22C160.161 151.57 161.101 154.34 162.291 157.36C163.028 158.942 163.517 160.629 163.741 162.36C163.807 163.31 163.625 164.262 163.211 165.12C162.788 166.017 162.052 166.729 161.141 167.12C160.667 167.293 160.162 167.361 159.66 167.32C159.157 167.279 158.67 167.128 158.231 166.88C157.41 166.423 156.721 165.761 156.231 164.96C155.404 163.451 154.705 161.875 154.141 160.25C152.961 157.25 151.901 154.51 150.991 152.2C150.081 149.89 149.431 148.1 148.911 146.75L148.361 145.26C148.29 145.087 148.239 144.905 148.211 144.72C148.312 144.877 148.396 145.045 148.461 145.22L149.101 146.67C149.651 148.01 150.411 149.84 151.331 152.06C152.251 154.28 153.331 157.06 154.591 160.06C155.154 161.647 155.846 163.186 156.661 164.66C157.114 165.392 157.752 165.992 158.511 166.4C158.885 166.61 159.3 166.738 159.728 166.774C160.156 166.811 160.587 166.755 160.991 166.61C161.789 166.262 162.43 165.632 162.791 164.84C163.167 164.063 163.333 163.201 163.271 162.34C163.049 160.677 162.581 159.055 161.881 157.53C160.711 154.53 159.801 151.68 159.121 149.32C158.441 146.96 157.961 145 157.661 143.66C157.521 142.98 157.411 142.46 157.351 142.1C157.286 141.927 157.249 141.745 157.241 141.56Z" fill="#6F4C47"/>
<path d="M148.721 185.34C148.721 185.34 132.901 232 132.271 234.28C131.641 236.56 135.401 253.23 142.271 257.18C149.141 261.13 162.471 244.69 164.131 238.65C165.791 232.61 164.131 222.41 164.131 222.41L174.801 182.22" fill="#FFBE9D"/>
<path d="M164.135 178.09C163.63 178.154 163.117 178.089 162.645 177.9C161.477 177.536 160.405 176.918 159.505 176.09C158.593 175.26 157.882 174.235 157.425 173.09C157.191 172.636 157.081 172.13 157.105 171.62C157.764 173.134 158.696 174.514 159.855 175.69C161.119 176.75 162.571 177.564 164.135 178.09Z" fill="#6F4C47"/>
<path d="M448.322 404.22C448.322 404.37 360.212 404.49 251.542 404.49C142.872 404.49 54.7422 404.37 54.7422 404.22C54.7422 404.07 142.842 403.96 251.542 403.96C360.242 403.96 448.322 404.08 448.322 404.22Z" fill="#263238"/>
<path d="M78.2119 70.2402H190.442C193.087 70.2402 195.232 72.3848 195.232 75.0302V106.15C195.232 108.796 193.087 110.94 190.442 110.94H78.2119C75.5664 110.94 73.4219 108.796 73.4219 106.15V75.0302C73.4219 72.3848 75.5664 70.2402 78.2119 70.2402Z" fill="#FFB700" stroke="black"/>
<path d="M196.52 111.43H88.59C87.1037 111.414 85.6834 110.813 84.6371 109.757C83.5907 108.702 83.0025 107.276 83 105.79V75.2299C83.0026 73.7348 83.5977 72.3018 84.6548 71.2447C85.712 70.1875 87.145 69.5925 88.64 69.5898H196.52C198.015 69.5925 199.448 70.1875 200.505 71.2447C201.562 72.3018 202.157 73.7348 202.16 75.2299V105.79C202.157 107.285 201.562 108.718 200.505 109.775C199.448 110.832 198.015 111.427 196.52 111.43ZM88.59 70.5898C87.3689 70.6056 86.203 71.1011 85.3442 71.9693C84.4853 72.8375 84.0025 74.0087 84 75.2299V105.79C84 107.02 84.4889 108.201 85.359 109.071C86.2292 109.941 87.4094 110.43 88.64 110.43H196.52C197.751 110.43 198.931 109.941 199.801 109.071C200.671 108.201 201.16 107.02 201.16 105.79V75.2299C201.157 74.0001 200.668 72.8214 199.798 71.9518C198.928 71.0822 197.75 70.5925 196.52 70.5898H88.59Z" fill="#FFB700"/>
<path d="M95.5 90.0001C95.553 89.0577 95.882 88.1517 96.4461 87.395C97.0103 86.6383 97.7846 86.0643 98.6726 85.7445C99.5606 85.4247 100.523 85.3732 101.44 85.5965C102.357 85.8197 103.188 86.3078 103.83 87.0001L102.53 88.2001C102.264 87.8793 101.929 87.6228 101.549 87.4497C101.17 87.2765 100.757 87.1912 100.34 87.2001C99.6 87.2001 98.8904 87.494 98.3672 88.0172C97.8439 88.5405 97.55 89.2501 97.55 89.9901C97.55 90.73 97.8439 91.4397 98.3672 91.9629C98.8904 92.4861 99.6 92.7801 100.34 92.7801C100.757 92.7882 101.17 92.7025 101.549 92.5294C101.928 92.3563 102.263 92.1002 102.53 91.7801L103.83 93.0001C103.19 93.6969 102.359 94.1893 101.441 94.4153C100.522 94.6413 99.5572 94.5909 98.6673 94.2704C97.7773 93.9499 97.0019 93.3736 96.4384 92.6138C95.8749 91.854 95.5484 90.9447 95.5 90.0001Z" fill="white"/>
<path d="M105.184 85.6299H107.184V92.7199H111.564V94.3599H105.164L105.184 85.6299Z" fill="white"/>
<path d="M112.711 85.6299H114.711V94.3599H112.711V85.6299Z" fill="white"/>
<path d="M116.25 90.0001C116.3 89.0576 116.627 88.1508 117.19 87.3932C117.753 86.6356 118.527 86.0608 119.415 85.7406C120.303 85.4205 121.265 85.3692 122.182 85.5932C123.099 85.8172 123.93 86.3066 124.57 87.0001L123.28 88.2001C123.012 87.8791 122.675 87.6226 122.294 87.4495C121.913 87.2764 121.498 87.1912 121.08 87.2001C120.714 87.2001 120.351 87.2722 120.012 87.4124C119.674 87.5527 119.366 87.7582 119.107 88.0172C118.848 88.2763 118.643 88.5839 118.502 88.9224C118.362 89.2609 118.29 89.6237 118.29 89.9901C118.29 90.3565 118.362 90.7193 118.502 91.0578C118.643 91.3963 118.848 91.7038 119.107 91.9629C119.366 92.222 119.674 92.4275 120.012 92.5677C120.351 92.7079 120.714 92.7801 121.08 92.7801C121.498 92.7882 121.913 92.7027 122.293 92.5296C122.674 92.3566 123.011 92.1005 123.28 91.7801L124.57 93.0001C123.932 93.6983 123.101 94.1919 122.183 94.4187C121.264 94.6455 120.299 94.5953 119.41 94.2744C118.52 93.9536 117.745 93.3764 117.183 92.6157C116.62 91.855 116.296 90.9449 116.25 90.0001Z" fill="white"/>
<path d="M129.11 90.9299L127.93 92.1499V94.3599H125.93V85.6299H127.93V89.7099L131.8 85.6299H134L130.39 89.5199L134.22 94.3599H131.9L129.11 90.9299Z" fill="white"/>
<path d="M146.68 85.6299V94.3599H144.68V90.7799H140.68V94.3599H138.68V85.6299H140.68V89.0799H144.68V85.6299H146.68Z" fill="white"/>
<path d="M155.502 92.7399V94.3599H148.742V85.6299H155.342V87.2599H150.752V89.1499H154.802V90.7199H150.752V92.7199L155.502 92.7399Z" fill="white"/>
<path d="M162.661 94.3599L161.001 91.9299H159.141V94.3599H157.141V85.6299H160.921C163.251 85.6299 164.711 86.8399 164.711 88.7999C164.735 89.39 164.574 89.9729 164.252 90.4676C163.929 90.9623 163.46 91.3441 162.911 91.5599L164.911 94.3599H162.661ZM160.771 87.2799H159.121V90.2799H160.771C162.001 90.2799 162.621 89.7099 162.621 88.7599C162.621 87.8099 162.001 87.2799 160.771 87.2799Z" fill="white"/>
<path d="M173.002 92.7399V94.3599H166.242V85.6299H172.832V87.2599H168.252V89.1499H172.252V90.7199H168.252V92.7199L173.002 92.7399Z" fill="white"/>
<path d="M197.608 110.51C196.777 109.75 196.069 108.867 195.508 107.89C194.801 107.012 194.235 106.031 193.828 104.98C194.661 105.741 195.372 106.624 195.938 107.6C196.644 108.476 197.208 109.458 197.608 110.51Z" fill="#FFB700"/>
<path d="M201.661 78.2802C200.422 77.0216 199.313 75.6413 198.351 74.1602C197.251 72.781 196.283 71.3011 195.461 69.7402C196.7 70.9989 197.809 72.3792 198.771 73.8602C199.875 75.2365 200.843 76.7167 201.661 78.2802Z" fill="#FFB700"/>
<path d="M201.234 105C201.084 105.11 199.584 103 197.944 100.18C197.114 98.7998 196.384 97.5398 195.874 96.6198C195.556 96.1412 195.294 95.6279 195.094 95.0898C195.244 94.9898 196.744 97.1498 198.384 99.9098C199.214 101.29 199.944 102.55 200.464 103.47C200.781 103.947 201.04 104.461 201.234 105Z" fill="#FFB700"/>
<path d="M201.694 96.2598C201.544 96.3698 199.944 94.0398 198.174 91.0698C197.284 89.5798 196.494 88.2298 195.934 87.2398C195.598 86.7236 195.316 86.174 195.094 85.5998C195.244 85.4998 196.844 87.8298 198.624 90.7998C199.514 92.2798 200.294 93.6398 200.854 94.6198C201.192 95.1344 201.474 95.6843 201.694 96.2598Z" fill="#FFB700"/>
<path d="M201.679 87.6298C201.529 87.7398 199.919 85.3898 198.139 82.4098C197.239 80.9198 196.449 79.5498 195.889 78.5598C195.547 78.0424 195.262 77.4891 195.039 76.9098C195.189 76.8098 196.799 79.1498 198.579 82.1398C199.479 83.6298 200.269 84.9898 200.829 85.9898C201.175 86.5018 201.46 87.0522 201.679 87.6298Z" fill="#FFB700"/>
<path d="M69.8903 76.2001C67.7395 75.9096 65.6158 75.4447 63.5403 74.8102C61.4199 74.3425 59.3401 73.7072 57.3203 72.9102C59.4711 73.2008 61.5948 73.6656 63.6703 74.3002C65.7912 74.7659 67.8712 75.4013 69.8903 76.2001Z" fill="#263238"/>
<path d="M71.1009 68.69C68.7531 66.2431 66.5335 63.6763 64.4509 61C62.2322 58.4445 60.1494 55.7741 58.2109 53C60.556 55.4529 62.7755 58.0228 64.8609 60.7C67.0738 63.2568 69.1565 65.9235 71.1009 68.69Z" fill="#263238"/>
<path d="M80.3668 65.0699C79.6455 63.3928 79.1836 61.6158 78.9968 59.7999C78.6353 58.0097 78.561 56.1734 78.7768 54.3599C78.9268 54.3599 79.0668 56.7799 79.5068 59.7299C79.9468 62.6799 80.5168 64.9999 80.3668 65.0699Z" fill="#263238"/>
<defs>
<filter id="filter0_d_2377_2476" x="0" y="37" width="508" height="508" filterUnits="userSpaceOnUse" color-interpolation-filters="sRGB">
<feFlood flood-opacity="0" result="BackgroundImageFix"/>
<feColorMatrix in="SourceAlpha" type="matrix" values="0 0 0 0 0 0 0 0 0 0 0 0 0 0 0 0 0 0 127 0" result="hardAlpha"/>
<feOffset dy="4"/>
<feGaussianBlur stdDeviation="2"/>
<feComposite in2="hardAlpha" operator="out"/>
<feColorMatrix type="matrix" values="0 0 0 0 0 0 0 0 0 0 0 0 0 0 0 0 0 0 0.25 0"/>
<feBlend mode="normal" in2="BackgroundImageFix" result="effect1_dropShadow_2377_2476"/>
<feBlend mode="normal" in="SourceGraphic" in2="effect1_dropShadow_2377_2476" result="shape"/>
</filter>
</defs>
</svg>
