<svg width="706" height="706" viewBox="0 0 706 706" fill="none" xmlns="http://www.w3.org/2000/svg">
<g filter="url(#filter0_d_2266_3860)">
<circle cx="353" cy="389" r="250" fill="#FFB700"/>
</g>
<path d="M138.614 442.846C203.905 517.682 269.832 527.156 362.501 544.891C455.171 562.625 523.215 550.369 573.355 505.171C631.247 452.927 628.96 333.246 540.371 290.632C512.696 277.289 479.74 273.25 455.495 254.485C409.196 218.676 371.75 162.959 297.422 152.496C223.094 142.033 172.983 191.891 172.983 191.891C111.942 258.735 73.3236 367.953 138.614 442.846Z" fill="#FFB700"/>
<path opacity="0.7" d="M138.614 442.846C203.905 517.682 269.832 527.156 362.501 544.891C455.171 562.625 523.215 550.369 573.355 505.171C631.247 452.927 628.96 333.246 540.371 290.632C512.696 277.289 479.74 273.25 455.495 254.485C409.196 218.676 371.75 162.959 297.422 152.496C223.094 142.033 172.983 191.891 172.983 191.891C111.942 258.735 73.3236 367.953 138.614 442.846Z" fill="white"/>
<path d="M636.742 562.513H86.0625V585.105H636.742V562.513Z" fill="#FFB700"/>
<path opacity="0.5" d="M636.742 562.513H86.0625V585.105H636.742V562.513Z" fill="white"/>
<path d="M215.926 319.522C213.232 320.4 210.588 321.423 208.004 322.586C209.416 321.555 210.828 320.482 212.24 319.394C218.527 314.338 224.51 308.916 230.159 303.156C223.53 309.595 216.453 315.555 208.979 320.99C210.009 319.2 210.915 317.341 211.69 315.427C213.102 311.911 213.356 308.367 210.01 306.489C205.872 304.173 200.874 307.632 202.187 313.549C202.989 316.852 204.55 319.922 206.748 322.515C201.87 325.891 196.776 328.943 191.498 331.651L191.004 331.905C192.12 329.972 193.106 327.967 193.955 325.904C195.282 322.402 195.621 318.844 192.261 316.98C188.124 314.65 183.125 318.124 184.452 324.04C185.24 327.299 186.767 330.333 188.914 332.907C182.574 336.028 176.023 338.682 169.499 341.563L168.553 341.986C169.826 340.619 171.01 339.171 172.097 337.652C174.215 334.545 175.359 331.185 172.535 328.572C169.062 325.353 163.371 327.556 163.286 333.656C163.29 337.022 164.073 340.342 165.574 343.356C159.469 346.208 153.67 349.671 148.263 353.692L148.093 353.833C148.825 352.674 149.494 351.477 150.098 350.247C151.694 346.844 152.287 343.342 149.068 341.21C148.413 340.76 147.666 340.464 146.881 340.345C146.096 340.226 145.294 340.286 144.536 340.521C143.778 340.756 143.082 341.16 142.503 341.702C141.923 342.245 141.474 342.912 141.189 343.653C140.764 342.99 140.188 342.439 139.508 342.043C136.275 340.179 133.098 342.198 130.373 345.05C129.667 345.799 128.961 346.604 128.354 347.394C130.456 341.56 133.098 335.935 136.247 330.592C139.245 331.901 142.478 332.588 145.749 332.611C152.188 332.611 154.899 327.245 151.736 323.913C149.166 321.216 145.552 322.247 142.135 324.223C141.01 324.88 139.921 325.596 138.873 326.37C142.146 321.44 145.861 316.818 149.971 312.56C152.665 314.739 155.795 316.314 159.149 317.178C165.404 318.717 169.33 314.184 167.071 310.188C165.235 306.941 161.423 307.068 157.681 308.155C155.89 308.691 154.135 309.342 152.428 310.103C154.137 308.437 155.902 306.842 157.695 305.26C160.039 303.255 162.467 301.321 164.938 299.429C167.595 301.549 170.67 303.084 173.961 303.933C180.216 305.472 184.142 300.94 181.882 296.944C180.047 293.696 176.234 293.823 172.479 294.91C171.603 295.165 170.714 295.475 169.852 295.8C173.114 293.47 176.418 291.197 179.736 288.938L182.8 286.834C185.561 289.146 188.803 290.815 192.289 291.719C198.544 293.258 202.484 288.726 200.224 284.73C198.375 281.482 194.576 281.609 190.82 282.697C189.343 283.148 187.888 283.671 186.457 284.264L188.349 282.852C189.507 282.019 190.665 281.172 191.795 280.282C193.207 279.223 194.548 278.051 195.918 276.921C196.708 276.3 197.457 275.637 198.205 274.959C200.977 277.296 204.239 278.98 207.75 279.887C214.005 281.426 217.931 276.893 215.672 272.897C213.836 269.65 210.024 269.777 206.282 270.864C204.183 271.512 202.127 272.29 200.126 273.194C202.681 270.822 205.152 268.351 207.496 265.781C207.651 265.597 207.793 265.414 207.962 265.244C208.965 264.129 209.953 262.999 210.913 261.827C211.873 260.655 213.116 259.116 214.161 257.704C218.452 252.072 221.984 245.901 224.666 239.348C221.855 245.823 218.204 251.899 213.808 257.422C209.46 262.967 204.605 268.096 199.307 272.742L198.728 273.236C199.931 271.186 200.997 269.059 201.919 266.868C203.26 263.366 203.585 259.808 200.224 257.944C196.101 255.614 191.089 259.088 192.416 265.004C193.269 268.507 194.971 271.747 197.372 274.436L196.13 275.509L194.718 276.724C193.899 277.387 193.051 278.023 192.204 278.658C191.752 278.997 191.315 279.35 190.792 279.689C189.592 280.579 188.378 281.44 187.149 282.287L185.384 283.487L183.379 284.899C184.551 282.899 185.58 280.818 186.457 278.672C187.799 275.156 188.124 271.612 184.777 269.749C180.64 267.419 175.627 270.892 176.955 276.809C177.773 280.207 179.395 283.359 181.685 286.001L180.273 286.961L174.78 290.561L173.693 291.267L170.629 293.315L169.302 294.204C167.89 295.179 166.478 296.167 165.066 297.184C166.2 295.152 167.191 293.043 168.031 290.872C169.443 287.37 169.697 283.812 166.35 281.948C162.213 279.618 157.215 283.092 158.542 289.008C159.372 292.452 161.029 295.641 163.371 298.299C160.971 300.064 158.599 301.872 156.311 303.764C154.631 305.176 152.979 306.588 151.355 308.113C152.062 306.804 152.694 305.455 153.247 304.074C154.574 300.558 154.913 297.014 151.553 295.15C147.416 292.821 142.417 296.294 143.744 302.21C144.532 305.469 146.059 308.503 148.206 311.078C143.633 315.622 139.514 320.602 135.908 325.946C136.317 324.405 136.628 322.839 136.84 321.258C137.292 317.531 136.755 314.029 133.041 313.012C128.467 311.756 124.456 316.33 127.182 321.781C128.749 324.781 130.992 327.377 133.733 329.363C130.176 335.173 127.206 341.322 124.866 347.719C124.805 346.381 124.673 345.047 124.471 343.723C123.835 340.01 122.338 336.804 118.484 336.875C113.739 336.974 111.184 342.523 115.349 346.957C117.57 349.273 120.282 351.063 123.284 352.195C121.679 357.134 120.373 362.165 119.373 367.261C119.204 368.066 119.077 368.871 118.921 369.676C118.752 369.831 118.583 369.986 118.427 370.156C118.258 369.464 118.06 368.744 117.834 368.08C116.648 364.522 114.671 361.571 110.873 362.249C106.213 363.068 104.533 368.913 109.334 372.683C111.774 374.546 114.586 375.86 117.58 376.538C117.58 376.679 117.693 376.806 117.764 376.948C117.241 380.774 116.846 384.629 116.606 388.498C116.422 391.322 116.323 394.273 116.267 397.167C112.229 397.167 109.376 401.601 112.158 406.402C113.332 408.392 114.836 410.169 116.606 411.655C116.945 417.091 117.481 422.527 118.201 427.921C117.63 427.393 116.932 427.022 116.174 426.847C115.416 426.671 114.626 426.696 113.881 426.918C111.339 427.61 110.195 429.658 109.786 432.171C108.881 433.107 108.375 434.357 108.374 435.659C106.482 432.835 104.688 430.011 102.952 427.031C105.603 424.999 107.801 422.436 109.405 419.505C112.44 413.857 109.009 408.901 104.59 410.101C100.975 411.09 100.184 414.761 100.354 418.7C100.41 420.195 100.552 421.684 100.777 423.162L98.9134 419.886C97.3602 417.062 96.0894 414.238 94.5644 411.414C94.1973 410.723 93.8725 410.002 93.576 409.296C96.5508 407.798 99.1811 405.696 101.3 403.126C105.352 398.128 102.909 392.635 98.3345 392.988C94.6068 393.284 93.1242 396.744 92.5029 400.641C92.2608 402.34 92.1099 404.051 92.0511 405.766L90.7238 402.702C87.8969 395.752 85.5705 388.607 83.7626 381.325C87.1297 380.132 90.1881 378.202 92.7147 375.677C97.2472 371.088 95.3693 365.397 90.7803 365.284C87.0526 365.2 85.2311 368.49 84.2145 372.344C83.7162 374.391 83.3437 376.465 83.099 378.557C82.1106 374.378 81.2634 370.142 80.5574 365.849C80.0773 363.223 79.7667 360.554 79.4419 357.9C83.0611 357.182 86.4699 355.652 89.4106 353.424C94.4938 349.47 93.3783 343.54 88.8317 342.876C85.1464 342.297 82.9154 345.333 81.4187 348.99C80.5424 351.297 79.8068 353.654 79.216 356.05C78.9336 352.972 78.6088 349.88 78.4676 346.787C78.044 340.403 78.044 333.997 78.4676 327.612C77.823 333.992 77.6013 340.407 77.804 346.815C77.804 349.767 78.0581 352.704 78.2417 355.655C77.435 353.648 76.4915 351.7 75.4177 349.823C73.4974 346.59 70.9275 344.175 67.3693 345.587C62.978 347.394 62.5967 353.466 68.1035 356.121C71.3334 357.604 74.8763 358.278 78.4253 358.083C78.6794 360.724 78.9053 363.35 79.3007 365.962C79.8514 370.198 80.5574 374.265 81.3905 378.374C80.4869 376.799 79.4823 375.285 78.3829 373.841C76.0531 370.89 73.2009 368.8 69.9109 370.707C65.802 373.065 66.1973 379.179 72.0007 381.056C75.2845 382.077 78.7626 382.309 82.1529 381.734C83.7639 389.097 85.8822 396.339 88.4928 403.408L89.3259 405.526C88.5788 404.537 87.7725 403.594 86.9114 402.702C84.2992 399.991 81.2634 398.198 78.1146 400.443C74.2599 403.267 75.2906 409.198 81.221 410.525C84.494 411.188 87.8752 411.091 91.105 410.243C91.4015 410.963 91.6981 411.655 92.0511 412.389C93.4631 415.297 94.7197 418.277 96.2023 421.129L97.4308 423.6C96.6965 422.965 95.934 422.357 95.1433 421.793C92.0652 419.632 88.7329 418.446 86.0783 421.228C82.8025 424.659 84.9205 430.364 91.0203 430.547C94.1959 430.621 97.3489 429.994 100.255 428.711C102.006 431.874 103.799 434.995 105.747 438.059C106.468 439.231 107.159 440.389 107.978 441.547C106.871 440.534 105.701 439.591 104.477 438.723C101.398 436.562 98.0662 435.376 95.3975 438.158C92.1358 441.589 94.2538 447.293 100.354 447.477C103.84 447.519 107.286 446.73 110.407 445.175C111.424 446.587 112.469 447.999 113.542 449.411C111.268 452.052 112.017 456.471 116.634 458.491C118.876 459.425 121.267 459.956 123.694 460.058C123.976 460.284 124.259 460.51 124.569 460.722L124.711 460.834C127.629 471.735 131.088 482.476 135.089 493.056C136.783 497.561 138.605 502.023 140.483 506.456H123.539V573.272H175.317V506.4H147.754C145.396 501.246 143.123 496.036 141.005 490.769C137.546 482.127 134.411 473.345 131.686 464.435C132.15 464.572 132.621 464.68 133.098 464.76C133.725 464.887 134.368 464.916 135.004 464.845L134.27 460.199H133.776C133.481 460.158 133.189 460.101 132.9 460.03C132.248 459.843 131.611 459.607 130.994 459.324L130.26 458.985C132.985 458.035 135.516 456.6 137.729 454.749C142.629 450.513 141.245 444.724 136.67 444.229C132.971 443.82 130.881 446.955 129.61 450.668C129.229 451.727 128.918 452.828 128.65 453.902C128.382 452.913 128.114 451.925 127.859 450.936C127.111 448.014 126.447 445.062 125.77 442.111C128.727 441.189 131.475 439.697 133.86 437.72C138.76 433.484 137.362 427.709 132.801 427.215C129.088 426.805 127.012 429.94 125.741 433.653C125.36 434.727 125.035 435.842 124.753 436.943C124.329 434.797 123.92 432.637 123.539 430.476C123.27 428.881 123.016 427.271 122.776 425.662C122.691 423.374 122.649 421.087 122.677 418.785C122.677 417.528 122.677 416.272 122.79 415.015C125.559 415.89 128.462 416.258 131.361 416.102C137.8 415.679 140.172 410.172 136.811 407.051C134.072 404.496 130.528 405.766 127.238 407.941C125.763 408.943 124.348 410.033 123.002 411.203C123.399 405.829 124.215 400.494 125.445 395.247C126.165 392.157 127.066 389.111 128.142 386.126C131.094 387.143 134.216 387.58 137.334 387.41C143.773 387.001 146.145 381.494 142.784 378.36C140.059 375.818 136.501 377.075 133.211 379.263C132.062 380.052 130.959 380.906 129.907 381.819C131.148 378.898 132.592 376.067 134.227 373.347C137.471 367.859 141.538 362.901 146.286 358.648C148.747 360.918 151.657 362.645 154.829 363.717C160.957 365.722 165.207 361.486 163.301 357.335C161.705 353.96 157.949 353.805 154.08 354.61C152.589 354.928 151.118 355.334 149.675 355.824L149.774 355.739C155.042 351.628 160.72 348.07 166.718 345.121C168.833 347.891 171.521 350.174 174.597 351.814C180.329 354.765 185.201 351.263 183.93 346.858C182.899 343.271 179.214 342.523 175.274 342.622C173.727 342.706 172.186 342.876 170.657 343.13C177.025 340.123 183.52 337.284 189.79 333.966H189.931C192.738 336.389 196.068 338.129 199.66 339.049C205.915 340.603 209.84 336.056 207.581 331.989C205.745 328.742 201.933 328.883 198.191 329.956C197.132 330.267 196.073 330.648 195.042 331.043C199.229 328.61 203.287 325.961 207.2 323.108L207.524 323.461V323.277C210.359 325.722 213.716 327.485 217.338 328.431C223.579 329.97 227.518 325.438 225.259 321.371C223.48 318.307 219.724 318.434 215.926 319.522ZM117.199 447.463C115.914 445.966 114.7 444.399 113.513 442.817C113.796 442.563 114.106 442.281 114.417 441.97C116.182 442.52 118.008 442.847 119.853 442.944V443.241L120.715 443.057C121.166 445.288 121.632 447.505 122.127 449.722C121.553 448.971 120.803 448.372 119.944 447.978C119.085 447.584 118.142 447.407 117.199 447.463ZM121.802 394.301C121.364 395.967 120.997 397.633 120.644 399.314L120.432 399.017C120.432 395.572 120.484 392.136 120.588 388.71C120.686 386.309 120.856 383.923 121.068 381.522C122.229 382.706 123.507 383.77 124.88 384.699C123.685 387.842 122.662 391.047 121.816 394.301H121.802ZM127.591 378.487C127.676 377.865 127.746 377.23 127.775 376.609V375.663C128.283 375.507 128.805 375.324 129.314 375.112C128.749 376.227 128.156 377.357 127.605 378.487H127.591ZM134.948 366.555C134.704 365.997 134.349 365.493 133.905 365.076C133.461 364.658 132.936 364.336 132.364 364.127C128.876 362.715 126.052 365.256 123.807 368.504L123.694 368.659H123.468C123.231 368.606 122.99 368.573 122.748 368.56C122.731 368.362 122.765 368.163 122.847 367.981C123.741 362.88 124.948 357.84 126.461 352.887C129.703 353.299 132.994 353.044 136.134 352.139C138.073 351.629 139.76 350.429 140.878 348.764C141.499 351.611 142.685 354.305 144.366 356.685C140.892 359.64 137.74 362.953 134.962 366.569L134.948 366.555Z" fill="#FFB700"/>
<path opacity="0.3" d="M215.926 319.522C213.232 320.4 210.588 321.423 208.004 322.586C209.416 321.555 210.828 320.482 212.24 319.394C218.527 314.338 224.51 308.916 230.159 303.156C223.53 309.595 216.453 315.555 208.979 320.99C210.009 319.2 210.915 317.341 211.69 315.427C213.102 311.911 213.356 308.367 210.01 306.489C205.872 304.173 200.874 307.632 202.187 313.549C202.989 316.852 204.55 319.922 206.748 322.515C201.87 325.891 196.776 328.943 191.498 331.651L191.004 331.905C192.12 329.972 193.106 327.967 193.955 325.904C195.282 322.402 195.621 318.844 192.261 316.98C188.124 314.65 183.125 318.124 184.452 324.04C185.24 327.299 186.767 330.333 188.914 332.907C182.574 336.028 176.023 338.682 169.499 341.563L168.553 341.986C169.826 340.619 171.01 339.171 172.097 337.652C174.215 334.545 175.359 331.185 172.535 328.572C169.062 325.353 163.371 327.556 163.286 333.656C163.29 337.022 164.073 340.342 165.574 343.356C159.469 346.208 153.67 349.671 148.263 353.692L148.093 353.833C148.825 352.674 149.494 351.477 150.098 350.247C151.694 346.844 152.287 343.342 149.068 341.21C148.413 340.76 147.666 340.464 146.881 340.345C146.096 340.226 145.294 340.286 144.536 340.521C143.778 340.756 143.082 341.16 142.503 341.702C141.923 342.245 141.474 342.912 141.189 343.653C140.764 342.99 140.188 342.439 139.508 342.043C136.275 340.179 133.098 342.198 130.373 345.05C129.667 345.799 128.961 346.604 128.354 347.394C130.456 341.56 133.098 335.935 136.247 330.592C139.245 331.901 142.478 332.588 145.749 332.611C152.188 332.611 154.899 327.245 151.736 323.913C149.166 321.216 145.552 322.247 142.135 324.223C141.01 324.88 139.921 325.596 138.873 326.37C142.146 321.44 145.861 316.818 149.971 312.56C152.665 314.739 155.795 316.314 159.149 317.178C165.404 318.717 169.33 314.184 167.071 310.188C165.235 306.941 161.423 307.068 157.681 308.155C155.89 308.691 154.135 309.342 152.428 310.103C154.137 308.437 155.902 306.842 157.695 305.26C160.039 303.255 162.467 301.321 164.938 299.429C167.595 301.549 170.67 303.084 173.961 303.933C180.216 305.472 184.142 300.94 181.882 296.944C180.047 293.696 176.234 293.823 172.479 294.91C171.603 295.165 170.714 295.475 169.852 295.8C173.114 293.47 176.418 291.197 179.736 288.938L182.8 286.834C185.561 289.146 188.803 290.815 192.289 291.719C198.544 293.258 202.484 288.726 200.224 284.73C198.375 281.482 194.576 281.609 190.82 282.697C189.343 283.148 187.888 283.671 186.457 284.264L188.349 282.852C189.507 282.019 190.665 281.172 191.795 280.282C193.207 279.223 194.548 278.051 195.918 276.921C196.708 276.3 197.457 275.637 198.205 274.959C200.977 277.296 204.239 278.98 207.75 279.887C214.005 281.426 217.931 276.893 215.672 272.897C213.836 269.65 210.024 269.777 206.282 270.864C204.183 271.512 202.127 272.29 200.126 273.194C202.681 270.822 205.152 268.351 207.496 265.781C207.651 265.597 207.793 265.414 207.962 265.244C208.965 264.129 209.953 262.999 210.913 261.827C211.873 260.655 213.116 259.116 214.161 257.704C218.452 252.072 221.984 245.901 224.666 239.348C221.855 245.823 218.204 251.899 213.808 257.422C209.46 262.967 204.605 268.096 199.307 272.742L198.728 273.236C199.931 271.186 200.997 269.059 201.919 266.868C203.26 263.366 203.585 259.808 200.224 257.944C196.101 255.614 191.089 259.088 192.416 265.004C193.269 268.507 194.971 271.747 197.372 274.436L196.13 275.509L194.718 276.724C193.899 277.387 193.051 278.023 192.204 278.658C191.752 278.997 191.315 279.35 190.792 279.689C189.592 280.579 188.378 281.44 187.149 282.287L185.384 283.487L183.379 284.899C184.551 282.899 185.58 280.818 186.457 278.672C187.799 275.156 188.124 271.612 184.777 269.749C180.64 267.419 175.627 270.892 176.955 276.809C177.773 280.207 179.395 283.359 181.685 286.001L180.273 286.961L174.78 290.561L173.693 291.267L170.629 293.315L169.302 294.204C167.89 295.179 166.478 296.167 165.066 297.184C166.2 295.152 167.191 293.043 168.031 290.872C169.443 287.37 169.697 283.812 166.35 281.948C162.213 279.618 157.215 283.092 158.542 289.008C159.372 292.452 161.029 295.641 163.371 298.299C160.971 300.064 158.599 301.872 156.311 303.764C154.631 305.176 152.979 306.588 151.355 308.113C152.062 306.804 152.694 305.455 153.247 304.074C154.574 300.558 154.913 297.014 151.553 295.15C147.416 292.821 142.417 296.294 143.744 302.21C144.532 305.469 146.059 308.503 148.206 311.078C143.633 315.622 139.514 320.602 135.908 325.946C136.317 324.405 136.628 322.839 136.84 321.258C137.292 317.531 136.755 314.029 133.041 313.012C128.467 311.756 124.456 316.33 127.182 321.781C128.749 324.781 130.992 327.377 133.733 329.363C130.176 335.173 127.206 341.322 124.866 347.719C124.805 346.381 124.673 345.047 124.471 343.723C123.835 340.01 122.338 336.804 118.484 336.875C113.739 336.974 111.184 342.523 115.349 346.957C117.57 349.273 120.282 351.063 123.284 352.195C121.679 357.134 120.373 362.165 119.373 367.261C119.204 368.066 119.077 368.871 118.921 369.676C118.752 369.831 118.583 369.986 118.427 370.156C118.258 369.464 118.06 368.744 117.834 368.08C116.648 364.522 114.671 361.571 110.873 362.249C106.213 363.068 104.533 368.913 109.334 372.683C111.774 374.546 114.586 375.86 117.58 376.538C117.58 376.679 117.693 376.806 117.764 376.948C117.241 380.774 116.846 384.629 116.606 388.498C116.422 391.322 116.323 394.273 116.267 397.167C112.229 397.167 109.376 401.601 112.158 406.402C113.332 408.392 114.836 410.169 116.606 411.655C116.945 417.091 117.481 422.527 118.201 427.921C117.63 427.393 116.932 427.022 116.174 426.847C115.416 426.671 114.626 426.696 113.881 426.918C111.339 427.61 110.195 429.658 109.786 432.171C108.881 433.107 108.375 434.357 108.374 435.659C106.482 432.835 104.688 430.011 102.952 427.031C105.603 424.999 107.801 422.436 109.405 419.505C112.44 413.857 109.009 408.901 104.59 410.101C100.975 411.09 100.184 414.761 100.354 418.7C100.41 420.195 100.552 421.684 100.777 423.162L98.9134 419.886C97.3602 417.062 96.0894 414.238 94.5644 411.414C94.1973 410.723 93.8725 410.002 93.576 409.296C96.5508 407.798 99.1811 405.696 101.3 403.126C105.352 398.128 102.909 392.635 98.3345 392.988C94.6068 393.284 93.1242 396.744 92.5029 400.641C92.2608 402.34 92.1099 404.051 92.0511 405.766L90.7238 402.702C87.8969 395.752 85.5705 388.607 83.7626 381.325C87.1297 380.132 90.1881 378.202 92.7147 375.677C97.2472 371.088 95.3693 365.397 90.7803 365.284C87.0526 365.2 85.2311 368.49 84.2145 372.344C83.7162 374.391 83.3437 376.465 83.099 378.557C82.1106 374.378 81.2634 370.142 80.5574 365.849C80.0773 363.223 79.7667 360.554 79.4419 357.9C83.0611 357.182 86.4699 355.652 89.4106 353.424C94.4938 349.47 93.3783 343.54 88.8317 342.876C85.1464 342.297 82.9154 345.333 81.4187 348.99C80.5424 351.297 79.8068 353.654 79.216 356.05C78.9336 352.972 78.6088 349.88 78.4676 346.787C78.044 340.403 78.044 333.997 78.4676 327.612C77.823 333.992 77.6013 340.407 77.804 346.815C77.804 349.767 78.0581 352.704 78.2417 355.655C77.435 353.648 76.4915 351.7 75.4177 349.823C73.4974 346.59 70.9275 344.175 67.3693 345.587C62.978 347.394 62.5967 353.466 68.1035 356.121C71.3334 357.604 74.8763 358.278 78.4253 358.083C78.6794 360.724 78.9053 363.35 79.3007 365.962C79.8514 370.198 80.5574 374.265 81.3905 378.374C80.4869 376.799 79.4823 375.285 78.3829 373.841C76.0531 370.89 73.2009 368.8 69.9109 370.707C65.802 373.065 66.1973 379.179 72.0007 381.056C75.2845 382.077 78.7626 382.309 82.1529 381.734C83.7639 389.097 85.8822 396.339 88.4928 403.408L89.3259 405.526C88.5788 404.537 87.7725 403.594 86.9114 402.702C84.2992 399.991 81.2634 398.198 78.1146 400.443C74.2599 403.267 75.2906 409.198 81.221 410.525C84.494 411.188 87.8752 411.091 91.105 410.243C91.4015 410.963 91.6981 411.655 92.0511 412.389C93.4631 415.297 94.7197 418.277 96.2023 421.129L97.4308 423.6C96.6965 422.965 95.934 422.357 95.1433 421.793C92.0652 419.632 88.7329 418.446 86.0783 421.228C82.8025 424.659 84.9205 430.364 91.0203 430.547C94.1959 430.621 97.3489 429.994 100.255 428.711C102.006 431.874 103.799 434.995 105.747 438.059C106.468 439.231 107.159 440.389 107.978 441.547C106.871 440.534 105.701 439.591 104.477 438.723C101.398 436.562 98.0662 435.376 95.3975 438.158C92.1358 441.589 94.2538 447.293 100.354 447.477C103.84 447.519 107.286 446.73 110.407 445.175C111.424 446.587 112.469 447.999 113.542 449.411C111.268 452.052 112.017 456.471 116.634 458.491C118.876 459.425 121.267 459.956 123.694 460.058C123.976 460.284 124.259 460.51 124.569 460.722L124.711 460.834C127.629 471.735 131.088 482.476 135.089 493.056C136.783 497.561 138.605 502.023 140.483 506.456H123.539V573.272H175.317V506.4H147.754C145.396 501.246 143.123 496.036 141.005 490.769C137.546 482.127 134.411 473.345 131.686 464.435C132.15 464.572 132.621 464.68 133.098 464.76C133.725 464.887 134.368 464.916 135.004 464.845L134.27 460.199H133.776C133.481 460.158 133.189 460.101 132.9 460.03C132.248 459.843 131.611 459.607 130.994 459.324L130.26 458.985C132.985 458.035 135.516 456.6 137.729 454.749C142.629 450.513 141.245 444.724 136.67 444.229C132.971 443.82 130.881 446.955 129.61 450.668C129.229 451.727 128.918 452.828 128.65 453.902C128.382 452.913 128.114 451.925 127.859 450.936C127.111 448.014 126.447 445.062 125.77 442.111C128.727 441.189 131.475 439.697 133.86 437.72C138.76 433.484 137.362 427.709 132.801 427.215C129.088 426.805 127.012 429.94 125.741 433.653C125.36 434.727 125.035 435.842 124.753 436.943C124.329 434.797 123.92 432.637 123.539 430.476C123.27 428.881 123.016 427.271 122.776 425.662C122.691 423.374 122.649 421.087 122.677 418.785C122.677 417.528 122.677 416.272 122.79 415.015C125.559 415.89 128.462 416.258 131.361 416.102C137.8 415.679 140.172 410.172 136.811 407.051C134.072 404.496 130.528 405.766 127.238 407.941C125.763 408.943 124.348 410.033 123.002 411.203C123.399 405.829 124.215 400.494 125.445 395.247C126.165 392.157 127.066 389.111 128.142 386.126C131.094 387.143 134.216 387.58 137.334 387.41C143.773 387.001 146.145 381.494 142.784 378.36C140.059 375.818 136.501 377.075 133.211 379.263C132.062 380.052 130.959 380.906 129.907 381.819C131.148 378.898 132.592 376.067 134.227 373.347C137.471 367.859 141.538 362.901 146.286 358.648C148.747 360.918 151.657 362.645 154.829 363.717C160.957 365.722 165.207 361.486 163.301 357.335C161.705 353.96 157.949 353.805 154.08 354.61C152.589 354.928 151.118 355.334 149.675 355.824L149.774 355.739C155.042 351.628 160.72 348.07 166.718 345.121C168.833 347.891 171.521 350.174 174.597 351.814C180.329 354.765 185.201 351.263 183.93 346.858C182.899 343.271 179.214 342.523 175.274 342.622C173.727 342.706 172.186 342.876 170.657 343.13C177.025 340.123 183.52 337.284 189.79 333.966H189.931C192.738 336.389 196.068 338.129 199.66 339.049C205.915 340.603 209.84 336.056 207.581 331.989C205.745 328.742 201.933 328.883 198.191 329.956C197.132 330.267 196.073 330.648 195.042 331.043C199.229 328.61 203.287 325.961 207.2 323.108L207.524 323.461V323.277C210.359 325.722 213.716 327.485 217.338 328.431C223.579 329.97 227.518 325.438 225.259 321.371C223.48 318.307 219.724 318.434 215.926 319.522ZM117.199 447.463C115.914 445.966 114.7 444.399 113.513 442.817C113.796 442.563 114.106 442.281 114.417 441.97C116.182 442.52 118.008 442.847 119.853 442.944V443.241L120.715 443.057C121.166 445.288 121.632 447.505 122.127 449.722C121.553 448.971 120.803 448.372 119.944 447.978C119.085 447.584 118.142 447.407 117.199 447.463ZM121.802 394.301C121.364 395.967 120.997 397.633 120.644 399.314L120.432 399.017C120.432 395.572 120.484 392.136 120.588 388.71C120.686 386.309 120.856 383.923 121.068 381.522C122.229 382.706 123.507 383.77 124.88 384.699C123.685 387.842 122.662 391.047 121.816 394.301H121.802ZM127.591 378.487C127.676 377.865 127.746 377.23 127.775 376.609V375.663C128.283 375.507 128.805 375.324 129.314 375.112C128.749 376.227 128.156 377.357 127.605 378.487H127.591ZM134.948 366.555C134.704 365.997 134.349 365.493 133.905 365.076C133.461 364.658 132.936 364.336 132.364 364.127C128.876 362.715 126.052 365.256 123.807 368.504L123.694 368.659H123.468C123.231 368.606 122.99 368.573 122.748 368.56C122.731 368.362 122.765 368.163 122.847 367.981C123.741 362.88 124.948 357.84 126.461 352.887C129.703 353.299 132.994 353.044 136.134 352.139C138.073 351.629 139.76 350.429 140.878 348.764C141.499 351.611 142.685 354.305 144.366 356.685C140.892 359.64 137.74 362.953 134.962 366.569L134.948 366.555Z" fill="white"/>
<path d="M564.082 511.666C564.082 511.666 557.248 496.403 555.61 494.835C553.972 493.268 540.883 488.524 537.254 476.479C533.625 464.435 526.735 432.284 544.102 434.388C561.47 436.491 557.248 470.168 563.56 469.109C569.871 468.05 558.307 414.408 569.349 406.981C580.391 399.554 598.281 406.458 596.177 434.868C594.073 463.277 589.865 479.572 593.551 478.004C597.236 476.437 607.755 470.634 607.755 482.734C607.755 494.835 597.758 503.251 591.969 503.773C586.18 504.296 583.497 504.832 583.497 504.832V512.711L564.082 511.666Z" fill="#2E353A" stroke="#2E353A" stroke-linecap="round" stroke-linejoin="round"/>
<path d="M558.519 482.085C554.552 478.329 550.909 474.686 549.229 471.34C545.896 464.661 543.383 445.924 543.383 445.924" stroke="white" stroke-width="0.5" stroke-linecap="round" stroke-linejoin="round"/>
<path d="M537.469 455.074C540.095 466.017 540.462 474.263 548.398 483.864C552.634 489.061 563.845 493.466 565.102 498.055C566.226 503.577 567.069 509.152 567.629 514.759L573.898 515.183C573.898 515.183 575.169 504.31 571.583 496.558" stroke="white" stroke-width="0.5" stroke-linecap="round" stroke-linejoin="round"/>
<path d="M539.216 437.522C539.216 437.522 534.528 441.123 536.194 449.99" stroke="white" stroke-width="0.5" stroke-linecap="round" stroke-linejoin="round"/>
<path d="M569.251 469.815L566.766 473.839" stroke="white" stroke-width="0.5" stroke-linecap="round" stroke-linejoin="round"/>
<path d="M570.111 468.417L569.25 469.815" stroke="white" stroke-width="0.5" stroke-linecap="round" stroke-linejoin="round"/>
<path d="M578.453 408.294C578.453 408.294 568.852 407.884 568.852 417.062C568.852 424.814 571.224 451.275 570.715 463.376" stroke="white" stroke-width="0.5" stroke-linecap="round" stroke-linejoin="round"/>
<path d="M585.986 483.483C585.76 486.632 585.619 488.863 585.619 489.71C585.619 494.299 597.296 476.762 602.732 476.352C602.732 476.352 608.154 475.929 606.064 485.954C605.304 489.675 603.543 493.119 600.97 495.913C598.397 498.707 595.111 500.746 591.464 501.811C586.861 503.067 583.105 500.977 582.272 503.067C581.607 505.524 581.186 508.04 581.016 510.579" stroke="white" stroke-width="0.5" stroke-linecap="round" stroke-linejoin="round"/>
<path d="M588.707 417.006C589.433 420.034 589.774 423.141 589.724 426.254C589.724 436.026 587.86 459.069 586.617 474.63" stroke="white" stroke-width="0.5" stroke-linecap="round" stroke-linejoin="round"/>
<path d="M583.875 409.141C585.129 409.86 586.145 410.93 586.798 412.219" stroke="white" stroke-width="0.5" stroke-linecap="round" stroke-linejoin="round"/>
<path d="M577.086 480.941L576.789 486.787" stroke="white" stroke-width="0.5" stroke-linecap="round" stroke-linejoin="round"/>
<path d="M579.288 414.14C579.288 414.14 576.789 414.973 577.622 423.741C578.313 430.985 577.622 463.87 577.297 475.096" stroke="white" stroke-width="0.5" stroke-linecap="round" stroke-linejoin="round"/>
<path d="M605.598 478.852C602.018 485.553 596.282 490.851 589.318 493.889C578.022 498.478 577.627 496.389 577.627 500.949C577.627 505.51 577.203 513.897 577.203 513.897" stroke="white" stroke-width="0.5" stroke-linecap="round" stroke-linejoin="round"/>
<path d="M589.935 573.23H553.449L545.641 520.378H597.743L589.935 573.23Z" fill="#FFB700" stroke="#2E353A" stroke-linecap="round" stroke-linejoin="round"/>
<path d="M602.219 512.048H541.164V526.196H602.219V512.048Z" fill="#FFB700" stroke="#2E353A" stroke-linecap="round" stroke-linejoin="round"/>
<path d="M389.604 537.647V508.956H305.109V537.647C305.096 546.993 301.932 556.062 296.129 563.388L292.43 568.048H402.283L398.584 563.388C392.781 556.062 389.617 546.993 389.604 537.647Z" fill="white" stroke="#2E353A" stroke-linecap="round" stroke-linejoin="round"/>
<path d="M299.914 557.74H394.8C391.394 551.591 389.606 544.677 389.604 537.647V508.956H305.11V537.647C305.109 544.677 303.321 551.591 299.914 557.74Z" fill="#FFB700"/>
<path d="M505.173 263.296H189.521C182.908 263.296 177.547 268.657 177.547 275.27V506.033C177.547 512.646 182.908 518.007 189.521 518.007H505.173C511.786 518.007 517.147 512.646 517.147 506.033V275.27C517.147 268.657 511.786 263.296 505.173 263.296Z" fill="#2E353A" stroke="#2E353A" stroke-linecap="round" stroke-linejoin="round"/>
<path d="M177.547 478.414H517.161V506.019C517.161 509.194 515.9 512.24 513.654 514.485C511.409 516.731 508.363 517.992 505.187 517.992H189.535C186.359 517.992 183.314 516.731 181.068 514.485C178.823 512.24 177.561 509.194 177.561 506.019V478.414H177.547Z" fill="white" stroke="#2E353A" stroke-linecap="round" stroke-linejoin="round"/>
<path d="M500.077 279.153H194.633V459.098H500.077V279.153Z" fill="white" stroke="#2E353A" stroke-linecap="round" stroke-linejoin="round"/>
<path d="M353.625 498.21C353.625 496.97 353.257 495.758 352.568 494.727C351.879 493.696 350.9 492.893 349.754 492.418C348.609 491.944 347.348 491.819 346.132 492.061C344.916 492.303 343.799 492.9 342.922 493.777C342.045 494.654 341.448 495.771 341.206 496.987C340.964 498.203 341.089 499.464 341.563 500.609C342.038 501.755 342.841 502.734 343.872 503.423C344.903 504.112 346.115 504.479 347.355 504.479C349.018 504.479 350.613 503.819 351.788 502.643C352.964 501.468 353.625 499.873 353.625 498.21Z" fill="#2E353A" stroke="#2E353A" stroke-linecap="round" stroke-linejoin="round"/>
<path d="M402.297 568.104H292.43V573.23H402.297V568.104Z" fill="white" stroke="#2E353A" stroke-linecap="round" stroke-linejoin="round"/>
<path d="M497.208 291.833H197.031V307.605H497.208V291.833Z" fill="white" stroke="#2E353A" stroke-linecap="round" stroke-linejoin="round"/>
<path d="M246.564 307.605L242.964 297.862H197.031V307.605V320.524V451.431H497.208V307.605H246.564Z" fill="#FFB700" stroke="#2E353A" stroke-linecap="round" stroke-linejoin="round"/>
<path d="M277.828 378.924H418.576" stroke="#2E353A" stroke-width="2" stroke-linecap="round" stroke-linejoin="round"/>
<path d="M277.828 392.762H418.576" stroke="#2E353A" stroke-width="2" stroke-linecap="round" stroke-linejoin="round"/>
<path d="M277.828 406.6H418.576" stroke="#2E353A" stroke-width="2" stroke-linecap="round" stroke-linejoin="round"/>
<path d="M277.828 420.452H418.576" stroke="#2E353A" stroke-width="2" stroke-linecap="round" stroke-linejoin="round"/>
<path d="M411.135 342.029H283.589C282.276 342.031 280.976 341.774 279.762 341.274C278.549 340.773 277.446 340.038 276.516 339.111C275.587 338.184 274.849 337.083 274.345 335.871C273.84 334.659 273.58 333.359 273.578 332.046C273.576 330.733 273.833 329.433 274.334 328.219C274.834 327.006 275.569 325.903 276.496 324.973C277.423 324.044 278.524 323.306 279.736 322.802C280.949 322.297 282.248 322.037 283.561 322.035H411.135C412.45 322.033 413.753 322.291 414.968 322.793C416.184 323.296 417.288 324.033 418.218 324.963C419.148 325.893 419.886 326.998 420.388 328.213C420.89 329.428 421.148 330.731 421.146 332.046C421.144 333.359 420.884 334.659 420.38 335.871C419.876 337.083 419.138 338.184 418.208 339.111C417.279 340.038 416.176 340.773 414.962 341.274C413.748 341.774 412.448 342.031 411.135 342.029Z" fill="white" stroke="#2E353A" stroke-linecap="round" stroke-linejoin="round"/>
<path d="M411.135 342.029H393.711V322.007H411.135C412.45 322.005 413.753 322.263 414.968 322.765C416.184 323.268 417.288 324.005 418.218 324.935C419.148 325.865 419.885 326.969 420.388 328.185C420.89 329.4 421.148 330.703 421.146 332.018C421.148 333.333 420.89 334.636 420.388 335.851C419.885 337.067 419.148 338.171 418.218 339.101C417.288 340.031 416.184 340.768 414.968 341.271C413.753 341.773 412.45 342.031 411.135 342.029Z" fill="#2E353A" stroke="#2E353A" stroke-linecap="round" stroke-linejoin="round"/>
<path d="M407.254 324.549C406.425 323.771 405.383 323.258 404.261 323.072C403.14 322.887 401.988 323.039 400.953 323.508C399.917 323.977 399.044 324.743 398.444 325.709C397.844 326.674 397.544 327.796 397.581 328.932C397.619 330.068 397.993 331.168 398.655 332.092C399.318 333.016 400.239 333.722 401.304 334.122C402.368 334.522 403.527 334.597 404.634 334.338C405.741 334.079 406.746 333.498 407.522 332.668C408.04 332.12 408.444 331.475 408.711 330.771C408.978 330.066 409.104 329.316 409.08 328.562C409.057 327.809 408.884 327.068 408.573 326.382C408.262 325.695 407.819 325.077 407.268 324.563L407.254 324.549ZM406.689 331.891C406.066 332.553 405.26 333.015 404.374 333.22C403.488 333.424 402.561 333.362 401.711 333.04C400.86 332.719 400.124 332.152 399.595 331.412C399.066 330.673 398.768 329.793 398.738 328.884C398.709 327.975 398.949 327.078 399.429 326.305C399.909 325.533 400.607 324.92 401.435 324.544C402.263 324.168 403.183 324.045 404.081 324.192C404.978 324.338 405.812 324.748 406.478 325.368C407.37 326.205 407.894 327.362 407.934 328.586C407.973 329.809 407.526 330.998 406.689 331.891Z" fill="white"/>
<path d="M411.572 334.757C411.446 334.634 411.287 334.55 411.114 334.515C410.941 334.48 410.762 334.496 410.598 334.56L408.522 332.611C408.417 332.508 408.275 332.45 408.127 332.45C407.979 332.45 407.837 332.508 407.732 332.611L407.548 332.809C407.447 332.918 407.391 333.062 407.391 333.211C407.391 333.36 407.447 333.504 407.548 333.614L409.595 335.534C409.535 335.709 409.525 335.897 409.568 336.077C409.61 336.257 409.703 336.421 409.836 336.551L413.366 340.01C413.598 340.241 413.913 340.371 414.241 340.371C414.569 340.371 414.884 340.241 415.116 340.01C415.347 339.777 415.477 339.463 415.477 339.135C415.477 338.807 415.347 338.492 415.116 338.259L411.572 334.757Z" fill="white"/>
<path d="M448.026 402.42C448.438 403.443 449.052 404.373 449.831 405.154C450.609 405.935 451.537 406.551 452.559 406.967C454.154 407.616 456.286 407.475 458.743 408.859C464.292 411.979 478.144 409.198 488.183 410.271C498.223 411.344 511.75 400.232 511.75 400.232L551.582 402.42V362.884C551.582 362.884 510.013 364.621 501.004 361.147C491.996 357.674 481.956 350.416 477.452 350.755C472.948 351.094 435.883 355.259 435.883 355.259L448.012 402.42H448.026Z" fill="white" stroke="#2E353A" stroke-linecap="round" stroke-linejoin="round"/>
<path d="M437.719 243.005C429.494 243.916 421.725 247.245 415.392 252.571C409.059 257.897 404.448 264.982 402.142 272.928C399.836 280.875 399.938 289.327 402.435 297.216C404.933 305.105 409.713 312.076 416.173 317.248C422.632 322.42 430.48 325.56 438.724 326.272C446.968 326.983 455.238 325.234 462.488 321.246C469.738 317.257 475.643 311.208 479.455 303.864C483.267 296.52 484.816 288.21 483.905 279.986C483.305 274.523 481.633 269.233 478.986 264.418C476.338 259.602 472.768 255.356 468.478 251.921C464.189 248.486 459.264 245.931 453.986 244.401C448.708 242.872 443.18 242.397 437.719 243.005ZM446.022 317.954C439.424 318.687 432.757 317.447 426.864 314.392C420.971 311.336 416.117 306.601 412.915 300.786C409.713 294.971 408.307 288.337 408.876 281.724C409.444 275.11 411.96 268.813 416.107 263.63C420.254 258.446 425.845 254.609 432.172 252.603C438.5 250.596 445.281 250.512 451.657 252.359C458.032 254.207 463.717 257.903 467.992 262.982C472.267 268.06 474.94 274.292 475.674 280.889C476.16 285.27 475.78 289.704 474.553 293.937C473.326 298.171 471.278 302.121 468.524 305.563C465.771 309.005 462.366 311.871 458.505 313.997C454.644 316.123 450.402 317.468 446.022 317.954Z" fill="white" stroke="#2E353A" stroke-linecap="round" stroke-linejoin="round"/>
<path d="M437.492 240.619C429.268 241.53 421.498 244.859 415.166 250.185C408.833 255.511 404.222 262.595 401.916 270.542C399.609 278.489 399.711 286.941 402.209 294.83C404.706 302.719 409.487 309.69 415.946 314.862C422.406 320.034 430.254 323.174 438.498 323.886C446.742 324.597 455.011 322.848 462.262 318.86C469.512 314.871 475.416 308.822 479.228 301.478C483.041 294.134 484.589 285.824 483.679 277.6C482.454 266.573 476.902 256.483 468.241 249.549C459.58 242.614 448.52 239.402 437.492 240.619ZM445.795 315.568C439.197 316.301 432.531 315.061 426.638 312.005C420.745 308.949 415.891 304.215 412.689 298.4C409.487 292.585 408.081 285.951 408.649 279.338C409.217 272.724 411.734 266.427 415.881 261.244C420.027 256.06 425.618 252.223 431.946 250.216C438.274 248.21 445.054 248.126 451.43 249.973C457.806 251.821 463.491 255.517 467.766 260.596C472.041 265.674 474.714 271.906 475.447 278.503C475.934 282.884 475.553 287.318 474.326 291.551C473.1 295.785 471.051 299.735 468.298 303.177C465.544 306.619 462.14 309.485 458.279 311.611C454.418 313.737 450.176 315.082 445.795 315.568Z" fill="white" stroke="#2E353A" stroke-linecap="round" stroke-linejoin="round"/>
<path d="M448.083 324.563L446.104 324.782C443.872 325.029 442.263 327.039 442.51 329.271L445.721 358.266C445.969 360.498 447.979 362.107 450.211 361.86L452.19 361.641C454.422 361.394 456.031 359.384 455.784 357.151L452.573 328.157C452.325 325.925 450.315 324.315 448.083 324.563Z" fill="#FFB700" stroke="#2E353A" stroke-linecap="round" stroke-linejoin="round"/>
<path d="M447.435 348.764L451.671 348.312C453.493 348.118 455.318 348.649 456.751 349.791C458.183 350.932 459.108 352.593 459.324 354.412L465.664 411.754C465.922 414.098 465.238 416.448 463.763 418.288C462.289 420.129 460.143 421.308 457.799 421.567H457.517C456.356 421.696 455.181 421.596 454.059 421.27C452.937 420.945 451.89 420.401 450.979 419.671C450.067 418.94 449.309 418.037 448.747 417.013C448.185 415.989 447.83 414.864 447.704 413.702L441.364 356.375C441.262 355.467 441.34 354.548 441.593 353.67C441.847 352.793 442.271 351.974 442.842 351.26C443.412 350.547 444.118 349.953 444.918 349.512C445.719 349.072 446.598 348.794 447.506 348.694L447.435 348.764Z" fill="#2E353A" stroke="#2E353A" stroke-linecap="round" stroke-linejoin="round"/>
<path d="M453.592 396.546C453.592 396.546 443.553 396.913 442.141 398.65C440.729 400.387 440.983 406.43 443.708 407.122C450.655 408.944 465.425 407.885 466.004 406.642C466.583 405.4 467.769 398.17 464.719 397.394C461.037 396.829 457.317 396.546 453.592 396.546Z" fill="white" stroke="#2E353A" stroke-linecap="round" stroke-linejoin="round"/>
<path d="M450.695 382.539C450.695 382.539 439.018 382.102 437.196 384.205C435.375 386.309 435.022 394.174 438.1 395.36C445.95 398.368 463.615 397.196 464.419 395.643C465.224 394.089 466.975 386.027 463.516 384.728C460.056 383.429 450.695 382.539 450.695 382.539Z" fill="white" stroke="#2E353A" stroke-linecap="round" stroke-linejoin="round"/>
<path d="M449.015 366.725C449.015 366.725 436.533 366.245 434.584 368.504C432.636 370.763 432.254 379.15 435.544 380.421C444.016 383.641 462.372 383.641 463.234 381.974C464.095 380.308 466.411 370.453 462.711 369.055C459.012 367.657 449.015 366.725 449.015 366.725Z" fill="white" stroke="#2E353A" stroke-linecap="round" stroke-linejoin="round"/>
<path d="M441.818 351.927C441.818 351.927 429.336 351.461 427.388 353.706C425.439 355.951 424.973 364.607 428.348 365.624C431.722 366.64 455.176 368.843 456.037 367.191C456.898 365.539 459.214 355.655 455.515 354.257C451.815 352.859 441.818 351.927 441.818 351.927Z" fill="white" stroke="#2E353A" stroke-linecap="round" stroke-linejoin="round"/>
<path d="M482.697 393.454C480.456 392.838 478.333 391.855 476.413 390.545C466.374 383.612 466.713 367.685 466.713 367.685L464.298 366.993C462.304 366.234 460.434 365.182 458.749 363.872C459.558 367.163 460.031 370.526 460.161 373.912C460.125 375.772 459.398 377.553 458.122 378.907C456.846 380.262 455.112 381.093 453.257 381.24C450.136 381.593 448.752 381.932 447.707 377.781C446.663 373.629 441.481 356.996 441.128 354.567C440.817 352.365 444.516 348.439 450.404 347.507C459.455 348.242 468.379 350.769 477.501 350.769C480.674 351.067 483.716 352.186 486.326 354.017" fill="white"/>
<path d="M482.697 393.454C480.456 392.838 478.333 391.855 476.413 390.545C466.374 383.612 466.713 367.685 466.713 367.685L464.298 366.993C462.304 366.234 460.434 365.182 458.749 363.872C459.558 367.163 460.031 370.526 460.161 373.912C460.125 375.772 459.398 377.553 458.122 378.907C456.846 380.262 455.112 381.093 453.257 381.24C450.136 381.593 448.752 381.932 447.707 377.781C446.663 373.629 441.481 356.996 441.128 354.567C440.817 352.365 444.516 348.439 450.404 347.507C459.455 348.242 468.379 350.769 477.501 350.769C480.674 351.067 483.716 352.186 486.326 354.017" stroke="#2E353A" stroke-linecap="round" stroke-linejoin="round"/>
<path d="M492.242 394.33C491.141 394.386 490.038 394.386 488.938 394.33H492.242Z" fill="white"/>
<path d="M492.242 394.33C491.141 394.386 490.038 394.386 488.938 394.33" stroke="#2E353A" stroke-linecap="round" stroke-linejoin="round"/>
<path d="M499.627 392.96C497.229 393.719 494.751 394.193 492.242 394.372L499.627 392.96Z" fill="white"/>
<path d="M499.627 392.96C497.229 393.719 494.751 394.193 492.242 394.372" stroke="#2E353A" stroke-linecap="round" stroke-linejoin="round"/>
<path d="M512.094 388.47H524.562" stroke="#2E353A" stroke-linecap="round" stroke-linejoin="round"/>
<path d="M513.141 391.929H518.337" stroke="#2E353A" stroke-linecap="round" stroke-linejoin="round"/>
<path d="M466.711 367.685C466.711 367.685 473.601 367.685 478.12 363.576" stroke="#2E353A" stroke-linecap="round" stroke-linejoin="round"/>
<path d="M458.594 363.421C458.395 361.54 458.003 359.685 457.422 357.886" stroke="#2E353A" stroke-linecap="round" stroke-linejoin="round"/>
<path d="M447.61 375.959C447.61 375.959 446.297 372.316 447.892 371.003C449.488 369.69 453.724 367.798 454.458 369.252C455.192 370.707 456.788 377.414 456.35 378.727L455.912 380.04" stroke="#2E353A" stroke-width="0.5" stroke-linecap="round" stroke-linejoin="round"/>
<path d="M639.002 420.141H519.617V361.458H639.002" fill="#FFB700"/>
<path d="M639.002 420.141H519.617V361.458H639.002" stroke="#2E353A" stroke-linecap="round" stroke-linejoin="round"/>
<path d="M528.37 416.215C529.852 416.215 531.053 415.014 531.053 413.532C531.053 412.051 529.852 410.85 528.37 410.85C526.889 410.85 525.688 412.051 525.688 413.532C525.688 415.014 526.889 416.215 528.37 416.215Z" fill="white" stroke="#2E353A" stroke-linecap="round" stroke-linejoin="round"/>
<path d="M338.641 305.571C339.664 305.159 340.593 304.545 341.374 303.766C342.155 302.988 342.772 302.06 343.187 301.039C343.837 299.443 343.682 297.325 345.079 294.854C348.186 289.319 345.418 275.467 346.491 265.414C347.565 255.361 336.438 241.862 336.438 241.862L338.598 202.029H299.062C299.062 202.029 300.785 243.599 297.326 252.593C293.866 261.587 286.594 271.655 286.933 276.159C287.272 280.664 291.466 317.7 291.466 317.7L338.57 305.571H338.641Z" fill="white" stroke="#2E353A" stroke-linecap="round" stroke-linejoin="round"/>
<path d="M179.322 315.851C180.227 324.076 183.55 331.848 188.871 338.185C194.193 344.522 201.275 349.138 209.22 351.45C217.166 353.762 225.618 353.666 233.509 351.174C241.4 348.682 248.374 343.906 253.551 337.45C258.727 330.993 261.872 323.147 262.589 314.904C263.306 306.66 261.563 298.388 257.579 291.136C253.595 283.883 247.549 277.974 240.207 274.157C232.865 270.341 224.556 268.787 216.331 269.692H216.232C205.222 270.931 195.152 276.486 188.233 285.139C181.313 293.793 178.109 304.837 179.322 315.851ZM254.158 307.534C254.894 314.134 253.655 320.804 250.6 326.7C247.545 332.596 242.81 337.454 236.994 340.659C231.178 343.865 224.542 345.273 217.925 344.707C211.309 344.141 205.009 341.626 199.822 337.48C194.634 333.333 190.793 327.741 188.784 321.412C186.775 315.082 186.687 308.299 188.533 301.92C190.379 295.541 194.074 289.852 199.153 285.573C204.232 281.295 210.465 278.618 217.065 277.882C225.915 276.898 234.794 279.469 241.75 285.029C248.705 290.59 253.168 298.684 254.158 307.534Z" fill="white" stroke="#2E353A" stroke-linecap="round" stroke-linejoin="round"/>
<path d="M176.88 316.104C177.793 324.325 181.123 332.09 186.448 338.418C191.773 344.746 198.855 349.353 206.798 351.657C214.742 353.961 223.19 353.858 231.075 351.361C238.96 348.864 245.927 344.086 251.096 337.629C256.266 331.173 259.405 323.329 260.117 315.089C260.829 306.849 259.081 298.583 255.096 291.336C251.111 284.089 245.066 278.186 237.726 274.374C230.387 270.561 222.082 269.011 213.861 269.918C208.399 270.521 203.11 272.194 198.295 274.841C193.481 277.489 189.235 281.06 185.801 285.349C182.366 289.638 179.811 294.562 178.28 299.839C176.75 305.116 176.274 310.643 176.88 316.104ZM251.829 307.816C252.562 314.414 251.322 321.08 248.267 326.973C245.211 332.866 240.476 337.72 234.661 340.922C228.846 344.124 222.212 345.53 215.599 344.962C208.985 344.394 202.688 341.877 197.505 337.73C192.321 333.584 188.484 327.993 186.478 321.665C184.471 315.337 184.387 308.557 186.234 302.181C188.082 295.805 191.778 290.12 196.857 285.845C201.935 281.57 208.167 278.897 214.764 278.164C219.145 277.677 223.579 278.058 227.812 279.285C232.046 280.511 235.996 282.56 239.438 285.313C242.88 288.067 245.746 291.471 247.872 295.332C249.998 299.193 251.343 303.435 251.829 307.816Z" fill="white" stroke="#2E353A" stroke-linecap="round" stroke-linejoin="round"/>
<path d="M293.427 297.842L264.432 301.053C262.2 301.3 260.591 303.31 260.838 305.542L261.057 307.521C261.305 309.753 263.315 311.363 265.547 311.115L294.542 307.904C296.774 307.657 298.383 305.647 298.136 303.415L297.917 301.436C297.669 299.203 295.659 297.594 293.427 297.842Z" fill="#FFB700" stroke="#2E353A" stroke-linecap="round" stroke-linejoin="round"/>
<path d="M285.031 306.178L284.565 301.942C284.363 300.107 284.898 298.267 286.053 296.827C287.207 295.386 288.887 294.463 290.722 294.261L348.049 287.921C349.215 287.785 350.396 287.882 351.524 288.204C352.653 288.526 353.707 289.068 354.625 289.799C355.544 290.53 356.309 291.435 356.876 292.462C357.444 293.49 357.803 294.619 357.933 295.786V296.068C358.068 297.234 357.972 298.415 357.65 299.544C357.328 300.672 356.785 301.726 356.055 302.645C355.324 303.563 354.419 304.328 353.391 304.896C352.364 305.463 351.235 305.822 350.068 305.952L292.741 312.292C290.909 312.499 289.069 311.972 287.624 310.826C286.18 309.68 285.247 308.009 285.031 306.178Z" fill="#2E353A" stroke="#2E353A" stroke-linecap="round" stroke-linejoin="round"/>
<path d="M332.797 300.022C332.797 300.022 333.178 310.047 334.901 311.459C336.623 312.871 342.695 312.617 343.373 309.892C345.208 302.959 344.135 288.175 342.893 287.611C341.65 287.046 334.421 285.831 333.658 288.895C333.089 292.577 332.801 296.297 332.797 300.022Z" fill="white" stroke="#2E353A" stroke-linecap="round" stroke-linejoin="round"/>
<path d="M318.806 302.902C318.806 302.902 318.355 314.58 320.458 316.401C322.562 318.222 330.427 318.59 331.613 315.497C334.635 307.647 333.449 289.982 331.896 289.192C330.342 288.401 322.28 286.636 320.981 290.095C319.682 293.555 318.806 302.902 318.806 302.902Z" fill="white" stroke="#2E353A" stroke-linecap="round" stroke-linejoin="round"/>
<path d="M302.988 304.611C302.988 304.611 302.508 317.093 304.753 319.042C306.998 320.99 315.414 321.372 316.685 318.068C319.904 309.68 319.904 291.24 318.238 290.392C316.572 289.545 306.702 287.215 305.318 290.915C303.934 294.614 302.988 304.611 302.988 304.611Z" fill="white" stroke="#2E353A" stroke-linecap="round" stroke-linejoin="round"/>
<path d="M288.191 311.798C288.191 311.798 287.711 324.28 289.97 326.229C292.229 328.177 300.871 328.643 301.888 325.254C302.904 321.866 305.107 298.426 303.441 297.565C301.775 296.704 291.919 294.402 290.521 298.102C289.123 301.801 288.191 311.798 288.191 311.798Z" fill="white" stroke="#2E353A" stroke-linecap="round" stroke-linejoin="round"/>
<path d="M330.583 261.333C331.159 266.895 329.824 272.487 326.799 277.19C319.88 287.243 303.939 286.89 303.939 286.89L303.247 289.319C302.493 291.311 301.441 293.178 300.126 294.854C303.421 294.045 306.789 293.572 310.18 293.442C312.034 293.496 313.803 294.234 315.145 295.514C316.488 296.794 317.309 298.525 317.451 300.375C317.804 303.495 318.143 304.879 313.992 305.91C309.841 306.941 293.207 312.151 290.779 312.504C288.576 312.815 284.651 309.115 283.719 303.227C284.467 294.176 286.995 285.238 286.995 276.131C287.29 272.952 288.409 269.905 290.242 267.292" fill="white"/>
<path d="M330.583 261.333C331.159 266.895 329.824 272.487 326.799 277.19C319.88 287.243 303.939 286.89 303.939 286.89L303.247 289.319C302.493 291.311 301.441 293.178 300.126 294.854C303.421 294.045 306.789 293.572 310.18 293.442C312.034 293.496 313.803 294.234 315.145 295.514C316.488 296.794 317.309 298.525 317.451 300.375C317.804 303.495 318.143 304.879 313.992 305.91C309.841 306.941 293.207 312.151 290.779 312.504C288.576 312.815 284.651 309.115 283.719 303.227C284.467 294.176 286.995 285.238 286.995 276.131C287.29 272.952 288.409 269.905 290.242 267.292" stroke="#2E353A" stroke-linecap="round" stroke-linejoin="round"/>
<path d="M329.227 253.991C329.645 255.312 329.965 256.661 330.187 258.029L329.227 253.991Z" fill="white"/>
<path d="M329.227 253.991C329.645 255.312 329.965 256.661 330.187 258.029" stroke="#2E353A" stroke-linecap="round" stroke-linejoin="round"/>
<path d="M324.719 241.508V229.041" stroke="#2E353A" stroke-linecap="round" stroke-linejoin="round"/>
<path d="M328.18 240.478V235.282" stroke="#2E353A" stroke-linecap="round" stroke-linejoin="round"/>
<path d="M303.937 286.89C303.937 286.89 303.937 280 299.828 275.481" stroke="#2E353A" stroke-linecap="round" stroke-linejoin="round"/>
<path d="M299.683 295.023C297.803 295.217 295.949 295.605 294.148 296.181" stroke="#2E353A" stroke-linecap="round" stroke-linejoin="round"/>
<path d="M312.224 305.952C312.224 305.952 308.581 307.265 307.268 305.656C305.955 304.046 304.063 299.824 305.517 299.104C306.971 298.384 313.678 296.774 314.992 297.212L316.305 297.636" stroke="#2E353A" stroke-width="0.5" stroke-linecap="round" stroke-linejoin="round"/>
<path d="M356.408 114.598V233.983H297.711V114.598" fill="#FFB700"/>
<path d="M356.408 114.598V233.983H297.711V114.598" stroke="#2E353A" stroke-linecap="round" stroke-linejoin="round"/>
<path d="M349.784 227.911C351.266 227.911 352.467 226.71 352.467 225.228C352.467 223.747 351.266 222.545 349.784 222.545C348.303 222.545 347.102 223.747 347.102 225.228C347.102 226.71 348.303 227.911 349.784 227.911Z" fill="white" stroke="#2E353A" stroke-linecap="round" stroke-linejoin="round"/>
<path d="M279.577 518.204C279.166 519.228 278.553 520.159 277.774 520.94C276.995 521.722 276.067 522.337 275.044 522.751C273.448 523.415 271.33 523.259 268.859 524.643C263.324 527.764 249.473 524.996 239.419 526.055C229.366 527.114 215.867 516.016 215.867 516.016L175.992 518.204V478.668C175.992 478.668 217.561 480.405 226.57 476.946C235.579 473.486 245.618 466.2 250.122 466.553C254.626 466.906 291.691 471.058 291.691 471.058L279.577 518.204Z" fill="white" stroke="#2E353A" stroke-linecap="round" stroke-linejoin="round"/>
<path d="M289.816 358.874C298.04 359.785 305.81 363.114 312.142 368.44C318.475 373.766 323.086 380.85 325.392 388.797C327.699 396.744 327.597 405.196 325.099 413.085C322.602 420.974 317.821 427.945 311.362 433.117C304.902 438.289 297.054 441.429 288.81 442.141C280.566 442.852 272.296 441.103 265.046 437.115C257.796 433.126 251.892 427.077 248.08 419.733C244.267 412.389 242.719 404.079 243.629 395.855C244.85 384.83 250.4 374.742 259.059 367.809C267.718 360.877 278.777 357.668 289.801 358.888L289.816 358.874ZM281.513 433.823C288.113 434.559 294.783 433.321 300.679 430.265C306.575 427.21 311.433 422.475 314.639 416.659C317.844 410.843 319.253 404.207 318.687 397.591C318.121 390.974 315.605 384.674 311.459 379.487C307.312 374.299 301.721 370.458 295.391 368.449C289.062 366.44 282.278 366.352 275.899 368.198C269.52 370.044 263.831 373.74 259.553 378.818C255.274 383.897 252.597 390.13 251.861 396.73C250.878 405.58 253.448 414.459 259.009 421.415C264.569 428.37 272.663 432.833 281.513 433.823Z" fill="white" stroke="#2E353A" stroke-linecap="round" stroke-linejoin="round"/>
<path d="M290.065 356.488C298.286 357.401 306.052 360.731 312.38 366.057C318.708 371.383 323.315 378.466 325.618 386.41C327.921 394.355 327.817 402.803 325.319 410.688C322.82 418.573 318.04 425.54 311.583 430.709C305.125 435.877 297.28 439.015 289.039 439.725C280.799 440.435 272.532 438.686 265.286 434.698C258.039 430.711 252.138 424.664 248.327 417.323C244.517 409.982 242.969 401.675 243.879 393.454C244.483 387.994 246.158 382.706 248.806 377.893C251.455 373.08 255.025 368.836 259.314 365.403C263.603 361.97 268.527 359.416 273.803 357.886C279.079 356.357 284.605 355.882 290.065 356.488ZM281.763 431.437C288.363 432.172 295.033 430.934 300.929 427.879C306.825 424.824 311.683 420.089 314.888 414.273C318.094 408.457 319.502 401.821 318.936 395.204C318.37 388.588 315.855 382.287 311.709 377.1C307.562 371.913 301.97 368.072 295.641 366.063C289.311 364.053 282.528 363.966 276.149 365.812C269.77 367.657 264.081 371.353 259.803 376.432C255.524 381.511 252.847 387.744 252.111 394.344C251.132 403.19 253.705 412.064 259.265 419.014C264.825 425.964 272.917 430.422 281.763 431.409V431.437Z" fill="white" stroke="#2E353A" stroke-linecap="round" stroke-linejoin="round"/>
<path d="M274.987 444.027L271.776 473.022C271.529 475.254 273.138 477.264 275.37 477.511L277.349 477.73C279.581 477.978 281.591 476.368 281.838 474.136L285.05 445.141C285.297 442.909 283.688 440.899 281.455 440.652L279.477 440.433C277.244 440.186 275.234 441.795 274.987 444.027Z" fill="#FFB700" stroke="#2E353A" stroke-linecap="round" stroke-linejoin="round"/>
<path d="M270.076 537.492H269.793C268.626 537.364 267.496 537.007 266.467 536.439C265.439 535.872 264.533 535.107 263.802 534.189C263.071 533.27 262.529 532.215 262.207 531.086C261.886 529.956 261.791 528.775 261.928 527.608L268.268 470.281C268.367 469.372 268.644 468.491 269.083 467.689C269.523 466.887 270.117 466.18 270.83 465.608C271.544 465.036 272.364 464.61 273.242 464.356C274.121 464.101 275.041 464.023 275.95 464.125L280.186 464.591C282.02 464.793 283.7 465.716 284.854 467.157C286.009 468.597 286.544 470.437 286.342 472.272L280.002 529.67C279.87 530.836 279.51 531.964 278.942 532.991C278.374 534.017 277.609 534.921 276.691 535.652C275.773 536.382 274.72 536.925 273.592 537.248C272.464 537.571 271.284 537.668 270.118 537.535L270.076 537.492Z" fill="#2E353A" stroke="#2E353A" stroke-linecap="round" stroke-linejoin="round"/>
<path d="M273.927 512.401C273.927 512.401 283.952 512.782 285.364 514.505C286.776 516.227 286.522 522.285 283.797 522.977C276.864 524.812 262.08 523.739 261.515 522.497C260.951 521.254 259.736 514.025 262.8 513.248C266.482 512.684 270.202 512.401 273.927 512.401Z" fill="white" stroke="#2E353A" stroke-linecap="round" stroke-linejoin="round"/>
<path d="M276.868 498.436C276.868 498.436 288.545 497.984 290.367 500.088C292.188 502.192 292.555 510.057 289.463 511.243C281.612 514.251 263.948 513.079 263.158 511.526C262.367 509.972 260.602 501.91 264.061 500.611C267.521 499.312 276.868 498.436 276.868 498.436Z" fill="white" stroke="#2E353A" stroke-linecap="round" stroke-linejoin="round"/>
<path d="M278.572 482.58C278.572 482.58 291.054 482.114 293.003 484.359C294.951 486.604 295.332 495.019 292.042 496.276C283.57 499.51 265.214 499.495 264.353 497.843C263.492 496.191 261.176 486.307 264.876 484.909C268.575 483.512 278.572 482.58 278.572 482.58Z" fill="white" stroke="#2E353A" stroke-linecap="round" stroke-linejoin="round"/>
<path d="M285.765 467.796C285.765 467.796 298.247 467.316 300.195 469.561C302.144 471.806 302.61 480.476 299.221 481.492C295.832 482.509 272.393 484.698 271.532 483.046C270.67 481.394 268.369 471.51 272.068 470.126C275.768 468.742 285.765 467.796 285.765 467.796Z" fill="white" stroke="#2E353A" stroke-linecap="round" stroke-linejoin="round"/>
<path d="M237.219 510.255C242.143 510.448 247.005 509.101 251.127 506.4C261.18 499.467 260.827 483.54 260.827 483.54L263.256 482.848C265.249 482.094 267.115 481.042 268.791 479.727C267.983 483.017 267.509 486.381 267.379 489.767C267.433 491.622 268.17 493.393 269.45 494.738C270.73 496.083 272.461 496.907 274.312 497.052C277.433 497.391 278.816 497.744 279.861 493.579C280.906 489.414 286.088 472.794 286.441 470.38C286.794 467.965 283.052 464.238 277.164 463.32C268.113 464.068 259.175 466.596 250.068 466.596C246.892 466.892 243.847 468.006 241.229 469.829" fill="white"/>
<path d="M237.219 510.255C242.143 510.448 247.005 509.101 251.127 506.4C261.18 499.467 260.827 483.54 260.827 483.54L263.256 482.848C265.249 482.094 267.115 481.042 268.791 479.727C267.983 483.017 267.509 486.381 267.379 489.767C267.433 491.622 268.17 493.393 269.45 494.738C270.73 496.083 272.461 496.907 274.312 497.052C277.433 497.391 278.816 497.744 279.861 493.579C280.906 489.414 286.088 472.794 286.441 470.38C286.794 467.965 283.052 464.238 277.164 463.32C268.113 464.068 259.175 466.596 250.068 466.596C246.892 466.892 243.847 468.006 241.229 469.829" stroke="#2E353A" stroke-linecap="round" stroke-linejoin="round"/>
<path d="M227.953 508.829C229.927 509.435 231.956 509.847 234.011 510.057L227.953 508.829Z" fill="white"/>
<path d="M227.953 508.829C229.927 509.435 231.956 509.847 234.011 510.057" stroke="#2E353A" stroke-linecap="round" stroke-linejoin="round"/>
<path d="M215.476 504.324H203.008" stroke="#2E353A" stroke-linecap="round" stroke-linejoin="round"/>
<path d="M214.446 507.784H209.25" stroke="#2E353A" stroke-linecap="round" stroke-linejoin="round"/>
<path d="M260.854 483.54C260.854 483.54 253.964 483.54 249.445 479.431" stroke="#2E353A" stroke-linecap="round" stroke-linejoin="round"/>
<path d="M268.984 479.275C269.178 477.395 269.566 475.54 270.142 473.74" stroke="#2E353A" stroke-linecap="round" stroke-linejoin="round"/>
<path d="M279.916 491.814C279.916 491.814 281.229 488.171 279.62 486.858C278.01 485.545 273.788 483.653 273.068 485.107C272.348 486.561 270.738 493.282 271.176 494.581L271.614 495.895" stroke="#2E353A" stroke-width="0.5" stroke-linecap="round" stroke-linejoin="round"/>
<path d="M88.5625 536.009H207.947V477.312H88.5625" fill="#FFB700"/>
<path d="M88.5625 536.009H207.947V477.312H88.5625" stroke="#2E353A" stroke-linecap="round" stroke-linejoin="round"/>
<path d="M196.508 529.387C196.508 529.918 196.665 530.437 196.96 530.878C197.255 531.319 197.674 531.663 198.164 531.866C198.654 532.069 199.194 532.122 199.714 532.019C200.234 531.915 200.712 531.66 201.088 531.284C201.463 530.909 201.718 530.431 201.822 529.911C201.925 529.39 201.872 528.851 201.669 528.361C201.466 527.871 201.122 527.452 200.681 527.157C200.24 526.862 199.721 526.705 199.191 526.705C198.479 526.705 197.797 526.987 197.294 527.49C196.79 527.994 196.508 528.676 196.508 529.387Z" fill="white" stroke="#2E353A" stroke-linecap="round" stroke-linejoin="round"/>
<defs>
<filter id="filter0_d_2266_3860" x="99" y="139" width="508" height="508" filterUnits="userSpaceOnUse" color-interpolation-filters="sRGB">
<feFlood flood-opacity="0" result="BackgroundImageFix"/>
<feColorMatrix in="SourceAlpha" type="matrix" values="0 0 0 0 0 0 0 0 0 0 0 0 0 0 0 0 0 0 127 0" result="hardAlpha"/>
<feOffset dy="4"/>
<feGaussianBlur stdDeviation="2"/>
<feComposite in2="hardAlpha" operator="out"/>
<feColorMatrix type="matrix" values="0 0 0 0 0 0 0 0 0 0 0 0 0 0 0 0 0 0 0.25 0"/>
<feBlend mode="normal" in2="BackgroundImageFix" result="effect1_dropShadow_2266_3860"/>
<feBlend mode="normal" in="SourceGraphic" in2="effect1_dropShadow_2266_3860" result="shape"/>
</filter>
</defs>
</svg>
