<svg width="817" height="581" viewBox="0 0 817 581" fill="none" xmlns="http://www.w3.org/2000/svg">
<g filter="url(#filter0_d_2377_2473)">
<ellipse cx="410.677" cy="303.226" rx="272.333" ry="269.774" fill="#FFB700"/>
</g>
<path d="M278.282 296.978H100.742L113.869 171.695H292.911L278.282 296.978Z" fill="#F5F5F5"/>
<path d="M120.26 275.958C120.097 275.958 121.938 257.095 124.356 233.873C126.774 210.651 128.866 191.788 129.018 191.788C129.171 191.788 127.341 210.64 124.922 233.873C122.504 257.106 120.413 275.968 120.26 275.958Z" fill="#E0E0E0"/>
<path d="M152.587 196.05C149.626 196.328 146.65 196.422 143.676 196.331C140.703 196.422 137.727 196.328 134.766 196.05C137.727 195.766 140.703 195.672 143.676 195.77C146.65 195.672 149.626 195.766 152.587 196.05Z" fill="#E0E0E0"/>
<path d="M228.414 196.05C228.414 196.201 212.52 196.331 192.923 196.331C173.326 196.331 157.422 196.201 157.422 196.05C157.422 195.899 173.315 195.77 192.923 195.77C212.531 195.77 228.414 195.888 228.414 196.05Z" fill="#E0E0E0"/>
<path d="M150.478 240.563C147.517 240.848 144.54 240.941 141.567 240.844C138.594 240.941 135.617 240.848 132.656 240.563C135.618 240.285 138.594 240.192 141.567 240.283C144.54 240.192 147.516 240.285 150.478 240.563Z" fill="#E0E0E0"/>
<path d="M226.312 240.563C226.312 240.725 210.419 240.843 190.822 240.843C171.225 240.843 155.32 240.725 155.32 240.563C155.32 240.401 171.214 240.282 190.822 240.282C210.43 240.282 226.312 240.412 226.312 240.563Z" fill="#E0E0E0"/>
<path d="M202.125 261.141C202.125 261.303 186.231 261.422 166.634 261.422C147.037 261.422 131.133 261.303 131.133 261.141C131.133 260.98 147.026 260.861 166.634 260.861C186.242 260.861 202.125 260.936 202.125 261.141Z" fill="#E0E0E0"/>
<path d="M160.436 208.622C160.436 208.773 154.826 208.902 147.898 208.902C140.969 208.902 135.359 208.773 135.359 208.622C135.359 208.471 140.98 208.331 147.898 208.331C154.815 208.331 160.436 208.46 160.436 208.622Z" fill="#E0E0E0"/>
<path d="M159.803 227.042C159.803 227.204 154.182 227.322 147.265 227.322C140.348 227.322 134.727 227.204 134.727 227.042C134.727 226.88 140.337 226.761 147.265 226.761C154.193 226.761 159.803 226.891 159.803 227.042Z" fill="#E0E0E0"/>
<path d="M181.006 253.383C181.006 253.534 175.385 253.663 168.468 253.663C161.551 253.663 155.93 253.534 155.93 253.383C155.93 253.232 161.54 253.102 168.468 253.102C175.396 253.102 181.006 253.221 181.006 253.383Z" fill="#E0E0E0"/>
<path d="M251.634 208.622C251.634 208.773 237.298 208.902 219.608 208.902C201.917 208.902 187.57 208.773 187.57 208.622C187.57 208.471 201.917 208.331 219.608 208.331C237.298 208.331 251.634 208.46 251.634 208.622Z" fill="#E0E0E0"/>
<path d="M231.889 228.11C231.889 228.272 217.553 228.391 199.862 228.391C182.172 228.391 167.836 228.272 167.836 228.11C167.836 227.948 182.172 227.83 199.862 227.83C217.553 227.83 231.889 227.959 231.889 228.11Z" fill="#E0E0E0"/>
<path d="M253.939 253.383C253.939 253.534 239.592 253.663 221.912 253.663C204.232 253.663 189.875 253.534 189.875 253.383C189.875 253.232 204.222 253.102 221.912 253.102C239.603 253.102 253.939 253.221 253.939 253.383Z" fill="#E0E0E0"/>
<path d="M195.447 275.957C195.447 276.108 181.1 276.238 163.409 276.238C145.718 276.238 131.383 276.108 131.383 275.957C131.383 275.806 145.718 275.677 163.409 275.677C181.1 275.677 195.447 275.795 195.447 275.957Z" fill="#E0E0E0"/>
<path d="M266.29 275.957C266.29 276.108 251.944 276.238 234.264 276.238C216.584 276.238 202.227 276.108 202.227 275.957C202.227 275.806 216.562 275.677 234.264 275.677C251.966 275.677 266.29 275.795 266.29 275.957Z" fill="#E0E0E0"/>
<path d="M195.439 283.295C195.439 283.457 181.103 283.576 163.412 283.576C145.722 283.576 131.375 283.457 131.375 283.295C131.375 283.133 145.722 283.015 163.412 283.015C181.103 283.015 195.439 283.144 195.439 283.295Z" fill="#E0E0E0"/>
<path d="M198.556 213.909C198.556 214.061 184.22 214.19 166.529 214.19C148.839 214.19 134.492 214.061 134.492 213.909C134.492 213.758 148.839 213.629 166.529 213.629C184.22 213.629 198.556 213.748 198.556 213.909Z" fill="#E0E0E0"/>
<path d="M181.472 208.686C178.733 208.964 175.978 209.058 173.226 208.967C170.47 209.058 167.712 208.964 164.969 208.686C167.711 208.402 170.47 208.308 173.226 208.406C175.978 208.309 178.733 208.402 181.472 208.686Z" fill="#E0E0E0"/>
<path d="M148.386 246.617C145.643 246.895 142.885 246.989 140.129 246.898C137.377 246.988 134.622 246.895 131.883 246.617C134.622 246.339 137.377 246.245 140.129 246.336C142.885 246.245 145.643 246.339 148.386 246.617Z" fill="#E0E0E0"/>
<path d="M147.996 253.383C145.256 253.661 142.501 253.754 139.749 253.663C136.994 253.754 134.235 253.661 131.492 253.383C134.235 253.098 136.994 253.005 139.749 253.102C142.501 253.005 145.257 253.099 147.996 253.383Z" fill="#E0E0E0"/>
<path d="M290.947 184.947C290.947 185.108 251.023 185.227 201.785 185.227C152.547 185.227 112.602 185.108 112.602 184.947C112.602 184.785 152.526 184.666 201.785 184.666C251.045 184.666 290.947 184.796 290.947 184.947Z" fill="#E0E0E0"/>
<path d="M124.645 181.073C125.812 181.073 126.758 180.135 126.758 178.979C126.758 177.823 125.812 176.886 124.645 176.886C123.477 176.886 122.531 177.823 122.531 178.979C122.531 180.135 123.477 181.073 124.645 181.073Z" fill="white"/>
<path d="M133.715 181.073C134.882 181.073 135.828 180.135 135.828 178.979C135.828 177.823 134.882 176.886 133.715 176.886C132.548 176.886 131.602 177.823 131.602 178.979C131.602 180.135 132.548 181.073 133.715 181.073Z" fill="white"/>
<path d="M142.793 181.073C143.96 181.073 144.906 180.135 144.906 178.979C144.906 177.823 143.96 176.886 142.793 176.886C141.626 176.886 140.68 177.823 140.68 178.979C140.68 180.135 141.626 181.073 142.793 181.073Z" fill="white"/>
<path d="M739.274 234.337H561.734L574.861 109.064H753.904L739.274 234.337Z" fill="#F5F5F5"/>
<path d="M581.259 213.316C581.106 213.316 582.936 194.453 585.355 171.231C587.773 148.009 589.865 129.146 590.017 129.211C590.17 129.276 588.34 148.063 585.921 171.296C583.503 194.529 581.411 213.327 581.259 213.316Z" fill="#E0E0E0"/>
<path d="M613.579 133.409C607.645 133.783 601.692 133.783 595.758 133.409C601.692 133.035 607.645 133.035 613.579 133.409Z" fill="#E0E0E0"/>
<path d="M689.417 133.409C689.417 133.56 673.523 133.69 653.915 133.69C634.307 133.69 618.414 133.56 618.414 133.409C618.414 133.258 634.307 133.128 653.915 133.128C673.523 133.128 689.417 133.258 689.417 133.409Z" fill="#E0E0E0"/>
<path d="M611.489 177.932C605.551 178.306 599.594 178.306 593.656 177.932C599.594 177.558 605.551 177.558 611.489 177.932Z" fill="#E0E0E0"/>
<path d="M687.37 177.932C687.37 178.083 671.477 178.213 651.869 178.213C632.261 178.213 616.367 178.083 616.367 177.932C616.367 177.781 632.261 177.652 651.869 177.652C671.477 177.652 687.37 177.771 687.37 177.932Z" fill="#E0E0E0"/>
<path d="M663.136 198.457C663.136 198.608 647.242 198.737 627.634 198.737C608.026 198.737 592.133 198.608 592.133 198.457C592.133 198.306 608.026 198.176 627.634 198.176C647.242 198.176 663.136 198.295 663.136 198.457Z" fill="#E0E0E0"/>
<path d="M621.444 145.98C621.444 146.131 615.823 146.261 608.905 146.261C601.988 146.261 596.367 146.131 596.367 145.98C596.367 145.829 601.977 145.678 608.938 145.678C615.899 145.678 621.444 145.819 621.444 145.98Z" fill="#E0E0E0"/>
<path d="M620.803 164.4C620.803 164.562 615.193 164.681 608.265 164.681C601.337 164.681 595.727 164.562 595.727 164.4C595.727 164.238 601.337 164.12 608.265 164.12C615.193 164.12 620.803 164.249 620.803 164.4Z" fill="#E0E0E0"/>
<path d="M641.998 190.741C641.998 190.892 636.388 191.022 629.46 191.022C622.532 191.022 616.922 190.892 616.922 190.741C616.922 190.59 622.532 190.46 629.46 190.46C636.388 190.46 641.998 190.59 641.998 190.741Z" fill="#E0E0E0"/>
<path d="M712.665 145.98C712.665 146.131 698.319 146.261 680.628 146.261C662.937 146.261 648.602 146.131 648.602 145.98C648.602 145.829 662.937 145.7 680.628 145.7C698.319 145.7 712.665 145.818 712.665 145.98Z" fill="#E0E0E0"/>
<path d="M692.892 165.469C692.892 165.63 678.545 165.749 660.854 165.749C643.164 165.749 628.828 165.63 628.828 165.469C628.828 165.307 643.164 165.188 660.854 165.188C678.545 165.188 692.892 165.317 692.892 165.469Z" fill="#E0E0E0"/>
<path d="M714.928 190.741C714.928 190.892 700.592 191.022 682.901 191.022C665.211 191.022 650.875 190.892 650.875 190.741C650.875 190.59 665.211 190.46 682.901 190.46C700.592 190.46 714.928 190.59 714.928 190.741Z" fill="#E0E0E0"/>
<path d="M656.447 213.316C656.447 213.467 642.1 213.596 624.42 213.596C606.74 213.596 592.383 213.467 592.383 213.316C592.383 213.165 606.718 213.035 624.42 213.035C642.122 213.035 656.447 213.154 656.447 213.316Z" fill="#E0E0E0"/>
<path d="M727.282 213.316C727.282 213.467 712.947 213.596 695.256 213.596C677.565 213.596 663.219 213.467 663.219 213.316C663.219 213.165 677.565 213.035 695.256 213.035C712.947 213.035 727.282 213.154 727.282 213.316Z" fill="#E0E0E0"/>
<path d="M656.436 220.654C656.436 220.815 642.1 220.934 624.409 220.934C606.718 220.934 592.383 220.815 592.383 220.654C592.383 220.492 606.718 220.373 624.409 220.373C642.1 220.373 656.436 220.503 656.436 220.654Z" fill="#E0E0E0"/>
<path d="M659.556 151.268C659.556 151.419 645.209 151.548 627.519 151.548C609.828 151.548 595.492 151.419 595.492 151.268C595.492 151.117 609.828 150.987 627.519 150.987C645.209 150.987 659.556 151.074 659.556 151.268Z" fill="#E0E0E0"/>
<path d="M642.469 146.045C636.978 146.419 631.468 146.419 625.977 146.045C631.468 145.671 636.978 145.671 642.469 146.045Z" fill="#E0E0E0"/>
<path d="M609.386 183.975C603.892 184.349 598.377 184.349 592.883 183.975C598.377 183.601 603.892 183.601 609.386 183.975Z" fill="#E0E0E0"/>
<path d="M608.993 190.741C603.502 191.115 597.991 191.115 592.5 190.741C597.991 190.367 603.502 190.367 608.993 190.741Z" fill="#E0E0E0"/>
<path d="M751.955 122.305C751.955 122.467 712.02 122.586 662.782 122.586C613.544 122.586 573.609 122.467 573.609 122.305C573.609 122.143 613.523 122.024 662.782 122.024C712.042 122.024 751.955 122.154 751.955 122.305Z" fill="#E0E0E0"/>
<path d="M585.637 118.431C586.804 118.431 587.75 117.494 587.75 116.338C587.75 115.181 586.804 114.244 585.637 114.244C584.47 114.244 583.523 115.181 583.523 116.338C583.523 117.494 584.47 118.431 585.637 118.431Z" fill="white"/>
<path d="M594.715 118.431C595.882 118.431 596.828 117.494 596.828 116.338C596.828 115.181 595.882 114.244 594.715 114.244C593.548 114.244 592.602 115.181 592.602 116.338C592.602 117.494 593.548 118.431 594.715 118.431Z" fill="white"/>
<path d="M603.785 118.431C604.952 118.431 605.898 117.494 605.898 116.338C605.898 115.181 604.952 114.244 603.785 114.244C602.618 114.244 601.672 115.181 601.672 116.338C601.672 117.494 602.618 118.431 603.785 118.431Z" fill="white"/>
<path d="M366.906 152.541H256.328L264.498 74.5117H376.013L366.906 152.541Z" fill="#EBEBEB"/>
<path d="M268.491 139.441C268.338 139.441 269.428 127.689 270.931 113.23C272.434 98.7697 273.785 87.0507 273.948 87.0615C274.112 87.0723 273.012 98.8237 271.497 113.284C269.983 127.743 268.643 139.462 268.491 139.441Z" fill="#E0E0E0"/>
<path d="M288.671 89.6731C284.98 90.0472 281.261 90.0472 277.57 89.6731C281.261 89.2991 284.98 89.2991 288.671 89.6731Z" fill="#E0E0E0"/>
<path d="M335.852 89.6731C335.852 89.835 325.95 89.9537 313.738 89.9537C301.527 89.9537 291.625 89.835 291.625 89.6731C291.625 89.5113 301.527 89.3926 313.738 89.3926C325.95 89.3926 335.852 89.5652 335.852 89.6731Z" fill="#E0E0E0"/>
<path d="M287.311 117.406C283.621 117.78 279.901 117.78 276.211 117.406C279.901 117.031 283.621 117.031 287.311 117.406Z" fill="#E0E0E0"/>
<path d="M334.547 117.406C334.547 117.557 324.645 117.686 312.434 117.686C300.222 117.686 290.32 117.557 290.32 117.406C290.32 117.254 300.222 117.125 312.434 117.125C324.645 117.125 334.547 117.254 334.547 117.406Z" fill="#E0E0E0"/>
<path d="M319.482 130.182C319.482 130.344 309.58 130.463 297.368 130.463C285.157 130.463 275.266 130.344 275.266 130.182C275.266 130.021 285.157 129.902 297.368 129.902C309.58 129.902 319.482 130.031 319.482 130.182Z" fill="#E0E0E0"/>
<path d="M293.509 97.5073C290.915 97.785 288.305 97.8788 285.698 97.7879C283.095 97.879 280.488 97.7852 277.898 97.5073C280.488 97.223 283.095 97.1292 285.698 97.2268C288.305 97.1295 290.916 97.2232 293.509 97.5073Z" fill="#E0E0E0"/>
<path d="M293.121 108.989C290.528 109.273 287.917 109.367 285.311 109.269C282.704 109.367 280.093 109.273 277.5 108.989C280.093 108.711 282.704 108.618 285.311 108.708C287.917 108.618 290.528 108.711 293.121 108.989Z" fill="#E0E0E0"/>
<path d="M306.324 125.381C303.731 125.665 301.121 125.758 298.514 125.661C295.907 125.758 293.296 125.665 290.703 125.381C293.297 125.103 295.907 125.009 298.514 125.1C301.121 125.009 303.731 125.103 306.324 125.381Z" fill="#E0E0E0"/>
<path d="M350.331 97.5071C350.331 97.6582 341.398 97.7877 330.385 97.7877C319.372 97.7877 310.461 97.6582 310.461 97.5071C310.461 97.3561 319.393 97.2266 330.418 97.2266C341.442 97.2266 350.331 97.3453 350.331 97.5071Z" fill="#E0E0E0"/>
<path d="M338.009 109.647C338.009 109.798 329.076 109.928 318.063 109.928C307.05 109.928 298.117 109.798 298.117 109.647C298.117 109.496 307.05 109.367 318.063 109.367C329.076 109.367 338.009 109.496 338.009 109.647Z" fill="#E0E0E0"/>
<path d="M351.746 125.38C351.746 125.542 342.814 125.661 331.8 125.661C320.787 125.661 311.844 125.542 311.844 125.38C311.844 125.218 320.776 125.1 331.8 125.1C342.824 125.1 351.746 125.229 351.746 125.38Z" fill="#E0E0E0"/>
<path d="M315.316 139.441C315.316 139.603 306.384 139.721 295.36 139.721C284.336 139.721 275.414 139.603 275.414 139.441C275.414 139.279 284.347 139.16 295.36 139.16C306.373 139.16 315.316 139.29 315.316 139.441Z" fill="#E0E0E0"/>
<path d="M359.48 139.441C359.48 139.603 350.548 139.721 339.535 139.721C328.522 139.721 319.578 139.603 319.578 139.441C319.578 139.279 328.511 139.16 339.535 139.16C350.559 139.16 359.48 139.29 359.48 139.441Z" fill="#E0E0E0"/>
<path d="M315.305 144.016C315.305 144.178 306.373 144.297 295.36 144.297C284.347 144.297 275.414 144.178 275.414 144.016C275.414 143.855 284.336 143.736 295.36 143.736C306.384 143.736 315.305 143.865 315.305 144.016Z" fill="#E0E0E0"/>
<path d="M317.251 100.799C317.251 100.96 308.318 101.079 297.305 101.079C286.292 101.079 277.359 100.96 277.359 100.799C277.359 100.637 286.292 100.518 297.305 100.518C308.318 100.518 317.251 100.648 317.251 100.799Z" fill="#E0E0E0"/>
<path d="M306.611 97.5504C303.194 97.9243 299.746 97.9243 296.328 97.5504C299.746 97.1766 303.194 97.1766 306.611 97.5504Z" fill="#E0E0E0"/>
<path d="M286.007 121.172C282.593 121.546 279.148 121.546 275.734 121.172C279.148 120.798 282.593 120.798 286.007 121.172Z" fill="#E0E0E0"/>
<path d="M285.768 125.38C282.35 125.754 278.902 125.754 275.484 125.38C278.902 125.007 282.35 125.007 285.768 125.38Z" fill="#E0E0E0"/>
<path d="M374.799 82.7669C374.799 82.918 349.941 83.0475 319.243 83.0475C288.546 83.0475 263.688 82.918 263.688 82.7669C263.688 82.6158 288.546 82.4863 319.243 82.4863C349.941 82.4863 374.799 82.605 374.799 82.7669Z" fill="#E0E0E0"/>
<path d="M272.534 79.0441C272.525 79.3017 272.44 79.551 272.288 79.7605C272.137 79.9701 271.926 80.1306 271.683 80.2218C271.44 80.313 271.174 80.3308 270.921 80.2729C270.667 80.2151 270.437 80.0843 270.258 79.8968C270.079 79.7094 269.961 79.4738 269.917 79.2198C269.873 78.9657 269.907 78.7045 270.013 78.469C270.118 78.2336 270.292 78.0345 270.512 77.8968C270.732 77.7591 270.988 77.689 271.248 77.6952C271.423 77.6994 271.594 77.7377 271.753 77.8079C271.912 77.8781 272.056 77.9788 272.175 78.1042C272.295 78.2296 272.388 78.3773 272.449 78.5386C272.511 78.6999 272.54 78.8717 272.534 79.0441Z" fill="white"/>
<path d="M278.182 79.0437C278.174 79.2999 278.089 79.548 277.939 79.757C277.789 79.9659 277.581 80.1266 277.339 80.2188C277.098 80.311 276.834 80.3308 276.581 80.2757C276.329 80.2205 276.098 80.0929 275.918 79.9087C275.738 79.7245 275.617 79.4918 275.569 79.2398C275.522 78.9878 275.55 78.7275 275.651 78.4914C275.752 78.2553 275.921 78.0539 276.137 77.9122C276.352 77.7706 276.605 77.695 276.864 77.6948C277.041 77.6947 277.216 77.7299 277.379 77.7982C277.542 77.8665 277.689 77.9665 277.812 78.0924C277.935 78.2182 278.031 78.3673 278.095 78.5308C278.158 78.6942 278.188 78.8686 278.182 79.0437Z" fill="white"/>
<path d="M283.839 79.0437C283.83 79.2999 283.746 79.548 283.596 79.757C283.446 79.9659 283.237 80.1266 282.995 80.2188C282.754 80.311 282.49 80.3308 282.238 80.2757C281.985 80.2205 281.754 80.0929 281.574 79.9087C281.394 79.7245 281.273 79.4918 281.225 79.2398C281.178 78.9878 281.207 78.7275 281.307 78.4914C281.408 78.2553 281.577 78.0539 281.793 77.9122C282.009 77.7706 282.262 77.695 282.52 77.6948C282.697 77.6947 282.872 77.7299 283.035 77.7982C283.198 77.8665 283.345 77.9665 283.468 78.0924C283.591 78.2182 283.687 78.3673 283.751 78.5308C283.815 78.6942 283.844 78.8686 283.839 79.0437Z" fill="white"/>
<path d="M667.437 288.712H611.75V467.26H667.437V288.712Z" fill="#EBEBEB"/>
<path d="M714.715 288.745H667.438V467.227H714.715V288.745Z" fill="#E0E0E0"/>
<path d="M660.767 295.942H616.094V334.401H660.767V295.942Z" fill="#E0E0E0"/>
<path d="M660.767 338.761H616.094V377.22H660.767V338.761Z" fill="#E0E0E0"/>
<path d="M660.767 381.579H616.094V420.038H660.767V381.579Z" fill="#E0E0E0"/>
<path d="M660.767 424.409H616.094V462.868H660.767V424.409Z" fill="#E0E0E0"/>
<path d="M638.436 303.043C638.438 303.348 638.348 303.648 638.179 303.903C638.009 304.158 637.766 304.357 637.482 304.476C637.197 304.594 636.884 304.626 636.581 304.568C636.278 304.51 635.999 304.364 635.78 304.148C635.562 303.933 635.412 303.658 635.351 303.358C635.29 303.059 635.32 302.748 635.438 302.465C635.555 302.183 635.755 301.941 636.011 301.771C636.268 301.601 636.57 301.51 636.878 301.51C637.289 301.51 637.684 301.671 637.976 301.958C638.268 302.245 638.433 302.635 638.436 303.043Z" fill="#FAFAFA"/>
<path d="M638.436 346.39C638.438 346.695 638.348 346.995 638.179 347.25C638.009 347.505 637.766 347.705 637.482 347.823C637.197 347.942 636.884 347.974 636.581 347.915C636.278 347.857 635.999 347.711 635.78 347.496C635.562 347.28 635.412 347.005 635.351 346.706C635.29 346.406 635.32 346.095 635.438 345.813C635.555 345.53 635.755 345.288 636.011 345.118C636.268 344.948 636.57 344.857 636.878 344.857C637.289 344.857 637.684 345.019 637.976 345.306C638.268 345.593 638.433 345.982 638.436 346.39Z" fill="#FAFAFA"/>
<path d="M638.436 389.683C638.436 389.988 638.344 390.287 638.173 390.541C638.002 390.794 637.759 390.992 637.474 391.109C637.19 391.226 636.876 391.256 636.574 391.197C636.272 391.137 635.994 390.99 635.777 390.774C635.559 390.559 635.41 390.284 635.35 389.984C635.29 389.685 635.321 389.375 635.439 389.093C635.557 388.811 635.756 388.57 636.013 388.4C636.269 388.231 636.57 388.14 636.878 388.14C637.291 388.14 637.687 388.303 637.98 388.592C638.272 388.881 638.436 389.274 638.436 389.683Z" fill="#FAFAFA"/>
<path d="M638.436 432.998C638.438 433.304 638.348 433.603 638.179 433.858C638.009 434.114 637.766 434.313 637.482 434.431C637.197 434.55 636.884 434.582 636.581 434.524C636.278 434.465 635.999 434.319 635.78 434.104C635.562 433.889 635.412 433.614 635.351 433.314C635.29 433.014 635.32 432.704 635.438 432.421C635.555 432.138 635.755 431.897 636.011 431.727C636.268 431.557 636.57 431.466 636.878 431.466C637.289 431.466 637.684 431.627 637.976 431.914C638.268 432.201 638.433 432.591 638.436 432.998Z" fill="#FAFAFA"/>
<path d="M618.188 467.26H611.75V503.075H618.188V467.26Z" fill="#E0E0E0"/>
<path d="M667.204 467.26H660.766V503.075H667.204V467.26Z" fill="#E0E0E0"/>
<path d="M714.016 467.26H707.578V503.075H714.016V467.26Z" fill="#E0E0E0"/>
<path d="M143.947 492.964C142.302 491.572 138.62 487.147 141.453 482C142.542 480.122 144.721 479.184 146.714 478.353C148.769 477.666 150.708 476.676 152.466 475.418C155.592 472.795 156.453 468.436 158.522 464.94C160.908 460.936 165.353 457.925 170.048 458.141C175.418 458.379 179.852 462.706 181.932 467.637C184.013 472.569 184.035 478.051 184.111 483.381C184.111 486.327 184.002 489.651 181.801 491.647C179.786 493.482 176.736 493.503 173.991 493.417L144.579 492.532" fill="#F5F5F5"/>
<path d="M200.12 413.294H122.875L136.797 495.1C137.079 496.802 137.843 498.39 139 499.68C140.157 500.969 141.659 501.907 143.333 502.384L143.605 502.46C143.831 502.529 144.06 502.586 144.291 502.632C144.842 502.758 145.404 502.834 145.969 502.859V502.934L146.35 502.88H180.773C181.41 502.877 182.045 502.812 182.669 502.686C184.675 502.386 186.526 501.44 187.937 499.995C189.349 498.551 190.242 496.687 190.479 494.69L197.168 438.318L197.473 436.074L200.12 413.747V413.294ZM185.544 465.479H177.625L178.42 441.739H187.603L185.544 465.479ZM188.377 441.739H196.002L193.17 465.479H186.274L188.377 441.739ZM165.729 491.798L165.25 471.177H176.666L175.969 491.798H165.729ZM153.387 471.177H164.488L164.978 491.798H155.01L153.387 471.177ZM154.248 491.798H144.945C144.063 486.23 142.908 478.989 141.677 471.177H152.636L154.248 491.798ZM152.941 465.479L151.067 441.739H163.79L164.346 465.479H152.941ZM165.119 465.479L164.564 441.739H177.636L176.83 465.479H165.119ZM164.422 436.041L163.91 414.049H178.584L177.843 436.041H164.422ZM163.66 436.041H150.588L148.856 414.049H163.115L163.66 436.041ZM149.847 436.041H136.056C135.566 433.009 135.097 430.128 134.683 427.549C133.245 418.657 132.701 415.312 132.407 414.049H148.148L149.847 436.041ZM150.304 441.739L152.167 465.479H140.762C140.381 463.073 139.988 460.634 139.596 458.195C138.703 452.595 137.81 446.983 136.971 441.739H150.304ZM139.988 465.479H132.526L128.496 441.739H136.165L139.988 465.479ZM140.893 471.177C141.982 478.31 143.147 485.345 144.161 491.798H136.993L133.485 471.177H140.893ZM176.732 491.798L177.429 471.177H185.054L183.268 491.798H176.732ZM178.649 436.074L179.39 414.082H190.032L188.137 436.074H178.649ZM131.709 414.082C132.015 415.679 133.42 424.333 135.315 436.074H127.559L123.812 414.082H131.709ZM190.043 491.777H184.096L185.882 471.155H192.516L190.043 491.777ZM196.677 436.02H188.899L190.806 414.028H199.292L196.677 436.02Z" fill="#E0E0E0"/>
<path d="M709.158 503.064C709.158 503.226 568.177 503.344 394.341 503.344C220.505 503.344 79.5234 503.226 79.5234 503.064C79.5234 502.902 220.472 502.783 394.395 502.783C568.318 502.783 709.158 502.913 709.158 503.064Z" fill="#263238"/>
<path d="M431.573 269.645H310.766L319.698 184.396H441.529L431.573 269.645Z" fill="#263238"/>
<path d="M425.427 269.645H304.609L313.542 184.396H435.373L425.427 269.645Z" fill="#455A64"/>
<path d="M420.939 265.781H308.836L317.126 186.684H430.177L420.939 265.781Z" fill="#F5F5F5"/>
<path d="M320.993 252.595C320.829 252.595 321.94 240.671 323.476 226.017C325.012 211.363 326.363 199.471 326.515 199.493C326.668 199.514 325.568 211.363 324.032 226.071C322.496 240.779 321.145 252.606 320.993 252.595Z" fill="#263238"/>
<path d="M341.393 202.137C337.652 202.511 333.882 202.511 330.141 202.137C333.882 201.762 337.652 201.762 341.393 202.137Z" fill="#263238"/>
<path d="M389.287 202.137C389.287 202.288 379.254 202.417 366.869 202.417C354.483 202.417 344.461 202.288 344.461 202.137C344.461 201.985 354.494 201.856 366.869 201.856C379.243 201.856 389.287 201.985 389.287 202.137Z" fill="#FFB700"/>
<path d="M340.076 230.247C336.331 230.621 332.558 230.621 328.812 230.247C332.558 229.873 336.331 229.873 340.076 230.247Z" fill="#263238"/>
<path d="M387.951 230.247C387.951 230.409 377.918 230.527 365.543 230.527C353.169 230.527 343.125 230.409 343.125 230.247C343.125 230.085 353.158 229.966 365.543 229.966C377.929 229.966 387.951 230.096 387.951 230.247Z" fill="#FFB700"/>
<path d="M372.685 243.207C372.685 243.358 362.653 243.487 350.278 243.487C337.903 243.487 327.859 243.358 327.859 243.207C327.859 243.056 337.892 242.926 350.278 242.926C362.664 242.926 372.685 243.056 372.685 243.207Z" fill="#FFB700"/>
<path d="M346.409 210.068C343.78 210.359 341.133 210.456 338.49 210.359C335.846 210.456 333.199 210.359 330.57 210.068C333.2 209.79 335.847 209.697 338.49 209.787C341.133 209.697 343.779 209.79 346.409 210.068Z" fill="#FFB700"/>
<path d="M345.964 221.711C343.334 221.989 340.688 222.082 338.044 221.992C335.401 222.082 332.755 221.989 330.125 221.711C332.754 221.427 335.401 221.334 338.044 221.431C340.688 221.334 343.334 221.427 345.964 221.711Z" fill="#FFB700"/>
<path d="M359.347 238.34C356.717 238.618 354.07 238.712 351.427 238.621C348.784 238.712 346.138 238.618 343.508 238.34C346.137 238.056 348.784 237.962 351.427 238.06C354.07 237.963 356.717 238.056 359.347 238.34Z" fill="#FFB700"/>
<path d="M403.955 210.068C403.955 210.23 394.902 210.359 383.737 210.359C372.571 210.359 363.508 210.23 363.508 210.068C363.508 209.906 372.56 209.787 383.737 209.787C394.913 209.787 403.955 209.917 403.955 210.068Z" fill="#263238"/>
<path d="M391.47 222.38C391.47 222.542 382.418 222.661 371.252 222.661C360.087 222.661 351.023 222.542 351.023 222.38C351.023 222.218 360.076 222.1 371.252 222.1C382.429 222.1 391.47 222.229 391.47 222.38Z" fill="#263238"/>
<path d="M405.391 238.34C405.391 238.491 396.338 238.621 385.173 238.621C374.007 238.621 364.922 238.48 364.922 238.34C364.922 238.2 373.974 238.06 385.151 238.06C396.327 238.06 405.391 238.178 405.391 238.34Z" fill="#263238"/>
<path d="M368.466 252.595C368.466 252.746 359.402 252.876 348.237 252.876C337.071 252.876 328.008 252.746 328.008 252.595C328.008 252.444 337.071 252.314 348.237 252.314C359.402 252.314 368.466 252.433 368.466 252.595Z" fill="#263238"/>
<path d="M413.197 252.595C413.197 252.746 404.145 252.876 392.979 252.876C381.813 252.876 372.75 252.746 372.75 252.595C372.75 252.444 381.802 252.314 392.979 252.314C404.155 252.314 413.197 252.433 413.197 252.595Z" fill="#263238"/>
<path d="M368.455 257.224C368.455 257.386 359.402 257.505 348.237 257.505C337.071 257.505 328.008 257.386 328.008 257.224C328.008 257.063 337.06 256.944 348.237 256.944C359.413 256.944 368.455 257.073 368.455 257.224Z" fill="#263238"/>
<path d="M370.423 213.413C370.423 213.564 361.371 213.693 350.205 213.693C339.04 213.693 329.977 213.564 329.977 213.413C329.977 213.262 339.029 213.132 350.205 213.132C361.382 213.132 370.423 213.262 370.423 213.413Z" fill="#263238"/>
<path d="M359.644 210.122C356.179 210.496 352.683 210.496 349.219 210.122C352.683 209.733 356.18 209.733 359.644 210.122Z" fill="#455A64"/>
<path d="M338.781 234.067C335.32 234.441 331.828 234.441 328.367 234.067C331.828 233.693 335.32 233.693 338.781 234.067Z" fill="#455A64"/>
<path d="M338.5 238.34C335.039 238.714 331.547 238.714 328.086 238.34C331.547 237.966 335.039 237.966 338.5 238.34Z" fill="#455A64"/>
<path d="M428.771 195.133C428.771 195.284 403.564 195.414 372.464 195.414C341.363 195.414 316.156 195.284 316.156 195.133C316.156 194.982 341.363 194.842 372.464 194.842C403.564 194.842 428.771 194.971 428.771 195.133Z" fill="#263238"/>
<path d="M325.086 191.356C325.086 191.619 325.007 191.876 324.859 192.095C324.712 192.313 324.502 192.483 324.256 192.583C324.011 192.684 323.741 192.709 323.481 192.657C323.22 192.605 322.982 192.477 322.795 192.291C322.608 192.104 322.481 191.867 322.431 191.608C322.38 191.35 322.408 191.083 322.511 190.841C322.614 190.598 322.788 190.392 323.01 190.247C323.231 190.103 323.492 190.027 323.757 190.029C323.932 190.029 324.106 190.063 324.268 190.13C324.43 190.197 324.577 190.295 324.701 190.418C324.824 190.542 324.922 190.688 324.988 190.849C325.054 191.01 325.087 191.182 325.086 191.356Z" fill="white"/>
<path d="M330.82 191.356C330.82 191.619 330.741 191.876 330.594 192.095C330.446 192.313 330.236 192.483 329.991 192.583C329.745 192.684 329.475 192.709 329.215 192.657C328.955 192.605 328.716 192.477 328.529 192.291C328.342 192.104 328.216 191.867 328.165 191.608C328.115 191.35 328.143 191.083 328.246 190.841C328.349 190.598 328.522 190.392 328.744 190.247C328.966 190.103 329.226 190.027 329.491 190.029C329.667 190.029 329.841 190.063 330.003 190.13C330.164 190.197 330.311 190.295 330.435 190.418C330.559 190.542 330.656 190.688 330.722 190.849C330.788 191.01 330.822 191.182 330.82 191.356Z" fill="white"/>
<path d="M336.602 191.356C336.602 191.619 336.523 191.876 336.375 192.095C336.227 192.313 336.017 192.483 335.772 192.583C335.526 192.684 335.257 192.709 334.996 192.657C334.736 192.605 334.497 192.477 334.31 192.291C334.124 192.104 333.997 191.867 333.946 191.608C333.896 191.35 333.924 191.083 334.027 190.841C334.13 190.598 334.304 190.392 334.525 190.247C334.747 190.103 335.007 190.027 335.273 190.029C335.448 190.029 335.622 190.063 335.784 190.13C335.946 190.197 336.093 190.295 336.216 190.418C336.34 190.542 336.437 190.688 336.504 190.849C336.57 191.01 336.603 191.182 336.602 191.356Z" fill="white"/>
<path d="M590.277 272.234H463.195L472.585 182.551H600.756L590.277 272.234Z" fill="#263238"/>
<path d="M583.808 272.234H456.727L466.128 182.551H594.288L583.808 272.234Z" fill="#455A64"/>
<path d="M579.1 268.166H461.18L469.894 184.957H588.817L579.1 268.166Z" fill="#EBEBEB"/>
<path d="M474.021 253.038C473.869 253.038 475.045 240.499 476.646 225.078C478.248 209.658 479.686 197.162 479.838 197.184C479.991 197.205 478.814 209.712 477.213 225.143C475.612 240.574 474.174 253.048 474.021 253.038Z" fill="#263238"/>
<path d="M495.489 199.968C491.551 200.342 487.586 200.342 483.648 199.968C487.586 199.579 491.552 199.579 495.489 199.968Z" fill="#263238"/>
<path d="M545.86 199.968C545.86 200.119 535.305 200.248 522.276 200.248C509.248 200.248 498.703 200.119 498.703 199.968C498.703 199.817 509.259 199.676 522.276 199.676C535.294 199.676 545.86 199.806 545.86 199.968Z" fill="#FFB700"/>
<path d="M494.099 229.535C490.161 229.909 486.196 229.909 482.258 229.535C486.196 229.161 490.161 229.161 494.099 229.535Z" fill="#263238"/>
<path d="M544.47 229.535C544.47 229.686 533.903 229.816 520.886 229.816C507.868 229.816 497.312 229.686 497.312 229.535C497.312 229.384 507.868 229.254 520.886 229.254C533.903 229.254 544.47 229.384 544.47 229.535Z" fill="#FFB700"/>
<path d="M528.399 243.164C528.399 243.326 517.844 243.444 504.826 243.444C491.809 243.444 481.242 243.326 481.242 243.164C481.242 243.002 491.798 242.883 504.826 242.883C517.855 242.883 528.399 243.013 528.399 243.164Z" fill="#FFB700"/>
<path d="M500.711 208.266C495.165 208.64 489.6 208.64 484.055 208.266C489.6 207.892 495.165 207.892 500.711 208.266Z" fill="#FFB700"/>
<path d="M500.289 220.546C494.744 220.934 489.178 220.934 483.633 220.546C489.178 220.172 494.743 220.172 500.289 220.546Z" fill="#FFB700"/>
<path d="M514.375 238.049C508.829 238.423 503.264 238.423 497.719 238.049C503.264 237.675 508.829 237.675 514.375 238.049Z" fill="#FFB700"/>
<path d="M561.299 208.266C561.299 208.428 551.779 208.546 540.025 208.546C528.271 208.546 518.75 208.428 518.75 208.266C518.75 208.104 528.271 207.985 540.025 207.985C551.779 207.985 561.299 208.158 561.299 208.266Z" fill="#263238"/>
<path d="M548.174 221.215C548.174 221.377 538.643 221.496 526.9 221.496C515.157 221.496 505.625 221.377 505.625 221.215C505.625 221.053 515.146 220.935 526.9 220.935C538.654 220.935 548.174 221.107 548.174 221.215Z" fill="#263238"/>
<path d="M562.815 238.049C562.815 238.2 553.283 238.329 541.54 238.329C529.797 238.329 520.266 238.2 520.266 238.049C520.266 237.898 529.786 237.768 541.54 237.768C553.294 237.768 562.815 237.887 562.815 238.049Z" fill="#263238"/>
<path d="M523.971 253.037C523.971 253.188 514.45 253.318 502.697 253.318C490.943 253.318 481.422 253.188 481.422 253.037C481.422 252.886 490.954 252.757 502.697 252.757C514.44 252.757 523.971 252.886 523.971 253.037Z" fill="#263238"/>
<path d="M571.018 253.037C571.018 253.188 561.486 253.318 549.743 253.318C538 253.318 528.469 253.188 528.469 253.037C528.469 252.886 537.99 252.757 549.743 252.757C561.497 252.757 571.018 252.886 571.018 253.037Z" fill="#263238"/>
<path d="M523.971 257.904C523.971 258.055 514.45 258.185 502.697 258.185C490.943 258.185 481.422 258.055 481.422 257.904C481.422 257.753 490.943 257.624 502.697 257.624C514.45 257.624 523.971 257.764 523.971 257.904Z" fill="#263238"/>
<path d="M526.026 211.827C526.026 211.978 516.505 212.108 504.751 212.108C492.997 212.108 483.477 211.978 483.477 211.827C483.477 211.676 492.997 211.546 504.751 211.546C516.505 211.546 526.026 211.676 526.026 211.827Z" fill="#263238"/>
<path d="M514.677 208.352C511.034 208.726 507.362 208.726 503.719 208.352C507.362 207.978 511.034 207.978 514.677 208.352Z" fill="#455A64"/>
<path d="M492.701 233.549C489.058 233.923 485.385 233.923 481.742 233.549C485.385 233.175 489.058 233.175 492.701 233.549Z" fill="#455A64"/>
<path d="M492.443 238.049C488.8 238.423 485.128 238.423 481.484 238.049C485.128 237.675 488.8 237.675 492.443 238.049Z" fill="#455A64"/>
<path d="M587.399 192.587C587.399 192.749 560.885 192.867 528.172 192.867C495.46 192.867 468.945 192.749 468.945 192.587C468.945 192.425 495.46 192.306 528.172 192.306C560.885 192.306 587.399 192.436 587.399 192.587Z" fill="#263238"/>
<path d="M478.334 188.626C478.334 188.901 478.252 189.17 478.097 189.399C477.943 189.628 477.723 189.807 477.466 189.912C477.21 190.017 476.927 190.045 476.655 189.991C476.382 189.938 476.132 189.805 475.935 189.61C475.739 189.416 475.605 189.168 475.55 188.898C475.496 188.628 475.524 188.348 475.63 188.093C475.737 187.839 475.917 187.621 476.148 187.469C476.379 187.316 476.651 187.234 476.929 187.234C477.114 187.232 477.297 187.268 477.468 187.337C477.639 187.406 477.795 187.509 477.926 187.638C478.056 187.768 478.16 187.922 478.23 188.092C478.3 188.261 478.335 188.443 478.334 188.626Z" fill="white"/>
<path d="M484.357 188.626C484.357 188.901 484.275 189.17 484.121 189.399C483.966 189.628 483.747 189.807 483.49 189.912C483.233 190.017 482.951 190.045 482.678 189.991C482.405 189.938 482.155 189.805 481.958 189.61C481.762 189.416 481.628 189.168 481.574 188.898C481.52 188.628 481.547 188.348 481.654 188.093C481.76 187.839 481.94 187.621 482.171 187.469C482.402 187.316 482.674 187.234 482.952 187.234C483.137 187.232 483.32 187.268 483.492 187.337C483.663 187.406 483.818 187.509 483.949 187.638C484.08 187.768 484.183 187.922 484.253 188.092C484.323 188.261 484.359 188.443 484.357 188.626Z" fill="white"/>
<path d="M490.396 188.626C490.396 188.901 490.314 189.17 490.16 189.399C490.005 189.628 489.786 189.807 489.529 189.912C489.272 190.017 488.99 190.045 488.717 189.991C488.444 189.938 488.194 189.805 487.998 189.61C487.801 189.416 487.667 189.168 487.613 188.898C487.559 188.628 487.587 188.348 487.693 188.093C487.799 187.839 487.979 187.621 488.21 187.469C488.442 187.316 488.713 187.234 488.991 187.234C489.176 187.232 489.359 187.268 489.531 187.337C489.702 187.406 489.857 187.509 489.988 187.638C490.119 187.768 490.222 187.922 490.292 188.092C490.363 188.261 490.398 188.443 490.396 188.626Z" fill="white"/>
<path d="M517.769 166.073H396.406L405.382 80.436H527.769L517.769 166.073Z" fill="#263238"/>
<path d="M511.597 166.073H390.234L399.21 80.436H521.597L511.597 166.073Z" fill="#455A64"/>
<path d="M507.081 162.199H394.477L402.799 82.7344H516.362L507.081 162.199Z" fill="#FAFAFA"/>
<path d="M406.858 148.915C406.705 148.915 407.827 136.937 409.363 122.219C410.899 107.5 412.261 95.5541 412.424 95.5757C412.588 95.5973 411.455 107.543 409.919 122.273C408.383 137.002 407.021 148.915 406.858 148.915Z" fill="#263238"/>
<path d="M427.37 98.198C423.61 98.5721 419.822 98.5721 416.062 98.198C419.822 97.824 423.61 97.824 427.37 98.198Z" fill="#263238"/>
<path d="M475.463 98.198C475.463 98.3491 465.386 98.4786 452.946 98.4786C440.506 98.4786 430.43 98.3491 430.43 98.198C430.43 98.047 440.506 97.9175 452.946 97.9175C465.386 97.9175 475.463 98.0146 475.463 98.198Z" fill="#FFB700"/>
<path d="M426.026 126.416C422.266 126.79 418.478 126.79 414.719 126.416C418.478 126.042 422.266 126.042 426.026 126.416Z" fill="#263238"/>
<path d="M474.135 126.416C474.135 126.567 464.047 126.697 451.618 126.697C439.189 126.697 429.102 126.567 429.102 126.416C429.102 126.265 439.178 126.136 451.618 126.136C464.058 126.136 474.135 126.254 474.135 126.416Z" fill="#FFB700"/>
<path d="M458.791 139.43C458.791 139.581 448.704 139.711 436.274 139.711C423.845 139.711 413.758 139.581 413.758 139.43C413.758 139.279 423.834 139.149 436.274 139.149C448.715 139.149 458.791 139.279 458.791 139.43Z" fill="#FFB700"/>
<path d="M432.342 106.151C427.047 106.525 421.732 106.525 416.438 106.151C421.732 105.777 427.047 105.777 432.342 106.151Z" fill="#FFB700"/>
<path d="M431.943 117.838C426.649 118.212 421.334 118.212 416.039 117.838C421.334 117.464 426.649 117.464 431.943 117.838Z" fill="#FFB700"/>
<path d="M445.381 134.542C440.086 134.916 434.771 134.916 429.477 134.542C434.771 134.168 440.086 134.168 445.381 134.542Z" fill="#FFB700"/>
<path d="M490.202 106.151C490.202 106.302 481.107 106.431 469.886 106.431C458.666 106.431 449.57 106.302 449.57 106.151C449.57 106 458.655 105.87 469.886 105.87C481.117 105.87 490.202 105.989 490.202 106.151Z" fill="#263238"/>
<path d="M477.663 118.517C477.663 118.668 468.567 118.798 457.347 118.798C446.127 118.798 437.031 118.668 437.031 118.517C437.031 118.366 446.127 118.237 457.347 118.237C468.567 118.237 477.663 118.356 477.663 118.517Z" fill="#263238"/>
<path d="M491.648 134.542C491.648 134.693 482.552 134.822 471.332 134.822C460.112 134.822 451.016 134.693 451.016 134.542C451.016 134.391 460.112 134.261 471.332 134.261C482.552 134.261 491.648 134.38 491.648 134.542Z" fill="#263238"/>
<path d="M454.545 148.915C454.545 149.066 445.449 149.196 434.229 149.196C423.009 149.196 413.945 149.012 413.945 148.915C413.945 148.818 423.041 148.635 434.261 148.635C445.482 148.635 454.545 148.7 454.545 148.915Z" fill="#263238"/>
<path d="M499.484 148.915C499.484 149.066 490.388 149.196 479.168 149.196C467.947 149.196 458.852 149.066 458.852 148.915C458.852 148.764 467.947 148.635 479.168 148.635C490.388 148.635 499.484 148.7 499.484 148.915Z" fill="#263238"/>
<path d="M454.546 153.512C454.546 153.674 445.45 153.793 434.23 153.793C423.01 153.793 413.914 153.674 413.914 153.512C413.914 153.351 423.01 153.232 434.23 153.232C445.45 153.232 454.546 153.361 454.546 153.512Z" fill="#263238"/>
<path d="M456.515 109.507C456.515 109.658 447.419 109.788 436.199 109.788C424.979 109.788 415.883 109.658 415.883 109.507C415.883 109.356 424.979 109.227 436.199 109.227C447.419 109.227 456.515 109.345 456.515 109.507Z" fill="#263238"/>
<path d="M445.687 106.194C442.208 106.568 438.698 106.568 435.219 106.194C438.698 105.82 442.208 105.82 445.687 106.194Z" fill="#455A64"/>
<path d="M424.695 130.247C421.216 130.621 417.706 130.621 414.227 130.247C417.706 129.873 421.216 129.873 424.695 130.247Z" fill="#455A64"/>
<path d="M424.461 134.542C420.981 134.916 417.471 134.916 413.992 134.542C417.471 134.168 420.981 134.168 424.461 134.542Z" fill="#455A64"/>
<path d="M515.121 91.1297C515.121 91.2915 489.805 91.421 458.574 91.421C427.342 91.421 401.961 91.2915 401.961 91.1297C401.961 90.9678 427.277 90.8491 458.53 90.8491C489.783 90.8491 515.121 90.9786 515.121 91.1297Z" fill="#263238"/>
<path d="M409.645 88.6697C410.385 88.6697 410.984 88.0755 410.984 87.3424C410.984 86.6094 410.385 86.0151 409.645 86.0151C408.905 86.0151 408.305 86.6094 408.305 87.3424C408.305 88.0755 408.905 88.6697 409.645 88.6697Z" fill="white"/>
<path d="M415.395 88.6697C416.135 88.6697 416.734 88.0755 416.734 87.3424C416.734 86.6094 416.135 86.0151 415.395 86.0151C414.655 86.0151 414.055 86.6094 414.055 87.3424C414.055 88.0755 414.655 88.6697 415.395 88.6697Z" fill="white"/>
<path d="M421.145 88.6697C421.885 88.6697 422.484 88.0755 422.484 87.3424C422.484 86.6094 421.885 86.0151 421.145 86.0151C420.405 86.0151 419.805 86.6094 419.805 87.3424C419.805 88.0755 420.405 88.6697 421.145 88.6697Z" fill="white"/>
<path d="M312.182 489.575H302.727V502.352H312.182V489.575Z" fill="#263238"/>
<path d="M362.868 340.487H446.758V336.441H362.868V340.487Z" fill="#263238"/>
<path d="M459.754 340.487L475.495 282.076H409.983L395.734 340.487H459.754Z" fill="#263238"/>
<path d="M399.664 336.074H458.183L471.8 284.773H412.976L399.664 336.074Z" fill="#F5F5F5"/>
<path d="M414.432 294.712L410.805 309.237H449.607L453.746 294.712H414.432Z" fill="#E0E0E0"/>
<path d="M445.533 292.791C445.533 292.953 438.736 293.072 430.337 293.072C421.938 293.072 415.141 292.953 415.141 292.791C415.141 292.629 421.938 292.511 430.337 292.511C438.736 292.511 445.533 292.64 445.533 292.791Z" fill="#455A64"/>
<path d="M427.88 297.485C423.804 297.859 419.701 297.859 415.625 297.485C419.701 297.111 423.804 297.111 427.88 297.485Z" fill="#263238"/>
<path d="M437.7 297.259C435.056 297.633 432.371 297.633 429.727 297.259C432.371 296.885 435.056 296.885 437.7 297.259Z" fill="#263238"/>
<path d="M448.803 300.118C448.803 300.28 441.298 300.41 432.038 300.41C422.779 300.41 415.273 300.28 415.273 300.118C415.273 299.957 422.779 299.838 432.038 299.838C441.298 299.838 448.803 299.989 448.803 300.118Z" fill="#455A64"/>
<path d="M425.448 302.524C421.827 302.901 418.176 302.901 414.555 302.524C418.176 302.148 421.827 302.148 425.448 302.524Z" fill="#FFB700"/>
<path d="M445.796 305.967C445.796 306.118 438.835 306.248 430.251 306.248C421.667 306.248 414.695 306.118 414.695 305.967C414.695 305.816 421.656 305.687 430.251 305.687C438.846 305.687 445.796 305.805 445.796 305.967Z" fill="#455A64"/>
<path d="M422.912 313.402C418.927 313.773 414.915 313.773 410.93 313.402C414.915 313.031 418.927 313.031 422.912 313.402Z" fill="#455A64"/>
<path d="M433.195 313.456C431.843 313.717 430.462 313.801 429.088 313.704C427.714 313.787 426.335 313.678 424.992 313.38C426.344 313.119 427.725 313.036 429.099 313.132C430.473 313.049 431.852 313.158 433.195 313.456Z" fill="#263238"/>
<path d="M438.998 313.175C438.998 313.337 438.214 313.456 437.255 313.456C436.297 313.456 435.523 313.337 435.523 313.175C435.523 313.013 436.308 312.895 437.255 312.895C438.203 312.895 438.998 313.024 438.998 313.175Z" fill="#263238"/>
<path d="M414.933 316.38C414.933 316.542 414.072 316.661 413.016 316.661C411.959 316.661 411.109 316.542 411.109 316.38C411.109 316.218 411.97 316.1 413.016 316.1C414.061 316.1 414.933 316.229 414.933 316.38Z" fill="#FFB700"/>
<path d="M426.379 316.38C423.347 316.754 420.281 316.754 417.25 316.38C420.281 316.006 423.347 316.006 426.379 316.38Z" fill="#263238"/>
<path d="M453.648 316.035C453.648 316.197 448.201 316.316 441.458 316.316C434.715 316.316 429.258 316.197 429.258 316.035C429.258 315.873 434.704 315.754 441.458 315.754C448.212 315.754 453.648 315.884 453.648 316.035Z" fill="#455A64"/>
<path d="M414.351 319.477C414.351 319.628 413.48 319.758 412.391 319.758C411.301 319.758 410.43 319.628 410.43 319.477C410.43 319.326 411.301 319.197 412.391 319.197C413.48 319.197 414.351 319.315 414.351 319.477Z" fill="#263238"/>
<path d="M420.364 319.412C419.609 319.691 418.799 319.787 418 319.693C417.197 319.786 416.383 319.69 415.625 319.412C416.385 319.141 417.197 319.045 418 319.132C418.799 319.045 419.608 319.141 420.364 319.412Z" fill="#263238"/>
<path d="M438.285 319.132C433.168 319.506 428.031 319.506 422.914 319.132C428.031 318.758 433.168 318.758 438.285 319.132Z" fill="#455A64"/>
<path d="M428.801 324.517C425.709 324.794 422.602 324.888 419.498 324.797C416.394 324.888 413.288 324.795 410.195 324.517C413.287 324.232 416.394 324.139 419.498 324.236C422.602 324.139 425.709 324.233 428.801 324.517Z" fill="#455A64"/>
<path d="M439.666 324.279C436.868 324.653 434.032 324.653 431.234 324.279C434.032 323.905 436.868 323.905 439.666 324.279Z" fill="#FFB700"/>
<path d="M455.8 324.279C451.145 324.653 446.467 324.653 441.812 324.279C446.467 323.905 451.145 323.905 455.8 324.279Z" fill="#263238"/>
<path d="M452.07 292.565C452.07 292.727 451.416 292.845 450.621 292.845C449.825 292.845 449.172 292.727 449.172 292.565C449.172 292.403 449.825 292.284 450.621 292.284C451.416 292.284 452.07 292.435 452.07 292.565Z" fill="#263238"/>
<path d="M422.565 290.622C420.461 290.996 418.307 290.996 416.203 290.622C418.307 290.248 420.461 290.248 422.565 290.622Z" fill="#FFB700"/>
<path d="M470.816 288.464H411.992L412.983 284.773H471.807L470.816 288.464Z" fill="#EBEBEB"/>
<path d="M415.463 287.277C415.818 287.277 416.106 286.992 416.106 286.641C416.106 286.289 415.818 286.004 415.463 286.004C415.108 286.004 414.82 286.289 414.82 286.641C414.82 286.992 415.108 287.277 415.463 287.277Z" fill="#FAFAFA"/>
<path d="M417.674 287.277C418.029 287.277 418.317 286.992 418.317 286.641C418.317 286.289 418.029 286.004 417.674 286.004C417.319 286.004 417.031 286.289 417.031 286.641C417.031 286.992 417.319 287.277 417.674 287.277Z" fill="#FAFAFA"/>
<path d="M419.885 287.277C420.24 287.277 420.528 286.992 420.528 286.641C420.528 286.289 420.24 286.004 419.885 286.004C419.53 286.004 419.242 286.289 419.242 286.641C419.242 286.992 419.53 287.277 419.885 287.277Z" fill="#FAFAFA"/>
<path d="M542.509 345.926H403.031V426.545H542.509V345.926Z" fill="#263238"/>
<path d="M466.572 345.926H403.031V426.545H466.572V345.926Z" fill="#455A64"/>
<path d="M460.1 373.303C460.083 373.166 460.083 373.029 460.1 372.892V371.716C460.1 370.637 460.1 369.159 460.045 367.238C460.045 363.343 459.98 357.774 459.936 350.911L460.143 351.116L409.032 351.192L409.315 350.911V356.728C409.315 358.648 409.315 360.558 409.315 362.425C409.315 366.17 409.315 369.806 409.315 373.281L409.054 373.022L445.666 373.141L456.298 373.216H459.152H459.904H460.165H459.936H459.217H456.418L445.84 373.281L409.054 373.41H408.781V373.141C408.781 369.666 408.781 366.029 408.781 362.285V350.933L409.064 350.652L460.176 350.728H460.383V350.933C460.328 357.85 460.296 363.461 460.263 367.378C460.263 369.278 460.263 370.767 460.263 371.813V372.957C460.111 373.184 460.1 373.367 460.1 373.303Z" fill="#263238"/>
<path d="M436.712 362.112C436.57 361.5 436.225 360.953 435.732 360.558C435.467 360.375 435.161 360.258 434.84 360.219C434.519 360.179 434.193 360.218 433.891 360.332C433.527 360.471 433.214 360.715 432.993 361.032C432.771 361.35 432.652 361.726 432.649 362.112C432.654 362.498 432.775 362.873 432.997 363.19C433.218 363.507 433.529 363.752 433.891 363.893C434.195 364.002 434.52 364.038 434.841 363.997C435.161 363.955 435.467 363.838 435.732 363.655C436.221 363.258 436.566 362.712 436.712 362.102C436.712 362.102 436.81 362.296 436.712 362.652C436.625 363.169 436.35 363.637 435.939 363.968C435.627 364.221 435.255 364.39 434.858 364.46C434.462 364.53 434.054 364.498 433.673 364.368C433.196 364.206 432.782 363.9 432.49 363.494C432.197 363.088 432.039 362.601 432.039 362.102C432.039 361.602 432.197 361.115 432.49 360.709C432.782 360.303 433.196 359.997 433.673 359.835C434.053 359.704 434.46 359.67 434.857 359.738C435.253 359.806 435.626 359.974 435.939 360.224C436.35 360.555 436.625 361.023 436.712 361.54C436.821 361.918 436.745 362.112 436.712 362.112Z" fill="#263238"/>
<path d="M460.097 397.96C460.082 397.82 460.082 397.679 460.097 397.539V396.363C460.097 395.284 460.097 393.805 460.042 391.884C460.042 388 459.977 382.432 459.934 375.558L460.141 375.763L409.029 375.849L409.312 375.569V381.385C409.312 383.316 409.312 385.216 409.312 387.093C409.312 390.838 409.312 394.474 409.312 397.949L409.051 397.679L445.663 397.809L456.295 397.884H459.149H459.901H460.162H459.934H459.215H456.415L445.838 397.96L409.051 398.089H408.778V397.819C408.778 394.345 408.778 390.708 408.778 386.964V375.579C408.713 375.579 409.312 375.04 409.062 375.288L460.173 375.374H460.38V375.525C460.326 382.453 460.293 388.064 460.26 391.982C460.26 393.881 460.26 395.359 460.26 396.417V397.55C460.108 397.841 460.097 397.971 460.097 397.96Z" fill="#263238"/>
<path d="M436.712 386.759C436.559 386.16 436.215 385.627 435.732 385.237C435.442 385.032 435.1 384.91 434.744 384.883C434.389 384.857 434.033 384.928 433.715 385.088C433.397 385.248 433.129 385.492 432.941 385.792C432.754 386.092 432.652 386.438 432.649 386.791C432.652 387.177 432.771 387.554 432.993 387.871C433.214 388.189 433.527 388.433 433.891 388.572C434.193 388.686 434.519 388.724 434.84 388.685C435.161 388.645 435.467 388.529 435.732 388.345C436.223 387.949 436.568 387.402 436.712 386.791C436.712 386.791 436.81 386.985 436.712 387.342C436.625 387.859 436.35 388.327 435.939 388.658C435.627 388.91 435.255 389.079 434.858 389.149C434.462 389.219 434.054 389.188 433.673 389.057C433.196 388.895 432.782 388.59 432.49 388.184C432.197 387.777 432.039 387.291 432.039 386.791C432.039 386.292 432.197 385.805 432.49 385.399C432.782 384.993 433.196 384.687 433.673 384.525C434.054 384.395 434.462 384.363 434.858 384.433C435.255 384.503 435.627 384.672 435.939 384.924C436.35 385.256 436.625 385.724 436.712 386.241C436.821 386.565 436.745 386.759 436.712 386.759Z" fill="#263238"/>
<path d="M460.1 422.606C460.083 422.47 460.083 422.332 460.1 422.196V421.02C460.1 419.941 460.1 418.463 460.045 416.542C460.045 412.646 459.98 407.078 459.936 400.215L460.143 400.42L409.032 400.496L409.315 400.215V406.031C409.315 407.952 409.315 409.862 409.315 411.729C409.315 415.473 409.315 419.11 409.315 422.585L409.054 422.326L445.666 422.444L456.298 422.52H459.152H459.904H460.165H459.936H459.217H456.418L445.84 422.585L409.054 422.714H408.781V422.444C408.781 418.97 408.781 415.333 408.781 411.589V400.237L409.064 399.956L460.176 400.032H460.383V400.237C460.328 407.154 460.296 412.765 460.263 416.682C460.263 418.581 460.263 420.07 460.263 421.117V422.261C460.111 422.488 460.1 422.617 460.1 422.606Z" fill="#263238"/>
<path d="M436.712 411.416C436.57 410.804 436.225 410.257 435.732 409.862C435.467 409.679 435.161 409.562 434.84 409.522C434.519 409.483 434.193 409.522 433.891 409.636C433.527 409.774 433.214 410.018 432.993 410.336C432.771 410.654 432.652 411.03 432.649 411.416C432.652 411.769 432.754 412.115 432.941 412.415C433.129 412.716 433.397 412.959 433.715 413.119C434.033 413.28 434.389 413.35 434.744 413.324C435.1 413.298 435.442 413.175 435.732 412.97C436.221 412.572 436.566 412.026 436.712 411.416C436.712 411.416 436.81 411.61 436.712 411.966C436.625 412.484 436.35 412.952 435.939 413.283C435.627 413.535 435.255 413.704 434.858 413.774C434.462 413.844 434.054 413.812 433.673 413.682C433.196 413.52 432.782 413.215 432.49 412.808C432.197 412.402 432.039 411.915 432.039 411.416C432.039 410.917 432.197 410.43 432.49 410.024C432.782 409.617 433.196 409.312 433.673 409.15C434.053 409.018 434.46 408.985 434.857 409.053C435.253 409.121 435.626 409.288 435.939 409.538C436.35 409.87 436.625 410.338 436.712 410.855C436.821 411.222 436.745 411.416 436.712 411.416Z" fill="#263238"/>
<path d="M310.144 492.165L216.93 492.089V345.926H310.144V492.165Z" fill="#263238"/>
<path d="M547.574 340.304H212.43V347.965H547.574V340.304Z" fill="#263238"/>
<path d="M227.322 347.965H216.93V503.031H227.322V347.965Z" fill="#263238"/>
<path d="M542.509 347.965H532.117V503.075H542.509V347.965Z" fill="#263238"/>
<path d="M476.963 347.965H466.57V503.075H476.963V347.965Z" fill="#263238"/>
<path d="M259.557 340.304C259.557 340.455 249.567 340.585 237.247 340.585C224.927 340.585 214.938 340.455 214.938 340.304C214.938 340.153 224.927 340.023 237.247 340.023C249.567 340.023 259.557 340.142 259.557 340.304Z" fill="#455A64"/>
<path d="M357.553 495.478L357.814 484.395L336.845 483.77L336.289 499.956L337.585 500.075C343.359 500.571 366.997 502.168 370.886 501.154C375.244 499.988 357.553 495.478 357.553 495.478Z" fill="#FFB700"/>
<g opacity="0.4">
<path d="M366.18 497.992C366.18 497.992 372.379 499.956 371.562 500.96C370.745 501.963 346.812 501.219 336.289 499.989V499.525L364.209 500.604C364.209 500.604 364.928 498.003 366.18 497.992Z" fill="white"/>
</g>
<path d="M336 499.503H336.359L337.449 499.6L341.251 499.881C344.464 500.096 348.876 500.323 353.821 500.485C358.767 500.647 363.19 500.679 366.414 500.668C363.201 500.668 358.789 500.56 353.832 500.409C348.876 500.258 344.475 500.053 341.261 499.881L337.449 499.686H336.359L336 499.503Z" fill="#263238"/>
<path d="M364.227 500.927C364.414 500.306 364.673 499.708 365.001 499.147C365.395 498.633 365.844 498.163 366.341 497.744C365.705 498.001 365.163 498.443 364.786 499.011C364.408 499.579 364.214 500.247 364.227 500.927Z" fill="#263238"/>
<path d="M358.141 497.636C358.196 497.636 358.512 497.323 358.827 496.859C359.143 496.395 359.361 495.974 359.307 495.942C359.252 495.909 358.936 496.244 358.62 496.719C358.305 497.193 358.087 497.593 358.141 497.636Z" fill="#263238"/>
<path d="M356.473 496.697C356.473 496.697 356.855 496.535 357.225 496.222C357.596 495.909 357.857 495.618 357.813 495.564C357.77 495.51 357.432 495.726 357.062 496.039C356.691 496.352 356.43 496.643 356.473 496.697Z" fill="#263238"/>
<path d="M355.461 494.701C355.808 494.833 356.179 494.892 356.55 494.873C356.915 494.929 357.288 494.899 357.64 494.787C357.292 494.657 356.921 494.598 356.55 494.614C355.951 494.593 355.461 494.625 355.461 494.701Z" fill="#263238"/>
<path d="M355.125 493.309C355.482 493.552 355.902 493.687 356.334 493.698C356.759 493.78 357.199 493.735 357.598 493.568C357.189 493.485 356.773 493.445 356.356 493.449C355.952 493.357 355.539 493.31 355.125 493.309Z" fill="#263238"/>
<path d="M358.914 495.845C359.357 495.92 359.81 495.92 360.254 495.845C360.744 495.797 361.229 495.706 361.703 495.575C361.989 495.501 362.267 495.396 362.531 495.262C362.694 495.178 362.819 495.035 362.879 494.863C362.905 494.765 362.901 494.662 362.868 494.566C362.835 494.47 362.775 494.386 362.694 494.323C362.187 494.058 361.604 493.974 361.042 494.086C360.48 494.198 359.975 494.499 359.611 494.938C359.397 495.199 359.237 495.5 359.143 495.823C359.119 495.941 359.119 496.062 359.143 496.179C359.299 495.786 359.52 495.422 359.796 495.1C360.108 494.759 360.513 494.515 360.962 494.399C361.499 494.242 362.076 494.296 362.574 494.55C362.781 494.712 362.683 494.96 362.443 495.1C362.199 495.22 361.943 495.317 361.681 495.392C361.221 495.533 360.751 495.641 360.276 495.715C359.481 495.813 358.914 495.802 358.914 495.845Z" fill="#263238"/>
<path d="M359.247 495.92C359.421 495.647 359.487 495.321 359.432 495.003C359.403 494.649 359.287 494.308 359.094 494.01C358.988 493.81 358.833 493.64 358.642 493.515C358.452 493.39 358.232 493.316 358.005 493.298C357.867 493.322 357.743 493.398 357.662 493.511C357.58 493.625 357.547 493.765 357.569 493.902C357.597 494.117 357.671 494.323 357.787 494.506C357.951 494.807 358.156 495.083 358.397 495.327C358.6 495.572 358.857 495.768 359.149 495.898C359.149 495.898 358.887 495.65 358.528 495.208C358.322 494.957 358.143 494.686 357.994 494.399C357.82 494.107 357.7 493.6 358.048 493.546C358.397 493.492 358.713 493.87 358.909 494.14C359.094 494.404 359.217 494.707 359.269 495.024C359.293 495.323 359.285 495.623 359.247 495.92Z" fill="#263238"/>
<path d="M336.602 493.827C336.602 493.881 337.212 493.827 338.148 493.935C339.382 494.101 340.541 494.613 341.49 495.411C342.44 496.208 343.14 497.257 343.508 498.435C343.649 498.928 343.766 499.429 343.857 499.934C343.884 499.796 343.884 499.653 343.857 499.514C343.819 499.149 343.754 498.789 343.66 498.435C343.323 497.201 342.615 496.098 341.631 495.271C340.647 494.444 339.432 493.933 338.148 493.805C337.765 493.767 337.378 493.767 336.994 493.805C336.863 493.797 336.731 493.804 336.602 493.827Z" fill="#263238"/>
<path d="M339.041 485.248C338.857 486.662 338.752 488.085 338.725 489.51C338.624 490.947 338.606 492.388 338.67 493.827C338.854 492.413 338.96 490.99 338.986 489.564C339.093 488.128 339.111 486.687 339.041 485.248Z" fill="#263238"/>
<path d="M346.594 498.1C347.588 498.365 348.614 498.499 349.644 498.499C350.67 498.578 351.702 498.527 352.716 498.348C352.716 498.273 351.343 498.348 349.655 498.251C347.966 498.154 346.605 498.035 346.594 498.1Z" fill="#263238"/>
<path d="M342.484 497.971C342.484 497.971 342.582 498.262 342.713 498.575C342.844 498.888 342.909 499.179 342.985 499.168C343.062 499.158 343.105 498.845 342.985 498.489C342.866 498.132 342.528 497.927 342.484 497.971Z" fill="#263238"/>
<path d="M340.961 496.018C340.961 496.018 341.037 496.287 341.244 496.514C341.451 496.741 341.669 496.881 341.723 496.827C341.778 496.773 341.647 496.568 341.429 496.341C341.211 496.115 341.048 495.974 340.961 496.018Z" fill="#263238"/>
<path d="M338.781 495.078C338.781 495.154 339.075 495.154 339.38 495.273C339.685 495.391 339.903 495.553 339.958 495.51C340.012 495.467 339.849 495.176 339.468 495.035C339.086 494.895 338.781 495.014 338.781 495.078Z" fill="#263238"/>
<path d="M337.234 494.614C337.234 494.679 337.332 494.787 337.496 494.863C337.659 494.938 337.834 494.938 337.855 494.863C337.877 494.787 337.768 494.679 337.594 494.614C337.42 494.55 337.267 494.55 337.234 494.614Z" fill="#263238"/>
<g opacity="0.3">
<path d="M336.643 493.277L357.602 493.568L357.646 491.064L336.523 491.949L336.643 493.277Z" fill="black"/>
</g>
<path d="M390.624 497.204V486.111L369.643 486.036L369.523 502.222L370.82 502.308C376.604 502.643 400.232 503.625 404.142 502.481C408.434 501.24 390.624 497.204 390.624 497.204Z" fill="#FFB700"/>
<g opacity="0.4">
<path d="M399.313 499.481C399.313 499.481 405.555 501.294 404.76 502.309C403.965 503.323 380.032 503.226 369.477 502.309V501.845L397.407 502.201C397.407 502.201 398.093 499.535 399.313 499.481Z" fill="white"/>
</g>
<path d="M369.195 501.78H369.555L370.59 501.845L374.402 502.028C377.616 502.157 382.028 502.276 386.984 502.298C391.941 502.319 396.352 502.298 399.577 502.157L403.389 502.017L404.424 501.952H404.784H403.389L399.577 502.006C396.309 502.006 391.897 502.104 386.984 502.082C382.071 502.06 377.627 501.963 374.402 501.888L370.59 501.78H369.195Z" fill="#263238"/>
<path d="M397.45 502.481C397.613 501.853 397.855 501.248 398.169 500.679C398.547 500.148 398.985 499.663 399.476 499.233C398.82 499.469 398.277 499.938 397.951 500.549C397.545 501.108 397.366 501.798 397.45 502.481Z" fill="#263238"/>
<path d="M391.278 499.341C391.332 499.341 391.626 499.017 391.942 498.542C392.258 498.067 392.443 497.657 392.389 497.614C392.334 497.571 392.029 497.938 391.724 498.413C391.419 498.888 391.212 499.298 391.278 499.341Z" fill="#263238"/>
<path d="M389.575 498.445C389.575 498.445 389.956 498.273 390.316 497.96C390.675 497.647 390.937 497.334 390.893 497.28C390.85 497.226 390.512 497.453 390.152 497.766C389.793 498.078 389.531 498.391 389.575 498.445Z" fill="#263238"/>
<path d="M388.508 496.481C388.857 496.603 389.228 496.651 389.597 496.622C389.964 496.666 390.336 496.629 390.686 496.514C390.686 496.438 390.207 496.374 389.597 496.374C388.987 496.374 388.508 496.384 388.508 496.481Z" fill="#263238"/>
<path d="M388.148 495.089C388.51 495.326 388.935 495.45 389.368 495.445C389.796 495.53 390.24 495.473 390.632 495.284C390.221 495.221 389.806 495.192 389.39 495.197C388.98 495.125 388.565 495.089 388.148 495.089Z" fill="#263238"/>
<path d="M391.992 497.528C392.435 497.611 392.889 497.611 393.332 497.528C393.821 497.475 394.303 497.37 394.77 497.215C395.058 497.141 395.336 497.033 395.598 496.891C395.759 496.798 395.88 496.648 395.936 496.471C395.955 496.372 395.946 496.27 395.91 496.176C395.873 496.083 395.81 496.001 395.729 495.942C395.215 495.689 394.63 495.621 394.071 495.749C393.513 495.877 393.017 496.193 392.668 496.643C392.464 496.908 392.313 497.208 392.221 497.528C392.192 497.649 392.192 497.774 392.221 497.895C392.366 497.504 392.576 497.139 392.842 496.816C393.148 496.465 393.548 496.207 393.997 496.071C394.525 495.899 395.101 495.942 395.598 496.19C395.816 496.352 395.729 496.6 395.489 496.74C395.25 496.871 394.998 496.976 394.737 497.053C394.282 497.204 393.816 497.323 393.343 497.409C392.504 497.463 391.992 497.463 391.992 497.528Z" fill="#263238"/>
<path d="M392.346 497.603C392.504 497.321 392.558 496.993 392.499 496.675C392.462 496.324 392.339 495.987 392.139 495.693C392.028 495.501 391.87 495.338 391.68 495.219C391.49 495.101 391.274 495.03 391.05 495.014C390.982 495.027 390.917 495.053 390.859 495.091C390.801 495.129 390.751 495.178 390.713 495.235C390.674 495.292 390.648 495.357 390.634 495.424C390.621 495.492 390.622 495.561 390.636 495.629C390.667 495.841 390.745 496.044 390.865 496.222C391.039 496.518 391.252 496.79 391.497 497.032C391.911 497.442 392.248 497.603 392.259 497.571C392.27 497.539 391.998 497.334 391.627 496.913C391.413 496.661 391.224 496.39 391.061 496.104C390.876 495.823 390.756 495.316 391.061 495.262C391.366 495.208 391.736 495.564 391.943 495.823C392.135 496.083 392.265 496.381 392.325 496.697C392.358 496.998 392.365 497.301 392.346 497.603Z" fill="#263238"/>
<path d="M369.641 496.104C369.641 496.104 370.24 496.05 371.187 496.169C372.423 496.31 373.593 496.792 374.564 497.561C375.529 498.338 376.257 499.365 376.667 500.528C376.983 501.413 377.015 502.017 377.059 502.007C377.08 501.867 377.08 501.725 377.059 501.586C377.018 501.22 376.946 500.859 376.841 500.507C376.469 499.283 375.732 498.199 374.727 497.398C373.722 496.597 372.496 496.116 371.209 496.018C370.825 495.982 370.439 495.982 370.055 496.018C369.782 496.05 369.641 496.082 369.641 496.104Z" fill="#263238"/>
<path d="M371.85 487.46C371.698 488.894 371.633 490.335 371.654 491.776C371.58 493.215 371.598 494.657 371.708 496.093C371.854 494.659 371.919 493.218 371.904 491.776C371.978 490.338 371.96 488.896 371.85 487.46Z" fill="#263238"/>
<path d="M379.742 500.118C380.745 500.353 381.774 500.458 382.803 500.431C383.833 500.482 384.866 500.402 385.875 500.193C385.875 500.129 384.492 500.193 382.803 500.193C381.115 500.193 379.753 500.042 379.742 500.118Z" fill="#263238"/>
<path d="M375.625 500.086C375.625 500.139 375.745 500.377 375.876 500.69C376.006 501.003 376.093 501.283 376.17 501.273C376.246 501.262 376.279 500.949 376.115 500.593C375.952 500.237 375.679 500.042 375.625 500.086Z" fill="#263238"/>
<path d="M374.09 498.176C374.035 498.176 374.177 498.435 374.395 498.661C374.613 498.888 374.82 499.017 374.874 498.964C374.929 498.91 374.787 498.705 374.569 498.478C374.351 498.251 374.144 498.122 374.09 498.176Z" fill="#263238"/>
<path d="M371.876 497.291C371.876 497.366 372.17 497.366 372.475 497.474C372.78 497.582 373.009 497.744 373.063 497.701C373.118 497.658 372.944 497.366 372.562 497.237C372.181 497.107 371.854 497.226 371.876 497.291Z" fill="#263238"/>
<path d="M370.297 496.87C370.297 496.934 370.395 497.042 370.569 497.118C370.744 497.193 370.907 497.183 370.929 497.118C370.95 497.053 370.831 496.945 370.656 496.88C370.482 496.816 370.373 496.805 370.297 496.87Z" fill="#263238"/>
<g opacity="0.3">
<path d="M369.671 495.543L390.63 495.294L390.608 492.791L369.508 494.226L369.671 495.543Z" fill="black"/>
</g>
<path d="M344.305 307.316L352.703 332.362C354.969 339.128 360.939 340.293 368.139 340.293H414.861V329.901L372.181 323.869L362.006 298.122L344.305 307.316Z" fill="#FFBE9D"/>
<path d="M420.001 327.754L423.705 326.017C423.705 326.017 427.703 318.366 428.618 318.679C429.533 318.992 429.805 321.236 428.204 324.743L433.127 323.351C433.127 323.351 443.803 328.24 443.335 328.898C442.866 329.556 441.984 331.121 439.663 329.977C437.343 328.833 434.282 327.409 434.282 327.409L428.531 329.038L435.949 329.977L442.931 336.257C442.931 336.257 440.633 337.962 438.661 336.16L420.535 340.012L414.859 340.336V329.945L420.001 327.754Z" fill="#FFBE9D"/>
<path d="M438.659 336.128C438.582 336.128 438.245 335.642 437.569 334.941C437.184 334.539 436.74 334.196 436.251 333.926C435.636 333.635 434.971 333.463 434.29 333.419C432.448 333.295 430.624 332.988 428.844 332.502C430.689 332.44 432.536 332.563 434.356 332.869C435.118 332.915 435.862 333.125 436.534 333.484C437.058 333.797 437.52 334.203 437.896 334.682C438.275 335.088 438.539 335.587 438.659 336.128Z" fill="#EB996E"/>
<path d="M435.827 336.84C435.751 336.84 435.697 336.473 435.195 336.365C434.694 336.257 433.845 336.171 433.017 336.084C431.95 336.068 430.886 335.963 429.836 335.772C430.885 335.409 432.011 335.323 433.104 335.523C433.878 335.59 434.642 335.746 435.381 335.987C435.51 336.035 435.626 336.111 435.721 336.21C435.815 336.309 435.885 336.429 435.925 336.559C435.925 336.754 435.86 336.851 435.827 336.84Z" fill="#EB996E"/>
<path d="M304.858 204.295L302.32 255.206L324.325 257.257L325.545 244.955C325.545 244.955 333.301 246.854 335.654 239.743C337.168 235.2 338.508 199.611 338.508 199.611L304.858 204.295Z" fill="#FFBE9D"/>
<path d="M340.405 205.503C341.015 210.273 334.294 213.057 334.294 213.057L333.117 224.334C332.065 224.259 331.01 224.259 329.958 224.334C330.525 219.046 323.64 220.082 322.943 223.686C322.246 227.29 326.211 229.47 326.211 229.47C323.466 233.646 322.344 235.858 318.444 239.775C314.217 244.016 311.908 244.362 307.55 244.232L302.747 244.016C302.747 244.016 301.025 239.948 299.773 230.333C299.174 225.715 295.524 219.65 296.57 212.14C299.511 190.784 320.165 193.04 320.165 193.04C330.96 193.266 338.989 194.453 340.405 205.503Z" fill="#263238"/>
<path d="M324.617 193.59C329.28 193.709 334.116 194.075 338.212 196.288C342.308 198.5 345.467 203.064 344.628 207.607L342.297 208.028L341.338 206.323C341.338 207.23 341.338 208.136 341.338 209.043L337.243 210.176C336.626 206.711 335.395 203.383 333.604 200.345" fill="#263238"/>
<path d="M305.73 217.017C305.568 216.772 305.446 216.502 305.37 216.219C305.106 215.464 304.909 214.687 304.782 213.899C304.339 211.279 304.524 208.593 305.32 206.058C306.117 203.522 307.503 201.206 309.368 199.298C309.918 198.717 310.519 198.186 311.165 197.712C311.392 197.516 311.649 197.359 311.928 197.248C311.982 197.324 310.98 198.068 309.662 199.557C307.95 201.497 306.663 203.768 305.882 206.226C305.133 208.693 304.903 211.286 305.207 213.845C305.414 215.819 305.828 216.985 305.73 217.017Z" fill="#455A64"/>
<path d="M310.069 215.237C309.647 214.416 309.357 213.535 309.209 212.625C308.725 210.451 308.582 208.217 308.784 206C308.973 203.775 309.502 201.592 310.353 199.525C310.66 198.652 311.105 197.832 311.671 197.097C310.498 199.956 309.718 202.957 309.351 206.021C309.174 209.111 309.416 212.21 310.069 215.237Z" fill="#455A64"/>
<path d="M338.161 207.338C338.052 207.338 337.866 206.021 336.973 204.1C335.826 201.568 333.987 199.403 331.663 197.851C329.34 196.299 326.625 195.421 323.825 195.317C321.646 195.219 320.35 195.543 320.328 195.446C320.615 195.302 320.924 195.208 321.243 195.165C322.097 194.998 322.966 194.918 323.836 194.928C326.744 194.924 329.586 195.785 331.994 197.399C334.402 199.013 336.266 201.306 337.344 203.982C337.672 204.778 337.917 205.606 338.073 206.453C338.152 206.741 338.181 207.04 338.161 207.338Z" fill="#455A64"/>
<path d="M306.417 189.468C307.647 189.726 308.758 190.378 309.576 191.324C310.531 192.135 311.184 193.241 311.428 194.464C311.275 194.529 310.567 193.083 309.173 191.712C307.779 190.342 306.341 189.63 306.417 189.468Z" fill="#263238"/>
<path d="M311.546 189.489C311.709 189.543 311.371 190.687 311.437 192.101C311.502 193.514 311.894 194.615 311.742 194.69C311.129 193.977 310.817 193.057 310.87 192.122C310.74 191.191 310.983 190.246 311.546 189.489Z" fill="#455A64"/>
<path d="M340.348 301.856L343.932 313.909L366.743 303.69C365.926 301.165 362.146 289.921 354.934 272.073C352.96 267.18 349.748 262.873 345.605 259.567C341.463 256.262 336.531 254.068 331.285 253.199C324.093 251.899 316.807 251.177 309.498 251.041C296.709 251.181 277.908 259.102 275.359 271.544C273.42 281.018 275.282 297.755 275.282 318.085L276.949 356.933L342.483 359.091L340.348 301.856Z" fill="#FFB700"/>
<g opacity="0.3">
<path d="M275.32 309.107C283.294 310.726 291.475 309.107 299.602 308.622C304.525 308.33 309.994 307.802 313.894 310.78C316.987 313.154 318.251 317.157 319.122 320.934C322.521 335.319 323.131 344.966 323.894 359.717L284.449 362.091L275.32 309.107Z" fill="black"/>
</g>
<path d="M353.017 268.35C353.017 268.512 335.805 268.63 314.585 268.63C293.365 268.63 276.164 268.512 276.164 268.35C276.164 268.188 293.365 268.069 314.585 268.069C335.805 268.069 353.017 268.199 353.017 268.35Z" fill="#FAFAFA"/>
<path d="M357.802 279.26C357.802 279.411 339.087 279.54 316.026 279.54C292.965 279.54 274.25 279.411 274.25 279.26C274.25 279.109 292.943 278.979 316.026 278.979C339.109 278.979 357.802 279.109 357.802 279.26Z" fill="#FAFAFA"/>
<path d="M363.839 292.942C363.839 293.104 343.882 293.223 319.263 293.223C294.644 293.223 274.688 293.104 274.688 292.942C274.688 292.78 294.644 292.662 319.263 292.662C343.882 292.662 363.839 292.791 363.839 292.942Z" fill="#FAFAFA"/>
<path d="M339.87 307.704C339.87 307.855 333.628 307.985 325.948 307.985C318.268 307.985 312.016 307.855 312.016 307.704C312.016 307.553 318.247 307.424 325.948 307.424C333.65 307.424 339.87 307.543 339.87 307.704Z" fill="#FAFAFA"/>
<path d="M341.143 323.729C341.143 323.88 334.607 323.955 326.567 323.891C318.528 323.826 311.992 323.653 311.992 323.491C311.992 323.329 318.528 323.265 326.567 323.329C334.607 323.394 341.143 323.545 341.143 323.729Z" fill="#FAFAFA"/>
<path d="M341.78 336.732C341.403 336.8 341.019 336.818 340.637 336.786L337.51 336.721C334.874 336.667 331.236 336.592 327.216 336.592C323.196 336.592 319.591 336.656 316.922 336.71L313.795 336.775C313.412 336.825 313.024 336.825 312.641 336.775C313.012 336.667 313.397 336.609 313.784 336.602C314.514 336.527 315.582 336.451 316.9 336.376C319.536 336.214 323.185 336.084 327.216 336.084C331.246 336.084 334.896 336.225 337.521 336.387C338.839 336.462 339.907 336.548 340.647 336.624C341.028 336.615 341.408 336.651 341.78 336.732Z" fill="#FAFAFA"/>
<path d="M341.571 347.264C341.571 347.415 335.144 347.545 327.214 347.545C319.283 347.545 312.867 347.415 312.867 347.264C312.867 347.113 319.283 346.983 327.214 346.983C335.144 346.983 341.571 347.102 341.571 347.264Z" fill="#FAFAFA"/>
<path d="M343.523 257.656C343.523 257.818 330.909 257.937 315.353 257.937C299.797 257.937 287.172 257.818 287.172 257.656C287.172 257.494 299.786 257.375 315.353 257.375C330.919 257.375 343.523 257.505 343.523 257.656Z" fill="#FAFAFA"/>
<path d="M342.049 259.685C342.049 259.749 341.396 259.782 340.306 260.203C338.795 260.859 337.489 261.907 336.526 263.235C335.137 265.23 334.354 267.578 334.272 270.001C334.189 272.981 334.422 275.961 334.969 278.893C335.885 284.262 337.107 289.576 338.629 294.809C339.163 296.762 339.609 298.37 339.947 299.59C340.131 300.169 340.272 300.76 340.372 301.359C340.111 300.811 339.899 300.24 339.74 299.654C339.37 298.575 338.847 296.924 338.237 294.917C336.616 289.693 335.342 284.368 334.424 278.979C333.878 276.004 333.659 272.979 333.77 269.958C333.884 267.449 334.74 265.028 336.232 262.997C337.253 261.635 338.649 260.594 340.252 259.998C340.687 259.851 341.136 259.75 341.592 259.695C341.743 259.67 341.897 259.667 342.049 259.685Z" fill="#263238"/>
<path d="M366.015 300.604C364.999 301.306 363.924 301.92 362.801 302.438C360.775 303.518 357.932 304.866 354.751 306.291C351.57 307.715 348.651 308.902 346.515 309.712C345.38 310.197 344.207 310.591 343.008 310.888C344.086 310.292 345.208 309.776 346.363 309.345C348.454 308.438 351.352 307.186 354.522 305.784C357.692 304.381 360.546 303.032 362.616 302.082C363.714 301.514 364.849 301.02 366.015 300.604Z" fill="#263238"/>
<path d="M297.183 357.569L375.484 360.31C381.593 360.527 387.374 363.107 391.585 367.497C395.797 371.886 398.104 377.736 398.011 383.791L394.743 494.571L364.493 493.579L366.748 389.856L297.172 388.043L297.183 357.569Z" fill="#263238"/>
<path d="M264.828 357.569L343.14 360.31C349.25 360.527 355.03 363.107 359.242 367.497C363.453 371.886 365.76 377.736 365.668 383.791L362.4 494.571L331.746 492.165L334.426 389.856L264.85 388.043L264.828 357.569Z" fill="#263238"/>
<path d="M323.436 397.809H315.734V489.219H323.436V397.809Z" fill="#455A64"/>
<path d="M251.102 309.085V376.378C251.102 380.616 252.801 384.681 255.827 387.678C258.852 390.676 262.956 392.359 267.235 392.359H312.475V309.085C312.475 308.15 312.289 307.224 311.927 306.36C311.566 305.496 311.036 304.711 310.369 304.049C309.701 303.388 308.909 302.863 308.036 302.506C307.164 302.148 306.229 301.963 305.285 301.963H258.291C257.347 301.963 256.412 302.148 255.54 302.506C254.668 302.863 253.875 303.388 253.207 304.049C252.54 304.711 252.01 305.496 251.649 306.36C251.288 307.224 251.102 308.15 251.102 309.085Z" fill="#455A64"/>
<path d="M373.349 397.809H263.195C263.195 394.661 264.458 391.642 266.705 389.416C268.952 387.19 272 385.939 275.178 385.939H361.42C364.598 385.939 367.646 387.19 369.894 389.416C372.141 391.642 373.403 394.661 373.403 397.809H373.349Z" fill="#455A64"/>
<path d="M312.478 384.396C312.491 384.568 312.491 384.741 312.478 384.913C312.469 385.408 312.407 385.9 312.293 386.381C311.929 387.905 311.126 389.291 309.981 390.369C308.836 391.448 307.398 392.173 305.844 392.456C304.397 392.61 302.941 392.664 301.486 392.618H291.584C284.558 392.618 278.196 392.618 273.599 392.553L268.153 392.478L266.671 392.424C266.496 392.421 266.321 392.403 266.148 392.37C266.318 392.322 266.495 392.3 266.671 392.305L268.153 392.251L273.599 392.154C278.196 392.1 284.558 392.068 291.584 392.057H301.476C302.903 392.114 304.333 392.081 305.757 391.96C306.963 391.756 308.105 391.276 309.09 390.557C310.546 389.494 311.595 387.972 312.064 386.241C312.445 385.108 312.412 384.396 312.478 384.396Z" fill="#263238"/>
<path d="M326.339 398.046C324.096 398.33 321.833 398.424 319.574 398.327C317.319 398.424 315.059 398.33 312.82 398.046C315.06 397.769 317.319 397.675 319.574 397.766C321.833 397.675 324.096 397.769 326.339 398.046Z" fill="#263238"/>
<path d="M359.852 392.942C359.529 391.885 359.303 390.802 359.177 389.705C358.807 387.633 358.316 384.622 357.728 380.91C357.14 377.198 356.737 372.698 354.667 368.241C353.583 365.923 352.21 363.748 350.582 361.767C348.802 359.665 346.734 357.82 344.438 356.285C342.151 354.733 339.639 353.536 336.987 352.735C334.518 351.954 331.952 351.515 329.362 351.429C324.384 351.321 319.83 351.343 316.039 351.267C312.248 351.192 309.166 351.159 307.041 351.095C305.947 351.12 304.853 351.044 303.773 350.868C304.854 350.7 305.948 350.628 307.041 350.652C309.166 350.587 312.238 350.523 316.039 350.479C319.841 350.436 324.34 350.339 329.395 350.404C334.981 350.534 340.411 352.253 345.037 355.357C347.426 356.944 349.569 358.867 351.399 361.065C353.083 363.13 354.493 365.4 355.593 367.821C355.844 368.392 356.051 368.986 356.279 369.558L356.606 370.421C356.682 370.713 356.77 371.004 356.846 371.295C357.009 371.867 357.173 372.439 357.325 373C357.478 373.561 357.532 374.133 357.641 374.684C358.022 376.896 358.229 378.924 358.491 380.802C358.97 384.525 359.351 387.557 359.58 389.64C359.771 390.73 359.862 391.835 359.852 392.942Z" fill="#455A64"/>
<path d="M353.268 497.463H352.179C352.258 493.15 351.469 488.865 349.858 484.857C348.247 480.849 345.845 477.2 342.794 474.122C339.743 471.044 336.104 468.599 332.088 466.93C328.072 465.261 323.761 464.401 319.406 464.401C315.052 464.401 310.741 465.261 306.725 466.93C302.709 468.599 299.07 471.044 296.019 474.122C292.967 477.2 290.566 480.849 288.955 484.857C287.343 488.865 286.554 493.15 286.634 497.463H285.545C285.464 493.008 286.28 488.581 287.946 484.441C289.611 480.301 292.092 476.532 295.245 473.352C298.397 470.173 302.157 467.648 306.306 465.924C310.454 464.2 314.908 463.312 319.406 463.312C323.905 463.312 328.359 464.2 332.507 465.924C336.656 467.648 340.416 470.173 343.568 473.352C346.72 476.532 349.202 480.301 350.867 484.441C352.533 488.581 353.349 493.008 353.268 497.463Z" fill="#455A64"/>
<path d="M291.168 499.168C291.168 500.163 290.87 501.135 290.313 501.962C289.755 502.789 288.962 503.433 288.035 503.814C287.107 504.195 286.086 504.294 285.102 504.1C284.117 503.906 283.212 503.427 282.502 502.724C281.792 502.021 281.309 501.125 281.113 500.149C280.917 499.174 281.018 498.163 281.402 497.244C281.786 496.325 282.437 495.54 283.272 494.987C284.106 494.435 285.088 494.14 286.092 494.14C286.759 494.138 287.42 494.267 288.036 494.52C288.653 494.772 289.213 495.142 289.685 495.609C290.156 496.077 290.53 496.631 290.785 497.242C291.039 497.853 291.17 498.507 291.168 499.168Z" fill="#263238"/>
<path d="M358.051 498.478C358.051 499.472 357.753 500.445 357.196 501.272C356.638 502.098 355.845 502.743 354.917 503.124C353.99 503.504 352.969 503.604 351.984 503.41C351 503.216 350.095 502.737 349.385 502.034C348.675 501.33 348.192 500.434 347.996 499.459C347.8 498.483 347.901 497.472 348.285 496.553C348.669 495.635 349.32 494.849 350.154 494.297C350.989 493.744 351.971 493.449 352.975 493.449C354.321 493.449 355.612 493.979 356.564 494.922C357.516 495.865 358.051 497.144 358.051 498.478Z" fill="#263238"/>
<path d="M352.943 489.219C352.943 489.381 338.204 489.51 320.034 489.51C301.864 489.51 287.125 489.381 287.125 489.219C287.125 489.057 301.853 488.938 320.034 488.938C338.215 488.938 352.943 489.068 352.943 489.219Z" fill="#455A64"/>
<path d="M240.522 279.238C241.325 279.741 242.018 280.398 242.561 281.171C243.103 281.944 243.484 282.816 243.681 283.737C244.053 285.593 243.994 287.509 243.506 289.338C242.678 292.877 240.238 296.266 237.624 298.877C234.89 295.888 234.726 291.205 234.792 288.82C234.901 285.054 237.417 278.31 240.522 279.238Z" fill="#FFB700"/>
<path d="M240.483 305.222C240.4 304.176 240.597 303.126 241.054 302.179C241.512 301.232 242.212 300.42 243.086 299.827C243.974 299.246 244.97 298.847 246.015 298.65C247.06 298.454 248.135 298.465 249.176 298.683C249.664 298.734 250.135 298.889 250.557 299.139C250.978 299.389 251.34 299.727 251.616 300.129C251.808 300.543 251.885 301 251.839 301.454C251.793 301.907 251.626 302.34 251.354 302.708C250.792 303.443 250.039 304.014 249.176 304.359C246.332 305.697 243.337 306.517 240.461 305.244" fill="#FFB700"/>
<path d="M235.883 313.121C236.034 312.33 236.267 311.556 236.58 310.812C236.884 309.985 237.291 309.199 237.789 308.471C238.359 307.561 238.992 306.692 239.685 305.87C240.958 304.356 242.59 303.177 244.434 302.438C244.995 302.234 245.575 302.086 246.166 301.996C246.383 301.96 246.603 301.96 246.82 301.996C246.82 302.071 245.905 302.169 244.543 302.741C242.789 303.534 241.237 304.707 240.001 306.172C239.317 306.978 238.684 307.825 238.105 308.708C237.606 309.411 237.183 310.163 236.841 310.952C236.574 311.697 236.254 312.422 235.883 313.121Z" fill="#263238"/>
<path d="M239.067 284.536C239.108 284.942 239.108 285.35 239.067 285.756C239.067 286.532 238.958 287.666 238.86 289.058C238.653 291.852 238.316 295.705 237.858 299.956C237.401 304.208 236.856 308.028 236.409 310.747C236.181 312.129 235.995 313.24 235.843 313.985C235.787 314.387 235.696 314.784 235.571 315.172C235.567 314.763 235.603 314.354 235.68 313.952C235.799 313.111 235.941 311.999 236.115 310.715C236.486 307.942 236.976 304.111 237.444 299.859C237.913 295.608 238.272 291.842 238.534 288.993C238.675 287.655 238.795 286.543 238.882 285.691C238.915 285.302 238.977 284.916 239.067 284.536Z" fill="#263238"/>
<path d="M235.713 306.075C235.293 303.891 234.354 301.837 232.976 300.083C231.597 298.328 229.817 296.924 227.783 295.985C226.693 295.521 225.397 295.23 224.569 295.985C223.741 296.74 223.959 298.143 224.395 299.168C225.344 301.333 226.92 303.169 228.923 304.446C230.926 305.724 233.266 306.384 235.647 306.344" fill="#FFB700"/>
<path d="M228.578 299.201C228.784 299.264 228.979 299.358 229.155 299.481C231.358 300.734 233.275 302.424 234.787 304.445C235.383 305.339 235.828 306.323 236.105 307.359C236.32 308.205 236.419 309.076 236.4 309.949C236.384 310.533 236.315 311.114 236.193 311.686C236.164 311.901 236.105 312.112 236.018 312.312C235.931 312.312 236.127 311.394 236.105 309.949C236.084 309.107 235.964 308.27 235.746 307.456C235.454 306.468 235.013 305.529 234.439 304.672C233.338 303.129 231.996 301.77 230.463 300.647C229.805 300.204 229.176 299.721 228.578 299.201Z" fill="#263238"/>
<path d="M235.351 340.304C231.739 340.301 228.275 338.877 225.722 336.346C223.169 333.815 221.734 330.383 221.734 326.804V313.315H248.968V326.804C248.968 330.383 247.533 333.815 244.98 336.346C242.427 338.877 238.963 340.301 235.351 340.304Z" fill="#263238"/>
<path d="M248.979 319.952C248.869 320.09 248.745 320.217 248.608 320.33L247.519 321.333L243.369 324.808L243.27 324.883L243.151 324.819L235.297 320.146H235.525L228.129 324.808L228.02 324.883L227.911 324.797L223.39 321.29L222.148 320.297C221.995 320.185 221.855 320.055 221.734 319.909C221.912 319.981 222.077 320.079 222.225 320.2C222.573 320.448 223.009 320.761 223.532 321.117L228.14 324.506H227.922L235.231 319.736L235.351 319.661L235.471 319.725L243.325 324.495H243.107L247.323 321.117L248.51 320.189C248.815 320.038 248.968 319.93 248.979 319.952Z" fill="#E0E0E0"/>
<path d="M248.982 317.254C248.872 317.392 248.748 317.519 248.612 317.632L247.522 318.635L243.415 322.142L243.317 322.218L243.198 322.153L235.3 317.448H235.529L228.176 322.164L228.067 322.239L227.958 322.153L223.437 318.646L222.195 317.653C222.041 317.541 221.902 317.411 221.781 317.265C221.959 317.337 222.124 317.435 222.271 317.556L223.579 318.473L228.187 321.862H227.969L235.278 317.092L235.398 317.017L235.518 317.081L243.372 321.851H243.154L247.37 318.473L248.557 317.545C248.819 317.34 248.971 317.254 248.982 317.254Z" fill="#E0E0E0"/>
<path d="M248.982 322.65C248.982 322.65 248.863 322.801 248.612 323.038L247.523 324.031L243.416 327.538L243.318 327.624L243.198 327.549L235.3 322.898H235.529L228.176 327.614L228.067 327.689L227.958 327.614C226.139 326.189 224.603 325.002 223.438 324.107L222.196 323.103C221.913 322.866 221.771 322.736 221.782 322.715C221.956 322.792 222.121 322.89 222.272 323.006C222.621 323.265 223.056 323.567 223.579 323.934L228.187 327.311H227.969L235.279 322.542L235.399 322.466L235.518 322.542L243.372 327.301H243.155L247.37 323.912L248.558 322.995C248.683 322.862 248.826 322.746 248.982 322.65Z" fill="#E0E0E0"/>
<path d="M601.919 371.986C596.276 372.893 593.749 379.756 594.294 385.399C594.838 391.043 597.137 396.568 596.472 402.19C595.677 409.344 590.22 415.387 589.588 422.553C588.836 431.002 594.871 438.502 596.669 446.789C597.551 450.825 597.431 455.098 598.945 458.94C600.238 462.212 602.636 464.938 605.731 466.655C608.826 468.371 612.426 468.971 615.917 468.353C619.409 467.734 622.575 465.935 624.878 463.262C627.18 460.589 628.475 457.208 628.542 453.695C628.662 447.221 624.621 441.102 625.111 434.628C625.471 429.847 628.303 425.315 627.704 420.599C626.974 414.934 621.68 410.888 619.806 405.492C617.932 400.097 619.741 394.14 619.087 388.464C617.932 378.288 612.235 371.198 601.93 372.008" fill="#FFB700"/>
<path d="M573.1 421.268C572.131 430.699 576.368 441.771 581.238 449.94C586.193 458.145 593.661 464.571 602.556 468.284C603.547 468.694 604.789 469.04 605.628 468.371C605.926 468.048 606.15 467.664 606.284 467.247C606.417 466.829 606.458 466.388 606.401 465.953C606.474 455.942 603.267 446.178 597.263 438.125C591.259 430.072 582.781 424.165 573.1 421.29" fill="#FFB700"/>
<g opacity="0.2">
<path d="M573.1 421.268C572.131 430.699 576.368 441.771 581.238 449.94C586.193 458.145 593.661 464.571 602.556 468.284C603.547 468.694 604.789 469.04 605.628 468.371C605.926 468.048 606.15 467.664 606.284 467.247C606.417 466.829 606.458 466.388 606.401 465.953C606.474 455.942 603.267 446.178 597.263 438.125C591.259 430.072 582.781 424.165 573.1 421.29" fill="black"/>
</g>
<path d="M614.57 487.978C614.456 487.818 614.364 487.644 614.298 487.46L613.611 485.906C613.045 484.568 612.184 482.669 611.095 480.241C608.259 474.047 605.106 468 601.651 462.123C598.172 456.253 594.398 450.559 590.343 445.062C588.786 442.958 587.5 441.264 586.596 440.109C586.182 439.57 585.834 439.117 585.572 438.761C585.444 438.61 585.33 438.447 585.234 438.275C585.234 438.275 585.398 438.404 585.648 438.696L586.738 439.98C587.696 441.059 589.025 442.753 590.627 444.836C598.965 455.719 605.954 467.556 611.444 480.09C612.533 482.496 613.296 484.46 613.808 485.831L614.396 487.417C614.471 487.598 614.529 487.786 614.57 487.978Z" fill="#263238"/>
<path d="M608.439 398.079C608.5 398.377 608.536 398.68 608.548 398.985C608.548 399.622 608.656 400.485 608.733 401.586C608.885 403.884 609.092 407.143 609.354 411.136C609.866 419.207 610.585 430.354 611.467 442.656C612.349 454.958 613.199 466.105 613.831 474.166C614.136 478.158 614.386 481.406 614.571 483.716C614.648 484.795 614.702 485.669 614.746 486.306C614.772 486.611 614.772 486.918 614.746 487.223C614.746 487.223 614.691 486.91 614.615 486.316C614.539 485.723 614.452 484.816 614.332 483.726C614.114 481.428 613.809 478.18 613.428 474.198C612.698 466.137 611.772 455.012 610.9 442.699C610.029 430.387 609.386 419.24 608.94 411.136C608.754 407.132 608.602 403.884 608.493 401.575C608.493 400.496 608.428 399.611 608.406 398.963C608.389 398.668 608.4 398.372 608.439 398.079Z" fill="#263238"/>
<path d="M599.68 474.532H623.525V491.873C623.522 494.879 622.315 497.761 620.168 499.886C618.021 502.01 615.111 503.204 612.076 503.204C609.147 503.205 606.33 502.094 604.204 500.098C602.078 498.102 600.805 495.375 600.649 492.478L599.68 474.532Z" fill="#263238"/>
<path d="M478.915 245.915L535.778 277.112L533.643 281.083L477.281 249.303L478.915 245.915Z" fill="#FFB700"/>
<path d="M476.117 242.969L478.732 239.009L480.257 239.937L477.915 243.929L476.117 242.969Z" fill="#FFB700"/>
<path d="M529.322 272.18L532.242 273.842L522.721 334.034L518.211 334.088L529.322 272.18Z" fill="#FFB700"/>
<path d="M505.102 340.304C505.102 340.304 512.041 333.354 521.322 333.829C523.974 333.925 526.581 334.54 528.993 335.638C531.405 336.737 533.573 338.296 535.374 340.228L505.102 340.304Z" fill="#FFB700"/>
<path d="M476.173 270.26L453.656 257.375L460.192 246.228C461.045 244.763 462.181 243.479 463.535 242.449C464.889 241.42 466.435 240.664 468.084 240.226C469.733 239.788 471.453 239.677 473.145 239.897C474.838 240.118 476.47 240.667 477.948 241.512C480.933 243.221 483.11 246.033 484.003 249.331C484.895 252.629 484.43 256.143 482.709 259.102L476.173 270.26Z" fill="#FFB700"/>
<defs>
<filter id="filter0_d_2377_2473" x="134.344" y="33.4517" width="552.664" height="547.548" filterUnits="userSpaceOnUse" color-interpolation-filters="sRGB">
<feFlood flood-opacity="0" result="BackgroundImageFix"/>
<feColorMatrix in="SourceAlpha" type="matrix" values="0 0 0 0 0 0 0 0 0 0 0 0 0 0 0 0 0 0 127 0" result="hardAlpha"/>
<feOffset dy="4"/>
<feGaussianBlur stdDeviation="2"/>
<feComposite in2="hardAlpha" operator="out"/>
<feColorMatrix type="matrix" values="0 0 0 0 0 0 0 0 0 0 0 0 0 0 0 0 0 0 0.25 0"/>
<feBlend mode="normal" in2="BackgroundImageFix" result="effect1_dropShadow_2377_2473"/>
<feBlend mode="normal" in="SourceGraphic" in2="effect1_dropShadow_2377_2473" result="shape"/>
</filter>
</defs>
</svg>
