<svg width="750" height="500" viewBox="0 0 750 500" fill="none" xmlns="http://www.w3.org/2000/svg">
<path d="M630.599 224.384L598.211 244.938L612.067 266.772L644.456 246.218L630.599 224.384Z" fill="white"/>
<path d="M644.464 246.2L644.194 245.8L643.444 244.65C642.784 243.65 641.824 242.16 640.614 240.27L630.484 224.45L630.684 224.5L598.324 245.08C598.324 245.14 598.424 244.59 598.324 244.83L598.384 244.92L598.494 245.11L598.724 245.47L599.184 246.2C599.494 246.68 599.804 247.2 600.104 247.64L601.914 250.5C603.114 252.39 604.304 254.26 605.454 256.09L612.104 266.58L611.874 266.53L635.224 251.81L641.924 247.61L643.714 246.5L644.184 246.22L644.354 246.12L644.214 246.22L643.774 246.51L642.024 247.64L635.524 252L612.164 266.9L612.004 267L611.904 266.86C609.794 263.53 607.564 260.02 605.234 256.37L601.694 250.79L599.874 247.93L598.964 246.49L598.504 245.76L598.264 245.4L598.154 245.22L598.094 245.12C598.034 245.35 598.164 244.8 598.154 244.86L630.554 224.33L630.684 224.25L630.764 224.38C634.964 231.05 638.404 236.54 640.764 240.38C641.944 242.26 642.864 243.74 643.504 244.77L644.214 245.91C644.394 246.07 644.464 246.2 644.464 246.2Z" fill="#E0E0E0"/>
<path d="M630.6 224.37C630.584 224.529 630.554 224.686 630.51 224.84C630.43 225.19 630.32 225.63 630.19 226.19C629.88 227.39 629.45 229.07 628.93 231.12C627.81 235.33 626.29 241.12 624.59 247.51V247.66H624.43L623.23 247.54L605.56 245.78L600.21 245.2L598.76 245.02C598.588 245.007 598.418 244.981 598.25 244.94C598.419 244.918 598.591 244.918 598.76 244.94L600.22 245.04L605.59 245.5L623.27 247.16L624.47 247.27L624.27 247.41C626.01 241 627.57 235.25 628.72 231.06C629.29 229.01 629.72 227.35 630.09 226.15L630.48 224.82C630.51 224.668 630.551 224.517 630.6 224.37Z" fill="#E0E0E0"/>
<path d="M662.944 176.78C663.944 180.33 663.204 182.78 661.054 183.4C660.751 183.505 660.43 183.546 660.11 183.521C659.79 183.495 659.48 183.403 659.197 183.251C658.915 183.098 658.668 182.889 658.471 182.636C658.274 182.382 658.132 182.091 658.054 181.78C657.831 182.621 657.384 183.386 656.76 183.993C656.137 184.6 655.361 185.028 654.514 185.23C653.117 185.528 651.658 185.282 650.436 184.542C649.214 183.802 648.32 182.623 647.938 181.246C647.555 179.87 647.712 178.399 648.376 177.134C649.041 175.869 650.163 174.905 651.514 174.44C652.324 174.173 653.19 174.126 654.024 174.301C654.858 174.477 655.631 174.87 656.264 175.44L655.674 173.32L657.004 173L659.224 180.93C659.554 182.1 660.224 182.35 660.964 182.15C662.264 181.79 662.644 179.95 661.854 177.15C660.474 172.24 656.034 169.97 650.974 171.38C645.914 172.79 643.314 177.23 644.704 182.18C646.094 187.13 650.514 189.64 655.594 188.18C656.981 187.802 658.266 187.119 659.354 186.18L659.994 187.1C658.806 188.123 657.406 188.87 655.894 189.29C650.144 190.9 645.104 188.04 643.554 182.5C642.004 176.96 644.904 171.93 650.674 170.32C656.444 168.71 661.414 171.3 662.944 176.78ZM657.154 178.65C656.895 177.882 656.415 177.208 655.776 176.711C655.137 176.213 654.366 175.914 653.558 175.85C652.751 175.786 651.942 175.961 651.233 176.352C650.524 176.744 649.945 177.335 649.568 178.052C649.191 178.769 649.033 179.581 649.113 180.387C649.193 181.193 649.508 181.958 650.019 182.587C650.529 183.216 651.213 183.681 651.986 183.925C652.758 184.169 653.585 184.181 654.364 183.96C654.915 183.825 655.432 183.575 655.879 183.226C656.326 182.877 656.693 182.436 656.957 181.934C657.221 181.432 657.375 180.879 657.409 180.313C657.443 179.747 657.356 179.18 657.154 178.65Z" fill="#EBEBEB"/>
<path d="M671.443 218.344L666.562 240.841L699.936 248.081L704.817 225.584L671.443 218.344Z" fill="#EBEBEB"/>
<path d="M704.813 225.6C704.704 225.691 704.587 225.771 704.463 225.84L703.413 226.49L699.523 228.83L686.523 236.49L686.403 236.57L686.313 236.46L685.623 235.63L675.533 223.46L672.533 219.75L671.713 218.75C671.617 218.633 671.53 218.51 671.453 218.38C671.573 218.473 671.68 218.58 671.773 218.7L672.623 219.7L675.733 223.35C678.363 226.47 681.943 230.74 685.903 235.46L686.583 236.28H686.373L699.373 228.7L703.313 226.45L704.383 225.86C704.512 225.751 704.657 225.664 704.813 225.6Z" fill="#E0E0E0"/>
<path d="M666.562 241C668.818 238.912 671.188 236.953 673.662 235.13C676.034 233.171 678.515 231.348 681.093 229.67C678.83 231.753 676.456 233.713 673.982 235.54C671.614 237.499 669.137 239.322 666.562 241Z" fill="#E0E0E0"/>
<path d="M699.933 248.09C699.428 247.44 698.992 246.74 698.633 246C697.883 244.67 696.893 242.83 695.813 240.78C694.733 238.73 693.813 236.85 693.133 235.47C692.719 234.748 692.384 233.983 692.133 233.19C692.633 233.834 693.065 234.527 693.423 235.26C694.163 236.59 695.173 238.44 696.243 240.5C697.313 242.56 698.243 244.44 698.943 245.82C699.353 246.539 699.685 247.3 699.933 248.09Z" fill="#E0E0E0"/>
<path d="M516.396 296.241L503.164 324.551L545.163 344.181L558.395 315.87L516.396 296.241Z" fill="white"/>
<path d="M545.155 344.16C545.155 344.16 545.225 343.97 545.385 343.63L546.065 342.11L548.695 336.39C550.975 331.45 554.235 324.39 558.215 315.77L558.305 316.02L516.305 296.43L516.605 296.32V296.38L516.545 296.5L516.435 296.74L516.215 297.21L515.775 298.15C515.485 298.78 515.195 299.4 514.895 300.03L513.165 303.73L509.705 311C507.495 315.74 505.355 320.29 503.335 324.6L503.235 324.33L533.415 338.54L542.055 342.64L544.355 343.74L544.945 344.03L545.155 344.14L544.955 344.07L544.375 343.81L542.095 342.81L533.455 338.81L503.065 324.72L502.875 324.63L502.965 324.45L509.305 310.83C510.418 308.456 511.545 306.043 512.685 303.59C513.265 302.37 513.835 301.13 514.415 299.88C514.715 299.26 515.005 298.64 515.295 298.01L515.735 297.07L515.955 296.6L516.065 296.36L516.125 296.24V296.18L516.425 296.07L558.425 315.74L558.595 315.81L558.515 315.98C554.445 324.59 551.105 331.67 548.765 336.61C547.615 339.04 546.705 340.95 546.075 342.26L545.365 343.73C545.235 344 545.155 344.16 545.155 344.16Z" fill="#E0E0E0"/>
<path d="M558.383 315.85C558.212 315.943 558.031 316.017 557.843 316.07L556.263 316.61L550.413 318.53L530.903 324.78L530.713 324.83L530.633 324.66L529.963 323.37L520.273 304.21L517.383 298.39L516.613 296.79C516.509 296.612 516.432 296.42 516.383 296.22C516.5 296.39 516.606 296.567 516.703 296.75C516.913 297.15 517.193 297.66 517.543 298.31L520.543 304.07L530.353 323.16L531.013 324.46L530.743 324.34L550.293 318.24L556.193 316.45L557.793 315.98C557.985 315.918 558.183 315.875 558.383 315.85Z" fill="#E0E0E0"/>
<path d="M503.086 324.78C503.026 324.65 508.086 322.16 514.306 319.22C520.526 316.28 525.676 314.01 525.736 314.14C525.796 314.27 520.736 316.76 514.526 319.69C508.316 322.62 503.156 324.91 503.086 324.78Z" fill="#E0E0E0"/>
<path d="M545.15 344.16C544.733 343.128 544.398 342.065 544.15 340.98C543.57 338.98 542.82 336.25 542.01 333.21C541.2 330.17 540.51 327.4 540.01 325.39C539.699 324.305 539.468 323.199 539.32 322.08C539.743 323.106 540.078 324.167 540.32 325.25C540.89 327.25 541.65 329.98 542.46 333.04C543.27 336.1 543.97 338.86 544.46 340.88C544.774 341.954 545.004 343.051 545.15 344.16Z" fill="#E0E0E0"/>
<path d="M597.381 108.12L585.156 139.332L631.461 157.469L643.686 126.258L597.381 108.12Z" fill="#EBEBEB"/>
<path d="M643.706 126.26C643.527 126.371 643.336 126.462 643.136 126.53L641.486 127.22L635.356 129.68L614.896 137.68L614.706 137.76L614.596 137.58L613.806 136.24L602.116 116.4L598.626 110.4C598.236 109.72 597.936 109.17 597.696 108.75C597.577 108.566 597.479 108.368 597.406 108.16C597.548 108.327 597.672 108.508 597.776 108.7C598.036 109.11 598.376 109.64 598.776 110.31C599.666 111.76 600.896 113.79 602.406 116.31C605.406 121.41 609.616 128.37 614.206 136.07L615.006 137.41L614.716 137.31L635.226 129.44L641.406 127.12L643.096 126.51C643.292 126.409 643.496 126.325 643.706 126.26Z" fill="#E0E0E0"/>
<path d="M585.126 139.6C585.056 139.47 590.266 136.47 596.756 132.9C603.246 129.33 608.576 126.54 608.646 126.67C608.716 126.8 603.506 129.79 597.006 133.36C590.506 136.93 585.196 139.72 585.126 139.6Z" fill="#E0E0E0"/>
<path d="M631.477 157.47C630.961 156.389 630.524 155.273 630.167 154.13C629.427 152.05 628.427 149.13 627.357 145.95C626.287 142.77 625.357 139.84 624.697 137.72C624.367 136.66 624.107 135.8 623.937 135.2C623.814 134.88 623.743 134.542 623.727 134.2C624.239 135.274 624.674 136.383 625.027 137.52C625.767 139.6 626.767 142.52 627.837 145.71C628.907 148.9 629.837 151.85 630.517 153.97C630.847 155.03 631.107 155.89 631.267 156.48C631.383 156.798 631.453 157.131 631.477 157.47Z" fill="#E0E0E0"/>
<path d="M648.543 303.762L599.852 313.873L606.666 346.693L655.358 336.582L648.543 303.762Z" fill="#EBEBEB"/>
<path d="M648.532 303.77C648.442 303.959 648.335 304.14 648.212 304.31C647.952 304.68 647.612 305.18 647.212 305.79L643.422 311.2L630.662 329.09L630.542 329.25L630.362 329.16L628.962 328.47L608.332 318.24L602.112 315.09L600.432 314.22C600.228 314.126 600.033 314.012 599.852 313.88C600.065 313.945 600.273 314.028 600.472 314.13L602.192 314.93L608.482 317.93L629.162 328L630.562 328.69L630.262 328.76L643.132 311L647.052 305.68L648.132 304.25C648.251 304.079 648.385 303.918 648.532 303.77Z" fill="#E0E0E0"/>
<path d="M606.762 346.94C606.632 346.88 609.362 341.52 612.842 334.94C616.322 328.36 619.262 323.16 619.392 323.23C619.522 323.3 616.792 328.65 613.302 335.23C609.812 341.81 606.892 347 606.762 346.94Z" fill="#E0E0E0"/>
<path d="M655.342 336.59C654.32 335.967 653.344 335.272 652.422 334.51C650.662 333.17 648.252 331.29 645.602 329.19C642.952 327.09 640.602 325.19 638.872 323.75C638.022 323.05 637.332 322.47 636.872 322.05C636.609 321.856 636.373 321.628 636.172 321.37C637.187 321.989 638.156 322.681 639.072 323.44C640.832 324.78 643.252 326.66 645.912 328.76C648.572 330.86 650.912 332.76 652.662 334.21C653.512 334.92 654.202 335.5 654.662 335.91C655.122 336.32 655.372 336.56 655.342 336.59Z" fill="#E0E0E0"/>
<path d="M323.204 78.1637L263.125 90.6382L271.533 131.134L331.612 118.66L323.204 78.1637Z" fill="#EBEBEB"/>
<path d="M323.213 78.1797C323.093 78.4097 322.956 78.6303 322.803 78.8397C322.493 79.3097 322.073 79.9097 321.563 80.6697L316.883 87.3397L301.153 109.41L301.003 109.62L300.773 109.51L299.043 108.66L273.593 95.9997L265.913 92.1097L263.843 91.0297C263.592 90.9145 263.354 90.7738 263.133 90.6097C263.396 90.6879 263.65 90.7917 263.893 90.9197L266.013 91.9197L273.783 95.6397L299.313 108.1L301.003 109L300.623 109.1C306.843 100.49 312.433 92.7697 316.513 87.0997L321.343 80.5297L322.673 78.7697C322.83 78.553 323.011 78.355 323.213 78.1797Z" fill="#E0E0E0"/>
<path d="M271.67 131.45C271.51 131.37 274.87 124.76 279.17 116.69C283.47 108.62 287.09 102.15 287.25 102.23C287.41 102.31 284 108.92 279.74 117C275.48 125.08 271.82 131.53 271.67 131.45Z" fill="#E0E0E0"/>
<path d="M331.609 118.67C330.349 117.902 329.146 117.043 328.009 116.1C325.829 114.45 322.859 112.1 319.589 109.55C316.319 107 313.399 104.55 311.289 102.84C310.229 101.96 309.379 101.25 308.799 100.74C308.219 100.23 307.909 99.9301 307.939 99.8901C309.192 100.658 310.388 101.513 311.519 102.45C313.689 104.1 316.68 106.45 319.95 109.02C323.22 111.59 326.169 114.02 328.279 115.74C329.339 116.62 330.179 117.33 330.759 117.84C331.339 118.35 331.639 118.64 331.609 118.67Z" fill="#E0E0E0"/>
<path d="M284.353 425.79C263.753 413.79 257.263 388.86 256.173 366.08C255.993 362.28 255.253 358.32 256.783 354.84C258.313 351.36 262.333 348.75 265.863 350.07C268.783 351.17 270.283 354.34 272.083 356.92C274.482 360.36 277.802 363.053 281.663 364.69C284.183 365.74 287.233 366.26 289.513 364.75C292.633 362.68 292.643 358.13 292.313 354.36C291.693 347.34 291.076 340.317 290.463 333.29C290.123 329.52 289.803 325.67 290.683 321.99C291.563 318.31 293.883 314.78 297.383 313.48C300.883 312.18 305.493 313.89 306.553 317.48C306.993 318.99 306.813 320.61 307.043 322.17C307.273 323.73 308.153 325.4 309.673 325.71C311.193 326.02 312.673 324.84 313.673 323.64C317.253 319.52 319.493 314.39 321.563 309.31C323.633 304.23 325.623 299.05 328.813 294.6C332.003 290.15 336.623 286.47 341.993 285.72C347.363 284.97 353.393 287.84 355.193 293.03C356.993 298.22 354.343 303.88 351.313 308.46C346.832 315.257 341.389 321.367 335.153 326.6C334.033 327.54 332.823 328.6 332.483 329.99C331.873 332.57 334.483 334.87 337.003 335.5C339.893 336.2 342.923 335.66 345.883 335.77C348.843 335.88 352.143 336.91 353.483 339.6C355.343 343.33 352.483 347.6 349.483 350.54C343.557 356.356 336.677 361.111 329.143 364.6C326.453 365.84 323.613 366.97 321.533 369.1C319.453 371.23 318.383 374.74 319.953 377.28C321.523 379.82 325.053 380.4 327.953 379.62C330.853 378.84 333.283 377.05 335.953 375.78C340.953 373.4 347.703 373.21 351.383 377.42C353.803 380.18 354.333 384.27 353.523 387.87C352.528 391.432 350.828 394.758 348.523 397.65C341.013 408.08 331.023 416.79 319.343 421.95C307.663 427.11 296.613 429.14 284.343 425.75" fill="#EBEBEB"/>
<path d="M285.43 442.65C285.625 432.032 286.837 421.457 289.05 411.07C291.806 398.387 295.288 385.873 299.48 373.59C300.58 370.323 301.66 367.097 302.72 363.91C303.8 360.73 304.86 357.58 306.09 354.57C308.459 348.782 311.146 343.13 314.14 337.64C316.96 332.38 319.83 327.49 322.55 322.94C325.27 318.39 327.9 314.2 330.45 310.48C334.452 304.595 338.913 299.034 343.79 293.85C345.51 292.02 346.9 290.64 347.85 289.72L348.93 288.72C349.049 288.595 349.18 288.481 349.32 288.38C349.222 288.523 349.108 288.654 348.98 288.77L347.98 289.86C347.06 290.81 345.71 292.22 343.98 294.08C339.189 299.315 334.8 304.904 330.85 310.8C328.33 314.53 325.74 318.73 323.03 323.28C320.32 327.83 317.49 332.73 314.69 337.99C311.717 343.466 309.046 349.101 306.69 354.87C305.47 357.87 304.42 360.99 303.35 364.17C302.28 367.35 301.21 370.59 300.11 373.85C295.932 386.11 292.436 398.593 289.64 411.24C287.41 421.586 286.155 432.119 285.89 442.7" fill="#E0E0E0"/>
<path d="M306.286 354.52C306.067 354.011 305.9 353.482 305.786 352.94C305.506 351.94 305.146 350.42 304.726 348.56C303.886 344.85 302.896 339.69 301.836 333.99C300.776 328.29 299.716 323.15 298.836 319.47C298.396 317.62 298.026 316.13 297.756 315.1C297.582 314.574 297.465 314.031 297.406 313.48C297.662 313.963 297.864 314.472 298.006 315C298.366 316 298.806 317.48 299.316 319.31C300.316 322.98 301.466 328.12 302.536 333.83C303.606 339.54 304.536 344.54 305.226 348.43C305.566 350.19 305.846 351.67 306.076 352.85C306.208 353.397 306.279 353.957 306.286 354.52Z" fill="#E0E0E0"/>
<path d="M354.007 341.49C353.385 341.685 352.745 341.816 352.097 341.88C350.857 342.1 349.097 342.39 346.877 342.83C342.477 343.68 336.437 345.05 329.877 346.83C323.317 348.61 317.387 350.56 313.157 352.06C311.037 352.8 309.337 353.44 308.157 353.87C307.558 354.137 306.936 354.344 306.297 354.49C306.854 354.15 307.44 353.859 308.047 353.62C309.197 353.1 310.877 352.39 312.977 351.62C317.177 350 323.067 348.01 329.687 346.18C335.328 344.611 341.045 343.329 346.817 342.34C349.037 341.97 350.817 341.74 352.087 341.61C352.723 341.518 353.365 341.478 354.007 341.49Z" fill="#E0E0E0"/>
<path d="M289.574 410.13C289.425 409.955 289.297 409.764 289.194 409.56L288.194 407.88C287.354 406.41 286.194 404.25 284.804 401.57C282.004 396.21 278.384 388.68 274.494 380.32C270.604 371.96 267.084 364.4 264.404 359L261.214 352.6C260.874 351.9 260.584 351.33 260.354 350.85C260.24 350.652 260.153 350.44 260.094 350.22C260.094 350.22 260.254 350.4 260.474 350.79C260.694 351.18 261.064 351.79 261.474 352.47C262.314 353.94 263.474 356.09 264.864 358.78C267.654 364.14 271.284 371.67 275.174 380.04C279.064 388.41 282.614 395.95 285.284 401.36C286.604 403.99 287.674 406.16 288.474 407.77C288.824 408.46 289.104 409.04 289.334 409.51C289.44 409.705 289.521 409.914 289.574 410.13Z" fill="#E0E0E0"/>
<path d="M352.3 384.09C352.107 384.22 351.899 384.328 351.68 384.41L349.86 385.19L343.14 387.99C337.47 390.35 329.68 393.71 321.07 397.43C312.46 401.15 304.63 404.43 298.91 406.69C296.05 407.82 293.72 408.69 292.11 409.29L290.24 409.94C290.027 410.034 289.801 410.098 289.57 410.13C289.761 409.995 289.97 409.887 290.19 409.81L292 409L298.71 406.2C304.38 403.84 312.18 400.48 320.79 396.75C329.4 393.02 337.23 389.75 342.95 387.49C345.81 386.37 348.13 385.49 349.75 384.9L351.62 384.24C351.84 384.161 352.068 384.11 352.3 384.09Z" fill="#E0E0E0"/>
<path d="M700.633 441.93C700.633 442.08 557.323 442.19 380.633 442.19C203.943 442.19 60.5625 442.08 60.5625 441.93C60.5625 441.78 203.833 441.67 380.633 441.67C557.433 441.67 700.633 441.79 700.633 441.93Z" fill="#263238"/>
<path d="M174.33 111C172.191 107.727 169.617 104.76 166.68 102.18C165.38 101.04 163.76 99.8902 161.87 100.1C161.166 100.202 160.493 100.457 159.897 100.845C159.301 101.234 158.797 101.747 158.42 102.35C157.753 103.487 157.331 104.751 157.18 106.06C157.093 106.953 156.856 107.826 156.48 108.64C156.262 109.073 155.944 109.447 155.553 109.732C155.162 110.017 154.708 110.205 154.23 110.28C153.559 110.274 152.891 110.214 152.23 110.1C151.178 110.128 150.169 110.519 149.372 111.206C148.576 111.893 148.042 112.834 147.86 113.87C147.54 115.79 147.77 116.8 147.86 119.43L174.33 111Z" fill="#FFC440"/>
<g opacity="0.3">
<path d="M174.33 111C172.191 107.727 169.617 104.76 166.68 102.18C165.38 101.04 163.76 99.8902 161.87 100.1C161.166 100.202 160.493 100.457 159.897 100.845C159.301 101.234 158.797 101.747 158.42 102.35C157.753 103.487 157.331 104.751 157.18 106.06C157.093 106.953 156.856 107.826 156.48 108.64C156.262 109.073 155.944 109.447 155.553 109.732C155.162 110.017 154.708 110.205 154.23 110.28C153.559 110.274 152.891 110.214 152.23 110.1C151.178 110.128 150.169 110.519 149.372 111.206C148.576 111.893 148.042 112.834 147.86 113.87C147.54 115.79 147.77 116.8 147.86 119.43L174.33 111Z" fill="black"/>
</g>
<path d="M147.672 116.29C147.672 116.29 159.392 108.48 172.132 107.92L173.132 109.28L147.872 118.12L147.672 116.29Z" fill="#263238"/>
<path d="M148.001 116.62C145.835 117.637 143.769 118.856 141.831 120.26C140.514 121.124 139.426 122.294 138.661 123.67C138.478 124.064 138.41 124.502 138.463 124.933C138.516 125.364 138.688 125.772 138.961 126.11C140.471 127.48 144.511 128.11 151.281 127.11C160.281 125.86 159.371 123.46 168.211 121.3C171.361 120.53 175.071 120.3 178.211 119.3C181.351 118.3 184.301 115.22 186.551 112.88C186.968 112.337 187.352 111.77 187.701 111.18C188.841 109.67 187.751 108.67 187.311 108.18C186.992 107.884 186.614 107.657 186.203 107.514C185.792 107.371 185.355 107.315 184.921 107.35C175.361 106.95 158.301 111.41 147.921 116.66" fill="#FFC440"/>
<g opacity="0.2">
<path d="M165.758 113.34C165.188 113.34 155.868 116.67 151.758 119.34C148.258 121.66 145.088 123.56 143.578 127.47C145.968 127.65 148.371 127.522 150.728 127.09C156.257 126.495 161.71 125.329 166.998 123.61C167.91 123.423 168.734 122.938 169.338 122.23C169.718 121.582 169.873 120.825 169.778 120.08C169.677 118.705 169.244 117.376 168.516 116.205C167.788 115.035 166.786 114.058 165.598 113.36" fill="black"/>
</g>
<path d="M153.524 163.54L171.754 162.08C171.874 159.95 171.754 151.72 171.754 151.72C171.754 151.72 179.334 150.54 179.434 142.95C179.534 135.36 178.204 117.95 178.204 117.95C173.892 116.095 169.163 115.426 164.506 116.011C159.849 116.597 155.432 118.416 151.714 121.28L150.594 122.14L153.524 163.54Z" fill="#B78876"/>
<path d="M171.734 151.61C168.231 151.677 164.788 150.698 161.844 148.8C161.844 148.8 164.184 154.26 171.754 153.57L171.734 151.61Z" fill="#AA6550"/>
<path d="M151.491 130C151.371 129.94 146.281 128.46 146.491 133.65C146.701 138.84 151.831 137.6 151.831 137.45C151.831 137.3 151.491 130 151.491 130Z" fill="#B78876"/>
<path d="M150.142 135.53C150.142 135.53 150.062 135.6 149.902 135.67C149.796 135.714 149.682 135.737 149.567 135.737C149.452 135.737 149.339 135.714 149.232 135.67C148.887 135.465 148.603 135.171 148.41 134.82C148.217 134.468 148.121 134.071 148.132 133.67C148.106 133.223 148.177 132.776 148.342 132.36C148.389 132.198 148.473 132.049 148.587 131.926C148.702 131.802 148.844 131.708 149.002 131.65C149.105 131.621 149.215 131.628 149.313 131.67C149.411 131.712 149.492 131.786 149.542 131.88C149.622 132.02 149.592 132.13 149.612 132.14C149.632 132.15 149.722 132.04 149.672 131.83C149.64 131.703 149.566 131.59 149.462 131.51C149.316 131.41 149.137 131.371 148.962 131.4C148.751 131.448 148.555 131.55 148.394 131.695C148.233 131.84 148.112 132.024 148.042 132.23C147.831 132.686 147.739 133.188 147.772 133.69C147.762 134.151 147.889 134.605 148.136 134.995C148.384 135.385 148.741 135.693 149.162 135.88C149.302 135.919 149.449 135.925 149.591 135.897C149.734 135.869 149.868 135.809 149.982 135.72C150.142 135.66 150.162 135.54 150.142 135.53Z" fill="#AA6550"/>
<path d="M176.503 129.84C176.509 130.116 176.408 130.383 176.222 130.586C176.035 130.789 175.778 130.912 175.503 130.93C175.362 130.947 175.219 130.934 175.083 130.892C174.948 130.849 174.823 130.778 174.717 130.683C174.611 130.589 174.526 130.473 174.469 130.343C174.411 130.213 174.382 130.072 174.383 129.93C174.38 129.655 174.481 129.39 174.667 129.187C174.853 128.985 175.109 128.861 175.383 128.84C175.524 128.823 175.667 128.836 175.803 128.879C175.938 128.922 176.063 128.992 176.169 129.087C176.275 129.182 176.359 129.298 176.417 129.428C176.475 129.558 176.504 129.698 176.503 129.84Z" fill="#263238"/>
<path d="M176.738 128.62C176.598 128.76 175.738 128.15 174.618 128.16C173.498 128.17 172.618 128.74 172.468 128.6C172.318 128.46 172.548 128.28 172.918 128.01C173.424 127.661 174.024 127.476 174.638 127.48C175.246 127.477 175.839 127.67 176.328 128.03C176.678 128.3 176.808 128.56 176.738 128.62Z" fill="#263238"/>
<path d="M165.091 130.11C165.092 130.253 165.065 130.396 165.011 130.529C164.956 130.661 164.876 130.782 164.775 130.884C164.673 130.985 164.552 131.065 164.42 131.12C164.287 131.174 164.144 131.201 164.001 131.2C163.861 131.215 163.719 131.201 163.584 131.158C163.45 131.115 163.326 131.043 163.222 130.949C163.117 130.854 163.033 130.739 162.976 130.61C162.919 130.481 162.89 130.341 162.891 130.2C162.885 129.923 162.985 129.655 163.171 129.45C163.358 129.246 163.615 129.12 163.891 129.1C164.039 129.07 164.191 129.073 164.338 129.11C164.484 129.148 164.62 129.217 164.735 129.315C164.851 129.412 164.943 129.534 165.004 129.671C165.066 129.809 165.095 129.959 165.091 130.11Z" fill="#263238"/>
<path d="M165.277 128.84C165.147 128.98 164.277 128.37 163.157 128.37C162.037 128.37 161.157 128.96 161.007 128.82C160.857 128.68 161.087 128.5 161.457 128.23C161.963 127.881 162.563 127.696 163.177 127.7C163.784 127.697 164.375 127.886 164.867 128.24C165.217 128.52 165.347 128.77 165.277 128.84Z" fill="#263238"/>
<path d="M169.51 137.48C170.125 137.293 170.759 137.179 171.4 137.14C171.7 137.14 171.98 137.05 172.03 136.85C172.057 136.541 171.991 136.231 171.84 135.96L171 133.7C170.175 131.78 169.506 129.797 169 127.77C169.971 129.621 170.79 131.547 171.45 133.53L172.29 135.81C172.477 136.166 172.534 136.577 172.45 136.97C172.409 137.077 172.343 137.172 172.257 137.248C172.172 137.325 172.07 137.38 171.96 137.41C171.794 137.455 171.622 137.478 171.45 137.48C170.806 137.564 170.154 137.564 169.51 137.48Z" fill="#263238"/>
<path d="M166.079 138.29C166.269 138.29 166.269 139.54 167.359 140.44C168.449 141.34 169.789 141.2 169.799 141.38C169.809 141.56 169.489 141.62 168.929 141.64C168.2 141.642 167.493 141.391 166.929 140.93C166.372 140.48 166.013 139.831 165.929 139.12C165.849 138.59 165.999 138.28 166.079 138.29Z" fill="#263238"/>
<path d="M165.583 124.27C165.473 124.59 164.303 124.44 162.943 124.6C161.583 124.76 160.463 125.14 160.283 124.85C160.203 124.72 160.393 124.42 160.843 124.11C161.445 123.722 162.131 123.486 162.843 123.42C163.543 123.333 164.254 123.419 164.913 123.67C165.383 123.87 165.633 124.12 165.583 124.27Z" fill="#263238"/>
<path d="M176.309 125.25C176.109 125.51 175.309 125.25 174.309 125.25C173.309 125.25 172.519 125.43 172.309 125.15C172.099 124.87 172.309 124.75 172.709 124.5C173.191 124.203 173.749 124.053 174.314 124.071C174.88 124.089 175.428 124.273 175.889 124.6C176.289 124.84 176.399 125.12 176.309 125.25Z" fill="#263238"/>
<path d="M191.422 195.79L193.142 169.23C187.082 163.23 183.902 160.52 175.452 159.52C174.162 159.37 173.132 159.27 172.362 159.17L172.312 154.23C170.534 154.142 168.77 154.584 167.242 155.499C165.715 156.414 164.494 157.761 163.732 159.37C160.022 153.46 152.402 154.27 152.402 154.27L152.752 159.14C149.752 159.27 147.252 160.19 144.702 160.68C136.702 162.23 130.852 168.09 129.242 173.5L137.002 194.59L136.682 214.07V221.25L136.732 247.63H194.442C194.582 241.34 191.422 195.79 191.422 195.79Z" fill="#E0E0E0"/>
<path d="M181.869 436.54L181.929 426.42L162.929 426.19L162.719 441L163.899 441.09C169.129 441.45 190.519 442.52 194.029 441.51C197.939 440.37 181.869 436.54 181.869 436.54Z" fill="#FFC440"/>
<g opacity="0.4">
<path d="M169.6 440.94C169.341 439.334 168.496 437.881 167.23 436.86C165.988 435.846 164.41 435.336 162.81 435.43L162.75 440.73L169.6 440.94Z" fill="black"/>
</g>
<g opacity="0.4">
<path d="M189.719 438.69C189.719 438.69 195.349 440.39 194.639 441.31C193.929 442.23 172.259 441.96 162.719 441V440.58L187.969 441.12C187.969 441.12 188.619 438.73 189.719 438.69Z" fill="black"/>
</g>
<path d="M162.461 440.56H162.791L163.721 440.63L167.171 440.82C170.081 440.97 174.101 441.11 178.551 441.17C183.001 441.23 187.021 441.17 189.931 441.17L193.381 441.07H194.321H194.651C194.541 441.055 194.43 441.055 194.321 441.07H193.381H189.931C187.021 441.07 182.991 441.07 178.551 441.07C174.111 441.07 170.091 440.89 167.171 440.79L163.731 440.67H162.791L162.461 440.56Z" fill="#263238"/>
<path d="M188.002 441.41C188.159 440.84 188.381 440.29 188.662 439.77C189.011 439.295 189.41 438.859 189.852 438.47C189.283 438.716 188.802 439.129 188.472 439.653C188.141 440.178 187.978 440.791 188.002 441.41Z" fill="#263238"/>
<path d="M182.449 438.5C182.499 438.5 182.769 438.21 183.049 437.78C183.329 437.35 183.519 436.97 183.469 436.93C183.419 436.89 183.139 437.22 182.859 437.65C182.579 438.08 182.389 438.47 182.449 438.5Z" fill="#263238"/>
<path d="M180.919 437.67C180.919 437.72 181.259 437.52 181.589 437.23C181.919 436.94 182.159 436.67 182.119 436.62C182.079 436.57 181.769 436.77 181.439 437.06C181.109 437.35 180.879 437.62 180.919 437.67Z" fill="#263238"/>
<path d="M180 435.87C180.32 435.986 180.661 436.03 181 436C181.55 436 182 436 182 435.91C181.681 435.791 181.34 435.743 181 435.77C180.42 435.76 180 435.8 180 435.87Z" fill="#263238"/>
<path d="M179.656 434.6C179.977 434.827 180.363 434.942 180.756 434.93C181.141 435.003 181.538 434.957 181.896 434.8C181.527 434.73 181.152 434.7 180.776 434.71C180.407 434.637 180.032 434.6 179.656 434.6Z" fill="#263238"/>
<path d="M183.109 436.85C183.513 436.924 183.926 436.924 184.329 436.85C184.771 436.803 185.206 436.713 185.629 436.58C185.889 436.511 186.141 436.414 186.379 436.29C186.522 436.204 186.629 436.069 186.679 435.91C186.702 435.821 186.698 435.727 186.668 435.64C186.638 435.553 186.583 435.476 186.509 435.42C186.046 435.185 185.515 435.118 185.008 435.231C184.501 435.345 184.049 435.63 183.729 436.04C183.54 436.28 183.4 436.555 183.319 436.85C183.293 436.959 183.293 437.072 183.319 437.18C183.451 436.817 183.643 436.478 183.889 436.18C184.154 435.87 184.5 435.641 184.889 435.52C185.127 435.443 185.377 435.414 185.626 435.434C185.875 435.455 186.118 435.525 186.339 435.64C186.529 435.78 186.449 436.01 186.239 436.14C186.017 436.252 185.787 436.346 185.549 436.42C185.137 436.553 184.716 436.657 184.289 436.73C183.579 436.82 183.109 436.82 183.109 436.85Z" fill="#263238"/>
<path d="M183.432 436.92C183.579 436.663 183.632 436.362 183.582 436.07C183.548 435.752 183.438 435.447 183.262 435.18C183.16 435 183.015 434.848 182.841 434.736C182.667 434.624 182.468 434.557 182.262 434.54C182.139 434.567 182.03 434.64 181.96 434.744C181.889 434.848 181.861 434.976 181.882 435.1C181.905 435.296 181.974 435.484 182.082 435.65C182.229 435.924 182.418 436.174 182.642 436.39C182.83 436.61 183.066 436.785 183.332 436.9C183.332 436.9 183.092 436.68 182.762 436.28C182.572 436.053 182.405 435.809 182.262 435.55C182.102 435.29 181.992 434.82 182.262 434.77C182.532 434.72 182.882 435.05 183.062 435.3C183.23 435.54 183.345 435.813 183.402 436.1C183.427 436.373 183.437 436.646 183.432 436.92Z" fill="#263238"/>
<path d="M162.906 435.38C163.374 435.38 163.841 435.403 164.306 435.45C165.425 435.588 166.482 436.039 167.356 436.75C168.217 437.468 168.864 438.409 169.226 439.47C169.506 440.29 169.526 440.83 169.566 440.83C169.606 440.83 169.566 440.69 169.566 440.45C169.535 440.112 169.471 439.777 169.376 439.45C169.047 438.331 168.388 437.338 167.485 436.599C166.582 435.861 165.478 435.411 164.316 435.31C163.984 435.28 163.649 435.28 163.316 435.31C163.177 435.31 163.038 435.334 162.906 435.38Z" fill="#263238"/>
<path d="M164.998 427.51C164.785 430.101 164.718 432.701 164.798 435.3C164.951 434.009 165.025 432.71 165.018 431.41C165.085 430.11 165.078 428.808 164.998 427.51Z" fill="#263238"/>
<path d="M172 439.12C172.906 439.344 173.837 439.448 174.77 439.43C175.698 439.485 176.629 439.421 177.54 439.24C177.54 439.17 176.3 439.24 174.77 439.24C173.24 439.24 172 439.05 172 439.12Z" fill="#263238"/>
<path d="M168.299 439.07C168.249 439.07 168.389 439.33 168.519 439.61C168.649 439.89 168.699 440.15 168.769 440.15C168.839 440.15 168.869 439.85 168.769 439.52C168.669 439.19 168.339 439 168.299 439.07Z" fill="#263238"/>
<path d="M166.922 437.3C166.922 437.35 166.992 437.55 167.182 437.75C167.372 437.95 167.572 438.08 167.622 438.03C167.672 437.98 167.542 437.79 167.352 437.59C167.162 437.39 167.002 437.26 166.922 437.3Z" fill="#263238"/>
<path d="M164.923 436.48C164.923 436.55 165.193 436.55 165.463 436.65C165.733 436.75 165.943 436.9 165.993 436.86C166.043 436.82 165.893 436.55 165.543 436.43C165.193 436.31 164.903 436.42 164.923 436.48Z" fill="#263238"/>
<path d="M163.5 436.09C163.5 436.15 163.58 436.25 163.74 436.31C163.9 436.37 164.04 436.37 164.07 436.31C164.1 436.25 163.98 436.15 163.83 436.09C163.68 436.03 163.52 436 163.5 436.09Z" fill="#263238"/>
<path d="M124.261 430.11L122.451 437.7C122.451 437.7 110.001 453.83 106.201 453C103.691 452.48 106.771 448.27 111.501 436L112.501 430.94L124.261 430.11Z" fill="#FFC440"/>
<path d="M105.688 450.66C105.853 450.924 106.083 451.141 106.357 451.29C106.744 451.461 107.171 451.521 107.59 451.463C108.008 451.404 108.402 451.23 108.728 450.96C110.907 449.14 112.971 447.186 114.908 445.11C117.208 442.69 119.137 440.37 120.497 438.66C121.107 437.88 121.627 437.2 122.087 436.66L122.517 436.1C122.617 435.98 122.667 435.91 122.677 435.92C122.643 435.993 122.603 436.063 122.557 436.13L122.158 436.71C121.808 437.21 121.287 437.93 120.627 438.8C118.893 441.062 117.04 443.232 115.077 445.3C113.134 447.392 111.042 449.34 108.817 451.13C108.406 451.426 107.923 451.606 107.417 451.65C107.036 451.672 106.655 451.589 106.317 451.41C106.102 451.295 105.919 451.126 105.787 450.92C105.742 450.838 105.709 450.751 105.688 450.66Z" fill="#263238"/>
<path d="M107.453 445.47C107.772 445.349 108.116 445.311 108.453 445.36C109.286 445.444 110.087 445.721 110.793 446.17C111.527 446.589 112.122 447.215 112.503 447.97C112.671 448.277 112.76 448.62 112.763 448.97C112.763 448.97 112.653 448.6 112.353 448.05C111.953 447.353 111.377 446.774 110.683 446.37C109.999 445.944 109.238 445.659 108.443 445.53C107.843 445.43 107.463 445.51 107.453 445.47Z" fill="#263238"/>
<path d="M119.212 441.69C119.142 441.576 119.091 441.451 119.062 441.32C118.95 440.995 118.87 440.66 118.822 440.32C118.643 439.139 118.842 437.931 119.392 436.87C119.937 435.802 120.819 434.944 121.902 434.43C122.22 434.283 122.556 434.179 122.902 434.12C123.031 434.1 123.162 434.1 123.292 434.12C122.831 434.249 122.38 434.409 121.942 434.6C120.92 435.135 120.088 435.974 119.562 437C119.033 438.025 118.817 439.183 118.942 440.33C119.072 441.15 119.252 441.68 119.212 441.69Z" fill="#263238"/>
<path d="M123.459 431.4C123.519 431.4 123.239 432.48 123.009 433.82C122.911 434.644 122.692 435.449 122.359 436.21C122.359 436.21 122.559 435.12 122.789 433.78C122.889 432.957 123.115 432.154 123.459 431.4Z" fill="#263238"/>
<path d="M111.281 437.14C111.8 436.987 112.352 436.987 112.871 437.14C113.404 437.233 113.901 437.468 114.311 437.82C114.311 437.88 113.651 437.55 112.821 437.36C111.991 437.17 111.281 437.2 111.281 437.14Z" fill="#263238"/>
<path d="M111 438.44C111.426 438.263 111.902 438.245 112.34 438.39C112.795 438.461 113.212 438.687 113.52 439.03C113.52 439.09 112.99 438.77 112.29 438.61C111.59 438.45 111 438.5 111 438.44Z" fill="#263238"/>
<path d="M110 440.07C110.204 439.94 110.435 439.856 110.675 439.825C110.915 439.794 111.159 439.816 111.39 439.89C111.629 439.925 111.859 440.012 112.062 440.143C112.266 440.274 112.439 440.447 112.57 440.65C112.183 440.422 111.77 440.241 111.34 440.11C110.897 440.038 110.446 440.025 110 440.07Z" fill="#263238"/>
<path d="M112.133 436.59C112.133 436.59 112.713 436.44 113.593 436.09C114.112 435.892 114.614 435.651 115.093 435.37C115.377 435.211 115.651 435.034 115.913 434.84C116.053 434.765 116.173 434.658 116.263 434.528C116.354 434.397 116.412 434.247 116.433 434.09C116.433 433.79 116.063 433.63 115.773 433.71C115.477 433.806 115.214 433.983 115.013 434.22C114.553 434.65 114.163 435.06 113.843 435.41C113.213 436.12 112.843 436.6 112.843 436.58C112.843 436.56 112.903 436.44 113.053 436.22C113.203 436 113.433 435.68 113.733 435.31C114.033 434.94 114.423 434.51 114.873 434.07C115.103 433.804 115.4 433.604 115.733 433.49C115.833 433.458 115.94 433.449 116.044 433.463C116.149 433.476 116.249 433.512 116.339 433.568C116.428 433.624 116.504 433.699 116.562 433.787C116.62 433.876 116.657 433.975 116.673 434.08C116.649 434.274 116.581 434.46 116.474 434.623C116.366 434.786 116.222 434.922 116.053 435.02C115.78 435.212 115.496 435.389 115.203 435.55C114.709 435.822 114.194 436.052 113.663 436.24C113.304 436.366 112.936 436.466 112.563 436.54C112.422 436.575 112.278 436.592 112.133 436.59Z" fill="#263238"/>
<path d="M112.78 436.43C112.78 436.43 112.7 435.9 112.56 435.05C112.48 434.553 112.336 434.069 112.13 433.61C112.013 433.346 111.858 433.1 111.67 432.88C111.48 432.67 111.19 432.48 110.96 432.62C110.73 432.76 110.7 433.09 110.73 433.37C110.772 433.659 110.853 433.942 110.97 434.21C111.176 434.665 111.45 435.086 111.78 435.46C112.36 436.1 112.78 436.4 112.78 436.46C112.665 436.412 112.557 436.348 112.46 436.27C112.176 436.069 111.912 435.841 111.67 435.59C111.305 435.219 111.004 434.79 110.78 434.32C110.655 434.035 110.564 433.736 110.51 433.43C110.468 433.248 110.478 433.058 110.538 432.881C110.598 432.705 110.706 432.548 110.85 432.43C111.027 432.359 111.223 432.351 111.405 432.407C111.588 432.464 111.745 432.581 111.85 432.74C112.054 432.98 112.219 433.25 112.34 433.54C112.546 434.014 112.677 434.516 112.73 435.03C112.778 435.361 112.805 435.695 112.81 436.03C112.8 436.3 112.8 436.43 112.78 436.43Z" fill="#263238"/>
<g opacity="0.4">
<path d="M122.45 437.7L123.32 434.05C123.32 434.05 120.32 434.61 119.49 436.89C119.023 438.134 118.822 439.463 118.9 440.79L112.28 447.91C112.28 447.91 110.62 444.67 107.62 445.45C107.62 445.45 105.25 450.65 105.33 451.95C105.41 453.25 106.91 453.1 107.45 452.85C109.639 451.584 111.636 450.011 113.38 448.18C116.88 444.54 120.75 439.93 122.45 437.7Z" fill="black"/>
</g>
<path d="M266.479 186.25C266.745 186.352 266.984 186.514 267.176 186.724C267.369 186.934 267.51 187.186 267.589 187.46C268.049 189.16 268.859 192.78 267.589 193.53C267.029 193.88 259.399 194.18 258.529 193.83C257.659 193.48 253.439 194.24 253.439 194.24L252.719 189.46L264.089 185.36L266.479 186.25Z" fill="#B78876"/>
<path d="M285.687 201.39H273.847C270.585 201.39 267.456 200.094 265.149 197.787C262.843 195.481 261.547 192.352 261.547 189.09C261.547 185.828 262.843 182.699 265.149 180.393C267.456 178.086 270.585 176.79 273.847 176.79H285.687V181.79H273.847C271.919 181.79 270.07 182.556 268.706 183.919C267.343 185.283 266.577 187.132 266.577 189.06C266.577 190.988 267.343 192.837 268.706 194.201C270.07 195.564 271.919 196.33 273.847 196.33H285.687V201.39Z" fill="#263238"/>
<path d="M252.758 186.76L255.868 185.95C255.868 185.95 257.108 182.51 258.938 182.19C260.768 181.87 267.818 184.02 267.818 184.02C267.818 184.02 267.168 185.34 264.008 185.18L262.008 185.36C262.008 185.36 262.178 187.05 259.618 188.95C259.618 188.95 253.758 190.85 253.488 190.95C253.218 191.05 252.758 186.76 252.758 186.76Z" fill="#B78876"/>
<path d="M267.069 186.67C265.55 186.814 264.043 187.065 262.559 187.42C262.277 187.508 262.02 187.662 261.809 187.87C261.708 187.978 261.638 188.111 261.608 188.256C261.578 188.401 261.589 188.551 261.639 188.69C261.809 189.06 262.279 189.15 262.639 189.17C263.487 189.23 264.338 189.2 265.179 189.08C264.282 189.134 263.397 189.312 262.549 189.61C262.233 189.715 261.951 189.901 261.729 190.15C261.624 190.275 261.554 190.427 261.527 190.589C261.501 190.751 261.519 190.917 261.579 191.07C261.789 191.54 262.419 191.61 262.929 191.61C263.86 191.588 264.788 191.512 265.709 191.38C264.879 191.52 264.059 191.71 263.249 191.93C263.095 191.952 262.946 192.007 262.814 192.089C262.681 192.172 262.567 192.281 262.479 192.41C262.409 192.596 262.412 192.802 262.486 192.987C262.56 193.172 262.7 193.323 262.879 193.41C263.241 193.569 263.636 193.634 264.029 193.6C265.389 193.6 266.029 193.6 267.589 193.54" fill="#B78876"/>
<path d="M260.587 192.27C260.507 192.27 260.587 191.84 260.517 191.17C260.436 190.292 260.118 189.452 259.598 188.74L259.438 188.53L259.658 188.37C259.848 188.243 260.031 188.106 260.207 187.96C261.016 187.315 261.592 186.423 261.848 185.42C261.978 184.64 261.687 184.18 261.777 184.14C261.867 184.1 262.257 184.53 262.217 185.46C262.049 186.601 261.452 187.635 260.547 188.35C260.357 188.513 260.157 188.663 259.948 188.8L260.008 188.44C260.582 189.229 260.881 190.185 260.857 191.16C260.827 191.88 260.637 192.28 260.587 192.27Z" fill="#AA6550"/>
<path d="M268.249 191C267.55 191.342 266.786 191.533 266.009 191.56C265.255 191.729 264.473 191.729 263.719 191.56C264.428 191.206 265.207 191.014 265.999 191C266.739 190.833 267.508 190.833 268.249 191Z" fill="#AA6550"/>
<path d="M267.91 188.8C266.394 189.337 264.78 189.535 263.18 189.38C263.907 189.029 264.702 188.841 265.51 188.83C266.299 188.651 267.117 188.64 267.91 188.8Z" fill="#AA6550"/>
<path d="M194.671 242.62L187.401 432.71L157.861 433.33L162.761 268.62L129.541 434.59H101.461L137.641 243.01L194.671 242.62Z" fill="#263238"/>
<path d="M169.573 249.54C169.55 250.591 169.436 251.638 169.233 252.67C168.953 254.6 168.543 257.25 168.053 260.17C167.867 261.565 167.583 262.945 167.203 264.3C166.875 265.443 166.201 266.456 165.273 267.2C164.661 267.717 163.923 268.062 163.133 268.2C162.85 268.262 162.557 268.262 162.273 268.2C163.336 268.062 164.332 267.606 165.132 266.893C165.931 266.179 166.496 265.24 166.753 264.2C167.087 262.862 167.347 261.506 167.533 260.14C168.023 257.21 168.533 254.57 168.873 252.66C169.021 251.603 169.255 250.559 169.573 249.54Z" fill="#5ACAFF"/>
<path d="M163.421 250.45C163.491 250.5 163.251 250.8 163.421 251.3C163.454 251.435 163.515 251.561 163.599 251.671C163.683 251.782 163.79 251.873 163.911 251.94C164.059 252 164.222 252.015 164.379 251.983C164.535 251.951 164.679 251.873 164.791 251.76C164.917 251.662 165.012 251.529 165.063 251.378C165.115 251.227 165.121 251.064 165.081 250.91C165.031 250.78 164.954 250.663 164.856 250.565C164.758 250.467 164.641 250.39 164.511 250.34C164.031 250.14 163.701 250.34 163.661 250.27C163.621 250.2 163.931 249.84 164.661 249.99C164.861 250.037 165.048 250.131 165.206 250.263C165.364 250.395 165.489 250.561 165.571 250.75C165.657 250.998 165.665 251.266 165.593 251.518C165.522 251.77 165.374 251.994 165.171 252.16C164.982 252.339 164.742 252.455 164.483 252.491C164.225 252.527 163.962 252.481 163.731 252.36C163.554 252.254 163.405 252.109 163.294 251.935C163.182 251.762 163.113 251.565 163.091 251.36C163.001 250.66 163.401 250.39 163.421 250.45Z" fill="#5ACAFF"/>
<path d="M147.563 253.16C147.207 252.303 147.073 251.37 147.173 250.447C147.272 249.524 147.602 248.641 148.133 247.88C148.263 247.95 147.843 249.07 147.693 250.51C147.543 251.95 147.713 253.13 147.563 253.16Z" fill="#5ACAFF"/>
<path d="M151.108 252.93C150.764 252.041 150.621 251.087 150.688 250.137C150.755 249.186 151.032 248.262 151.498 247.43C151.453 248.352 151.356 249.27 151.208 250.18C151.231 251.098 151.197 252.016 151.108 252.93Z" fill="#5ACAFF"/>
<path d="M181.639 253.71C181.613 252.754 181.67 251.797 181.809 250.85C181.775 249.898 181.815 248.945 181.929 248C182.563 249.871 182.459 251.913 181.639 253.71Z" fill="#5ACAFF"/>
<path d="M185.503 253.5C185.363 253.43 185.823 252.19 185.923 250.6C186.023 249.01 185.763 247.71 185.923 247.67C186.439 248.579 186.629 249.638 186.463 250.67C186.459 251.693 186.122 252.686 185.503 253.5Z" fill="#5ACAFF"/>
<path d="M133.348 327.65C133.157 326.777 133.073 325.884 133.098 324.99C133.212 322.427 133.756 319.902 134.708 317.52C135.778 314.38 137.708 310.7 138.328 306.02C138.686 303.536 138.263 301.003 137.118 298.77C136.518 297.59 135.738 296.46 135.028 295.23C134.237 293.979 133.706 292.581 133.468 291.12C133.321 289.569 133.533 288.006 134.088 286.55C134.618 285.07 135.318 283.64 135.938 282.15C136.619 280.66 137.055 279.069 137.228 277.44C137.347 275.739 137.297 274.031 137.078 272.34C136.841 270.572 136.698 268.793 136.648 267.01C136.602 261.263 138.247 255.63 141.378 250.81C142.462 249.118 143.723 247.546 145.138 246.12C145.86 245.407 146.625 244.739 147.428 244.12C148.253 243.443 149.232 242.979 150.278 242.77C151.366 242.604 152.478 242.816 153.428 243.37C154.363 243.916 155.176 244.648 155.818 245.52C156.468 246.383 156.986 247.336 157.358 248.35C157.754 249.356 158.052 250.397 158.248 251.46C158.961 255.825 158.46 260.302 156.798 264.4C156.045 266.537 154.872 268.503 153.348 270.18C152.556 271.025 151.604 271.705 150.548 272.18C149.467 272.666 148.271 272.836 147.098 272.67C145.947 272.446 144.86 271.971 143.913 271.28C142.966 270.589 142.183 269.698 141.618 268.67C140.47 266.682 139.967 264.386 140.178 262.1C140.372 259.893 140.843 257.72 141.578 255.63C142.233 253.562 142.994 251.53 143.858 249.54C144.708 247.544 146.013 245.773 147.668 244.37C149.344 242.977 151.494 242.286 153.668 242.44C154.745 242.567 155.775 242.955 156.668 243.57C157.512 244.187 158.24 244.949 158.818 245.82C159.899 247.536 160.626 249.45 160.958 251.45C161.636 255.156 161.546 258.961 160.693 262.63C159.84 266.299 158.242 269.754 155.998 272.78C154.074 275.653 151.216 277.772 147.908 278.78C146.317 279.199 144.631 279.076 143.118 278.43C141.693 277.783 140.482 276.742 139.628 275.43C138.136 272.979 137.274 270.196 137.118 267.33C136.889 264.798 137.02 262.246 137.508 259.75C137.931 257.587 138.585 255.474 139.458 253.45C140.206 251.756 141.11 250.136 142.158 248.61C143.593 246.482 145.335 244.578 147.328 242.96C147.835 242.533 148.366 242.136 148.918 241.77L149.478 241.39C149.478 241.39 149.308 241.54 148.948 241.81C148.588 242.08 148.028 242.45 147.388 243.04C145.44 244.686 143.733 246.598 142.318 248.72C141.302 250.25 140.422 251.866 139.688 253.55C138.837 255.564 138.203 257.662 137.798 259.81C137.324 262.277 137.206 264.8 137.448 267.3C137.611 270.105 138.466 272.826 139.938 275.22C140.748 276.478 141.905 277.474 143.268 278.09C144.705 278.696 146.302 278.805 147.808 278.4C151.016 277.415 153.787 275.356 155.658 272.57C157.839 269.578 159.383 266.171 160.197 262.56C161.01 258.948 161.075 255.208 160.388 251.57C160.073 249.632 159.369 247.778 158.318 246.12C157.782 245.301 157.104 244.583 156.318 244C155.502 243.452 154.565 243.109 153.588 243C151.556 242.867 149.55 243.523 147.988 244.83C146.396 246.188 145.146 247.901 144.338 249.83C143.48 251.789 142.726 253.792 142.078 255.83C141.354 257.877 140.891 260.007 140.698 262.17C140.503 264.351 140.981 266.539 142.068 268.44C142.595 269.397 143.326 270.226 144.209 270.869C145.092 271.512 146.106 271.953 147.178 272.16C148.262 272.269 149.356 272.112 150.366 271.705C151.377 271.297 152.273 270.65 152.978 269.82C154.456 268.191 155.594 266.284 156.328 264.21C157.956 260.201 158.451 255.821 157.758 251.55C157.567 250.525 157.279 249.521 156.898 248.55C156.547 247.581 156.051 246.671 155.428 245.85C154.832 245.036 154.072 244.355 153.198 243.85C152.345 243.35 151.347 243.156 150.368 243.3C148.368 243.64 146.918 245.2 145.498 246.55C144.103 247.948 142.859 249.49 141.788 251.15C139.723 254.349 138.296 257.918 137.588 261.66C137.256 263.451 137.095 265.269 137.108 267.09C137.148 268.86 137.285 270.626 137.518 272.38C137.729 274.098 137.776 275.833 137.658 277.56C137.475 279.232 137.022 280.863 136.318 282.39C135.678 283.88 134.978 285.31 134.468 286.76C133.923 288.156 133.708 289.658 133.838 291.15C134.063 292.571 134.573 293.932 135.338 295.15C136.038 296.37 136.808 297.51 137.428 298.72C138.589 301.016 139.008 303.616 138.628 306.16C137.978 310.9 135.998 314.57 134.908 317.69C133.947 320.049 133.373 322.548 133.208 325.09C133.195 325.758 133.221 326.426 133.288 327.09C133.338 327.42 133.348 327.65 133.348 327.65Z" fill="#5ACAFF"/>
<path d="M150.148 121.8C150.27 124.052 150.537 126.293 150.948 128.51C151.008 128.84 151.058 129.84 151.128 130.17C151.578 132.09 152.378 132.91 153.518 130.93C153.953 129.72 154.252 128.466 154.408 127.19L155.788 120.19C157.571 121.111 159.553 121.579 161.558 121.55C162.559 121.524 163.536 121.245 164.398 120.738C165.261 120.23 165.98 119.512 166.488 118.65C166.962 119.439 167.608 120.11 168.378 120.615C169.148 121.119 170.022 121.442 170.934 121.562C171.846 121.681 172.774 121.592 173.647 121.303C174.521 121.014 175.318 120.531 175.978 119.89C176.35 120.411 176.903 120.773 177.529 120.907C178.154 121.04 178.807 120.934 179.358 120.61C179.895 120.257 180.304 119.741 180.526 119.138C180.747 118.535 180.769 117.877 180.588 117.26C180.068 115.41 178.088 114.41 176.238 113.87C169.028 111.74 161.048 113.41 154.558 117.21C153.594 117.748 152.711 118.421 151.938 119.21C151.198 120.02 150.178 120.97 150.148 122.06" fill="#263238"/>
<path d="M152.808 247.34L152.588 159.1C149.651 159.324 146.734 159.758 143.858 160.4C135.808 161.94 130.008 167.8 128.398 173.22L136.138 193.94L135.828 220.94V231.29L132.098 256.91L152.778 262.91L152.608 247.31L152.808 247.34Z" fill="#FFC440"/>
<path d="M220.551 211.92C223.411 211.48 254.641 198.23 254.641 198.23L252.131 183L222.751 191L190.181 165.9C185.391 161.57 181.991 160.1 174.611 159.23L173.461 159.1L178.461 247.34L179.461 263.86L197.911 260.92L195.291 236.92C193.851 221.55 191.631 199.29 191.401 195.74C198.671 200.28 218.251 212.27 220.551 211.92Z" fill="#FFC440"/>
<path d="M220.112 198.36C219.944 197.01 220.067 195.64 220.472 194.341C220.878 193.042 221.556 191.845 222.462 190.83C222.592 190.92 221.602 192.41 220.972 194.5C220.342 196.59 220.272 198.36 220.112 198.36Z" fill="#263238"/>
<path d="M222.742 198.09C222.043 195.638 221.995 193.046 222.602 190.57C222.734 191.819 222.767 193.076 222.702 194.33C222.817 195.58 222.83 196.837 222.742 198.09Z" fill="#263238"/>
<g opacity="0.2">
<path d="M247.592 184.21C247.482 184.21 248.912 200.65 248.912 200.65L254.642 198.23L252.132 183L247.592 184.21Z" fill="black"/>
</g>
<g opacity="0.2">
<path d="M195.004 232.47L184.594 236.35L185.494 244.64C185.618 245.777 185.982 246.874 186.562 247.86C187.141 248.845 187.923 249.697 188.856 250.358C189.788 251.02 190.85 251.476 191.972 251.697C193.094 251.918 194.25 251.899 195.364 251.64L197.204 251.21L195.004 232.47Z" fill="black"/>
</g>
<g opacity="0.2">
<path d="M135.473 233.93L147.133 236.35L146.323 242.28C146.129 243.677 145.662 245.021 144.947 246.236C144.232 247.451 143.285 248.514 142.159 249.362C141.033 250.21 139.75 250.828 138.385 251.179C137.02 251.531 135.599 251.609 134.203 251.41L132.953 251.23L135.473 233.93Z" fill="black"/>
</g>
<path d="M192.809 211.93C192.669 211.93 191.639 201.32 190.509 188.22C189.379 175.12 188.579 164.48 188.719 164.47C188.859 164.46 189.899 175.07 191.029 188.18C192.159 201.29 192.999 211.91 192.809 211.93Z" fill="#263238"/>
<path d="M174.422 159.37C174.82 159.584 175.192 159.842 175.532 160.14C176.525 160.878 177.443 161.712 178.272 162.63C179.561 164.005 180.374 165.758 180.592 167.63C180.643 168.177 180.619 168.729 180.522 169.27C180.399 169.816 180.232 170.351 180.022 170.87C179.818 171.363 179.732 171.898 179.772 172.43C179.862 172.977 180.067 173.498 180.372 173.96C180.662 174.46 180.992 174.96 181.252 175.5C181.519 176.049 181.662 176.65 181.672 177.26C181.623 178.386 181.278 179.48 180.672 180.43C180.154 181.265 179.58 182.064 178.952 182.82C178.392 183.54 177.892 184.22 177.442 184.82C176.727 185.818 176.11 186.883 175.602 188C175.441 188.415 175.304 188.839 175.192 189.27C175.192 189.27 175.192 189.15 175.192 188.92C175.231 188.579 175.308 188.244 175.422 187.92C175.873 186.763 176.457 185.662 177.162 184.64C177.592 183.99 178.082 183.29 178.622 182.55C179.228 181.798 179.782 181.006 180.282 180.18C180.926 179.294 181.243 178.211 181.179 177.118C181.116 176.024 180.675 174.986 179.932 174.18C179.59 173.658 179.365 173.068 179.272 172.45C179.223 171.843 179.319 171.233 179.552 170.67C179.756 170.171 179.92 169.656 180.042 169.13C180.136 168.636 180.166 168.132 180.132 167.63C179.935 165.848 179.191 164.171 178.002 162.83C177.204 161.907 176.338 161.045 175.412 160.25C175.055 159.988 174.724 159.693 174.422 159.37Z" fill="#263238"/>
<path d="M152.231 190.57C152.037 190.122 151.867 189.665 151.721 189.2C151.243 187.964 150.658 186.773 149.971 185.64C149.551 184.89 149.091 184.09 148.601 183.24C148.064 182.315 147.602 181.349 147.221 180.35C146.792 179.227 146.588 178.031 146.621 176.83C146.653 176.181 146.805 175.543 147.071 174.95C147.371 174.361 147.759 173.822 148.221 173.35C148.418 173.144 148.57 172.898 148.665 172.629C148.759 172.36 148.796 172.074 148.771 171.79C148.697 171.219 148.488 170.674 148.161 170.2C147.38 169.297 146.734 168.287 146.241 167.2C145.931 166.13 145.966 164.989 146.341 163.94C146.653 163.041 147.143 162.215 147.781 161.51C148.682 160.487 149.838 159.721 151.131 159.29C151.483 159.183 151.845 159.11 152.211 159.07C152.461 159.07 152.591 159.07 152.591 159.07C152.591 159.07 152.071 159.14 151.201 159.48C149.976 159.958 148.892 160.739 148.051 161.75C147.466 162.428 147.024 163.217 146.751 164.07C146.417 165.039 146.4 166.09 146.701 167.07C147.195 168.103 147.831 169.062 148.591 169.92C148.965 170.466 149.205 171.093 149.291 171.75C149.32 172.1 149.275 172.453 149.16 172.786C149.045 173.118 148.861 173.423 148.621 173.68C148.19 174.118 147.826 174.616 147.541 175.16C147.301 175.697 147.162 176.273 147.131 176.86C147.093 177.995 147.28 179.127 147.681 180.19C148.046 181.16 148.487 182.1 149.001 183L150.321 185.43C150.984 186.594 151.524 187.824 151.931 189.1C152.043 189.447 152.133 189.801 152.201 190.16C152.231 190.43 152.251 190.56 152.231 190.57Z" fill="#263238"/>
<path d="M163.573 159.76C163.573 159.76 163.573 159.53 163.283 159.25C163.113 159.059 162.89 158.923 162.643 158.859C162.395 158.795 162.134 158.805 161.893 158.89C161.539 159.049 161.226 159.288 160.98 159.588C160.733 159.888 160.56 160.241 160.473 160.62C160.286 161.663 159.949 162.673 159.473 163.62L159.293 163.89L159.063 163.65C157.831 162.279 156.361 161.144 154.723 160.3C153.463 159.64 152.613 159.37 152.633 159.3C153.419 159.384 154.182 159.615 154.883 159.98C156.626 160.753 158.184 161.888 159.453 163.31H159.043C159.491 162.415 159.827 161.467 160.043 160.49C160.161 160.051 160.383 159.646 160.692 159.312C161 158.977 161.385 158.723 161.813 158.57C162.115 158.478 162.439 158.486 162.736 158.592C163.033 158.698 163.288 158.897 163.463 159.16C163.683 159.51 163.593 159.77 163.573 159.76Z" fill="#263238"/>
<path d="M172.359 159.17C172.194 159.616 171.961 160.034 171.669 160.41C171.02 161.42 170.291 162.376 169.489 163.27L169.159 163.62L169.059 163.13C168.961 162.484 168.817 161.846 168.629 161.22C168.415 160.391 167.951 159.647 167.299 159.09C167.044 158.865 166.742 158.701 166.415 158.609C166.088 158.517 165.744 158.501 165.409 158.56C164.949 158.642 164.531 158.882 164.229 159.24C164.019 159.5 163.959 159.68 163.909 159.67C163.859 159.66 163.909 159.45 164.059 159.12C164.347 158.664 164.798 158.335 165.319 158.2C165.712 158.105 166.12 158.102 166.514 158.19C166.907 158.279 167.275 158.457 167.589 158.71C168.34 159.309 168.879 160.133 169.129 161.06C169.322 161.715 169.466 162.384 169.559 163.06L169.139 162.92C170.139 161.92 170.859 160.92 171.419 160.23C171.683 159.836 171.999 159.479 172.359 159.17Z" fill="#263238"/>
<path d="M165.581 247.67C165.536 247.372 165.519 247.071 165.531 246.77C165.531 246.14 165.531 245.29 165.471 244.21C165.471 241.93 165.411 238.72 165.371 234.78C165.291 226.78 165.181 215.78 164.971 203.67C164.761 191.56 164.451 180.52 164.221 172.56C164.111 168.61 164.021 165.41 163.951 163.13V160.57C163.933 160.27 163.933 159.97 163.951 159.67C164.006 159.964 164.036 160.261 164.041 160.56C164.041 161.19 164.131 162.05 164.191 163.12C164.301 165.4 164.451 168.6 164.631 172.55C164.961 180.5 165.311 191.5 165.531 203.66C165.751 215.82 165.791 226.81 165.781 234.78C165.781 238.72 165.731 241.93 165.721 244.21C165.721 245.29 165.721 246.14 165.671 246.77C165.662 247.072 165.632 247.372 165.581 247.67Z" fill="#263238"/>
<path d="M285.702 176.79H281.922V181.82H285.702V176.79Z" fill="#5ACAFF"/>
<path d="M285.702 196.36H281.922V201.39H285.702V196.36Z" fill="#5ACAFF"/>
<path d="M157.859 433.33L158.119 424.46H187.969L187.399 432.71L157.859 433.33Z" fill="#5ACAFF"/>
<path d="M101.461 434.59L102.911 426.94L130.961 427.51L129.541 434.59H101.461Z" fill="#5ACAFF"/>
<path d="M146.458 231.58L146.698 231.88C147.158 231.97 147.638 232.07 148.178 232.16C148.985 232.305 149.812 232.305 150.618 232.16C151.625 232.021 152.607 231.745 153.538 231.34C153.699 231.216 153.896 231.147 154.099 231.144C154.302 231.141 154.501 231.204 154.665 231.323C154.83 231.442 154.951 231.612 155.011 231.806C155.071 232 155.067 232.208 154.998 232.4C154.658 233.17 152.448 234.5 149.448 234.75C146.448 235 150.358 237.68 151.768 238.67C153.178 239.66 157.398 242.96 157.438 243.67C157.488 244.67 156.438 244.9 155.058 243.87C153.678 242.84 149.298 240.05 148.808 240.82C148.318 241.59 155.568 246.56 155.568 246.56C155.568 246.56 157.288 247.37 156.758 248.28C155.758 249.92 148.468 244.06 147.758 243.48C147.288 243.08 146.758 243.9 147.258 244.3C147.758 244.7 154.598 249.1 153.628 250.78C152.878 252.07 147.568 246.02 145.628 245.89C143.688 245.76 150.128 250.07 149.368 251.27C149.078 251.72 148.808 252.01 145.478 249.01C142.801 246.342 140.271 243.532 137.898 240.59L146.458 231.58Z" fill="#B78876"/>
<path d="M130.423 169.06C130.423 169.06 118.233 188.57 109.133 202.83C108.16 204.362 107.501 206.073 107.195 207.862C106.89 209.651 106.943 211.483 107.353 213.252C107.762 215.02 108.52 216.689 109.581 218.162C110.642 219.635 111.985 220.882 113.533 221.83L137.833 242.15L148.153 231.08L128.093 208.7L141.223 190.56L130.423 169.06Z" fill="#FFC440"/>
<path d="M137.831 242.17C138.041 241.874 138.271 241.593 138.521 241.33C139.041 240.76 139.721 239.99 140.521 239.04C142.351 237.04 144.901 234.27 147.941 230.94V231.24L136.831 218.59L128.271 208.75L128.141 208.61L128.251 208.46C131.441 203.87 134.251 200.07 136.331 197.46C137.331 196.14 138.181 195.11 138.751 194.41L139.411 193.62C139.571 193.45 139.651 193.36 139.661 193.37C139.671 193.38 139.611 193.48 139.471 193.67L138.871 194.51C138.291 195.28 137.521 196.33 136.561 197.64C134.561 200.32 131.791 204.15 128.641 208.76V208.47L137.241 218.27C141.301 222.94 145.091 227.27 148.241 230.98L148.371 231.13L148.231 231.28L140.681 239.28L138.541 241.48C138.322 241.727 138.084 241.958 137.831 242.17Z" fill="#263238"/>
<path d="M335.329 180.49C334.81 180.167 334.232 179.949 333.629 179.85C331.955 179.739 330.288 180.152 328.859 181.03C327.822 181.599 326.734 182.068 325.609 182.43C324.959 182.618 324.284 182.699 323.609 182.67C322.901 182.622 322.202 182.484 321.529 182.26C320.136 181.725 318.774 181.114 317.449 180.43C316.088 179.682 314.551 179.316 312.999 179.37C311.455 179.609 309.976 180.156 308.649 180.98C307.367 181.756 306.006 182.393 304.589 182.88C303.251 183.302 301.807 183.242 300.509 182.71C299.433 182.227 298.388 181.68 297.379 181.07C296.689 180.612 295.907 180.311 295.088 180.186C294.27 180.062 293.434 180.118 292.639 180.35C292.072 180.576 291.58 180.958 291.219 181.45C291.266 181.293 291.345 181.147 291.449 181.02C291.734 180.638 292.118 180.341 292.559 180.16C293.383 179.878 294.26 179.784 295.126 179.886C295.991 179.989 296.823 180.284 297.559 180.75C298.562 181.328 299.597 181.849 300.659 182.31C301.875 182.783 303.217 182.822 304.459 182.42C305.854 181.932 307.195 181.298 308.459 180.53C309.838 179.661 311.385 179.092 312.999 178.86C314.643 178.793 316.274 179.173 317.719 179.96C319.016 180.651 320.352 181.269 321.719 181.81C322.941 182.269 324.274 182.342 325.539 182.02C326.644 181.68 327.715 181.238 328.739 180.7C330.254 179.836 332.008 179.486 333.739 179.7C334.203 179.783 334.645 179.96 335.039 180.22C335.229 180.35 335.339 180.48 335.329 180.49Z" fill="#263238"/>
<path d="M336.069 187.54C335.551 187.214 334.973 186.996 334.369 186.9C332.695 186.791 331.029 187.203 329.599 188.08C328.567 188.651 327.482 189.12 326.359 189.48C325.709 189.666 325.034 189.747 324.359 189.72C323.648 189.671 322.945 189.534 322.269 189.31C320.878 188.776 319.519 188.162 318.199 187.47C316.831 186.731 315.292 186.368 313.739 186.42C312.199 186.645 310.722 187.183 309.399 188C308.113 188.774 306.748 189.411 305.329 189.9C303.991 190.322 302.547 190.262 301.249 189.73C300.176 189.247 299.134 188.7 298.129 188.09C297.437 187.633 296.653 187.331 295.833 187.207C295.013 187.083 294.175 187.138 293.379 187.37C292.811 187.59 292.32 187.973 291.969 188.47C292.011 188.311 292.09 188.163 292.199 188.04C292.477 187.651 292.862 187.352 293.309 187.18C294.133 186.896 295.01 186.802 295.876 186.904C296.742 187.006 297.573 187.302 298.309 187.77C299.315 188.342 300.35 188.862 301.409 189.33C302.625 189.803 303.967 189.842 305.209 189.44C306.587 188.948 307.911 188.315 309.159 187.55C310.542 186.68 312.092 186.108 313.709 185.87C315.35 185.812 316.976 186.196 318.419 186.98C319.715 187.67 321.051 188.285 322.419 188.82C323.639 189.287 324.973 189.364 326.239 189.04C327.342 188.695 328.413 188.253 329.439 187.72C330.946 186.833 332.702 186.464 334.439 186.67C334.903 186.752 335.346 186.929 335.739 187.19C335.999 187.4 336.079 187.53 336.069 187.54Z" fill="#263238"/>
<path d="M335.733 194.88C335.215 194.554 334.637 194.337 334.033 194.24C332.359 194.131 330.693 194.544 329.263 195.42C328.231 195.995 327.146 196.467 326.023 196.83C325.372 197.009 324.697 197.086 324.023 197.06C323.312 197.012 322.61 196.874 321.933 196.65C320.54 196.124 319.181 195.513 317.863 194.82C316.494 194.089 314.953 193.744 313.403 193.82C311.862 194.051 310.385 194.595 309.063 195.42C307.779 196.199 306.414 196.836 304.993 197.32C303.655 197.737 302.214 197.681 300.913 197.16C299.842 196.67 298.8 196.12 297.793 195.51C297.1 195.055 296.317 194.755 295.497 194.63C294.677 194.506 293.84 194.561 293.043 194.79C292.475 195.01 291.985 195.393 291.633 195.89C291.677 195.732 291.756 195.585 291.863 195.46C292.143 195.074 292.529 194.775 292.973 194.6C293.797 194.317 294.675 194.222 295.54 194.324C296.406 194.427 297.237 194.722 297.973 195.19C298.977 195.766 300.012 196.287 301.073 196.75C302.288 197.228 303.632 197.267 304.873 196.86C306.251 196.369 307.575 195.735 308.823 194.97C310.205 194.1 311.756 193.531 313.373 193.3C315.013 193.235 316.641 193.615 318.083 194.4C319.381 195.09 320.717 195.707 322.083 196.25C323.305 196.709 324.638 196.783 325.903 196.46C327.008 196.12 328.079 195.678 329.103 195.14C330.613 194.261 332.367 193.892 334.103 194.09C334.566 194.177 335.007 194.354 335.403 194.61C335.633 194.74 335.743 194.87 335.733 194.88Z" fill="#263238"/>
<path d="M265.999 368.32C270.14 366.381 274.794 365.817 279.279 366.71C281.679 367.11 284.189 367.83 285.829 369.64C287.469 371.45 287.779 374.64 285.899 376.18C284.688 377.005 283.226 377.376 281.769 377.23C278.259 377.23 274.359 376.57 271.559 378.68C269.959 379.89 268.899 381.89 266.989 382.48C266.028 382.706 265.02 382.613 264.118 382.214C263.215 381.815 262.468 381.133 261.989 380.27C261.08 378.511 260.88 376.472 261.429 374.57C261.658 373.247 262.189 371.994 262.982 370.91C263.775 369.826 264.807 368.939 265.999 368.32Z" fill="#FFC440"/>
<path d="M256.751 350.47C259.211 353.99 264.011 352.83 266.241 350.67C268.471 348.51 269.401 345.4 270.241 342.43C272.191 335.63 274.161 328.5 272.711 321.58C272.356 319.486 271.437 317.529 270.051 315.92C269.346 315.126 268.444 314.531 267.436 314.196C266.429 313.861 265.351 313.797 264.311 314.01C261.901 314.65 260.391 317.01 259.311 319.27C256.106 325.926 254.425 333.213 254.391 340.6C254.391 344.03 254.791 347.6 256.731 350.47" fill="#FFC440"/>
<path d="M250.002 355.53C252.682 352.35 253.192 347.71 252.002 343.72C250.647 339.76 248.225 336.251 245.002 333.58C241.349 330.326 237.096 327.815 232.482 326.19C230.696 325.47 228.775 325.146 226.852 325.24C225.891 325.295 224.958 325.583 224.134 326.08C223.31 326.576 222.619 327.266 222.122 328.09C220.812 330.61 222.072 333.66 223.442 336.14C225.848 340.523 228.597 344.709 231.662 348.66C234.132 351.84 236.952 354.98 240.712 356.41C244.472 357.84 248.362 357.68 250.352 355.08" fill="#FFC440"/>
<path d="M256.579 403.65C256.704 403.125 256.778 402.589 256.799 402.05C256.919 400.88 257.059 399.42 257.229 397.68C257.451 395.524 257.785 393.381 258.229 391.26C258.805 388.679 259.584 386.148 260.559 383.69C261.519 381.239 262.822 378.936 264.429 376.85C265.735 375.15 267.401 373.76 269.309 372.78C270.608 372.143 271.998 371.711 273.429 371.5C273.966 371.485 274.5 371.408 275.019 371.27C274.48 371.216 273.937 371.216 273.399 371.27C271.914 371.382 270.461 371.758 269.109 372.38C267.096 373.332 265.331 374.735 263.949 376.48C262.278 378.604 260.93 380.963 259.949 383.48C258.956 385.972 258.18 388.545 257.629 391.17C257.22 393.315 256.936 395.482 256.779 397.66C256.639 399.52 256.589 401.02 256.559 402.06C256.506 402.589 256.512 403.123 256.579 403.65Z" fill="#263238"/>
<path d="M256.881 400.29C256.911 400.041 256.911 399.789 256.881 399.54V397.42C256.881 395.57 256.881 392.9 256.971 389.61C257.131 383.01 257.701 375.92 258.801 365.91C259.801 356.51 261.231 345.56 262.701 338.44C263.021 336.82 263.331 335.37 263.631 334.09C263.921 332.81 264.161 331.71 264.401 330.82L264.891 328.75C264.971 328.515 265.015 328.269 265.021 328.02C264.908 328.242 264.824 328.477 264.771 328.72C264.601 329.25 264.401 329.92 264.151 330.72C263.901 331.52 263.591 332.72 263.271 333.97C262.951 335.22 262.591 336.7 262.271 338.31C260.455 346.728 259.087 355.237 258.171 363.8C257.071 373.8 256.581 382.96 256.531 389.57C256.531 392.87 256.531 395.57 256.651 397.39C256.651 398.26 256.751 398.96 256.781 399.52C256.788 399.779 256.821 400.038 256.881 400.29Z" fill="#263238"/>
<path d="M256.918 382.68C256.979 381.941 256.979 381.199 256.918 380.46C256.838 379.03 256.638 376.97 256.238 374.46C255.738 371.504 255.07 368.58 254.238 365.7C253.286 362.154 252.062 358.688 250.578 355.33C248.036 349.135 244.386 343.456 239.808 338.57C239.015 337.731 238.17 336.943 237.278 336.21C236.888 335.88 236.548 335.56 236.198 335.3L235.198 334.62C234.602 334.179 233.977 333.778 233.328 333.42C235.477 335.118 237.52 336.945 239.448 338.89C243.873 343.818 247.424 349.466 249.948 355.59C251.401 358.932 252.633 362.366 253.638 365.87C254.476 368.723 255.17 371.617 255.718 374.54C256.178 377.05 256.438 379.09 256.598 380.54C256.653 381.26 256.76 381.975 256.918 382.68Z" fill="#263238"/>
<path d="M238.734 411.06L240.494 435.23H271.544L273.314 411.06H238.734Z" fill="#263238"/>
<path d="M277.014 401.53H235.734V411.06H277.014V401.53Z" fill="#263238"/>
<path d="M235.734 434.3V436.94H237.674H276.334V434.3H235.734Z" fill="#5ACAFF"/>
<path d="M239.572 441.59L237.672 436.94H274.852L272.632 441.59H239.572Z" fill="#5ACAFF"/>
<path d="M272.73 419C272.692 419.081 272.641 419.155 272.58 419.22L272.12 419.84L270.31 422.15L270.23 422.25L270.15 422.15C269.02 420.57 267.5 418.47 265.71 416H266C264.67 417.87 263.2 420 261.62 422.2L261.48 422.39L261.33 422.21L256.11 416H256.41L256.13 416.36L251.49 422.17L251.33 422.37L251.19 422.17L246.81 415.97H247.07C244.91 418.42 243.07 420.51 241.68 422.11L241.58 422.22L241.51 422.09L239.82 419.26L239.39 418.5C239.335 418.415 239.288 418.325 239.25 418.23C239.318 418.304 239.378 418.384 239.43 418.47C239.56 418.66 239.72 418.9 239.91 419.2L241.69 421.98H241.52L246.82 415.76L246.95 415.61L247.08 415.78L251.49 421.94H251.19L255.82 416.12L256.11 415.76L256.26 415.57L256.41 415.76L261.58 421.94H261.29L265.71 415.78L265.84 415.6L265.97 415.78L270.31 421.99H270.16L272.04 419.73L272.54 419.15C272.66 419 272.72 419 272.73 419Z" fill="#E0E0E0"/>
<path d="M273.74 410.9C273.74 411.01 265.96 411.09 256.36 411.09C246.76 411.09 239 411 239 410.9C239 410.8 246.78 410.71 256.37 410.71C265.96 410.71 273.74 410.79 273.74 410.9Z" fill="#5ACAFF"/>
<path d="M275.309 437.2C275.309 437.31 266.849 437.4 256.419 437.4C245.989 437.4 237.539 437.31 237.539 437.2C237.539 437.09 245.999 437 256.419 437C266.839 437 275.309 437.1 275.309 437.2Z" fill="#263238"/>
<g opacity="0.2">
<path d="M265.999 368.32C270.14 366.381 274.794 365.817 279.279 366.71C281.679 367.11 284.189 367.83 285.829 369.64C287.469 371.45 287.779 374.64 285.899 376.18C284.688 377.005 283.226 377.376 281.769 377.23C278.259 377.23 274.359 376.57 271.559 378.68C269.959 379.89 268.899 381.89 266.989 382.48C266.028 382.706 265.02 382.613 264.118 382.214C263.215 381.815 262.468 381.133 261.989 380.27C261.08 378.511 260.88 376.472 261.429 374.57C261.658 373.247 262.189 371.994 262.982 370.91C263.775 369.826 264.807 368.939 265.999 368.32Z" fill="black"/>
</g>
<path d="M493.93 181C492.79 184.51 490.82 186.16 488.69 185.47C488.381 185.388 488.093 185.244 487.843 185.046C487.593 184.848 487.386 184.6 487.236 184.319C487.086 184.037 486.995 183.727 486.97 183.409C486.945 183.091 486.986 182.771 487.09 182.47C486.437 183.045 485.641 183.434 484.785 183.594C483.93 183.754 483.047 183.68 482.23 183.38C480.888 182.866 479.795 181.857 479.175 180.561C478.555 179.265 478.457 177.78 478.899 176.413C479.341 175.047 480.291 173.902 481.553 173.214C482.814 172.527 484.292 172.35 485.68 172.72C486.503 172.953 487.25 173.4 487.845 174.014C488.44 174.629 488.863 175.39 489.07 176.22L489.74 174.13L491.09 174.57L488.55 182.39C488.17 183.55 488.62 184.15 489.32 184.39C490.6 184.8 491.94 183.48 492.85 180.69C494.42 175.84 491.98 171.49 486.98 169.86C481.98 168.23 477.37 170.49 475.78 175.39C474.19 180.29 476.49 184.82 481.51 186.39C482.882 186.839 484.339 186.969 485.77 186.77V187.9C484.215 188.091 482.638 187.938 481.15 187.45C475.47 185.61 472.85 180.45 474.63 174.97C476.41 169.49 481.63 166.91 487.3 168.76C492.97 170.61 495.68 175.55 493.93 181ZM488.07 179.35C488.277 178.567 488.251 177.741 487.994 176.973C487.736 176.206 487.26 175.53 486.622 175.031C485.985 174.531 485.216 174.229 484.409 174.163C483.602 174.096 482.793 174.268 482.083 174.656C481.372 175.044 480.791 175.632 480.412 176.347C480.032 177.062 479.87 177.873 479.947 178.679C480.023 179.485 480.334 180.251 480.841 180.882C481.348 181.513 482.029 181.982 482.8 182.23C483.337 182.424 483.909 182.501 484.477 182.455C485.046 182.41 485.599 182.243 486.098 181.967C486.597 181.69 487.031 181.31 487.372 180.852C487.712 180.393 487.95 179.868 488.07 179.31V179.35Z" fill="#FFC440"/>
<path d="M371.392 192.62C371.612 195.48 370.682 197.25 368.942 197.38C368.694 197.415 368.442 197.398 368.202 197.33C367.961 197.263 367.737 197.146 367.544 196.987C367.352 196.828 367.194 196.63 367.082 196.407C366.969 196.184 366.905 195.94 366.892 195.69C366.595 196.301 366.138 196.819 365.569 197.189C365 197.559 364.34 197.767 363.662 197.79C362.546 197.812 361.464 197.407 360.638 196.657C359.812 195.907 359.304 194.869 359.218 193.756C359.133 192.644 359.476 191.541 360.177 190.673C360.879 189.805 361.886 189.239 362.992 189.09C363.654 189.015 364.325 189.116 364.936 189.383C365.547 189.65 366.077 190.073 366.472 190.61L366.332 188.9L367.432 188.82L367.922 195.21C368.002 196.15 368.492 196.45 369.072 196.41C370.072 196.33 370.692 194.98 370.512 192.7C370.202 188.7 367.152 186.33 363.072 186.64C358.992 186.95 356.342 189.95 356.652 193.94C356.681 194.853 356.902 195.75 357.3 196.572C357.698 197.394 358.263 198.124 358.961 198.714C359.658 199.304 360.472 199.741 361.349 199.997C362.226 200.253 363.146 200.322 364.052 200.2C365.173 200.109 366.26 199.767 367.232 199.2L367.582 200.01C366.518 200.599 365.335 200.941 364.122 201.01C363.099 201.147 362.059 201.069 361.067 200.782C360.076 200.494 359.156 200.003 358.365 199.339C357.575 198.676 356.931 197.855 356.476 196.928C356.021 196.002 355.764 194.991 355.722 193.96C355.382 189.48 358.352 186.09 363.012 185.73C367.672 185.37 371.002 188.2 371.392 192.62ZM366.682 193.17C366.6 192.546 366.336 191.959 365.924 191.483C365.512 191.007 364.97 190.662 364.364 190.491C363.758 190.32 363.115 190.33 362.515 190.521C361.914 190.712 361.383 191.074 360.987 191.563C360.591 192.053 360.347 192.647 360.285 193.274C360.223 193.901 360.346 194.532 360.639 195.089C360.933 195.646 361.383 196.105 361.934 196.41C362.486 196.714 363.114 196.849 363.742 196.8C364.181 196.776 364.611 196.66 365.003 196.46C365.395 196.259 365.74 195.979 366.017 195.637C366.294 195.295 366.496 194.899 366.611 194.474C366.725 194.049 366.749 193.605 366.682 193.17Z" fill="#263238"/>
<path d="M483.075 322.63C481.805 325.74 479.895 327.09 478.015 326.31C477.74 326.217 477.487 326.067 477.273 325.871C477.058 325.674 476.887 325.435 476.77 325.169C476.654 324.902 476.594 324.614 476.595 324.324C476.596 324.033 476.657 323.745 476.775 323.48C476.141 323.952 475.392 324.246 474.606 324.331C473.82 324.415 473.025 324.287 472.305 323.96C471.121 323.402 470.196 322.411 469.722 321.19C469.248 319.969 469.262 318.613 469.761 317.403C470.259 316.192 471.205 315.219 472.401 314.686C473.597 314.153 474.952 314.101 476.185 314.54C476.921 314.814 477.57 315.278 478.066 315.887C478.561 316.495 478.886 317.224 479.005 318L479.765 316.15L480.955 316.64L478.105 323.56C477.685 324.56 478.045 325.16 478.665 325.41C479.795 325.88 481.105 324.78 482.125 322.31C483.885 318.02 481.975 313.9 477.555 312.08C473.135 310.26 468.805 311.98 467.015 316.31C465.225 320.64 467.015 324.9 471.445 326.73C472.658 327.228 473.967 327.447 475.275 327.37L475.215 328.37C473.791 328.444 472.369 328.195 471.055 327.64C466.055 325.58 464.055 320.71 466.055 315.87C468.055 311.03 472.945 309.06 477.985 311.13C483.025 313.2 485.005 317.85 483.075 322.63ZM477.885 320.73C478.129 320.034 478.162 319.283 477.983 318.569C477.804 317.854 477.419 317.208 476.877 316.709C476.334 316.211 475.657 315.883 474.93 315.765C474.203 315.647 473.457 315.744 472.785 316.046C472.113 316.347 471.544 316.838 471.148 317.459C470.752 318.081 470.546 318.804 470.557 319.541C470.568 320.277 470.794 320.995 471.208 321.604C471.621 322.213 472.205 322.688 472.885 322.97C473.358 323.18 473.869 323.288 474.386 323.287C474.903 323.287 475.414 323.177 475.885 322.966C476.357 322.754 476.779 322.446 477.124 322.061C477.468 321.676 477.728 321.222 477.885 320.73Z" fill="#FFC440"/>
<path d="M569.869 270.74C568.589 273.84 566.689 275.19 564.809 274.42C564.534 274.325 564.28 274.175 564.066 273.977C563.851 273.78 563.68 273.541 563.562 273.274C563.445 273.007 563.384 272.719 563.383 272.427C563.383 272.135 563.443 271.847 563.559 271.58C562.928 272.057 562.179 272.354 561.392 272.441C560.605 272.527 559.81 272.399 559.089 272.07C557.905 271.512 556.98 270.521 556.506 269.3C556.032 268.079 556.046 266.723 556.545 265.512C557.043 264.302 557.989 263.329 559.185 262.796C560.381 262.263 561.736 262.211 562.969 262.65C563.699 262.917 564.345 263.372 564.842 263.969C565.339 264.566 565.669 265.284 565.799 266.05L566.559 264.21L567.739 264.7L564.889 271.62C564.469 272.62 564.829 273.21 565.449 273.47C566.589 273.94 567.899 272.83 568.909 270.37C570.679 266.07 568.759 261.96 564.349 260.14C559.939 258.32 555.589 260.03 553.809 264.36C553.36 265.328 553.119 266.379 553.101 267.447C553.084 268.514 553.29 269.573 553.706 270.555C554.122 271.538 554.74 272.422 555.519 273.152C556.298 273.881 557.222 274.439 558.229 274.79C559.445 275.289 560.758 275.508 562.069 275.43L562.009 276.43C560.586 276.495 559.166 276.245 557.849 275.7C552.849 273.63 550.849 268.77 552.799 263.93C554.749 259.09 559.689 257.11 564.729 259.19C569.769 261.27 571.839 266 569.869 270.74ZM564.669 268.83C564.908 268.136 564.938 267.388 564.756 266.677C564.575 265.966 564.189 265.324 563.647 264.83C563.105 264.336 562.43 264.011 561.706 263.895C560.982 263.779 560.239 263.878 559.571 264.179C558.902 264.48 558.335 264.97 557.941 265.589C557.548 266.208 557.343 266.929 557.354 267.662C557.364 268.395 557.589 269.11 558.001 269.717C558.412 270.324 558.992 270.798 559.669 271.08C560.142 271.29 560.654 271.397 561.172 271.396C561.689 271.395 562.2 271.284 562.672 271.072C563.144 270.86 563.566 270.55 563.91 270.164C564.254 269.777 564.513 269.323 564.669 268.83Z" fill="#5ACAFF"/>
<path d="M461.257 131.46C459.837 134.9 457.727 136.4 455.637 135.54C455.331 135.435 455.051 135.267 454.814 135.048C454.577 134.829 454.388 134.563 454.259 134.266C454.13 133.97 454.064 133.65 454.066 133.327C454.067 133.004 454.135 132.685 454.267 132.39C453.562 132.928 452.724 133.264 451.842 133.359C450.961 133.454 450.07 133.306 449.267 132.93C447.941 132.321 446.902 131.222 446.368 129.864C445.835 128.506 445.847 126.994 446.402 125.645C446.958 124.296 448.014 123.214 449.35 122.626C450.685 122.038 452.196 121.989 453.567 122.49C454.375 122.786 455.09 123.29 455.64 123.953C456.19 124.615 456.555 125.411 456.697 126.26L457.537 124.26L458.857 124.8L455.697 132.47C455.227 133.61 455.627 134.25 456.317 134.53C457.577 135.05 459.027 133.82 460.157 131.09C462.107 126.33 459.987 121.76 455.087 119.74C450.187 117.72 445.377 119.63 443.407 124.43C441.437 129.23 443.407 133.97 448.307 135.99C449.652 136.542 451.105 136.785 452.557 136.7L452.497 137.83C450.916 137.907 449.337 137.631 447.877 137.02C442.317 134.73 440.077 129.34 442.287 124.02C444.497 118.7 449.927 116.46 455.517 118.76C461.107 121.06 463.437 126.16 461.257 131.46ZM455.487 129.35C455.695 128.844 455.802 128.301 455.802 127.754C455.801 127.206 455.692 126.664 455.482 126.158C455.272 125.653 454.964 125.194 454.576 124.807C454.188 124.42 453.728 124.114 453.222 123.905C452.715 123.696 452.173 123.589 451.625 123.59C451.078 123.591 450.536 123.7 450.03 123.91C449.524 124.12 449.065 124.428 448.679 124.816C448.292 125.204 447.985 125.664 447.777 126.17C447.522 126.684 447.376 127.244 447.347 127.817C447.318 128.389 447.407 128.961 447.609 129.498C447.811 130.035 448.121 130.524 448.52 130.936C448.919 131.347 449.398 131.672 449.928 131.891C450.458 132.11 451.027 132.217 451.6 132.206C452.173 132.195 452.738 132.067 453.259 131.828C453.781 131.59 454.248 131.247 454.631 130.821C455.014 130.394 455.305 129.894 455.487 129.35Z" fill="#263238"/>
<path d="M404.002 238.51C405.122 241.42 404.702 243.51 402.942 244.23C402.694 244.337 402.428 244.392 402.158 244.394C401.889 244.395 401.622 244.341 401.373 244.237C401.125 244.132 400.9 243.978 400.712 243.785C400.525 243.591 400.378 243.362 400.282 243.11C400.162 243.836 399.848 244.516 399.373 245.078C398.897 245.64 398.278 246.062 397.582 246.3C396.42 246.705 395.147 246.642 394.03 246.125C392.914 245.608 392.042 244.678 391.6 243.53C391.157 242.382 391.178 241.107 391.658 239.974C392.138 238.842 393.039 237.94 394.172 237.46C394.835 237.175 395.561 237.071 396.278 237.157C396.994 237.243 397.675 237.516 398.252 237.95L397.592 236.22L398.702 235.79L401.202 242.28C401.572 243.28 402.202 243.4 402.772 243.18C403.832 242.77 404.002 241.18 403.112 238.87C401.562 234.87 397.632 233.29 393.492 234.87C389.352 236.45 387.492 240.4 389.092 244.46C389.408 245.4 389.917 246.264 390.588 246.995C391.258 247.726 392.074 248.309 392.983 248.706C393.892 249.102 394.874 249.304 395.866 249.298C396.858 249.292 397.838 249.078 398.742 248.67C399.879 248.236 400.904 247.553 401.742 246.67L402.362 247.4C401.444 248.358 400.323 249.1 399.082 249.57C394.372 251.39 389.902 249.39 388.152 244.85C386.402 240.31 388.442 235.85 393.152 234.03C397.862 232.21 402.242 234 404.002 238.51ZM399.272 240.51C398.99 239.886 398.532 239.358 397.954 238.992C397.376 238.626 396.703 238.437 396.019 238.449C395.334 238.461 394.668 238.674 394.104 239.061C393.539 239.448 393.1 239.991 392.841 240.625C392.582 241.259 392.515 241.954 392.647 242.626C392.78 243.297 393.106 243.915 393.586 244.403C394.066 244.891 394.679 245.228 395.348 245.371C396.017 245.514 396.714 245.458 397.352 245.21C397.795 245.045 398.199 244.789 398.538 244.46C398.878 244.131 399.145 243.734 399.324 243.297C399.502 242.859 399.588 242.388 399.576 241.916C399.563 241.443 399.453 240.978 399.252 240.55L399.272 240.51Z" fill="#FFC440"/>
<path d="M419.34 274.996L387.375 288.525L396.492 310.065L428.457 296.536L419.34 274.996Z" fill="#263238"/>
<path d="M428.456 296.5C428.456 296.5 428.386 296.36 428.276 296.11C428.166 295.86 427.986 295.46 427.776 294.97L425.906 290.64C424.306 286.9 422.006 281.54 419.216 275.01L419.386 275.08L387.446 288.64C387.446 288.69 387.616 288.22 387.536 288.43V288.5V288.59L387.616 288.77L387.766 289.13L388.066 289.85C388.276 290.32 388.476 290.8 388.676 291.27L389.866 294.09L392.196 299.6L396.636 310L396.436 309.92L419.436 300.25L426.036 297.5L427.806 296.78L428.266 296.59L428.426 296.53L428.286 296.6L427.846 296.79L426.126 297.54L419.586 300.36L396.526 310.2L396.386 310.26L396.326 310.12C394.936 306.84 393.456 303.38 391.936 299.77C391.17 297.97 390.39 296.133 389.596 294.26L388.406 291.44L387.796 290.02L387.496 289.3L387.346 288.94L387.266 288.76V288.67C387.176 288.86 387.366 288.39 387.356 288.44L419.356 274.94L419.476 274.89L419.536 275.02L426.126 290.78C426.896 292.64 427.506 294.09 427.926 295.1C428.116 295.59 428.276 295.96 428.386 296.23C428.496 296.5 428.456 296.5 428.456 296.5Z" fill="#263238"/>
<path d="M419.335 275C419.298 275.141 419.247 275.278 419.185 275.41C419.065 275.7 418.895 276.08 418.695 276.56L416.835 280.78C415.215 284.36 413.005 289.28 410.535 294.78L410.475 294.91H410.335L409.285 294.63L393.775 290.42L389.085 289L387.815 288.63L387.375 288.48L387.835 288.56L389.115 288.88L393.835 290.08L409.365 294.19L410.425 294.47L410.225 294.57L416.625 280.63C417.435 278.89 418.105 277.47 418.625 276.46L419.165 275.33C419.213 275.216 419.27 275.105 419.335 275Z" fill="#5ACAFF"/>
<path d="M396.602 310.19C397.25 307.146 398.072 304.141 399.062 301.19C399.894 298.173 400.896 295.205 402.062 292.3C401.399 295.342 400.575 298.346 399.592 301.3C398.754 304.314 397.756 307.282 396.602 310.19Z" fill="#5ACAFF"/>
<path d="M428.45 296.5C427.647 296.248 426.873 295.912 426.14 295.5C424.75 294.84 422.84 293.89 420.75 292.81C418.66 291.73 416.75 290.73 415.41 289.98C414.646 289.616 413.922 289.173 413.25 288.66C414.045 288.916 414.812 289.251 415.54 289.66C416.93 290.32 418.85 291.27 420.95 292.35C423.05 293.43 424.95 294.44 426.31 295.19C427.065 295.554 427.782 295.993 428.45 296.5Z" fill="#5ACAFF"/>
<path d="M530.767 168.426L530.25 206.912L587.345 207.679L587.862 169.193L530.767 168.426Z" fill="#FFC440"/>
<path d="M587.893 169.21C587.745 169.4 587.577 169.574 587.393 169.73L585.893 171.14L580.303 176.26L561.553 193.15L561.383 193.3L561.193 193.16L559.793 192.03L539.213 175.44L533.003 170.36L531.333 168.96C531.127 168.809 530.939 168.634 530.773 168.44C530.993 168.568 531.204 168.712 531.403 168.87L533.133 170.19L539.443 175.13L560.123 191.6L561.523 192.72H561.163L580.003 176L585.713 171L587.283 169.67C587.47 169.495 587.674 169.341 587.893 169.21Z" fill="#263238"/>
<path d="M530.275 206.93C530.175 206.83 534.665 201.65 540.325 195.35C545.985 189.05 550.645 184.03 550.755 184.12C550.865 184.21 546.365 189.4 540.755 195.7C535.145 202 530.385 207 530.275 206.93Z" fill="#263238"/>
<path d="M587.373 207.7C587.091 207.465 586.839 207.196 586.623 206.9C586.173 206.36 585.523 205.57 584.743 204.59C583.173 202.59 581.023 199.92 578.683 196.89C576.343 193.86 574.253 191.1 572.743 189.08C572.053 188.08 571.473 187.33 570.983 186.67C570.752 186.377 570.551 186.062 570.383 185.73C570.383 185.73 570.673 185.98 571.123 186.52L573.003 188.81C574.573 190.81 576.723 193.5 579.073 196.54C581.423 199.58 583.523 202.34 585.023 204.36C585.773 205.36 586.373 206.2 586.783 206.77C587.016 207.055 587.214 207.367 587.373 207.7Z" fill="#263238"/>
<path d="M452.993 222.379L449.984 261.393L507.863 265.857L510.871 226.843L452.993 222.379Z" fill="#5ACAFF"/>
<path d="M510.871 226.84C510.714 227.026 510.536 227.194 510.341 227.34L508.721 228.67L502.721 233.51L482.611 249.43L482.421 249.58L482.251 249.42L480.901 248.19L461.091 230L455.091 224.44L453.491 222.91C453.295 222.742 453.117 222.554 452.961 222.35C453.177 222.493 453.381 222.653 453.571 222.83L455.241 224.28L461.321 229.7L481.241 247.7L482.591 248.93H482.221L502.441 233.15L508.551 228.45L510.231 227.2C510.434 227.062 510.648 226.942 510.871 226.84Z" fill="#263238"/>
<path d="M450.002 261.7C449.892 261.6 454.702 256.49 460.732 250.29C466.762 244.09 471.732 239.15 471.842 239.29C471.952 239.43 467.142 244.49 461.102 250.7C455.062 256.91 450.132 261.8 450.002 261.7Z" fill="#263238"/>
<path d="M507.867 265.85C507.592 265.595 507.347 265.31 507.137 265L505.297 262.55C503.757 260.47 501.667 257.55 499.387 254.37C497.107 251.19 495.047 248.23 493.587 246.1C492.917 245.1 492.337 244.24 491.867 243.54C491.639 243.23 491.448 242.894 491.297 242.54C491.569 242.791 491.81 243.073 492.017 243.38L493.857 245.83C495.397 247.9 497.487 250.83 499.787 254.02C502.087 257.21 504.127 260.18 505.587 262.31L507.307 264.86C507.533 265.166 507.721 265.499 507.867 265.85Z" fill="#263238"/>
<path d="M447.182 193.32C447.182 193.32 447.182 193.13 447.092 192.78L446.842 191.23C446.642 189.86 446.342 187.87 445.952 185.34C445.202 180.25 444.132 172.96 442.812 164.08L443.012 164.23L399.602 170.5C399.552 170.55 399.942 170.04 399.782 170.26V170.36V170.48V170.72L399.852 171.21L399.982 172.21C400.082 172.86 400.172 173.51 400.262 174.15C400.452 175.44 400.632 176.72 400.812 177.99C401.172 180.52 401.532 182.99 401.882 185.47C402.582 190.37 403.252 195.08 403.882 199.54L403.662 199.37L435.002 195L444.002 193.77L446.392 193.45L447.012 193.37H447.232C447.232 193.37 447.172 193.37 447.042 193.37L446.442 193.47L444.102 193.83L435.202 195.16L403.842 199.76H403.652V199.56C403.012 195.1 402.332 190.4 401.652 185.5C401.292 183.05 400.942 180.5 400.572 178.02C400.392 176.75 400.202 175.47 400.022 174.18C399.932 173.54 399.832 172.89 399.742 172.25L399.602 171.25L399.532 170.76V170.52V170.4V170.29C399.372 170.51 399.752 169.99 399.722 170.05L443.002 163.89H443.172V164.06C444.422 172.99 445.442 180.33 446.172 185.45C446.512 187.97 446.782 189.95 446.972 191.32C447.052 191.97 447.122 192.48 447.172 192.84C447.222 193.2 447.182 193.32 447.182 193.32Z" fill="#263238"/>
<path d="M443.005 164.06C442.918 164.221 442.814 164.372 442.695 164.51L441.695 165.76L438.055 170.31L425.855 185.36L425.735 185.5L425.575 185.41L424.385 184.73L406.785 174.59L401.475 171.48L400.045 170.62C399.875 170.52 399.711 170.41 399.555 170.29C399.74 170.355 399.917 170.439 400.085 170.54L401.555 171.34L406.935 174.34L424.595 184.34L425.795 185.02L425.515 185.07L437.835 170.07L441.565 165.59L442.565 164.4C442.701 164.273 442.848 164.16 443.005 164.06Z" fill="#263238"/>
<path d="M403.84 199.78C403.72 199.7 406.4 195.13 409.84 189.56C413.28 183.99 416.15 179.56 416.27 179.62C416.39 179.68 413.71 184.27 410.27 189.84C406.83 195.41 404 199.85 403.84 199.78Z" fill="#263238"/>
<path d="M447.185 193.32C446.306 192.725 445.479 192.056 444.715 191.32C443.235 190.05 441.215 188.26 438.995 186.32C436.775 184.38 434.795 182.5 433.375 181.16C432.568 180.461 431.816 179.702 431.125 178.89C432.003 179.482 432.826 180.151 433.585 180.89C435.065 182.16 437.095 183.89 439.315 185.89C441.535 187.89 443.535 189.72 444.955 191.07C445.762 191.754 446.508 192.507 447.185 193.32Z" fill="#263238"/>
<path d="M386.377 119.604L351.961 136.546L363.382 159.747L397.798 142.805L386.377 119.604Z" fill="#FFC440"/>
<path d="M385.863 119.47C385.834 119.628 385.787 119.782 385.723 119.93L385.263 121.23C384.823 122.4 384.213 124.01 383.473 126L377.393 141.83L377.343 141.97H377.183L376.003 141.7L358.623 138L353.363 136.85L351.943 136.51C351.774 136.486 351.609 136.439 351.453 136.37C351.622 136.377 351.789 136.401 351.953 136.44L353.393 136.7L358.683 137.7L376.083 141.25L377.263 141.5L377.043 141.61C379.473 135.43 381.643 129.88 383.233 125.83L385.123 121.1C385.343 120.57 385.523 120.1 385.653 119.82C385.713 119.697 385.783 119.58 385.863 119.47Z" fill="#263238"/>
<path d="M362.875 159.61C363.19 156.254 363.674 152.917 364.325 149.61C364.816 146.264 365.484 142.946 366.325 139.67C366.465 139.67 365.805 144.18 364.865 149.67C364.369 153.015 363.705 156.332 362.875 159.61Z" fill="#263238"/>
<path d="M380.547 132.77C383.463 134.188 386.301 135.764 389.047 137.49C391.887 139.064 394.638 140.793 397.287 142.67C394.374 141.241 391.537 139.662 388.787 137.94C385.952 136.362 383.201 134.636 380.547 132.77Z" fill="#263238"/>
<path d="M546.141 106.82H507.781V132.68H546.141V106.82Z" fill="#5ACAFF"/>
<path d="M546.143 106.82C546.041 106.944 545.931 107.061 545.813 107.17L544.813 108.17L541.093 111.66L528.663 123.17L528.543 123.28L528.423 123.18L527.423 122.44L513.423 111.44L509.213 108.09L508.083 107.16C507.943 107.062 507.816 106.948 507.703 106.82C507.851 106.901 507.991 106.995 508.123 107.1L509.303 107.97L513.583 111.24L527.583 122.11L528.583 122.85H528.333L540.853 111.42L544.643 108.01L545.643 107.1C545.796 106.984 545.965 106.89 546.143 106.82Z" fill="#263238"/>
<path d="M507.781 132.68C509.542 129.797 511.455 127.01 513.511 124.33C515.429 121.561 517.485 118.891 519.671 116.33C517.91 119.212 515.997 121.999 513.941 124.68C512.024 127.448 509.968 130.118 507.781 132.68Z" fill="#263238"/>
<path d="M535.492 116.4C537.48 118.966 539.329 121.637 541.032 124.4C542.884 127.066 544.59 129.83 546.142 132.68C544.155 130.114 542.305 127.443 540.602 124.68C538.757 122.01 537.052 119.246 535.492 116.4Z" fill="#263238"/>
<path d="M315.502 212.328L307.188 244.687L355.198 257.023L363.512 224.664L315.502 212.328Z" fill="#FFC440"/>
<path d="M363.496 224.66C363.334 224.787 363.16 224.898 362.976 224.99L361.416 225.88L355.656 229.05L336.386 239.46L336.206 239.56L336.076 239.39L335.126 238.16L321.126 219.95L317.006 214.4L315.886 212.88C315.749 212.702 315.626 212.515 315.516 212.32C315.685 212.468 315.836 212.636 315.966 212.82L317.156 214.29L321.466 219.74L335.536 237.87L336.536 239.1L336.226 239.03L355.566 228.76L361.406 225.76L362.996 224.96C363.15 224.841 363.318 224.74 363.496 224.66Z" fill="#263238"/>
<path d="M307.173 244.68C307.083 244.57 311.523 240.75 317.083 236.14C322.643 231.53 327.233 227.88 327.323 227.99C327.413 228.1 322.983 231.93 317.413 236.54C311.843 241.15 307.263 244.79 307.173 244.68Z" fill="#263238"/>
<path d="M347.081 233.22C347.221 233.22 349.141 238.47 351.381 245.04C353.621 251.61 355.311 256.97 355.181 257.04C355.051 257.11 353.121 251.79 350.881 245.22C348.641 238.65 347.001 233.27 347.081 233.22Z" fill="#263238"/>
</svg>
