<svg width="559" height="562" viewBox="0 0 559 562" fill="none" xmlns="http://www.w3.org/2000/svg">
<g filter="url(#filter0_d_2592_4073)">
<ellipse cx="279.449" cy="296.086" rx="275.449" ry="257.914" fill="#FFB700"/>
</g>
<path d="M495.237 161.496C481.001 168.397 470.094 180.272 462.249 193.343C454.404 206.414 449.347 220.775 444.345 235.012L439.938 308.476C456.464 282.117 469.774 251.126 473.366 220.785L462.348 219.867C469.741 218.835 475.944 213.801 479.889 207.858C483.833 201.916 485.86 195.076 487.844 188.329L474.468 190.165C485.062 183.457 492.497 173.193 495.237 161.496Z" fill="#E0E0E0"/>
<path d="M437.507 325.684C437.507 325.684 401.567 285.45 401.985 247.01H416.496C416.496 247.01 400.729 237.313 401.985 231.876C403.241 226.439 403.638 205.868 403.638 205.868L416.86 208.963C416.86 208.963 406.943 204.31 405.665 196.933C404.387 189.557 408.563 155.399 408.563 155.399C408.563 155.399 424.737 171.317 429.718 187.618C434.698 203.918 447.754 222.942 443.92 272.616C440.085 322.29 437.507 325.684 437.507 325.684Z" fill="#EBEBEB"/>
<path d="M455.733 329.491C455.733 329.491 494.659 305.216 503.309 274.235L491.64 271.264C491.64 271.264 506.581 266.694 506.856 262.072C507.132 257.45 511.594 240.82 511.594 240.82L500.201 240.603C500.201 240.603 509.291 238.891 512.013 233.217C514.734 227.543 519.395 199.234 519.395 199.234C519.395 199.234 502.658 208.715 494.847 220.775C487.035 232.835 472.084 245.535 463.556 286.234C455.028 326.932 455.733 329.491 455.733 329.491Z" fill="#EBEBEB"/>
<path d="M418.438 190.506C418.493 190.643 418.533 190.784 418.559 190.929L418.867 192.167C419.132 193.281 419.517 194.89 419.969 196.943C420.421 198.996 421.071 201.565 421.666 204.526C422.261 207.487 423.043 210.85 423.77 214.585C425.302 222.054 426.921 230.978 428.596 240.902C430.271 250.827 431.824 261.783 433.268 273.296C434.711 284.81 435.769 295.828 436.573 305.845C437.377 315.863 437.961 324.9 438.292 332.493C438.501 336.289 438.589 339.714 438.7 342.748C438.81 345.781 438.865 348.36 438.887 350.485C438.909 352.61 438.942 354.23 438.953 355.375V356.654C438.953 356.933 438.953 357.088 438.953 357.088C438.935 356.944 438.935 356.798 438.953 356.654C438.953 356.334 438.953 355.922 438.898 355.375C438.898 354.23 438.799 352.59 438.722 350.485C438.644 348.38 438.567 345.77 438.424 342.758C438.281 339.745 438.171 336.3 437.939 332.513C437.565 324.92 436.926 315.893 436.099 305.886C435.273 295.879 434.116 284.872 432.706 273.358C431.295 261.845 429.676 250.909 428.078 240.975C426.481 231.04 424.861 222.126 423.385 214.657C422.679 210.912 421.963 207.549 421.357 204.578C420.751 201.606 420.255 199.069 419.76 196.985C419.264 194.901 418.977 193.312 418.735 192.187C418.625 191.661 418.548 191.249 418.482 190.939C418.452 190.796 418.438 190.651 418.438 190.506Z" fill="#E0E0E0"/>
<path d="M432.522 350.33C432.522 350.33 399.645 315.419 389.431 294.311L397.144 291.216C391.546 292.083 385.828 289.834 381.498 286.419C377.168 283.004 373.984 278.548 370.899 274.101L381.046 272.502C371.721 270.009 363.778 264.249 358.867 256.418C370.844 258.265 381.685 264.424 390.621 272.12C397.849 278.31 403.975 285.594 409.858 292.98C412.735 296.585 415.24 300.436 417.34 304.483C422.826 315.171 432.599 337.507 432.522 350.33Z" fill="#EBEBEB"/>
<path d="M503.82 219.558C503.782 219.683 503.73 219.804 503.665 219.919C503.533 220.166 503.368 220.507 503.159 220.95C502.685 221.858 502.002 223.158 501.142 224.819C500.283 226.48 499.192 228.543 497.969 230.947C496.746 233.351 495.336 236.054 493.848 239.087C490.807 245.132 487.326 252.385 483.569 260.494C479.812 268.603 475.856 277.588 471.956 287.09C468.055 296.591 464.508 305.732 461.434 314.088C458.36 322.445 455.748 330.007 453.655 336.393C452.553 339.57 451.672 342.48 450.845 345.017C450.019 347.555 449.336 349.753 448.785 351.548C448.234 353.343 447.793 354.705 447.496 355.674L447.143 356.706C447.105 356.83 447.057 356.95 447 357.067C447.016 356.938 447.045 356.81 447.088 356.685C447.154 356.417 447.253 356.056 447.386 355.602C447.661 354.622 448.058 353.229 448.576 351.476C449.093 349.722 449.743 347.473 450.537 344.925C451.33 342.376 452.2 339.457 453.258 336.269C455.308 329.873 457.908 322.29 460.971 313.913C464.034 305.536 467.582 296.375 471.46 286.884C475.338 277.392 479.382 268.396 483.128 260.287C486.874 252.179 490.444 244.947 493.529 238.922C495.038 235.889 496.482 233.186 497.727 230.803C498.972 228.42 500.074 226.377 501.032 224.716L503.137 220.888C503.379 220.476 503.566 220.132 503.698 219.857C503.733 219.755 503.773 219.655 503.82 219.558Z" fill="#E0E0E0"/>
<path d="M435.308 365.3C435.243 365.087 435.195 364.869 435.164 364.65C435.087 364.175 434.977 363.556 434.856 362.803C434.735 362.05 434.569 361.008 434.349 359.873C434.129 358.738 433.919 357.428 433.589 356.004C433.005 353.147 432.156 349.763 431.088 346.049C430.019 342.335 428.609 338.311 426.945 334.154C425.281 329.996 423.43 326.128 421.645 322.661C419.86 319.195 418.076 316.151 416.5 313.644C415.74 312.376 414.979 311.272 414.296 310.281C413.613 309.291 413.084 308.445 412.6 307.764L411.498 306.186C411.359 306.007 411.244 305.813 411.156 305.608C411.321 305.766 411.468 305.939 411.597 306.124L412.754 307.651C413.261 308.311 413.856 309.136 414.528 310.116C415.2 311.096 415.982 312.18 416.731 313.448C418.362 315.945 420.158 318.988 422.009 322.445C423.86 325.901 425.678 329.8 427.375 333.968C429.071 338.136 430.394 342.221 431.484 345.925C432.575 349.629 433.335 353.054 433.875 355.932C434.184 357.366 434.36 358.676 434.547 359.821C434.735 360.967 434.878 361.957 434.966 362.772C435.054 363.587 435.12 364.154 435.164 364.639C435.242 364.853 435.29 365.075 435.308 365.3Z" fill="#E0E0E0"/>
<path d="M478.696 357.088H406.727V370.83H478.696V357.088Z" fill="#E0E0E0"/>
<path d="M413.594 370.819L421.372 417.038H464.86L472.121 370.819H413.594Z" fill="#E0E0E0"/>
<path d="M474.288 370.819C474.288 370.974 460.67 371.087 443.878 371.087C427.087 371.087 413.469 370.974 413.469 370.819C413.469 370.664 427.087 370.551 443.878 370.551C460.67 370.551 474.288 370.675 474.288 370.819Z" fill="#EBEBEB"/>
<path d="M361.374 106.426C360.404 109.876 358.777 113.133 356.57 116.041L361.297 120.168L381.46 137.211L380.986 137.417C380.986 137.417 398.439 126.007 403.264 122.283C407.242 119.188 417.885 112.874 418.756 106.725C418.901 105.633 418.678 104.525 418.117 103.557C417.555 102.589 416.685 101.81 415.627 101.33C414.902 100.984 414.089 100.833 413.278 100.893C412.467 100.953 411.69 101.222 411.032 101.67C411.032 101.67 415.726 96.5118 412.013 93.128C408.3 89.7441 405.402 92.3955 405.402 92.3955C405.402 92.3955 409.996 85.8445 405.732 82.213C404.85 81.5788 403.782 81.2098 402.671 81.1545C401.56 81.0993 400.457 81.3604 399.507 81.9035L401.237 80.1704L410.151 71.1846C411.213 70.1425 411.807 68.7569 411.807 67.3159C411.807 65.8749 411.213 64.4894 410.151 63.4472C409.604 62.9293 408.952 62.5192 408.234 62.2412C407.515 61.9633 406.744 61.823 405.966 61.8288C405.189 61.8346 404.42 61.9862 403.707 62.2748C402.993 62.5634 402.348 62.9831 401.81 63.5091L376.733 88.0832L378.011 74.6716C378.331 71.1949 373.318 68.6777 371.092 69.9569C371.092 69.9569 367.665 71.2053 366.685 76.6421C366.035 80.7481 361.374 106.426 361.374 106.426Z" fill="#F5F5F5"/>
<path d="M361.375 106.426C361.375 106.426 361.375 106.199 361.463 105.755C361.552 105.312 361.64 104.651 361.783 103.805C362.081 102.072 362.51 99.5549 363.072 96.3052L365.166 84.4205C365.577 82.1027 366.014 79.6233 366.477 76.9823C366.67 75.5977 367.106 74.2523 367.766 73.0001C368.452 71.6335 369.592 70.5115 371.016 69.802C371.907 69.3894 372.935 69.3191 373.881 69.6059C374.814 69.8807 375.674 70.3378 376.404 70.9471C377.192 71.5662 377.776 72.3818 378.09 73.2993C378.167 73.5366 378.189 73.7841 378.244 74.0214C378.299 74.2587 378.244 74.5269 378.244 74.7642L378.112 76.1776C377.759 79.9741 377.392 83.9494 377.01 88.1036L376.547 87.9075L399.387 65.5618C399.905 65.0666 400.412 64.5302 400.93 64.0556C401.434 63.516 401.995 63.0252 402.605 62.5907C403.934 61.7468 405.561 61.4177 407.144 61.6725C407.945 61.8018 408.71 62.081 409.394 62.4934C410.077 62.9058 410.664 63.4429 411.121 64.0727C411.578 64.7025 411.894 65.412 412.051 66.1589C412.208 66.9057 412.203 67.6746 412.036 68.4195C411.875 69.175 411.565 69.8958 411.121 70.5447C410.654 71.1443 410.13 71.7036 409.557 72.216L406.318 75.4657L399.707 82.058L399.321 81.5938C400.622 80.8847 402.157 80.6531 403.629 80.9438C404.247 81.071 404.838 81.2904 405.381 81.5938C405.666 81.7388 405.919 81.931 406.13 82.1612C406.357 82.371 406.563 82.5989 406.747 82.8421C407.477 83.8065 407.862 84.9618 407.849 86.1434C407.726 88.4099 406.966 90.6057 405.646 92.5087L405.161 92.1373C405.762 91.6388 406.495 91.2996 407.283 91.1545C408.071 91.0095 408.887 91.0638 409.645 91.312C410.386 91.5717 411.069 91.9563 411.661 92.4468C411.96 92.6674 412.233 92.9163 412.477 93.1896L412.862 93.6023L413.16 94.0768C413.495 94.7141 413.688 95.4085 413.728 96.1179C413.768 96.8273 413.653 97.5369 413.391 98.2035C412.915 99.5118 412.195 100.731 411.265 101.804L410.857 101.381C411.503 100.947 412.256 100.672 413.045 100.582C413.835 100.492 414.636 100.589 415.374 100.865C416.454 101.267 417.383 101.958 418.046 102.851C418.708 103.745 419.074 104.802 419.098 105.889C419.082 106.589 418.963 107.283 418.746 107.953C418.253 109.237 417.555 110.444 416.674 111.532C413.138 115.773 408.543 118.754 404.412 121.694C400.28 124.635 396.192 127.523 392.292 130.154L381.109 137.53L380.877 137.159L381.351 136.953L381.296 137.314L361.199 120.281H361.408L361.298 120.384L361.188 120.291L356.483 116.165L356.406 116.092L356.472 116.01C358.11 113.866 359.444 111.532 360.439 109.067C360.78 108.231 361.001 107.571 361.144 107.127C361.287 106.684 361.375 106.467 361.375 106.467C361.173 107.365 360.9 108.248 360.56 109.108C359.611 111.611 358.303 113.982 356.671 116.154V116C358.037 117.186 359.557 118.496 361.408 120.126H361.199L361.298 120.023L361.419 120.116L381.626 137.097L381.891 137.314L381.571 137.448L381.098 137.654L380.811 137.21L391.961 129.793C395.84 127.152 399.949 124.418 404.026 121.323C408.103 118.228 412.73 115.381 416.146 111.233C416.986 110.196 417.651 109.044 418.118 107.819C418.314 107.202 418.425 106.564 418.448 105.92C418.427 105.278 418.278 104.644 418.008 104.053C417.448 102.848 416.403 101.899 415.099 101.412C414.451 101.173 413.749 101.09 413.058 101.171C412.367 101.252 411.708 101.494 411.143 101.876L409.458 103.042L410.802 101.474C411.68 100.46 412.355 99.3072 412.796 98.0694C413.043 97.4704 413.154 96.83 413.121 96.1888C413.089 95.5475 412.915 94.9196 412.609 94.3451C411.88 93.2258 410.77 92.3683 409.458 91.9104C408.81 91.6966 408.113 91.647 407.437 91.7666C406.762 91.8861 406.133 92.1706 405.612 92.5913L404.092 93.8808L405.139 92.2405C406.394 90.4338 407.117 88.3479 407.232 86.195C407.297 85.1366 406.96 84.0909 406.28 83.243C405.601 82.3951 404.623 81.7999 403.519 81.5628C402.199 81.3063 400.824 81.5196 399.663 82.1612L397.911 83.0691L399.277 81.7073L405.888 75.115C406.982 74.0283 408.062 72.9451 409.127 71.8653C409.658 71.3615 410.138 70.8123 410.56 70.2249C410.959 69.6385 411.239 68.9879 411.386 68.306C411.535 67.6324 411.539 66.9376 411.397 66.2626C411.255 65.5875 410.97 64.9459 410.56 64.3754C410.146 63.8176 409.618 63.3418 409.008 62.9754C408.397 62.6089 407.715 62.359 407.001 62.2399C405.577 62.0039 404.111 62.2962 402.913 63.0549C402.337 63.4694 401.805 63.9359 401.326 64.4476L399.784 65.9539L376.922 88.248L376.404 88.7225L376.481 88.021C376.878 83.8944 377.263 79.8916 377.638 76.1054C377.82 75.2055 377.82 74.2816 377.638 73.3818C377.352 72.5463 376.821 71.8028 376.106 71.236C375.419 70.6653 374.607 70.2427 373.726 69.998C372.902 69.7385 372.002 69.7866 371.214 70.1321C369.891 70.8027 368.829 71.8506 368.184 73.1239C367.536 74.3352 367.108 75.6392 366.917 76.9823C366.433 79.613 365.97 82.1406 365.551 84.4205C364.692 89.0424 363.954 93.0246 363.348 96.2846C362.742 99.5446 362.246 102.041 361.937 103.764C361.772 104.61 361.651 105.25 361.552 105.704C361.452 106.158 361.375 106.426 361.375 106.426Z" fill="#E0E0E0"/>
<path d="M350.011 116.214L350.236 115.988C351.084 115.139 352.258 114.639 353.499 114.6C354.74 114.561 355.947 114.985 356.855 115.779L381.693 137.52C382.599 138.313 383.13 139.409 383.172 140.569C383.214 141.728 382.762 142.856 381.916 143.703L381.69 143.929C380.842 144.779 379.668 145.278 378.427 145.317C377.186 145.356 375.979 144.932 375.072 144.138L350.241 122.404C349.336 121.612 348.804 120.515 348.762 119.356C348.721 118.196 349.172 117.069 350.019 116.221L350.011 116.214Z" fill="#F5F5F5"/>
<path d="M375.057 144.112C375.057 144.112 375.322 144.319 375.884 144.618C376.584 144.991 377.375 145.186 378.181 145.186C378.986 145.186 379.778 144.991 380.478 144.618C381.153 144.22 381.734 143.697 382.186 143.081C382.722 142.334 382.988 141.446 382.945 140.547C382.901 139.648 382.55 138.786 381.943 138.088L356.602 115.979C356.022 115.472 355.306 115.12 354.53 114.962C353.755 114.805 352.948 114.846 352.195 115.082C351.48 115.328 350.835 115.724 350.308 116.239C349.781 116.753 349.387 117.374 349.154 118.053C348.951 118.715 348.929 119.414 349.089 120.086C349.248 120.758 349.585 121.382 350.068 121.901C351.115 122.881 352.272 123.851 353.319 124.779L364.656 134.797L372.259 141.575L374.308 143.442C374.556 143.65 374.785 143.878 374.991 144.123C374.718 143.942 374.46 143.742 374.22 143.524L372.093 141.74L364.381 135.096L352.955 125.182C351.853 124.232 350.752 123.325 349.65 122.272C349.088 121.689 348.693 120.982 348.5 120.217C348.308 119.453 348.324 118.655 348.548 117.898C348.81 117.127 349.258 116.422 349.855 115.837C350.453 115.253 351.185 114.804 351.997 114.525C352.848 114.268 353.757 114.228 354.631 114.409C355.504 114.59 356.31 114.986 356.966 115.556C366.882 124.232 375.806 132.063 382.208 137.84C382.859 138.607 383.228 139.55 383.262 140.529C383.296 141.509 382.992 142.472 382.395 143.277C381.909 143.926 381.277 144.468 380.544 144.866C379.921 145.188 379.228 145.375 378.517 145.412C377.539 145.467 376.568 145.232 375.74 144.742C375.479 144.566 375.249 144.354 375.057 144.112Z" fill="#E0E0E0"/>
<path d="M390.203 90.7859C391.569 88.997 393.099 87.3228 394.776 85.7823C396.301 84.1118 397.982 82.572 399.8 81.1812C398.437 82.9697 396.911 84.6439 395.238 86.1847C393.711 87.8569 392.026 89.3969 390.203 90.7859Z" fill="#E0E0E0"/>
<path d="M399.695 97.8943C400.4 96.7461 401.284 95.7029 402.318 94.7994C403.202 93.78 404.237 92.8838 405.392 92.1377C404.691 93.2886 403.807 94.3324 402.769 95.2327C401.891 96.2576 400.855 97.1547 399.695 97.8943Z" fill="#E0E0E0"/>
<path d="M405.352 107.354C406.056 106.206 406.94 105.163 407.974 104.259C408.852 103.234 409.892 102.34 411.059 101.608C410.353 102.755 409.469 103.798 408.437 104.703C407.556 105.726 406.516 106.62 405.352 107.354Z" fill="#E0E0E0"/>
<path d="M404.332 57.6492C403.211 55.6246 402.282 53.5119 401.555 51.3354C400.623 49.2287 399.885 47.0507 399.352 44.8257C400.469 46.8516 401.398 48.964 402.128 51.1394C403.061 53.2462 403.798 55.4241 404.332 57.6492Z" fill="#E0E0E0"/>
<path d="M410.891 59.1451C412.377 56.5753 414.045 54.1008 415.882 51.7378C417.547 49.2663 419.388 46.902 421.391 44.6606C419.9 47.2303 418.229 49.7048 416.389 52.0679C414.729 54.5405 412.892 56.905 410.891 59.1451Z" fill="#E0E0E0"/>
<path d="M415.664 64.3963C418.064 63.6291 420.525 63.0427 423.024 62.6425C425.479 62.0572 427.981 61.6604 430.505 61.4561C428.113 62.238 425.655 62.8282 423.156 63.2202C420.698 63.8059 418.192 64.1992 415.664 64.3963Z" fill="#E0E0E0"/>
<path d="M99.7771 283.087L64.3984 417.027H73.7086L109.958 283.087H99.7771Z" fill="#F5F5F5"/>
<path d="M166.41 283.087L199.508 417.027H190.198L156.219 283.087H166.41Z" fill="#F5F5F5"/>
<path d="M138.758 415.056H127.917L126.297 261.329H137.139L138.758 415.056Z" fill="#F5F5F5"/>
<path d="M208.205 171.049H55.2422V262.804H208.205V171.049Z" fill="#EBEBEB"/>
<path d="M170.148 281.684H93.375V290.546H170.148V281.684Z" fill="#F5F5F5"/>
<path d="M65.398 250.837C65.4925 251.393 65.5294 251.956 65.5082 252.519H65.2989C65.1446 248.031 65.0234 233.165 65.0234 215.544C65.0234 204.918 65.1116 195.293 65.1336 188.216C65.1336 184.79 65.2218 182.026 65.2548 179.962C65.2548 179.044 65.2548 178.301 65.3209 177.703C65.3207 177.44 65.3465 177.178 65.398 176.919C65.4637 177.175 65.4897 177.44 65.4752 177.703C65.4752 178.301 65.4752 179.044 65.5523 179.962C65.5523 182.026 65.6184 184.821 65.6735 188.216C65.6735 195.293 65.7396 204.918 65.7837 215.544C65.7837 233.165 65.6625 248.031 65.5082 252.519H65.2989C65.2865 251.957 65.3196 251.395 65.398 250.837Z" fill="#F5F5F5"/>
<path d="M76.7901 250.837C76.8685 251.395 76.9017 251.957 76.8892 252.519H76.7129C76.5587 248.031 76.4375 233.165 76.4375 215.544C76.4375 204.918 76.5256 195.293 76.5477 188.216C76.6028 184.79 76.6468 182.026 76.6689 179.962C76.6689 179.044 76.6689 178.301 76.746 177.703C76.7315 177.44 76.7575 177.175 76.8231 176.919C76.8736 177.178 76.8957 177.44 76.8892 177.703C76.8892 178.301 76.8892 179.044 76.9664 179.962C76.9664 182.026 77.0325 184.821 77.0876 188.216C77.0876 195.293 77.1537 204.918 77.1977 215.544C77.1977 233.165 77.0765 248.031 76.9223 252.519H76.7129C76.6809 251.957 76.7067 251.394 76.7901 250.837Z" fill="#F5F5F5"/>
<path d="M88.1715 250.837C88.2499 251.395 88.2831 251.957 88.2706 252.519H88.0613C87.9071 248.031 87.7969 233.165 87.7969 215.544C87.7969 204.918 87.874 195.293 87.9071 188.216C87.9071 184.79 87.9952 182.026 88.0283 179.962C88.0283 179.044 88.0283 178.301 88.0944 177.703C88.0869 177.44 88.1128 177.177 88.1715 176.919C88.2302 177.177 88.2561 177.44 88.2486 177.703C88.2486 178.301 88.2486 179.044 88.3147 179.962C88.3147 182.026 88.3918 184.821 88.4359 188.216C88.4359 195.293 88.502 204.918 88.5461 215.544C88.5461 233.165 88.4359 248.031 88.2706 252.519H88.0613C88.0475 251.956 88.0844 251.394 88.1715 250.837Z" fill="#F5F5F5"/>
<path d="M99.5543 250.837C99.6414 251.394 99.6782 251.956 99.6645 252.519H99.4551C99.2899 248.031 99.1797 233.165 99.1797 215.544C99.1797 204.918 99.2568 195.293 99.2899 188.216C99.2899 184.79 99.378 182.026 99.4111 179.962C99.4111 179.044 99.4662 178.301 99.4772 177.703C99.4697 177.44 99.4956 177.177 99.5543 176.919C99.613 177.177 99.6389 177.44 99.6314 177.703C99.6314 178.301 99.6314 179.044 99.6975 179.962C99.6975 182.026 99.7747 184.821 99.8187 188.216C99.8187 195.293 99.8848 204.918 99.9289 215.544C99.9289 233.165 99.8187 248.031 99.6645 252.519H99.4551C99.4427 251.957 99.4759 251.395 99.5543 250.837Z" fill="#F5F5F5"/>
<path d="M110.935 250.837C111.03 251.393 111.067 251.956 111.045 252.519H110.869C110.715 248.031 110.594 233.165 110.594 215.544C110.594 204.918 110.682 195.293 110.704 188.216C110.759 184.79 110.792 182.026 110.825 179.962C110.825 179.044 110.825 178.301 110.891 177.703C110.891 177.44 110.917 177.178 110.968 176.919C111.034 177.175 111.06 177.44 111.045 177.703C111.045 178.301 111.045 179.044 111.123 179.962C111.123 182.026 111.189 184.821 111.244 188.216C111.244 195.293 111.31 204.918 111.354 215.544C111.354 233.165 111.233 248.031 111.079 252.519H110.869C110.846 251.958 110.868 251.395 110.935 250.837Z" fill="#F5F5F5"/>
<path d="M122.331 250.837C122.409 251.395 122.443 251.957 122.43 252.519H122.221C122.067 248.031 121.945 233.165 121.945 215.544C121.945 204.918 122.033 195.293 122.055 188.216C122.055 184.79 122.155 182.026 122.177 179.962C122.177 179.044 122.177 178.301 122.254 177.703C122.239 177.44 122.265 177.175 122.331 176.919C122.381 177.178 122.404 177.44 122.397 177.703C122.397 178.301 122.397 179.044 122.474 179.962C122.474 182.026 122.54 184.821 122.595 188.216C122.595 195.293 122.661 204.918 122.706 215.544C122.706 233.165 122.584 248.031 122.43 252.519H122.221C122.2 251.956 122.237 251.393 122.331 250.837Z" fill="#F5F5F5"/>
<path d="M133.711 250.837C133.789 251.395 133.822 251.957 133.81 252.519H133.6C133.446 248.031 133.336 233.165 133.336 215.544C133.336 204.918 133.413 195.293 133.446 188.216C133.446 184.79 133.534 182.026 133.567 179.962C133.567 179.044 133.567 178.301 133.633 177.703C133.626 177.44 133.652 177.177 133.711 176.919C133.769 177.177 133.795 177.44 133.788 177.703C133.788 178.301 133.788 179.044 133.854 179.962C133.854 182.026 133.931 184.821 133.975 188.216C133.975 195.293 134.041 204.918 134.085 215.544C134.085 233.165 133.975 248.031 133.81 252.519H133.6C133.587 251.956 133.623 251.394 133.711 250.837Z" fill="#F5F5F5"/>
<path d="M145.092 250.837C145.179 251.394 145.216 251.956 145.202 252.519H145.025C144.86 248.031 144.75 233.165 144.75 215.544C144.75 204.918 144.827 195.293 144.86 188.216C144.86 184.79 144.948 182.026 144.981 179.962C144.981 179.044 144.981 178.301 145.047 177.703C145.04 177.44 145.066 177.177 145.125 176.919C145.183 177.177 145.209 177.44 145.202 177.703C145.202 178.301 145.202 179.044 145.268 179.962C145.268 182.026 145.345 184.821 145.389 188.216C145.389 195.293 145.455 204.918 145.499 215.544C145.499 233.165 145.389 248.031 145.235 252.519H145.025C145.002 251.958 145.024 251.395 145.092 250.837Z" fill="#F5F5F5"/>
<path d="M156.476 250.837C156.571 251.393 156.607 251.956 156.586 252.519H156.377C156.223 248.031 156.102 233.165 156.102 215.544C156.102 204.918 156.19 195.293 156.212 188.216C156.212 184.79 156.3 182.026 156.333 179.962C156.333 179.044 156.388 178.301 156.399 177.703C156.399 177.44 156.425 177.178 156.476 176.919C156.542 177.175 156.568 177.44 156.553 177.703C156.553 178.301 156.553 179.044 156.63 179.962C156.63 182.026 156.697 184.821 156.752 188.216C156.752 195.293 156.818 204.918 156.862 215.544C156.862 233.165 156.741 248.031 156.586 252.519H156.377C156.365 251.957 156.398 251.395 156.476 250.837Z" fill="#F5F5F5"/>
<path d="M167.87 250.837C167.948 251.395 167.982 251.957 167.969 252.519H167.76C167.606 248.031 167.484 233.165 167.484 215.544C167.484 204.918 167.573 195.293 167.595 188.216C167.65 184.79 167.694 182.026 167.716 179.962C167.716 179.044 167.716 178.301 167.793 177.703C167.778 177.44 167.804 177.175 167.87 176.919C167.922 177.178 167.947 177.44 167.947 177.703C167.947 178.301 167.947 179.044 168.013 179.962C168.013 182.026 168.079 184.821 168.134 188.216C168.134 195.293 168.201 204.918 168.245 215.544C168.245 233.165 168.123 248.031 167.969 252.519H167.76C167.739 251.956 167.776 251.393 167.87 250.837Z" fill="#F5F5F5"/>
<path d="M179.252 250.837C179.331 251.395 179.364 251.957 179.352 252.519H179.186C179.032 248.031 178.922 233.165 178.922 215.544C178.922 204.918 178.999 195.293 179.032 188.216C179.032 184.79 179.12 182.026 179.153 179.962C179.153 179.044 179.153 178.301 179.219 177.703C179.212 177.44 179.238 177.177 179.296 176.919C179.355 177.177 179.381 177.44 179.374 177.703C179.374 178.301 179.374 179.044 179.44 179.962C179.44 182.026 179.517 184.821 179.561 188.216C179.561 195.293 179.627 204.918 179.671 215.544C179.671 233.165 179.561 248.031 179.396 252.519H179.186C179.158 251.958 179.18 251.395 179.252 250.837Z" fill="#F5F5F5"/>
<path d="M190.632 250.837C190.72 251.394 190.756 251.956 190.743 252.519H190.533C190.368 248.031 190.258 233.165 190.258 215.544C190.258 204.918 190.335 195.293 190.368 188.216C190.368 184.79 190.456 182.026 190.489 179.962C190.489 179.044 190.544 178.301 190.555 177.703C190.548 177.44 190.574 177.177 190.632 176.919C190.691 177.177 190.717 177.44 190.71 177.703C190.71 178.301 190.71 179.044 190.776 179.962C190.776 182.026 190.853 184.821 190.897 188.216C190.897 195.293 190.963 204.918 191.007 215.544C191.007 233.165 190.897 248.031 190.743 252.519H190.533C190.521 251.957 190.554 251.395 190.632 250.837Z" fill="#F5F5F5"/>
<path d="M202.015 250.837C202.11 251.393 202.147 251.956 202.125 252.519H201.916C201.762 248.031 201.641 233.165 201.641 215.544C201.641 204.918 201.729 195.293 201.751 188.216C201.806 184.79 201.839 182.026 201.872 179.962C201.872 179.044 201.872 178.301 201.938 177.703C201.938 177.44 201.964 177.178 202.015 176.919C202.081 177.175 202.107 177.44 202.092 177.703C202.092 178.301 202.092 179.044 202.169 179.962C202.169 182.026 202.236 184.821 202.291 188.216C202.291 195.293 202.357 204.918 202.401 215.544C202.401 233.165 202.28 248.031 202.125 252.519H201.916C201.904 251.957 201.937 251.395 202.015 250.837Z" fill="#F5F5F5"/>
<path d="M317.665 105.508L309.082 177.92C307.616 190.238 302.78 208.044 282.099 205.001C264.36 201.08 261.694 184.594 263.071 173.102C263.721 167.655 264.25 163.105 264.283 162.548C264.283 162.548 244.803 158.762 245.552 140.367C245.916 131.485 248.241 113.224 250.554 96.7385C251.756 88.1982 256.347 80.3946 263.416 74.8811C270.484 69.3677 279.511 66.5488 288.699 66.9855L290.594 67.0681C310.955 69.1211 320.441 86.5045 317.665 105.508Z" fill="#FFBE9D"/>
<path d="M264.288 162.548C273.356 162.951 282.357 160.91 290.224 156.667C290.224 156.667 283.272 169.8 263.781 167.221L264.288 162.548Z" fill="#6F4C47"/>
<path d="M282.755 108.045C283.097 108.458 285.565 107.014 288.826 107.323C292.087 107.633 294.335 109.387 294.721 109.046C294.919 108.881 294.599 108.169 293.619 107.344C292.308 106.284 290.673 105.638 288.947 105.497C287.244 105.339 285.532 105.701 284.066 106.529C283.042 107.199 282.634 107.86 282.755 108.045Z" fill="#263238"/>
<path d="M282.059 114.359C282.019 115.007 282.25 115.643 282.702 116.134C283.155 116.625 283.793 116.932 284.483 116.99C284.819 117.03 285.161 117.007 285.487 116.922C285.814 116.837 286.119 116.692 286.385 116.495C286.651 116.298 286.872 116.053 287.035 115.775C287.199 115.497 287.301 115.191 287.337 114.875C287.377 114.229 287.146 113.593 286.693 113.104C286.24 112.615 285.602 112.31 284.913 112.255C284.577 112.214 284.237 112.237 283.911 112.322C283.585 112.406 283.28 112.55 283.014 112.746C282.749 112.942 282.527 113.186 282.363 113.463C282.199 113.74 282.096 114.044 282.059 114.359Z" fill="#263238"/>
<path d="M271.833 128.317C271.833 128.152 270.004 127.76 266.985 127.286C266.214 127.172 265.498 126.997 265.387 126.502C265.372 125.77 265.591 125.052 266.015 124.438L268.594 119.053C272.175 111.377 274.808 105.053 274.477 104.93C274.147 104.806 270.974 110.903 267.393 118.578C266.519 120.463 265.692 122.268 264.914 123.995C264.377 124.842 264.182 125.841 264.363 126.811C264.459 127.072 264.619 127.308 264.829 127.502C265.039 127.695 265.295 127.84 265.575 127.925C265.995 128.057 266.432 128.134 266.875 128.152C269.916 128.369 271.811 128.472 271.833 128.317Z" fill="#263238"/>
<path d="M285.696 96.7382C285.927 97.4501 288.594 97.2437 291.701 97.7699C294.808 98.296 297.287 99.2245 297.728 98.6158C297.937 98.3167 297.529 97.5842 296.549 96.9136C295.252 96.008 293.739 95.413 292.141 95.1804C290.555 94.9141 288.922 95.024 287.393 95.5002C286.214 95.8819 285.608 96.3978 285.696 96.7382Z" fill="#263238"/>
<path d="M255.076 96.7385C255.352 97.3266 257.974 97.0068 261.059 97.275C264.144 97.5432 266.667 98.2138 267.064 97.667C267.24 97.4091 266.799 96.8623 265.786 96.2949C264.427 95.5965 262.924 95.178 261.378 95.0672C259.8 94.929 258.208 95.1048 256.707 95.5831C255.528 95.9442 254.966 96.4497 255.076 96.7385Z" fill="#263238"/>
<path d="M315.331 119.043C315.673 118.919 329.027 115.948 327.925 128.493C326.823 141.038 313.602 137.406 313.602 137.045C313.602 136.684 315.331 119.043 315.331 119.043Z" fill="#FFBE9D"/>
<path d="M318.108 132.609C318.174 132.609 318.328 132.785 318.714 132.981C319.248 133.247 319.873 133.306 320.454 133.146C321.909 132.774 323.286 130.763 323.55 128.503C323.681 127.431 323.553 126.345 323.176 125.326C323.085 124.924 322.891 124.549 322.611 124.232C322.33 123.916 321.972 123.668 321.567 123.51C321.304 123.424 321.017 123.427 320.756 123.517C320.495 123.607 320.275 123.78 320.135 124.005C319.926 124.335 319.992 124.593 319.915 124.614C319.837 124.635 319.65 124.377 319.804 123.871C319.903 123.566 320.114 123.302 320.399 123.128C320.787 122.894 321.259 122.812 321.71 122.901C322.252 123.047 322.744 123.319 323.142 123.693C323.539 124.067 323.827 124.529 323.98 125.037C324.462 126.166 324.636 127.389 324.487 128.596C324.179 131.124 322.592 133.383 320.609 133.754C320.239 133.825 319.857 133.816 319.491 133.731C319.125 133.645 318.784 133.484 318.493 133.259C318.108 132.919 318.064 132.63 318.108 132.609Z" fill="#6F4C47"/>
<path d="M273.839 137.324C273.739 136.994 276.45 136.56 278.587 134.476C279.483 133.559 280.246 132.536 280.857 131.433C281.364 130.566 281.738 130.03 281.882 130.092C282.025 130.154 281.882 130.762 281.551 131.722C281.097 133.008 280.344 134.185 279.348 135.168C278.333 136.164 277.044 136.878 275.623 137.231C274.555 137.489 273.861 137.437 273.839 137.324Z" fill="#263238"/>
<path d="M254.11 104.094C254.451 104.507 256.919 103.063 260.181 103.372C263.442 103.682 265.69 105.435 266.075 105.085C266.273 104.93 265.954 104.218 264.973 103.393C263.665 102.328 262.029 101.682 260.302 101.546C258.599 101.388 256.886 101.75 255.421 102.578C254.363 103.248 253.955 103.909 254.11 104.094Z" fill="#263238"/>
<path d="M253.887 111.099C253.847 111.747 254.078 112.383 254.53 112.874C254.983 113.365 255.621 113.672 256.311 113.73C256.643 113.77 256.981 113.749 257.304 113.667C257.627 113.586 257.93 113.445 258.196 113.253C258.461 113.061 258.683 112.823 258.849 112.55C259.015 112.278 259.123 111.978 259.165 111.667C259.211 111.021 258.983 110.384 258.532 109.894C258.08 109.403 257.441 109.099 256.752 109.046C256.42 109.003 256.081 109.022 255.757 109.102C255.432 109.181 255.128 109.321 254.861 109.512C254.595 109.703 254.371 109.942 254.204 110.214C254.037 110.487 253.929 110.787 253.887 111.099Z" fill="#263238"/>
<path d="M325.918 107.818C324.937 111.316 322.612 119.29 319.307 118.579C312.696 117.175 313.082 127.1 309.887 125.934C306.691 124.768 305.942 116.876 306.306 113.73C307.408 103.898 311.44 96.8415 307 85.6171C305.622 83.3899 303.654 81.5331 301.286 80.2265C298.917 78.9198 296.229 78.2074 293.481 78.1582C290.711 78.16 287.989 78.8243 285.57 80.0882C283.152 81.3521 281.119 83.1736 279.664 85.3798C278.981 81.9444 277.064 76.7861 273.748 75.1974C272.088 74.3866 270.21 74.0521 268.348 74.2356C266.486 74.4191 264.724 75.1124 263.281 76.229C261.904 77.413 261.033 79.025 260.83 80.7652C260.627 82.5054 261.107 84.2552 262.179 85.6893C261.425 85.9167 260.612 85.9122 259.861 85.6765C259.11 85.4407 258.459 84.9861 258.003 84.3791C257.958 85.1865 258.09 85.994 258.391 86.7518C258.692 87.5095 259.157 88.2012 259.755 88.7843C258.396 88.5006 257.191 87.7682 256.361 86.721L257.463 90.9714C251.954 91.2293 246.346 86.3186 244.693 81.8722C242.192 75.1251 243.823 68.2337 247.723 62.1056C251.624 55.9776 258.741 51.5621 266.454 51.4589C274.166 51.3558 280.546 54.6055 283.642 61.1256C288.512 57.7417 298.505 56.3902 304.069 58.6186C306.851 59.7659 309.274 61.5608 311.106 63.8325C312.938 66.1042 314.119 68.7771 314.536 71.5969C317.952 70.1629 322.117 71.1326 325.08 73.2785L325.797 73.8356C327.78 75.5244 329.273 77.6567 330.136 80.033C330.999 82.4092 331.204 84.9517 330.733 87.4225C330.38 89.4033 329.697 91.4666 329.311 93.0657C328.011 97.801 325.918 107.818 325.918 107.818Z" fill="#263238"/>
<path d="M257.058 84.1109C257.058 84.1109 256.882 84.018 256.606 83.7911C256.199 83.4634 255.83 83.0969 255.505 82.6975C254.245 81.2093 253.448 79.4243 253.202 77.5392C252.98 76.1483 253.078 74.7289 253.49 73.3765C253.903 72.0241 254.62 70.77 255.593 69.6986C256.786 68.3789 258.304 67.351 260.016 66.7039C261.729 66.0568 263.584 65.81 265.421 65.9847C267.311 66.2064 269.123 66.8272 270.72 67.8004C272.21 68.6782 273.544 69.7676 274.676 71.0295C276.597 73.1301 278.014 75.5929 278.83 78.2511C279.379 80.0448 279.643 81.9046 279.612 83.7704C279.612 84.4307 279.546 84.9362 279.491 85.2767C279.48 85.4517 279.447 85.6249 279.391 85.7925C279.512 83.2813 279.191 80.7686 278.444 78.3542C277.594 75.7545 276.172 73.3505 274.268 71.2977C272.026 68.7219 268.856 67.0014 265.355 66.4592C263.609 66.3 261.849 66.5355 260.221 67.1459C258.593 67.7563 257.146 68.7237 256 69.9669C255.063 70.9841 254.365 72.1752 253.953 73.4624C253.541 74.7495 253.424 76.1036 253.609 77.4361C253.806 79.2731 254.513 81.0301 255.659 82.5325C256.485 83.6157 257.091 84.0696 257.058 84.1109Z" fill="#455A64"/>
<path d="M254.649 89.5994C254.49 89.4224 254.353 89.2285 254.241 89.0217C253.988 88.6296 253.624 87.99 253.14 87.2885C251.837 85.1567 250.759 82.9107 249.922 80.5827C249.36 78.9559 249.03 77.2665 248.942 75.5585C248.833 73.583 249.167 71.6081 249.922 69.7606C250.802 67.713 252.309 65.9544 254.253 64.7055C256.329 63.3728 258.74 62.5693 261.249 62.3739C263.746 62.1939 266.255 62.5139 268.609 63.3128C270.795 64.0509 272.849 65.0944 274.702 66.4077C277.934 68.5462 280.321 71.6257 281.489 75.1665C282.216 77.5677 282.143 80.1196 281.28 82.4809C281.037 83.1104 280.727 83.7153 280.354 84.2863C280.225 84.4869 280.077 84.6767 279.913 84.8538C280.352 84.0685 280.72 83.2507 281.015 82.4087C281.77 80.0815 281.77 77.5969 281.015 75.2697C279.823 71.8378 277.467 68.864 274.305 66.7998C270.608 64.1205 266.019 62.7504 261.348 62.931C258.936 63.1253 256.618 63.8961 254.616 65.1697C252.76 66.3581 251.316 68.0293 250.462 69.9773C249.72 71.7564 249.378 73.6602 249.46 75.5688C249.528 77.2418 249.828 78.8994 250.352 80.5002C251.15 82.8175 252.164 85.0648 253.382 87.2163L254.341 89.001C254.463 89.1914 254.566 89.3916 254.649 89.5994Z" fill="#455A64"/>
<path d="M321.151 100.071C321.085 99.9882 322.33 99.1319 323.861 97.3368C325.875 95.0186 327.233 92.2633 327.811 89.3246C328.388 86.3859 328.167 83.3583 327.167 80.5208C326.407 78.3337 325.569 77.1163 325.668 77.0751C325.767 77.0338 325.933 77.333 326.296 77.9004C326.797 78.6943 327.217 79.5301 327.552 80.397C328.687 83.2819 328.972 86.3992 328.379 89.4227C327.786 92.4463 326.336 95.2651 324.181 97.5844C323.538 98.2817 322.83 98.9239 322.065 99.5033C321.791 99.7327 321.483 99.9238 321.151 100.071Z" fill="#455A64"/>
<path d="M309.328 99.9672C309.328 99.9157 309.967 99.6784 310.981 98.9975C312.392 98.0451 313.494 96.7453 314.165 95.2423L314.672 94.0662L314.584 95.3351C314.463 97.0477 314.319 99.0181 314.176 101.164L313.746 100.937C315.572 99.707 317.12 98.1516 318.302 96.3599C319.483 94.5683 320.275 92.5757 320.633 90.4966C320.931 88.5965 320.871 86.6621 320.456 84.7812C320.015 83.0537 319.356 81.3811 318.495 79.7983C318.592 79.8884 318.677 79.9888 318.749 80.0975C318.964 80.3899 319.163 80.6929 319.343 81.0054C320.016 82.1688 320.52 83.4108 320.842 84.6987C321.617 87.7914 321.384 91.0306 320.175 93.9985C318.965 96.9663 316.833 99.5268 314.055 101.35L313.581 101.659V101.123L314.099 95.3041L314.529 95.397C313.8 96.9511 312.601 98.271 311.08 99.1935C310.669 99.441 310.233 99.6517 309.78 99.8228C309.636 99.8876 309.484 99.9361 309.328 99.9672Z" fill="#455A64"/>
<path d="M305.096 74.4547C304.311 73.1328 303.26 71.9661 302 71.0193C300.611 70.0453 298.995 69.3947 297.284 69.121C295.18 68.801 293.023 69.0294 291.048 69.7813C289.067 70.524 287.303 71.6981 285.903 73.2064C284.764 74.434 283.849 75.828 283.192 77.333C282.636 78.7608 282.197 80.2267 281.881 81.7175C281.837 81.3041 281.86 80.8869 281.947 80.4796C282.102 79.3593 282.39 78.2589 282.807 77.1989C283.435 75.6142 284.348 74.1418 285.506 72.8453C286.945 71.2572 288.775 70.0214 290.839 69.2448C292.912 68.4596 295.18 68.2344 297.383 68.5949C299.169 68.9161 300.842 69.6462 302.253 70.7201C303.2 71.4374 303.992 72.316 304.589 73.3095C304.747 73.5798 304.887 73.8589 305.008 74.1452C305.057 74.2426 305.087 74.3474 305.096 74.4547Z" fill="#455A64"/>
<path d="M301.833 65.2522C300.661 64.7313 299.436 64.3234 298.175 64.0349C295.156 63.5028 292.034 63.9889 289.361 65.407C286.71 66.9087 284.573 69.0886 283.202 71.6898C282.1 73.6706 281.803 75.0427 281.703 75.0117C281.699 74.682 281.755 74.354 281.869 74.042C282.112 73.1744 282.436 72.3286 282.838 71.5144C284.152 68.7993 286.32 66.5246 289.052 64.9943C291.855 63.49 295.161 63.033 298.307 63.7151C299.249 63.9344 300.151 64.282 300.985 64.7467C301.292 64.8767 301.577 65.0469 301.833 65.2522Z" fill="#455A64"/>
<path d="M222.443 351L345.558 352.569C345.558 352.569 379.989 339.075 389.453 338.713C398.918 338.352 417.692 339.477 426.374 352.569C435.354 366.104 436.61 389.976 408.944 407.319C381.994 424.217 258.78 439.826 241.89 438.392L210.775 399.251C210.775 399.251 210.455 367.177 210.775 365.65C211.094 364.123 216.284 350.381 216.284 350.381L222.443 351Z" fill="#263238"/>
<path d="M296.154 405.142L359.959 427.333L330.882 501.788C323.456 498.755 323.247 455.012 323.247 455.012L281.742 442.364L296.154 405.142Z" fill="#FFB700"/>
<g opacity="0.6">
<path d="M328.789 430.81C329.301 430.173 330.047 429.736 330.882 429.582C331.718 429.427 332.585 429.567 333.317 429.974C334.018 430.427 334.505 431.115 334.677 431.895C334.849 432.675 334.694 433.487 334.243 434.163C333.284 435.483 330.75 436.04 329.439 435.029C328.128 434.018 327.731 431.625 328.998 430.562" fill="white"/>
</g>
<path d="M359.955 427.333L353.51 425.042L327.992 497.465C327.992 497.465 328.235 501.313 330.879 501.787L359.955 427.333Z" fill="#263238"/>
<path d="M322.414 456.075C322.81 456.199 323.692 454.445 325.642 453.083C327.592 451.721 329.597 451.329 329.575 450.937C329.553 450.545 327.096 450.328 324.772 451.969C322.447 453.609 321.973 455.992 322.414 456.075Z" fill="#263238"/>
<path d="M322.772 465.071C323.113 465.277 324.38 463.936 326.507 463.266C328.633 462.595 330.506 462.822 330.639 462.461C330.771 462.1 328.655 461.11 326.033 461.986C323.411 462.863 322.419 464.937 322.772 465.071Z" fill="#263238"/>
<path d="M331.013 472.922C331.233 472.623 329.482 471.447 326.992 471.653C324.501 471.859 322.992 473.273 323.256 473.541C323.521 473.809 325.063 473.139 327.113 472.994C329.162 472.85 330.837 473.273 331.013 472.922Z" fill="#263238"/>
<path d="M313.249 452.216C313.656 452.216 313.778 450.329 314.725 448.327C315.673 446.326 316.995 444.954 316.741 444.654C316.488 444.355 314.538 445.418 313.436 447.749C312.334 450.081 312.874 452.289 313.249 452.216Z" fill="#263238"/>
<path d="M304.504 447.213C304.669 447.265 305.463 445.913 305.947 443.478C306.211 442.045 306.292 440.587 306.19 439.135C306.121 438.276 305.996 437.422 305.815 436.577C305.723 436.074 305.553 435.588 305.308 435.132C305.129 434.798 304.835 434.53 304.473 434.371C304.111 434.212 303.703 434.172 303.314 434.255C302.972 434.344 302.657 434.507 302.395 434.731C302.132 434.955 301.93 435.234 301.805 435.545C301.62 436.016 301.505 436.509 301.463 437.01C301.358 437.876 301.339 438.75 301.408 439.62C301.529 441.09 301.901 442.532 302.51 443.891C303.545 446.202 304.713 447.285 304.89 447.192C305.066 447.1 304.185 445.81 303.468 443.571C303.048 442.268 302.811 440.919 302.763 439.558C302.737 438.762 302.781 437.965 302.895 437.175C302.984 436.308 303.237 435.638 303.689 435.566C303.865 435.566 303.92 435.566 304.107 435.803C304.273 436.132 304.395 436.478 304.471 436.835C304.663 437.617 304.807 438.409 304.901 439.207C305.059 440.578 305.081 441.96 304.967 443.334C304.791 445.676 304.295 447.141 304.504 447.213Z" fill="#263238"/>
<path d="M305.25 446.924C305.36 446.821 304.247 445.624 301.779 444.624C300.337 444.038 298.798 443.689 297.229 443.592C296.294 443.548 295.356 443.589 294.43 443.716C293.827 443.737 293.24 443.904 292.727 444.2C292.213 444.497 291.79 444.913 291.499 445.408C291.376 445.74 291.357 446.098 291.445 446.44C291.533 446.782 291.724 447.094 291.995 447.337C292.385 447.69 292.826 447.989 293.306 448.224C294.147 448.658 295.054 448.967 295.995 449.142C297.562 449.453 299.188 449.389 300.721 448.957C303.355 448.214 304.412 446.893 304.291 446.78C304.17 446.666 302.903 447.595 300.49 448.038C299.095 448.287 297.66 448.251 296.281 447.935C295.487 447.745 294.724 447.457 294.011 447.079C293.207 446.666 292.645 446.14 292.844 445.872C293.042 445.604 293.868 445.088 294.662 445.016C295.491 444.884 296.332 444.822 297.174 444.83C298.62 444.859 300.054 445.074 301.438 445.47C303.806 446.223 305.107 447.11 305.25 446.924Z" fill="#263238"/>
<path d="M243.529 395.939L181.828 422.763L217.086 494.855C224.225 491.285 220.766 447.656 220.766 447.656L261.08 431.996L243.529 395.939Z" fill="#FFB700"/>
<g opacity="0.6">
<path d="M213.153 423.929C212.589 423.331 211.81 422.949 210.964 422.856C210.119 422.762 209.266 422.965 208.57 423.423C207.909 423.927 207.481 424.651 207.377 425.443C207.272 426.235 207.498 427.034 208.008 427.674C209.109 428.912 211.633 429.283 212.856 428.179C214.079 427.075 214.277 424.661 212.922 423.702" fill="white"/>
</g>
<path d="M181.797 422.752L188.022 420.049L219.544 490.326C219.544 490.326 219.622 494.174 217.032 494.844L181.797 422.752Z" fill="#263238"/>
<path d="M221.679 448.647C221.293 448.802 220.257 447.11 218.208 445.892C216.159 444.675 214.12 444.438 214.109 444.046C214.098 443.654 216.533 443.251 218.99 444.768C221.447 446.285 222.053 448.575 221.679 448.647Z" fill="#263238"/>
<path d="M222.034 457.643C221.704 457.88 220.327 456.611 218.145 456.116C215.963 455.621 214.123 455.972 213.969 455.621C213.815 455.27 215.831 454.125 218.52 454.806C221.208 455.487 222.387 457.478 222.034 457.643Z" fill="#263238"/>
<path d="M214.444 466.082C214.212 465.793 215.843 464.493 218.344 464.514C220.845 464.535 222.476 465.834 222.233 466.123C221.991 466.412 220.393 465.855 218.344 465.865C216.295 465.876 214.675 466.412 214.444 466.082Z" fill="#263238"/>
<path d="M230.442 444.128C230.023 444.128 229.759 442.282 228.635 440.363C227.511 438.444 226.09 437.165 226.332 436.845C226.574 436.525 228.624 437.443 229.913 439.734C231.202 442.024 230.816 444.17 230.442 444.128Z" fill="#263238"/>
<path d="M238.733 438.454C238.579 438.527 237.631 437.227 236.992 434.833C236.597 433.425 236.39 431.977 236.375 430.521C236.372 429.662 236.427 428.804 236.54 427.952C236.58 427.441 236.706 426.94 236.915 426.467C237.064 426.118 237.335 425.826 237.682 425.639C238.03 425.452 238.435 425.38 238.832 425.435C239.183 425.492 239.513 425.628 239.795 425.831C240.077 426.034 240.302 426.298 240.452 426.601C240.676 427.09 240.821 427.608 240.881 428.138C241.058 428.995 241.15 429.865 241.157 430.738C241.162 432.204 240.925 433.662 240.452 435.06C239.614 437.443 238.491 438.619 238.358 438.527C238.226 438.434 238.931 437.103 239.46 434.813C239.769 433.485 239.891 432.126 239.824 430.769C239.786 429.97 239.676 429.176 239.493 428.396C239.339 427.55 239.03 426.889 238.568 426.848C238.391 426.848 238.336 426.848 238.171 427.116C238.037 427.449 237.948 427.795 237.907 428.148C237.778 428.944 237.701 429.747 237.675 430.552C237.626 431.933 237.718 433.314 237.951 434.679C238.38 437.01 238.942 438.454 238.733 438.454Z" fill="#263238"/>
<path d="M237.979 438.268C237.857 438.165 238.86 436.886 241.229 435.72C243.466 434.639 245.979 434.157 248.49 434.327C249.093 434.303 249.694 434.425 250.233 434.681C250.771 434.938 251.23 435.321 251.564 435.792C251.712 436.118 251.758 436.475 251.698 436.824C251.637 437.173 251.472 437.498 251.222 437.763C250.862 438.142 250.446 438.472 249.988 438.743C249.186 439.235 248.31 439.611 247.388 439.857C245.851 440.277 244.227 440.333 242.661 440.022C239.973 439.465 238.805 438.196 238.915 438.103C239.025 438.011 240.369 438.826 242.815 439.135C244.226 439.282 245.655 439.141 247.002 438.722C247.785 438.478 248.527 438.131 249.206 437.691C249.966 437.226 250.495 436.659 250.308 436.411C250.071 436.17 249.78 435.98 249.457 435.855C249.133 435.731 248.784 435.674 248.435 435.689C247.592 435.612 246.743 435.612 245.9 435.689C244.464 435.817 243.054 436.137 241.714 436.638C239.345 437.422 238.122 438.454 237.979 438.268Z" fill="#263238"/>
<path d="M216.314 350.392C216.314 350.392 163.141 331.822 143.596 334.195C132.655 335.546 115.544 343.366 114.233 356.499C112.922 369.632 116.359 387.201 135.277 395.754C154.195 404.306 229.712 436.04 247.66 440.92C265.609 445.8 310.297 457.251 310.297 457.251L327.287 411.858C327.287 411.858 234.571 381.795 229.679 378.432C224.787 375.069 212.392 370.499 212.392 370.499L216.314 350.392Z" fill="#263238"/>
<path d="M401.165 356.551L400.791 356.468L399.689 356.159C398.752 355.901 397.364 355.519 395.557 355.127C390.46 353.915 385.177 353.549 379.945 354.044C376.337 354.333 372.77 354.969 369.301 355.942C367.376 356.488 365.501 357.178 363.693 358.005L357.909 360.657C349.954 364.216 341.062 367.878 331.609 371.355C312.658 378.463 294.467 381.837 281.499 384.602C274.999 385.943 269.732 387.057 266.074 387.862L261.898 388.79L260.796 389.017L260.422 389.079C260.532 389.023 260.651 388.984 260.774 388.965L261.876 388.687C262.824 388.45 264.212 388.078 266.03 387.655C269.633 386.789 274.844 385.592 281.378 384.23C294.335 381.372 312.471 377.947 331.356 370.819C340.809 367.321 349.689 363.7 357.644 360.162L363.44 357.541C365.276 356.711 367.181 356.021 369.136 355.478C372.637 354.506 376.238 353.887 379.879 353.631C385.172 353.157 390.514 353.583 395.645 354.89C397.452 355.323 398.83 355.736 399.766 356.035L400.813 356.396L401.165 356.551Z" fill="#455A64"/>
<path d="M398.366 349.99C398.366 350.082 396.746 349.804 394.146 349.546C387.358 348.845 380.493 349.176 373.818 350.526C371.251 351.032 369.686 351.455 369.664 351.372C370.012 351.195 370.382 351.06 370.766 350.97C371.46 350.743 372.485 350.454 373.763 350.155C377.102 349.371 380.516 348.894 383.954 348.731C387.388 348.569 390.83 348.714 394.234 349.164C395.545 349.35 396.592 349.536 397.308 349.69C397.671 349.755 398.026 349.855 398.366 349.99Z" fill="#455A64"/>
<path d="M193.947 363.556C193.892 363.628 192.415 362.524 189.87 361.09C183.222 357.219 175.75 354.754 167.978 353.869C165.003 353.518 163.141 353.487 163.141 353.394C163.573 353.321 164.013 353.297 164.452 353.322C165.3 353.322 166.523 353.322 168.022 353.487C175.895 354.188 183.463 356.693 190.058 360.781C191.057 361.389 192.02 362.047 192.944 362.751C193.315 362.977 193.652 363.247 193.947 363.556Z" fill="#455A64"/>
<path d="M220.635 431.233L221.054 431.377L222.254 431.852C223.356 432.264 224.877 432.945 226.959 433.698C231.102 435.236 237.217 437.34 245.073 439.764C260.773 444.562 283.349 450.69 310.365 457.055L310.068 457.21L326.506 414.489L326.661 414.829L306.3 406.999L193.663 363.556C189.079 359.017 184.848 355.014 180.904 351.774C177.551 349.006 173.975 346.484 170.206 344.233C167.834 342.836 165.385 341.558 162.868 340.406L160.895 339.539L160.234 339.229L160.917 339.498L162.912 340.313C165.456 341.427 167.929 342.681 170.316 344.068C174.118 346.296 177.725 348.804 181.102 351.568C185.091 354.787 189.333 358.79 193.938 363.308H193.872L306.52 406.473L326.881 414.303L327.123 414.396L327.035 414.644L310.508 457.344L310.431 457.55L310.2 457.499C283.184 451.082 260.619 444.892 244.929 439.96C237.085 437.505 230.981 435.349 226.849 433.771C224.778 433.007 223.235 432.295 222.177 431.862L220.987 431.356L220.635 431.233Z" fill="#455A64"/>
<path d="M352.053 191.713C352.053 191.713 367.368 199.966 370.475 209.674C372.359 215.565 386.639 290.938 388.897 305.794C391.156 320.649 386.385 331.668 379.62 336.599C372.855 341.53 352.329 348.092 352.329 348.092L323.517 356.85L315.242 337.125L342.677 300.212L340.044 275.277L352.053 191.713Z" fill="#FFB700"/>
<path d="M321.968 178.693L310.465 172.503C310.465 172.503 299.987 183.976 285.697 182.572C271.406 181.169 262.922 170.966 262.922 170.966L220.305 179.085C217.451 179.622 212.24 181.314 207.249 187.989C201.685 195.427 175.297 228.43 175.297 228.43H156.875C154.38 228.429 151.932 229.067 149.796 230.275C147.66 231.482 145.917 233.213 144.755 235.28C141.604 240.902 137.824 248.413 138.144 251.528C138.772 256.8 137.681 271.254 145.229 275.762C147.619 277.196 156.169 281.488 162.857 281.199C172.652 280.766 184.034 275.989 190.589 271.697C196.098 268.056 209.045 255.49 214.014 250.59V250.693L217.209 355.354L328.931 352.383L352.069 191.734C352.069 191.734 323.092 178.693 321.968 178.693Z" fill="#FFB700"/>
<path d="M213.605 206.744C213.759 206.744 214.056 219.712 214.255 235.713C214.453 251.714 214.497 264.692 214.332 264.692C214.167 264.692 213.88 251.724 213.682 235.723C213.483 219.722 213.45 206.744 213.605 206.744Z" fill="#263238"/>
<path d="M365.585 291.35C365.585 291.35 364.637 291.495 362.951 291.794C360.57 292.238 358.249 292.93 356.032 293.857C352.751 295.243 349.658 296.993 346.821 299.067C343.344 301.615 340.097 304.427 337.114 307.475C333.919 310.704 331.01 313.892 328.3 316.76C325.893 319.286 323.352 321.696 320.687 323.982C318.883 325.528 316.973 326.962 314.968 328.273C314.263 328.738 313.679 329.047 313.293 329.305C313.106 329.431 312.902 329.535 312.688 329.615C312.853 329.464 313.034 329.329 313.227 329.212C313.591 328.954 314.153 328.614 314.836 328.119C316.785 326.758 318.647 325.29 320.411 323.724C322.67 321.764 325.193 319.267 327.903 316.409C330.614 313.552 333.522 310.354 336.718 307.124C339.726 304.06 343.006 301.241 346.524 298.696C349.405 296.619 352.551 294.887 355.889 293.538C358.144 292.633 360.508 291.988 362.929 291.619C363.789 291.464 364.461 291.464 364.913 291.412C365.133 291.366 365.359 291.345 365.585 291.35Z" fill="#263238"/>
<path d="M368.118 284.263C368.118 284.356 366.421 284.583 363.71 285.294C356.744 287.1 350.424 290.623 345.41 295.498C343.492 297.365 342.468 298.665 342.391 298.593C342.561 298.25 342.776 297.927 343.03 297.633C343.667 296.79 344.362 295.987 345.112 295.229C350.033 290.135 356.474 286.541 363.6 284.913C364.671 284.666 365.756 284.477 366.85 284.345C367.267 284.263 367.693 284.235 368.118 284.263Z" fill="#263238"/>
<g opacity="0.3">
<path d="M160.18 265.889C166.096 267.395 173.192 259.431 178.569 254.448C181.356 251.848 184.265 249.083 185.301 245.524C186.028 242.533 185.699 239.401 184.364 236.6C183.373 234.074 182.052 231.673 180.431 229.451C180.927 233.753 182.061 240.335 180.519 245.741C179.23 250.249 176.178 253.829 172.938 257.233C169.523 260.834 165.468 264.61 160.18 265.889Z" fill="black"/>
</g>
<path d="M185.466 261.329C185.356 261.329 186.039 259.503 186.568 256.501C186.889 254.745 187.069 252.969 187.108 251.188C187.147 249.01 186.992 246.832 186.645 244.678C186.265 242.527 185.697 240.408 184.948 238.344C184.32 236.661 183.562 235.023 182.679 233.443C181.169 230.74 179.924 229.234 180.012 229.172C180.359 229.481 180.666 229.828 180.927 230.204C181.274 230.611 181.594 231.039 181.885 231.483C182.238 231.999 182.657 232.577 183.042 233.258C183.982 234.832 184.785 236.474 185.444 238.168C186.236 240.253 186.826 242.401 187.207 244.585C187.566 246.773 187.709 248.986 187.637 251.198C187.577 253.005 187.352 254.803 186.965 256.573C186.832 257.337 186.623 257.997 186.458 258.636C186.324 259.143 186.162 259.642 185.973 260.132C185.845 260.545 185.675 260.946 185.466 261.329Z" fill="#263238"/>
<path d="M267.595 175.01C267.672 175.144 266.361 175.856 264.994 177.012C263.628 178.167 262.703 179.292 262.57 179.199C263.05 178.212 263.745 177.329 264.61 176.608C265.475 175.886 266.492 175.342 267.595 175.01Z" fill="#263238"/>
<path d="M279.219 181.334C279.34 181.448 278.216 182.572 277.313 184.244C276.409 185.915 276.068 187.421 275.903 187.339C275.823 186.147 276.139 184.962 276.806 183.945C277.312 182.867 278.153 181.958 279.219 181.334Z" fill="#263238"/>
<path d="M299.122 187.895C298.589 186.905 298.161 185.869 297.844 184.8C297.358 183.784 296.988 182.723 296.742 181.633C297.521 182.508 298.092 183.528 298.417 184.625C298.904 185.654 299.144 186.77 299.122 187.895Z" fill="#263238"/>
<path d="M311.938 182.222C311.762 182.222 311.332 180.437 310.065 178.508C308.798 176.578 307.3 175.361 307.421 175.237C308.761 175.922 309.854 176.963 310.561 178.229C311.432 179.403 311.911 180.792 311.938 182.222Z" fill="#263238"/>
<path d="M348.717 216.122C348.882 216.122 346.987 230.441 344.497 248.051C342.007 265.662 339.858 279.93 339.704 279.909C339.55 279.888 341.434 265.6 343.924 247.979C346.414 230.358 348.563 216.101 348.717 216.122Z" fill="#263238"/>
<path d="M181.3 239.272C181.344 239.763 181.344 240.256 181.3 240.747C181.27 241.326 181.193 241.902 181.069 242.47C181.003 242.811 180.948 243.161 180.871 243.502C180.793 243.842 180.672 244.265 180.551 244.678C180.008 246.613 179.27 248.496 178.347 250.3C177.19 252.497 175.814 254.587 174.238 256.542C172.616 258.482 170.768 260.247 168.729 261.803C167.05 263.063 165.197 264.104 163.22 264.898C162.79 265.053 162.393 265.228 162.008 265.363L160.906 265.651L159.936 265.899C159.639 265.961 159.352 265.971 159.099 266.013C158.578 266.09 158.051 266.128 157.523 266.126C159.412 265.776 161.258 265.247 163.032 264.548C164.934 263.728 166.718 262.689 168.343 261.453C170.308 259.912 172.095 258.183 173.676 256.294C175.229 254.371 176.594 252.32 177.752 250.166C178.684 248.395 179.451 246.552 180.044 244.657C180.562 242.884 180.981 241.086 181.3 239.272Z" fill="#263238"/>
<g opacity="0.3">
<path d="M345.127 358.914C349.864 356.768 350.944 351.021 351.429 346.111C352.839 331.743 354.253 317.365 355.671 302.977C356.343 296.22 356.663 288.534 351.572 283.664C346.923 279.249 339.53 278.991 332.908 279.012C292.031 279.115 255.925 280.239 215.016 280.343L217.098 347.307L345.127 358.914Z" fill="black"/>
</g>
<path d="M197.421 290.721L201.774 368.384C201.864 369.834 202.545 371.197 203.676 372.191C204.808 373.186 206.304 373.736 207.856 373.728L339.983 373.945C341.537 373.949 343.035 373.396 344.166 372.398C345.298 371.4 345.977 370.033 346.065 368.58L351.1 292.237C351.276 289.06 348.896 284.84 345.437 284.778H203.625C202.792 284.758 201.963 284.898 201.191 285.191C200.419 285.484 199.72 285.923 199.137 286.481C198.555 287.039 198.102 287.704 197.807 288.433C197.511 289.163 197.38 289.942 197.421 290.721Z" fill="#E0E0E0"/>
<path d="M197.42 290.721C197.42 290.721 197.42 290.618 197.42 290.432C197.391 290.144 197.391 289.854 197.42 289.565C197.6 288.432 198.146 287.377 198.985 286.543C199.6 285.926 200.352 285.444 201.188 285.129C202.211 284.785 203.299 284.645 204.384 284.717H212.416L263.605 284.634L339.53 284.562H344.929C345.885 284.514 346.835 284.741 347.65 285.212C348.454 285.691 349.141 286.324 349.666 287.069C350.747 288.545 351.327 290.293 351.33 292.083C351.22 293.806 351.11 295.549 351 297.303C350.537 304.291 350.067 311.419 349.589 318.689C348.642 333.225 347.65 348.267 346.625 363.68L346.438 366.568C346.35 367.528 346.372 368.456 346.185 369.467C345.972 370.455 345.495 371.376 344.797 372.143C344.099 372.91 343.204 373.498 342.196 373.852C341.204 374.181 340.149 374.311 339.1 374.234H330.01H306.289L261.446 374.141L220.866 374.048H211.501H209.264C208.504 374.048 207.755 374.048 206.962 373.976C205.415 373.771 204.006 373.036 203.006 371.912C202.031 370.816 201.508 369.429 201.53 368.002C201.453 366.651 201.387 365.32 201.31 364C201.166 361.348 201.023 358.769 200.88 356.242C199.778 336.031 198.908 319.68 198.291 308.373C198.004 302.729 197.773 298.345 197.618 295.353C197.552 293.868 197.497 292.743 197.453 291.969C197.409 291.196 197.453 290.814 197.453 290.814C197.453 290.814 197.453 291.206 197.552 291.969C197.652 292.733 197.674 293.868 197.762 295.343C197.949 298.335 198.213 302.719 198.555 308.362C199.205 319.711 200.153 336.021 201.321 356.221C201.464 358.748 201.618 361.328 201.772 363.979C201.838 365.299 201.915 366.63 201.993 367.982C201.971 369.319 202.464 370.619 203.381 371.644C204.312 372.684 205.625 373.361 207.061 373.542C207.793 373.604 208.529 373.624 209.264 373.604H220.91H261.49L306.333 373.666H330.054H339.144C340.126 373.74 341.113 373.62 342.042 373.315C342.958 372.995 343.771 372.461 344.406 371.764C345.04 371.067 345.474 370.231 345.667 369.333C345.832 368.456 345.832 367.445 345.909 366.507L346.097 363.618C347.121 348.205 348.113 333.163 349.082 318.638C349.56 311.361 350.03 304.229 350.493 297.241C350.614 295.498 350.724 293.764 350.834 292.031C350.827 290.352 350.282 288.713 349.27 287.327C348.834 286.621 348.206 286.036 347.448 285.633C346.691 285.231 345.833 285.025 344.962 285.037H339.574H263.649L212.46 284.964H204.428C203.364 284.887 202.295 285.017 201.287 285.346C200.313 285.698 199.452 286.282 198.792 287.04C198.131 287.798 197.692 288.704 197.519 289.669C197.467 290.018 197.434 290.369 197.42 290.721Z" fill="#263238"/>
<path d="M275.24 335.887C279.536 335.887 283.018 332.626 283.018 328.603C283.018 324.581 279.536 321.32 275.24 321.32C270.944 321.32 267.461 324.581 267.461 328.603C267.461 332.626 270.944 335.887 275.24 335.887Z" fill="white"/>
<path d="M283.019 328.603C282.963 328.603 283.019 327.954 282.666 326.85C282.21 325.292 281.209 323.923 279.823 322.96C278.884 322.296 277.788 321.85 276.628 321.66C275.305 321.444 273.945 321.558 272.684 321.991C271.286 322.463 270.073 323.319 269.202 324.446C268.314 325.584 267.81 326.945 267.756 328.353C267.703 329.762 268.101 331.153 268.901 332.347C269.701 333.542 270.864 334.484 272.242 335.052C273.619 335.621 275.147 335.789 276.628 335.536C277.788 335.347 278.884 334.901 279.823 334.236C281.207 333.277 282.207 331.911 282.666 330.357C282.985 329.253 282.963 328.593 283.019 328.603C283.048 328.757 283.048 328.914 283.019 329.068C283.025 329.52 282.969 329.97 282.853 330.409C282.452 332.046 281.46 333.504 280.044 334.535C278.985 335.308 277.735 335.817 276.409 336.016C275.084 336.214 273.726 336.095 272.463 335.67C271.284 335.276 270.219 334.628 269.355 333.779C268.491 332.93 267.851 331.903 267.487 330.781C267.123 329.659 267.045 328.472 267.258 327.317C267.472 326.161 267.971 325.068 268.717 324.126C269.656 322.922 270.962 322.012 272.463 321.516C273.816 321.063 275.273 320.959 276.683 321.217C277.89 321.444 279.023 321.936 279.989 322.651C281.409 323.678 282.403 325.138 282.798 326.777C282.915 327.212 282.97 327.66 282.963 328.108C283.013 328.269 283.031 328.437 283.019 328.603Z" fill="#263238"/>
<path d="M201.871 299.314C202.025 299.314 202.686 312.365 203.326 328.469C203.965 344.573 204.361 357.634 204.207 357.634C204.053 357.634 203.425 344.573 202.753 328.479C202.08 312.386 201.717 299.325 201.871 299.314Z" fill="#263238"/>
<path d="M162.161 197.985C161.379 197.366 164.773 185.172 164.773 185.172C164.773 185.172 155.804 171.482 155.573 167.066C155.341 162.651 159.109 153.593 159.109 153.593L184.814 147.403C184.814 147.403 193.078 161.763 194.731 166.839C196.383 171.915 191.899 189.144 191.899 189.144L187.492 197.985C187.492 197.985 174.402 207.703 162.161 197.985Z" fill="#FFBE9D"/>
<path d="M155.619 169.707C154.613 167.97 153.708 166.183 152.909 164.353C151.289 160.742 149.284 157.193 152.909 155.171C153.475 154.823 154.113 154.592 154.782 154.494C155.452 154.396 156.135 154.434 156.787 154.604C156.787 154.604 156.236 151.509 158.176 150.415C158.74 150.085 159.379 149.885 160.042 149.832C160.705 149.778 161.372 149.872 161.988 150.106C161.988 150.106 161.371 145.814 164.191 143.999C165.241 143.35 166.463 142.987 167.72 142.953C168.978 142.918 170.221 143.212 171.309 143.803C171.309 143.803 169.105 125.016 168.907 124.026C168.202 120.374 169.645 117.134 173.524 118.042C174.945 118.372 175.727 119.775 177.402 125.893C179.077 132.011 181.754 142.451 181.754 142.451C181.754 142.451 186.271 149.796 188.365 153.799C190.458 157.802 194.722 166.86 195.075 169.274C195.978 175.464 192.089 183.717 192.089 183.717L164.764 185.203L155.619 169.707Z" fill="#FFBE9D"/>
<path d="M157.321 155.409C158.1 156.279 158.807 157.203 159.436 158.174L161.64 161.269C162.086 161.878 162.481 162.52 162.819 163.187C163.203 163.949 163.315 164.806 163.138 165.632C163.055 166.064 162.851 166.467 162.547 166.801C162.244 167.134 161.85 167.386 161.408 167.531C160.583 167.724 159.711 167.621 158.962 167.242C158.319 166.953 157.707 166.608 157.134 166.21C156.605 165.849 156.109 165.498 155.668 165.178C154.776 164.529 154.093 163.971 153.63 163.569C153.167 163.167 152.925 162.94 152.947 162.909C152.969 162.878 154.048 163.662 155.911 164.869C156.951 165.603 158.057 166.252 159.216 166.809C159.849 167.12 160.582 167.205 161.276 167.046C161.623 166.928 161.93 166.725 162.164 166.458C162.399 166.192 162.553 165.871 162.609 165.529C162.75 164.831 162.653 164.11 162.334 163.466C162.017 162.822 161.649 162.201 161.232 161.609L159.172 158.514C158.463 157.529 157.844 156.49 157.321 155.409Z" fill="#6F4C47"/>
<path d="M179.734 157.648C179.499 156.304 179.597 154.927 180.021 153.624C180.268 152.28 180.853 151.011 181.728 149.92C181.883 149.993 181.122 151.633 180.627 153.748C180.131 155.863 179.911 157.648 179.734 157.648Z" fill="#6F4C47"/>
<path d="M190.576 163.136C188.053 160.849 184.876 159.298 181.431 158.669C178 158.05 174.489 157.925 171.019 158.297C168.242 158.535 165.058 159.205 163.802 161.537C162.546 163.868 164.066 167.025 166.523 168.397C168.98 169.769 172.032 169.831 174.908 169.594C177.784 169.357 180.648 168.851 183.491 169.264" fill="#FFBE9D"/>
<path d="M183.492 169.264C183.492 169.264 182.721 169.192 181.289 169.264C179.33 169.344 177.378 169.516 175.438 169.78C174.076 169.943 172.701 169.998 171.328 169.945C169.729 169.894 168.159 169.525 166.723 168.862C165.12 168.072 163.899 166.74 163.307 165.137C162.993 164.282 162.925 163.364 163.109 162.476C163.344 161.56 163.87 160.733 164.618 160.103C166.136 159.004 167.962 158.341 169.874 158.194C171.596 158.005 173.329 157.908 175.063 157.905C178.014 157.855 180.953 158.27 183.757 159.133C185.643 159.727 187.406 160.62 188.968 161.774C189.395 162.09 189.796 162.435 190.169 162.806C190.309 162.924 190.431 163.06 190.533 163.208C190.533 163.208 189.96 162.723 188.836 161.96C187.248 160.891 185.489 160.066 183.624 159.515C180.857 158.717 177.969 158.348 175.074 158.421C173.362 158.439 171.651 158.546 169.951 158.741C168.153 158.876 166.434 159.496 165.004 160.526C164.346 161.071 163.881 161.79 163.671 162.589C163.499 163.383 163.556 164.206 163.836 164.972C164.378 166.455 165.5 167.69 166.976 168.428C168.35 169.063 169.853 169.415 171.383 169.46C172.728 169.529 174.077 169.498 175.416 169.367C177.374 169.128 179.347 169.007 181.322 169.006C181.857 169.029 182.39 169.077 182.919 169.151C183.115 169.161 183.308 169.2 183.492 169.264Z" fill="#6F4C47"/>
<path d="M157.523 155.708C160.399 159.834 162.933 164.291 165.357 168.624C165.936 169.951 166.888 171.106 168.112 171.967C169.147 172.565 171.715 171.482 172.871 171.11L164.972 154.294" fill="#FFBE9D"/>
<path d="M165.69 154.748C165.967 155.143 166.203 155.561 166.395 155.996L168.136 159.525C169.602 162.516 171.607 166.746 173.844 171.461L173.976 171.719L173.678 171.822C172.83 172.101 171.915 172.462 170.924 172.699C170.527 172.791 170.121 172.847 169.712 172.864C169.497 172.874 169.281 172.853 169.073 172.802C168.855 172.752 168.652 172.657 168.478 172.523C167.842 172.094 167.3 171.555 166.88 170.935C166.076 169.738 165.503 168.541 164.853 167.437C163.619 165.199 162.484 163.197 161.492 161.526C160.501 159.855 159.686 158.524 159.102 157.606C158.78 157.143 158.493 156.661 158.242 156.161C158.638 156.574 158.989 157.024 159.289 157.503C159.928 158.379 160.82 159.69 161.845 161.34C162.87 162.991 164.049 164.972 165.327 167.2C165.977 168.304 166.583 169.521 167.354 170.646C167.737 171.206 168.226 171.695 168.797 172.09C169.102 172.238 169.437 172.322 169.779 172.336C170.122 172.351 170.464 172.295 170.781 172.173C171.717 171.956 172.61 171.605 173.491 171.316L173.293 171.708C171.089 166.953 169.128 162.733 167.784 159.7L166.197 156.11C165.986 155.671 165.816 155.215 165.69 154.748Z" fill="#FFBE9D"/>
<path d="M162.844 149.291C165.378 155.254 167.916 161.213 170.457 167.169C170.92 168.466 171.613 169.679 172.507 170.76C172.958 171.296 173.545 171.719 174.214 171.991C174.883 172.263 175.614 172.375 176.341 172.317C178.324 172.049 179.646 170.079 179.723 168.191C179.662 166.307 179.174 164.457 178.291 162.764C176.014 157.327 174.191 151.732 172.837 146.031" fill="#FFBE9D"/>
<path d="M172.84 146.042C172.917 146.219 172.979 146.402 173.027 146.588C173.148 147.001 173.292 147.527 173.479 148.167C173.876 149.539 174.448 151.52 175.253 153.944C176.057 156.368 177.093 159.226 178.404 162.342C179.216 163.974 179.755 165.714 180.002 167.5C180.075 168.48 179.873 169.462 179.418 170.347C178.952 171.273 178.141 172.007 177.137 172.411C176.615 172.589 176.058 172.66 175.505 172.617C174.951 172.574 174.414 172.419 173.931 172.163C173.026 171.691 172.267 171.009 171.727 170.182C170.816 168.625 170.046 167 169.424 165.323C168.124 162.228 166.956 159.401 165.954 157.018C164.951 154.635 164.235 152.789 163.662 151.396L163.056 149.859C162.977 149.68 162.922 149.493 162.891 149.302C163.002 149.464 163.094 149.637 163.166 149.817L163.871 151.313C164.477 152.696 165.315 154.584 166.328 156.874C167.342 159.164 168.532 162.032 169.92 165.127C170.54 166.765 171.303 168.352 172.201 169.873C172.7 170.628 173.403 171.247 174.239 171.668C174.651 171.885 175.109 172.017 175.58 172.054C176.052 172.091 176.526 172.034 176.972 171.885C177.85 171.526 178.557 170.875 178.955 170.058C179.369 169.257 179.552 168.368 179.484 167.479C179.239 165.763 178.723 164.091 177.952 162.517C176.663 159.422 175.66 156.482 174.911 154.047C174.162 151.612 173.633 149.59 173.303 148.208C173.148 147.506 173.027 146.97 172.961 146.599C172.89 146.42 172.849 146.232 172.84 146.042Z" fill="#6F4C47"/>
<path d="M163.45 191.207C163.45 191.207 146.019 239.344 145.325 241.696C144.631 244.049 148.774 261.246 156.343 265.321C163.913 269.396 178.599 252.436 180.428 246.205C182.257 239.973 180.428 229.451 180.428 229.451L192.185 187.988" fill="#FFBE9D"/>
<path d="M180.429 183.728C179.873 183.794 179.308 183.726 178.787 183.532C177.501 183.156 176.319 182.519 175.327 181.664C174.323 180.808 173.54 179.75 173.036 178.569C172.779 178.101 172.657 177.578 172.683 177.053C173.409 178.615 174.437 180.038 175.713 181.252C177.106 182.345 178.706 183.185 180.429 183.728Z" fill="#6F4C47"/>
<path d="M493.551 417.016C493.551 417.171 396.472 417.295 276.74 417.295C157.008 417.295 59.9062 417.171 59.9062 417.016C59.9062 416.862 156.975 416.748 276.74 416.748C396.505 416.748 493.551 416.872 493.551 417.016Z" fill="#263238"/>
<path d="M85.766 72.4478H209.421C212.395 72.4478 214.749 74.6978 214.749 77.4052V109.51C214.749 112.218 212.395 114.468 209.421 114.468H85.766C82.7917 114.468 80.4375 112.218 80.4375 109.51V77.4052C80.4375 74.6978 82.7917 72.4478 85.766 72.4478Z" fill="#FFB700" stroke="black"/>
<path d="M216.123 114.958H97.2059C95.5683 114.941 94.0035 114.321 92.8506 113.232C91.6977 112.143 91.0497 110.672 91.0469 109.139V77.6115C91.0498 76.0692 91.7054 74.5908 92.8702 73.5002C94.0349 72.4096 95.6138 71.7957 97.261 71.793H216.123C217.77 71.7957 219.349 72.4096 220.514 73.5002C221.678 74.5908 222.334 76.0692 222.337 77.6115V109.139C222.334 110.681 221.678 112.16 220.514 113.25C219.349 114.341 217.77 114.955 216.123 114.958ZM97.2059 72.8246C95.8605 72.8409 94.5759 73.3521 93.6297 74.2477C92.6834 75.1434 92.1515 76.3517 92.1487 77.6115V109.139C92.1487 110.409 92.6873 111.626 93.646 112.524C94.6048 113.422 95.9051 113.926 97.261 113.926H216.123C217.479 113.926 218.779 113.422 219.738 112.524C220.697 111.626 221.235 110.409 221.235 109.139V77.6115C221.232 76.3428 220.693 75.1268 219.735 74.2297C218.776 73.3326 217.478 72.8274 216.123 72.8246H97.2059Z" fill="#FFB700"/>
<path d="M104.82 92.8489C104.879 91.8767 105.241 90.942 105.863 90.1614C106.484 89.3807 107.337 88.7885 108.316 88.4586C109.294 88.1286 110.355 88.0755 111.365 88.3059C112.376 88.5362 113.291 89.0398 113.998 89.7539L112.566 90.9919C112.273 90.661 111.903 90.3964 111.485 90.2178C111.068 90.0391 110.612 89.9511 110.153 89.9602C109.338 89.9602 108.556 90.2635 107.979 90.8033C107.403 91.3431 107.079 92.0752 107.079 92.8385C107.079 93.6019 107.403 94.334 107.979 94.8738C108.556 95.4136 109.338 95.7169 110.153 95.7169C110.612 95.7252 111.067 95.6369 111.485 95.4583C111.903 95.2797 112.272 95.0155 112.566 94.6852L113.998 95.9438C113.294 96.6628 112.378 97.1707 111.366 97.4039C110.354 97.6371 109.291 97.585 108.31 97.2544C107.329 96.9237 106.475 96.3292 105.854 95.5454C105.233 94.7615 104.874 93.8234 104.82 92.8489Z" fill="white"/>
<path d="M115.483 88.3408H117.687V95.6553H122.512V97.3472H115.461L115.483 88.3408Z" fill="white"/>
<path d="M123.781 88.3408H125.985V97.3472H123.781V88.3408Z" fill="white"/>
<path d="M127.68 92.849C127.735 91.8766 128.096 90.9412 128.716 90.1596C129.336 89.378 130.189 88.785 131.167 88.4547C132.145 88.1244 133.206 88.0715 134.216 88.3026C135.226 88.5337 136.141 89.0386 136.847 89.754L135.425 90.992C135.13 90.6609 134.758 90.3963 134.339 90.2177C133.919 90.0391 133.462 89.9512 133.001 89.9604C132.598 89.9604 132.198 90.0348 131.825 90.1795C131.452 90.3241 131.113 90.5361 130.828 90.8034C130.542 91.0707 130.316 91.388 130.161 91.7372C130.007 92.0864 129.927 92.4607 129.927 92.8387C129.927 93.2167 130.007 93.591 130.161 93.9402C130.316 94.2894 130.542 94.6067 130.828 94.874C131.113 95.1412 131.452 95.3533 131.825 95.4979C132.198 95.6426 132.598 95.717 133.001 95.717C133.462 95.7254 133.919 95.6372 134.338 95.4586C134.758 95.2801 135.129 95.0159 135.425 94.6853L136.847 95.944C136.143 96.6643 135.228 97.1735 134.216 97.4075C133.205 97.6415 132.141 97.5897 131.161 97.2587C130.181 96.9277 129.327 96.3322 128.707 95.5475C128.088 94.7627 127.73 93.8237 127.68 92.849Z" fill="white"/>
<path d="M141.847 93.8086L140.547 95.0672V97.3472H138.344V88.3408H140.547V92.55L144.811 88.3408H147.235L143.258 92.354L147.478 97.3472H144.921L141.847 93.8086Z" fill="white"/>
<path d="M161.205 88.3408V97.3472H159.001V93.6539H154.594V97.3472H152.391V88.3408H154.594V91.9H159.001V88.3408H161.205Z" fill="white"/>
<path d="M170.925 95.6759V97.3472H163.477V88.3408H170.748V90.0224H165.691V91.9723H170.153V93.592H165.691V95.6553L170.925 95.6759Z" fill="white"/>
<path d="M178.816 97.3472L176.987 94.8403H174.938V97.3472H172.734V88.3408H176.899C179.466 88.3408 181.075 89.5891 181.075 91.6112C181.102 92.22 180.925 92.8214 180.569 93.3317C180.214 93.8421 179.697 94.2359 179.092 94.4585L181.295 97.3472H178.816ZM176.734 90.0431H174.916V93.138H176.734C178.089 93.138 178.772 92.55 178.772 91.5699C178.772 90.5898 178.089 90.0431 176.734 90.0431Z" fill="white"/>
<path d="M190.206 95.6759V97.3472H182.758V88.3408H190.019V90.0224H184.972V91.9723H189.38V93.592H184.972V95.6553L190.206 95.6759Z" fill="white"/>
<path d="M217.321 114.008C216.405 113.225 215.625 112.313 215.007 111.305C214.229 110.4 213.604 109.387 213.156 108.303C214.074 109.088 214.858 110 215.481 111.006C216.259 111.91 216.88 112.923 217.321 114.008Z" fill="#FFB700"/>
<path d="M221.784 80.7581C220.419 79.4596 219.197 78.0356 218.137 76.5077C216.925 75.0848 215.859 73.558 214.953 71.9478C216.318 73.2462 217.54 74.6702 218.6 76.1982C219.817 77.618 220.883 79.1451 221.784 80.7581Z" fill="#FFB700"/>
<path d="M221.312 108.324C221.147 108.437 219.494 106.261 217.687 103.351C216.773 101.928 215.968 100.628 215.406 99.6786C215.056 99.1849 214.768 98.6553 214.547 98.1001C214.712 97.997 216.365 100.225 218.172 103.073C219.086 104.496 219.891 105.796 220.464 106.745C220.813 107.238 221.098 107.768 221.312 108.324Z" fill="#FFB700"/>
<path d="M221.819 99.3073C221.653 99.4208 219.891 97.017 217.94 93.953C216.96 92.4158 216.089 91.0231 215.472 90.0018C215.102 89.4693 214.792 88.9022 214.547 88.3098C214.712 88.2067 216.475 90.6104 218.436 93.6745C219.417 95.2013 220.276 96.6044 220.893 97.6154C221.266 98.1463 221.577 98.7136 221.819 99.3073Z" fill="#FFB700"/>
<path d="M221.808 90.4039C221.643 90.5173 219.869 88.0929 217.908 85.0186C216.916 83.4814 216.046 82.0681 215.429 81.0467C215.051 80.5129 214.737 79.9421 214.492 79.3445C214.657 79.2413 216.431 81.6554 218.393 84.7401C219.384 86.2772 220.255 87.6803 220.872 88.7119C221.252 89.2402 221.567 89.8079 221.808 90.4039Z" fill="#FFB700"/>
<path d="M76.5996 78.6124C74.2298 78.3126 71.89 77.833 69.6032 77.1784C67.267 76.696 64.9754 76.0405 62.75 75.2183C65.1198 75.5181 67.4596 75.9976 69.7464 76.6523C72.0832 77.1327 74.3749 77.7882 76.5996 78.6124Z" fill="#263238"/>
<path d="M77.9365 70.8644C75.3497 68.34 72.9042 65.692 70.6096 62.931C68.165 60.2946 65.8701 57.5397 63.7344 54.6777C66.3182 57.2083 68.7636 59.8596 71.0613 62.6215C73.4995 65.2593 75.7941 68.0104 77.9365 70.8644Z" fill="#263238"/>
<path d="M88.1503 67.1296C87.3556 65.3995 86.8466 63.5662 86.6408 61.6928C86.2425 59.8459 86.1607 57.9515 86.3984 56.0806C86.5637 56.0806 86.718 58.5772 87.2027 61.6206C87.6875 64.664 88.3156 67.0574 88.1503 67.1296Z" fill="#263238"/>
<defs>
<filter id="filter0_d_2592_4073" x="0" y="38.1714" width="558.898" height="523.829" filterUnits="userSpaceOnUse" color-interpolation-filters="sRGB">
<feFlood flood-opacity="0" result="BackgroundImageFix"/>
<feColorMatrix in="SourceAlpha" type="matrix" values="0 0 0 0 0 0 0 0 0 0 0 0 0 0 0 0 0 0 127 0" result="hardAlpha"/>
<feOffset dy="4"/>
<feGaussianBlur stdDeviation="2"/>
<feComposite in2="hardAlpha" operator="out"/>
<feColorMatrix type="matrix" values="0 0 0 0 0 0 0 0 0 0 0 0 0 0 0 0 0 0 0.25 0"/>
<feBlend mode="normal" in2="BackgroundImageFix" result="effect1_dropShadow_2592_4073"/>
<feBlend mode="normal" in="SourceGraphic" in2="effect1_dropShadow_2592_4073" result="shape"/>
</filter>
</defs>
</svg>
