<svg width="692" height="469" viewBox="0 0 692 469" fill="none" xmlns="http://www.w3.org/2000/svg">
<path d="M622.185 166.776C608.412 158.68 593.715 151.888 579.409 145.321C541.409 127.876 506.004 107.514 474.197 80.2331C387.358 5.75114 249.533 -28.8959 145.247 29.1541C56.2284 78.7051 6.51544 181.523 21.0504 282.178C33.1114 365.703 108.196 418.874 186.245 435.792C247.677 449.108 311.045 442.536 372.161 430.842C402.934 424.954 433.426 417.726 463.993 410.874C487.467 405.612 510.751 398.047 534.993 397.47C542.796 397.284 550.405 398.429 558.163 398.93C565.324 399.393 572.516 399.293 579.664 398.655C612.81 395.695 645.702 381.028 667.397 355.33C700.822 315.738 697.383 254.992 671.554 212.354C659.495 192.449 641.775 178.293 622.185 166.776Z" fill="#BCD7F4"/>
<path d="M360.039 291.379L600.74 429.972L690.459 377.999L446.352 240.028L360.039 291.379Z" fill="#2C314B"/>
<path d="M504.571 327.596V364.175C504.571 366.566 503.302 368.772 501.233 369.963L494.03 374.14L469.709 388.253L417.016 357.92L441.396 343.847L448.677 339.641C450.756 338.44 452.034 336.225 452.025 333.824L451.879 297.254L504.571 327.596Z" fill="white" stroke="#2C314B" stroke-miterlimit="10"/>
<path d="M504.573 327.596V364.175C504.573 366.566 503.304 368.772 501.235 369.963L494.032 374.14L441.398 343.846L448.679 339.64C450.758 338.439 452.036 336.224 452.027 333.823L451.881 297.253L504.573 327.596Z" fill="#2C314B" stroke="#2C314B" stroke-miterlimit="10"/>
<path d="M609.797 140.848L374.866 5.21109C371.873 3.48309 369.203 3.31909 367.451 4.46109L358.844 9.73909C359.974 10.8691 363.123 12.6431 365.307 14.8271V265.308C365.307 268.198 366.849 270.869 369.352 272.314L608.09 410.149L607.03 417.014L615.515 411.769L615.513 411.764C617.693 410.892 619.355 408.793 619.355 406.113V155.926C619.356 150.647 615.076 143.896 609.797 140.848Z" fill="white" stroke="#2C314B" stroke-miterlimit="10" stroke-linecap="round" stroke-linejoin="round"/>
<path d="M610.448 161.366V411.556C610.448 416.236 605.378 419.166 601.328 416.826L482.068 347.976L363.918 279.766L360.448 277.756C357.948 276.306 356.398 273.636 356.398 270.746V14.696C356.398 9.41601 360.678 7.60601 365.958 10.656L600.888 146.286C606.168 149.336 610.448 156.086 610.448 161.366Z" fill="#2C314B" stroke="#2C314B" stroke-miterlimit="10" stroke-linecap="round" stroke-linejoin="round"/>
<path d="M610.456 371.666V411.556C610.456 416.236 605.376 419.166 601.326 416.826L506.826 362.266L388.486 293.946L360.446 277.756C357.946 276.306 356.406 273.636 356.406 270.746V225.716L610.456 371.666Z" fill="white" stroke="#2C314B" stroke-miterlimit="10"/>
<path d="M366.875 22.4663L602.107 157.926L602.985 358.163L368.41 223.202L366.875 22.4663Z" fill="#D8DCF6" stroke="#1A004F" stroke-miterlimit="10"/>
<path d="M399.719 121.78L465.759 159.799" stroke="#2C314B" stroke-miterlimit="10" stroke-linecap="round" stroke-linejoin="round"/>
<path d="M399.719 134.773L465.759 172.792" stroke="#2C314B" stroke-miterlimit="10" stroke-linecap="round" stroke-linejoin="round"/>
<path d="M399.719 147.767L465.759 185.785" stroke="#2C314B" stroke-miterlimit="10" stroke-linecap="round" stroke-linejoin="round"/>
<path d="M399.719 160.76L465.759 198.779" stroke="#2C314B" stroke-miterlimit="10" stroke-linecap="round" stroke-linejoin="round"/>
<path d="M399.719 173.753L465.759 211.772" stroke="#2C314B" stroke-miterlimit="10" stroke-linecap="round" stroke-linejoin="round"/>
<path d="M602.195 177.616L367.025 42.2363L366.875 22.4663L602.105 157.926L602.195 177.616Z" fill="#596BFB" stroke="#1A004F" stroke-miterlimit="10"/>
<path d="M390.218 167.526L356.398 148.066V74.1763L389.898 93.4663L390.218 167.526Z" fill="#2C314B" stroke="#2C314B" stroke-miterlimit="10" stroke-linecap="round" stroke-linejoin="round"/>
<path d="M295.922 24.6963L382.92 74.7943L383.244 148.849L296.49 98.9353L295.922 24.6963Z" fill="white" stroke="#2C314B" stroke-miterlimit="10" stroke-linecap="round" stroke-linejoin="round"/>
<path d="M296.086 24.0181V39.7351L383.084 89.7891V74.1161L296.086 24.0181Z" fill="#FFB700" stroke="#1A004F" stroke-miterlimit="10"/>
<path d="M324.586 75.5649L353.376 92.1439L353.484 104.013L324.774 87.4949L324.586 75.5649Z" fill="#FFB700" stroke="#1A004F" stroke-miterlimit="10"/>
<path d="M367.555 68.905C365.848 67.919 364.459 68.711 364.453 70.674C364.448 72.636 365.828 75.026 367.535 76.012C369.244 76.999 370.633 76.207 370.639 74.245C370.644 72.282 369.264 69.892 367.555 68.905Z" fill="white" stroke="#2C314B" stroke-miterlimit="10" stroke-linecap="round" stroke-linejoin="round"/>
<path d="M359.711 64.927C358.004 63.941 356.615 64.733 356.609 66.697C356.603 68.659 357.983 71.049 359.691 72.035C361.4 73.022 362.789 72.23 362.795 70.268C362.8 68.304 361.42 65.914 359.711 64.927Z" fill="white" stroke="#2C314B" stroke-miterlimit="10" stroke-linecap="round" stroke-linejoin="round"/>
<path d="M375.641 73.8459C373.934 72.8599 372.545 73.6519 372.539 75.6159C372.533 77.5779 373.913 79.9679 375.621 80.9539C377.33 81.9409 378.719 81.1489 378.725 79.1869C378.73 77.2229 377.35 74.8329 375.641 73.8459Z" fill="white" stroke="#2C314B" stroke-miterlimit="10" stroke-linecap="round" stroke-linejoin="round"/>
<path d="M234.133 110.32L321.13 160.418L321.455 234.474L234.701 184.56L234.133 110.32Z" fill="white" stroke="#2C314B" stroke-miterlimit="10" stroke-linecap="round" stroke-linejoin="round"/>
<path d="M234.297 109.642V125.36L321.295 175.414V159.74L234.297 109.642Z" fill="#FFB700" stroke="#1A004F" stroke-miterlimit="10"/>
<path d="M242.688 167.003L271.479 183.582L271.586 195.451L242.876 178.933L242.688 167.003Z" fill="#596BFB" stroke="#1A004F" stroke-miterlimit="10"/>
<path d="M276.156 186.442L304.947 203.021L305.054 214.89L276.344 198.372L276.156 186.442Z" fill="#FFB700" stroke="#1A004F" stroke-miterlimit="10"/>
<path d="M305.766 154.53C304.059 153.544 302.67 154.336 302.664 156.3C302.658 158.262 304.038 160.652 305.746 161.638C307.455 162.625 308.844 161.833 308.85 159.871C308.855 157.907 307.475 155.516 305.766 154.53Z" fill="white" stroke="#2C314B" stroke-miterlimit="10" stroke-linecap="round" stroke-linejoin="round"/>
<path d="M297.922 150.552C296.215 149.566 294.826 150.358 294.82 152.322C294.815 154.284 296.194 156.674 297.902 157.66C299.611 158.647 301 157.855 301.005 155.893C301.011 153.929 299.631 151.538 297.922 150.552Z" fill="white" stroke="#2C314B" stroke-miterlimit="10" stroke-linecap="round" stroke-linejoin="round"/>
<path d="M313.852 159.471C312.145 158.485 310.756 159.277 310.75 161.241C310.745 163.203 312.125 165.593 313.832 166.579C315.541 167.566 316.93 166.774 316.936 164.812C316.941 162.848 315.561 160.458 313.852 159.471Z" fill="white" stroke="#2C314B" stroke-miterlimit="10" stroke-linecap="round" stroke-linejoin="round"/>
<path d="M243.664 153.388L309.705 191.406" stroke="#2C314B" stroke-miterlimit="10" stroke-linecap="round" stroke-linejoin="round"/>
<path d="M559.763 298.561L495.027 261.347L494.656 168.279L494.578 149.735L559.158 186.939L559.256 205.424L559.763 298.561Z" fill="white" stroke="#2C314B" stroke-miterlimit="10" stroke-linecap="round" stroke-linejoin="round"/>
<path d="M559.256 205.424L494.656 168.279L494.578 149.735L559.158 186.939L559.256 205.424Z" fill="#FFB700" stroke="#1A004F" stroke-miterlimit="10"/>
<path d="M525.299 206.527C516.831 201.638 509.948 205.567 509.914 215.295C509.893 225.029 516.731 236.881 525.199 241.77C533.667 246.659 540.556 242.733 540.584 233.002C540.612 223.271 533.767 211.416 525.299 206.527ZM533.994 237.036C534.534 237.972 534.532 238.974 533.988 239.284C533.719 239.437 533.364 239.39 533.008 239.185C532.653 238.98 532.298 238.617 532.031 238.155L525.242 226.397L518.415 230.295C518.14 230.444 517.784 230.397 517.429 230.192C517.08 229.99 516.725 229.628 516.452 229.162C515.918 228.23 515.921 227.227 516.458 226.914L523.291 223.02L516.502 211.262C515.968 210.337 515.971 209.327 516.508 209.014C516.78 208.859 517.136 208.908 517.491 209.113C517.846 209.318 518.201 209.679 518.471 210.147L525.253 221.902L532.086 218.008C532.358 217.853 532.712 217.902 533.066 218.106C533.42 218.31 533.773 218.67 534.043 219.138C534.583 220.074 534.58 221.083 534.037 221.386L527.21 225.284L533.994 237.036Z" fill="#2C314B"/>
<path d="M533.068 218.103C532.714 217.899 532.36 217.85 532.088 218.005L525.255 221.899L518.473 210.144C518.203 209.676 517.848 209.315 517.493 209.11C517.138 208.905 516.782 208.856 516.51 209.011C515.972 209.324 515.969 210.334 516.504 211.259L523.293 223.017L516.46 226.911C515.922 227.225 515.919 228.227 516.454 229.159C516.727 229.625 517.082 229.988 517.431 230.189C517.786 230.394 518.142 230.442 518.417 230.292L525.244 226.394L532.033 238.152C532.3 238.615 532.655 238.977 533.01 239.182C533.365 239.387 533.721 239.435 533.99 239.281C534.534 238.971 534.537 237.969 533.996 237.033L527.214 225.278L534.041 221.381C534.585 221.078 534.588 220.069 534.047 219.133C533.775 218.667 533.421 218.307 533.068 218.103Z" fill="white"/>
<path d="M559.181 177.575C555.19 175.271 551.946 177.123 551.93 181.707C551.92 186.295 555.143 191.88 559.133 194.184C563.124 196.488 566.371 194.638 566.384 190.052C566.398 185.466 563.172 179.879 559.181 177.575ZM563.279 191.953C563.534 192.394 563.532 192.867 563.276 193.013C563.149 193.085 562.982 193.063 562.814 192.966C562.647 192.869 562.479 192.698 562.354 192.48L559.155 186.939L555.938 188.776C555.808 188.847 555.641 188.824 555.473 188.727C555.309 188.632 555.141 188.461 555.013 188.242C554.761 187.803 554.763 187.33 555.016 187.182L558.236 185.347L555.037 179.806C554.785 179.37 554.787 178.894 555.04 178.746C555.168 178.673 555.336 178.696 555.503 178.793C555.67 178.89 555.838 179.06 555.965 179.28L559.161 184.82L562.381 182.985C562.509 182.912 562.676 182.935 562.843 183.031C563.01 183.127 563.176 183.297 563.304 183.517C563.559 183.958 563.557 184.434 563.301 184.577L560.084 186.414L563.279 191.953Z" fill="#2C314B"/>
<path d="M562.846 183.031C562.679 182.935 562.513 182.912 562.384 182.985L559.164 184.82L555.968 179.28C555.841 179.059 555.674 178.889 555.506 178.793C555.339 178.696 555.171 178.673 555.043 178.746C554.79 178.894 554.788 179.37 555.04 179.806L558.239 185.347L555.019 187.182C554.766 187.33 554.764 187.802 555.016 188.242C555.145 188.462 555.312 188.633 555.477 188.727C555.644 188.824 555.812 188.846 555.942 188.776L559.159 186.939L562.358 192.48C562.484 192.698 562.651 192.869 562.818 192.966C562.985 193.063 563.153 193.085 563.28 193.013C563.536 192.867 563.538 192.395 563.283 191.953L560.087 186.413L563.304 184.576C563.56 184.433 563.562 183.958 563.307 183.516C563.179 183.297 563.013 183.127 562.846 183.031Z" fill="white"/>
<path d="M569.865 328.263L505.129 291.051L504.758 197.982L504.68 179.438L569.26 216.642L569.358 235.127L569.865 328.263Z" fill="white" stroke="#2C314B" stroke-miterlimit="10" stroke-linecap="round" stroke-linejoin="round"/>
<path d="M569.358 235.127L504.758 197.982L504.68 179.438L569.26 216.642L569.358 235.127Z" fill="#FFB700" stroke="#1A004F" stroke-miterlimit="10"/>
<path d="M535.401 236.229C526.933 231.34 520.05 235.269 520.016 244.996C519.995 254.73 526.833 266.582 535.301 271.471C543.769 276.36 550.658 272.434 550.686 262.703C550.714 252.973 543.869 241.118 535.401 236.229ZM544.096 266.738C544.636 267.674 544.633 268.676 544.09 268.986C543.821 269.139 543.465 269.092 543.11 268.887C542.755 268.682 542.4 268.319 542.133 267.857L535.344 256.099L528.517 259.996C528.242 260.146 527.886 260.098 527.531 259.893C527.182 259.691 526.827 259.329 526.554 258.863C526.02 257.931 526.023 256.928 526.56 256.615L533.393 252.721L526.604 240.963C526.07 240.038 526.073 239.028 526.61 238.715C526.882 238.56 527.237 238.609 527.593 238.814C527.948 239.019 528.303 239.38 528.573 239.848L535.355 251.603L542.188 247.709C542.46 247.554 542.814 247.602 543.168 247.807C543.522 248.011 543.875 248.371 544.145 248.839C544.685 249.775 544.682 250.785 544.139 251.087L537.312 254.984L544.096 266.738Z" fill="#2C314B"/>
<path d="M543.169 247.805C542.815 247.601 542.461 247.552 542.189 247.707L535.356 251.601L528.574 239.846C528.304 239.378 527.949 239.017 527.594 238.812C527.239 238.607 526.883 238.558 526.611 238.713C526.073 239.027 526.07 240.036 526.605 240.961L533.394 252.719L526.561 256.613C526.023 256.927 526.021 257.929 526.555 258.861C526.828 259.327 527.183 259.69 527.532 259.891C527.887 260.096 528.243 260.144 528.518 259.994L535.345 256.097L542.134 267.855C542.401 268.317 542.756 268.68 543.111 268.885C543.466 269.09 543.822 269.138 544.091 268.984C544.635 268.674 544.638 267.672 544.097 266.736L537.315 254.981L544.142 251.084C544.686 250.781 544.689 249.772 544.148 248.836C543.876 248.369 543.523 248.01 543.169 247.805Z" fill="white"/>
<path d="M569.29 207.277C565.299 204.973 562.055 206.825 562.039 211.409C562.029 215.997 565.252 221.582 569.243 223.886C573.234 226.19 576.481 224.34 576.494 219.754C576.506 215.169 573.28 209.581 569.29 207.277ZM573.387 221.656C573.642 222.097 573.64 222.57 573.384 222.716C573.257 222.788 573.09 222.766 572.922 222.669C572.755 222.572 572.587 222.401 572.462 222.183L569.263 216.642L566.046 218.479C565.916 218.549 565.749 218.527 565.582 218.43C565.418 218.335 565.25 218.164 565.121 217.945C564.869 217.506 564.871 217.033 565.124 216.885L568.344 215.05L565.145 209.508C564.893 209.072 564.895 208.596 565.148 208.448C565.276 208.375 565.444 208.398 565.611 208.495C565.778 208.592 565.946 208.762 566.073 208.982L569.269 214.522L572.489 212.687C572.617 212.614 572.784 212.637 572.951 212.733C573.118 212.829 573.284 212.999 573.411 213.219C573.666 213.66 573.664 214.136 573.408 214.279L570.191 216.116L573.387 221.656Z" fill="#2C314B"/>
<path d="M572.948 212.733C572.781 212.637 572.615 212.614 572.486 212.687L569.266 214.522L566.07 208.982C565.943 208.761 565.776 208.591 565.608 208.495C565.441 208.398 565.273 208.375 565.145 208.448C564.892 208.596 564.89 209.072 565.142 209.508L568.341 215.049L565.121 216.884C564.868 217.032 564.866 217.504 565.118 217.944C565.247 218.164 565.414 218.335 565.578 218.429C565.745 218.526 565.913 218.548 566.043 218.478L569.26 216.641L572.459 222.182C572.585 222.4 572.752 222.571 572.919 222.668C573.086 222.765 573.254 222.787 573.381 222.715C573.637 222.569 573.639 222.097 573.384 221.655L570.188 216.115L573.405 214.278C573.661 214.135 573.663 213.66 573.408 213.218C573.281 212.999 573.115 212.829 572.948 212.733Z" fill="white"/>
<path d="M579.974 357.966L515.238 320.752L514.867 227.683L514.789 209.14L579.369 246.344L579.467 264.829L579.974 357.966Z" fill="white" stroke="#2C314B" stroke-miterlimit="10" stroke-linecap="round" stroke-linejoin="round"/>
<path d="M579.467 264.829L514.867 227.683L514.789 209.14L579.369 246.344L579.467 264.829Z" fill="#FFB700" stroke="#1A004F" stroke-miterlimit="10"/>
<path d="M545.51 265.931C537.042 261.042 530.159 264.971 530.125 274.698C530.104 284.432 536.942 296.284 545.41 301.173C553.878 306.062 560.767 302.136 560.795 292.405C560.823 282.675 553.978 270.82 545.51 265.931ZM554.205 296.44C554.745 297.376 554.743 298.378 554.199 298.688C553.93 298.841 553.575 298.794 553.219 298.589C552.864 298.384 552.509 298.021 552.242 297.559L545.453 285.801L538.626 289.698C538.351 289.848 537.995 289.8 537.64 289.595C537.291 289.394 536.936 289.031 536.663 288.565C536.129 287.633 536.132 286.63 536.669 286.317L543.502 282.423L536.713 270.665C536.179 269.74 536.182 268.73 536.719 268.417C536.991 268.262 537.347 268.311 537.702 268.516C538.057 268.721 538.412 269.082 538.682 269.55L545.464 281.305L552.297 277.411C552.569 277.256 552.923 277.305 553.277 277.509C553.631 277.713 553.984 278.073 554.254 278.541C554.794 279.477 554.791 280.487 554.248 280.789L547.421 284.686L554.205 296.44Z" fill="#2C314B"/>
<path d="M553.279 277.508C552.925 277.304 552.571 277.255 552.299 277.41L545.466 281.304L538.684 269.549C538.414 269.081 538.059 268.72 537.704 268.515C537.349 268.31 536.993 268.261 536.721 268.416C536.183 268.73 536.18 269.739 536.715 270.664L543.504 282.422L536.671 286.316C536.133 286.63 536.131 287.632 536.665 288.564C536.938 289.03 537.293 289.393 537.642 289.594C537.997 289.799 538.353 289.847 538.628 289.697L545.455 285.8L552.244 297.558C552.511 298.021 552.866 298.383 553.221 298.588C553.576 298.793 553.932 298.841 554.201 298.687C554.745 298.377 554.748 297.375 554.207 296.439L547.425 284.684L554.252 280.787C554.796 280.484 554.799 279.475 554.258 278.539C553.986 278.072 553.633 277.712 553.279 277.508Z" fill="white"/>
<path d="M579.399 236.98C575.408 234.676 572.164 236.528 572.148 241.112C572.138 245.7 575.361 251.285 579.352 253.589C583.343 255.893 586.59 254.043 586.603 249.457C586.615 244.871 583.39 239.284 579.399 236.98ZM583.497 251.358C583.752 251.799 583.75 252.272 583.494 252.418C583.367 252.49 583.2 252.468 583.032 252.371C582.865 252.274 582.697 252.104 582.571 251.885L579.372 246.344L576.155 248.181C576.025 248.251 575.858 248.229 575.69 248.133C575.526 248.038 575.358 247.867 575.23 247.647C574.978 247.208 574.98 246.735 575.233 246.587L578.453 244.752L575.254 239.21C575.002 238.774 575.004 238.298 575.257 238.15C575.385 238.077 575.553 238.1 575.72 238.197C575.887 238.294 576.055 238.464 576.182 238.684L579.378 244.224L582.598 242.389C582.726 242.316 582.893 242.339 583.06 242.435C583.227 242.531 583.393 242.701 583.52 242.921C583.775 243.362 583.773 243.838 583.517 243.981L580.3 245.818L583.497 251.358Z" fill="#2C314B"/>
<path d="M583.057 242.435C582.89 242.339 582.724 242.316 582.595 242.389L579.375 244.224L576.179 238.684C576.052 238.463 575.885 238.293 575.717 238.197C575.55 238.1 575.382 238.077 575.254 238.15C575.001 238.298 574.999 238.773 575.251 239.209L578.45 244.751L575.23 246.586C574.977 246.734 574.975 247.206 575.227 247.646C575.356 247.866 575.523 248.037 575.687 248.132C575.854 248.229 576.022 248.251 576.152 248.181L579.369 246.344L582.568 251.885C582.694 252.103 582.861 252.274 583.029 252.371C583.196 252.468 583.364 252.49 583.491 252.418C583.747 252.272 583.749 251.8 583.494 251.358L580.298 245.818L583.515 243.981C583.771 243.838 583.773 243.363 583.518 242.921C583.39 242.701 583.224 242.532 583.057 242.435Z" fill="white"/>
<path d="M590.076 387.668L525.34 350.454L524.969 257.385L524.891 238.842L589.471 276.046L589.569 294.531L590.076 387.668Z" fill="white" stroke="#2C314B" stroke-miterlimit="10" stroke-linecap="round" stroke-linejoin="round"/>
<path d="M589.569 294.531L524.969 257.385L524.891 238.842L589.471 276.046L589.569 294.531Z" fill="#FFB700" stroke="#1A004F" stroke-miterlimit="10"/>
<path d="M555.612 295.633C547.144 290.744 540.261 294.673 540.227 304.401C540.206 314.135 547.044 325.987 555.512 330.876C563.98 335.765 570.869 331.839 570.897 322.109C570.925 312.378 564.08 300.523 555.612 295.633ZM564.307 326.143C564.847 327.079 564.845 328.081 564.301 328.391C564.032 328.544 563.676 328.497 563.321 328.292C562.966 328.087 562.611 327.724 562.344 327.262L555.555 315.504L548.728 319.401C548.453 319.551 548.097 319.503 547.742 319.298C547.393 319.097 547.038 318.734 546.765 318.268C546.231 317.336 546.234 316.333 546.771 316.02L553.604 312.126L546.815 300.368C546.281 299.443 546.284 298.433 546.821 298.12C547.093 297.965 547.449 298.014 547.804 298.219C548.159 298.424 548.514 298.785 548.784 299.253L555.566 311.008L562.399 307.114C562.671 306.959 563.025 307.008 563.379 307.212C563.733 307.416 564.086 307.776 564.356 308.244C564.896 309.18 564.893 310.19 564.35 310.492L557.523 314.389L564.307 326.143Z" fill="#FFB700" stroke="#1A004F" stroke-miterlimit="10"/>
<path d="M563.38 307.21C563.026 307.006 562.672 306.957 562.4 307.112L555.567 311.006L548.785 299.251C548.515 298.783 548.16 298.422 547.805 298.217C547.45 298.012 547.094 297.963 546.822 298.118C546.284 298.432 546.281 299.441 546.816 300.366L553.605 312.124L546.772 316.018C546.234 316.331 546.232 317.334 546.766 318.266C547.039 318.732 547.394 319.095 547.743 319.296C548.098 319.501 548.454 319.549 548.729 319.399L555.556 315.502L562.345 327.26C562.612 327.723 562.967 328.085 563.322 328.29C563.677 328.495 564.033 328.543 564.302 328.389C564.846 328.079 564.849 327.077 564.308 326.141L557.526 314.386L564.353 310.489C564.897 310.186 564.9 309.177 564.359 308.241C564.087 307.774 563.734 307.414 563.38 307.21Z" fill="white"/>
<path d="M589.501 266.682C585.51 264.378 582.266 266.23 582.25 270.814C582.24 275.401 585.463 280.987 589.453 283.291C593.444 285.595 596.691 283.745 596.704 279.159C596.717 274.573 593.492 268.986 589.501 266.682ZM593.599 281.06C593.854 281.501 593.852 281.974 593.596 282.12C593.469 282.192 593.302 282.17 593.134 282.073C592.967 281.976 592.8 281.806 592.674 281.587L589.475 276.046L586.258 277.883C586.128 277.953 585.961 277.931 585.793 277.835C585.629 277.74 585.461 277.569 585.333 277.349C585.081 276.91 585.083 276.437 585.336 276.289L588.556 274.454L585.357 268.912C585.105 268.476 585.107 268 585.36 267.852C585.488 267.779 585.656 267.802 585.823 267.899C585.99 267.996 586.158 268.166 586.285 268.386L589.481 273.926L592.701 272.091C592.829 272.018 592.996 272.041 593.163 272.137C593.33 272.233 593.496 272.403 593.624 272.623C593.879 273.064 593.877 273.54 593.621 273.683L590.404 275.52L593.599 281.06Z" fill="#2C314B"/>
<path d="M593.159 272.138C592.992 272.042 592.825 272.019 592.696 272.092L589.477 273.927L586.28 268.387C586.153 268.166 585.986 267.996 585.818 267.9C585.651 267.803 585.483 267.78 585.355 267.853C585.102 268.001 585.1 268.477 585.352 268.913L588.552 274.455L585.331 276.29C585.078 276.438 585.077 276.91 585.329 277.35C585.458 277.57 585.625 277.741 585.789 277.836C585.956 277.933 586.123 277.955 586.253 277.884L589.47 276.047L592.67 281.588C592.796 281.806 592.962 281.977 593.129 282.074C593.296 282.171 593.465 282.193 593.592 282.121C593.848 281.975 593.85 281.503 593.595 281.061L590.399 275.521L593.615 273.684C593.871 273.541 593.873 273.066 593.618 272.624C593.491 272.403 593.326 272.234 593.159 272.138Z" fill="white"/>
<path d="M100.08 261.998L90.7639 303.372H90.7589C90.1809 306.465 87.8479 309.471 83.7409 311.842C74.2289 317.334 58.8509 317.33 49.3999 311.838C45.3229 309.469 43.0229 306.464 42.4779 303.372H42.3419L33.2969 261.998H100.08Z" fill="#D8DCF6" stroke="#1A004F" stroke-miterlimit="10"/>
<path d="M42.6168 243.667C55.9658 235.96 77.5328 235.965 90.7858 243.667C104.039 251.369 103.978 263.861 90.6288 271.568C77.2888 279.27 55.7228 279.264 42.4688 271.562C29.2158 263.86 29.2768 251.369 42.6168 243.667Z" fill="#D8DCF6" stroke="#1A004F" stroke-miterlimit="10"/>
<path d="M44.8849 244.987C56.9709 238.009 76.4959 238.014 88.4949 244.987C100.494 251.96 100.439 263.27 88.353 270.247C76.276 277.22 56.751 277.215 44.752 270.242C32.752 263.269 32.8069 251.96 44.8849 244.987Z" fill="#2C314B"/>
<path d="M36.6274 129.247C39.0404 127.854 41.2854 128.449 42.1734 130.7C43.3714 133.756 41.8814 139.203 40.1154 143.394C38.0354 148.305 30.7644 157.779 30.7544 157.785L30.7534 157.786C30.6674 157.836 29.1784 152.113 29.1224 151.708C28.4984 147.08 29.8534 136.246 34.2674 131.241C35.0444 130.36 35.8444 129.698 36.6274 129.247ZM119.661 87.5892C119.894 87.4552 120.125 87.3382 120.353 87.2422C123.861 85.7682 125.811 88.6782 125.037 92.9102C124.242 97.2422 120.798 102.113 117.797 105.349C114.967 108.407 108.832 112.087 106.549 113.405C105.999 113.723 105.672 113.903 105.67 113.904V113.903C105.67 113.892 105.67 113.881 105.67 113.869C105.738 113.329 107.51 106.333 107.665 105.87C109.449 100.506 114.943 90.3122 119.661 87.5892ZM98.8354 70.8872C99.6634 70.4092 100.51 70.1412 101.326 70.1522C105.689 70.2272 106.861 79.6402 106.157 85.0232C106.093 85.4842 104.483 92.9462 104.392 92.9992L104.304 92.9872C104.505 94.4632 104.694 96.0582 104.874 97.8342C105.189 101.112 105.505 104.84 105.604 109.069C105.644 110.61 105.671 112.211 105.672 113.871C105.669 113.893 105.669 113.905 105.672 113.905C105.672 116.772 105.592 119.818 105.36 123.047C104.993 128.172 104.387 133.673 103.171 139.577L103.128 139.777C103.886 137.948 106.151 132.818 106.357 132.435C108.754 127.851 114.405 120.247 118.828 117.693C119.671 117.207 120.468 116.903 121.191 116.839C124.451 116.548 125.412 120.468 123.788 124.827C122.132 129.268 118.151 133.295 114.918 135.701C114.528 135.992 114.091 136.273 113.623 136.544C109.701 138.808 103.512 140.321 102.966 140.446C101.771 146.087 100.185 151.966 98.3474 157.952C97.2994 161.377 96.1744 164.822 95.0064 168.278C95.7004 166.699 96.3284 165.284 96.4374 165.083C98.8324 160.503 104.475 152.908 108.896 150.355C109.743 149.866 110.544 149.562 111.27 149.5C114.53 149.197 115.491 153.13 113.867 157.476C112.211 161.929 108.23 165.957 104.997 168.362C104.61 168.65 104.178 168.929 103.713 169.197C100.226 171.21 94.9124 172.639 93.3834 173.024C92.9184 174.358 92.4744 175.679 92.0204 177.007C89.8024 183.376 87.5844 189.733 85.5294 195.983C84.8044 198.181 84.1564 200.335 83.4974 202.495C84.1154 201.098 84.6464 199.914 84.7334 199.739C87.1304 195.155 92.7894 187.547 97.2144 184.992C98.0574 184.505 98.8554 184.202 99.5784 184.138C102.838 183.847 103.799 187.767 102.175 192.127C100.519 196.568 96.5274 200.602 93.2954 203.007C92.9054 203.298 92.4694 203.579 92.0014 203.849C88.7064 205.751 83.8104 207.122 81.9974 207.587C81.3714 209.803 80.7334 212.014 80.2054 214.149C79.8604 215.601 79.4504 217.017 79.1704 218.469C78.8694 219.909 78.5674 221.336 78.2664 222.739C77.7724 225.443 77.2454 228.229 76.8174 230.845C76.5064 232.667 76.2384 234.388 75.9594 236.14C76.6624 233.942 78.1004 229.665 78.2524 229.301C80.3474 224.211 86.0384 215.081 90.6244 212.432C91.0894 212.164 91.5414 211.962 91.9784 211.838C95.4114 210.859 96.9484 214.233 95.7934 218.559C94.6174 222.986 90.9104 227.519 87.7884 230.425C86.5954 231.536 84.8954 232.66 83.1454 233.671C79.8544 235.571 76.3854 237.07 75.7664 237.329C75.3164 240.208 74.8994 243.006 74.5464 245.629C74.2794 247.576 74.0334 249.434 73.8094 251.218L70.7494 252.985C71.0384 250.976 71.3484 248.879 71.6914 246.663C72.1304 243.74 72.6564 240.604 73.2134 237.374C72.6464 237.438 69.3864 237.804 66.5064 237.624C63.9994 242.192 57.5854 249.555 56.7484 250.502C57.6374 252.47 58.5154 254.357 59.3714 256.119C59.8324 257.044 60.2714 257.918 60.7094 258.78L57.4754 260.647C57.2224 260.078 56.9594 259.541 56.6964 258.966C55.7964 256.966 54.8744 254.804 53.9514 252.542C53.2144 253.147 48.2744 257.158 44.5174 259.328C43.5604 259.881 42.6804 260.314 41.9654 260.54C38.7724 261.556 34.9004 261.711 33.4634 258.906C32.0594 256.17 33.2994 251.067 36.6384 247.848C37.2124 247.295 37.8244 246.84 38.4604 246.473C42.9714 243.868 48.7124 245.653 51.0034 247.889C51.1564 248.039 52.5804 250.024 53.4454 251.317C53.0724 250.392 52.6984 249.505 52.3354 248.536C51.5774 246.642 50.8954 244.692 50.1484 242.592C49.8294 241.548 49.4994 240.498 49.1684 239.423C48.8164 238.398 48.5844 237.166 48.2864 236.034C47.6464 233.346 47.1254 230.513 46.6594 227.611C44.9774 229.296 39.2024 234.945 35.8154 236.901C35.6324 237.007 35.4564 237.102 35.2884 237.184C32.0314 238.801 27.9334 239.789 26.0404 237.548C24.1794 235.351 24.8204 230.431 27.9624 226.75C28.8254 225.74 29.8254 224.94 30.8974 224.32C35.2294 221.819 40.7504 222.264 43.2454 223.666C43.4424 223.778 45.4324 225.462 46.4924 226.441C46.2254 224.69 45.9584 222.939 45.7354 221.125C45.1204 215.89 44.6474 210.473 44.1524 205.094C43.9954 203.443 43.8264 201.81 43.6694 200.171C43.0664 200.782 36.2434 207.65 32.4334 209.849C32.2544 209.952 32.0824 210.045 31.9174 210.127C28.6494 211.763 24.5514 212.738 22.6584 210.497C20.7974 208.3 21.4494 203.374 24.5804 199.712C25.4464 198.696 26.4504 197.891 27.5274 197.27C31.8574 194.769 37.3704 195.215 39.8644 196.616C40.1044 196.753 42.9584 199.191 43.6364 199.878C43.2774 196.275 42.8854 192.704 42.3734 189.277C41.6624 184.549 40.7224 180.091 39.5004 176.034C39.2194 176.316 32.1134 183.515 28.2044 185.772C28.0234 185.876 27.8494 185.97 27.6834 186.052C24.4154 187.675 20.3284 188.657 18.4244 186.422C16.5634 184.225 17.2154 179.299 20.3464 175.624C21.2104 174.612 22.2124 173.81 23.2874 173.19C27.6214 170.687 33.1454 171.123 35.6404 172.534C35.8804 172.671 38.9534 175.309 39.4564 175.858C39.3794 175.614 39.3344 175.339 39.2574 175.108C37.8924 170.82 36.0284 167.184 34.0884 163.992C32.9594 162.125 31.7664 160.482 30.5624 158.947C29.1704 160.553 22.7884 167.809 19.3804 169.94C19.1484 170.085 18.9114 170.227 18.6704 170.366C15.5264 172.182 11.7514 173.412 9.69941 171.744C7.54541 169.967 7.75041 165.249 10.6954 161.293C11.7754 159.842 13.1474 158.706 14.6444 157.842C18.7934 155.446 23.9034 155.137 26.4304 155.981C26.6164 156.049 28.3424 157.033 29.5874 157.768C29.0294 157.088 28.4704 156.37 27.9234 155.746C25.8554 153.381 23.7884 151.466 21.9184 149.8C20.8574 148.871 19.8624 148.066 18.9224 147.343C17.2014 148.299 10.2644 152.066 7.22141 152.181C4.26541 152.283 0.870408 151.26 0.140408 147.784C-0.567592 144.382 1.45741 139.24 4.96341 136.778C5.14541 136.651 5.32841 136.534 5.51241 136.428C10.2684 133.682 15.7224 137.82 17.4544 141.26C17.6074 141.56 19.4124 147.061 19.3254 147.111L19.2164 147.174C20.1454 147.841 21.1184 148.583 22.1674 149.431C24.0804 151.021 26.2234 152.855 28.3574 155.145C30.5014 157.416 32.7454 159.994 34.7934 163.148C36.8424 166.302 38.8044 169.856 40.2894 174.125L40.3334 174.275C40.3064 172.636 40.3594 167.981 40.3904 167.612C40.9424 162.292 44.5534 150.933 49.3744 147.122C49.7194 146.849 50.0594 146.618 50.3924 146.425C53.4064 144.685 55.8244 146.179 56.0894 149.536C56.3834 153.327 53.8904 158.739 51.4584 162.663C48.7114 167.069 41.0854 174.217 40.4764 174.781C41.8514 178.888 42.9224 183.421 43.7544 188.217C44.2314 190.962 44.6214 193.795 44.9884 196.653C45.0064 195.214 45.0244 193.925 45.0454 193.737C45.5974 188.417 49.2084 177.058 54.0294 173.247C54.3744 172.974 54.7144 172.743 55.0474 172.55C58.0614 170.81 60.4784 172.303 60.7334 175.655C61.0274 179.458 58.5344 184.871 56.1024 188.782C53.6374 192.749 47.1764 198.961 45.4574 200.593C45.5914 201.694 45.7364 202.788 45.8594 203.895C46.4634 209.211 47.0454 214.528 47.7584 219.644C48.0144 221.439 48.3244 223.165 48.6244 224.91C48.6424 223.634 48.6614 222.545 48.6824 222.37C49.2344 217.05 52.8454 205.691 57.6554 201.899C58.0014 201.625 58.3434 201.393 58.6764 201.201C61.6984 199.456 64.1154 200.95 64.3704 204.302C64.6644 208.093 62.1714 213.518 59.7394 217.429C57.3944 221.202 51.4444 226.993 49.3994 228.939C49.7644 230.671 50.1294 232.416 50.5594 234.035C50.8784 235.116 51.1004 236.23 51.4844 237.261C51.8364 238.311 52.1884 239.336 52.5294 240.368C53.2764 242.268 54.0344 244.236 54.8034 246.049C55.3304 247.311 55.8684 248.492 56.3954 249.679C56.1174 247.909 55.6604 244.376 55.6484 244.057C55.5734 240.754 56.5924 234.726 58.6404 229.721C58.6284 229.227 58.6484 228.726 58.7124 228.2C59.1704 224.624 61.5374 220.684 64.3614 219.053C64.8294 218.783 65.3094 218.576 65.7964 218.445C70.5374 217.149 73.5704 224.974 73.8024 229.878C73.8254 230.153 73.6604 233.495 73.5354 235.61C73.7714 234.283 73.9864 233.006 74.2444 231.641C74.7274 228.943 75.2764 226.245 75.8674 223.322C76.1794 221.913 76.5024 220.486 76.8374 219.04C77.1384 217.613 77.5924 216.06 77.9704 214.563C78.8984 211.082 79.9684 207.531 81.0924 203.949C79.2614 204.505 72.7654 206.35 70.1454 205.556C67.5474 204.762 64.7924 202.605 64.8024 198.614C64.8124 194.941 67.2244 190.346 70.4314 188.495C70.6324 188.379 70.8374 188.273 71.0444 188.18C75.9244 185.964 80.1754 192.446 81.0824 196.861C81.1374 197.142 81.4314 200.595 81.5674 202.509C82.2594 200.355 82.9404 198.207 83.6864 196.021C85.8504 189.721 88.1774 183.351 90.4824 176.982C91.1854 175.034 91.8784 173.093 92.5714 171.151C91.9174 171.353 84.1474 173.771 81.2214 172.878C78.6234 172.084 75.8574 169.934 75.8784 165.936C75.8884 162.263 78.3004 157.668 81.5074 155.817C81.7084 155.701 81.9134 155.595 82.1204 155.502C87.0004 153.286 91.2514 159.768 92.1584 164.183C92.2244 164.521 92.6424 169.493 92.7004 170.788C94.2264 166.51 95.7194 162.239 97.0704 158.025C98.9404 152.22 100.55 146.541 101.81 141.075C101.505 141.164 93.3974 143.726 90.4064 142.809C87.7974 142.034 85.0424 139.865 85.0534 135.886C85.0634 132.201 87.4754 127.606 90.6824 125.754C90.8834 125.638 91.0884 125.532 91.2954 125.439C96.1754 123.236 100.426 129.718 101.333 134.132C101.399 134.482 101.851 139.824 101.876 140.837C101.951 140.505 102.049 140.173 102.124 139.842C103.416 134.02 104.11 128.506 104.564 123.418C104.828 120.458 104.94 117.699 105.009 115.039C103.462 115.707 96.4134 118.698 93.4894 118.356C90.6854 118.02 87.5834 116.439 87.2124 112.68C86.8534 109.015 89.2384 103.94 92.7664 101.891C97.6664 99.0492 102.754 104.459 104.117 108.472C104.194 108.691 104.692 111.148 105.024 112.962C105.042 111.761 105.072 110.516 105.068 109.389C105.045 105.128 104.805 101.356 104.556 98.0412C104.409 96.1712 104.241 94.4882 104.062 92.9372C102.643 92.6282 96.9574 91.3122 95.2054 89.0272C93.4864 86.7982 92.0904 82.9672 93.3434 78.5462C94.2634 75.3242 96.4744 72.2502 98.8354 70.8872Z" fill="#2C314B"/>
<path d="M506.827 359.634L388.488 291.314L388.188 251.664L506.658 319.874L506.827 359.634Z" fill="#2C314B" stroke="#2C314B" stroke-miterlimit="10" stroke-linecap="round" stroke-linejoin="round"/>
<path d="M350.094 159.851L468.557 228.069L468.999 328.909L350.867 260.942L350.094 159.851Z" fill="white" stroke="#2C314B" stroke-miterlimit="10" stroke-linecap="round" stroke-linejoin="round"/>
<path d="M350.312 158.928V180.33L468.776 248.488V227.145L350.312 158.928Z" fill="#FFB700" stroke="#1A004F" stroke-miterlimit="10"/>
<path d="M382.758 251.153L421.962 273.729L422.108 289.891L383.014 267.398L382.758 251.153Z" fill="#FFB700" stroke="#1A004F" stroke-miterlimit="10"/>
<path d="M373.016 220.923L439.057 258.942" stroke="#2C314B" stroke-miterlimit="10" stroke-linecap="round" stroke-linejoin="round"/>
<path d="M376.945 233.605L435.133 267.102" stroke="#2C314B" stroke-miterlimit="10" stroke-linecap="round" stroke-linejoin="round"/>
<path d="M447.638 220.051C445.313 218.709 443.422 219.787 443.414 222.461C443.406 225.132 445.286 228.387 447.61 229.729C449.937 231.073 451.828 229.995 451.836 227.323C451.845 224.649 449.965 221.394 447.638 220.051Z" fill="white" stroke="#2C314B" stroke-miterlimit="10" stroke-linecap="round" stroke-linejoin="round"/>
<path d="M436.958 214.634C434.633 213.292 432.742 214.37 432.734 217.044C432.726 219.715 434.606 222.97 436.931 224.312C439.258 225.656 441.149 224.578 441.157 221.906C441.164 219.232 439.285 215.977 436.958 214.634Z" fill="white" stroke="#2C314B" stroke-miterlimit="10" stroke-linecap="round" stroke-linejoin="round"/>
<path d="M458.654 226.779C456.329 225.437 454.438 226.515 454.43 229.189C454.422 231.86 456.302 235.115 458.626 236.457C460.953 237.801 462.845 236.723 462.852 234.051C462.86 231.377 460.981 228.122 458.654 226.779Z" fill="white" stroke="#2C314B" stroke-miterlimit="10" stroke-linecap="round" stroke-linejoin="round"/>
<path d="M211.66 213.76L213.232 213.693C213.232 213.693 214.556 211.613 215.123 210.857C215.69 210.101 217.297 210.384 218.337 209.061C219.377 207.737 220.322 207.359 219.944 208.966C219.566 210.573 218.809 211.329 218.337 211.613C217.864 211.897 217.675 212.464 217.675 212.464L220.133 213.504L217.291 221.215C217.291 221.215 215.501 221.634 213.516 221.729C211.531 221.823 210.491 221.445 210.207 221.351C209.923 221.256 209.143 216.38 211.66 213.76Z" fill="white" stroke="#314E52" stroke-miterlimit="10" stroke-linecap="round" stroke-linejoin="round"/>
<path d="M188.43 179.632C188.43 179.632 189.885 182.582 190.875 186.046C191.865 189.51 195.457 209.784 195.457 209.784L211.661 213.76C211.661 213.76 210.176 216.399 210.176 218.544C210.176 220.689 210.011 222.833 210.011 222.833C210.011 222.833 201.433 222.338 196.649 221.183C191.865 220.028 186.77 219.855 185.853 218.127C184.936 216.399 184.276 200.068 184.771 190.83C185.266 181.592 188.43 179.632 188.43 179.632Z" fill="#596BFB" stroke="#1A004F" stroke-miterlimit="10"/>
<path d="M174.764 158.224C174.764 158.224 177.306 158.055 179.678 154.157C182.05 150.259 177.814 143.65 171.713 139.583C165.612 135.516 156.631 135.007 153.242 138.736C149.853 142.464 142.566 149.921 142.735 153.649C142.904 157.377 143.413 158.563 143.074 159.411C142.735 160.258 134.601 162.461 134.431 167.715C134.262 172.968 138.329 174.155 137.142 176.019C135.956 177.883 128.16 179.917 130.702 184.831C133.244 189.745 137.989 192.287 148.326 194.829C158.663 197.371 171.63 189.168 178.28 185.898C184.93 182.628 184.422 175.172 181.88 173.308C179.338 171.444 182.219 172.8 181.033 167.885C179.848 162.969 174.764 158.224 174.764 158.224Z" fill="#2C314B"/>
<path d="M144.742 323.966L148.064 343.001C148.064 343.001 147.297 351.816 148.319 355.138C149.341 358.46 152.407 361.781 153.557 360.504C154.707 359.227 157.517 357.694 156.112 351.434C154.707 345.174 153.301 340.703 153.429 340.319C153.557 339.936 156.367 322.561 156.367 322.561C156.367 322.561 148.192 325.754 144.742 323.966Z" fill="white" stroke="#314E52" stroke-miterlimit="10" stroke-linecap="round" stroke-linejoin="round"/>
<path d="M155.218 347.656V352.838C155.218 352.838 153.685 352.583 152.28 352.71C150.875 352.838 149.342 353.86 149.342 353.86L147.937 347.217C147.937 347.217 147.89 347.311 147.82 347.454C147.741 350.152 147.785 353.398 148.321 355.138C149.343 358.46 152.409 361.781 153.559 360.504C154.709 359.227 157.519 357.693 156.114 351.434C155.809 350.08 155.506 348.818 155.218 347.656Z" fill="#596BFB" stroke="#1A004F" stroke-miterlimit="10"/>
<path d="M173.227 319.111C173.227 319.111 173.994 326.265 174.121 328.054C174.249 329.843 172.588 334.825 173.738 336.103C174.888 337.38 179.231 337.38 179.742 337.764C180.253 338.147 183.447 341.086 186.13 341.341C188.813 341.596 189.963 341.852 189.579 339.68C189.196 337.508 184.469 333.292 182.808 331.632C181.147 329.972 179.742 328.183 179.742 328.183C179.742 328.183 182.936 315.919 183.063 315.535C183.192 315.151 177.954 319.878 173.227 319.111Z" fill="white" stroke="#314E52" stroke-miterlimit="10" stroke-linecap="round" stroke-linejoin="round"/>
<path d="M179.748 337.763C180.259 338.146 183.453 341.085 186.136 341.34C188.819 341.595 189.969 341.851 189.585 339.679C189.363 338.42 187.682 336.477 185.985 334.741L183.325 336.869C183.325 336.869 181.025 336.869 178.215 334.314C176.754 332.986 175.124 331.454 173.892 330.285C173.52 332.453 172.932 335.2 173.744 336.102C174.893 337.38 179.237 337.38 179.748 337.763Z" fill="#596BFB" stroke="#1A004F" stroke-miterlimit="10"/>
<path d="M145.321 227.406C145.321 227.406 140.112 239.289 139.949 252.799C139.786 266.309 145.646 298.092 145.646 298.092C145.646 298.092 143.367 309.812 143.204 315.021C143.041 320.23 144.018 326.904 144.018 326.904C144.018 326.904 146.785 329.02 150.203 329.02C153.621 329.02 158.342 325.927 158.342 325.927C158.342 325.927 158.505 315.184 160.132 307.533C161.76 299.882 164.039 278.355 165.504 271.518C166.969 264.681 167.62 259.147 167.62 259.147C167.62 259.147 169.899 294.999 169.899 295.813C169.899 296.627 169.085 303.626 169.248 309.323C169.411 315.02 169.574 318.764 169.574 318.764C169.574 318.764 174.295 321.531 177.875 320.88C181.456 320.229 185.688 315.508 185.688 315.508C185.688 315.508 185.2 292.231 185.362 290.115C185.525 287.999 189.757 258.821 189.757 244.659C189.757 230.498 185.85 218.127 185.85 218.127C185.85 218.127 183.246 206.733 182.595 201.687C181.944 196.641 181.618 182.154 181.618 182.154C181.618 182.154 169.573 178.736 163.55 180.363C157.527 181.991 147.11 188.502 147.11 188.502C147.11 188.502 149.226 205.919 147.924 213.895C146.622 221.871 145.321 227.406 145.321 227.406Z" fill="#2C314B" stroke="#2C314B" stroke-miterlimit="10" stroke-linecap="round" stroke-linejoin="round"/>
<path d="M185.849 218.128C185.849 218.128 183.245 206.734 182.594 201.688C181.943 196.642 181.617 182.155 181.617 182.155C181.617 182.155 169.572 178.737 163.549 180.364C157.526 181.992 147.109 188.503 147.109 188.503C147.109 188.503 149.225 205.92 147.923 213.896C146.621 221.872 145.319 227.406 145.319 227.406C145.319 227.406 142.928 232.865 141.336 240.586C147.147 244.783 162.032 253.932 175.921 249.218C182.664 246.929 186.957 244.147 189.695 241.577C189.201 228.751 185.849 218.128 185.849 218.128Z" fill="#FFB700" stroke="#1A004F" stroke-miterlimit="10"/>
<path d="M158.18 188.34C158.18 188.34 160.296 192.247 165.017 193.549C169.737 194.851 171.917 187.849 172.667 186.387C173.417 184.925 171.797 175.745 171.797 175.745C171.797 175.745 169.411 177.109 166.318 176.783C163.225 176.457 158.576 173.397 158.576 173.397C158.576 173.397 157.366 182.48 158.18 188.34Z" fill="white" stroke="#314E52" stroke-miterlimit="10" stroke-linecap="round" stroke-linejoin="round"/>
<path d="M158.579 173.397C158.579 173.397 157.127 183.269 159.45 189.946C161.773 196.624 162.353 212.447 161.192 218.98C160.031 225.513 157.853 234.078 157.853 234.078C157.853 234.078 153.933 233.497 148.127 230.449C142.32 227.4 141.159 225.223 141.159 225.223L137.094 191.253C137.094 191.253 154.369 178.768 155.386 177.607C156.401 176.445 158.579 173.397 158.579 173.397Z" fill="#596BFB" stroke="#1A004F" stroke-miterlimit="10"/>
<path d="M157.999 171.945C157.999 171.945 154.225 174.413 153.499 176.3C152.773 178.187 152.047 187.914 152.047 189.946C152.047 191.978 152.483 193.72 152.483 193.72C152.483 193.72 155.241 191.833 156.257 190.817C157.273 189.801 159.451 189.946 159.451 189.946C159.451 189.946 157.999 183.849 158.29 181.962C158.58 180.075 158.58 173.397 158.58 173.397C158.58 173.397 159.015 170.784 157.999 171.945Z" fill="white" stroke="#314E52" stroke-miterlimit="10" stroke-linecap="round" stroke-linejoin="round"/>
<path d="M170.18 177.904C170.18 177.904 171.692 182.98 172.664 188.488C173.636 193.996 175.796 202.528 177.308 206.956C178.82 211.384 183.14 224.236 183.14 224.236C183.14 224.236 186.272 223.156 188.216 221.428C190.16 219.7 193.076 216.244 193.076 216.244L188.54 201.448C188.54 201.448 187.028 199.612 188.324 195.4C189.62 191.188 188.972 181.036 188.432 179.632C187.892 178.228 184.004 178.228 181.844 178.012C179.684 177.796 172.556 175.96 171.8 175.744C171.044 175.528 170.288 175.96 170.18 177.904Z" fill="#596BFB" stroke="#1A004F" stroke-miterlimit="10"/>
<path d="M172.658 188.488C172.658 188.488 172.658 185.14 173.414 184.924C174.17 184.708 178.274 185.896 178.274 185.896C178.274 185.896 177.302 181.792 175.25 178.12C173.198 174.448 170.93 171.424 169.526 171.424C168.122 171.424 171.578 185.356 172.658 188.488Z" fill="white" stroke="#314E52" stroke-miterlimit="10" stroke-linecap="round" stroke-linejoin="round"/>
<path d="M168.122 148.919C168.122 148.919 164.791 153.836 161.461 156.532C158.13 159.228 153.055 162.559 153.055 162.559C153.055 162.559 150.041 158.277 149.407 163.193C148.773 168.11 151.786 169.062 152.579 169.22C153.372 169.379 154.641 168.903 154.641 168.903C154.641 168.903 157.972 173.344 159.082 174.771C160.192 176.198 166.061 181.274 169.233 179.371C172.405 177.468 174.784 171.441 175.736 167.634C176.688 163.827 176.371 160.655 175.895 158.593C175.419 156.533 168.122 148.919 168.122 148.919Z" fill="white" stroke="#314E52" stroke-miterlimit="10" stroke-linecap="round" stroke-linejoin="round"/>
<path d="M160.32 163.67C160.32 163.67 163.078 161.347 166.562 162.509" stroke="#314E52" stroke-miterlimit="10" stroke-linecap="round" stroke-linejoin="round"/>
<path d="M170.922 161.638C170.922 161.638 172.083 159.315 174.987 159.896" stroke="#314E52" stroke-miterlimit="10" stroke-linecap="round" stroke-linejoin="round"/>
<path d="M164.893 165.848C164.893 166.569 164.536 167.155 164.095 167.155C163.654 167.155 163.297 166.57 163.297 165.848C163.297 165.126 163.654 164.541 164.095 164.541C164.535 164.541 164.893 165.126 164.893 165.848Z" fill="#2C314B"/>
<path d="M173.456 164.541C173.456 165.263 173.098 165.848 172.658 165.848C172.217 165.848 171.859 165.263 171.859 164.541C171.859 163.819 172.216 163.234 172.658 163.234C173.098 163.235 173.456 163.82 173.456 164.541Z" fill="#2C314B"/>
<path d="M170.915 168.751C170.915 168.751 171.496 170.638 171.205 171.219C170.915 171.8 168.882 172.525 167.43 171.654" stroke="#314E52" stroke-miterlimit="10" stroke-linecap="round" stroke-linejoin="round"/>
<path d="M168.887 174.413C168.887 174.413 165.693 176.445 163.516 173.397" stroke="#314E52" stroke-miterlimit="10" stroke-linecap="round" stroke-linejoin="round"/>
<path d="M141.737 188.349C141.737 188.349 134.188 192.123 133.607 193.575C133.026 195.027 127.219 230.739 127.219 233.352C127.219 235.965 148.124 252.66 149.14 253.095C150.156 253.531 150.156 253.531 150.156 253.531C150.156 253.531 150.592 252.224 152.334 250.047C154.076 247.869 156.834 246.272 156.834 246.272C156.834 246.272 145.946 237.707 145.22 236.4C144.494 235.093 139.849 230.303 139.849 230.303L144.204 207.366" fill="#596BFB"/>
<path d="M141.737 188.349C141.737 188.349 134.188 192.123 133.607 193.575C133.026 195.027 127.219 230.739 127.219 233.352C127.219 235.965 148.124 252.66 149.14 253.095C150.156 253.531 150.156 253.531 150.156 253.531C150.156 253.531 150.592 252.224 152.334 250.047C154.076 247.869 156.834 246.272 156.834 246.272C156.834 246.272 145.946 237.707 145.22 236.4C144.494 235.093 139.849 230.303 139.849 230.303L144.204 207.366" stroke="#1A004F" stroke-miterlimit="10"/>
<path d="M150.914 252.245C150.914 252.245 151.313 254.637 151.552 255.195C151.791 255.753 153.705 256.072 154.342 257.427C154.98 258.782 154.262 260.297 154.98 260.536C155.698 260.775 156.654 260.058 156.734 258.862C156.814 257.666 155.698 255.673 155.698 255.673C155.698 255.673 158.09 257.347 158.887 257.028C159.684 256.709 164.309 252.802 164.946 252.005C165.584 251.208 164.547 249.773 163.351 249.135C162.155 248.497 156.831 246.272 156.831 246.272C156.831 246.272 151.87 248.577 150.914 252.245Z" fill="white" stroke="#314E52" stroke-miterlimit="10" stroke-linecap="round" stroke-linejoin="round"/>
<path d="M194.627 256.597L232.966 191.259L159.084 208.004L181.895 221.989L150.391 245.032L156.705 253.665L187.468 231.163L194.627 256.597Z" fill="white" stroke="#2C314B" stroke-miterlimit="10" stroke-linecap="round" stroke-linejoin="round"/>
<path d="M158.175 250.092C158.175 250.092 157.139 255.434 157.298 256.391C157.458 257.348 158.095 256.79 158.893 257.029C159.691 257.268 160.009 256.072 160.009 254.956C160.009 253.84 160.089 251.368 160.089 250.013C160.089 248.658 158.733 248.737 158.175 250.092Z" fill="white" stroke="#314E52" stroke-miterlimit="10" stroke-linecap="round" stroke-linejoin="round"/>
<path d="M165.274 253.919C165.274 253.919 166.948 253.281 166.948 251.846C166.948 250.411 164.425 247.023 164.251 248.438C164.078 249.853 165.274 253.919 165.274 253.919Z" fill="white" stroke="#314E52" stroke-miterlimit="10" stroke-linecap="round" stroke-linejoin="round"/>
<path d="M162.562 248.889C162.562 248.889 162.699 253.848 163.031 254.668C163.363 255.488 163.791 255.265 164.576 254.919C165.27 254.613 165.379 253.846 165.158 252.853C164.936 251.86 164.518 249.645 164.249 248.439C163.981 247.232 162.791 247.572 162.562 248.889Z" fill="white" stroke="#314E52" stroke-miterlimit="10" stroke-linecap="round" stroke-linejoin="round"/>
<path d="M160.188 249.458C160.188 249.458 160.338 254.897 160.702 255.797C161.066 256.696 161.537 256.452 162.398 256.073C163.16 255.737 163.279 254.896 163.036 253.807C162.793 252.718 162.333 250.288 162.038 248.965C161.743 247.641 160.438 248.014 160.188 249.458Z" fill="white" stroke="#314E52" stroke-miterlimit="10" stroke-linecap="round" stroke-linejoin="round"/>
<path d="M215.534 218.309C215.534 218.309 216.848 220.948 217.296 221.216C217.743 221.484 217.932 220.895 218.509 220.513C219.086 220.131 218.845 219.489 218.438 219.066C218.03 218.643 217.176 217.659 216.681 217.145C216.186 216.631 215.382 217.464 215.534 218.309Z" fill="white" stroke="#314E52" stroke-miterlimit="10" stroke-linecap="round" stroke-linejoin="round"/>
<path d="M221.671 214.652C221.671 214.652 222.434 213.031 221.438 211.998C220.442 210.965 216.274 210.277 217.131 211.416C217.988 212.555 221.671 214.652 221.671 214.652Z" fill="white" stroke="#314E52" stroke-miterlimit="10" stroke-linecap="round" stroke-linejoin="round"/>
<path d="M216.229 212.911C216.229 212.911 219.77 216.386 220.577 216.746C221.385 217.106 221.539 216.649 221.864 215.854C222.151 215.152 221.698 214.524 220.849 213.963C220 213.402 218.161 212.098 217.13 211.416C216.1 210.734 215.479 211.805 216.229 212.911Z" fill="white" stroke="#314E52" stroke-miterlimit="10" stroke-linecap="round" stroke-linejoin="round"/>
<path d="M214.918 214.966C214.918 214.966 218.802 218.777 219.688 219.172C220.574 219.567 220.743 219.065 221.1 218.194C221.415 217.424 220.918 216.735 219.987 216.119C219.056 215.503 217.038 214.073 215.908 213.325C214.776 212.578 214.095 213.753 214.918 214.966Z" fill="white" stroke="#314E52" stroke-miterlimit="10" stroke-linecap="round" stroke-linejoin="round"/>
<path d="M338.585 251.254C340.279 250.537 341.468 248.86 341.468 246.905C341.468 244.774 340.056 242.973 338.117 242.387" stroke="#314E52" stroke-miterlimit="10" stroke-linecap="round" stroke-linejoin="round"/>
<path d="M335.526 234.387C335.526 234.387 338.708 241.812 338.355 243.58C338.001 245.348 337.648 246.232 337.825 247.469C338.002 248.706 339.062 250.121 339.062 253.126C339.062 256.131 339.416 261.789 338.001 263.203C336.587 264.617 330.576 265.501 330.576 265.501L329.515 273.456L312.367 268.152L315.019 260.02C315.019 260.02 313.605 256.661 313.251 247.822C312.897 238.983 319.969 233.502 324.389 232.088C328.808 230.674 335.526 234.387 335.526 234.387Z" fill="white" stroke="#314E52" stroke-miterlimit="10" stroke-linecap="round" stroke-linejoin="round"/>
<path d="M324.57 259.491C324.57 259.491 326.366 261.47 327.849 261.2C329.332 260.93 329.332 259.851 329.332 259.851" stroke="#314E52" stroke-miterlimit="10" stroke-linecap="round" stroke-linejoin="round"/>
<path d="M328.555 250.68L341.469 244.072" stroke="#314E52" stroke-miterlimit="10" stroke-linecap="round" stroke-linejoin="round"/>
<path d="M311.102 265.757L308.219 270.262L332.726 279.092L332.005 272.425C332.005 272.425 315.427 265.576 311.102 265.757Z" fill="#596BFB" stroke="#1A004F" stroke-miterlimit="10"/>
<path d="M291.368 337.507C291.368 337.507 292.863 340.747 293.362 341.245C293.86 341.743 294.483 344.734 295.231 345.357C295.979 345.98 299.137 346.024 298.222 347.6C297.306 349.176 296.477 348.597 295.481 348.348C294.484 348.099 295.356 351.962 296.104 353.831C296.852 355.7 294.983 355.077 294.983 355.077C294.983 355.077 295.232 356.946 294.111 357.195C292.99 357.444 292.99 357.444 292.99 357.444C292.99 357.444 291.868 357.818 290.996 357.444C290.124 357.07 289.875 356.198 289.875 356.198C289.875 356.198 288.629 355.077 287.881 353.831C287.133 352.585 285.389 348.473 285.264 346.23C285.139 343.987 285.139 339.75 285.139 339.377C285.139 339.003 284.641 336.885 284.641 336.885L289.874 335.639L291.368 337.507Z" fill="white" stroke="#314E52" stroke-miterlimit="10" stroke-linecap="round" stroke-linejoin="round"/>
<path d="M289.875 356.198C289.875 356.198 291.132 356.197 290.53 354.793C289.928 353.389 290.028 353.89 289.627 352.386C289.226 350.881 289.125 350.079 289.125 350.079" stroke="#314E52" stroke-miterlimit="10" stroke-linecap="round" stroke-linejoin="round"/>
<path d="M292.987 357.444C292.987 357.444 293.236 357.1 292.734 355.996C292.232 354.893 291.631 353.689 291.43 352.586C291.229 351.483 290.828 349.878 290.828 349.878" stroke="#314E52" stroke-miterlimit="10" stroke-linecap="round" stroke-linejoin="round"/>
<path d="M294.982 355.077C294.982 355.077 294.24 354.492 293.638 352.686C293.036 350.881 292.836 349.276 292.836 349.276" stroke="#314E52" stroke-miterlimit="10" stroke-linecap="round" stroke-linejoin="round"/>
<path d="M290.126 343.959C290.126 343.959 290.628 345.664 290.126 346.968C289.625 348.272 289.625 348.272 289.625 348.272" stroke="#314E52" stroke-miterlimit="10" stroke-linecap="round" stroke-linejoin="round"/>
<path d="M295.482 348.348L293.439 347.169C293.439 347.169 292.436 347.47 291.633 346.667" stroke="#314E52" stroke-miterlimit="10" stroke-linecap="round" stroke-linejoin="round"/>
<path d="M288.777 437.087C288.777 437.087 287.112 444.441 287.528 445.968C287.944 447.494 290.72 449.16 292.524 449.021C294.328 448.882 296.548 446.801 297.381 445.968C298.214 445.136 301.683 445.552 302.654 443.47C303.625 441.389 303.903 437.781 302.654 437.087C301.405 436.393 299.462 435.977 297.797 436.255C296.131 436.532 288.777 437.087 288.777 437.087Z" fill="#596BFB" stroke="#1A004F" stroke-miterlimit="10"/>
<path d="M303.485 439.535C303.166 440.853 302.304 443.469 299.255 443.457C295.858 443.444 296.254 445.378 292.652 446.218C290.489 446.723 288.634 445.54 287.494 444.513C287.445 445.152 287.446 445.671 287.527 445.967C287.943 447.493 290.719 449.159 292.523 449.02C294.327 448.881 296.547 446.8 297.38 445.967C298.213 445.135 301.682 445.551 302.653 443.469C303.167 442.366 303.484 440.835 303.485 439.535Z" fill="#2C314B" stroke="#2C314B" stroke-miterlimit="10" stroke-linecap="round" stroke-linejoin="round"/>
<path d="M332.028 450.691C332.028 450.691 333.503 453.393 334.883 454.473C338.074 456.971 347.51 458.22 347.929 461.485C348.14 463.125 347.311 465.09 338.699 466.525C330.086 467.96 325.06 467.516 322.394 467.516C319.728 467.516 318.4 465.381 318.4 463.535C318.4 461.689 318.195 451.231 318.195 451.231C318.195 451.231 323.919 456.302 332.028 450.691Z" fill="#596BFB" stroke="#1A004F" stroke-miterlimit="10"/>
<path d="M347.928 461.485C347.882 461.125 347.721 460.791 347.476 460.475C346.908 461.234 346.131 462.051 345.061 462.804C341.82 465.085 334.016 465.805 326.693 465.205C322.556 464.866 319.915 463.991 318.398 463.293C318.398 463.384 318.399 463.467 318.399 463.536C318.399 465.382 319.727 467.517 322.393 467.517C325.059 467.517 330.085 467.961 338.698 466.526C347.311 465.09 348.139 463.125 347.928 461.485Z" fill="#2C314B" stroke="#2C314B" stroke-miterlimit="10" stroke-linecap="round" stroke-linejoin="round"/>
<path d="M297.915 335.696C297.915 335.696 296.894 343.049 297.302 349.177C297.71 355.305 297.711 359.185 297.711 359.185C297.711 359.185 297.302 376.955 296.485 383.287C295.668 389.619 292.4 402.487 291.379 410.453C290.358 418.419 288.398 438.358 288.398 438.358C288.398 438.358 290.236 440.605 293.3 440.605C296.364 440.605 298.815 438.563 298.815 438.563C298.815 438.563 305.677 405.347 306.902 401.875C308.127 398.403 311.191 389.211 311.6 385.739C312.009 382.267 314.868 370.011 314.868 370.011C314.868 370.011 317.319 396.156 317.319 398.402C317.319 400.648 314.459 418.827 315.276 424.547C316.093 430.266 318.135 452.734 318.135 452.734C318.135 452.734 319.973 454.368 322.22 454.981C324.467 455.594 327.122 455.39 328.756 454.164C330.39 452.939 332.024 450.692 332.024 450.692C332.024 450.692 331.207 422.301 331.82 419.033C332.433 415.765 335.905 401.876 337.539 390.029C339.173 378.182 337.13 343.868 337.13 343.868C337.13 343.868 319.566 354.487 297.915 335.696Z" fill="#2C314B" stroke="#2C314B" stroke-miterlimit="10" stroke-linecap="round" stroke-linejoin="round"/>
<path d="M337.134 343.866C337.134 343.866 319.568 354.487 297.917 335.696C297.917 335.696 296.968 342.555 297.271 348.546C300.587 352.639 307.113 358.523 318.342 360.82C327.07 362.605 333.527 361.548 337.869 359.989C337.562 351.055 337.134 343.866 337.134 343.866Z" fill="#FFB700" stroke="#1A004F" stroke-miterlimit="10"/>
<path d="M379.821 281.977C379.821 281.977 380.707 277.786 380.994 276.347C381.282 274.909 382.001 273.614 381.569 271.313C381.137 269.012 379.699 266.566 380.994 266.279C382.288 265.991 383.152 267.142 383.583 268.149C384.014 269.156 384.59 271.457 384.59 271.457L387.323 267.286L391.782 261.964C391.782 261.964 393.22 261.676 393.364 262.539C393.508 263.402 391.063 268.005 391.063 268.005L389.768 271.026C389.768 271.026 393.796 266.135 394.227 265.848C394.658 265.56 396.672 263.546 397.535 263.69C398.398 263.834 398.973 264.121 398.542 264.984C398.111 265.847 395.521 269.299 395.521 269.299L392.644 273.183C392.644 273.183 395.521 272.32 396.528 271.889C397.535 271.457 400.124 270.738 400.699 271.026C401.274 271.314 401.13 272.177 400.555 272.608C399.98 273.039 397.966 274.19 397.534 274.334C397.103 274.478 393.938 275.916 393.938 275.916C393.938 275.916 396.959 276.204 397.965 276.348C398.971 276.492 400.698 276.204 400.554 277.067C400.41 277.93 398.972 278.218 398.54 278.218C398.109 278.218 396.67 278.218 395.951 278.362C395.232 278.506 393.218 278.937 393.218 278.937C393.218 278.937 392.786 281.095 390.054 283.108C387.321 285.122 383.869 286.992 383.869 286.992L378.547 283.827L379.821 281.977Z" fill="white" stroke="#314E52" stroke-miterlimit="10" stroke-linecap="round" stroke-linejoin="round"/>
<path d="M308.221 270.261C308.221 270.261 297.712 271.56 297.304 272.99C296.896 274.42 282.802 310.369 282.802 312.207C282.802 314.045 281.781 337.739 282.598 338.352C283.415 338.965 286.07 340.19 287.704 340.19C289.338 340.19 291.585 338.556 291.585 338.556L295.874 311.186L299.755 305.263L300.572 322.42L296.283 336.513C296.283 336.513 303.636 348.564 319.159 350.198C334.682 351.832 340.606 348.768 340.606 348.768C340.606 348.768 341.015 318.743 341.423 316.7C341.832 314.657 342.444 310.981 342.444 310.981C342.444 310.981 350.614 315.883 353.678 315.883C356.742 315.883 385.133 289.33 385.133 289.33C385.133 289.33 385.542 286.471 383.703 284.632C381.865 282.794 379.822 281.977 379.822 281.977L354.29 296.479C354.29 296.479 339.992 281.16 337.541 280.343C335.09 279.526 332.727 279.091 332.727 279.091C332.727 279.091 312.807 270.597 308.221 270.261Z" fill="#596BFB" stroke="#1A004F" stroke-miterlimit="10"/>
<path d="M342.443 310.981L328.758 304.649" stroke="#314E52" stroke-miterlimit="10" stroke-linecap="round" stroke-linejoin="round"/>
<path d="M339.173 310.369C339.173 310.369 329.982 312.003 326.305 311.186" stroke="#314E52" stroke-miterlimit="10" stroke-linecap="round" stroke-linejoin="round"/>
<path d="M299.144 301.994C299.144 301.994 297.51 293.824 297.102 286.266" stroke="#314E52" stroke-miterlimit="10" stroke-linecap="round" stroke-linejoin="round"/>
<path d="M334.471 236.155C334.471 236.155 332.35 237.569 333.587 239.691C334.824 241.812 335.178 242.166 334.294 244.111C333.41 246.056 330.935 247.293 330.935 247.293C330.935 247.293 331.465 251.182 330.405 251.889C329.344 252.596 328.107 250.828 326.869 249.944C325.631 249.06 322.449 251.712 322.626 254.364C322.803 257.016 324.571 259.491 324.571 259.491C324.571 259.491 324.394 263.204 320.859 264.441C317.323 265.678 314.318 265.148 310.605 259.137C306.893 253.126 301.766 244.994 304.064 240.928C306.362 236.862 315.909 230.498 315.909 230.498C315.909 230.498 316.97 225.725 320.682 224.134C324.394 222.543 327.93 226.786 330.052 226.962C332.173 227.139 333.941 224.134 336.063 225.194C338.184 226.255 340.306 228.199 339.245 232.089C338.184 235.979 334.471 236.155 334.471 236.155Z" fill="#2C314B"/>
</svg>
