<svg width="702" height="702" viewBox="0 0 702 702" fill="none" xmlns="http://www.w3.org/2000/svg">
<path d="M465.033 563.296H452.828V563.647H465.033V563.296Z" fill="#EBEBEB"/>
<path d="M581.042 347.627C596.013 344.092 605.284 329.089 601.749 314.118C598.213 299.147 583.211 289.877 568.24 293.412C553.269 296.947 543.999 311.949 547.534 326.92C551.069 341.891 566.071 351.162 581.042 347.627Z" fill="#E0E0E0"/>
<path d="M585.378 347.627C600.349 344.092 609.62 329.089 606.085 314.118C602.549 299.147 587.547 289.877 572.576 293.412C557.605 296.947 548.335 311.949 551.87 326.92C555.405 341.891 570.407 351.162 585.378 347.627Z" fill="#F0F0F0"/>
<path d="M587.203 340.347C598.13 335.82 603.32 323.292 598.793 312.364C594.267 301.436 581.738 296.246 570.81 300.773C559.882 305.3 554.693 317.828 559.22 328.756C563.746 339.684 576.275 344.873 587.203 340.347Z" fill="#F5F5F5"/>
<path d="M597.158 320.563C597.158 309.283 588.434 300.061 577.367 299.229C577.906 299.188 578.444 299.146 578.993 299.146C590.82 299.146 600.41 308.734 600.41 320.563C600.41 332.391 590.822 341.979 578.993 341.979C578.444 341.979 577.906 341.937 577.367 341.896C588.432 341.062 597.158 331.841 597.158 320.563Z" fill="#E0E0E0"/>
<path d="M578.989 306.938L575.929 316.352H566.031L574.04 322.17L570.98 331.584L578.989 325.766L586.996 331.584L583.938 322.17L591.945 316.352H582.047L578.989 306.938Z" fill="#E6E6E6"/>
<path d="M590.563 474.434L508.396 491.898C503.193 493.005 498.08 489.683 496.973 484.48L493.9 470.018C492.794 464.815 496.116 459.702 501.317 458.595L583.484 441.131C588.687 440.025 593.8 443.347 594.907 448.55L597.98 463.011C599.086 468.214 595.766 473.328 590.563 474.434Z" fill="#EBEBEB"/>
<path d="M547.039 456.642C542.926 453.971 537.425 455.14 534.754 459.254C532.083 463.368 533.252 468.869 537.366 471.539C541.005 473.902 545.727 473.255 548.617 470.226C548.768 470.652 549.02 471.045 549.428 471.309L556.537 475.926C557.519 476.564 558.832 476.284 559.469 475.303C560.106 474.322 559.827 473.009 558.846 472.372L551.736 467.754C551.329 467.49 550.867 467.417 550.417 467.453C552.008 463.581 550.678 459.005 547.039 456.642ZM547.497 467.529C545.597 470.454 541.687 471.285 538.763 469.385C535.838 467.486 535.007 463.575 536.907 460.652C538.806 457.728 542.716 456.897 545.641 458.796C548.565 460.694 549.397 464.605 547.497 467.529Z" fill="#FAFAFA"/>
<path d="M173.849 452.68C161.303 456.982 154.62 470.642 158.922 483.188C162.259 492.92 182.053 506.094 190.765 511.515C192.902 512.845 195.727 511.876 196.597 509.516C200.149 499.89 207.694 477.342 204.357 467.609C200.054 455.062 186.396 448.378 173.849 452.68ZM185.348 486.213C179.374 488.262 172.871 485.08 170.824 479.106C168.775 473.132 171.958 466.63 177.931 464.582C183.905 462.534 190.407 465.715 192.455 471.689C194.504 477.662 191.321 484.165 185.348 486.213Z" fill="#EBEBEB"/>
<path d="M169.652 192.991H158.215C155.524 192.991 153.012 194.34 151.526 196.584L149.853 199.113C148.49 201.171 146.186 202.409 143.716 202.409H114.214C111.567 202.409 109.422 204.555 109.422 207.201V253.269H175.938V202.411L175.352 197.988C174.973 195.127 172.536 192.991 169.652 192.991Z" fill="#E0E0E0"/>
<path d="M170.952 208.229H114.414V246.891H170.952V208.229Z" fill="#FAFAFA"/>
<path d="M175.941 253.268H109.425L99.6688 217.734C98.9303 215.043 100.955 212.386 103.746 212.386H158.255C162.071 212.386 165.415 214.936 166.426 218.616L175.941 253.268Z" fill="#F0F0F0"/>
<path d="M275.15 148.038H322.465C325.011 148.038 327.075 145.881 327.075 143.221H270.539C270.539 145.881 272.603 148.038 275.15 148.038Z" fill="#E0E0E0"/>
<path d="M308.204 148.038H355.519C358.066 148.038 360.13 145.881 360.13 143.221H303.594C303.595 145.881 305.659 148.038 308.204 148.038Z" fill="#F0F0F0"/>
<path d="M274.764 146.565H303.611C304.364 146.565 304.89 145.79 304.642 145.047L288.823 97.8307C288.387 96.5306 287.212 95.6587 285.892 95.6587H257.046C256.293 95.6587 255.767 96.4337 256.015 97.1764L271.834 144.393C272.269 145.694 273.445 146.565 274.764 146.565Z" fill="#E0E0E0"/>
<path d="M273.374 146.565H302.22C302.973 146.565 303.499 145.79 303.251 145.047L287.432 97.8307C286.997 96.5306 285.822 95.6587 284.502 95.6587H255.655C254.903 95.6587 254.376 96.4337 254.625 97.1764L270.444 144.393C270.88 145.694 272.055 146.565 273.374 146.565Z" fill="#F0F0F0"/>
<path d="M276.6 121.113C276.968 122.923 278.166 124.389 279.275 124.389C280.384 124.389 280.985 122.922 280.617 121.113C280.249 119.304 279.052 117.838 277.943 117.838C276.833 117.838 276.232 119.304 276.6 121.113Z" fill="white"/>
<path d="M339.282 120.427C342.866 113.686 340.307 105.316 333.566 101.731C326.825 98.1468 318.455 100.706 314.87 107.447C311.741 113.332 313.296 120.459 318.227 124.559L317.597 131.764L323.219 127.212C329.375 129.008 336.152 126.312 339.282 120.427Z" fill="#E0E0E0"/>
<path d="M335.202 108.348H319.696C319.394 108.348 319.148 108.594 319.148 108.896V119.881C319.148 120.182 319.393 120.428 319.696 120.428H335.202C335.504 120.428 335.749 120.182 335.749 119.881V108.896C335.749 108.592 335.505 108.348 335.202 108.348ZM334.941 119.045L330.282 114.387L334.941 109.728V119.045ZM334.368 109.157L329.709 113.815L327.447 116.076L320.529 109.155L334.368 109.157ZM319.957 109.728L324.616 114.387L319.957 119.045V109.728ZM320.529 119.618L325.187 114.96L327.447 117.22L329.709 114.96L334.368 119.618H320.529Z" fill="#FAFAFA"/>
<path d="M565.93 248.302L543.984 231.817L565.93 215.334L567.754 217.762L549.039 231.817L567.754 245.874L565.93 248.302Z" fill="#E0E0E0"/>
<path d="M546.511 236.109C548.881 236.109 550.803 234.188 550.803 231.817C550.803 229.447 548.881 227.525 546.511 227.525C544.14 227.525 542.219 229.447 542.219 231.817C542.219 234.188 544.14 236.109 546.511 236.109Z" fill="#EBEBEB"/>
<path d="M571.404 216.547C571.404 218.917 569.484 220.839 567.112 220.839C564.741 220.839 562.82 218.917 562.82 216.547C562.82 214.177 564.741 212.255 567.112 212.255C569.484 212.255 571.404 214.177 571.404 216.547Z" fill="#EBEBEB"/>
<path d="M567.112 251.695C569.483 251.695 571.404 249.774 571.404 247.403C571.404 245.033 569.483 243.111 567.112 243.111C564.742 243.111 562.82 245.033 562.82 247.403C562.82 249.774 564.742 251.695 567.112 251.695Z" fill="#EBEBEB"/>
<path d="M344.228 594.895C494.571 594.895 616.448 587.777 616.448 578.997C616.448 570.217 494.571 563.1 344.228 563.1C193.885 563.1 72.0078 570.217 72.0078 578.997C72.0078 587.777 193.885 594.895 344.228 594.895Z" fill="#F5F5F5"/>
<path d="M252.575 187.021H285.828L319.361 570.314H286.108C270.695 570.314 257.107 557.819 255.758 542.406L227.108 214.93C225.76 199.515 237.162 187.021 252.575 187.021Z" fill="#263238"/>
<path d="M231.978 225.464C231.849 223.987 230.546 222.79 229.069 222.79C227.592 222.79 226.5 223.987 226.627 225.464L228.874 251.143C229.003 252.62 230.306 253.818 231.783 253.818C233.26 253.818 234.354 252.62 234.223 251.143L231.978 225.464Z" fill="#FFB700"/>
<path opacity="0.3" d="M231.978 225.464C231.849 223.987 230.546 222.79 229.069 222.79C227.592 222.79 226.5 223.987 226.627 225.464L228.874 251.143C229.003 252.62 230.306 253.818 231.783 253.818C233.26 253.818 234.354 252.62 234.223 251.143L231.978 225.464Z" fill="white"/>
<path d="M292.913 570.314H429.925C445.338 570.314 456.74 557.819 455.392 542.406L426.742 214.93C425.395 199.517 411.805 187.021 396.392 187.021H259.38C243.967 187.021 232.565 199.517 233.913 214.93L262.563 542.406C263.911 557.819 277.5 570.314 292.913 570.314Z" fill="#FFB700"/>
<path d="M259.943 193.423H295.555C297.887 193.423 300.009 195.157 300.506 197.471L300.746 198.586C301.962 204.236 307.141 208.47 312.837 208.47H346.693C352.389 208.47 356.827 204.236 357.055 198.586L357.1 197.471C357.192 195.157 359.011 193.423 361.343 193.423H396.955C408.833 193.423 419.303 203.052 420.341 214.928L448.992 542.404C450.03 554.282 441.246 563.909 429.368 563.909H292.356C280.478 563.909 270.008 554.281 268.968 542.404L240.318 214.928C239.279 203.052 248.065 193.423 259.943 193.423Z" fill="#FFB700"/>
<path opacity="0.9" d="M259.943 193.423H295.555C297.887 193.423 300.009 195.157 300.506 197.471L300.746 198.586C301.962 204.236 307.141 208.47 312.837 208.47H346.693C352.389 208.47 356.827 204.236 357.055 198.586L357.1 197.471C357.192 195.157 359.011 193.423 361.343 193.423H396.955C408.833 193.423 419.303 203.052 420.341 214.928L448.992 542.404C450.03 554.282 441.246 563.909 429.368 563.909H292.356C280.478 563.909 270.008 554.281 268.968 542.404L240.318 214.928C239.279 203.052 248.065 193.423 259.943 193.423Z" fill="white"/>
<g opacity="0.2">
<path d="M337.049 197.053C337.181 198.555 338.505 199.773 340.009 199.773C341.513 199.773 342.623 198.555 342.493 197.053C342.361 195.55 341.037 194.332 339.533 194.332C338.03 194.332 336.919 195.549 337.049 197.053Z" fill="black"/>
<path d="M317.518 194.332C318.593 194.332 325.773 194.332 326.849 194.332C328.351 194.332 329.676 195.55 329.808 197.053C329.94 198.555 328.828 199.773 327.324 199.773C326.391 199.773 318.927 199.773 317.993 199.773C316.49 199.773 315.166 198.555 315.034 197.053C314.903 195.549 316.015 194.332 317.518 194.332Z" fill="black"/>
</g>
<g opacity="0.2">
<path d="M404.86 208.418H401.979L401.727 205.536H404.609L404.86 208.418Z" fill="black"/>
<path d="M398.845 205.535L399.097 208.418H396.215L395.964 205.535L395.711 202.654H398.593L398.845 205.535Z" fill="black"/>
<path d="M392.576 199.773L392.828 202.654L393.08 205.535L393.332 208.418H390.451L390.199 205.535L389.947 202.654L389.695 199.773H392.576Z" fill="black"/>
</g>
<path opacity="0.2" d="M256.008 199.966L256.748 208.418H269.426L269.241 206.305H270.649L270.279 202.079H268.871L268.686 199.966H256.008ZM263.236 202.079H267.462L267.831 206.305H263.605L263.236 202.079Z" fill="black"/>
<g opacity="0.2">
<path d="M318.607 554.459C346.062 554.459 373.517 554.459 400.973 554.459C403.47 554.459 403.135 550.578 400.633 550.578C373.178 550.578 345.722 550.578 318.267 550.578C315.771 550.578 316.106 554.459 318.607 554.459Z" fill="black"/>
</g>
<path d="M499.091 333.241H411.108C405.558 333.241 401.452 328.741 401.937 323.191L406.68 268.984C407.166 263.434 412.059 258.934 417.61 258.934H505.593C511.143 258.934 515.25 263.434 514.764 268.984L510.022 323.191C509.536 328.742 504.641 333.241 499.091 333.241Z" fill="#FFB700"/>
<path opacity="0.4" d="M499.091 333.241H411.108C405.558 333.241 401.452 328.741 401.937 323.191L406.68 268.984C407.166 263.434 412.059 258.934 417.61 258.934H505.593C511.143 258.934 515.25 263.434 514.764 268.984L510.022 323.191C509.536 328.742 504.641 333.241 499.091 333.241Z" fill="white"/>
<path opacity="0.8" d="M498.746 329.239H412.156C408.53 329.239 405.849 326.301 406.166 322.676L410.326 275.128C410.643 271.503 413.839 268.564 417.464 268.564H504.054C507.68 268.564 510.36 271.503 510.044 275.128L505.884 322.676C505.567 326.301 502.371 329.239 498.746 329.239Z" fill="white"/>
<path opacity="0.8" d="M416.16 263.813C416.07 264.839 415.166 265.671 414.139 265.671C413.113 265.671 412.355 264.839 412.445 263.813C412.535 262.787 413.439 261.956 414.465 261.956C415.49 261.956 416.25 262.787 416.16 263.813Z" fill="white"/>
<path opacity="0.8" d="M421.941 263.813C421.851 264.839 420.947 265.671 419.921 265.671C418.894 265.671 418.136 264.839 418.226 263.813C418.316 262.787 419.22 261.956 420.246 261.956C421.273 261.956 422.031 262.787 421.941 263.813Z" fill="white"/>
<path opacity="0.8" d="M427.722 263.813C427.632 264.839 426.728 265.671 425.702 265.671C424.676 265.671 423.917 264.839 424.007 263.813C424.097 262.787 425.001 261.956 426.028 261.956C427.052 261.956 427.811 262.787 427.722 263.813Z" fill="white"/>
<path opacity="0.1" d="M451.337 315.791H420.188L423.142 282.015H454.291L451.337 315.791Z" fill="black"/>
<path d="M495.823 285.768H462.798C461.762 285.768 460.995 284.928 461.085 283.892C461.177 282.856 462.089 282.015 463.125 282.015H496.15C497.186 282.015 497.953 282.854 497.863 283.892C497.773 284.928 496.859 285.768 495.823 285.768Z" fill="#FFB700"/>
<path d="M489.538 293.273H462.142C461.106 293.273 460.339 292.434 460.429 291.396C460.52 290.36 461.433 289.519 462.469 289.519H489.865C490.901 289.519 491.668 290.359 491.578 291.396C491.487 292.434 490.574 293.273 489.538 293.273Z" fill="#FFB700"/>
<path d="M491.133 300.779H461.485C460.448 300.779 459.682 299.94 459.773 298.902C459.864 297.866 460.777 297.026 461.813 297.026H491.461C492.497 297.026 493.264 297.866 493.174 298.902C493.083 299.94 492.169 300.779 491.133 300.779Z" fill="#FFB700"/>
<path d="M487.1 308.285H460.829C459.793 308.285 459.027 307.446 459.117 306.408C459.208 305.372 460.12 304.532 461.157 304.532H487.427C488.463 304.532 489.23 305.372 489.14 306.408C489.05 307.446 488.136 308.285 487.1 308.285Z" fill="#FFB700"/>
<path d="M490.946 315.79H460.172C459.136 315.79 458.369 314.951 458.46 313.913C458.552 312.877 459.464 312.038 460.5 312.038H491.273C492.309 312.038 493.076 312.877 492.986 313.913C492.896 314.951 491.982 315.79 490.946 315.79Z" fill="#FFB700"/>
<g opacity="0.5">
<path d="M495.823 285.768H462.798C461.762 285.768 460.995 284.928 461.085 283.892C461.177 282.856 462.089 282.015 463.125 282.015H496.15C497.186 282.015 497.953 282.854 497.863 283.892C497.773 284.928 496.859 285.768 495.823 285.768Z" fill="white"/>
<path d="M489.538 293.273H462.142C461.106 293.273 460.339 292.434 460.429 291.396C460.52 290.36 461.433 289.519 462.469 289.519H489.865C490.901 289.519 491.668 290.359 491.578 291.396C491.487 292.434 490.574 293.273 489.538 293.273Z" fill="white"/>
<path d="M491.133 300.779H461.485C460.448 300.779 459.682 299.94 459.773 298.902C459.864 297.866 460.777 297.026 461.813 297.026H491.461C492.497 297.026 493.264 297.866 493.174 298.902C493.083 299.94 492.169 300.779 491.133 300.779Z" fill="white"/>
<path d="M487.1 308.285H460.829C459.793 308.285 459.027 307.446 459.117 306.408C459.208 305.372 460.12 304.532 461.157 304.532H487.427C488.463 304.532 489.23 305.372 489.14 306.408C489.05 307.446 488.136 308.285 487.1 308.285Z" fill="white"/>
<path d="M490.946 315.79H460.172C459.136 315.79 458.369 314.951 458.46 313.913C458.552 312.877 459.464 312.038 460.5 312.038H491.273C492.309 312.038 493.076 312.877 492.986 313.913C492.896 314.951 491.982 315.79 490.946 315.79Z" fill="white"/>
</g>
<path d="M444.009 290.631C441.761 288.383 438.118 288.383 435.87 290.631L432.941 293.559L430.012 290.631C427.765 288.383 424.12 288.383 421.873 290.631C419.626 292.878 419.626 296.522 421.873 298.77L432.942 309.839L444.012 298.77C446.257 296.522 446.257 292.878 444.009 290.631Z" fill="#FFB700"/>
<path d="M430.599 254.33H384.93C382.049 254.33 379.917 251.994 380.169 249.113L382.63 220.977C382.882 218.096 385.422 215.76 388.303 215.76H433.973C436.854 215.76 438.985 218.095 438.734 220.977L436.272 249.113C436.02 251.996 433.48 254.33 430.599 254.33Z" fill="#FFB700"/>
<path opacity="0.4" d="M430.599 254.33H384.93C382.049 254.33 379.917 251.994 380.169 249.113L382.63 220.977C382.882 218.096 385.422 215.76 388.303 215.76H433.973C436.854 215.76 438.985 218.095 438.734 220.977L436.272 249.113C436.02 251.996 433.48 254.33 430.599 254.33Z" fill="white"/>
<path opacity="0.8" d="M430.419 252.254H385.473C383.592 252.254 382.2 250.729 382.365 248.848L384.524 224.167C384.688 222.285 386.348 220.761 388.229 220.761H433.175C435.057 220.761 436.448 222.285 436.284 224.167L434.125 248.848C433.96 250.728 432.301 252.254 430.419 252.254Z" fill="white"/>
<path opacity="0.8" d="M387.55 218.293C387.504 218.825 387.035 219.257 386.501 219.257C385.968 219.257 385.575 218.825 385.621 218.293C385.667 217.761 386.136 217.328 386.67 217.328C387.203 217.328 387.596 217.761 387.55 218.293Z" fill="white"/>
<path opacity="0.8" d="M390.55 218.293C390.504 218.825 390.033 219.257 389.501 219.257C388.969 219.257 388.575 218.825 388.621 218.293C388.667 217.761 389.138 217.328 389.67 217.328C390.203 217.33 390.596 217.761 390.55 218.293Z" fill="white"/>
<path opacity="0.8" d="M393.55 218.293C393.504 218.825 393.035 219.257 392.501 219.257C391.968 219.257 391.575 218.825 391.621 218.293C391.667 217.761 392.138 217.328 392.67 217.328C393.202 217.328 393.596 217.761 393.55 218.293Z" fill="white"/>
<path d="M534.382 419.709C549.286 413.536 556.363 396.449 550.189 381.545C544.016 366.641 526.929 359.564 512.025 365.737C497.121 371.911 490.044 388.998 496.217 403.902C502.391 418.806 519.478 425.883 534.382 419.709Z" fill="#FFB700"/>
<path opacity="0.6" d="M534.382 419.709C549.286 413.536 556.363 396.449 550.189 381.545C544.016 366.641 526.929 359.564 512.025 365.737C497.121 371.911 490.044 388.998 496.217 403.902C502.391 418.806 519.478 425.883 534.382 419.709Z" fill="white"/>
<path d="M536.73 385.865C536.545 384.051 535.852 382.451 534.504 381.165C533.087 379.813 531.355 379.216 529.454 379.115C526.217 378.938 518.532 378.827 515.832 379.268C512.749 379.769 510.727 381.57 509.875 384.614C509.219 386.958 509.35 397.757 509.732 400.075C510.254 403.243 512.125 405.273 515.265 406.082C517.437 406.642 528.113 406.57 530.509 406.181C533.678 405.669 535.718 403.807 536.541 400.673C537.171 398.27 536.951 388.035 536.73 385.865ZM534.196 399.627C533.828 402.032 532.231 403.521 529.813 403.787C527.592 404.029 517.671 404.162 515.61 403.587C513.639 403.038 512.511 401.681 512.186 399.698C511.873 397.804 511.795 388.334 512.182 385.801C512.545 383.415 514.14 381.929 516.545 381.658C518.985 381.385 527.765 381.354 530.101 381.714C532.502 382.08 533.99 383.681 534.252 386.103C534.498 388.364 534.568 397.198 534.196 399.627ZM523.186 385.66C519.283 385.658 516.123 388.819 516.125 392.729C516.127 396.619 519.279 399.776 523.171 399.783C527.078 399.792 530.247 396.633 530.248 392.729C530.251 388.819 527.093 385.66 523.186 385.66ZM523.137 397.288C520.648 397.284 518.62 395.226 518.62 392.703C518.622 390.184 520.666 388.155 523.203 388.155C525.722 388.155 527.752 390.202 527.752 392.738C527.75 395.271 525.702 397.29 523.137 397.288ZM532.173 385.396C532.17 386.315 531.439 387.042 530.519 387.042C529.6 387.042 528.874 386.317 528.867 385.398C528.86 384.467 529.602 383.728 530.536 383.734C531.45 383.741 532.176 384.478 532.173 385.396Z" fill="#FFB700"/>
<path d="M525.369 151.257L494.442 144.043L481.703 198.663L522.006 208.064L532.559 162.821L525.369 151.257Z" fill="#FFB700"/>
<path opacity="0.5" d="M525.369 151.257L494.442 144.043L481.703 198.663L522.006 208.064L532.559 162.821L525.369 151.257Z" fill="white"/>
<path opacity="0.4" d="M525.367 151.257L523.18 160.635L532.556 162.821L525.367 151.257Z" fill="white"/>
<path d="M522.232 169.762L498.451 164.215C497.805 164.065 497.405 163.42 497.555 162.774C497.705 162.13 498.35 161.728 498.996 161.879L522.778 167.426C523.424 167.576 523.824 168.221 523.674 168.866C523.522 169.511 522.876 169.912 522.232 169.762Z" fill="#FFB700"/>
<path d="M516.717 173.403L497.357 168.887C496.711 168.737 496.311 168.091 496.461 167.447C496.611 166.802 497.257 166.401 497.902 166.551L517.262 171.066C517.906 171.217 518.308 171.861 518.157 172.507C518.007 173.151 517.361 173.553 516.717 173.403Z" fill="#FFB700"/>
<path d="M516.055 178.174L496.271 173.559C495.627 173.408 495.225 172.764 495.375 172.118C495.525 171.474 496.17 171.072 496.816 171.222L516.6 175.837C517.245 175.988 517.646 176.633 517.495 177.278C517.345 177.924 516.701 178.324 516.055 178.174Z" fill="#FFB700"/>
<path d="M518.96 183.778L495.177 178.231C494.533 178.081 494.131 177.436 494.282 176.791C494.432 176.146 495.076 175.745 495.722 175.895L519.503 181.442C520.147 181.592 520.549 182.237 520.399 182.882C520.25 183.527 519.605 183.928 518.96 183.778Z" fill="#FFB700"/>
<path d="M513.443 187.419L494.084 182.903C493.438 182.753 493.038 182.109 493.188 181.463C493.338 180.818 493.982 180.417 494.628 180.567L513.988 185.082C514.634 185.233 515.034 185.877 514.884 186.523C514.734 187.167 514.089 187.569 513.443 187.419Z" fill="#FFB700"/>
<path d="M512.781 192.19L492.998 187.575C492.353 187.425 491.952 186.78 492.102 186.134C492.252 185.489 492.896 185.088 493.542 185.239L513.326 189.854C513.972 190.004 514.372 190.648 514.222 191.294C514.072 191.94 513.426 192.34 512.781 192.19Z" fill="#FFB700"/>
<path fill-rule="evenodd" clip-rule="evenodd" d="M411.831 153.245C406.692 153.067 403.483 149.38 402.631 146.385C404.06 146.658 405.47 146.6 406.869 146.257C406.906 146.25 406.941 146.225 407.011 146.193C404.23 145.546 402.082 144.056 400.589 141.655C399.6 140.062 399.128 138.318 399.142 136.396C400.532 137.138 401.982 137.554 403.542 137.596C401.45 136.088 400.046 134.12 399.472 131.601C398.902 129.085 399.272 126.691 400.532 124.438C405.888 130.745 412.664 134.203 420.926 134.767C420.869 134.377 420.808 134.034 420.768 133.687C420.494 131.361 420.956 129.193 422.211 127.221C423.783 124.755 426.033 123.219 428.918 122.754C432.243 122.207 435.146 123.155 437.574 125.509C437.738 125.666 437.874 125.72 438.101 125.666C440.132 125.223 442.048 124.491 443.851 123.455C443.893 123.43 443.939 123.405 443.983 123.388C443.99 123.383 444.008 123.383 444.047 123.383C443.265 125.68 441.842 127.452 439.816 128.764C441.731 128.553 443.557 128.042 445.319 127.281C445.335 127.299 445.347 127.309 445.36 127.324C444.981 127.821 444.617 128.328 444.224 128.807C443.175 130.1 441.972 131.236 440.63 132.223C440.515 132.309 440.462 132.387 440.466 132.538C440.522 134.002 440.463 135.468 440.282 136.925C439.901 139.998 439.043 142.927 437.735 145.73C436.38 148.616 434.614 151.232 432.391 153.526C428.626 157.421 424.087 159.928 418.802 161.093C416.992 161.494 415.153 161.697 413.297 161.751C407.594 161.919 402.325 160.5 397.474 157.506C397.411 157.47 397.35 157.423 397.242 157.353C400.692 157.728 403.973 157.282 407.132 155.989C408.806 155.303 410.36 154.399 411.831 153.245Z" fill="#FFB700"/>
<path d="M209.483 132.858C205.279 119.108 190.725 111.37 176.976 115.573C163.227 119.777 155.488 134.331 159.691 148.08C163.361 160.084 174.922 167.503 186.947 166.395L195.702 176.83L197.126 163.282C207.718 157.477 213.153 144.862 209.483 132.858Z" fill="#FFB700"/>
<path d="M192.038 134.549L190.854 141.314L195.816 140.259L195.493 144.712L190.031 145.873L188.839 152.56L184.377 153.509L185.568 146.822L180.029 148L178.837 154.687L174.412 155.628L175.604 148.94L170.641 149.996L170.924 145.553L176.427 144.383L177.647 137.612L172.685 138.666L173.006 134.214L178.471 133.053L179.663 126.365L184.087 125.425L182.895 132.112L188.435 130.934L189.626 124.247L194.05 123.306L192.858 129.993L197.859 128.931L197.575 133.374L192.038 134.549ZM187.612 135.49L182.072 136.668L180.851 143.441L186.391 142.263L187.612 135.49Z" fill="white"/>
<path d="M202.471 375.593L126.734 359.495L116.151 409.287L191.887 425.386L202.471 375.593Z" fill="#FFB700"/>
<path opacity="0.6" d="M202.471 375.593L126.734 359.495L116.151 409.287L191.887 425.386L202.471 375.593Z" fill="white"/>
<path d="M146.867 392.168L119.406 410.002L164.699 419.629L146.867 392.168Z" fill="#FFB700"/>
<path opacity="0.3" d="M146.867 392.168L119.406 410.002L164.699 419.629L146.867 392.168Z" fill="white"/>
<path d="M191.105 425.242L176.784 382.124L146.164 415.689L191.105 425.242Z" fill="#FFB700"/>
<path opacity="0.8" d="M159.775 383.191C159.242 385.7 156.775 387.302 154.266 386.768C151.757 386.235 150.155 383.768 150.688 381.259C151.222 378.75 153.689 377.148 156.198 377.682C158.707 378.215 160.307 380.682 159.775 383.191Z" fill="white"/>
<path d="M192.971 427.073L114.484 410.391L125.652 357.849L204.138 374.531L192.971 427.073ZM117.815 408.228L190.807 423.744L200.808 376.696L127.815 361.179L117.815 408.228Z" fill="#FFB700"/>
<path d="M152.639 307.204C154.904 293.252 145.429 280.106 131.477 277.842C117.526 275.578 104.38 285.052 102.115 299.004C99.8512 312.956 109.326 326.102 123.278 328.366C137.229 330.63 150.375 321.156 152.639 307.204Z" fill="#FFB700"/>
<path opacity="0.6" d="M152.639 307.204C154.904 293.252 145.429 280.106 131.477 277.842C117.526 275.578 104.38 285.052 102.115 299.004C99.8512 312.956 109.326 326.102 123.278 328.366C137.229 330.63 150.375 321.156 152.639 307.204Z" fill="white"/>
<path fill-rule="evenodd" clip-rule="evenodd" d="M131.681 293.899C132.541 293.871 133.4 293.894 134.264 293.889C134.369 293.889 134.474 293.889 134.618 293.889V289.416C134.159 289.37 133.678 289.304 133.197 289.279C132.314 289.241 131.431 289.197 130.546 289.217C129.197 289.243 127.922 289.572 126.807 290.372C125.528 291.292 124.826 292.582 124.559 294.108C124.447 294.737 124.419 295.39 124.404 296.028C124.378 297.033 124.398 298.037 124.399 299.042V299.42H120.117V304.417H124.376V316.984H129.579V304.439H133.823C134.041 302.774 134.253 301.128 134.476 299.415C134.135 299.415 133.829 299.414 133.521 299.415C132.315 299.42 129.544 299.415 129.544 299.415C129.544 299.415 129.556 296.936 129.586 295.862C129.626 294.391 130.501 293.941 131.681 293.899Z" fill="#FFB700"/>
<path d="M323.297 276.584C323.297 276.584 327.934 273.379 331.133 277.082C334.329 280.785 332.318 289.038 332.318 289.038L324.869 279.999L323.297 276.584Z" fill="#263238"/>
<path d="M424.581 326.395L415.251 325.898C413.447 333.608 411.605 341.585 409.083 348.577C408.454 350.317 407.747 351.975 407.032 353.458C406.319 354.923 405.491 356.24 404.828 356.903C404.513 357.247 404.459 357.05 404.355 357.064C403.884 357.14 402.523 357.178 401.067 357C398.059 356.678 394.459 355.797 390.91 354.68C387.33 353.577 383.685 352.263 380.056 350.821C376.41 349.413 372.784 347.842 369.144 346.279C365.54 344.715 361.842 342.974 358.424 341.373L349.906 358.203C353.843 360.264 357.609 361.964 361.53 363.697C365.418 365.425 369.397 366.972 373.442 368.455C377.506 369.891 381.645 371.235 385.978 372.346C390.339 373.415 394.798 374.373 399.998 374.598C402.629 374.648 405.439 374.621 408.944 373.612C409.828 373.341 410.735 373.017 411.696 372.542C412.161 372.323 412.654 372.054 413.168 371.725C413.662 371.413 414.11 371.085 414.531 370.751C416.195 369.403 417.335 368.003 418.223 366.683C419.978 364.017 420.921 361.587 421.719 359.239C422.51 356.899 423.017 354.626 423.444 352.396C424.294 347.941 424.68 343.603 424.855 339.295C425.026 334.971 424.958 330.777 424.581 326.395Z" fill="#FFBE9D"/>
<path d="M337.829 358.11C343.263 369.252 383.017 376.448 383.017 376.448L390.42 347.826C390.42 347.826 373.981 340.58 358.276 338.004C342.149 335.357 331.867 345.881 337.829 358.11Z" fill="#FFB700"/>
<path d="M415.211 326.374L417.676 310.283L429.453 318.944C429.453 318.944 426.557 333.508 420.736 331.769L415.211 326.374Z" fill="#FFBE9D"/>
<path d="M426.436 300.6L434.035 311.485L429.456 318.943L417.68 310.283L426.436 300.6Z" fill="#FFBE9D"/>
<path opacity="0.2" d="M363.27 350.797L357.586 352.831L356.406 357.021L357.192 363.798L362.418 371.444C369.473 373.567 376.215 375.071 379.968 375.846C373.831 363.615 363.27 350.797 363.27 350.797Z" fill="black"/>
<path d="M309.774 445.033C309.774 445.033 309.221 490.9 350.825 481.392C390.47 472.332 377.959 427.934 377.959 427.934L309.774 445.033Z" fill="#263238"/>
<path d="M350.822 476.151C337.177 465.016 296.733 438.054 282.693 458.232C267.007 480.776 302.854 535.844 362.482 515.208C372.112 511.876 380.535 500.397 350.822 476.151Z" fill="#263238"/>
<path d="M401.446 445.033C459.473 434.685 462.768 452.236 452.786 467.124C442.803 482.012 409.701 517.016 350.819 513.29C328.925 511.904 328.584 458.027 401.446 445.033Z" fill="#263238"/>
<path opacity="0.2" d="M359.289 481.392C359.289 481.392 362.398 474.379 366.472 469.493C370.546 464.607 371.043 478.701 388.96 469.493C406.878 460.286 419.432 450.438 433.295 446.771C447.158 443.102 422.626 468.138 422.626 468.138L379.142 492.043L359.289 481.392Z" fill="black"/>
<path d="M360.394 512.583L338.906 520.83L340.706 509.97L358.446 498.372L360.394 512.583Z" fill="#7F3E3B"/>
<path d="M465.501 454.98C463.749 442.638 443.62 437.714 426.779 450.947C412.927 461.829 363.402 493.979 347.406 504.475L350.784 517.484C365.49 511.911 394.359 500.953 415.044 492.989C443.909 481.875 467.253 467.323 465.501 454.98Z" fill="#263238"/>
<path opacity="0.2" d="M348.3 474.156C341.171 459.031 325.987 456.056 317.375 455.653C329.282 460.654 341.08 468.585 348.3 474.156Z" fill="black"/>
<path opacity="0.2" d="M374.153 508.616C387.549 503.522 402.74 497.729 415.049 492.989C415.518 492.808 415.981 492.624 416.448 492.442L380.714 482.955C368.606 491.049 357.301 498.495 350.82 502.747L374.153 508.616Z" fill="black"/>
<path opacity="0.2" d="M288.297 482.423C288.297 482.423 334.83 521.845 351.86 496.575L295.631 475.184L289.316 472.333L288.297 482.423Z" fill="black"/>
<path d="M408.131 509.429L429.768 512.216L427.491 500.256L405.32 494.487L408.131 509.429Z" fill="#7F3E3B"/>
<path d="M422.706 497.051C412.098 494.315 388.051 488.277 373.2 482.479C353.166 474.657 302.098 453.47 285.26 463.385C273.61 470.244 285.674 480.421 285.674 480.421C285.674 480.421 291.115 489.833 333.802 498.813C364.317 505.232 402.039 510.013 421.078 512.217L422.706 497.051Z" fill="#263238"/>
<path d="M428.102 512.599L424.867 499.281C424.745 498.778 424.987 498.259 425.45 498.03L435.701 492.989C436.606 492.536 437.708 492.902 438.162 493.808C438.219 493.925 438.266 494.047 438.298 494.172C439.381 498.993 440.156 503.326 441.616 509.301C443.331 516.355 443.74 514.36 445.873 522.624C447.152 527.604 441.696 529.899 440.901 527.848C437.325 518.448 434.152 518.152 429.773 515.254C428.91 514.605 428.316 513.659 428.102 512.599Z" fill="#FFB700"/>
<path d="M342.47 519.669L344.825 506.132C344.913 505.622 344.638 505.118 344.159 504.92L333.572 500.558C332.635 500.164 331.557 500.604 331.164 501.54C331.113 501.66 331.075 501.785 331.051 501.913C330.288 506.807 329.799 511.193 328.735 517.267C327.485 524.436 326.945 522.468 325.358 530.876C324.408 535.943 330.018 537.876 330.676 535.773C333.632 526.133 336.785 525.628 340.975 522.44C341.795 521.73 342.327 520.745 342.47 519.669Z" fill="#FFB700"/>
<path d="M305.697 420.143C307.838 432.387 309.197 443.484 310.212 451.449C321.805 450.942 365.315 448.678 381.063 442.705C378.811 376.728 357.838 337.489 357.838 337.489C357.838 337.489 350.081 336.97 341.218 337.609C340.05 337.686 338.866 337.8 337.666 337.931C329.897 338.782 317.406 341.6 308.823 343.769C307.019 344.227 305.201 344.738 303.436 345.263C294.456 347.956 286.664 351.247 286.664 351.247C292.333 364.914 296.606 379.028 299.914 392.407C302.328 402.195 304.204 411.592 305.697 420.143Z" fill="#FFB700"/>
<path d="M305.445 310.704C309.049 319.618 314.136 336.26 308.835 343.768C314.538 347.708 322.389 350.451 332.769 348.114C340.718 346.324 340.047 340.658 337.671 337.926C326.849 337.55 325.639 329.815 326.055 322.238L305.445 310.704Z" fill="#FFBE9D"/>
<path d="M332.972 348.067C332.972 348.067 330.734 352.543 327.967 357.083C322.149 355.406 308.317 350.549 307.344 343.553C307.602 341.399 310.006 339.619 310.006 339.619C310.006 339.619 319.307 345.343 332.972 348.067Z" fill="white"/>
<path d="M332.975 348.067C332.975 348.067 337.789 350.541 341.388 354.222C344.604 350.791 339.754 338.419 338.029 337.303C334.57 336.018 332.547 336.677 332.547 336.677C332.547 336.677 338.675 345.304 332.975 348.067Z" fill="white"/>
<path opacity="0.2" d="M313.844 315.413L326.042 322.234C325.938 324.028 325.934 325.828 326.137 327.535C322.074 327.764 315.81 324.524 314.595 320.467C313.987 318.444 313.692 316.442 313.844 315.413Z" fill="black"/>
<path d="M299.314 299.681C304.029 311.598 306.183 318.82 314.354 322.999C326.646 329.283 339.824 318.656 338.761 305.531C337.805 293.718 330.256 276.213 316.787 275.378C303.516 274.556 294.601 287.764 299.314 299.681Z" fill="#FFBE9D"/>
<path d="M318.849 296.872C319.172 297.863 319.958 298.489 320.606 298.271C321.253 298.054 321.514 297.074 321.191 296.083C320.868 295.091 320.082 294.465 319.436 294.683C318.788 294.9 318.526 295.88 318.849 296.872Z" fill="#263238"/>
<path d="M330.029 293.104C330.352 294.095 331.138 294.721 331.785 294.503C332.433 294.286 332.694 293.306 332.371 292.315C332.048 291.323 331.262 290.697 330.614 290.915C329.967 291.132 329.706 292.112 330.029 293.104Z" fill="#263238"/>
<path d="M326.633 294.794C326.633 294.794 330.733 299.52 334.102 301.349C332.881 303.479 329.661 303.73 329.661 303.73L326.633 294.794Z" fill="#630F0F"/>
<path d="M325.596 309.309C326.02 309.227 326.458 309.112 326.912 308.959C327.072 308.906 327.16 308.732 327.107 308.57C327.055 308.409 326.878 308.324 326.722 308.378C322.376 309.838 319.364 307.486 319.333 307.462C319.203 307.357 319.009 307.381 318.903 307.513C318.798 307.646 318.818 307.839 318.95 307.944C319.071 308.041 321.669 310.068 325.596 309.309Z" fill="#263238"/>
<path d="M314.222 294.418C314.431 294.377 314.615 294.228 314.689 294.009C315.578 291.413 317.754 290.818 317.777 290.812C318.104 290.727 318.303 290.391 318.221 290.064C318.138 289.737 317.805 289.54 317.479 289.624C317.364 289.654 314.635 290.399 313.534 293.62C313.423 293.942 313.593 294.29 313.912 294.398C314.016 294.432 314.121 294.436 314.222 294.418Z" fill="#263238"/>
<path d="M333.589 287.627C333.703 287.604 333.812 287.549 333.902 287.462C334.145 287.225 334.152 286.835 333.918 286.593C331.566 284.167 328.803 284.716 328.675 284.725C328.344 284.792 328.127 285.116 328.191 285.448C328.254 285.779 328.571 285.994 328.901 285.929C329.015 285.901 331.149 285.507 333.037 287.454C333.186 287.607 333.395 287.664 333.589 287.627Z" fill="#263238"/>
<path opacity="0.2" d="M294.383 372.606C296.483 379.289 298.315 385.935 299.916 392.407C301.675 399.542 303.144 406.458 304.391 413.001C306.694 399.768 305.293 370.323 305.293 370.323L298.036 363.32C298.036 363.32 296.1 366.819 294.383 372.606Z" fill="black"/>
<path d="M328.676 421.027L322.165 421.756C319.976 421.976 317.788 422.137 315.623 422.315C311.29 422.624 306.992 422.816 302.914 422.69C300.881 422.634 298.904 422.465 297.098 422.188C295.305 421.934 293.642 421.51 292.604 421.006C292.087 420.766 292.054 420.624 292.072 420.658C292.086 420.678 292.069 420.617 292.068 420.603L292.012 420.394C291.964 420.221 291.906 419.966 291.847 419.684C291.732 419.102 291.634 418.351 291.572 417.534C291.333 414.202 291.547 410.047 292.028 405.943C292.521 401.8 293.152 397.55 293.959 393.294C295.508 384.808 297.463 376.06 299.503 367.731L280.582 362.617C279.251 367.265 278.25 371.701 277.237 376.28C276.224 380.829 275.421 385.435 274.689 390.092C274.014 394.758 273.411 399.477 273.131 404.346C272.891 409.246 272.705 414.184 273.563 419.844C273.788 421.269 274.084 422.749 274.558 424.352C274.803 425.159 275.079 425.985 275.447 426.865C275.633 427.306 275.819 427.741 276.062 428.213L276.43 428.919L276.926 429.748C278.306 431.939 280.172 433.596 281.956 434.747C283.748 435.886 285.497 436.565 287.116 437.058C290.368 438.012 293.219 438.245 295.93 438.322C298.636 438.364 301.191 438.17 303.675 437.889C313.58 436.636 322.45 433.957 331.31 430.372L328.676 421.027Z" fill="#FFBE9D"/>
<path d="M283.181 353.131C273.039 360.264 269.688 397.089 269.688 397.089L301.167 400.907C301.167 400.907 304.998 384.547 305.351 368.523C305.738 351.069 295.466 344.491 283.181 353.131Z" fill="#FFB700"/>
<path d="M325.469 421.439L334.69 412.118L340.433 427.684C340.433 427.684 330.833 433.854 327.015 429.077L325.469 421.439Z" fill="#FFBE9D"/>
<path d="M345.354 410.743L349.505 423.831L340.438 427.684L334.695 412.118L345.354 410.743Z" fill="#FFBE9D"/>
<path d="M307.348 310.283L308.158 310.144C310.322 309.772 311.16 307.166 309.677 305.548C307.904 303.614 306.166 300.925 305.719 297.553C304.731 290.086 308.791 289.039 308.268 283.93C308.268 283.93 318.426 282.603 324.874 278.158C324.874 278.158 331.202 268.997 326.142 264.672C321.879 261.029 316.744 265.984 316.744 265.984C316.744 265.984 314.556 259.303 309.317 260.744C303.884 262.238 301.929 269.37 301.929 269.37C301.929 269.37 296.873 263.757 293.074 266.639C289.274 269.522 290.61 276.769 290.61 276.769C290.61 276.769 282.725 276.987 282.464 281.572C282.202 286.158 286.917 290.218 286.917 290.218C286.917 290.218 282.201 294.627 283.511 298.316C284.821 302.008 289.1 302.378 289.1 302.378C289.1 302.378 286.131 308.664 288.227 310.707C290.323 312.748 294.388 312.224 294.388 312.224C294.388 312.224 294.514 318.25 299.361 319.953C302.822 321.169 305.185 318.945 305.185 318.945C305.185 318.945 307.567 322.44 309.078 321.481C310.589 320.522 307.348 310.283 307.348 310.283Z" fill="#263238"/>
<path d="M295.787 316.969C298.554 313.266 307.232 302.145 312.372 301.137C312.372 301.137 310.189 299.386 308.989 291.093C308.989 291.093 306.671 295.49 303.704 298.517C299.052 303.265 294.335 309.339 292.375 312.251C292.375 312.251 293.042 314.34 295.787 316.969Z" fill="#FFB700"/>
<path opacity="0.6" d="M295.787 316.969C298.554 313.266 307.232 302.145 312.372 301.137C312.372 301.137 310.189 299.386 308.989 291.093C308.989 291.093 306.671 295.49 303.704 298.517C299.052 303.265 294.335 309.339 292.375 312.251C292.375 312.251 293.042 314.34 295.787 316.969Z" fill="white"/>
<path d="M297.927 311.35C299.921 314.163 303.03 315.779 305.833 316.191C310.051 316.81 311.656 312.883 310.061 309.164C308.626 305.817 304.703 301.46 300.674 302.545C296.705 303.615 295.649 308.133 297.927 311.35Z" fill="#FFBE9D"/>
<path d="M313.109 302.375C313.109 302.375 322.279 306.148 329.483 299.263C329.483 299.263 336.979 301.29 339.262 297.207L336.982 296.477L314.174 301.464L313.109 302.375Z" fill="#FFB700"/>
<path d="M335.786 282.224L311.174 287.363C310.29 287.547 309.516 288.075 309.022 288.83L308.431 289.734C307.937 290.489 307.763 291.41 307.947 292.294L309.672 300.556C310.057 302.397 311.859 303.577 313.7 303.193L338.311 298.054C339.194 297.87 339.969 297.341 340.463 296.586L341.054 295.681C341.548 294.926 341.723 294.005 341.539 293.122L339.813 284.858C339.43 283.02 337.627 281.839 335.786 282.224Z" fill="#FFB700"/>
<path opacity="0.3" d="M335.786 282.224L311.174 287.363C310.29 287.547 309.516 288.075 309.022 288.83L308.431 289.734C307.937 290.489 307.763 291.41 307.947 292.294L309.672 300.556C310.057 302.397 311.859 303.577 313.7 303.193L338.311 298.054C339.194 297.87 339.969 297.341 340.463 296.586L341.054 295.681C341.548 294.926 341.723 294.005 341.539 293.122L339.813 284.858C339.43 283.02 337.627 281.839 335.786 282.224Z" fill="white"/>
<path opacity="0.2" d="M338.038 295.857L317.248 300.198C315.385 300.587 313.559 299.392 313.17 297.529L311.87 291.299C311.481 289.436 312.676 287.611 314.539 287.222L335.33 282.883C337.193 282.494 339.018 283.688 339.407 285.552L340.707 291.781C341.096 293.643 339.901 295.468 338.038 295.857Z" fill="white"/>
</svg>
