<svg width="572" height="472" viewBox="0 0 572 472" fill="none" xmlns="http://www.w3.org/2000/svg">
<path d="M465.55 84.6904C465.55 80.3288 465.115 76.076 464.273 71.9725L485.551 59.6895L465.631 25.1775L444.421 37.4198C438.008 31.6723 430.399 27.2156 422.029 24.4438V0H382.177V24.4438C378.454 25.6802 374.881 27.2292 371.498 29.0907C371.09 29.3081 370.696 29.5526 370.302 29.7836C369.908 30.0146 369.5 30.232 369.106 30.4766C365.805 32.4739 362.666 34.7838 359.745 37.3926L338.575 25.1639L318.656 59.6759L339.825 71.9046C339.024 75.7363 338.589 79.6087 338.521 83.4675C338.521 83.9295 338.521 84.405 338.521 84.867C338.521 85.3154 338.521 85.7638 338.521 86.2258C338.603 90.0846 339.037 93.957 339.825 97.8022L318.656 110.031L338.575 144.543L359.745 132.314C366.321 138.184 373.984 142.532 382.164 145.222V169.707H422.016V145.141C425.997 143.809 429.896 142.07 433.674 139.882C437.533 137.654 441.079 135.073 444.272 132.206L465.618 144.529L485.537 110.017L464.191 97.6935C465.061 93.495 465.536 89.1335 465.536 84.6768L465.55 84.6904ZM428.198 112.776C428.021 112.939 427.858 113.088 427.682 113.251C426.989 113.876 426.282 114.46 425.562 115.031C425.222 115.289 424.883 115.547 424.529 115.806C423.932 116.24 423.334 116.648 422.709 117.042C422.22 117.355 421.717 117.653 421.214 117.952C420.711 118.251 420.195 118.523 419.679 118.795C419.027 119.134 418.361 119.447 417.695 119.746C417.301 119.923 416.907 120.086 416.513 120.249C415.657 120.588 414.801 120.914 413.918 121.2C413.7 121.268 413.469 121.349 413.252 121.417C409.733 122.477 405.996 123.075 402.124 123.075C380.927 123.075 363.739 105.887 363.739 84.6904C363.739 79.5 364.786 74.5542 366.647 70.0431C366.742 69.8257 366.824 69.6219 366.919 69.4045C367.258 68.6165 367.652 67.842 368.047 67.0675C368.305 66.5783 368.563 66.1028 368.835 65.6272C369.106 65.1517 369.392 64.6897 369.691 64.2277C370.153 63.5076 370.628 62.7875 371.144 62.0945C371.28 61.9043 371.416 61.7276 371.552 61.5374C374.528 57.665 378.291 54.2817 382.789 51.6865C401.145 41.0884 424.611 47.3793 435.209 65.7359C437.139 69.092 438.511 72.6112 439.34 76.1982C439.394 76.4292 439.435 76.6466 439.489 76.8776C439.679 77.788 439.842 78.6983 439.965 79.6087C440.019 80.0299 440.073 80.4647 440.114 80.8859C440.196 81.6196 440.25 82.3533 440.277 83.0871C440.304 83.6713 440.318 84.2556 440.318 84.8263C440.318 85.4105 440.318 85.9948 440.277 86.579C440.236 87.3127 440.196 88.0329 440.114 88.7666C440.073 89.2014 440.019 89.6226 439.965 90.0574C439.842 90.9678 439.679 91.8781 439.489 92.7749C439.435 93.0059 439.394 93.2369 439.34 93.4679C438.497 97.0549 437.139 100.574 435.209 103.93C433.28 107.286 430.902 110.221 428.212 112.735L428.198 112.776Z" fill="#EBEBF2"/>
<path d="M560.206 206.04C560.206 203.58 559.961 201.189 559.486 198.865L571.483 191.936L560.247 172.479L548.29 179.381C544.676 176.134 540.382 173.634 535.667 172.071V158.293H513.207V172.071C511.115 172.764 509.09 173.647 507.188 174.693C506.957 174.816 506.739 174.952 506.508 175.074C506.291 175.21 506.06 175.332 505.843 175.468C503.981 176.596 502.215 177.9 500.557 179.368L488.627 172.479L477.391 191.936L489.32 198.825C488.872 200.985 488.627 203.173 488.587 205.347C488.587 205.605 488.587 205.877 488.587 206.135C488.587 206.393 488.587 206.637 488.587 206.896C488.627 209.07 488.872 211.257 489.32 213.418L477.391 220.306L488.627 239.764L500.557 232.875C504.267 236.177 508.587 238.636 513.193 240.144V253.949H535.653V240.103C537.895 239.356 540.097 238.364 542.216 237.141C544.39 235.878 546.388 234.424 548.195 232.82L560.22 239.764L571.456 220.306L559.431 213.363C559.921 210.999 560.192 208.54 560.192 206.026L560.206 206.04ZM539.145 221.869C539.05 221.964 538.955 222.046 538.846 222.141C538.466 222.494 538.058 222.82 537.651 223.146C537.461 223.296 537.27 223.445 537.067 223.581C536.727 223.826 536.387 224.057 536.047 224.274C535.776 224.451 535.49 224.627 535.205 224.79C534.92 224.953 534.634 225.116 534.335 225.266C533.969 225.456 533.602 225.633 533.221 225.809C533.004 225.904 532.773 226 532.556 226.095C532.08 226.285 531.591 226.475 531.088 226.625C530.966 226.665 530.844 226.706 530.708 226.747C528.724 227.345 526.618 227.684 524.43 227.684C512.487 227.684 502.799 217.997 502.799 206.053C502.799 203.132 503.383 200.347 504.443 197.792C504.497 197.67 504.538 197.548 504.593 197.439C504.783 196.99 505 196.556 505.231 196.121C505.381 195.849 505.517 195.577 505.68 195.306C505.829 195.034 505.992 194.776 506.155 194.518C506.413 194.11 506.685 193.702 506.97 193.308C507.052 193.2 507.12 193.104 507.201 192.996C508.886 190.808 511.006 188.906 513.533 187.452C523.887 181.474 537.107 185.02 543.086 195.374C544.173 197.262 544.947 199.246 545.423 201.27C545.45 201.393 545.477 201.529 545.504 201.651C545.613 202.167 545.695 202.67 545.776 203.186C545.803 203.431 545.83 203.662 545.858 203.906C545.898 204.314 545.926 204.735 545.953 205.143C545.966 205.469 545.98 205.795 545.98 206.121C545.98 206.447 545.98 206.787 545.953 207.113C545.939 207.521 545.898 207.942 545.858 208.349C545.83 208.594 545.803 208.839 545.776 209.07C545.708 209.586 545.613 210.089 545.504 210.605C545.477 210.741 545.45 210.863 545.423 210.999C544.947 213.024 544.186 215.007 543.099 216.896C542.012 218.785 540.667 220.442 539.159 221.869H539.145Z" fill="#EBEBF2"/>
<path d="M123.288 339.346C122.052 336.167 120.53 333.178 118.75 330.406L130.829 315.392L106.481 295.799L94.4421 310.759C88.124 308.367 81.3031 307.267 74.4007 307.62L67.4711 289.739L38.3261 301.03L45.2557 318.911C42.8779 320.868 40.7175 323.014 38.7609 325.338C38.5299 325.61 38.3125 325.895 38.0815 326.18C37.8505 326.466 37.6195 326.737 37.4021 327.023C35.5542 329.414 33.9102 331.996 32.5107 334.74L13.5698 331.792L8.77344 362.676L27.7143 365.625C28.217 368.655 28.9915 371.617 30.0378 374.456C30.16 374.796 30.2959 375.136 30.4318 375.489C30.5541 375.815 30.6764 376.155 30.8122 376.481C31.9672 379.28 33.3803 381.984 35.0515 384.579L23.0266 399.512L47.3753 419.105L59.4002 404.172C65.8678 406.591 72.7022 407.61 79.4552 407.256L86.3848 425.165L115.53 413.873L108.573 395.911C111.1 393.805 113.465 391.427 115.611 388.764C117.799 386.033 119.66 383.152 121.196 380.149L140.286 383.112L145.082 352.227L125.992 349.265C125.449 345.95 124.552 342.635 123.288 339.36V339.346ZM103.926 370.462C103.845 370.625 103.763 370.788 103.682 370.951C103.355 371.603 103.002 372.228 102.635 372.853C102.459 373.138 102.282 373.424 102.092 373.709C101.779 374.198 101.453 374.66 101.114 375.136C100.842 375.503 100.57 375.869 100.271 376.223C99.9858 376.576 99.6869 376.929 99.3879 377.269C99.0075 377.704 98.6134 378.125 98.2058 378.533C97.9748 378.777 97.7303 379.008 97.4857 379.239C96.9558 379.728 96.4123 380.217 95.8552 380.666C95.7193 380.788 95.5699 380.897 95.4204 381.005C93.1513 382.785 90.5833 384.266 87.7435 385.367C72.2403 391.373 54.8076 383.669 48.802 368.165C47.3345 364.374 46.6959 360.461 46.7775 356.63C46.7775 356.453 46.7775 356.276 46.791 356.086C46.8182 355.407 46.8726 354.741 46.9541 354.062C47.0084 353.64 47.0492 353.206 47.1171 352.784C47.1851 352.363 47.2666 351.942 47.3481 351.521C47.484 350.855 47.6335 350.203 47.8101 349.551C47.8509 349.374 47.9052 349.197 47.9596 349.034C49.033 345.352 50.8265 341.819 53.3809 338.653C63.8025 325.705 82.7433 323.653 95.6922 334.075C98.0564 335.977 100.054 338.178 101.684 340.556C101.793 340.705 101.888 340.855 101.983 341.018C102.377 341.629 102.758 342.254 103.111 342.879C103.274 343.178 103.437 343.463 103.586 343.776C103.845 344.292 104.103 344.809 104.334 345.339C104.51 345.76 104.687 346.181 104.85 346.602C105.013 347.037 105.176 347.458 105.326 347.893C105.502 348.436 105.679 348.98 105.828 349.537C105.923 349.863 106.005 350.189 106.087 350.515C106.25 351.222 106.399 351.928 106.508 352.635C106.535 352.812 106.562 353.002 106.589 353.178C106.997 356.032 106.997 358.994 106.535 361.997C106.073 365 105.163 367.826 103.913 370.421L103.926 370.462Z" fill="#EBEBF2"/>
<path d="M275.186 70.1111H3.47838C1.56256 70.1111 0 68.5485 0 66.6327C0 64.7168 1.56256 63.1543 3.47838 63.1543H275.186C277.102 63.1543 278.664 64.7168 278.664 66.6327C278.664 68.5485 277.102 70.1111 275.186 70.1111Z" fill="#EBEBF2"/>
<path d="M275.186 95.03H3.47838C1.56256 95.03 0 93.4674 0 91.5516C0 89.6358 1.56256 88.0732 3.47838 88.0732H275.186C277.102 88.0732 278.664 89.6358 278.664 91.5516C278.664 93.4674 277.102 95.03 275.186 95.03Z" fill="#EBEBF2"/>
<path d="M275.186 119.95H3.47838C1.56256 119.95 0 118.387 0 116.472C0 114.556 1.56256 112.993 3.47838 112.993H275.186C277.102 112.993 278.664 114.556 278.664 116.472C278.664 118.387 277.102 119.95 275.186 119.95Z" fill="#EBEBF2"/>
<path d="M275.186 137.898H3.47838C1.55733 137.898 0 139.456 0 141.377C0 143.298 1.55733 144.855 3.47838 144.855H275.186C277.107 144.855 278.664 143.298 278.664 141.377C278.664 139.456 277.107 137.898 275.186 137.898Z" fill="#EBEBF2"/>
<path d="M275.186 169.775H3.47838C1.56256 169.775 0 168.212 0 166.296C0 164.38 1.56256 162.818 3.47838 162.818H275.186C277.102 162.818 278.664 164.38 278.664 166.296C278.664 168.212 277.102 169.775 275.186 169.775Z" fill="#EBEBF2"/>
<path d="M275.186 194.694H3.47838C1.56256 194.694 0 193.131 0 191.215C0 189.299 1.56256 187.737 3.47838 187.737H275.186C277.102 187.737 278.664 189.299 278.664 191.215C278.664 193.131 277.102 194.694 275.186 194.694Z" fill="#EBEBF2"/>
<path d="M275.186 219.6H3.47838C1.56256 219.6 0 218.037 0 216.121C0 214.206 1.56256 212.643 3.47838 212.643H275.186C277.102 212.643 278.664 214.206 278.664 216.121C278.664 218.037 277.102 219.6 275.186 219.6Z" fill="#EBEBF2"/>
<path d="M275.186 244.519H3.47838C1.56256 244.519 0 242.956 0 241.04C0 239.125 1.56256 237.562 3.47838 237.562H275.186C277.102 237.562 278.664 239.125 278.664 241.04C278.664 242.956 277.102 244.519 275.186 244.519Z" fill="#EBEBF2"/>
<path d="M275.186 269.439H3.47838C1.56256 269.439 0 267.876 0 265.96C0 264.044 1.56256 262.482 3.47838 262.482H275.186C277.102 262.482 278.664 264.044 278.664 265.96C278.664 267.876 277.102 269.439 275.186 269.439Z" fill="#EBEBF2"/>
<path d="M276.072 446.918C391.298 446.918 484.707 438.097 484.707 427.216C484.707 416.335 391.298 407.514 276.072 407.514C160.846 407.514 67.4375 416.335 67.4375 427.216C67.4375 438.097 160.846 446.918 276.072 446.918Z" fill="#EBEBF2"/>
<path d="M336.553 428.262H215.625L236.427 368.314H315.751L336.553 428.262Z" fill="url(#paint0_linear_2762_2536)"/>
<path d="M82.3438 185.903H469.83V377.785C469.83 389.266 460.509 398.574 449.041 398.574H103.132C91.6511 398.574 82.3438 389.253 82.3438 377.785V185.903Z" fill="url(#paint1_linear_2762_2536)"/>
<path d="M103.132 126.295H449.027C460.509 126.295 469.816 135.616 469.816 147.084V349.374H82.3438V147.084C82.3438 135.603 91.6647 126.295 103.132 126.295Z" fill="#3D3D89"/>
<path d="M454.918 147.302H97.9219V327.974H454.918V147.302Z" fill="url(#paint2_linear_2762_2536)"/>
<path style="mix-blend-mode:multiply" d="M276.082 382.703C282.311 382.703 287.36 377.654 287.36 371.426C287.36 365.197 282.311 360.148 276.082 360.148C269.854 360.148 264.805 365.197 264.805 371.426C264.805 377.654 269.854 382.703 276.082 382.703Z" fill="url(#paint3_linear_2762_2536)"/>
<path d="M368.036 428.262H184.117C184.117 422.093 189.117 417.08 195.3 417.08H356.868C363.036 417.08 368.05 422.08 368.05 428.262H368.036Z" fill="url(#paint4_linear_2762_2536)"/>
<path d="M450.127 472C496.818 472 534.668 466.585 534.668 459.907C534.668 453.228 496.818 447.814 450.127 447.814C403.436 447.814 365.586 453.228 365.586 459.907C365.586 466.585 403.436 472 450.127 472Z" fill="#EBEBF2"/>
<path d="M492.425 268.583H407.829C401.158 268.583 395.75 273.991 395.75 280.662V443.154C395.75 449.825 401.158 455.233 407.829 455.233H492.425C499.096 455.233 504.504 449.825 504.504 443.154V280.662C504.504 273.991 499.096 268.583 492.425 268.583Z" fill="#4B4BA0"/>
<path d="M504.504 281.586H395.75V441.483H504.504V281.586Z" fill="url(#paint5_linear_2762_2536)"/>
<g filter="url(#filter0_d_2762_2536)">
<path d="M477.194 322.756H423.048C416.377 322.756 410.969 328.164 410.969 334.836V388.981C410.969 395.653 416.377 401.061 423.048 401.061H477.194C483.865 401.061 489.273 395.653 489.273 388.981V334.836C489.273 328.164 483.865 322.756 477.194 322.756Z" fill="url(#paint6_linear_2762_2536)"/>
</g>
<g filter="url(#filter1_d_2762_2536)">
<path d="M450.13 391.889C433.608 391.889 420.156 378.437 420.156 361.915C420.156 345.392 433.608 331.941 450.13 331.941C466.652 331.941 480.104 345.392 480.104 361.915C480.104 378.437 466.652 391.889 450.13 391.889ZM450.13 337.471C436.651 337.471 425.7 348.436 425.7 361.915C425.7 375.393 436.665 386.345 450.13 386.345C463.595 386.345 474.56 375.38 474.56 361.915C474.56 348.45 463.595 337.471 450.13 337.471Z" fill="white"/>
<path d="M447.952 373.301L437.477 364.075L441.865 359.089L447.341 363.912L457.763 351.982L462.763 356.358L447.952 373.301Z" fill="white"/>
</g>
<path d="M463.756 287.918H436.5C432.301 287.918 428.891 284.507 428.891 280.309H471.365C471.365 284.507 467.954 287.918 463.756 287.918Z" fill="#4B4BA0"/>
<path opacity="0.15" d="M459.954 281.586H440.279C439.573 281.586 439.016 281.015 439.016 280.322C439.016 279.616 439.586 279.059 440.279 279.059H459.954C460.647 279.059 461.217 279.629 461.217 280.322C461.217 281.029 460.647 281.586 459.954 281.586Z" fill="white"/>
<g filter="url(#filter2_d_2762_2536)">
<path d="M370.264 107.409H156.439C149.767 107.409 144.359 112.817 144.359 119.488V248.772C144.359 255.443 149.767 260.851 156.439 260.851H370.264C376.935 260.851 382.343 255.443 382.343 248.772V119.488C382.343 112.817 376.935 107.409 370.264 107.409Z" fill="url(#paint7_linear_2762_2536)"/>
</g>
<path d="M370.255 119.474H156.43V248.758H370.255V119.474Z" fill="#3D3D89"/>
<path d="M201.461 136.757H179.219V139.76H201.461V136.757Z" fill="#FFC700"/>
<path d="M254.01 136.757H208.492V139.76H254.01V136.757Z" fill="#FFC700"/>
<path d="M210.914 148.932H188.672V151.934H210.914V148.932Z" fill="white"/>
<path d="M348.004 148.932H217.945V151.934H348.004V148.932Z" fill="#1E9AFF"/>
<path d="M210.914 160.223H188.672V163.226H210.914V160.223Z" fill="white"/>
<path d="M348.004 160.223H217.945V163.226H348.004V160.223Z" fill="#1E9AFF"/>
<path d="M210.914 171.527H188.672V174.53H210.914V171.527Z" fill="white"/>
<path d="M348.004 171.527H217.945V174.53H348.004V171.527Z" fill="#1E9AFF"/>
<path d="M210.914 182.833H188.672V185.835H210.914V182.833Z" fill="white"/>
<path d="M201.461 194.789H179.219V197.792H201.461V194.789Z" fill="#FFC700"/>
<path d="M254.01 194.789H208.492V197.792H254.01V194.789Z" fill="#FFC700"/>
<path d="M301.807 206.963H217.945V209.966H301.807V206.963Z" fill="white"/>
<path d="M301.807 218.255H217.945V221.258H301.807V218.255Z" fill="white"/>
<path d="M210.909 218.255H203.531V221.258H210.909V218.255Z" fill="#1E9AFF"/>
<path d="M210.914 229.559H188.672V232.562H210.914V229.559Z" fill="#1E9AFF"/>
<path d="M301.807 229.559H217.945V232.562H301.807V229.559Z" fill="white"/>
<path d="M348.954 206.963H307.852V209.966H348.954V206.963Z" fill="white"/>
<path d="M348.954 218.255H307.852V221.258H348.954V218.255Z" fill="white"/>
<path d="M348.954 229.559H307.852V232.562H348.954V229.559Z" fill="white"/>
<path d="M348.004 182.833H217.945V185.835H348.004V182.833Z" fill="#1E9AFF"/>
<g filter="url(#filter3_d_2762_2536)">
<path d="M105.551 167.791H36.6495C29.9784 167.791 24.5703 173.199 24.5703 179.87V248.772C24.5703 255.443 29.9784 260.851 36.6495 260.851H105.551C112.222 260.851 117.631 255.443 117.631 248.772V179.87C117.631 173.199 112.222 167.791 105.551 167.791Z" fill="url(#paint8_linear_2762_2536)"/>
</g>
<g filter="url(#filter4_d_2762_2536)">
<path d="M92.535 214.26C92.535 212.793 92.3855 211.352 92.1002 209.966L99.2879 205.809L92.5486 194.151L85.3744 198.295C83.2004 196.352 80.6324 194.844 77.8062 193.906V185.645H64.3411V193.906C63.0774 194.327 61.8818 194.844 60.7404 195.482C60.6045 195.55 60.4687 195.632 60.3328 195.713C60.1969 195.795 60.061 195.863 59.9252 195.944C58.811 196.624 57.7512 197.398 56.7593 198.281L49.5987 194.151L42.8594 205.809L50.0199 209.939C49.7482 211.23 49.5987 212.548 49.5716 213.852C49.5716 214.016 49.5716 214.165 49.5716 214.328C49.5716 214.478 49.5716 214.627 49.5716 214.79C49.5987 216.094 49.7482 217.399 50.0199 218.703L42.8594 222.834L49.5987 234.492L56.7593 230.361C58.9876 232.345 61.5692 233.812 64.3411 234.723V242.998H77.8062V234.696C79.1514 234.247 80.4693 233.649 81.7466 232.916C83.0509 232.155 84.2466 231.285 85.3336 230.32L92.5486 234.478L99.2879 222.82L92.073 218.662C92.3719 217.236 92.5214 215.768 92.5214 214.26H92.535ZM79.9123 223.758C79.9123 223.758 79.79 223.866 79.7356 223.921C79.5046 224.125 79.2601 224.328 79.0155 224.519C78.9068 224.614 78.7845 224.695 78.6622 224.777C78.4584 224.926 78.2546 225.062 78.0508 225.198C77.8877 225.307 77.7111 225.402 77.548 225.511C77.3714 225.606 77.2084 225.701 77.0317 225.796C76.8143 225.905 76.5833 226.013 76.3659 226.122C76.2301 226.176 76.0942 226.244 75.9719 226.299C75.6866 226.421 75.3876 226.53 75.0887 226.625C75.0072 226.652 74.9393 226.679 74.8577 226.693C73.662 227.059 72.412 227.25 71.094 227.25C63.9335 227.25 58.118 221.448 58.118 214.274C58.118 212.521 58.4713 210.85 59.0963 209.328C59.1235 209.26 59.1507 209.192 59.1914 209.11C59.3137 208.839 59.436 208.581 59.5719 208.322C59.6534 208.159 59.7485 207.996 59.8436 207.833C59.9388 207.67 60.0339 207.521 60.129 207.358C60.292 207.113 60.4415 206.869 60.6181 206.638C60.6589 206.57 60.7132 206.515 60.754 206.447C61.7595 205.143 63.0367 204.002 64.5449 203.118C70.7543 199.531 78.6758 201.665 82.2629 207.86C82.9151 208.988 83.3771 210.184 83.6624 211.393C83.676 211.475 83.6896 211.543 83.7167 211.624C83.7847 211.937 83.839 212.236 83.8798 212.548C83.8934 212.698 83.9205 212.833 83.9341 212.983C83.9613 213.227 83.9749 213.472 83.9885 213.73C83.9885 213.92 83.9885 214.124 83.9885 214.314C83.9885 214.518 83.9885 214.708 83.9885 214.912C83.9885 215.157 83.9613 215.401 83.9341 215.646C83.9205 215.796 83.907 215.931 83.8798 216.081C83.839 216.393 83.7847 216.692 83.7167 217.005C83.7032 217.086 83.6896 217.154 83.6624 217.236C83.3771 218.445 82.9151 219.641 82.2629 220.769C81.6107 221.896 80.809 222.902 79.8987 223.744L79.9123 223.758Z" fill="white"/>
</g>
<g filter="url(#filter5_d_2762_2536)">
<path d="M213.024 282.034H119.978C113.306 282.034 107.898 287.442 107.898 294.113V350.936C107.898 357.607 113.306 363.015 119.978 363.015H213.024C219.695 363.015 225.104 357.607 225.104 350.936V294.113C225.104 287.442 219.695 282.034 213.024 282.034Z" fill="url(#paint9_linear_2762_2536)"/>
</g>
<g filter="url(#filter6_d_2762_2536)">
<path d="M149.545 303.435L127.492 322.525L149.545 341.629V331.275L139.449 322.525L149.545 313.775V303.435Z" fill="white"/>
<path d="M183.461 341.629L205.513 322.525L183.461 303.435V313.775L193.556 322.525L183.461 331.275V341.629Z" fill="white"/>
<path d="M164.364 347.852H155.016L168.63 297.198H177.965L164.364 347.852Z" fill="white"/>
</g>
<g filter="url(#filter7_d_2762_2536)">
<path d="M526.455 59.3911H421.329C414.658 59.3911 409.25 64.7992 409.25 71.4703V176.596C409.25 183.267 414.658 188.675 421.329 188.675H526.455C533.126 188.675 538.534 183.267 538.534 176.596V71.4703C538.534 64.7992 533.126 59.3911 526.455 59.3911Z" fill="url(#paint10_linear_2762_2536)"/>
</g>
<g filter="url(#filter8_d_2762_2536)">
<path d="M505.917 100.18C503.254 100.18 500.726 100.778 498.471 101.838C495.373 90.7777 485.237 82.666 473.185 82.666C461.133 82.666 451.323 90.5195 448.048 101.308C446.119 100.574 444.04 100.18 441.866 100.18C432.191 100.18 424.352 108.02 424.352 117.694H523.431C523.431 108.02 515.591 100.18 505.917 100.18Z" fill="white"/>
<path d="M455.656 147.165L473.877 165.386L492.098 147.165H479.828V125.67H467.939V147.165H455.656Z" fill="white"/>
</g>
<g filter="url(#filter9_d_2762_2536)">
<path d="M105.551 53.5347H36.6495C29.9784 53.5347 24.5703 58.9427 24.5703 65.6139V134.516C24.5703 141.187 29.9784 146.595 36.6495 146.595H105.551C112.222 146.595 117.631 141.187 117.631 134.516V65.6139C117.631 58.9427 112.222 53.5347 105.551 53.5347Z" fill="url(#paint11_linear_2762_2536)"/>
</g>
<path d="M106.638 64.5264H35.5625V135.602H106.638V64.5264Z" fill="#3D3D89"/>
<path d="M54.1137 78.3721H47.5781V81.3749H54.1137V78.3721Z" fill="white"/>
<path d="M90.9933 78.3721H57.5547V81.3749H90.9933V78.3721Z" fill="#1E9AFF"/>
<path d="M57.7415 88.4541H47.5781V91.4569H57.7415V88.4541Z" fill="white"/>
<path d="M94.6027 88.4541H61.1641V91.4569H94.6027V88.4541Z" fill="#1E9AFF"/>
<path d="M54.1137 107.436H47.5781V110.438H54.1137V107.436Z" fill="white"/>
<path d="M90.9933 107.436H57.5547V110.438H90.9933V107.436Z" fill="#1E9AFF"/>
<path d="M57.7415 117.531H47.5781V120.534H57.7415V117.531Z" fill="white"/>
<path d="M94.6027 117.531H61.1641V120.534H94.6027V117.531Z" fill="#1E9AFF"/>
<path d="M51.7103 98.5493H41.5469V101.552H51.7103V98.5493Z" fill="white"/>
<path d="M100.651 98.5493H55.1328V101.552H100.651V98.5493Z" fill="#1E9AFF"/>
<g style="mix-blend-mode:multiply">
<path d="M305.842 279.493H278.586V306.75H305.842V279.493Z" fill="#A7C8FF"/>
</g>
<g style="mix-blend-mode:multiply">
<path d="M345.444 279.493H318.188V306.75H345.444V279.493Z" fill="#A7C8FF"/>
</g>
<g style="mix-blend-mode:multiply">
<path d="M385.045 279.493H357.789V306.75H385.045V279.493Z" fill="#A7C8FF"/>
</g>
<g style="mix-blend-mode:multiply">
<path d="M439.321 205.456H398.219V208.458H439.321V205.456Z" fill="#A7C8FF"/>
</g>
<g style="mix-blend-mode:multiply">
<path d="M439.321 216.76H398.219V219.763H439.321V216.76Z" fill="#A7C8FF"/>
</g>
<g style="mix-blend-mode:multiply">
<path d="M439.321 228.051H398.219V231.054H439.321V228.051Z" fill="#A7C8FF"/>
</g>
<defs>
<filter id="filter0_d_2762_2536" x="400.309" y="320.986" width="99.6247" height="99.6242" filterUnits="userSpaceOnUse" color-interpolation-filters="sRGB">
<feFlood flood-opacity="0" result="BackgroundImageFix"/>
<feColorMatrix in="SourceAlpha" type="matrix" values="0 0 0 0 0 0 0 0 0 0 0 0 0 0 0 0 0 0 127 0" result="hardAlpha"/>
<feOffset dy="8.89"/>
<feGaussianBlur stdDeviation="5.33"/>
<feColorMatrix type="matrix" values="0 0 0 0 0.0666667 0 0 0 0 0.447059 0 0 0 0 0.835294 0 0 0 0.4 0"/>
<feBlend mode="normal" in2="BackgroundImageFix" result="effect1_dropShadow_2762_2536"/>
<feBlend mode="normal" in="SourceGraphic" in2="effect1_dropShadow_2762_2536" result="shape"/>
</filter>
<filter id="filter1_d_2762_2536" x="412.656" y="328.191" width="74.9453" height="74.9478" filterUnits="userSpaceOnUse" color-interpolation-filters="sRGB">
<feFlood flood-opacity="0" result="BackgroundImageFix"/>
<feColorMatrix in="SourceAlpha" type="matrix" values="0 0 0 0 0 0 0 0 0 0 0 0 0 0 0 0 0 0 127 0" result="hardAlpha"/>
<feOffset dy="3.75"/>
<feGaussianBlur stdDeviation="3.75"/>
<feColorMatrix type="matrix" values="0 0 0 0 0.117647 0 0 0 0 0.521569 0 0 0 0 1 0 0 0 0.4 0"/>
<feBlend mode="normal" in2="BackgroundImageFix" result="effect1_dropShadow_2762_2536"/>
<feBlend mode="normal" in="SourceGraphic" in2="effect1_dropShadow_2762_2536" result="shape"/>
</filter>
<filter id="filter2_d_2762_2536" x="133.699" y="105.639" width="259.304" height="174.763" filterUnits="userSpaceOnUse" color-interpolation-filters="sRGB">
<feFlood flood-opacity="0" result="BackgroundImageFix"/>
<feColorMatrix in="SourceAlpha" type="matrix" values="0 0 0 0 0 0 0 0 0 0 0 0 0 0 0 0 0 0 127 0" result="hardAlpha"/>
<feOffset dy="8.89"/>
<feGaussianBlur stdDeviation="5.33"/>
<feColorMatrix type="matrix" values="0 0 0 0 0.117647 0 0 0 0 0.521569 0 0 0 0 1 0 0 0 0.4 0"/>
<feBlend mode="normal" in2="BackgroundImageFix" result="effect1_dropShadow_2762_2536"/>
<feBlend mode="normal" in="SourceGraphic" in2="effect1_dropShadow_2762_2536" result="shape"/>
</filter>
<filter id="filter3_d_2762_2536" x="13.9103" y="166.021" width="114.382" height="114.38" filterUnits="userSpaceOnUse" color-interpolation-filters="sRGB">
<feFlood flood-opacity="0" result="BackgroundImageFix"/>
<feColorMatrix in="SourceAlpha" type="matrix" values="0 0 0 0 0 0 0 0 0 0 0 0 0 0 0 0 0 0 127 0" result="hardAlpha"/>
<feOffset dy="8.89"/>
<feGaussianBlur stdDeviation="5.33"/>
<feColorMatrix type="matrix" values="0 0 0 0 0.117647 0 0 0 0 0.521569 0 0 0 0 1 0 0 0 0.4 0"/>
<feBlend mode="normal" in2="BackgroundImageFix" result="effect1_dropShadow_2762_2536"/>
<feBlend mode="normal" in="SourceGraphic" in2="effect1_dropShadow_2762_2536" result="shape"/>
</filter>
<filter id="filter4_d_2762_2536" x="35.3594" y="181.895" width="71.4297" height="72.3525" filterUnits="userSpaceOnUse" color-interpolation-filters="sRGB">
<feFlood flood-opacity="0" result="BackgroundImageFix"/>
<feColorMatrix in="SourceAlpha" type="matrix" values="0 0 0 0 0 0 0 0 0 0 0 0 0 0 0 0 0 0 127 0" result="hardAlpha"/>
<feOffset dy="3.75"/>
<feGaussianBlur stdDeviation="3.75"/>
<feColorMatrix type="matrix" values="0 0 0 0 0.117647 0 0 0 0 0.521569 0 0 0 0 1 0 0 0 0.4 0"/>
<feBlend mode="normal" in2="BackgroundImageFix" result="effect1_dropShadow_2762_2536"/>
<feBlend mode="normal" in="SourceGraphic" in2="effect1_dropShadow_2762_2536" result="shape"/>
</filter>
<filter id="filter5_d_2762_2536" x="97.2384" y="280.264" width="138.523" height="102.301" filterUnits="userSpaceOnUse" color-interpolation-filters="sRGB">
<feFlood flood-opacity="0" result="BackgroundImageFix"/>
<feColorMatrix in="SourceAlpha" type="matrix" values="0 0 0 0 0 0 0 0 0 0 0 0 0 0 0 0 0 0 127 0" result="hardAlpha"/>
<feOffset dy="8.89"/>
<feGaussianBlur stdDeviation="5.33"/>
<feColorMatrix type="matrix" values="0 0 0 0 0.117647 0 0 0 0 0.521569 0 0 0 0 1 0 0 0 0.4 0"/>
<feBlend mode="normal" in2="BackgroundImageFix" result="effect1_dropShadow_2762_2536"/>
<feBlend mode="normal" in="SourceGraphic" in2="effect1_dropShadow_2762_2536" result="shape"/>
</filter>
<filter id="filter6_d_2762_2536" x="119.992" y="293.448" width="93.0234" height="65.6538" filterUnits="userSpaceOnUse" color-interpolation-filters="sRGB">
<feFlood flood-opacity="0" result="BackgroundImageFix"/>
<feColorMatrix in="SourceAlpha" type="matrix" values="0 0 0 0 0 0 0 0 0 0 0 0 0 0 0 0 0 0 127 0" result="hardAlpha"/>
<feOffset dy="3.75"/>
<feGaussianBlur stdDeviation="3.75"/>
<feColorMatrix type="matrix" values="0 0 0 0 0.117647 0 0 0 0 0.521569 0 0 0 0 1 0 0 0 0.4 0"/>
<feBlend mode="normal" in2="BackgroundImageFix" result="effect1_dropShadow_2762_2536"/>
<feBlend mode="normal" in="SourceGraphic" in2="effect1_dropShadow_2762_2536" result="shape"/>
</filter>
<filter id="filter7_d_2762_2536" x="398.59" y="57.6211" width="150.601" height="150.604" filterUnits="userSpaceOnUse" color-interpolation-filters="sRGB">
<feFlood flood-opacity="0" result="BackgroundImageFix"/>
<feColorMatrix in="SourceAlpha" type="matrix" values="0 0 0 0 0 0 0 0 0 0 0 0 0 0 0 0 0 0 127 0" result="hardAlpha"/>
<feOffset dy="8.89"/>
<feGaussianBlur stdDeviation="5.33"/>
<feColorMatrix type="matrix" values="0 0 0 0 0.117647 0 0 0 0 0.521569 0 0 0 0 1 0 0 0 0.4 0"/>
<feBlend mode="normal" in2="BackgroundImageFix" result="effect1_dropShadow_2762_2536"/>
<feBlend mode="normal" in="SourceGraphic" in2="effect1_dropShadow_2762_2536" result="shape"/>
</filter>
<filter id="filter8_d_2762_2536" x="416.852" y="78.916" width="114.078" height="97.7197" filterUnits="userSpaceOnUse" color-interpolation-filters="sRGB">
<feFlood flood-opacity="0" result="BackgroundImageFix"/>
<feColorMatrix in="SourceAlpha" type="matrix" values="0 0 0 0 0 0 0 0 0 0 0 0 0 0 0 0 0 0 127 0" result="hardAlpha"/>
<feOffset dy="3.75"/>
<feGaussianBlur stdDeviation="3.75"/>
<feColorMatrix type="matrix" values="0 0 0 0 0.117647 0 0 0 0 0.521569 0 0 0 0 1 0 0 0 0.4 0"/>
<feBlend mode="normal" in2="BackgroundImageFix" result="effect1_dropShadow_2762_2536"/>
<feBlend mode="normal" in="SourceGraphic" in2="effect1_dropShadow_2762_2536" result="shape"/>
</filter>
<filter id="filter9_d_2762_2536" x="13.9103" y="51.7647" width="114.382" height="114.38" filterUnits="userSpaceOnUse" color-interpolation-filters="sRGB">
<feFlood flood-opacity="0" result="BackgroundImageFix"/>
<feColorMatrix in="SourceAlpha" type="matrix" values="0 0 0 0 0 0 0 0 0 0 0 0 0 0 0 0 0 0 127 0" result="hardAlpha"/>
<feOffset dy="8.89"/>
<feGaussianBlur stdDeviation="5.33"/>
<feColorMatrix type="matrix" values="0 0 0 0 0.117647 0 0 0 0 0.521569 0 0 0 0 1 0 0 0 0.4 0"/>
<feBlend mode="normal" in2="BackgroundImageFix" result="effect1_dropShadow_2762_2536"/>
<feBlend mode="normal" in="SourceGraphic" in2="effect1_dropShadow_2762_2536" result="shape"/>
</filter>
<linearGradient id="paint0_linear_2762_2536" x1="236.074" y1="368.668" x2="316.104" y2="448.698" gradientUnits="userSpaceOnUse">
<stop offset="0.23" stop-color="#A7C8FF"/>
<stop offset="0.45" stop-color="#AACAFF"/>
<stop offset="0.67" stop-color="#B6D2FF"/>
<stop offset="0.89" stop-color="#CAE0FF"/>
<stop offset="1" stop-color="#D8E9FF"/>
</linearGradient>
<linearGradient id="paint1_linear_2762_2536" x1="129.084" y1="139.163" x2="423.089" y2="433.154" gradientUnits="userSpaceOnUse">
<stop stop-color="#D8E9FF"/>
<stop offset="1" stop-color="#A7C8FF"/>
</linearGradient>
<linearGradient id="paint2_linear_2762_2536" x1="141.999" y1="103.211" x2="410.84" y2="372.051" gradientUnits="userSpaceOnUse">
<stop stop-color="#562BFF"/>
<stop offset="1" stop-color="#7DA5FF"/>
</linearGradient>
<linearGradient id="paint3_linear_2762_2536" x1="268.106" y1="363.45" x2="284.058" y2="379.401" gradientUnits="userSpaceOnUse">
<stop stop-color="#A7C8FF"/>
<stop offset="1" stop-color="#D8E9FF"/>
</linearGradient>
<linearGradient id="paint4_linear_2762_2536" x1="228.942" y1="378.817" x2="323.212" y2="473.087" gradientUnits="userSpaceOnUse">
<stop stop-color="#A7C8FF"/>
<stop offset="1" stop-color="#73ABFF"/>
</linearGradient>
<linearGradient id="paint5_linear_2762_2536" x1="382.951" y1="294.372" x2="517.289" y2="428.697" gradientUnits="userSpaceOnUse">
<stop stop-color="#562BFF"/>
<stop offset="1" stop-color="#7DA5FF"/>
</linearGradient>
<linearGradient id="paint6_linear_2762_2536" x1="414.501" y1="326.289" x2="485.74" y2="397.528" gradientUnits="userSpaceOnUse">
<stop stop-color="#35FFFF" stop-opacity="0.5"/>
<stop offset="1" stop-color="#35E6BB"/>
</linearGradient>
<linearGradient id="paint7_linear_2762_2536" x1="169.021" y1="89.7994" x2="357.668" y2="278.447" gradientUnits="userSpaceOnUse">
<stop stop-color="#35C9E2" stop-opacity="0.5"/>
<stop offset="1" stop-color="#35E6BB"/>
</linearGradient>
<linearGradient id="paint8_linear_2762_2536" x1="28.103" y1="171.324" x2="114.084" y2="257.305" gradientUnits="userSpaceOnUse">
<stop stop-color="#35C9E2" stop-opacity="0.5"/>
<stop offset="1" stop-color="#35E6BB"/>
</linearGradient>
<linearGradient id="paint9_linear_2762_2536" x1="120.494" y1="276.518" x2="212.508" y2="368.532" gradientUnits="userSpaceOnUse">
<stop stop-color="#35C9E2" stop-opacity="0.5"/>
<stop offset="1" stop-color="#35E6BB"/>
</linearGradient>
<linearGradient id="paint10_linear_2762_2536" x1="412.783" y1="62.9238" x2="535.002" y2="185.143" gradientUnits="userSpaceOnUse">
<stop stop-color="#35C9E2" stop-opacity="0.5"/>
<stop offset="1" stop-color="#35E6BB"/>
</linearGradient>
<linearGradient id="paint11_linear_2762_2536" x1="28.103" y1="57.081" x2="114.084" y2="143.062" gradientUnits="userSpaceOnUse">
<stop stop-color="#35C9E2" stop-opacity="0.5"/>
<stop offset="1" stop-color="#35E6BB"/>
</linearGradient>
</defs>
</svg>
