<svg width="681" height="392" viewBox="0 0 681 392" fill="none" xmlns="http://www.w3.org/2000/svg">
<rect width="506" height="329" transform="translate(109 24)" fill="white"/>
<path d="M397.65 253.593C396.676 253 395.827 252.205 395.152 251.242C394.841 250.798 394.577 250.328 394.359 249.843H283.662V140.733H433.918V211.978C437.126 212.268 439.817 214.375 440.947 217.26C441.948 216.711 443.063 216.372 444.235 216.269C445.028 216.2 445.815 216.249 446.579 216.4V113.552C446.579 107.733 441.847 103 436.029 103H281.551C275.733 103 271 107.733 271 113.552V251.954C271 257.772 275.733 262.505 281.551 262.505H396.688C395.79 260.686 395.577 258.632 396.105 256.656C396.41 255.519 396.938 254.482 397.65 253.593ZM422.331 120.718C422.331 118.567 424.076 116.822 426.227 116.822H430.123C432.275 116.822 434.019 118.566 434.019 120.718V125.134C434.019 127.286 432.275 129.03 430.123 129.03H426.227C424.075 129.03 422.331 127.286 422.331 125.134V120.718ZM404.215 120.718C404.215 118.567 405.96 116.822 408.111 116.822H412.007C414.16 116.822 415.903 118.566 415.903 120.718V125.134C415.903 127.286 414.159 129.03 412.007 129.03H408.111C405.96 129.03 404.215 127.286 404.215 125.134V120.718ZM386.099 120.718C386.099 118.567 387.844 116.822 389.995 116.822H393.891C396.043 116.822 397.787 118.566 397.787 120.718V125.134C397.787 127.286 396.043 129.03 393.891 129.03H389.995C387.844 129.03 386.099 127.286 386.099 125.134V120.718Z" fill="black"/>
<path d="M458.977 246.162L457.807 239.523C457.649 238.629 456.797 238.032 455.902 238.189L449.998 239.23C449.289 237.567 448.384 236.009 447.309 234.583L451.166 229.986C451.446 229.653 451.582 229.221 451.545 228.786C451.506 228.351 451.297 227.95 450.963 227.669L445.799 223.336C445.465 223.056 445.032 222.919 444.598 222.958C444.163 222.996 443.762 223.205 443.482 223.539L439.629 228.132C438.047 227.326 436.355 226.705 434.583 226.295V220.299C434.583 219.391 433.847 218.654 432.939 218.654H426.196C425.289 218.654 424.552 219.391 424.552 220.299V226.295C422.779 226.704 421.089 227.326 419.506 228.132L415.652 223.539C415.069 222.843 414.032 222.753 413.336 223.336L408.171 227.669C407.837 227.95 407.628 228.351 407.59 228.786C407.552 229.221 407.688 229.653 407.969 229.987L411.826 234.583C410.753 236.009 409.846 237.568 409.137 239.23L403.233 238.189C402.34 238.032 401.487 238.629 401.328 239.523L400.158 246.162C400.082 246.592 400.18 247.033 400.43 247.391C400.681 247.749 401.061 247.992 401.491 248.067L407.399 249.109C407.495 250.939 407.814 252.71 408.327 254.397L403.134 257.394C402.756 257.611 402.481 257.971 402.368 258.392C402.255 258.813 402.314 259.262 402.532 259.64L405.903 265.478C406.12 265.856 406.48 266.131 406.9 266.244C407.041 266.282 407.183 266.3 407.326 266.3C407.612 266.3 407.896 266.226 408.148 266.08L413.345 263.079C414.568 264.388 415.947 265.549 417.455 266.53L415.403 272.168C415.254 272.578 415.274 273.03 415.458 273.425C415.643 273.821 415.976 274.127 416.386 274.275L422.72 276.58C422.901 276.647 423.092 276.681 423.282 276.681C423.52 276.681 423.758 276.629 423.978 276.526C424.373 276.342 424.678 276.008 424.827 275.598L426.879 269.96C427.759 270.067 428.654 270.122 429.563 270.122C430.471 270.122 431.366 270.066 432.246 269.96L434.298 275.598C434.447 276.008 434.753 276.342 435.148 276.526C435.367 276.629 435.605 276.681 435.843 276.681C436.033 276.681 436.224 276.648 436.406 276.58L442.74 274.275C443.149 274.127 443.483 273.82 443.667 273.425C443.852 273.03 443.871 272.578 443.722 272.168L441.67 266.531C443.177 265.55 444.556 264.388 445.78 263.08L450.977 266.081C451.229 266.226 451.513 266.301 451.799 266.301C451.941 266.301 452.086 266.282 452.225 266.245C452.646 266.132 453.005 265.856 453.223 265.479L456.593 259.64C456.811 259.263 456.871 258.813 456.758 258.392C456.644 257.972 456.369 257.612 455.991 257.394L450.799 254.398C451.312 252.711 451.63 250.94 451.726 249.109L457.635 248.068C458.065 247.992 458.446 247.749 458.696 247.391C458.955 247.033 459.053 246.592 458.977 246.162ZM429.568 256.713C424.574 256.713 420.525 252.663 420.525 247.669C420.525 242.674 424.574 238.625 429.568 238.625C434.562 238.625 438.612 242.674 438.612 247.669C438.612 252.663 434.562 256.713 429.568 256.713Z" fill="black"/>
<path d="M344.734 201.215C344.734 199.088 343.487 197.134 341.557 196.237L323.893 188.03L341.558 179.822C343.487 178.925 344.734 176.971 344.734 174.845V174.702C344.734 172.817 343.785 171.087 342.198 170.076C341.319 169.515 340.296 169.218 339.24 169.218C338.444 169.218 337.645 169.393 336.93 169.725L308.691 182.857C306.762 183.754 305.516 185.708 305.516 187.834V188.227C305.516 190.35 306.761 192.303 308.691 193.204L336.933 206.338C337.664 206.676 338.441 206.847 339.244 206.847C340.291 206.847 341.311 206.55 342.198 205.986C343.786 204.971 344.734 203.242 344.734 201.359L344.734 201.215Z" fill="black"/>
<path d="M372.595 155.837C371.565 154.427 369.908 153.585 368.162 153.585H368.022C365.625 153.585 363.523 155.118 362.793 157.398L344.187 215.048C343.657 216.712 343.956 218.546 344.984 219.955C346.015 221.365 347.671 222.207 349.417 222.207H349.558C351.954 222.207 354.054 220.673 354.784 218.394L373.387 160.748C373.922 159.085 373.626 157.249 372.595 155.837Z" fill="black"/>
<path d="M408.894 182.857L380.654 169.725C379.941 169.394 379.143 169.219 378.347 169.219C377.292 169.219 376.268 169.515 375.39 170.075C373.8 171.088 372.852 172.818 372.852 174.703V174.845C372.852 176.97 374.097 178.924 376.029 179.825L393.692 188.031L376.028 196.238C374.098 197.134 372.852 199.088 372.852 201.216V201.359C372.852 203.242 373.8 204.971 375.39 205.987C376.273 206.55 377.294 206.848 378.342 206.848C379.144 206.848 379.921 206.676 380.656 206.337L408.898 193.203C410.826 192.304 412.071 190.351 412.071 188.228V187.835C412.069 185.709 410.824 183.755 408.894 182.857Z" fill="black"/>
<path d="M585.898 13H136.102C113.402 13 95 29.4723 95 49.7918V324.208C95 344.528 113.402 361 136.102 361H585.898C608.598 361 627 344.528 627 324.208V49.7918C627 29.4723 608.598 13 585.898 13Z" stroke="black" stroke-width="26" stroke-linejoin="round"/>
<path d="M54 379H668" stroke="black" stroke-width="26" stroke-miterlimit="10" stroke-linecap="round"/>
<path d="M4.86337 310H43.1366C45.8223 310 48 308.171 48 305.914V244.086C48 241.83 45.8223 240 43.1366 240H4.86337C2.17774 240 0 241.83 0 244.086V305.914C0 308.171 2.17774 310 4.86337 310Z" fill="#FFB700" fill-opacity="0.7"/>
<path d="M74.8642 310H113.136C115.821 310 118 308.178 118 305.93V201.07C118 198.822 115.821 197 113.136 197H74.8642C72.1777 197 70 198.822 70 201.07V305.93C70 308.178 72.1777 310 74.8642 310Z" fill="#FFB700" fill-opacity="0.9"/>
<path d="M143.864 310H182.136C184.822 310 187 308.171 187 305.914V151.087C187 148.83 184.822 147 182.136 147H143.864C141.178 147 139 148.83 139 151.087V305.914C139 308.171 141.178 310 143.864 310Z" fill="#FFB700"/>
</svg>
