<svg width="588" height="430" viewBox="0 0 588 430" fill="none" xmlns="http://www.w3.org/2000/svg">
<path d="M254.771 92.2188C234.969 20.3859 145.736 -2.75461 94.5965 50.9303C93.8616 51.7007 93.1292 52.4851 92.3955 53.2821C19.0801 132.979 53.7148 329.375 206.722 379.154C359.729 428.932 518.877 338.032 527.818 256.775C536.759 175.517 466.169 149.984 356.621 172.706C294.729 185.542 267.097 136.936 254.771 92.2188Z" fill="#BBE2F2"/>
<path d="M382.049 104.505C361.577 107.838 355.904 125.976 371.71 138.842C376.934 143.095 384.395 146.629 395.024 148.391C435.514 155.108 457.001 137.194 440.77 113.967C430.754 99.6318 402.335 101.203 382.049 104.505Z" fill="#BBE2F2"/>
<path d="M55.6374 249.648C42.9102 233.27 24.2706 236.973 20.5414 257.01C19.3085 263.633 19.7786 271.875 23.319 282.051C36.8064 320.816 62.8208 331.104 75.4428 305.734C83.2344 290.076 68.2505 265.878 55.6374 249.648Z" fill="#BBE2F2"/>
<path d="M542.246 266.217C540.361 276.09 548.512 283.083 557.75 279.278C560.802 278.021 563.883 275.597 566.622 271.334C577.058 255.098 571.773 241.172 557.242 242.602C548.273 243.485 544.115 256.434 542.246 266.217Z" fill="#BBE2F2"/>
<path d="M490.492 162.037C500.331 164.091 507.462 156.059 503.815 146.759C502.61 143.685 500.238 140.564 496.024 137.752C479.97 127.041 465.954 132.088 467.136 146.642C467.866 155.624 480.741 160.002 490.492 162.037Z" fill="#BBE2F2"/>
<path d="M251.351 56.39C259.142 62.7409 269.168 58.8926 270.211 48.957C270.556 45.6738 269.887 41.8116 267.439 37.3753C258.114 20.4767 243.349 18.5089 237.7 31.9735C234.214 40.2846 243.632 50.0961 251.351 56.39Z" fill="#BBE2F2"/>
<path d="M566.643 315.604C582.266 299.899 594.163 282.15 582.328 279.384C570.481 276.614 550.586 307.543 547.119 335.696L543.649 344.99C546.535 324.518 539.52 299.581 529.248 298.553C519.043 297.532 525.22 313.707 533.326 327.54C539.496 338.07 541.123 346.377 541.528 350.671L525.142 394.568C529.617 362.136 518.504 322.787 502.253 321.161C486.061 319.542 495.862 345.207 508.722 367.156C518.441 383.743 521.058 396.862 521.725 403.717L518.459 412.47C519.888 413.275 521.321 414.071 522.759 414.858L542.254 362.631C546.015 359.823 551.726 356.43 559.857 353.679C575.045 348.54 590.311 340.37 581.932 334.454C574.661 329.319 557.568 339.202 545.793 353.149L552.536 335.087C555.576 329.859 559.901 322.382 566.643 315.604Z" fill="#1C31B5"/>
<path d="M74.1884 110.711C76.2145 91.7432 74.6369 73.4102 65.1967 77.9313C55.7477 82.4576 59.06 113.954 71.9062 134.728L74.5862 142.841C65.4882 127.537 47.3351 114.572 39.8843 119.417C32.4804 124.233 45.3482 131.766 58.2477 136.686C68.0681 140.432 73.6371 145.134 76.2246 147.799L88.8834 186.113C74.4063 161.92 45.7322 141.486 33.9427 149.153C22.1951 156.794 42.6112 168.747 63.0806 176.555C78.5486 182.455 87.378 189.855 91.5215 194.099L94.0457 201.738C95.4395 201.509 96.8309 201.271 98.2209 201.024L83.161 155.441C84.1734 151.528 86.1793 146.171 90.1568 139.94C97.5873 128.303 103.434 114.587 94.6184 115.129C86.9674 115.601 80.8155 131.453 80.4265 147.165L75.2185 131.402C74.4405 126.25 73.314 118.898 74.1884 110.711Z" fill="#1C31B5"/>
<path d="M461.184 367.776C461.383 368.85 461.612 370.023 461.881 371.27V371.273C464.694 384.352 471.6 405.762 487.139 409.973C487.139 409.973 478.681 365.871 508.826 354.384C538.971 342.898 535.637 331.961 533.914 312.494C532.191 293.027 525.529 289.316 546.446 271.08C567.363 252.845 563.362 225.684 563.362 225.684C563.362 225.684 543.567 256.696 522.425 257.415C501.283 258.135 497.579 276.184 498.481 289.607C499.382 303.029 481.427 304.547 471.71 312.332C461.994 320.117 460.164 361 460.164 361C460.164 361 460.433 363.674 461.184 367.776Z" fill="#009CF8"/>
<path d="M461.184 367.776C461.383 368.85 461.612 370.024 461.881 371.271C464.049 364.708 467.097 359.196 469.952 354.966C476.714 344.947 486.237 336.717 494.802 333.487C508.439 328.349 515.099 314.973 516.389 290.115C517.137 275.688 532.232 267.165 532.387 267.081C532.828 266.837 532.989 266.279 532.744 265.838C532.499 265.395 531.942 265.234 531.501 265.479C530.842 265.842 515.361 274.565 514.561 290.019C513.315 314.049 507.021 326.928 494.157 331.776C485.12 335.181 475.504 343.467 468.434 353.94C465.935 357.643 463.291 362.303 461.184 367.776Z" fill="#FFB700"/>
<path d="M127.516 409.733H148.699C137.253 407.841 108.875 395.659 106.345 371.23C103.14 340.287 92.1211 340.674 73.5562 337.439C54.9901 334.203 49.8759 339.487 38.0877 315.464C26.2995 291.443 0 288.415 0 288.415C0 288.415 23.9705 314.57 19.3834 334.446C14.7964 354.324 30.6914 362.261 43.4211 364.76C56.1508 367.257 53.0995 384.364 57.9362 395.352C60.1435 400.366 69.1795 405.564 78.351 409.733H127.516Z" fill="#FFB700"/>
<path d="M81.6337 379.274C82.5587 388.54 87.887 399.561 95.8865 408.751C96.1678 409.074 96.4605 409.402 96.7596 409.732H99.1697C98.4803 409.006 97.8265 408.289 97.2195 407.59C89.5673 398.799 84.2668 387.88 83.3874 379.097C81.991 365.115 71.1861 355.583 48.3472 348.2C35.0904 343.915 30.9038 327.733 30.8658 327.567C30.7479 327.095 30.2677 326.806 29.7963 326.924C29.3224 327.042 29.0335 327.521 29.1513 327.993C29.3262 328.697 33.6041 345.289 47.8024 349.879C69.8797 357.018 80.3146 366.083 81.6337 379.274Z" fill="#1C31B5"/>
<path d="M138.943 352.307C138.494 353.81 137.986 355.447 137.412 357.186L137.411 357.19C131.388 375.416 119.034 406.114 96.2187 409.732C96.2187 409.732 114.275 346.901 73.0364 325.88C31.7973 304.859 38.2344 289.77 43.6856 262.265C49.1356 234.759 59.2094 230.487 32.1737 201.258C5.13797 172.029 15.0204 133.897 15.0204 133.897C15.0204 133.897 38.4929 181.18 68.5431 185.457C98.5946 189.733 101.102 216.052 97.7532 235.062C94.4041 254.071 119.786 258.995 132.45 271.596C145.114 284.195 141.44 342.799 141.44 342.799C141.44 342.799 140.646 346.57 138.943 352.307Z" fill="#009CF8"/>
<path d="M138.943 352.307C138.494 353.81 137.986 355.447 137.412 357.186C135.329 347.491 131.825 339.158 128.404 332.686C120.298 317.353 107.977 304.149 96.2564 298.225C77.5915 288.798 70.1483 268.693 72.1276 233.034C73.2794 212.337 53.0559 197.857 52.8468 197.716C52.255 197.3 52.1106 196.48 52.5275 195.888C52.9456 195.292 53.7655 195.148 54.3572 195.565C55.2404 196.184 75.9835 211.009 74.7518 233.179C72.8359 267.65 79.8331 286.99 97.4387 295.886C109.807 302.133 122.253 315.431 130.728 331.458C133.722 337.121 136.78 344.175 138.943 352.307Z" fill="#FFB700"/>
<path d="M155.296 394.957C155.365 399.735 155.452 404.706 155.557 409.732H201.63C201.717 404.229 201.785 398.955 201.835 394.007C201.973 380.597 201.99 369.561 201.978 362.702C201.973 357.837 201.953 355.078 201.953 355.078L154.973 354.58C154.973 354.58 154.973 358.639 155.008 365.277C155.039 372.655 155.121 383.217 155.296 394.957Z" fill="#18315B"/>
<path d="M155.008 365.276C155.038 372.655 155.121 383.218 155.295 394.958C169.769 396.063 185.635 396.073 201.835 394.007C201.974 380.597 201.99 369.562 201.979 362.703L155.008 365.276Z" fill="#000B29"/>
<path d="M97.2358 384.364C97.2877 391.875 97.3764 400.477 97.526 409.734H143.603C143.717 404.314 143.808 398.959 143.883 393.844C144.043 382.864 144.125 372.979 144.166 365.873C144.201 358.879 144.201 354.58 144.201 354.58L97.199 355.078C97.199 355.078 97.1636 360.062 97.1737 368.446C97.175 372.88 97.1952 378.26 97.2358 384.364Z" fill="#18315B"/>
<path d="M97.1758 368.447C97.1758 372.88 97.1961 378.259 97.2379 384.364C106.594 387.123 123.343 391.414 143.885 393.844C144.045 382.864 144.127 372.979 144.168 365.873L97.1758 368.447Z" fill="#000B29"/>
<path d="M174.407 107.394C174.407 107.394 181.811 100.264 181.787 93.2225C181.761 86.181 176.975 88.2616 174.407 81.7004C171.838 75.1391 164.206 71.1375 160.021 71.9383C155.836 72.7392 146.999 56.4146 135.014 59.2948C123.028 62.175 124.071 77.5391 118.909 79.7794C113.746 82.0197 115.186 91.1418 117.908 93.2225C120.628 95.3031 121.78 103.664 123.311 103.475C124.84 103.286 174.407 107.394 174.407 107.394Z" fill="#18315B"/>
<path d="M124.578 107.225C124.578 107.225 119.923 101.019 116.462 106.151C113 111.283 117.894 126.44 126.369 122.74L124.578 107.225Z" fill="#F97853"/>
<path d="M124.517 118.057C124.204 118.057 123.916 117.85 123.828 117.533C122.515 112.854 117.666 110.957 117.618 110.938C117.249 110.797 117.063 110.384 117.203 110.014C117.343 109.644 117.757 109.458 118.126 109.599C118.352 109.684 123.695 111.758 125.208 117.147C125.314 117.528 125.092 117.923 124.712 118.03C124.646 118.048 124.58 118.057 124.517 118.057Z" fill="#EA5143"/>
<path d="M119.625 115.698C119.492 115.698 119.357 115.661 119.238 115.584C118.906 115.37 118.81 114.926 119.024 114.595C119.06 114.539 119.918 113.231 121.712 112.428C122.07 112.265 122.496 112.428 122.657 112.789C122.818 113.15 122.657 113.573 122.296 113.734C120.908 114.355 120.234 115.36 120.228 115.369C120.09 115.583 119.859 115.698 119.625 115.698Z" fill="#EA5143"/>
<path d="M172.548 107.225C172.548 107.225 177.202 101.019 180.664 106.151C184.125 111.283 179.232 126.44 170.758 122.74L172.548 107.225Z" fill="#F97853"/>
<path d="M172.608 118.057C172.921 118.057 173.209 117.85 173.297 117.533C174.61 112.854 179.458 110.957 179.507 110.938C179.876 110.797 180.062 110.384 179.922 110.014C179.781 109.644 179.368 109.458 178.999 109.599C178.773 109.684 173.43 111.758 171.917 117.147C171.811 117.528 172.033 117.923 172.414 118.03C172.479 118.048 172.545 118.057 172.608 118.057Z" fill="#EA5143"/>
<path d="M177.498 115.698C177.631 115.698 177.766 115.661 177.885 115.584C178.218 115.37 178.313 114.926 178.099 114.595C178.063 114.539 177.206 113.231 175.411 112.428C175.053 112.265 174.627 112.428 174.465 112.789C174.304 113.15 174.465 113.573 174.826 113.734C176.213 114.355 176.888 115.36 176.894 115.369C177.033 115.583 177.263 115.698 177.498 115.698Z" fill="#EA5143"/>
<path d="M160.025 135.598V150.672C160.025 150.672 155.529 158.35 149.451 158.872C143.377 159.401 137.98 152.262 137.98 152.262V136.659L160.025 135.598Z" fill="#FFA681"/>
<path d="M160.022 135.598V142.287C155.943 146.815 148.698 147.945 137.977 146.362V136.659L160.022 135.598Z" fill="#F97853"/>
<path d="M175.915 96.8846C175.637 102.743 175.078 110.068 173.96 115.926C173.681 117.387 173.366 118.762 173.015 119.993C169.842 131.1 161.908 150.149 139.694 142.214C129.883 138.713 125.336 127.785 123.309 116.67C121.934 109.121 121.726 101.496 121.826 96.0457C121.934 90.4817 124.97 85.3967 129.811 82.6546C142.923 75.2216 156.759 77.9928 165.867 81.4939C172.191 83.923 176.237 90.132 175.915 96.8846Z" fill="#FFA681"/>
<path d="M123.309 116.67C123.309 116.67 125.464 129.512 127.5 134.194C129.54 138.875 135.102 139.758 137.19 143.714C140.169 149.355 144.711 153.827 152.18 151.103C158.396 148.836 158.114 145.658 161.596 143.2C167.562 138.988 170.518 134.352 170.759 130.512C170.999 126.671 173.961 115.926 173.961 115.926L170.759 115.7C170.759 115.7 168.934 119.479 166.251 123.641C163.557 117.726 150.58 122.028 150.58 122.028L148.103 122.83L145.558 122.028C145.558 122.028 132.427 117.909 129.834 124.111C128.245 121.682 126.954 118.95 126.367 116.055L123.309 116.67ZM148.101 124.831C162.985 122.277 160.326 130.991 160.229 131.304V131.309C160.224 131.314 160.224 131.314 160.224 131.314C159.216 132.274 158.188 133.08 157.165 133.633C151.399 136.749 150.775 136.279 148.499 136.379C146.186 136.489 142.992 135.802 139.752 133.993C138.744 133.426 137.237 132.331 135.585 130.824C135.585 130.824 133.247 122.829 148.101 124.831Z" fill="#18315B"/>
<path d="M139.158 109.192C139.158 110.801 138.33 112.105 137.306 112.105C136.283 112.105 135.453 110.801 135.453 109.192C135.453 107.583 136.283 106.279 137.306 106.279C138.328 106.279 139.158 107.583 139.158 109.192Z" fill="#18315B"/>
<path d="M161.178 109.192C161.178 110.801 160.348 112.105 159.325 112.105C158.303 112.105 157.473 110.801 157.473 109.192C157.473 107.583 158.301 106.279 159.325 106.279C160.348 106.279 161.178 107.583 161.178 109.192Z" fill="#18315B"/>
<path d="M166.615 99.5989C166.615 99.5989 158.96 96.5742 153.066 99.1199L153.656 102.398C153.656 102.398 162.305 101.667 166.664 103.432C167.056 102.17 167.113 100.895 166.615 99.5989Z" fill="#18315B"/>
<path d="M130.224 99.6142C130.224 99.6142 137.935 96.5667 143.871 99.1314L143.277 102.434C143.277 102.434 134.563 101.696 130.172 103.475C129.781 102.204 129.722 100.919 130.224 99.6142Z" fill="#18315B"/>
<path d="M148.814 121.404C150.021 121.404 151.22 120.934 151.406 120.858C151.772 120.709 151.947 120.29 151.798 119.925C151.649 119.559 151.23 119.383 150.865 119.533C150.219 119.795 148.665 120.207 147.992 119.804C147.862 119.727 147.686 119.572 147.64 119.137C147.382 116.636 148.066 108.254 148.074 108.17C148.106 107.776 147.812 107.43 147.418 107.399C147.023 107.366 146.678 107.66 146.647 108.054C146.618 108.403 145.945 116.654 146.217 119.286C146.32 120.276 146.839 120.783 147.259 121.034C147.715 121.307 148.266 121.404 148.814 121.404Z" fill="#F97853"/>
<path d="M139.684 126.264C140.227 129 142.034 134.032 148.121 134.032C154.224 134.032 155.935 129.433 156.523 126.264H139.684Z" fill="white"/>
<path d="M175.917 96.8844C175.638 102.742 175.079 110.068 173.962 115.926L170.761 115.699C170.761 115.699 171.536 110.753 171.895 107.53C172.253 104.307 172.862 98.2833 170.111 97.5319C167.367 96.7868 168.978 89.9151 165.161 86.9361C161.345 83.9494 152.865 81.3214 147.236 84.7883C141.608 88.2475 135.205 86.3354 132.614 86.9361C130.015 87.5304 126.491 91.1113 127.444 94.4553C128.403 97.7916 125.539 99.8267 124.845 103.285C124.15 106.744 126.37 116.052 126.37 116.052L123.313 116.668C121.938 109.12 121.73 101.494 121.83 96.0442C121.938 90.4802 124.974 85.3952 129.814 82.6531C142.927 75.2201 156.763 77.9913 165.871 81.4924C172.193 83.9228 176.239 90.1318 175.917 96.8844Z" fill="#18315B"/>
<path d="M211.69 377.73C197.201 381.399 182.711 383.773 168.211 384.865C167.553 384.913 166.902 384.961 166.244 385.005C164.251 385.14 162.258 385.251 160.266 385.338C150.404 385.762 140.539 385.596 130.673 384.836C128.684 384.682 126.697 384.506 124.708 384.302C124.073 384.241 123.437 384.174 122.798 384.101C111.02 382.823 99.2445 380.696 87.4563 377.73C87.3384 366.871 87.4727 332.542 88.1392 295.314C88.2165 290.839 88.3027 286.323 88.4015 281.801C89.4457 232.736 91.4604 182.931 95.0857 177.942C98.5602 173.168 109.033 167.099 119.045 161.625C119.642 161.3 120.24 160.974 120.833 160.651C123.084 159.428 125.284 158.243 127.355 157.118C131.791 154.704 135.616 152.558 137.98 150.9V152.264C137.98 152.264 143.37 159.399 149.445 158.872C154.982 158.397 159.198 151.999 159.914 150.852C162.527 152.692 167.218 155.227 172.656 158.101C174.17 158.903 175.735 159.723 177.332 160.57C177.92 160.879 178.51 161.192 179.105 161.509C190.177 167.382 202.115 174.003 205.698 178.924C205.967 179.288 206.221 179.899 206.465 180.735C208.586 187.915 209.901 211.739 210.702 240.591C210.706 240.694 210.708 240.799 210.712 240.904C210.748 242.07 210.776 243.244 210.805 244.427C210.811 244.58 210.814 244.737 210.817 244.893C211.08 255.013 211.277 265.668 211.431 276.374C211.443 277.223 211.46 278.073 211.469 278.922C211.472 279.35 211.479 279.771 211.481 280.199C211.517 282.306 211.538 284.415 211.559 286.513C211.581 288.062 211.6 289.608 211.613 291.157C212.014 329.853 211.85 366.353 211.69 377.73Z" fill="#FFB700"/>
<path d="M210.805 244.428C207.317 238.734 203.574 232.921 200.048 227.779C200.038 227.766 200.029 227.754 200.022 227.741C198.541 225.582 197.1 223.544 195.731 221.683C195.708 221.647 195.686 221.616 195.661 221.587C195.233 221.002 194.808 220.434 194.393 219.881C194.325 219.785 194.275 219.686 194.243 219.581L194.239 219.577C194.128 219.203 194.252 218.789 194.581 218.539C195.006 218.216 195.61 218.3 195.93 218.724C200.164 224.335 205.581 232.403 210.703 240.591C210.707 240.694 210.709 240.799 210.713 240.904C210.747 242.071 210.775 243.247 210.805 244.428Z" fill="#4E3800"/>
<path d="M205.85 178.133C205.85 178.133 227.701 218.167 241.022 238.458C241.022 238.458 248.597 231.499 258.449 222.189C269.131 212.095 283.739 195.226 283.739 195.226L291.824 204.813C291.824 204.813 259 263.881 244.278 271.305C229.555 278.729 202.426 226.185 202.426 226.185L205.85 178.133Z" fill="#FFB700"/>
<path d="M113.327 335.917C113.314 335.917 113.303 335.917 113.291 335.917C112.747 335.898 112.32 335.44 112.339 334.894C113.484 302.563 96.7198 292.088 96.55 291.987C96.0837 291.706 95.9304 291.099 96.2104 290.631C96.4904 290.164 97.0949 290.01 97.5637 290.289C97.75 290.399 102.182 293.092 106.474 299.992C110.392 306.289 114.934 317.469 114.313 334.963C114.295 335.497 113.857 335.917 113.327 335.917Z" fill="#4E3800"/>
<path d="M184.848 305.458C184.337 305.458 183.904 305.065 183.863 304.547C183.332 297.739 185.575 292.773 188.415 286.485C189.246 284.645 190.104 282.745 190.983 280.612C196.494 267.248 193.724 251.967 193.696 251.814C193.596 251.278 193.949 250.761 194.486 250.661C195.023 250.559 195.539 250.914 195.639 251.45C195.761 252.098 198.542 267.464 192.811 281.366C191.919 283.529 191.053 285.445 190.216 287.3C187.386 293.565 185.342 298.091 185.834 304.395C185.876 304.939 185.469 305.415 184.925 305.457C184.9 305.457 184.875 305.458 184.848 305.458Z" fill="#4E3800"/>
<path d="M127.352 157.118C127.774 160.301 128.393 164.431 129.07 169.12C129.276 170.513 129.483 171.957 129.695 173.441C130.381 178.285 131.092 183.557 131.697 188.886C131.86 190.317 132.013 191.753 132.158 193.183C132.691 198.46 133.094 203.702 133.239 208.575C133.287 210.049 133.306 211.49 133.297 212.887C133.287 216.608 133.08 220.026 132.629 222.951C132.34 224.8 132.087 226.604 131.861 228.372C131.674 229.836 131.507 231.276 131.357 232.693C130.78 238.191 130.493 243.309 130.412 248.133C130.388 249.598 130.383 251.033 130.398 252.44C130.441 257.918 130.753 263.022 131.204 267.88C131.338 269.334 131.486 270.765 131.641 272.177C132.231 277.487 132.951 282.542 133.629 287.541C133.825 288.971 134.018 290.397 134.206 291.824C134.498 294.108 134.777 296.394 135.016 298.694C135.271 301.133 135.435 303.984 135.511 307.148C135.549 308.531 135.568 309.977 135.573 311.469C135.592 316.198 135.471 321.437 135.251 326.915C135.194 328.345 135.131 329.795 135.06 331.26C134.815 336.348 134.493 341.582 134.133 346.748C134.028 348.203 133.922 349.648 133.811 351.088C133.412 356.466 132.971 361.704 132.524 366.576C132.39 368.055 132.255 369.501 132.121 370.902C131.607 376.265 131.109 381.033 130.671 384.836C140.537 385.595 150.405 385.762 160.266 385.335C160.496 381.288 161.125 374.758 161.744 367.071C161.86 365.665 161.97 364.215 162.08 362.737C162.45 357.849 162.786 352.626 163.006 347.354C163.068 345.909 163.122 344.458 163.16 343.014C163.309 337.751 163.313 332.523 163.087 327.622C163.02 326.133 162.934 324.678 162.819 323.263C162.703 321.813 162.564 320.401 162.397 319.038C161.922 315.187 161.739 311.491 161.763 307.833C161.768 306.383 161.806 304.942 161.874 303.498C162.099 298.485 162.646 293.463 163.28 288.13C163.449 286.713 163.626 285.273 163.803 283.804C164.375 279.061 164.97 274.029 165.441 268.522C165.565 267.111 165.676 265.666 165.781 264.187C166.108 259.463 166.329 254.389 166.363 248.858C166.372 247.432 166.368 245.977 166.349 244.488C166.296 239.701 166.094 234.579 165.705 229.062C165.671 228.573 165.638 228.078 165.6 227.578C165.528 226.613 165.466 225.638 165.423 224.664C165.168 219.632 165.235 214.457 165.519 209.296C165.596 207.847 165.691 206.397 165.803 204.946C166.201 199.78 166.782 194.662 167.454 189.756C167.65 188.296 167.857 186.851 168.069 185.43C168.876 180.052 169.744 174.992 170.541 170.47C170.806 168.982 171.059 167.55 171.3 166.187C171.842 163.133 172.312 160.411 172.658 158.106C167.218 155.23 162.527 152.696 159.916 150.857C159.2 152.005 154.985 158.399 149.444 158.875C143.371 159.404 137.979 152.269 137.979 152.269V150.905C135.613 152.557 131.788 154.704 127.352 157.118Z" fill="white"/>
<path d="M129.07 169.121C129.277 170.514 129.483 171.959 129.695 173.442C135.145 173.567 141.544 172.75 149.255 170.97C157.513 169.069 164.796 169.4 170.537 170.466C170.802 168.978 171.056 167.546 171.296 166.183C165.075 165.035 157.225 164.704 148.285 166.763C140.675 168.517 134.337 169.323 129.07 169.121Z" fill="#E3E3E3"/>
<path d="M131.699 188.888C131.863 190.319 132.016 191.754 132.16 193.185C137.053 193.056 142.68 192.238 149.258 190.717C156.09 189.141 162.264 189.103 167.454 189.751C167.65 188.291 167.857 186.847 168.069 185.425C162.441 184.729 155.744 184.786 148.289 186.506C141.901 187.981 136.409 188.787 131.699 188.888Z" fill="#E3E3E3"/>
<path d="M133.238 208.577C133.286 210.051 133.305 211.491 133.297 212.889C137.92 212.672 143.183 211.866 149.255 210.464C155.256 209.081 160.749 208.884 165.516 209.293C165.593 207.843 165.688 206.394 165.8 204.943C160.672 204.521 154.762 204.76 148.286 206.253C142.586 207.57 137.597 208.353 133.238 208.577Z" fill="#E3E3E3"/>
<path d="M131.359 232.693C136.439 232.636 142.315 231.81 149.258 230.21C155.336 228.809 160.895 228.626 165.706 229.059C165.672 228.569 165.639 228.074 165.601 227.575C165.529 226.609 165.467 225.635 165.424 224.66C160.383 224.281 154.608 224.54 148.288 226C141.975 227.459 136.539 228.256 131.864 228.372C131.676 229.837 131.508 231.277 131.359 232.693Z" fill="#E3E3E3"/>
<path d="M130.395 252.44C135.691 252.483 141.87 251.662 149.254 249.958C155.625 248.489 161.411 248.35 166.361 248.854C166.369 247.428 166.366 245.974 166.347 244.485C161.094 243.999 154.997 244.201 148.285 245.747C141.309 247.355 135.403 248.167 130.41 248.133C130.385 249.598 130.38 251.033 130.395 252.44Z" fill="#E3E3E3"/>
<path d="M131.203 267.881C131.337 269.336 131.486 270.766 131.64 272.178C136.653 272.097 142.443 271.276 149.256 269.706C155.233 268.329 160.702 268.117 165.441 268.52C165.565 267.108 165.677 265.664 165.782 264.185C160.654 263.763 154.754 264.002 148.287 265.495C141.68 267.017 136.025 267.828 131.203 267.881Z" fill="#E3E3E3"/>
<path d="M133.629 287.541C133.825 288.972 134.018 290.397 134.205 291.824C138.609 291.55 143.572 290.763 149.257 289.452C154.345 288.276 159.065 287.954 163.281 288.126C163.45 286.71 163.627 285.269 163.805 283.8C159.157 283.589 153.939 283.935 148.287 285.241C142.751 286.515 137.892 287.291 133.629 287.541Z" fill="#E3E3E3"/>
<path d="M135.512 307.148C135.55 308.531 135.569 309.977 135.574 311.469C139.631 311.128 144.159 310.375 149.256 309.194C153.746 308.161 157.946 307.787 161.763 307.83C161.768 306.381 161.806 304.94 161.873 303.495C157.73 303.452 153.169 303.86 148.286 304.988C143.554 306.079 139.309 306.804 135.512 307.148Z" fill="#E3E3E3"/>
<path d="M135.059 331.26C139.245 330.938 143.936 330.165 149.256 328.941C154.263 327.789 158.916 327.457 163.088 327.621C163.021 326.132 162.934 324.677 162.819 323.262C158.426 323.136 153.544 323.522 148.286 324.73C143.442 325.849 139.116 326.584 135.251 326.915C135.193 328.347 135.131 329.796 135.059 331.26Z" fill="#E3E3E3"/>
<path d="M133.805 351.089C138.303 350.834 143.397 350.037 149.25 348.689C154.228 347.541 158.852 347.205 163.001 347.355C163.063 345.91 163.116 344.459 163.154 343.015C158.675 342.862 153.677 343.235 148.28 344.48C142.966 345.709 138.27 346.472 134.127 346.75C134.02 348.204 133.915 349.648 133.805 351.089Z" fill="#E3E3E3"/>
<path d="M132.121 370.903C137.024 370.779 142.66 369.958 149.257 368.435C153.736 367.402 157.933 367.023 161.744 367.071C161.86 365.665 161.97 364.215 162.08 362.737C157.88 362.675 153.251 363.077 148.286 364.224C142.271 365.612 137.046 366.404 132.524 366.577C132.39 368.056 132.255 369.502 132.121 370.903Z" fill="#E3E3E3"/>
<path d="M166.242 385.004C166.9 384.961 167.552 384.913 168.21 384.865C172.099 362.002 169.857 328.442 169.021 318.158C168.157 307.479 169.818 293.749 173.578 280.497C176.497 270.204 174.705 246.337 173.27 227.162C172.867 221.78 172.483 216.695 172.257 212.519C171.522 199.017 176.41 174.033 179.104 161.511C178.508 161.195 177.918 160.883 177.332 160.57C174.634 172.966 169.568 198.518 170.336 212.624C170.567 216.821 170.951 221.915 171.354 227.306C172.779 246.334 174.556 270.008 171.733 279.97C167.911 293.437 166.226 307.414 167.109 318.311C167.941 328.61 170.198 362.381 166.242 385.004Z" fill="#4E3800"/>
<path d="M126.41 291.977C128.696 306.035 127.975 315.167 127.14 325.734C126.871 329.152 126.593 332.681 126.396 336.579C125.787 348.812 123.718 373.446 122.8 384.101C123.439 384.173 124.072 384.24 124.711 384.302C125.628 373.648 127.703 348.951 128.316 336.675C128.509 332.805 128.786 329.287 129.056 325.887C129.896 315.195 130.626 305.957 128.302 291.669C127.808 288.601 127.279 285.49 126.756 282.394C124.169 267.073 121.489 251.23 122.757 243.639C123.064 241.786 123.458 239.683 123.881 237.456C125.599 228.296 127.746 216.898 127.069 207.006C126.396 197.202 122.378 170.657 120.837 160.652C120.242 160.974 119.647 161.301 119.047 161.626C120.655 172.088 124.501 197.616 125.153 207.136C125.811 216.781 123.693 228.05 121.994 237.1C121.571 239.337 121.173 241.45 120.861 243.321C119.546 251.23 122.129 266.52 124.866 282.714C125.388 285.809 125.911 288.914 126.41 291.977Z" fill="#4E3800"/>
<path d="M88.616 194.247C88.616 194.247 69.0551 259.478 64.2108 282.725C59.3666 305.972 58.9915 354.299 58.9915 354.299C58.9915 354.299 50.4396 372.052 50.2381 379.951C50.0227 388.373 54.4437 395.075 53.9394 400.585C53.4351 406.097 60.1446 403.104 58.249 391.941C56.3533 380.777 61.7311 370.667 64.0525 370.991C66.3739 371.316 62.1315 383.18 64.1931 387.455C66.2535 391.731 68.9221 383.426 71.5742 378.386C74.329 373.153 74.1668 361.736 72.9136 353.586C71.6604 345.436 86.4339 295.931 86.5049 281.587L105.213 218.371C105.213 218.371 99.0331 191.981 88.616 194.247Z" fill="#FFA681"/>
<path d="M107.613 216.783C106.95 220.974 104.631 228.17 101.636 237.225V237.23C101.381 237.993 101.121 238.771 100.863 239.563C100.849 239.596 100.834 239.635 100.825 239.673C100.076 241.925 99.2929 244.282 98.487 246.721C98.482 246.735 98.4782 246.75 98.4731 246.764C95.1557 256.837 91.4823 268.36 88.4006 280.199C87.34 284.251 86.3504 288.347 85.4723 292.427C84.3483 297.636 83.3979 302.832 82.7023 307.915C80.2009 326.232 75.4188 349.431 75.4188 349.431C68.4039 352.311 57.4381 348.509 57.4381 348.509C57.4381 348.509 57.1542 315.099 58.7204 302.116C60.6553 286.065 63.1186 274.639 66.1712 261.521C74.5736 225.422 89.3611 190.1 93.4172 180.732C93.7391 179.984 93.9938 179.402 94.1712 178.999H97.6621C104.531 183.367 109.405 205.49 107.613 216.783Z" fill="#FFB700"/>
<path d="M56.8633 341.821L57.4132 349.509C57.4132 349.509 67.8392 352.897 75.655 350.511L77.7217 343.654C70.1961 344.051 63.2433 343.866 56.8633 341.821Z" fill="#009CF8"/>
<path d="M101.628 237.225V237.23C101.628 237.341 101.609 237.451 101.571 237.561C101.336 238.21 101.096 238.876 100.856 239.563C100.842 239.596 100.826 239.635 100.818 239.673C100.05 241.853 99.2665 244.225 98.4796 246.721C98.4746 246.735 98.4708 246.75 98.4657 246.764C94.3804 259.746 90.2268 276.08 88.3159 286.513C88.3349 284.415 88.359 282.308 88.3932 280.2C87.3326 284.253 86.343 288.348 85.4648 292.428C85.8589 288.601 86.9537 282.869 88.4464 276.374C91.4622 263.228 96.0898 246.947 99.767 236.903C99.9495 236.404 100.502 236.149 101.001 236.332C101.389 236.476 101.628 236.836 101.628 237.225Z" fill="#4E3800"/>
<path d="M451.538 409.734H497.745C497.591 406.529 497.439 403.456 497.292 400.556C496.486 384.734 495.802 373.961 495.802 373.961L458.225 375.63L455.109 375.77L449.582 376.017C449.582 376.017 450.115 385.65 450.945 399.764C451.128 402.885 451.327 406.229 451.538 409.734Z" fill="#18315B"/>
<path d="M455.109 375.77L449.582 376.017C449.582 376.017 450.115 385.65 450.945 399.763C465.383 400.967 481.146 401.458 497.292 400.554C496.486 384.733 495.802 373.959 495.802 373.959L458.225 375.628L455.109 375.77Z" fill="#000B29"/>
<path d="M460.139 409.733C459.293 395.089 458.601 382.577 458.221 375.631L455.105 375.772C455.484 382.686 456.174 395.14 457.016 409.733H460.139Z" fill="#000B29"/>
<path d="M437.987 409.733C438.226 405.766 438.449 402.004 438.653 398.536C439.448 385.093 439.948 376.017 439.948 376.017L433.949 375.75L430.838 375.609L393.723 373.959C393.723 373.959 393.314 380.38 392.757 390.586C392.462 396.024 392.123 402.542 391.781 409.732H437.987V409.733Z" fill="#18315B"/>
<path d="M392.754 390.585C402.829 392.954 419.072 396.279 438.65 398.534C439.445 385.091 439.945 376.016 439.945 376.016L433.946 375.748L430.835 375.608L393.719 373.958C393.719 373.958 393.313 380.38 392.754 390.585Z" fill="#000B29"/>
<path d="M432.034 409.734C432.876 395.125 433.566 382.661 433.943 375.751L430.832 375.611C430.452 382.553 429.759 395.074 428.914 409.734H432.034Z" fill="#000B29"/>
<path d="M502.507 381.162C493.095 383.752 483.684 385.708 474.271 387.019C470.998 387.479 467.728 387.862 464.457 388.162C460.046 388.571 455.637 388.845 451.23 388.983C443.938 389.206 436.647 389.047 429.352 388.507C415.252 387.475 401.155 385.013 387.052 381.161C386.921 368.013 387.119 320.862 388.106 275.383C388.154 273.341 388.198 271.301 388.249 269.27C388.255 268.839 388.268 268.407 388.278 267.976C388.288 267.506 388.301 267.037 388.314 266.571C388.345 265.128 388.383 263.691 388.419 262.26C388.492 259.338 388.568 256.442 388.652 253.574C388.703 251.86 388.755 250.154 388.805 248.464C388.814 248.113 388.828 247.764 388.837 247.416C388.872 246.301 388.907 245.193 388.942 244.091C388.942 244.091 388.942 244.091 388.942 244.087C388.955 243.745 388.965 243.404 388.978 243.062C389.009 242.046 389.045 241.037 389.076 240.037C389.108 239.184 389.137 238.344 389.166 237.502C390.259 206.823 391.855 182.624 394.142 179.213C398.02 173.43 411.226 165.752 421.847 159.502C425.632 157.279 430.151 154.967 432.737 153.252C436.509 156.289 439.246 159.033 444.838 158.844C451.094 158.63 452.637 154.868 455.023 151.642C456.479 152.587 460.178 155.62 462.1 156.748C463.745 157.719 465.527 158.748 467.386 159.817C470.259 161.462 473.316 163.209 476.344 164.991C480.831 167.632 485.255 170.356 488.924 172.959C492.588 175.561 495.497 178.049 496.938 180.205C499.013 183.323 500.358 203.503 501.223 230.062C501.259 230.991 501.284 231.934 501.32 232.882C501.323 232.997 501.323 233.111 501.323 233.23C501.359 234.194 501.388 235.185 501.41 236.175C501.496 239.164 501.576 242.218 501.659 245.321C501.676 245.976 501.691 246.637 501.701 247.295C501.714 247.791 501.73 248.289 501.733 248.777C501.762 250.054 501.79 251.335 501.819 252.628C501.825 252.886 501.829 253.145 501.835 253.404C501.906 256.812 501.972 260.267 502.033 263.752C502.052 264.771 502.068 265.793 502.084 266.814C502.871 314.632 502.688 367.034 502.507 381.162Z" fill="#FFB700"/>
<path d="M502.085 266.82L487.181 281.938L473.295 267.86L459.412 281.938L445.475 267.803L431.531 281.938L417.501 267.71L403.468 281.938L388.316 266.572C388.348 265.129 388.386 263.692 388.422 262.262C388.495 259.34 388.571 256.443 388.655 253.575L403.468 238.552L417.501 252.783L431.531 238.552L445.475 252.687L459.412 238.552L473.295 252.63L487.181 238.552L501.837 253.409C501.908 256.817 501.974 260.272 502.035 263.757C502.054 264.776 502.07 265.797 502.085 266.82Z" fill="#4E3800"/>
<path d="M476.357 344.743H476.353C456.396 344.656 439.362 335.574 428.586 327.971C416.932 319.749 409.869 311.417 409.799 311.334C409.459 310.928 409.51 310.323 409.916 309.981C410.323 309.64 410.928 309.692 411.269 310.097C411.338 310.178 418.273 318.351 429.738 326.433C440.279 333.864 456.926 342.737 476.362 342.824C476.892 342.826 477.32 343.258 477.319 343.788C477.315 344.316 476.886 344.743 476.357 344.743Z" fill="#4E3800"/>
<path d="M463.908 332.94C446.915 329.6 431.874 316.585 431.191 315.988C430.792 315.639 430.752 315.033 431.1 314.634C431.45 314.235 432.056 314.195 432.455 314.543C432.631 314.697 450.332 330.003 468.369 331.649C468.905 331.693 469.287 332.165 469.239 332.692C469.19 333.22 468.723 333.609 468.196 333.561C466.757 333.431 465.326 333.219 463.908 332.94Z" fill="#4E3800"/>
<path d="M429.878 185.257C429.425 185.257 429.022 184.936 428.935 184.475C428.836 183.954 429.178 183.451 429.699 183.352C454.031 178.735 461.364 163.083 461.436 162.925C461.654 162.442 462.223 162.226 462.707 162.446C463.19 162.664 463.405 163.233 463.186 163.717C462.878 164.397 455.36 180.439 430.058 185.24C429.998 185.25 429.937 185.257 429.878 185.257Z" fill="#4E3800"/>
<path d="M400.19 227.39V227.397C400.167 227.502 400.119 227.607 400.059 227.703C399.695 228.287 399.315 228.892 398.935 229.508C398.916 229.543 398.893 229.571 398.878 229.61C397.662 231.578 396.393 233.727 395.087 235.998C395.083 236.014 395.077 236.023 395.064 236.036C393.023 239.609 390.909 243.484 388.84 247.419C388.875 246.304 388.91 245.196 388.945 244.094C388.945 244.094 388.945 244.094 388.945 244.09C388.958 243.748 388.968 243.407 388.98 243.065C392.318 236.869 395.646 231.073 398.437 226.678C398.725 226.228 399.315 226.1 399.765 226.382C400.114 226.608 400.273 227.01 400.19 227.39Z" fill="#4E3800"/>
<path d="M522.8 191.801C522.8 191.801 553.915 181.801 563.122 161.384C565.785 155.47 543.846 95.4341 543.846 95.4341L533.257 95.946C533.257 95.946 536.275 116.777 538.103 128.571C539.607 138.268 542.038 149.856 542.858 153.672C543.036 154.499 543.136 154.959 543.136 154.959C542.617 155.049 542.096 155.149 541.566 155.254C527.03 158.207 508.469 167.676 508.469 167.676L522.8 191.801Z" fill="#FFA681"/>
<path d="M550.952 160.714C551.394 161.036 552.027 160.94 552.343 160.495C552.678 160.044 552.577 159.419 552.124 159.104C549.861 157.459 546.445 155.529 542.858 153.673C543.036 154.5 543.136 154.96 543.136 154.96C542.617 155.05 542.096 155.15 541.566 155.256C545.218 157.132 548.714 159.086 550.952 160.714Z" fill="#F97853"/>
<path d="M475.193 164.334C475.193 164.334 465.782 186.421 489.742 198.717C506.324 207.227 544.097 185.009 544.097 185.009L530.63 156.416C530.63 156.416 496.069 170.673 475.193 164.334Z" fill="#FFB700"/>
<path d="M538.425 61.6795C537.487 62.3372 537.679 66.3933 538.092 70.2137C537.96 70.2327 537.824 70.2555 537.689 70.2796C536.575 65.1806 534.357 56.5083 532.462 58.1632C531.22 59.2466 532.882 66.7253 534.015 71.197C533.781 71.2692 533.546 71.3427 533.312 71.4188C531.884 66.1094 528.805 55.8824 526.756 57.8705C525.389 59.1972 528.013 68.2027 529.47 72.7961C529.266 72.876 529.068 72.9533 528.873 73.0306C527.479 68.574 524.502 60.1437 522.461 62.1243C520.614 63.9173 525.907 76.6622 525.907 76.6622L527.294 81.6648C527.294 81.6648 525.646 82.377 523.071 79.4651C520.496 76.5532 517.42 76.0413 519.557 80.2533C521.974 85.0139 525.55 88.4276 527.123 91.7956C528.698 95.1637 533.65 96.2775 533.65 96.2775L543.594 95.7972C543.594 95.7972 545.522 78.9912 541.813 70.9803C541.177 66.2209 540.057 60.5353 538.425 61.6795Z" fill="#FFA681"/>
<path d="M415.398 100.438C415.398 117.374 425.824 129.045 442.755 129.045C459.691 129.045 471.498 116.499 471.498 99.5607C471.498 94.89 470.737 90.5285 469.271 86.6688C469.185 86.4395 469.099 86.2089 469.005 85.9859C468.825 85.5474 468.639 85.109 468.437 84.6858C468.142 84.0319 467.812 83.392 467.466 82.7749C463.054 74.8413 455.15 69.7969 444.53 69.7969C424.223 69.7981 415.398 83.501 415.398 100.438Z" fill="#18315B"/>
<path d="M419.205 107.73C419.205 107.73 414.5 101.456 411.001 106.644C407.503 111.832 412.45 127.154 421.014 123.413L419.205 107.73Z" fill="#F97853"/>
<path d="M419.144 118.68C418.827 118.68 418.537 118.471 418.447 118.151C417.119 113.421 412.219 111.504 412.17 111.485C411.797 111.342 411.608 110.925 411.75 110.551C411.892 110.177 412.309 109.99 412.683 110.13C412.912 110.216 418.313 112.312 419.841 117.76C419.949 118.145 419.724 118.544 419.339 118.652C419.275 118.671 419.209 118.68 419.144 118.68Z" fill="#EA5143"/>
<path d="M414.2 116.296C414.066 116.296 413.93 116.259 413.809 116.18C413.473 115.964 413.375 115.516 413.592 115.179C413.629 115.124 414.495 113.801 416.309 112.99C416.672 112.825 417.102 112.99 417.265 113.355C417.429 113.72 417.265 114.148 416.9 114.31C415.498 114.937 414.816 115.954 414.81 115.964C414.672 116.179 414.438 116.296 414.2 116.296Z" fill="#EA5143"/>
<path d="M467.69 107.73C467.69 107.73 472.395 101.456 475.893 106.644C479.392 111.832 474.445 127.154 465.879 123.413L467.69 107.73Z" fill="#F97853"/>
<path d="M467.753 118.68C468.068 118.68 468.36 118.471 468.449 118.151C469.777 113.421 474.677 111.504 474.727 111.485C475.099 111.342 475.288 110.925 475.146 110.551C475.004 110.177 474.587 109.99 474.214 110.13C473.984 110.216 468.584 112.312 467.054 117.76C466.947 118.145 467.171 118.544 467.556 118.652C467.622 118.671 467.688 118.68 467.753 118.68Z" fill="#EA5143"/>
<path d="M472.691 116.296C472.825 116.296 472.961 116.259 473.083 116.18C473.418 115.964 473.516 115.516 473.299 115.179C473.264 115.124 472.396 113.801 470.583 112.99C470.22 112.825 469.789 112.99 469.626 113.355C469.462 113.72 469.626 114.148 469.991 114.31C471.394 114.937 472.075 115.954 472.082 115.964C472.22 116.179 472.453 116.296 472.691 116.296Z" fill="#EA5143"/>
<path d="M455.03 136.409V151.647C455.03 151.647 450.486 159.406 444.34 159.935C438.201 160.471 432.746 153.253 432.746 153.253V137.48L455.03 136.409Z" fill="#FFA681"/>
<path d="M455.03 136.409V143.171C450.907 147.746 443.583 148.889 432.746 147.289V137.48L455.03 136.409Z" fill="#F97853"/>
<path d="M471.094 97.277C470.811 103.198 470.246 110.604 469.117 116.525C468.835 118.001 468.517 119.391 468.162 120.637C464.955 131.864 456.935 151.119 434.48 143.098C424.563 139.558 419.966 128.512 417.919 117.278C416.528 109.648 416.318 101.939 416.421 96.4305C416.53 90.807 419.599 85.6662 424.492 82.8937C437.747 75.3796 451.732 78.1812 460.939 81.7216C467.329 84.1748 471.42 90.4509 471.094 97.277Z" fill="#FFA681"/>
<path d="M433.82 109.718C433.82 111.345 432.981 112.663 431.947 112.663C430.913 112.663 430.074 111.345 430.074 109.718C430.074 108.091 430.913 106.773 431.947 106.773C432.982 106.773 433.82 108.093 433.82 109.718Z" fill="#18315B"/>
<path d="M455.886 109.658C455.886 111.285 455.049 112.603 454.013 112.603C452.979 112.603 452.141 111.285 452.141 109.658C452.141 108.031 452.979 106.713 454.013 106.713C455.047 106.712 455.886 108.031 455.886 109.658Z" fill="#18315B"/>
<path d="M460.117 99.5368C460.117 99.5368 454.209 97.2014 449.66 99.1668L450.115 101.696C450.115 101.696 456.792 101.131 460.155 102.494C460.456 101.522 460.501 100.538 460.117 99.5368Z" fill="#18315B"/>
<path d="M425.698 99.5368C425.698 99.5368 431.605 97.2014 436.154 99.1668L435.699 101.696C435.699 101.696 429.024 101.131 425.66 102.494C425.358 101.522 425.314 100.538 425.698 99.5368Z" fill="#18315B"/>
<path d="M443.704 122.061C444.925 122.061 446.135 121.586 446.324 121.509C446.694 121.358 446.87 120.936 446.72 120.565C446.569 120.195 446.146 120.017 445.777 120.168C445.123 120.433 443.553 120.85 442.873 120.443C442.742 120.364 442.562 120.209 442.517 119.769C442.255 117.241 442.947 108.768 442.954 108.683C442.987 108.285 442.69 107.935 442.292 107.902C441.892 107.868 441.545 108.166 441.512 108.564C441.483 108.917 440.802 117.257 441.077 119.917C441.181 120.918 441.707 121.431 442.13 121.685C442.594 121.964 443.15 122.061 443.704 122.061Z" fill="#F97853"/>
<path d="M433.98 125.737C435.184 129.914 438.604 134.08 443.317 134.138C448.024 134.081 451.445 129.914 452.648 125.737H433.98Z" fill="white"/>
<path d="M442.911 138.675C444.785 138.675 446.372 137.726 446.44 137.685C446.782 137.479 446.891 137.033 446.684 136.691C446.478 136.348 446.032 136.24 445.689 136.446C445.678 136.454 444.37 137.225 442.911 137.225C441.571 137.225 440.289 136.457 440.276 136.449C439.937 136.24 439.491 136.343 439.28 136.684C439.07 137.024 439.175 137.47 439.516 137.68C439.581 137.723 441.142 138.675 442.911 138.675Z" fill="#F97853"/>
<path d="M470.328 107.858H467.047C467.409 104.565 467.929 98.7636 465.225 97.9324C456.677 95.3069 467.754 89.2664 463.896 86.2544C460.037 83.2361 450.434 84.5299 443.754 84.3132C437.035 84.0952 426.235 84.1903 423.614 84.7985C420.986 85.3991 422.427 89.7619 423.39 93.1426C424.361 96.5157 420.169 100.251 419.467 103.749C419.266 104.752 419.307 106.242 419.468 107.858H416.734C416.41 103.603 416.361 99.6418 416.42 96.4296C416.529 90.806 419.598 85.6652 424.491 82.8927C437.746 75.3786 451.731 78.1802 460.938 81.7206C467.33 84.1738 471.42 90.4499 471.094 97.276C470.938 100.521 470.698 104.211 470.328 107.858Z" fill="#18315B"/>
<path d="M431.616 118.245C427.098 118.245 423.422 114.569 423.422 110.051C423.422 105.532 427.098 101.856 431.616 101.856C436.135 101.856 439.811 105.532 439.811 110.051C439.811 114.569 436.135 118.245 431.616 118.245ZM431.616 103.133C427.802 103.133 424.699 106.236 424.699 110.051C424.699 113.865 427.802 116.968 431.616 116.968C435.431 116.968 438.534 113.865 438.534 110.051C438.534 106.236 435.431 103.133 431.616 103.133Z" fill="white"/>
<path d="M454.011 118.245C449.492 118.245 445.816 114.569 445.816 110.051C445.816 105.532 449.492 101.856 454.011 101.856C458.53 101.856 462.206 105.532 462.206 110.051C462.206 114.569 458.53 118.245 454.011 118.245ZM454.011 103.133C450.197 103.133 447.094 106.236 447.094 110.051C447.094 113.865 450.197 116.968 454.011 116.968C457.825 116.968 460.928 113.865 460.928 110.051C460.928 106.236 457.825 103.133 454.011 103.133Z" fill="white"/>
<path d="M424.802 107.412C424.64 107.412 424.477 107.35 424.352 107.227C424.316 107.19 420.593 103.579 415.709 104.718C415.367 104.799 415.022 104.585 414.943 104.241C414.863 103.898 415.076 103.555 415.419 103.475C421.003 102.172 425.081 106.151 425.252 106.322C425.502 106.57 425.503 106.976 425.255 107.226C425.13 107.35 424.966 107.412 424.802 107.412Z" fill="white"/>
<path d="M460.972 107.412C460.764 107.412 460.559 107.309 460.436 107.122C460.243 106.826 460.326 106.431 460.621 106.238C460.866 106.079 466.664 102.338 471.598 103.15C471.947 103.207 472.182 103.537 472.124 103.884C472.067 104.231 471.74 104.467 471.391 104.41C466.949 103.679 461.376 107.27 461.319 107.307C461.213 107.379 461.092 107.412 460.972 107.412Z" fill="white"/>
<path d="M446.266 108.211C446.252 108.191 444.734 106.14 442.739 106.14C440.763 106.14 439.391 108.189 439.378 108.209L438.309 107.511C438.38 107.403 440.064 104.862 442.739 104.862C445.393 104.862 447.225 107.359 447.302 107.465L446.266 108.211Z" fill="white"/>
<path d="M397.494 226.186C397.494 226.186 388.861 242.902 378.696 256.142C375.697 260.048 372.567 263.65 369.483 266.433C364.485 270.945 359.612 273.306 355.642 271.302C340.919 263.881 308.098 204.813 308.098 204.813L316.181 195.226C316.181 195.226 330.788 212.095 341.472 222.191C351.324 231.5 358.9 238.459 358.9 238.459C360.263 236.384 361.717 234.109 363.227 231.702C364.834 229.147 366.5 226.442 368.197 223.66C380.498 203.464 394.149 179.217 394.149 179.217L397.494 226.186Z" fill="#FFA681"/>
<path d="M378.696 256.143C375.696 260.048 372.567 263.65 369.482 266.433L363.227 231.702C364.833 229.147 366.5 226.442 368.196 223.661L378.696 256.143Z" fill="#F97853"/>
<path d="M394.149 179.217L364.645 225.619L374.547 266.433L398.962 226.678C398.962 226.678 401.923 199.48 394.149 179.217Z" fill="#FFB700"/>
<path d="M357.05 409.733C354.943 398.056 352.866 384.885 350.978 372.096C350.564 369.267 350.159 366.463 349.759 363.696C348.245 353.106 346.893 343.093 345.807 334.783C345.392 331.627 345.021 328.713 344.683 326.112C343.63 317.818 343.011 312.666 343.011 312.666L296.42 314.427L249.685 312.666C249.685 312.666 248.48 322.86 246.552 337.64C246.199 340.33 245.823 343.167 245.428 346.129C244.39 353.886 243.204 362.451 241.928 371.223C241.909 371.351 241.89 371.48 241.871 371.608C241.47 374.341 241.066 377.093 240.647 379.845C240.642 379.883 240.638 379.916 240.628 379.954V379.96C239.628 386.611 238.58 393.253 237.514 399.643C237.076 402.281 236.634 404.871 236.185 407.394C236.047 408.181 235.908 408.958 235.77 409.731H357.05V409.733Z" fill="#FFB700"/>
<path d="M260.423 326.66C260.423 329.085 258.458 331.052 256.033 331.052C253.607 331.052 251.641 329.085 251.641 326.66C251.641 324.235 253.607 322.27 256.033 322.27C258.458 322.27 260.423 324.235 260.423 326.66Z" fill="#4E3800"/>
<path d="M271.322 343.672C271.322 346.098 269.355 348.063 266.931 348.063C264.506 348.063 262.539 346.096 262.539 343.672C262.539 341.247 264.506 339.282 266.931 339.282C269.355 339.28 271.322 341.247 271.322 343.672Z" fill="#4E3800"/>
<path d="M292.766 334.89C292.766 337.315 290.799 339.281 288.375 339.281C285.95 339.281 283.984 337.314 283.984 334.89C283.984 332.465 285.95 330.5 288.375 330.5C290.8 330.5 292.766 332.465 292.766 334.89Z" fill="#4E3800"/>
<path d="M258.926 361.74C258.926 364.165 256.959 366.132 254.535 366.132C252.11 366.132 250.145 364.165 250.145 361.74C250.145 359.314 252.11 357.349 254.535 357.349C256.959 357.349 258.926 359.314 258.926 361.74Z" fill="#4E3800"/>
<path d="M285.715 359.862C285.715 362.287 283.75 364.252 281.324 364.252C278.899 364.252 276.934 362.287 276.934 359.862C276.934 357.437 278.9 355.471 281.324 355.471C283.748 355.471 285.715 357.437 285.715 359.862Z" fill="#4E3800"/>
<path d="M249.41 341.759C249.41 344.045 247.667 345.926 245.43 346.131C245.825 343.17 246.201 340.331 246.554 337.641C248.225 338.265 249.41 339.869 249.41 341.759Z" fill="#4E3800"/>
<path d="M329.372 385.661C329.372 388.086 327.407 390.052 324.982 390.052C322.556 390.052 320.59 388.085 320.59 385.661C320.59 383.236 322.556 381.269 324.982 381.269C327.406 381.269 329.372 383.236 329.372 385.661Z" fill="#4E3800"/>
<path d="M327.297 361.74C327.297 364.165 325.33 366.132 322.906 366.132C320.481 366.132 318.516 364.165 318.516 361.74C318.516 359.314 320.482 357.349 322.906 357.349C325.33 357.349 327.297 359.314 327.297 361.74Z" fill="#4E3800"/>
<path d="M350.977 372.095C350.449 372.319 349.863 372.442 349.254 372.442C346.83 372.442 344.863 370.476 344.863 368.052C344.863 365.627 346.83 363.662 349.254 363.662C349.425 363.662 349.592 363.671 349.758 363.695C350.159 366.462 350.563 369.267 350.977 372.095Z" fill="#4E3800"/>
<path d="M331.688 403.192C331.688 405.617 329.721 407.582 327.297 407.582C324.872 407.582 322.906 405.617 322.906 403.192C322.906 400.766 324.872 398.8 327.297 398.8C329.721 398.8 331.688 400.766 331.688 403.192Z" fill="#4E3800"/>
<path d="M350.47 396.182C350.47 398.607 348.503 400.573 346.078 400.573C343.653 400.573 341.688 398.606 341.688 396.182C341.688 393.757 343.653 391.792 346.078 391.792C348.505 391.79 350.47 393.757 350.47 396.182Z" fill="#4E3800"/>
<path d="M311.386 409.734C310.597 408.58 309.273 407.821 307.767 407.821C306.262 407.821 304.938 408.58 304.148 409.734H311.386Z" fill="#4E3800"/>
<path d="M256.033 389.48C256.033 391.906 254.066 393.871 251.641 393.871C249.215 393.871 247.25 391.906 247.25 389.48C247.25 387.055 249.215 385.088 251.641 385.088C254.067 385.088 256.033 387.055 256.033 389.48Z" fill="#4E3800"/>
<path d="M244.452 375.608C244.452 377.837 242.791 379.68 240.633 379.956C240.643 379.918 240.647 379.885 240.652 379.847C241.071 377.095 241.475 374.343 241.876 371.609C243.394 372.305 244.452 373.833 244.452 375.608Z" fill="#4E3800"/>
<path d="M239.316 403.188C239.316 405.173 237.997 406.85 236.188 407.397C236.635 404.874 237.078 402.283 237.517 399.646C238.606 400.444 239.316 401.736 239.316 403.188Z" fill="#4E3800"/>
<path d="M266.931 405.046C266.931 407.472 264.964 409.438 262.539 409.438C260.114 409.438 258.148 407.472 258.148 405.046C258.148 402.621 260.115 400.656 262.539 400.656C264.964 400.654 266.931 402.621 266.931 405.046Z" fill="#4E3800"/>
<path d="M290.105 401.607C290.105 404.033 288.139 405.999 285.715 405.999C283.291 405.999 281.324 404.033 281.324 401.607C281.324 399.182 283.29 397.217 285.715 397.217C288.14 397.217 290.105 399.182 290.105 401.607Z" fill="#4E3800"/>
<path d="M273.576 380.017C273.576 382.442 271.609 384.409 269.184 384.409C266.758 384.409 264.793 382.442 264.793 380.017C264.793 377.591 266.758 375.626 269.184 375.626C271.609 375.626 273.576 377.593 273.576 380.017Z" fill="#4E3800"/>
<path d="M297.152 375.626C297.152 378.052 295.187 380.017 292.762 380.017C290.336 380.017 288.371 378.052 288.371 375.626C288.371 373.201 290.338 371.236 292.762 371.236C295.186 371.236 297.152 373.201 297.152 375.626Z" fill="#4E3800"/>
<path d="M307.767 352.455C307.767 354.881 305.802 356.846 303.376 356.846C300.951 356.846 298.984 354.879 298.984 352.455C298.984 350.03 300.951 348.063 303.376 348.063C305.8 348.063 307.767 350.03 307.767 352.455Z" fill="#4E3800"/>
<path d="M345.806 334.784C345.502 334.855 345.188 334.889 344.863 334.889C342.434 334.889 340.473 332.922 340.473 330.498C340.473 328.136 342.339 326.204 344.682 326.113C345.02 328.713 345.393 331.627 345.806 334.784Z" fill="#4E3800"/>
<path d="M322.906 334.89C322.906 337.315 320.94 339.281 318.516 339.281C316.09 339.281 314.125 337.314 314.125 334.89C314.125 332.465 316.09 330.5 318.516 330.5C320.941 330.5 322.906 332.465 322.906 334.89Z" fill="#4E3800"/>
<path d="M338.988 350.539C338.988 352.964 337.023 354.93 334.598 354.93C332.172 354.93 330.207 352.963 330.207 350.539C330.207 348.114 332.174 346.147 334.598 346.147C337.022 346.147 338.988 348.114 338.988 350.539Z" fill="#4E3800"/>
<path d="M312.156 389.48C312.156 391.906 310.19 393.871 307.766 393.871C305.34 393.871 303.375 391.906 303.375 389.48C303.375 387.055 305.34 385.088 307.766 385.088C310.191 385.088 312.156 387.055 312.156 389.48Z" fill="#4E3800"/>
<path d="M345.848 313.818C321.269 329.864 276.14 328.607 247.78 313.818C250.489 296.944 254.056 280.049 253.289 257.59C253.203 255.128 253.099 252.681 252.975 250.257C252.866 248.148 252.742 246.053 252.609 243.981C250.161 206.617 243.786 176.068 246.918 172.121C248.286 170.392 250.565 168.526 253.379 166.616C254.484 165.863 255.665 165.102 256.912 164.34C259.855 162.545 263.126 160.735 266.411 158.974C274.205 154.813 282.118 150.95 286.086 148.313C290.019 150.028 293.151 150.966 296.528 150.947C296.618 150.947 296.718 150.947 296.818 150.936C296.909 150.947 297.008 150.947 297.1 150.947C300.475 150.966 303.609 150.028 307.546 148.313C311.227 150.762 318.154 154.175 325.225 157.898C330.42 160.636 335.69 163.541 339.795 166.359C342.48 168.201 344.676 170.011 346.017 171.706C347.57 173.663 346.917 182.244 345.589 194.957C344.275 207.465 342.309 223.983 341.119 242.139C340.791 247.181 340.519 252.347 340.338 257.59C339.577 280.05 343.139 296.944 345.848 313.818Z" fill="#FFB700"/>
<path d="M330.815 295.157H330.811C311.018 295.07 294.125 286.064 283.437 278.523C271.88 270.369 264.875 262.106 264.805 262.023C264.467 261.621 264.519 261.019 264.921 260.681C265.324 260.343 265.924 260.395 266.263 260.796C266.331 260.877 273.208 268.983 284.578 276.997C295.032 284.365 311.541 293.167 330.817 293.251C331.343 293.254 331.767 293.682 331.765 294.208C331.765 294.734 331.338 295.157 330.815 295.157Z" fill="#FFB700"/>
<path d="M317.713 283.635C300.861 280.323 285.943 267.416 285.267 266.823C284.871 266.476 284.831 265.875 285.177 265.48C285.522 265.083 286.124 265.045 286.521 265.39C286.696 265.543 304.251 280.722 322.139 282.356C322.671 282.399 323.049 282.867 323.001 283.39C322.953 283.913 322.49 284.299 321.965 284.251C320.539 284.121 319.118 283.912 317.713 283.635Z" fill="#FFB700"/>
<path d="M292.764 196.447C292.316 196.447 291.917 196.129 291.829 195.671C291.732 195.154 292.071 194.656 292.587 194.557C316.717 189.978 323.99 174.454 324.061 174.298C324.278 173.819 324.842 173.606 325.322 173.823C325.801 174.04 326.014 174.604 325.797 175.083C325.492 175.758 318.036 191.667 292.943 196.428C292.882 196.44 292.823 196.447 292.764 196.447Z" fill="#FFB700"/>
<path d="M325.222 157.9C320.432 168.825 308.658 180.138 293.346 177.492C278.518 174.929 271.485 167.086 266.41 158.974C274.206 154.812 282.12 150.954 286.084 148.315C290.017 150.027 293.151 150.965 296.524 150.949C296.615 150.949 296.718 150.949 296.814 150.939C296.905 150.949 297.008 150.949 297.099 150.949C300.472 150.965 303.606 150.027 307.545 148.315C311.225 150.761 318.155 154.174 325.222 157.9Z" fill="#FFA681"/>
<path d="M312.422 149.114C311.999 149.109 311.663 149.448 311.659 149.867C311.654 150.481 311.403 164.921 298.44 166.04C286.416 167.086 281.439 155.575 279.902 150.8C279.812 150.52 279.552 150.333 279.258 150.333H279.116C278.654 150.333 278.327 150.784 278.473 151.222C280.113 156.149 285.354 168.046 297.604 167.609C297.922 167.598 298.244 167.577 298.571 167.549C312.917 166.311 313.173 150.04 313.174 149.875C313.177 149.457 312.84 149.116 312.422 149.114Z" fill="white"/>
<path d="M321.584 72.3564C321.584 72.3564 333.17 90.3017 331.9 108.993C330.63 127.685 333.608 149.262 316.882 148.314C300.157 147.366 270.323 155.02 260.841 140.461C251.359 125.905 321.584 72.3564 321.584 72.3564Z" fill="#18315B"/>
<path d="M325.878 105.352C325.878 105.352 328.885 132.446 316.028 139.906C303.172 147.366 293.867 139.037 293.867 139.037C293.867 139.037 320.967 101.272 325.878 105.352Z" fill="#000B29"/>
<path d="M272.482 105.227C272.482 105.227 267.866 99.0722 264.433 104.161C261.001 109.251 265.854 124.283 274.257 120.614L272.482 105.227Z" fill="#F97853"/>
<path d="M272.423 115.968C272.112 115.968 271.827 115.763 271.738 115.45C270.436 110.808 265.628 108.928 265.579 108.909C265.213 108.769 265.029 108.359 265.167 107.993C265.306 107.626 265.716 107.441 266.082 107.579C266.306 107.664 271.605 109.721 273.106 115.066C273.211 115.443 272.992 115.835 272.614 115.941C272.551 115.959 272.486 115.968 272.423 115.968Z" fill="#EA5143"/>
<path d="M267.569 113.631C267.437 113.631 267.304 113.594 267.185 113.518C266.855 113.305 266.76 112.866 266.972 112.536C267.008 112.481 267.858 111.184 269.638 110.387C269.994 110.226 270.416 110.387 270.576 110.745C270.735 111.103 270.576 111.523 270.217 111.683C268.841 112.299 268.172 113.295 268.166 113.305C268.031 113.517 267.803 113.631 267.569 113.631Z" fill="#EA5143"/>
<path d="M320.057 105.227C320.057 105.227 324.673 99.0722 328.105 104.161C331.538 109.251 326.685 124.283 318.281 120.614L320.057 105.227Z" fill="#F97853"/>
<path d="M320.116 115.968C320.426 115.968 320.711 115.763 320.8 115.45C322.102 110.808 326.91 108.928 326.959 108.909C327.326 108.769 327.509 108.359 327.371 107.993C327.232 107.626 326.823 107.441 326.456 107.579C326.232 107.664 320.933 109.721 319.433 115.066C319.327 115.443 319.547 115.835 319.924 115.941C319.989 115.959 320.053 115.968 320.116 115.968Z" fill="#EA5143"/>
<path d="M324.967 113.631C325.099 113.631 325.232 113.594 325.351 113.518C325.681 113.305 325.776 112.866 325.564 112.536C325.529 112.481 324.678 111.184 322.898 110.387C322.542 110.226 322.12 110.387 321.96 110.745C321.801 111.103 321.96 111.523 322.319 111.683C323.695 112.299 324.364 113.295 324.37 113.305C324.505 113.517 324.734 113.631 324.967 113.631Z" fill="#EA5143"/>
<path d="M307.629 133.365V148.314C307.629 148.314 303.17 155.927 297.141 156.447C291.118 156.973 285.766 149.892 285.766 149.892V134.416L307.629 133.365Z" fill="#FFA681"/>
<path d="M307.629 133.365V139.998C303.583 144.488 296.401 146.078 285.767 144.509L285.766 134.416L307.629 133.365Z" fill="#F97853"/>
<path d="M323.394 94.9706C323.116 100.78 322.563 108.045 321.455 113.855C321.178 115.303 320.866 116.667 320.518 117.889C317.371 128.905 309.502 147.796 287.472 139.927C277.741 136.454 273.232 125.616 271.222 114.595C269.859 107.109 269.652 99.545 269.752 94.1406C269.859 88.6222 272.869 83.5803 277.671 80.8597C290.674 73.4875 304.396 76.236 313.429 79.7092C319.7 82.1167 323.713 88.2738 323.394 94.9706Z" fill="#FFA681"/>
<path d="M286.565 106.104C286.565 107.699 285.743 108.994 284.728 108.994C283.713 108.994 282.891 107.701 282.891 106.104C282.891 104.509 283.713 103.215 284.728 103.215C285.742 103.215 286.565 104.509 286.565 106.104Z" fill="#18315B"/>
<path d="M309.249 106.104C309.249 107.699 308.427 108.994 307.412 108.994C306.397 108.994 305.574 107.701 305.574 106.104C305.574 104.509 306.397 103.215 307.412 103.215C308.427 103.215 309.249 104.509 309.249 106.104Z" fill="#18315B"/>
<path d="M281.091 97.5014C282.617 97.0706 285.698 96.3331 288.95 96.3242C289.805 96.3217 290.46 97.082 290.309 97.9246L290.306 97.9462C290.185 98.619 289.583 99.0942 288.9 99.0625C286.688 98.9599 280.882 99.2703 278.14 100.382C278.084 99.9052 278.365 99.3831 278.765 98.9206C279.37 98.2173 280.199 97.7536 281.091 97.5014Z" fill="#18315B"/>
<path d="M310.771 97.5605C309.244 97.1297 306.164 96.3922 302.913 96.3833C302.057 96.3808 301.402 97.1411 301.553 97.9837L301.557 98.0052C301.677 98.6781 302.279 99.1533 302.961 99.1216C305.173 99.019 310.979 99.3294 313.721 100.441C313.777 99.9642 313.496 99.4422 313.097 98.9784C312.492 98.2752 311.662 97.8114 310.771 97.5605Z" fill="#18315B"/>
<path d="M296.516 119.287C295.973 119.287 295.427 119.191 294.972 118.918C294.557 118.67 294.04 118.167 293.939 117.185C293.669 114.575 294.337 106.393 294.366 106.045C294.398 105.654 294.741 105.364 295.133 105.395C295.524 105.427 295.814 105.77 295.783 106.162C295.775 106.246 295.097 114.559 295.353 117.039C295.398 117.47 295.574 117.623 295.703 117.701C296.369 118.1 297.91 117.692 298.551 117.432C298.914 117.282 299.33 117.459 299.477 117.821C299.625 118.183 299.451 118.598 299.088 118.746C298.903 118.821 297.715 119.287 296.516 119.287Z" fill="#F97853"/>
<path d="M287.492 123.771C288.029 126.473 289.814 131.443 295.825 131.443C301.851 131.443 303.542 126.901 304.122 123.771H287.492Z" fill="white"/>
<path d="M295.746 135.587C294.012 135.587 292.48 134.653 292.415 134.613C292.082 134.406 291.978 133.969 292.184 133.636C292.39 133.303 292.827 133.2 293.16 133.404C293.173 133.412 294.422 134.167 295.746 134.167C297.178 134.167 298.462 133.408 298.474 133.4C298.812 133.199 299.246 133.307 299.449 133.642C299.652 133.977 299.544 134.413 299.209 134.615C299.142 134.656 297.584 135.587 295.746 135.587Z" fill="#F97853"/>
<path d="M326.25 93.8139C326.022 94.4614 325.389 94.8758 324.541 95.1229C324.603 96.6891 324.438 98.5733 324.284 100.379C323.407 110.644 320.818 112.446 320.233 109.908C319.848 108.223 319.87 98.5556 320.057 95.4029C318.028 95.2699 316.294 94.9315 316.294 94.9315L313.914 84.9655L313.08 94.8074C309.509 96.0504 301.176 94.0598 301.176 94.0598L298.381 84.2369L296.653 93.6885C291.296 96.2975 284.601 94.5603 284.601 94.5603L283.062 84.3661L279.511 94.5603C279.511 94.5603 268.084 98.6595 267.959 94.5603C267.883 92.1743 269.631 85.4559 271.107 80.2517C272.716 74.5762 276.444 69.7814 281.487 67.0773C295.662 59.4681 310.652 63.5154 315.794 66.5869C326.698 73.0962 326.25 93.8139 326.25 93.8139Z" fill="#18315B"/>
<path d="M274.252 73.1152C274.252 73.1152 264.845 84.3041 261.749 104.288C258.654 124.272 254.368 139.037 266.411 145.636C279.445 152.778 278.316 138.131 278.128 134.15C277.941 130.168 266.855 119.287 274.252 88.6402C276.641 78.7464 274.252 73.1152 274.252 73.1152Z" fill="#18315B"/>
<path d="M272.055 114.411C272.055 114.411 272.055 114.421 272.055 114.435C272.06 114.583 272.069 115.378 272.126 116.621C272.155 117.393 272.202 118.33 272.273 119.397C272.716 126.13 274.025 137.758 277.872 141.79C279.391 143.386 282.32 144.185 285.766 144.509V139.219C282.134 137.496 279.3 134.663 277.105 131.177C275.748 128.238 273.411 123.64 272.316 116.407L272.055 114.411Z" fill="#000B29"/>
<path d="M323.558 120.952C323.558 121.871 322.813 122.616 321.894 122.616C320.976 122.616 320.23 121.871 320.23 120.952C320.23 120.034 320.976 119.289 321.894 119.289C322.813 119.289 323.558 120.032 323.558 120.952Z" fill="white"/>
<path d="M357.468 246.299C352.755 259.791 331.647 258.809 307.607 251.433C307.573 251.423 307.537 251.411 307.503 251.402C307.427 251.38 307.355 251.355 307.279 251.332L303.972 250.278C303.515 250.13 303.057 249.977 302.601 249.822C300.009 248.954 297.4 248.016 294.78 247.021C286.19 243.758 277.534 239.891 269.371 235.768L269.428 235.626L271.886 229.241L272.725 227.068C272.725 227.068 317.293 231.923 339.701 227.239C340.081 227.159 340.451 227.08 340.816 226.995C340.728 226.499 340.7 225.991 340.56 225.517C328.687 185.095 341.672 177.345 346.018 171.708C346.018 171.705 366.366 220.827 357.468 246.299Z" fill="#FFB700"/>
<path d="M350.206 233.788C350.073 233.851 349.931 233.883 349.791 233.883C349.44 233.883 349.1 233.687 348.936 233.351C347.238 229.873 341.473 227.805 339.703 227.238C340.083 227.158 340.453 227.08 340.818 226.995C340.73 226.498 340.645 226.004 340.562 225.516C342.814 226.26 348.696 228.528 350.644 232.52C350.874 232.986 350.678 233.556 350.206 233.788Z" fill="#FFB700"/>
<path d="M287.783 232.095C278.688 232.095 271.302 231.571 270.658 231.525C270.135 231.486 269.742 231.032 269.78 230.508C269.818 229.985 270.273 229.596 270.797 229.63C271.133 229.654 304.564 232.019 317.745 226.673C318.23 226.476 318.785 226.709 318.983 227.196C319.179 227.683 318.946 228.236 318.46 228.434C311.162 231.393 298.325 232.095 287.783 232.095Z" fill="#FFB700"/>
<path d="M303.973 250.277C303.976 250.277 303.976 250.277 303.976 250.277C311.603 248.173 318.537 246.124 322.54 244.842C328.099 243.059 332.697 237.441 334.788 232.663C334.997 232.182 335.557 231.964 336.039 232.176C336.52 232.385 336.738 232.945 336.529 233.426C334.267 238.592 329.244 244.686 323.119 246.653C320.214 247.584 315.776 248.914 310.648 250.378C308.462 251.004 306.138 250.969 303.973 250.277Z" fill="#FFB700"/>
<path d="M324.531 243.743C255.655 266.941 234.466 251.759 234.466 251.759C229.829 209.827 246.917 172.12 246.917 172.12C251.965 180.443 257.673 194.972 257.673 194.972L259.181 227.115L259.067 228.008L259.013 228.429L258.728 230.627L258.721 230.672C258.867 230.703 259.015 230.735 259.165 230.767C279.999 235.162 318.102 230.251 318.102 230.251L324.531 243.743Z" fill="#FFB700"/>
<path d="M259.161 230.767C255.442 233.884 251.91 237.475 248.763 241.602C248.446 242.02 247.848 242.102 247.43 241.783C247.011 241.466 246.933 240.871 247.246 240.453C247.25 240.453 247.25 240.449 247.25 240.449C250.787 235.802 254.797 231.825 259.01 228.429L258.725 230.627L258.718 230.672C258.863 230.703 259.011 230.735 259.161 230.767Z" fill="#FFB700"/>
<path d="M318.102 230.251C318.102 230.251 325.727 212.929 337.32 214.471L340.816 226.996C334.47 229.691 333.542 240.572 324.532 243.743L318.102 230.251Z" fill="#FFA681"/>
<path d="M272.728 227.067C272.728 227.067 267.913 215.765 255.239 212.484C242.565 209.202 234.491 215.175 233.641 217.428C232.79 219.683 238.42 217.528 238.42 217.528C238.42 217.528 234.753 218.566 232.65 222.013C230.546 225.459 237.77 221.74 237.77 221.74C237.77 221.74 232.59 224.011 231.931 226.116C231.272 228.221 238.105 224.665 239.388 224.732C239.388 224.732 233.287 227.157 233.329 229.329C233.371 231.501 240.338 227.96 245.539 228.24C250.742 228.52 258.719 230.675 258.719 230.675C262.976 231.485 267.045 232.085 270.726 232.255L272.728 227.067Z" fill="#FFA681"/>
<path d="M395.109 51.3223C390.418 51.3223 386.602 47.5057 386.602 42.8147C386.602 38.1237 390.418 34.3071 395.109 34.3071C399.8 34.3071 403.617 38.1237 403.617 42.8147C403.617 47.5057 399.8 51.3223 395.109 51.3223ZM395.109 36.977C391.889 36.977 389.27 39.5962 389.27 42.816C389.27 46.0358 391.889 48.6537 395.109 48.6537C398.329 48.6537 400.947 46.0345 400.947 42.816C400.948 39.5962 398.329 36.977 395.109 36.977Z" fill="#FFB700"/>
<path d="M469.328 36.8692C464.637 36.8692 460.82 33.0525 460.82 28.3616C460.82 23.6706 464.637 19.854 469.328 19.854C474.019 19.854 477.835 23.6706 477.835 28.3616C477.835 33.0525 474.019 36.8692 469.328 36.8692ZM469.328 22.5239C466.108 22.5239 463.489 25.143 463.489 28.3628C463.489 31.5826 466.108 34.2018 469.328 34.2018C472.546 34.2018 475.166 31.5826 475.166 28.3628C475.167 25.1418 472.548 22.5239 469.328 22.5239Z" fill="#009CF8"/>
<path d="M479.846 64.5151C479.11 64.5151 478.512 63.9183 478.512 63.1808V57.2962C478.512 56.5587 479.11 55.9619 479.846 55.9619C480.584 55.9619 481.18 56.5587 481.18 57.2962V63.1808C481.18 63.917 480.584 64.5151 479.846 64.5151Z" fill="#FFB700"/>
<path d="M479.846 74.813C479.11 74.813 478.512 74.2161 478.512 73.4786V67.5941C478.512 66.8566 479.11 66.2598 479.846 66.2598C480.584 66.2598 481.18 66.8566 481.18 67.5941V73.4786C481.18 74.2161 480.584 74.813 479.846 74.813Z" fill="#FFB700"/>
<path d="M488.105 66.7208H482.819C482.081 66.7208 481.484 66.124 481.484 65.3865C481.484 64.6491 482.082 64.0522 482.819 64.0522H488.105C488.841 64.0522 489.439 64.6491 489.439 65.3865C489.439 66.124 488.843 66.7208 488.105 66.7208Z" fill="#FFB700"/>
<path d="M476.871 66.7208H471.584C470.848 66.7208 470.25 66.124 470.25 65.3865C470.25 64.6491 470.848 64.0522 471.584 64.0522H476.871C477.608 64.0522 478.205 64.6491 478.205 65.3865C478.205 66.124 477.608 66.7208 476.871 66.7208Z" fill="#FFB700"/>
<path d="M434.912 28.8642C434.175 28.8642 433.578 28.2661 433.578 27.5299V21.6453C433.578 20.9079 434.176 20.311 434.912 20.311C435.649 20.311 436.247 20.9079 436.247 21.6453V27.5299C436.247 28.2661 435.65 28.8642 434.912 28.8642Z" fill="#1C31B5"/>
<path d="M434.912 39.1621C434.175 39.1621 433.578 38.5653 433.578 37.8278V31.9432C433.578 31.2057 434.176 30.6089 434.912 30.6089C435.649 30.6089 436.247 31.2057 436.247 31.9432V37.8278C436.247 38.5653 435.65 39.1621 434.912 39.1621Z" fill="#1C31B5"/>
<path d="M443.172 31.0719H437.885C437.149 31.0719 436.551 30.4738 436.551 29.7376C436.551 29.0001 437.149 28.4033 437.885 28.4033H443.172C443.909 28.4033 444.506 29.0001 444.506 29.7376C444.506 30.4738 443.909 31.0719 443.172 31.0719Z" fill="#1C31B5"/>
<path d="M431.937 31.0719H426.651C425.913 31.0719 425.316 30.4738 425.316 29.7376C425.316 29.0001 425.915 28.4033 426.651 28.4033H431.937C432.675 28.4033 433.271 29.0001 433.271 29.7376C433.273 30.4738 432.675 31.0719 431.937 31.0719Z" fill="#1C31B5"/>
<path d="M91.0391 21.2297C91.0391 16.5388 94.8557 12.7222 99.5466 12.7222C104.238 12.7222 108.054 16.5388 108.054 21.2297C108.054 25.9207 104.238 29.7373 99.5466 29.7373C94.8557 29.7361 91.0391 25.9207 91.0391 21.2297ZM93.7089 21.2297C93.7089 24.4496 96.3281 27.0675 99.5466 27.0675C102.766 27.0675 105.384 24.4483 105.384 21.2297C105.384 18.0099 102.765 15.3908 99.5466 15.3908C96.3281 15.3908 93.7089 18.0099 93.7089 21.2297Z" fill="#FFB700"/>
<path d="M56.875 53.6555C56.875 48.9646 60.6916 45.1479 65.3826 45.1479C70.0735 45.1479 73.8902 48.9646 73.8902 53.6555C73.8902 58.3465 70.0735 62.1631 65.3826 62.1631C60.6904 62.1631 56.875 58.3465 56.875 53.6555ZM59.5436 53.6555C59.5436 56.8753 62.1628 59.4932 65.3826 59.4932C68.6024 59.4932 71.2203 56.8741 71.2203 53.6555C71.2203 50.4357 68.6011 47.8165 65.3826 47.8165C62.1628 47.8165 59.5436 50.4357 59.5436 53.6555Z" fill="#009CF8"/>
<path d="M39.182 65.5937C39.9194 65.5937 40.5163 64.9969 40.5163 64.2594V58.3748C40.5163 57.6373 39.9182 57.0405 39.182 57.0405C38.4457 57.0405 37.8477 57.6373 37.8477 58.3748V64.2594C37.8477 64.9969 38.4457 65.5937 39.182 65.5937Z" fill="#FFB700"/>
<path d="M39.182 75.893C39.9194 75.893 40.5163 75.2962 40.5163 74.5587V68.6742C40.5163 67.9367 39.9182 67.3398 39.182 67.3398C38.4457 67.3398 37.8477 67.9367 37.8477 68.6742V74.5587C37.8477 75.295 38.4457 75.893 39.182 75.893Z" fill="#FFB700"/>
<path d="M30.9241 67.8014H36.2106C36.9481 67.8014 37.5449 67.2033 37.5449 66.4671C37.5449 65.7296 36.9469 65.1328 36.2106 65.1328H30.9241C30.1879 65.1328 29.5898 65.7296 29.5898 66.4671C29.5898 67.2033 30.1879 67.8014 30.9241 67.8014Z" fill="#FFB700"/>
<path d="M42.1624 67.8014H47.4489C48.1864 67.8014 48.7832 67.2033 48.7832 66.4671C48.7832 65.7296 48.1851 65.1328 47.4489 65.1328H42.1624C41.4249 65.1328 40.8281 65.7296 40.8281 66.4671C40.8281 67.2033 41.4262 67.8014 42.1624 67.8014Z" fill="#FFB700"/>
<path d="M69.9398 20.3569C70.676 20.3569 71.2741 19.7601 71.2741 19.0226V13.138C71.2741 12.4005 70.676 11.8037 69.9398 11.8037C69.2036 11.8037 68.6055 12.4005 68.6055 13.138V19.0226C68.6055 19.7601 69.2023 20.3569 69.9398 20.3569Z" fill="#1C31B5"/>
<path d="M69.9398 30.6562C70.676 30.6562 71.2741 30.0594 71.2741 29.3219V23.4373C71.2741 22.6998 70.676 22.103 69.9398 22.103C69.2036 22.103 68.6055 22.7011 68.6055 23.4373V29.3219C68.6055 30.0581 69.2023 30.6562 69.9398 30.6562Z" fill="#1C31B5"/>
<path d="M61.6781 22.5646H66.9646C67.7008 22.5646 68.2989 21.9678 68.2989 21.2303C68.2989 20.4928 67.7008 19.896 66.9646 19.896H61.6781C60.9406 19.896 60.3438 20.4941 60.3438 21.2303C60.3438 21.9665 60.9406 22.5646 61.6781 22.5646Z" fill="#1C31B5"/>
<path d="M72.9124 22.5646H78.1989C78.9364 22.5646 79.5332 21.9678 79.5332 21.2303C79.5332 20.4928 78.9351 19.896 78.1989 19.896H72.9124C72.1749 19.896 71.5781 20.4941 71.5781 21.2303C71.5781 21.9665 72.1749 22.5646 72.9124 22.5646Z" fill="#1C31B5"/>
<path d="M324.343 21.8405C324.188 21.8569 324.028 21.8354 323.875 21.7708C322.256 21.0878 321.307 20.7684 321.296 20.7646C320.8 20.5987 320.532 20.0627 320.697 19.5659C320.863 19.0692 321.399 18.8018 321.896 18.9666C321.936 18.9805 322.916 19.3087 324.611 20.0234C325.093 20.2274 325.32 20.7824 325.116 21.2652C324.977 21.5959 324.675 21.805 324.343 21.8405Z" fill="#BBE2F2"/>
<path d="M372.631 72.6646C373.276 74.3842 373.879 76.1569 374.425 77.9347C374.561 78.3744 374.988 78.6455 375.43 78.5987C375.49 78.5923 375.55 78.5796 375.61 78.5619C376.11 78.4086 376.39 77.8777 376.237 77.3784C375.68 75.5639 375.064 73.7544 374.406 72.0007C374.222 71.5115 373.679 71.2632 373.187 71.4456C372.695 71.6281 372.447 72.1743 372.631 72.6646Z" fill="#BBE2F2"/>
<path d="M375.906 83.3021C376.34 85.0825 376.732 86.9148 377.073 88.7496C377.164 89.2387 377.616 89.5707 378.103 89.5187C378.127 89.5162 378.152 89.5124 378.176 89.5086C378.691 89.4123 379.031 88.9181 378.935 88.4037C378.59 86.5346 378.189 84.6669 377.747 82.8523C377.623 82.3442 377.11 82.0325 376.601 82.1567C376.093 82.2808 375.783 82.794 375.906 83.3021Z" fill="#BBE2F2"/>
<path d="M379.901 111.916C380.372 111.867 380.74 111.473 380.748 110.989C380.777 109.088 380.763 107.18 380.707 105.318C380.692 104.795 380.255 104.385 379.732 104.4C379.202 104.419 378.798 104.852 378.813 105.376C378.869 107.208 378.881 109.087 378.853 110.96C378.846 111.483 379.263 111.914 379.786 111.922C379.825 111.923 379.863 111.92 379.901 111.916Z" fill="#BBE2F2"/>
<path d="M378.751 93.1925C378.232 93.2597 377.866 93.7348 377.934 94.2544C378.046 95.111 378.147 95.9764 378.237 96.8267C378.341 97.8074 378.433 98.8097 378.511 99.8032C378.551 100.325 379.007 100.714 379.529 100.674C379.538 100.672 379.546 100.672 379.555 100.671C380.063 100.618 380.439 100.168 380.4 99.6549C380.32 98.645 380.228 97.6262 380.122 96.6277C380.031 95.7623 379.927 94.8816 379.814 94.0098C379.749 93.4992 379.286 93.1355 378.777 93.19C378.768 93.1912 378.759 93.1912 378.751 93.1925Z" fill="#BBE2F2"/>
<path d="M370.518 67.5156C370.689 67.8996 371.086 68.1124 371.483 68.0706C371.579 68.0605 371.676 68.0351 371.77 67.9933C372.248 67.7792 372.462 67.2191 372.248 66.7414C371.476 65.0155 370.64 63.2948 369.763 61.6285C369.52 61.1647 368.947 60.9873 368.483 61.2306C368.021 61.4739 367.842 62.0466 368.085 62.5104C368.944 64.1425 369.762 65.8253 370.518 67.5156Z" fill="#BBE2F2"/>
<path d="M328.91 24.1267C330.537 24.9579 332.179 25.8627 333.791 26.8168C333.974 26.9245 334.178 26.9651 334.373 26.9436C334.66 26.9131 334.93 26.7522 335.09 26.4836C335.356 26.0337 335.208 25.4521 334.758 25.186C333.113 24.2116 331.436 23.2879 329.774 22.4389C329.309 22.2019 328.738 22.3856 328.5 22.852C328.26 23.317 328.444 23.8872 328.91 24.1267Z" fill="#BBE2F2"/>
<path d="M343.032 33.0485C343.232 33.2018 343.474 33.2626 343.706 33.2373C343.955 33.2106 344.195 33.0852 344.36 32.8698C344.678 32.4542 344.598 31.8586 344.181 31.5418C342.681 30.3963 341.127 29.2812 339.563 28.2257C339.129 27.933 338.541 28.0471 338.248 28.4817C337.955 28.915 338.07 29.5043 338.504 29.797C340.037 30.831 341.561 31.9258 343.032 33.0485Z" fill="#BBE2F2"/>
<path d="M358.955 48.5622C359.164 48.8244 359.484 48.9448 359.795 48.9119C359.968 48.8929 360.139 48.827 360.286 48.7091C360.694 48.3822 360.761 47.7854 360.433 47.3774C359.256 45.9075 358.014 44.4516 356.742 43.0526C356.391 42.6649 355.792 42.6357 355.404 42.988C355.016 43.3403 354.988 43.9396 355.341 44.3261C356.585 45.6971 357.801 47.1227 358.955 48.5622Z" fill="#BBE2F2"/>
<path d="M351.468 40.3231C351.679 40.5271 351.959 40.6145 352.23 40.5867C352.443 40.5639 352.648 40.4701 352.809 40.3054C353.174 39.9303 353.165 39.3309 352.791 38.966C351.444 37.6545 350.033 36.3633 348.597 35.1253C348.2 34.7832 347.602 34.8288 347.261 35.2241C346.919 35.6207 346.964 36.2188 347.36 36.5597C348.766 37.7723 350.148 39.0382 351.468 40.3231Z" fill="#BBE2F2"/>
<path d="M365.343 57.6704C365.54 57.9936 365.899 58.157 366.251 58.119C366.387 58.1051 366.521 58.0607 366.645 57.986C367.091 57.7135 367.233 57.1294 366.96 56.6834C365.976 55.0728 364.928 53.4724 363.845 51.9265C363.545 51.4982 362.954 51.3943 362.525 51.6946C362.096 51.9949 361.992 52.5867 362.293 53.015C363.353 54.5279 364.38 56.0941 365.343 57.6704Z" fill="#BBE2F2"/>
<path d="M324.33 15.3577L328.478 0L277.668 0.435889L324.33 15.3577Z" fill="#009CF8"/>
<path d="M277.668 0.43457L321.865 19.0653L321.981 19.116L323.883 22.2649L324.33 15.3577L277.668 0.43457Z" fill="#FFB700"/>
<path d="M323.885 22.2651L319.766 21.6163L321.983 19.1162L323.885 22.2651Z" fill="#FFB700"/>
<path d="M316.421 16.7703L321.982 19.1145L310.529 32.0203L277.668 0.435547L316.421 16.7703Z" fill="#009CF8"/>
<path d="M557.964 419.403V420.329C557.964 425.669 553.633 430 548.291 430H46.5692C41.2257 430 36.8984 425.669 36.8984 420.329V419.403C36.8984 414.063 41.2257 409.732 46.5692 409.732H548.291C553.634 409.733 557.964 414.063 557.964 419.403Z" fill="#1C31B5"/>
<path d="M557.964 419.403V419.865H36.8984V419.403C36.8984 414.063 41.2257 409.732 46.5692 409.732H548.291C553.634 409.733 557.964 414.063 557.964 419.403Z" fill="#FFB700"/>
<path d="M374.206 379.31H216.592C212.826 379.31 209.773 376.257 209.773 372.491V290.029C209.773 286.263 212.826 283.211 216.592 283.211H374.205C377.971 283.211 381.024 286.263 381.024 290.029V372.491C381.025 376.257 377.971 379.31 374.206 379.31Z" fill="#18315B"/>
<path d="M308.663 379.201H282.141V409.436H308.663V379.201Z" fill="#000B29"/>
<path d="M295.104 345.601C302.374 345.601 308.267 339.708 308.267 332.438C308.267 325.168 302.374 319.275 295.104 319.275C287.835 319.275 281.941 325.168 281.941 332.438C281.941 339.708 287.835 345.601 295.104 345.601Z" fill="#1D567E"/>
<path d="M329.18 409.434H260.77V407.129C260.77 402.479 264.539 398.708 269.19 398.708H320.758C325.409 398.708 329.179 402.478 329.179 407.129V409.434H329.18Z" fill="#18315B"/>
</svg>
