<svg width="2105" height="642" viewBox="0 0 2105 642" fill="none" xmlns="http://www.w3.org/2000/svg">
<g filter="url(#filter0_d_1242_949)">
<path d="M59.7059 219.392L38.4 215.201C31.7571 250.523 32.1657 270.505 38.0508 306.362L59.7059 302.171C67.5037 334.179 74.8501 350.782 92.1887 378.313L73.677 390.887C94.5368 420.873 112.878 435.766 139.341 454.456L151.566 435.944C179.726 453.042 196.322 460.296 228.407 467.03L224.215 488.685C259.357 495.254 279.513 495.101 315.726 488.685L311.535 467.03C346.185 458.751 362.842 451.717 388.725 435.944L400.95 454.456C430.501 434.948 444.606 420.639 466.264 390.538L448.451 378.313C466.073 351.966 473.028 335.187 480.934 302.171L501.891 306.362C508.22 272.778 508.336 252.796 501.891 214.852L480.585 219.043C472.35 187.694 465.358 171.134 447.753 143.948L466.963 130.676C439.958 96.7125 425.445 83.6753 400.251 67.1074L388.026 85.9684C360.43 68.8194 343.609 62.0189 311.535 55.232L315.726 32.1797C280.024 26.46 259.979 26.599 224.215 32.1797L228.756 55.232C196.147 62.2291 179.63 69.4855 151.915 85.9684C151.682 85.3863 139.341 67.1074 139.341 67.1074C107.49 89.1046 93.4679 103.184 73.677 130.676C73.677 130.676 78.2875 134.169 92.538 143.948C77.1698 160.434 64.2465 201.113 59.7059 219.392Z" fill="#FFCB0A"/>
</g>
<path d="M459.209 267.262C459.209 368.628 375.062 451.746 270.085 451.746C165.107 451.746 80.9601 368.628 80.9601 267.262C80.9601 165.896 165.107 82.7784 270.085 82.7784C375.062 82.7784 459.209 165.896 459.209 267.262Z" fill="#FAAD17" stroke="#FFCB0A" stroke-width="50.8498"/>
<path d="M327.271 267.262C327.271 296.428 302.776 322.048 270.097 322.048C237.417 322.048 212.922 296.428 212.922 267.262C212.922 238.095 237.417 212.475 270.097 212.475C302.776 212.475 327.271 238.095 327.271 267.262Z" fill="#FFB700" stroke="#1B3360" stroke-width="106.43"/>
<line x1="270.463" y1="-1.03382e-07" x2="270.463" y2="520.428" stroke="#FAAD17" stroke-width="4.73022"/>
<line x1="544.086" y1="262.579" x2="0.00170898" y2="262.579" stroke="#FAAD17" stroke-width="4.73022"/>
<g filter="url(#filter1_d_1242_949)">
<path d="M272.043 264.157L404.353 574.428L495.311 520.486L564.513 479.451L506.788 437.182L501.981 433.647L272.043 264.157Z" fill="#F05A24"/>
<path d="M272.043 264.157L404.353 574.428L495.311 520.486L564.513 479.451L506.788 437.182L501.981 433.647L272.043 264.157Z" stroke="url(#paint0_linear_1242_949)" stroke-width="0.499667" stroke-miterlimit="10"/>
</g>
<path d="M272.043 264.157L609.114 448.808L749.102 409.021L272.043 264.157Z" fill="#EC1C24" stroke="url(#paint1_linear_1242_949)" stroke-width="0.499667" stroke-miterlimit="10"/>
<g filter="url(#filter2_d_1242_949)">
<path d="M495.324 520.486L564.526 627.999V479.45L495.324 520.486Z" fill="#FAAF3B"/>
<path d="M495.324 520.486L564.526 627.999V479.45L495.324 520.486Z" stroke="url(#paint2_linear_1242_949)" stroke-width="0.499667" stroke-miterlimit="10"/>
</g>
<path d="M272.043 264.157L564.513 479.451V628L609.114 448.808L272.043 264.157Z" fill="#9D005D" stroke="url(#paint3_linear_1242_949)" stroke-width="0.499667" stroke-miterlimit="10"/>
<g filter="url(#filter3_d_1242_949)">
<mask id="path-10-outside-1_1242_949" maskUnits="userSpaceOnUse" x="1345" y="411" width="720" height="134" fill="black">
<rect fill="white" x="1345" y="411" width="720" height="134"/>
<path d="M1349.92 539V415.007H1374.02V539H1349.92ZM1482.67 539H1459.27V487.656C1459.27 480.321 1457.99 474.966 1455.43 471.59C1452.87 468.213 1449.32 466.525 1444.78 466.525C1441.63 466.525 1438.43 467.34 1435.17 468.97C1432.03 470.6 1429.17 472.87 1426.61 475.781C1424.05 478.575 1422.19 481.835 1421.02 485.561V539H1397.62V447.489H1418.75V464.429C1421.08 460.471 1424.05 457.153 1427.66 454.475C1431.27 451.681 1435.4 449.585 1440.06 448.188C1444.83 446.674 1449.84 445.918 1455.08 445.918C1460.78 445.918 1465.44 446.965 1469.05 449.061C1472.78 451.04 1475.57 453.776 1477.43 457.269C1479.41 460.646 1480.75 464.488 1481.45 468.795C1482.26 473.103 1482.67 477.469 1482.67 481.893V539ZM1588.07 539H1564.67V487.656C1564.67 480.321 1563.39 474.966 1560.83 471.59C1558.26 468.213 1554.71 466.525 1550.17 466.525C1547.03 466.525 1543.83 467.34 1540.57 468.97C1537.42 470.6 1534.57 472.87 1532.01 475.781C1529.45 478.575 1527.59 481.835 1526.42 485.561V539H1503.02V447.489H1524.15V464.429C1526.48 460.471 1529.45 457.153 1533.06 454.475C1536.67 451.681 1540.8 449.585 1545.46 448.188C1550.23 446.674 1555.24 445.918 1560.48 445.918C1566.18 445.918 1570.84 446.965 1574.45 449.061C1578.17 451.04 1580.97 453.776 1582.83 457.269C1584.81 460.646 1586.15 464.488 1586.85 468.795C1587.66 473.103 1588.07 477.469 1588.07 481.893V539ZM1650.68 540.746C1643.23 540.746 1636.53 539.524 1630.6 537.079C1624.66 534.518 1619.59 531.025 1615.4 526.601C1611.33 522.176 1608.18 517.112 1605.97 511.407C1603.76 505.702 1602.65 499.706 1602.65 493.419C1602.65 487.016 1603.76 480.962 1605.97 475.257C1608.18 469.552 1611.33 464.488 1615.4 460.063C1619.59 455.639 1624.66 452.205 1630.6 449.76C1636.53 447.198 1643.23 445.918 1650.68 445.918C1658.13 445.918 1664.77 447.198 1670.59 449.76C1676.53 452.205 1681.59 455.639 1685.78 460.063C1689.97 464.488 1693.12 469.552 1695.21 475.257C1697.42 480.962 1698.53 487.016 1698.53 493.419C1698.53 499.706 1697.42 505.702 1695.21 511.407C1693.12 517.112 1689.97 522.176 1685.78 526.601C1681.71 531.025 1676.7 534.518 1670.76 537.079C1664.83 539.524 1658.13 540.746 1650.68 540.746ZM1626.75 493.419C1626.75 498.775 1627.8 503.548 1629.9 507.74C1631.99 511.815 1634.85 515.016 1638.45 517.345C1642.06 519.673 1646.14 520.838 1650.68 520.838C1655.1 520.838 1659.12 519.673 1662.73 517.345C1666.34 514.9 1669.19 511.64 1671.29 507.565C1673.5 503.374 1674.6 498.6 1674.6 493.245C1674.6 488.006 1673.5 483.29 1671.29 479.099C1669.19 474.908 1666.34 471.648 1662.73 469.319C1659.12 466.991 1655.1 465.826 1650.68 465.826C1646.14 465.826 1642.06 467.049 1638.45 469.494C1634.85 471.822 1631.99 475.082 1629.9 479.274C1627.8 483.349 1626.75 488.064 1626.75 493.419ZM1735.88 539L1702.17 447.489H1726.45L1749.5 517.694L1772.73 447.489H1794.91L1761.38 539H1735.88ZM1798.6 511.931C1798.6 505.993 1800.23 500.812 1803.49 496.388C1806.86 491.848 1811.52 488.355 1817.46 485.91C1823.4 483.465 1830.21 482.242 1837.89 482.242C1841.73 482.242 1845.63 482.534 1849.59 483.116C1853.55 483.698 1856.99 484.629 1859.9 485.91V481.02C1859.9 475.199 1858.15 470.716 1854.66 467.573C1851.28 464.429 1846.22 462.858 1839.46 462.858C1834.46 462.858 1829.68 463.731 1825.14 465.477C1820.6 467.224 1815.83 469.785 1810.82 473.161L1803.31 457.793C1809.37 453.835 1815.54 450.866 1821.83 448.887C1828.23 446.907 1834.92 445.918 1841.91 445.918C1854.95 445.918 1865.08 449.178 1872.3 455.697C1879.63 462.217 1883.3 471.531 1883.3 483.64V512.804C1883.3 515.249 1883.71 516.996 1884.52 518.043C1885.45 519.091 1886.91 519.732 1888.89 519.964V539C1886.79 539.349 1884.87 539.64 1883.12 539.873C1881.49 540.106 1880.1 540.222 1878.93 540.222C1874.27 540.222 1870.72 539.175 1868.28 537.079C1865.95 534.983 1864.5 532.422 1863.91 529.395L1863.39 524.68C1859.43 529.802 1854.48 533.761 1848.54 536.555C1842.61 539.349 1836.55 540.746 1830.38 540.746C1824.33 540.746 1818.86 539.524 1813.97 537.079C1809.19 534.518 1805.41 531.083 1802.61 526.775C1799.94 522.351 1798.6 517.403 1798.6 511.931ZM1855.53 516.646C1856.81 515.249 1857.86 513.852 1858.67 512.455C1859.49 511.058 1859.9 509.777 1859.9 508.613V499.357C1857.1 498.193 1854.08 497.32 1850.82 496.737C1847.56 496.039 1844.47 495.69 1841.56 495.69C1835.51 495.69 1830.5 497.029 1826.54 499.706C1822.7 502.268 1820.78 505.702 1820.78 510.01C1820.78 512.339 1821.42 514.551 1822.7 516.646C1823.98 518.742 1825.84 520.43 1828.29 521.711C1830.73 522.991 1833.64 523.632 1837.02 523.632C1840.51 523.632 1843.95 522.991 1847.32 521.711C1850.7 520.314 1853.43 518.626 1855.53 516.646ZM1959.15 534.285C1957.17 535.1 1954.78 536.031 1951.99 537.079C1949.2 538.127 1946.17 538.942 1942.91 539.524C1939.76 540.222 1936.56 540.572 1933.3 540.572C1929 540.572 1925.04 539.815 1921.43 538.301C1917.82 536.788 1914.91 534.401 1912.7 531.141C1910.6 527.765 1909.55 523.399 1909.55 518.043V465.477H1897.5V447.489H1909.55V417.801H1932.95V447.489H1952.16V465.477H1932.95V510.185C1933.07 513.328 1933.94 515.598 1935.57 516.996C1937.2 518.393 1939.24 519.091 1941.69 519.091C1944.13 519.091 1946.52 518.684 1948.85 517.869C1951.17 517.054 1953.04 516.355 1954.43 515.773L1959.15 534.285ZM2012.75 540.746C2005.42 540.746 1998.78 539.524 1992.84 537.079C1986.9 534.518 1981.84 531.083 1977.65 526.775C1973.46 522.351 1970.2 517.345 1967.87 511.756C1965.66 506.052 1964.55 500.056 1964.55 493.769C1964.55 485.037 1966.47 477.062 1970.31 469.843C1974.27 462.625 1979.86 456.862 1987.08 452.554C1994.41 448.13 2003.03 445.918 2012.93 445.918C2022.94 445.918 2031.5 448.13 2038.6 452.554C2045.7 456.862 2051.11 462.625 2054.84 469.843C2058.68 476.945 2060.6 484.629 2060.6 492.895C2060.6 494.293 2060.54 495.748 2060.43 497.261C2060.31 498.659 2060.19 499.823 2060.08 500.754H1989.35C1989.82 505.411 1991.15 509.486 1993.37 512.979C1995.7 516.472 1998.61 519.149 2002.1 521.012C2005.71 522.759 2009.55 523.632 2013.62 523.632C2018.28 523.632 2022.65 522.526 2026.72 520.314C2030.91 517.985 2033.77 514.958 2035.28 511.232L2055.36 516.821C2053.15 521.478 2049.95 525.611 2045.76 529.22C2041.68 532.829 2036.85 535.682 2031.26 537.778C2025.67 539.757 2019.5 540.746 2012.75 540.746ZM1988.83 485.91H2036.68C2036.21 481.253 2034.87 477.236 2032.66 473.86C2030.56 470.367 2027.77 467.689 2024.28 465.826C2020.78 463.847 2016.88 462.858 2012.58 462.858C2008.39 462.858 2004.54 463.847 2001.05 465.826C1997.67 467.689 1994.88 470.367 1992.67 473.86C1990.57 477.236 1989.29 481.253 1988.83 485.91Z"/>
</mask>
<path d="M1349.92 539V415.007H1374.02V539H1349.92ZM1482.67 539H1459.27V487.656C1459.27 480.321 1457.99 474.966 1455.43 471.59C1452.87 468.213 1449.32 466.525 1444.78 466.525C1441.63 466.525 1438.43 467.34 1435.17 468.97C1432.03 470.6 1429.17 472.87 1426.61 475.781C1424.05 478.575 1422.19 481.835 1421.02 485.561V539H1397.62V447.489H1418.75V464.429C1421.08 460.471 1424.05 457.153 1427.66 454.475C1431.27 451.681 1435.4 449.585 1440.06 448.188C1444.83 446.674 1449.84 445.918 1455.08 445.918C1460.78 445.918 1465.44 446.965 1469.05 449.061C1472.78 451.04 1475.57 453.776 1477.43 457.269C1479.41 460.646 1480.75 464.488 1481.45 468.795C1482.26 473.103 1482.67 477.469 1482.67 481.893V539ZM1588.07 539H1564.67V487.656C1564.67 480.321 1563.39 474.966 1560.83 471.59C1558.26 468.213 1554.71 466.525 1550.17 466.525C1547.03 466.525 1543.83 467.34 1540.57 468.97C1537.42 470.6 1534.57 472.87 1532.01 475.781C1529.45 478.575 1527.59 481.835 1526.42 485.561V539H1503.02V447.489H1524.15V464.429C1526.48 460.471 1529.45 457.153 1533.06 454.475C1536.67 451.681 1540.8 449.585 1545.46 448.188C1550.23 446.674 1555.24 445.918 1560.48 445.918C1566.18 445.918 1570.84 446.965 1574.45 449.061C1578.17 451.04 1580.97 453.776 1582.83 457.269C1584.81 460.646 1586.15 464.488 1586.85 468.795C1587.66 473.103 1588.07 477.469 1588.07 481.893V539ZM1650.68 540.746C1643.23 540.746 1636.53 539.524 1630.6 537.079C1624.66 534.518 1619.59 531.025 1615.4 526.601C1611.33 522.176 1608.18 517.112 1605.97 511.407C1603.76 505.702 1602.65 499.706 1602.65 493.419C1602.65 487.016 1603.76 480.962 1605.97 475.257C1608.18 469.552 1611.33 464.488 1615.4 460.063C1619.59 455.639 1624.66 452.205 1630.6 449.76C1636.53 447.198 1643.23 445.918 1650.68 445.918C1658.13 445.918 1664.77 447.198 1670.59 449.76C1676.53 452.205 1681.59 455.639 1685.78 460.063C1689.97 464.488 1693.12 469.552 1695.21 475.257C1697.42 480.962 1698.53 487.016 1698.53 493.419C1698.53 499.706 1697.42 505.702 1695.21 511.407C1693.12 517.112 1689.97 522.176 1685.78 526.601C1681.71 531.025 1676.7 534.518 1670.76 537.079C1664.83 539.524 1658.13 540.746 1650.68 540.746ZM1626.75 493.419C1626.75 498.775 1627.8 503.548 1629.9 507.74C1631.99 511.815 1634.85 515.016 1638.45 517.345C1642.06 519.673 1646.14 520.838 1650.68 520.838C1655.1 520.838 1659.12 519.673 1662.73 517.345C1666.34 514.9 1669.19 511.64 1671.29 507.565C1673.5 503.374 1674.6 498.6 1674.6 493.245C1674.6 488.006 1673.5 483.29 1671.29 479.099C1669.19 474.908 1666.34 471.648 1662.73 469.319C1659.12 466.991 1655.1 465.826 1650.68 465.826C1646.14 465.826 1642.06 467.049 1638.45 469.494C1634.85 471.822 1631.99 475.082 1629.9 479.274C1627.8 483.349 1626.75 488.064 1626.75 493.419ZM1735.88 539L1702.17 447.489H1726.45L1749.5 517.694L1772.73 447.489H1794.91L1761.38 539H1735.88ZM1798.6 511.931C1798.6 505.993 1800.23 500.812 1803.49 496.388C1806.86 491.848 1811.52 488.355 1817.46 485.91C1823.4 483.465 1830.21 482.242 1837.89 482.242C1841.73 482.242 1845.63 482.534 1849.59 483.116C1853.55 483.698 1856.99 484.629 1859.9 485.91V481.02C1859.9 475.199 1858.15 470.716 1854.66 467.573C1851.28 464.429 1846.22 462.858 1839.46 462.858C1834.46 462.858 1829.68 463.731 1825.14 465.477C1820.6 467.224 1815.83 469.785 1810.82 473.161L1803.31 457.793C1809.37 453.835 1815.54 450.866 1821.83 448.887C1828.23 446.907 1834.92 445.918 1841.91 445.918C1854.95 445.918 1865.08 449.178 1872.3 455.697C1879.63 462.217 1883.3 471.531 1883.3 483.64V512.804C1883.3 515.249 1883.71 516.996 1884.52 518.043C1885.45 519.091 1886.91 519.732 1888.89 519.964V539C1886.79 539.349 1884.87 539.64 1883.12 539.873C1881.49 540.106 1880.1 540.222 1878.93 540.222C1874.27 540.222 1870.72 539.175 1868.28 537.079C1865.95 534.983 1864.5 532.422 1863.91 529.395L1863.39 524.68C1859.43 529.802 1854.48 533.761 1848.54 536.555C1842.61 539.349 1836.55 540.746 1830.38 540.746C1824.33 540.746 1818.86 539.524 1813.97 537.079C1809.19 534.518 1805.41 531.083 1802.61 526.775C1799.94 522.351 1798.6 517.403 1798.6 511.931ZM1855.53 516.646C1856.81 515.249 1857.86 513.852 1858.67 512.455C1859.49 511.058 1859.9 509.777 1859.9 508.613V499.357C1857.1 498.193 1854.08 497.32 1850.82 496.737C1847.56 496.039 1844.47 495.69 1841.56 495.69C1835.51 495.69 1830.5 497.029 1826.54 499.706C1822.7 502.268 1820.78 505.702 1820.78 510.01C1820.78 512.339 1821.42 514.551 1822.7 516.646C1823.98 518.742 1825.84 520.43 1828.29 521.711C1830.73 522.991 1833.64 523.632 1837.02 523.632C1840.51 523.632 1843.95 522.991 1847.32 521.711C1850.7 520.314 1853.43 518.626 1855.53 516.646ZM1959.15 534.285C1957.17 535.1 1954.78 536.031 1951.99 537.079C1949.2 538.127 1946.17 538.942 1942.91 539.524C1939.76 540.222 1936.56 540.572 1933.3 540.572C1929 540.572 1925.04 539.815 1921.43 538.301C1917.82 536.788 1914.91 534.401 1912.7 531.141C1910.6 527.765 1909.55 523.399 1909.55 518.043V465.477H1897.5V447.489H1909.55V417.801H1932.95V447.489H1952.16V465.477H1932.95V510.185C1933.07 513.328 1933.94 515.598 1935.57 516.996C1937.2 518.393 1939.24 519.091 1941.69 519.091C1944.13 519.091 1946.52 518.684 1948.85 517.869C1951.17 517.054 1953.04 516.355 1954.43 515.773L1959.15 534.285ZM2012.75 540.746C2005.42 540.746 1998.78 539.524 1992.84 537.079C1986.9 534.518 1981.84 531.083 1977.65 526.775C1973.46 522.351 1970.2 517.345 1967.87 511.756C1965.66 506.052 1964.55 500.056 1964.55 493.769C1964.55 485.037 1966.47 477.062 1970.31 469.843C1974.27 462.625 1979.86 456.862 1987.08 452.554C1994.41 448.13 2003.03 445.918 2012.93 445.918C2022.94 445.918 2031.5 448.13 2038.6 452.554C2045.7 456.862 2051.11 462.625 2054.84 469.843C2058.68 476.945 2060.6 484.629 2060.6 492.895C2060.6 494.293 2060.54 495.748 2060.43 497.261C2060.31 498.659 2060.19 499.823 2060.08 500.754H1989.35C1989.82 505.411 1991.15 509.486 1993.37 512.979C1995.7 516.472 1998.61 519.149 2002.1 521.012C2005.71 522.759 2009.55 523.632 2013.62 523.632C2018.28 523.632 2022.65 522.526 2026.72 520.314C2030.91 517.985 2033.77 514.958 2035.28 511.232L2055.36 516.821C2053.15 521.478 2049.95 525.611 2045.76 529.22C2041.68 532.829 2036.85 535.682 2031.26 537.778C2025.67 539.757 2019.5 540.746 2012.75 540.746ZM1988.83 485.91H2036.68C2036.21 481.253 2034.87 477.236 2032.66 473.86C2030.56 470.367 2027.77 467.689 2024.28 465.826C2020.78 463.847 2016.88 462.858 2012.58 462.858C2008.39 462.858 2004.54 463.847 2001.05 465.826C1997.67 467.689 1994.88 470.367 1992.67 473.86C1990.57 477.236 1989.29 481.253 1988.83 485.91Z" fill="#1B3360"/>
<path d="M1349.92 539H1345.92V543H1349.92V539ZM1349.92 415.007V411.007H1345.92V415.007H1349.92ZM1374.02 415.007H1378.02V411.007H1374.02V415.007ZM1374.02 539V543H1378.02V539H1374.02ZM1353.92 539V415.007H1345.92V539H1353.92ZM1349.92 419.007H1374.02V411.007H1349.92V419.007ZM1370.02 415.007V539H1378.02V415.007H1370.02ZM1374.02 535H1349.92V543H1374.02V535ZM1482.67 539V543H1486.67V539H1482.67ZM1459.27 539H1455.27V543H1459.27V539ZM1455.43 471.59L1452.24 474.007L1452.24 474.007L1455.43 471.59ZM1435.17 468.97L1433.38 465.392L1433.35 465.405L1433.33 465.419L1435.17 468.97ZM1426.61 475.781L1429.56 478.484L1429.59 478.454L1429.62 478.423L1426.61 475.781ZM1421.02 485.561L1417.21 484.368L1417.02 484.95V485.561H1421.02ZM1421.02 539V543H1425.02V539H1421.02ZM1397.62 539H1393.62V543H1397.62V539ZM1397.62 447.489V443.489H1393.62V447.489H1397.62ZM1418.75 447.489H1422.75V443.489H1418.75V447.489ZM1418.75 464.429H1414.75V479.119L1422.2 466.457L1418.75 464.429ZM1427.66 454.475L1430.04 457.687L1430.08 457.663L1430.11 457.638L1427.66 454.475ZM1440.06 448.188L1441.21 452.019L1441.24 452.01L1441.27 452.001L1440.06 448.188ZM1469.05 449.061L1467.04 452.52L1467.11 452.558L1467.17 452.594L1469.05 449.061ZM1477.43 457.269L1473.9 459.152L1473.94 459.223L1473.98 459.292L1477.43 457.269ZM1481.45 468.795L1477.5 469.436L1477.51 469.487L1477.52 469.539L1481.45 468.795ZM1482.67 535H1459.27V543H1482.67V535ZM1463.27 539V487.656H1455.27V539H1463.27ZM1463.27 487.656C1463.27 480.02 1461.97 473.592 1458.61 469.172L1452.24 474.007C1454.01 476.34 1455.27 480.623 1455.27 487.656H1463.27ZM1458.61 469.172C1455.24 464.719 1450.46 462.525 1444.78 462.525V470.525C1448.17 470.525 1450.5 471.707 1452.24 474.007L1458.61 469.172ZM1444.78 462.525C1440.92 462.525 1437.11 463.529 1433.38 465.392L1436.96 472.548C1439.75 471.151 1442.34 470.525 1444.78 470.525V462.525ZM1433.33 465.419C1429.71 467.298 1426.47 469.891 1423.61 473.138L1429.62 478.423C1431.88 475.85 1434.35 473.902 1437.01 472.521L1433.33 465.419ZM1423.66 473.078C1420.69 476.319 1418.54 480.098 1417.21 484.368L1424.84 486.754C1425.84 483.572 1427.41 480.832 1429.56 478.484L1423.66 473.078ZM1417.02 485.561V539H1425.02V485.561H1417.02ZM1421.02 535H1397.62V543H1421.02V535ZM1401.62 539V447.489H1393.62V539H1401.62ZM1397.62 451.489H1418.75V443.489H1397.62V451.489ZM1414.75 447.489V464.429H1422.75V447.489H1414.75ZM1422.2 466.457C1424.26 462.951 1426.87 460.039 1430.04 457.687L1425.28 451.263C1421.23 454.267 1417.9 457.991 1415.31 462.401L1422.2 466.457ZM1430.11 457.638C1433.31 455.163 1436.99 453.285 1441.21 452.019L1438.91 444.357C1433.81 445.886 1429.23 448.198 1425.21 451.312L1430.11 457.638ZM1441.27 452.001C1445.63 450.617 1450.23 449.918 1455.08 449.918V441.918C1449.45 441.918 1444.03 442.732 1438.85 444.375L1441.27 452.001ZM1455.08 449.918C1460.33 449.918 1464.23 450.886 1467.04 452.52L1471.06 445.602C1466.66 443.045 1461.24 441.918 1455.08 441.918V449.918ZM1467.17 452.594C1470.24 454.225 1472.44 456.408 1473.9 459.152L1480.96 455.387C1478.7 451.145 1475.31 447.855 1470.93 445.529L1467.17 452.594ZM1473.98 459.292C1475.68 462.196 1476.87 465.56 1477.5 469.436L1485.4 468.155C1484.63 463.416 1483.14 459.095 1480.88 455.246L1473.98 459.292ZM1477.52 469.539C1478.29 473.599 1478.67 477.716 1478.67 481.893H1486.67C1486.67 477.222 1486.24 472.607 1485.38 468.052L1477.52 469.539ZM1478.67 481.893V539H1486.67V481.893H1478.67ZM1588.07 539V543H1592.07V539H1588.07ZM1564.67 539H1560.67V543H1564.67V539ZM1560.83 471.59L1557.64 474.007L1557.64 474.007L1560.83 471.59ZM1540.57 468.97L1538.78 465.392L1538.75 465.405L1538.73 465.419L1540.57 468.97ZM1532.01 475.781L1534.96 478.484L1534.99 478.454L1535.01 478.423L1532.01 475.781ZM1526.42 485.561L1522.6 484.368L1522.42 484.95V485.561H1526.42ZM1526.42 539V543H1530.42V539H1526.42ZM1503.02 539H1499.02V543H1503.02V539ZM1503.02 447.489V443.489H1499.02V447.489H1503.02ZM1524.15 447.489H1528.15V443.489H1524.15V447.489ZM1524.15 464.429H1520.15V479.119L1527.6 466.457L1524.15 464.429ZM1533.06 454.475L1535.44 457.687L1535.47 457.663L1535.51 457.638L1533.06 454.475ZM1545.46 448.188L1546.61 452.019L1546.64 452.01L1546.67 452.001L1545.46 448.188ZM1574.45 449.061L1572.44 452.52L1572.5 452.558L1572.57 452.594L1574.45 449.061ZM1582.83 457.269L1579.3 459.152L1579.34 459.223L1579.38 459.292L1582.83 457.269ZM1586.85 468.795L1582.9 469.436L1582.91 469.487L1582.92 469.539L1586.85 468.795ZM1588.07 535H1564.67V543H1588.07V535ZM1568.67 539V487.656H1560.67V539H1568.67ZM1568.67 487.656C1568.67 480.02 1567.37 473.592 1564.01 469.172L1557.64 474.007C1559.41 476.34 1560.67 480.623 1560.67 487.656H1568.67ZM1564.01 469.172C1560.63 464.719 1555.86 462.525 1550.17 462.525V470.525C1553.57 470.525 1555.89 471.707 1557.64 474.007L1564.01 469.172ZM1550.17 462.525C1546.32 462.525 1542.51 463.529 1538.78 465.392L1542.36 472.548C1545.15 471.151 1547.74 470.525 1550.17 470.525V462.525ZM1538.73 465.419C1535.1 467.298 1531.86 469.891 1529.01 473.138L1535.01 478.423C1537.28 475.85 1539.75 473.902 1542.41 472.521L1538.73 465.419ZM1529.06 473.078C1526.09 476.319 1523.94 480.098 1522.6 484.368L1530.24 486.754C1531.23 483.572 1532.81 480.832 1534.96 478.484L1529.06 473.078ZM1522.42 485.561V539H1530.42V485.561H1522.42ZM1526.42 535H1503.02V543H1526.42V535ZM1507.02 539V447.489H1499.02V539H1507.02ZM1503.02 451.489H1524.15V443.489H1503.02V451.489ZM1520.15 447.489V464.429H1528.15V447.489H1520.15ZM1527.6 466.457C1529.66 462.951 1532.27 460.039 1535.44 457.687L1530.67 451.263C1526.62 454.267 1523.3 457.991 1520.7 462.401L1527.6 466.457ZM1535.51 457.638C1538.7 455.163 1542.39 453.285 1546.61 452.019L1544.31 444.357C1539.21 445.886 1534.63 448.198 1530.61 451.312L1535.51 457.638ZM1546.67 452.001C1551.03 450.617 1555.63 449.918 1560.48 449.918V441.918C1554.85 441.918 1549.43 442.732 1544.25 444.375L1546.67 452.001ZM1560.48 449.918C1565.72 449.918 1569.62 450.886 1572.44 452.52L1576.46 445.602C1572.05 443.045 1566.64 441.918 1560.48 441.918V449.918ZM1572.57 452.594C1575.64 454.225 1577.84 456.408 1579.3 459.152L1586.36 455.387C1584.1 451.145 1580.7 447.855 1576.32 445.529L1572.57 452.594ZM1579.38 459.292C1581.08 462.196 1582.27 465.56 1582.9 469.436L1590.79 468.155C1590.03 463.416 1588.54 459.095 1586.28 455.246L1579.38 459.292ZM1582.92 469.539C1583.68 473.599 1584.07 477.716 1584.07 481.893H1592.07C1592.07 477.222 1591.64 472.607 1590.78 468.052L1582.92 469.539ZM1584.07 481.893V539H1592.07V481.893H1584.07ZM1630.6 537.079L1629.01 540.752L1629.04 540.765L1629.07 540.778L1630.6 537.079ZM1615.4 526.601L1612.46 529.311L1612.48 529.331L1612.5 529.352L1615.4 526.601ZM1605.97 511.407L1609.7 509.961L1605.97 511.407ZM1605.97 475.257L1609.7 476.703L1609.7 476.703L1605.97 475.257ZM1615.4 460.063L1612.5 457.312L1612.48 457.333L1612.46 457.353L1615.4 460.063ZM1630.6 449.76L1632.12 453.458L1632.15 453.446L1632.18 453.433L1630.6 449.76ZM1670.59 449.76L1668.98 453.421L1669.02 453.44L1669.07 453.458L1670.59 449.76ZM1685.78 460.063L1682.88 462.814L1682.88 462.814L1685.78 460.063ZM1695.21 475.257L1691.46 476.636L1691.47 476.67L1691.48 476.703L1695.21 475.257ZM1695.21 511.407L1691.48 509.961L1691.47 509.994L1691.46 510.028L1695.21 511.407ZM1685.78 526.601L1682.88 523.85L1682.86 523.87L1682.84 523.891L1685.78 526.601ZM1670.76 537.079L1672.29 540.778L1672.32 540.765L1672.35 540.752L1670.76 537.079ZM1629.9 507.74L1626.32 509.529L1626.33 509.549L1626.34 509.569L1629.9 507.74ZM1638.45 517.345L1640.62 513.984L1640.62 513.984L1638.45 517.345ZM1662.73 517.345L1664.9 520.706L1664.94 520.682L1664.97 520.656L1662.73 517.345ZM1671.29 507.565L1667.75 505.698L1667.74 505.717L1667.73 505.736L1671.29 507.565ZM1671.29 479.099L1667.71 480.888L1667.73 480.927L1667.75 480.966L1671.29 479.099ZM1662.73 469.319L1660.56 472.68L1660.56 472.68L1662.73 469.319ZM1638.45 469.494L1640.62 472.855L1640.66 472.831L1640.7 472.806L1638.45 469.494ZM1629.9 479.274L1633.45 481.103L1633.46 481.083L1633.48 481.062L1629.9 479.274ZM1650.68 536.746C1643.67 536.746 1637.5 535.597 1632.12 533.38L1629.07 540.778C1635.56 543.451 1642.79 544.746 1650.68 544.746V536.746ZM1632.18 533.406C1626.71 531.046 1622.1 527.857 1618.31 523.85L1612.5 529.352C1617.09 534.193 1622.61 537.989 1629.01 540.752L1632.18 533.406ZM1618.34 523.891C1614.61 519.841 1611.74 515.207 1609.7 509.961L1602.24 512.853C1604.63 519.017 1608.04 524.512 1612.46 529.311L1618.34 523.891ZM1609.7 509.961C1607.67 504.73 1606.65 499.226 1606.65 493.419H1598.65C1598.65 500.187 1599.85 506.674 1602.24 512.853L1609.7 509.961ZM1606.65 493.419C1606.65 487.487 1607.68 481.925 1609.7 476.703L1602.24 473.811C1599.84 479.998 1598.65 486.545 1598.65 493.419H1606.65ZM1609.7 476.703C1611.74 471.457 1614.61 466.823 1618.34 462.773L1612.46 457.353C1608.04 462.152 1604.63 467.647 1602.24 473.811L1609.7 476.703ZM1618.31 462.814C1622.09 458.822 1626.67 455.7 1632.12 453.458L1629.07 446.061C1622.64 448.709 1617.1 452.457 1612.5 457.312L1618.31 462.814ZM1632.18 453.433C1637.55 451.117 1643.69 449.918 1650.68 449.918V441.918C1642.77 441.918 1635.52 443.279 1629.01 446.087L1632.18 453.433ZM1650.68 449.918C1657.67 449.918 1663.74 451.118 1668.98 453.421L1672.2 446.098C1665.79 443.279 1658.59 441.918 1650.68 441.918V449.918ZM1669.07 453.458C1674.51 455.7 1679.1 458.822 1682.88 462.814L1688.69 457.312C1684.09 452.457 1678.54 448.709 1672.11 446.061L1669.07 453.458ZM1682.88 462.814C1686.7 466.845 1689.55 471.443 1691.46 476.636L1698.97 473.878C1696.68 467.661 1693.25 462.13 1688.69 457.312L1682.88 462.814ZM1691.48 476.703C1693.51 481.925 1694.53 487.487 1694.53 493.419H1702.53C1702.53 486.545 1701.34 479.998 1698.94 473.811L1691.48 476.703ZM1694.53 493.419C1694.53 499.226 1693.51 504.73 1691.48 509.961L1698.94 512.853C1701.34 506.674 1702.53 500.187 1702.53 493.419H1694.53ZM1691.46 510.028C1689.55 515.221 1686.7 519.819 1682.88 523.85L1688.69 529.352C1693.25 524.534 1696.68 519.003 1698.97 512.786L1691.46 510.028ZM1682.84 523.891C1679.17 527.872 1674.64 531.05 1669.18 533.406L1672.35 540.752C1678.76 537.985 1684.24 534.178 1688.72 529.311L1682.84 523.891ZM1669.24 533.38C1663.86 535.597 1657.69 536.746 1650.68 536.746V544.746C1658.57 544.746 1665.79 543.451 1672.29 540.778L1669.24 533.38ZM1622.75 493.419C1622.75 499.307 1623.91 504.707 1626.32 509.529L1633.48 505.951C1631.69 502.39 1630.75 498.243 1630.75 493.419H1622.75ZM1626.34 509.569C1628.73 514.224 1632.05 517.972 1636.29 520.706L1640.62 513.984C1637.64 512.061 1635.25 509.405 1633.45 505.91L1626.34 509.569ZM1636.29 520.706C1640.58 523.476 1645.42 524.838 1650.68 524.838V516.838C1646.86 516.838 1643.55 515.871 1640.62 513.984L1636.29 520.706ZM1650.68 524.838C1655.85 524.838 1660.62 523.465 1664.9 520.706L1660.56 513.984C1657.62 515.882 1654.36 516.838 1650.68 516.838V524.838ZM1664.97 520.656C1669.17 517.816 1672.46 514.034 1674.84 509.394L1667.73 505.736C1665.92 509.246 1663.51 511.984 1660.49 514.033L1664.97 520.656ZM1674.82 509.432C1677.38 504.594 1678.6 499.165 1678.6 493.245H1670.6C1670.6 498.035 1669.62 502.153 1667.75 505.698L1674.82 509.432ZM1678.6 493.245C1678.6 487.425 1677.37 482.058 1674.82 477.232L1667.75 480.966C1669.63 484.523 1670.6 488.586 1670.6 493.245H1678.6ZM1674.86 477.31C1672.48 472.538 1669.16 468.71 1664.9 465.958L1660.56 472.68C1663.51 474.586 1665.9 477.277 1667.71 480.888L1674.86 477.31ZM1664.9 465.958C1660.62 463.199 1655.85 461.826 1650.68 461.826V469.826C1654.36 469.826 1657.62 470.782 1660.56 472.68L1664.9 465.958ZM1650.68 461.826C1645.37 461.826 1640.51 463.269 1636.21 466.182L1640.7 472.806C1643.62 470.829 1646.9 469.826 1650.68 469.826V461.826ZM1636.29 466.133C1632.02 468.885 1628.71 472.713 1626.32 477.485L1633.48 481.062C1635.28 477.452 1637.67 474.76 1640.62 472.855L1636.29 466.133ZM1626.34 477.444C1623.91 482.173 1622.75 487.535 1622.75 493.419H1630.75C1630.75 488.593 1631.7 484.524 1633.45 481.103L1626.34 477.444ZM1735.88 539L1732.13 540.382L1733.09 543H1735.88V539ZM1702.17 447.489V443.489H1696.44L1698.42 448.872L1702.17 447.489ZM1726.45 447.489L1730.25 446.242L1729.35 443.489H1726.45V447.489ZM1749.5 517.694L1745.7 518.942L1749.49 530.472L1753.3 518.951L1749.5 517.694ZM1772.73 447.489V443.489H1769.84L1768.93 446.233L1772.73 447.489ZM1794.91 447.489L1798.66 448.866L1800.63 443.489H1794.91V447.489ZM1761.38 539V543H1764.17L1765.13 540.376L1761.38 539ZM1739.63 537.618L1705.93 446.107L1698.42 448.872L1732.13 540.382L1739.63 537.618ZM1702.17 451.489H1726.45V443.489H1702.17V451.489ZM1722.65 448.737L1745.7 518.942L1753.3 516.446L1730.25 446.242L1722.65 448.737ZM1753.3 518.951L1776.53 448.746L1768.93 446.233L1745.7 516.438L1753.3 518.951ZM1772.73 451.489H1794.91V443.489H1772.73V451.489ZM1791.15 446.113L1757.62 537.624L1765.13 540.376L1798.66 448.866L1791.15 446.113ZM1761.38 535H1735.88V543H1761.38V535ZM1803.49 496.388L1800.28 494.001L1800.27 494.008L1800.27 494.015L1803.49 496.388ZM1817.46 485.91L1815.94 482.211L1815.94 482.211L1817.46 485.91ZM1849.59 483.116L1849.01 487.073L1849.01 487.073L1849.59 483.116ZM1859.9 485.91L1858.29 489.571L1863.9 492.04V485.91H1859.9ZM1854.66 467.573L1851.93 470.5L1851.96 470.523L1851.98 470.546L1854.66 467.573ZM1825.14 465.477L1823.71 461.744L1823.71 461.744L1825.14 465.477ZM1810.82 473.161L1807.23 474.917L1809.25 479.048L1813.06 476.478L1810.82 473.161ZM1803.31 457.793L1801.12 454.445L1798.17 456.377L1799.72 459.549L1803.31 457.793ZM1821.83 448.887L1820.64 445.065L1820.63 445.068L1820.62 445.071L1821.83 448.887ZM1872.3 455.697L1869.61 458.666L1869.63 458.676L1869.64 458.687L1872.3 455.697ZM1884.52 518.043L1881.36 520.499L1881.44 520.603L1881.53 520.701L1884.52 518.043ZM1888.89 519.964H1892.89V516.407L1889.35 515.992L1888.89 519.964ZM1888.89 539L1889.54 542.946L1892.89 542.389V539H1888.89ZM1883.12 539.873L1882.59 535.908L1882.58 535.911L1882.56 535.913L1883.12 539.873ZM1868.28 537.079L1865.6 540.052L1865.64 540.085L1865.68 540.116L1868.28 537.079ZM1863.91 529.395L1859.94 529.837L1859.96 529.994L1859.98 530.15L1863.91 529.395ZM1863.39 524.68L1867.36 524.238L1866.27 514.407L1860.22 522.234L1863.39 524.68ZM1848.54 536.555L1850.25 540.174L1848.54 536.555ZM1813.97 537.079L1812.08 540.604L1812.13 540.631L1812.18 540.657L1813.97 537.079ZM1802.61 526.775L1799.19 528.847L1799.23 528.9L1799.26 528.952L1802.61 526.775ZM1855.53 516.646L1858.28 519.554L1858.38 519.455L1858.48 519.349L1855.53 516.646ZM1858.67 512.455L1855.22 510.439L1855.22 510.439L1858.67 512.455ZM1859.9 499.357H1863.9V496.69L1861.43 495.665L1859.9 499.357ZM1850.82 496.737L1849.98 500.649L1850.04 500.663L1850.11 500.675L1850.82 496.737ZM1826.54 499.706L1828.76 503.035L1828.77 503.027L1828.78 503.019L1826.54 499.706ZM1822.7 516.646L1819.29 518.732L1819.29 518.732L1822.7 516.646ZM1847.32 521.711L1848.74 525.451L1848.8 525.43L1848.85 525.407L1847.32 521.711ZM1802.6 511.931C1802.6 506.774 1804 502.441 1806.71 498.761L1800.27 494.015C1796.46 499.183 1794.6 505.212 1794.6 511.931H1802.6ZM1806.7 498.775C1809.59 494.892 1813.62 491.815 1818.98 489.609L1815.94 482.211C1809.42 484.894 1804.14 488.803 1800.28 494.001L1806.7 498.775ZM1818.98 489.609C1824.35 487.398 1830.63 486.242 1837.89 486.242V478.242C1829.79 478.242 1822.44 479.532 1815.94 482.211L1818.98 489.609ZM1837.89 486.242C1841.53 486.242 1845.24 486.518 1849.01 487.073L1850.17 479.158C1846.03 478.549 1841.94 478.242 1837.89 478.242V486.242ZM1849.01 487.073C1852.7 487.616 1855.77 488.466 1858.29 489.571L1861.51 482.249C1858.2 480.792 1854.4 479.78 1850.17 479.158L1849.01 487.073ZM1863.9 485.91V481.02H1855.9V485.91H1863.9ZM1863.9 481.02C1863.9 474.357 1861.86 468.677 1857.33 464.6L1851.98 470.546C1854.44 472.755 1855.9 476.041 1855.9 481.02H1863.9ZM1857.38 464.645C1852.99 460.551 1846.76 458.858 1839.46 458.858V466.858C1845.67 466.858 1849.58 468.308 1851.93 470.5L1857.38 464.645ZM1839.46 458.858C1833.98 458.858 1828.72 459.816 1823.71 461.744L1826.58 469.211C1830.65 467.646 1834.93 466.858 1839.46 466.858V458.858ZM1823.71 461.744C1818.83 463.621 1813.79 466.339 1808.59 469.845L1813.06 476.478C1817.87 473.231 1822.38 470.826 1826.58 469.211L1823.71 461.744ZM1814.42 471.405L1806.91 456.037L1799.72 459.549L1807.23 474.917L1814.42 471.405ZM1805.5 461.141C1811.28 457.363 1817.12 454.561 1823.03 452.702L1820.62 445.071C1813.96 447.17 1807.46 450.306 1801.12 454.445L1805.5 461.141ZM1823.01 452.708C1829.01 450.852 1835.31 449.918 1841.91 449.918V441.918C1834.54 441.918 1827.45 442.962 1820.64 445.065L1823.01 452.708ZM1841.91 449.918C1854.3 449.918 1863.35 453.009 1869.61 458.666L1874.98 452.729C1866.8 445.347 1855.6 441.918 1841.91 441.918V449.918ZM1869.64 458.687C1875.92 464.275 1879.3 472.385 1879.3 483.64H1887.3C1887.3 470.678 1883.34 460.16 1874.95 452.708L1869.64 458.687ZM1879.3 483.64V512.804H1887.3V483.64H1879.3ZM1879.3 512.804C1879.3 515.484 1879.7 518.366 1881.36 520.499L1887.68 515.588C1887.73 515.65 1887.61 515.536 1887.5 515.039C1887.38 514.549 1887.3 513.823 1887.3 512.804H1879.3ZM1881.53 520.701C1883.34 522.739 1885.87 523.638 1888.42 523.937L1889.35 515.992C1887.94 515.826 1887.56 515.444 1887.51 515.386L1881.53 520.701ZM1884.89 519.964V539H1892.89V519.964H1884.89ZM1888.23 535.054C1886.17 535.398 1884.29 535.682 1882.59 535.908L1883.65 543.838C1885.45 543.598 1887.41 543.301 1889.54 542.946L1888.23 535.054ZM1882.56 535.913C1881.04 536.129 1879.85 536.222 1878.93 536.222V544.222C1880.35 544.222 1881.94 544.083 1883.69 543.833L1882.56 535.913ZM1878.93 536.222C1874.81 536.222 1872.34 535.29 1870.88 534.042L1865.68 540.116C1869.11 543.06 1873.74 544.222 1878.93 544.222V536.222ZM1870.95 534.106C1869.26 532.583 1868.26 530.796 1867.84 528.639L1859.98 530.15C1860.73 534.048 1862.64 537.384 1865.6 540.052L1870.95 534.106ZM1867.89 528.953L1867.36 524.238L1859.41 525.121L1859.94 529.837L1867.89 528.953ZM1860.22 522.234C1856.66 526.848 1852.21 530.408 1846.84 532.936L1850.25 540.174C1856.75 537.114 1862.2 532.757 1866.55 527.125L1860.22 522.234ZM1846.84 532.936C1841.4 535.496 1835.93 536.746 1830.38 536.746V544.746C1837.18 544.746 1843.81 543.203 1850.25 540.174L1846.84 532.936ZM1830.38 536.746C1824.88 536.746 1820.03 535.64 1815.76 533.501L1812.18 540.657C1817.68 543.408 1823.77 544.746 1830.38 544.746V536.746ZM1815.86 533.554C1811.64 531.294 1808.38 528.309 1805.97 524.599L1799.26 528.952C1802.44 533.857 1806.74 537.742 1812.08 540.604L1815.86 533.554ZM1806.04 524.704C1803.76 520.941 1802.6 516.717 1802.6 511.931H1794.6C1794.6 518.089 1796.11 523.761 1799.19 528.847L1806.04 524.704ZM1858.48 519.349C1859.92 517.777 1861.15 516.152 1862.13 514.47L1855.22 510.439C1854.57 511.552 1853.7 512.722 1852.58 513.943L1858.48 519.349ZM1862.13 514.47C1863.17 512.689 1863.9 510.709 1863.9 508.613H1855.9C1855.9 508.846 1855.81 509.427 1855.22 510.439L1862.13 514.47ZM1863.9 508.613V499.357H1855.9V508.613H1863.9ZM1861.43 495.665C1858.35 494.379 1855.04 493.428 1851.52 492.8L1850.11 500.675C1853.11 501.211 1855.86 502.007 1858.36 503.049L1861.43 495.665ZM1851.65 492.826C1848.16 492.077 1844.79 491.69 1841.56 491.69V499.69C1844.15 499.69 1846.95 500.001 1849.98 500.649L1851.65 492.826ZM1841.56 491.69C1834.92 491.69 1829.08 493.162 1824.3 496.393L1828.78 503.019C1831.92 500.895 1836.09 499.69 1841.56 499.69V491.69ZM1824.32 496.378C1819.46 499.618 1816.78 504.254 1816.78 510.01H1824.78C1824.78 507.15 1825.93 504.917 1828.76 503.035L1824.32 496.378ZM1816.78 510.01C1816.78 513.116 1817.64 516.044 1819.29 518.732L1826.11 514.56C1825.19 513.057 1824.78 511.562 1824.78 510.01H1816.78ZM1819.29 518.732C1820.99 521.519 1823.43 523.68 1826.43 525.254L1830.14 518.167C1828.26 517.18 1826.97 515.964 1826.11 514.56L1819.29 518.732ZM1826.43 525.254C1829.56 526.895 1833.14 527.632 1837.02 527.632V519.632C1834.15 519.632 1831.9 519.088 1830.14 518.167L1826.43 525.254ZM1837.02 527.632C1841.01 527.632 1844.93 526.897 1848.74 525.451L1845.9 517.971C1842.96 519.085 1840.01 519.632 1837.02 519.632V527.632ZM1848.85 525.407C1852.56 523.871 1855.75 521.944 1858.28 519.554L1852.78 513.738C1851.12 515.307 1848.83 516.756 1845.79 518.015L1848.85 525.407ZM1959.15 534.285L1960.67 537.983L1963.88 536.662L1963.03 533.297L1959.15 534.285ZM1951.99 537.079L1953.39 540.824L1953.39 540.824L1951.99 537.079ZM1942.91 539.524L1942.21 535.586L1942.12 535.601L1942.04 535.619L1942.91 539.524ZM1912.7 531.141L1909.3 533.251L1909.34 533.32L1909.39 533.387L1912.7 531.141ZM1909.55 465.477H1913.55V461.477H1909.55V465.477ZM1897.5 465.477H1893.5V469.477H1897.5V465.477ZM1897.5 447.489V443.489H1893.5V447.489H1897.5ZM1909.55 447.489V451.489H1913.55V447.489H1909.55ZM1909.55 417.801V413.801H1905.55V417.801H1909.55ZM1932.95 417.801H1936.95V413.801H1932.95V417.801ZM1932.95 447.489H1928.95V451.489H1932.95V447.489ZM1952.16 447.489H1956.16V443.489H1952.16V447.489ZM1952.16 465.477V469.477H1956.16V465.477H1952.16ZM1932.95 465.477V461.477H1928.95V465.477H1932.95ZM1932.95 510.185H1928.95V510.259L1928.96 510.333L1932.95 510.185ZM1935.57 516.996L1932.97 520.033L1932.97 520.033L1935.57 516.996ZM1948.85 517.869L1947.52 514.093L1948.85 517.869ZM1954.43 515.773L1958.31 514.786L1957.17 510.301L1952.9 512.081L1954.43 515.773ZM1957.63 530.586C1955.7 531.38 1953.35 532.295 1950.58 533.334L1953.39 540.824C1956.21 539.767 1958.64 538.82 1960.67 537.983L1957.63 530.586ZM1950.58 533.334C1948.04 534.288 1945.25 535.042 1942.21 535.586L1943.61 543.462C1947.08 542.841 1950.35 541.966 1953.39 540.824L1950.58 533.334ZM1942.04 535.619C1939.19 536.254 1936.27 536.572 1933.3 536.572V544.572C1936.85 544.572 1940.34 544.191 1943.78 543.429L1942.04 535.619ZM1933.3 536.572C1929.47 536.572 1926.05 535.901 1922.97 534.613L1919.88 541.99C1924.03 543.729 1928.52 544.572 1933.3 544.572V536.572ZM1922.97 534.613C1920.09 533.401 1917.79 531.518 1916.01 528.895L1909.39 533.387C1912.03 537.284 1915.55 540.175 1919.88 541.99L1922.97 534.613ZM1916.09 529.032C1914.51 526.473 1913.55 522.905 1913.55 518.043H1905.55C1905.55 523.893 1906.69 529.057 1909.3 533.251L1916.09 529.032ZM1913.55 518.043V465.477H1905.55V518.043H1913.55ZM1909.55 461.477H1897.5V469.477H1909.55V461.477ZM1901.5 465.477V447.489H1893.5V465.477H1901.5ZM1897.5 451.489H1909.55V443.489H1897.5V451.489ZM1913.55 447.489V417.801H1905.55V447.489H1913.55ZM1909.55 421.801H1932.95V413.801H1909.55V421.801ZM1928.95 417.801V447.489H1936.95V417.801H1928.95ZM1932.95 451.489H1952.16V443.489H1932.95V451.489ZM1948.16 447.489V465.477H1956.16V447.489H1948.16ZM1952.16 461.477H1932.95V469.477H1952.16V461.477ZM1928.95 465.477V510.185H1936.95V465.477H1928.95ZM1928.96 510.333C1929.09 514.067 1930.16 517.627 1932.97 520.033L1938.18 513.959C1937.72 513.57 1937.05 512.589 1936.95 510.037L1928.96 510.333ZM1932.97 520.033C1935.43 522.137 1938.43 523.091 1941.69 523.091V515.091C1940.05 515.091 1938.98 514.648 1938.18 513.959L1932.97 520.033ZM1941.69 523.091C1944.58 523.091 1947.42 522.606 1950.17 521.644L1947.52 514.093C1945.62 514.761 1943.68 515.091 1941.69 515.091V523.091ZM1950.17 521.644C1952.53 520.817 1954.47 520.09 1955.97 519.465L1952.9 512.081C1951.6 512.621 1949.82 513.29 1947.52 514.093L1950.17 521.644ZM1950.56 516.76L1955.27 535.272L1963.03 533.297L1958.31 514.786L1950.56 516.76ZM1992.84 537.079L1991.26 540.752L1991.29 540.765L1991.32 540.778L1992.84 537.079ZM1977.65 526.775L1974.75 529.526L1974.76 529.546L1974.78 529.565L1977.65 526.775ZM1967.87 511.756L1964.14 513.203L1964.16 513.249L1964.18 513.295L1967.87 511.756ZM1970.31 469.843L1966.81 467.92L1966.8 467.942L1966.78 467.964L1970.31 469.843ZM1987.08 452.554L1989.13 455.989L1989.14 455.984L1989.15 455.979L1987.08 452.554ZM2038.6 452.554L2036.48 455.949L2036.5 455.962L2036.52 455.974L2038.6 452.554ZM2054.84 469.843L2051.28 471.678L2051.3 471.712L2051.32 471.746L2054.84 469.843ZM2060.43 497.261L2064.41 497.594L2064.41 497.581L2064.42 497.568L2060.43 497.261ZM2060.08 500.754V504.754H2063.61L2064.05 501.25L2060.08 500.754ZM1989.35 500.754V496.754H1984.93L1985.37 501.152L1989.35 500.754ZM1993.37 512.979L1989.99 515.119L1990.01 515.159L1990.04 515.198L1993.37 512.979ZM2002.1 521.012L2000.22 524.542L2000.29 524.579L2000.36 524.613L2002.1 521.012ZM2026.72 520.314L2028.63 523.829L2028.65 523.82L2028.67 523.81L2026.72 520.314ZM2035.28 511.232L2036.35 507.379L2032.92 506.423L2031.57 509.727L2035.28 511.232ZM2055.36 516.821L2058.98 518.537L2061.02 514.242L2056.44 512.967L2055.36 516.821ZM2045.76 529.22L2043.15 526.189L2043.13 526.207L2043.11 526.226L2045.76 529.22ZM2031.26 537.778L2032.6 541.548L2032.63 541.536L2032.67 541.523L2031.26 537.778ZM1988.83 485.91L1984.85 485.512L1984.41 489.91H1988.83V485.91ZM2036.68 485.91V489.91H2041.1L2040.66 485.512L2036.68 485.91ZM2032.66 473.86L2029.23 475.918L2029.27 475.986L2029.31 476.052L2032.66 473.86ZM2024.28 465.826L2022.31 469.307L2022.35 469.332L2022.4 469.356L2024.28 465.826ZM2001.05 465.826L2002.98 469.329L2003 469.318L2003.02 469.307L2001.05 465.826ZM1992.67 473.86L1989.29 471.72L1989.28 471.735L1989.27 471.75L1992.67 473.86ZM2012.75 536.746C2005.87 536.746 1999.76 535.6 1994.37 533.38L1991.32 540.778C1997.8 543.448 2004.97 544.746 2012.75 544.746V536.746ZM1994.43 533.406C1988.93 531.036 1984.31 527.89 1980.52 523.986L1974.78 529.565C1979.37 534.276 1984.88 537.999 1991.26 540.752L1994.43 533.406ZM1980.55 524.024C1976.69 519.951 1973.7 515.355 1971.56 510.218L1964.18 513.295C1966.69 519.335 1970.22 524.752 1974.75 529.526L1980.55 524.024ZM1971.6 510.31C1969.57 505.079 1968.55 499.575 1968.55 493.769H1960.55C1960.55 500.536 1961.74 507.024 1964.14 513.203L1971.6 510.31ZM1968.55 493.769C1968.55 485.646 1970.33 478.323 1973.85 471.723L1966.78 467.964C1962.61 475.8 1960.55 484.427 1960.55 493.769H1968.55ZM1973.82 471.766C1977.43 465.186 1982.51 459.94 1989.13 455.989L1985.03 449.119C1977.21 453.784 1971.12 460.063 1966.81 467.92L1973.82 471.766ZM1989.15 455.979C1995.77 451.986 2003.64 449.918 2012.93 449.918V441.918C2002.42 441.918 1993.06 444.273 1985.01 449.129L1989.15 455.979ZM2012.93 449.918C2022.34 449.918 2030.13 451.992 2036.48 455.949L2040.71 449.159C2032.86 444.268 2023.54 441.918 2012.93 441.918V449.918ZM2036.52 455.974C2043.01 459.909 2047.91 465.129 2051.28 471.678L2058.39 468.009C2054.32 460.12 2048.39 453.815 2040.67 449.134L2036.52 455.974ZM2051.32 471.746C2054.84 478.25 2056.6 485.277 2056.6 492.895H2064.6C2064.6 483.981 2062.52 475.641 2058.36 467.94L2051.32 471.746ZM2056.6 492.895C2056.6 494.182 2056.55 495.535 2056.44 496.955L2064.42 497.568C2064.54 495.961 2064.6 494.403 2064.6 492.895H2056.6ZM2056.44 496.929C2056.33 498.295 2056.22 499.401 2056.11 500.258L2064.05 501.25C2064.17 500.245 2064.29 499.022 2064.41 497.594L2056.44 496.929ZM2060.08 496.754H1989.35V504.754H2060.08V496.754ZM1985.37 501.152C1985.89 506.346 1987.4 511.034 1989.99 515.119L1996.75 510.839C1994.91 507.938 1993.74 504.476 1993.33 500.356L1985.37 501.152ZM1990.04 515.198C1992.71 519.206 1996.11 522.349 2000.22 524.542L2003.98 517.483C2001.11 515.95 1998.68 513.738 1996.69 510.76L1990.04 515.198ZM2000.36 524.613C2004.52 526.626 2008.96 527.632 2013.62 527.632V519.632C2010.14 519.632 2006.9 518.891 2003.84 517.412L2000.36 524.613ZM2013.62 527.632C2018.95 527.632 2023.97 526.361 2028.63 523.829L2024.81 516.798C2021.33 518.691 2017.62 519.632 2013.62 519.632V527.632ZM2028.67 523.81C2033.49 521.127 2037.07 517.464 2038.99 512.738L2031.57 509.727C2030.47 512.452 2028.33 514.843 2024.78 516.817L2028.67 523.81ZM2034.21 515.086L2054.29 520.675L2056.44 512.967L2036.35 507.379L2034.21 515.086ZM2051.75 515.105C2049.79 519.222 2046.95 522.917 2043.15 526.189L2048.37 532.251C2052.95 528.305 2056.51 523.733 2058.98 518.537L2051.75 515.105ZM2043.11 526.226C2039.43 529.481 2035.03 532.092 2029.86 534.032L2032.67 541.523C2038.67 539.272 2043.94 536.178 2048.41 532.215L2043.11 526.226ZM2029.93 534.007C2024.82 535.815 2019.11 536.746 2012.75 536.746V544.746C2019.9 544.746 2026.53 543.699 2032.6 541.548L2029.93 534.007ZM1988.83 489.91H2036.68V481.91H1988.83V489.91ZM2040.66 485.512C2040.14 480.317 2038.62 475.662 2036.01 471.668L2029.31 476.052C2031.12 478.81 2032.28 482.189 2032.7 486.308L2040.66 485.512ZM2036.09 471.802C2033.63 467.706 2030.31 464.511 2026.16 462.297L2022.4 469.356C2025.23 470.867 2027.5 473.028 2029.23 475.918L2036.09 471.802ZM2026.25 462.346C2022.11 460.002 2017.52 458.858 2012.58 458.858V466.858C2016.25 466.858 2019.46 467.693 2022.31 469.307L2026.25 462.346ZM2012.58 458.858C2007.73 458.858 2003.2 460.011 1999.08 462.346L2003.02 469.307C2005.89 467.683 2009.05 466.858 2012.58 466.858V458.858ZM1999.12 462.324C1995.11 464.535 1991.83 467.701 1989.29 471.72L1996.05 476C1997.93 473.034 2000.24 470.843 2002.98 469.329L1999.12 462.324ZM1989.27 471.75C1986.8 475.73 1985.36 480.355 1984.85 485.512L1992.81 486.308C1993.22 482.151 1994.35 478.743 1996.07 475.969L1989.27 471.75Z" fill="white" mask="url(#path-10-outside-1_1242_949)"/>
</g>
<g filter="url(#filter4_d_1242_949)">
<mask id="path-12-outside-2_1242_949" maskUnits="userSpaceOnUse" x="652.035" y="113.357" width="1416" height="269" fill="black">
<rect fill="white" x="652.035" y="113.357" width="1416" height="269"/>
<path d="M750.219 124.409H799.477L891.309 374.765H841.347L818.125 312.352H730.867L707.997 374.765H658.035L750.219 124.409ZM809.329 278.149L774.848 174.833L738.96 278.149H809.329Z"/>
<path d="M914.135 374.765V196.695H961.283V374.765H914.135Z"/>
<path d="M1290.22 374.765H1243.07V271.097C1243.07 256.522 1240.49 245.826 1235.33 239.009C1230.4 231.956 1223.48 228.43 1214.57 228.43C1205.42 228.43 1196.63 232.074 1188.18 239.361C1179.97 246.414 1174.11 255.699 1170.59 267.218V374.765H1123.44V271.097C1123.44 256.287 1120.86 245.473 1115.7 238.656C1110.78 231.839 1103.86 228.43 1094.94 228.43C1085.79 228.43 1077 231.956 1068.55 239.009C1060.34 246.061 1054.48 255.346 1050.96 266.865V374.765H1003.81V189.995H1046.39V224.199C1053.42 212.21 1062.81 203.042 1074.54 196.695C1086.26 190.113 1099.75 186.822 1115 186.822C1130.24 186.822 1142.09 190.583 1150.53 198.105C1159.21 205.628 1164.73 214.913 1167.07 225.962C1174.58 213.268 1184.08 203.63 1195.57 197.048C1207.3 190.23 1220.43 186.822 1234.98 186.822C1246.47 186.822 1255.74 188.938 1262.77 193.169C1270.04 197.165 1275.67 202.689 1279.66 209.742C1283.65 216.559 1286.35 224.316 1287.75 233.014C1289.4 241.712 1290.22 250.527 1290.22 259.46V374.765Z"/>
<path d="M1491.4 167.075H1411.53V374.765H1363.33V167.075H1283.46V124.409H1491.4V167.075Z"/>
<path d="M1568.63 378.291C1553.86 378.291 1540.49 375.823 1528.52 370.886C1516.56 365.715 1506.36 358.78 1497.91 350.082C1489.47 341.149 1482.9 331.041 1478.21 319.757C1473.75 308.238 1471.53 296.132 1471.53 283.438C1471.53 265.807 1475.4 249.705 1483.14 235.13C1491.11 220.555 1502.37 208.919 1516.91 200.221C1531.69 191.288 1549.05 186.822 1568.99 186.822C1589.16 186.822 1606.4 191.288 1620.71 200.221C1635.02 208.919 1645.92 220.555 1653.43 235.13C1661.17 249.47 1665.04 264.985 1665.04 281.675C1665.04 284.496 1664.92 287.434 1664.69 290.49C1664.45 293.311 1664.22 295.662 1663.99 297.543H1521.49C1522.43 306.946 1525.12 315.173 1529.58 322.225C1534.27 329.278 1540.14 334.685 1547.17 338.446C1554.44 341.972 1562.18 343.735 1570.39 343.735C1579.78 343.735 1588.57 341.502 1596.78 337.035C1605.23 332.334 1610.97 326.222 1614.02 318.699L1654.49 329.983C1650.03 339.386 1643.58 347.731 1635.13 355.019C1626.92 362.306 1617.19 368.065 1605.93 372.297C1594.67 376.293 1582.24 378.291 1568.63 378.291ZM1520.43 267.57H1616.84C1615.9 258.167 1613.2 250.057 1608.75 243.24C1604.52 236.188 1598.89 230.781 1591.86 227.02C1584.82 223.024 1576.96 221.025 1568.28 221.025C1559.84 221.025 1552.1 223.024 1545.06 227.02C1538.26 230.781 1532.63 236.188 1528.17 243.24C1523.95 250.057 1521.37 258.167 1520.43 267.57Z"/>
<path d="M1779.61 378.291C1764.6 378.291 1751.11 375.823 1739.15 370.886C1727.19 365.715 1716.98 358.662 1708.54 349.729C1700.1 340.561 1693.53 330.218 1688.84 318.699C1684.38 307.181 1682.15 295.074 1682.15 282.38C1682.15 264.985 1686.02 249.117 1693.76 234.777C1701.74 220.203 1713 208.566 1727.54 199.869C1742.08 191.171 1759.32 186.822 1779.26 186.822C1799.2 186.822 1816.32 191.171 1830.63 199.869C1844.94 208.566 1855.61 219.968 1862.65 234.072L1816.56 248.177C1812.57 241.359 1807.29 236.188 1800.72 232.662C1794.16 228.9 1786.89 227.02 1778.91 227.02C1770 227.02 1761.79 229.371 1754.28 234.072C1747.01 238.538 1741.26 245.003 1737.04 253.466C1732.82 261.693 1730.71 271.332 1730.71 282.38C1730.71 293.194 1732.82 302.832 1737.04 311.294C1741.5 319.522 1747.36 326.104 1754.63 331.041C1761.9 335.742 1770 338.093 1778.91 338.093C1784.54 338.093 1789.82 337.153 1794.74 335.272C1799.9 333.392 1804.48 330.806 1808.46 327.515C1812.45 324.224 1815.38 320.462 1817.26 316.231L1863.35 330.336C1859.13 339.504 1852.91 347.731 1844.71 355.019C1836.73 362.306 1827.23 368.065 1816.21 372.297C1805.42 376.293 1793.22 378.291 1779.61 378.291Z"/>
<path d="M2063.71 374.765H2016.57V271.097C2016.57 256.757 2013.75 246.061 2008.12 239.009C2002.73 231.956 1995.22 228.43 1985.6 228.43C1979.97 228.43 1973.99 230.076 1967.66 233.367C1961.33 236.658 1955.58 241.242 1950.42 247.119C1945.49 252.761 1941.86 259.343 1939.51 266.865V374.765H1892.36V117.357H1939.51V224.199C1946.31 212.445 1955.58 203.277 1967.31 196.695C1979.04 190.113 1991.82 186.822 2005.66 186.822C2017.62 186.822 2027.36 188.938 2034.86 193.169C2042.37 197.165 2048.23 202.689 2052.45 209.742C2056.68 216.559 2059.61 224.316 2061.25 233.014C2062.89 241.477 2063.71 250.292 2063.71 259.46V374.765Z"/>
</mask>
<path d="M750.219 124.409H799.477L891.309 374.765H841.347L818.125 312.352H730.867L707.997 374.765H658.035L750.219 124.409ZM809.329 278.149L774.848 174.833L738.96 278.149H809.329Z" fill="#1B3360"/>
<path d="M914.135 374.765V196.695H961.283V374.765H914.135Z" fill="#1B3360"/>
<path d="M1290.22 374.765H1243.07V271.097C1243.07 256.522 1240.49 245.826 1235.33 239.009C1230.4 231.956 1223.48 228.43 1214.57 228.43C1205.42 228.43 1196.63 232.074 1188.18 239.361C1179.97 246.414 1174.11 255.699 1170.59 267.218V374.765H1123.44V271.097C1123.44 256.287 1120.86 245.473 1115.7 238.656C1110.78 231.839 1103.86 228.43 1094.94 228.43C1085.79 228.43 1077 231.956 1068.55 239.009C1060.34 246.061 1054.48 255.346 1050.96 266.865V374.765H1003.81V189.995H1046.39V224.199C1053.42 212.21 1062.81 203.042 1074.54 196.695C1086.26 190.113 1099.75 186.822 1115 186.822C1130.24 186.822 1142.09 190.583 1150.53 198.105C1159.21 205.628 1164.73 214.913 1167.07 225.962C1174.58 213.268 1184.08 203.63 1195.57 197.048C1207.3 190.23 1220.43 186.822 1234.98 186.822C1246.47 186.822 1255.74 188.938 1262.77 193.169C1270.04 197.165 1275.67 202.689 1279.66 209.742C1283.65 216.559 1286.35 224.316 1287.75 233.014C1289.4 241.712 1290.22 250.527 1290.22 259.46V374.765Z" fill="#1B3360"/>
<path d="M1491.4 167.075H1411.53V374.765H1363.33V167.075H1283.46V124.409H1491.4V167.075Z" fill="#1B3360"/>
<path d="M1568.63 378.291C1553.86 378.291 1540.49 375.823 1528.52 370.886C1516.56 365.715 1506.36 358.78 1497.91 350.082C1489.47 341.149 1482.9 331.041 1478.21 319.757C1473.75 308.238 1471.53 296.132 1471.53 283.438C1471.53 265.807 1475.4 249.705 1483.14 235.13C1491.11 220.555 1502.37 208.919 1516.91 200.221C1531.69 191.288 1549.05 186.822 1568.99 186.822C1589.16 186.822 1606.4 191.288 1620.71 200.221C1635.02 208.919 1645.92 220.555 1653.43 235.13C1661.17 249.47 1665.04 264.985 1665.04 281.675C1665.04 284.496 1664.92 287.434 1664.69 290.49C1664.45 293.311 1664.22 295.662 1663.99 297.543H1521.49C1522.43 306.946 1525.12 315.173 1529.58 322.225C1534.27 329.278 1540.14 334.685 1547.17 338.446C1554.44 341.972 1562.18 343.735 1570.39 343.735C1579.78 343.735 1588.57 341.502 1596.78 337.035C1605.23 332.334 1610.97 326.222 1614.02 318.699L1654.49 329.983C1650.03 339.386 1643.58 347.731 1635.13 355.019C1626.92 362.306 1617.19 368.065 1605.93 372.297C1594.67 376.293 1582.24 378.291 1568.63 378.291ZM1520.43 267.57H1616.84C1615.9 258.167 1613.2 250.057 1608.75 243.24C1604.52 236.188 1598.89 230.781 1591.86 227.02C1584.82 223.024 1576.96 221.025 1568.28 221.025C1559.84 221.025 1552.1 223.024 1545.06 227.02C1538.26 230.781 1532.63 236.188 1528.17 243.24C1523.95 250.057 1521.37 258.167 1520.43 267.57Z" fill="#1B3360"/>
<path d="M1779.61 378.291C1764.6 378.291 1751.11 375.823 1739.15 370.886C1727.19 365.715 1716.98 358.662 1708.54 349.729C1700.1 340.561 1693.53 330.218 1688.84 318.699C1684.38 307.181 1682.15 295.074 1682.15 282.38C1682.15 264.985 1686.02 249.117 1693.76 234.777C1701.74 220.203 1713 208.566 1727.54 199.869C1742.08 191.171 1759.32 186.822 1779.26 186.822C1799.2 186.822 1816.32 191.171 1830.63 199.869C1844.94 208.566 1855.61 219.968 1862.65 234.072L1816.56 248.177C1812.57 241.359 1807.29 236.188 1800.72 232.662C1794.16 228.9 1786.89 227.02 1778.91 227.02C1770 227.02 1761.79 229.371 1754.28 234.072C1747.01 238.538 1741.26 245.003 1737.04 253.466C1732.82 261.693 1730.71 271.332 1730.71 282.38C1730.71 293.194 1732.82 302.832 1737.04 311.294C1741.5 319.522 1747.36 326.104 1754.63 331.041C1761.9 335.742 1770 338.093 1778.91 338.093C1784.54 338.093 1789.82 337.153 1794.74 335.272C1799.9 333.392 1804.48 330.806 1808.46 327.515C1812.45 324.224 1815.38 320.462 1817.26 316.231L1863.35 330.336C1859.13 339.504 1852.91 347.731 1844.71 355.019C1836.73 362.306 1827.23 368.065 1816.21 372.297C1805.42 376.293 1793.22 378.291 1779.61 378.291Z" fill="#1B3360"/>
<path d="M2063.71 374.765H2016.57V271.097C2016.57 256.757 2013.75 246.061 2008.12 239.009C2002.73 231.956 1995.22 228.43 1985.6 228.43C1979.97 228.43 1973.99 230.076 1967.66 233.367C1961.33 236.658 1955.58 241.242 1950.42 247.119C1945.49 252.761 1941.86 259.343 1939.51 266.865V374.765H1892.36V117.357H1939.51V224.199C1946.31 212.445 1955.58 203.277 1967.31 196.695C1979.04 190.113 1991.82 186.822 2005.66 186.822C2017.62 186.822 2027.36 188.938 2034.86 193.169C2042.37 197.165 2048.23 202.689 2052.45 209.742C2056.68 216.559 2059.61 224.316 2061.25 233.014C2062.89 241.477 2063.71 250.292 2063.71 259.46V374.765Z" fill="#1B3360"/>
<path d="M750.219 124.409H799.477L891.309 374.765H841.347L818.125 312.352H730.867L707.997 374.765H658.035L750.219 124.409ZM809.329 278.149L774.848 174.833L738.96 278.149H809.329Z" stroke="white" stroke-width="8" mask="url(#path-12-outside-2_1242_949)"/>
<path d="M914.135 374.765V196.695H961.283V374.765H914.135Z" stroke="white" stroke-width="8" mask="url(#path-12-outside-2_1242_949)"/>
<path d="M1290.22 374.765H1243.07V271.097C1243.07 256.522 1240.49 245.826 1235.33 239.009C1230.4 231.956 1223.48 228.43 1214.57 228.43C1205.42 228.43 1196.63 232.074 1188.18 239.361C1179.97 246.414 1174.11 255.699 1170.59 267.218V374.765H1123.44V271.097C1123.44 256.287 1120.86 245.473 1115.7 238.656C1110.78 231.839 1103.86 228.43 1094.94 228.43C1085.79 228.43 1077 231.956 1068.55 239.009C1060.34 246.061 1054.48 255.346 1050.96 266.865V374.765H1003.81V189.995H1046.39V224.199C1053.42 212.21 1062.81 203.042 1074.54 196.695C1086.26 190.113 1099.75 186.822 1115 186.822C1130.24 186.822 1142.09 190.583 1150.53 198.105C1159.21 205.628 1164.73 214.913 1167.07 225.962C1174.58 213.268 1184.08 203.63 1195.57 197.048C1207.3 190.23 1220.43 186.822 1234.98 186.822C1246.47 186.822 1255.74 188.938 1262.77 193.169C1270.04 197.165 1275.67 202.689 1279.66 209.742C1283.65 216.559 1286.35 224.316 1287.75 233.014C1289.4 241.712 1290.22 250.527 1290.22 259.46V374.765Z" stroke="white" stroke-width="8" mask="url(#path-12-outside-2_1242_949)"/>
<path d="M1491.4 167.075H1411.53V374.765H1363.33V167.075H1283.46V124.409H1491.4V167.075Z" stroke="white" stroke-width="8" mask="url(#path-12-outside-2_1242_949)"/>
<path d="M1568.63 378.291C1553.86 378.291 1540.49 375.823 1528.52 370.886C1516.56 365.715 1506.36 358.78 1497.91 350.082C1489.47 341.149 1482.9 331.041 1478.21 319.757C1473.75 308.238 1471.53 296.132 1471.53 283.438C1471.53 265.807 1475.4 249.705 1483.14 235.13C1491.11 220.555 1502.37 208.919 1516.91 200.221C1531.69 191.288 1549.05 186.822 1568.99 186.822C1589.16 186.822 1606.4 191.288 1620.71 200.221C1635.02 208.919 1645.92 220.555 1653.43 235.13C1661.17 249.47 1665.04 264.985 1665.04 281.675C1665.04 284.496 1664.92 287.434 1664.69 290.49C1664.45 293.311 1664.22 295.662 1663.99 297.543H1521.49C1522.43 306.946 1525.12 315.173 1529.58 322.225C1534.27 329.278 1540.14 334.685 1547.17 338.446C1554.44 341.972 1562.18 343.735 1570.39 343.735C1579.78 343.735 1588.57 341.502 1596.78 337.035C1605.23 332.334 1610.97 326.222 1614.02 318.699L1654.49 329.983C1650.03 339.386 1643.58 347.731 1635.13 355.019C1626.92 362.306 1617.19 368.065 1605.93 372.297C1594.67 376.293 1582.24 378.291 1568.63 378.291ZM1520.43 267.57H1616.84C1615.9 258.167 1613.2 250.057 1608.75 243.24C1604.52 236.188 1598.89 230.781 1591.86 227.02C1584.82 223.024 1576.96 221.025 1568.28 221.025C1559.84 221.025 1552.1 223.024 1545.06 227.02C1538.26 230.781 1532.63 236.188 1528.17 243.24C1523.95 250.057 1521.37 258.167 1520.43 267.57Z" stroke="white" stroke-width="8" mask="url(#path-12-outside-2_1242_949)"/>
<path d="M1779.61 378.291C1764.6 378.291 1751.11 375.823 1739.15 370.886C1727.19 365.715 1716.98 358.662 1708.54 349.729C1700.1 340.561 1693.53 330.218 1688.84 318.699C1684.38 307.181 1682.15 295.074 1682.15 282.38C1682.15 264.985 1686.02 249.117 1693.76 234.777C1701.74 220.203 1713 208.566 1727.54 199.869C1742.08 191.171 1759.32 186.822 1779.26 186.822C1799.2 186.822 1816.32 191.171 1830.63 199.869C1844.94 208.566 1855.61 219.968 1862.65 234.072L1816.56 248.177C1812.57 241.359 1807.29 236.188 1800.72 232.662C1794.16 228.9 1786.89 227.02 1778.91 227.02C1770 227.02 1761.79 229.371 1754.28 234.072C1747.01 238.538 1741.26 245.003 1737.04 253.466C1732.82 261.693 1730.71 271.332 1730.71 282.38C1730.71 293.194 1732.82 302.832 1737.04 311.294C1741.5 319.522 1747.36 326.104 1754.63 331.041C1761.9 335.742 1770 338.093 1778.91 338.093C1784.54 338.093 1789.82 337.153 1794.74 335.272C1799.9 333.392 1804.48 330.806 1808.46 327.515C1812.45 324.224 1815.38 320.462 1817.26 316.231L1863.35 330.336C1859.13 339.504 1852.91 347.731 1844.71 355.019C1836.73 362.306 1827.23 368.065 1816.21 372.297C1805.42 376.293 1793.22 378.291 1779.61 378.291Z" stroke="white" stroke-width="8" mask="url(#path-12-outside-2_1242_949)"/>
<path d="M2063.71 374.765H2016.57V271.097C2016.57 256.757 2013.75 246.061 2008.12 239.009C2002.73 231.956 1995.22 228.43 1985.6 228.43C1979.97 228.43 1973.99 230.076 1967.66 233.367C1961.33 236.658 1955.58 241.242 1950.42 247.119C1945.49 252.761 1941.86 259.343 1939.51 266.865V374.765H1892.36V117.357H1939.51V224.199C1946.31 212.445 1955.58 203.277 1967.31 196.695C1979.04 190.113 1991.82 186.822 2005.66 186.822C2017.62 186.822 2027.36 188.938 2034.86 193.169C2042.37 197.165 2048.23 202.689 2052.45 209.742C2056.68 216.559 2059.61 224.316 2061.25 233.014C2062.89 241.477 2063.71 250.292 2063.71 259.46V374.765Z" stroke="white" stroke-width="8" mask="url(#path-12-outside-2_1242_949)"/>
</g>
<g filter="url(#filter5_d_1242_949)">
<circle cx="936.408" cy="150.538" r="33.1813" fill="#FAAD17"/>
<circle cx="936.408" cy="150.538" r="29.3393" stroke="white" stroke-width="7.68409"/>
</g>
<defs>
<filter id="filter0_d_1242_949" x="8.51911" y="27.9419" width="499.418" height="499.003" filterUnits="userSpaceOnUse" color-interpolation-filters="sRGB">
<feFlood flood-opacity="0" result="BackgroundImageFix"/>
<feColorMatrix in="SourceAlpha" type="matrix" values="0 0 0 0 0 0 0 0 0 0 0 0 0 0 0 0 0 0 127 0" result="hardAlpha"/>
<feOffset dx="-11.8754" dy="20.2581"/>
<feGaussianBlur stdDeviation="6.56641"/>
<feComposite in2="hardAlpha" operator="out"/>
<feColorMatrix type="matrix" values="0 0 0 0 0 0 0 0 0 0 0 0 0 0 0 0 0 0 0.25 0"/>
<feBlend mode="normal" in2="BackgroundImageFix" result="effect1_dropShadow_1242_949"/>
<feBlend mode="normal" in="SourceGraphic" in2="effect1_dropShadow_1242_949" result="shape"/>
</filter>
<filter id="filter1_d_1242_949" x="249.449" y="254.68" width="316.564" height="334.428" filterUnits="userSpaceOnUse" color-interpolation-filters="sRGB">
<feFlood flood-opacity="0" result="BackgroundImageFix"/>
<feColorMatrix in="SourceAlpha" type="matrix" values="0 0 0 0 0 0 0 0 0 0 0 0 0 0 0 0 0 0 127 0" result="hardAlpha"/>
<feOffset dx="-10.4783" dy="2.79422"/>
<feGaussianBlur stdDeviation="5.76307"/>
<feComposite in2="hardAlpha" operator="out"/>
<feColorMatrix type="matrix" values="0 0 0 0 0 0 0 0 0 0 0 0 0 0 0 0 0 0 0.25 0"/>
<feBlend mode="normal" in2="BackgroundImageFix" result="effect1_dropShadow_1242_949"/>
<feBlend mode="normal" in="SourceGraphic" in2="effect1_dropShadow_1242_949" result="shape"/>
</filter>
<filter id="filter2_d_1242_949" x="477.858" y="472.375" width="88.6656" height="168.698" filterUnits="userSpaceOnUse" color-interpolation-filters="sRGB">
<feFlood flood-opacity="0" result="BackgroundImageFix"/>
<feColorMatrix in="SourceAlpha" type="matrix" values="0 0 0 0 0 0 0 0 0 0 0 0 0 0 0 0 0 0 127 0" result="hardAlpha"/>
<feOffset dx="-7.68409" dy="2.79422"/>
<feGaussianBlur stdDeviation="4.71524"/>
<feComposite in2="hardAlpha" operator="out"/>
<feColorMatrix type="matrix" values="0 0 0 0 0 0 0 0 0 0 0 0 0 0 0 0 0 0 0.25 0"/>
<feBlend mode="normal" in2="BackgroundImageFix" result="effect1_dropShadow_1242_949"/>
<feBlend mode="normal" in="SourceGraphic" in2="effect1_dropShadow_1242_949" result="shape"/>
</filter>
<filter id="filter3_d_1242_949" x="1306.62" y="399.707" width="769.28" height="184.34" filterUnits="userSpaceOnUse" color-interpolation-filters="sRGB">
<feFlood flood-opacity="0" result="BackgroundImageFix"/>
<feColorMatrix in="SourceAlpha" type="matrix" values="0 0 0 0 0 0 0 0 0 0 0 0 0 0 0 0 0 0 127 0" result="hardAlpha"/>
<feOffset dx="-14" dy="14"/>
<feGaussianBlur stdDeviation="14.65"/>
<feComposite in2="hardAlpha" operator="out"/>
<feColorMatrix type="matrix" values="0 0 0 0 0 0 0 0 0 0 0 0 0 0 0 0 0 0 0.25 0"/>
<feBlend mode="normal" in2="BackgroundImageFix" result="effect1_dropShadow_1242_949"/>
<feBlend mode="normal" in="SourceGraphic" in2="effect1_dropShadow_1242_949" result="shape"/>
</filter>
<filter id="filter4_d_1242_949" x="625.901" y="113.357" width="1446.21" height="302.334" filterUnits="userSpaceOnUse" color-interpolation-filters="sRGB">
<feFlood flood-opacity="0" result="BackgroundImageFix"/>
<feColorMatrix in="SourceAlpha" type="matrix" values="0 0 0 0 0 0 0 0 0 0 0 0 0 0 0 0 0 0 127 0" result="hardAlpha"/>
<feOffset dx="-11" dy="18"/>
<feGaussianBlur stdDeviation="7.7"/>
<feComposite in2="hardAlpha" operator="out"/>
<feColorMatrix type="matrix" values="0 0 0 0 0 0 0 0 0 0 0 0 0 0 0 0 0 0 0.25 0"/>
<feBlend mode="normal" in2="BackgroundImageFix" result="effect1_dropShadow_1242_949"/>
<feBlend mode="normal" in="SourceGraphic" in2="effect1_dropShadow_1242_949" result="shape"/>
</filter>
<filter id="filter5_d_1242_949" x="887.727" y="113.857" width="87.3633" height="87.3628" filterUnits="userSpaceOnUse" color-interpolation-filters="sRGB">
<feFlood flood-opacity="0" result="BackgroundImageFix"/>
<feColorMatrix in="SourceAlpha" type="matrix" values="0 0 0 0 0 0 0 0 0 0 0 0 0 0 0 0 0 0 127 0" result="hardAlpha"/>
<feOffset dx="-5" dy="7"/>
<feGaussianBlur stdDeviation="5.25"/>
<feComposite in2="hardAlpha" operator="out"/>
<feColorMatrix type="matrix" values="0 0 0 0 0 0 0 0 0 0 0 0 0 0 0 0 0 0 0.25 0"/>
<feBlend mode="normal" in2="BackgroundImageFix" result="effect1_dropShadow_1242_949"/>
<feBlend mode="normal" in="SourceGraphic" in2="effect1_dropShadow_1242_949" result="shape"/>
</filter>
<linearGradient id="paint0_linear_1242_949" x1="274.986" y1="420.945" x2="565.26" y2="420.945" gradientUnits="userSpaceOnUse">
<stop offset="1" stop-color="#1C3462"/>
</linearGradient>
<linearGradient id="paint1_linear_1242_949" x1="272.403" y1="357.923" x2="750.525" y2="357.923" gradientUnits="userSpaceOnUse">
<stop offset="1" stop-color="#1C3462"/>
</linearGradient>
<linearGradient id="paint2_linear_1242_949" x1="494.721" y1="554.106" x2="564.976" y2="554.106" gradientUnits="userSpaceOnUse">
<stop offset="1" stop-color="#1C3462"/>
</linearGradient>
<linearGradient id="paint3_linear_1242_949" x1="275.698" y1="449.711" x2="609.618" y2="449.711" gradientUnits="userSpaceOnUse">
<stop offset="1" stop-color="#1C3462"/>
</linearGradient>
</defs>
</svg>
