<svg width="272" height="95" viewBox="0 0 272 95" fill="none" xmlns="http://www.w3.org/2000/svg">
<g filter="url(#filter0_d_1290_306)">
<path d="M74.1785 74.6842L84.5466 92.3036L84.7914 68.1067L74.1785 74.6842Z" fill="#FAAF3B"/>
</g>
<g filter="url(#filter1_d_1290_306)">
<path d="M8.05382 29.6466L4.75455 28.9975C3.72587 34.4673 3.78914 37.5615 4.70046 43.1141L8.05382 42.465C9.26132 47.4216 10.3989 49.9926 13.0839 54.2559L10.2173 56.203C13.4475 60.8463 16.2876 63.1526 20.3855 66.0467L22.2785 63.1801C26.6392 65.8278 29.2092 66.9511 34.1776 67.9938L33.5285 71.3472C38.9703 72.3644 42.0915 72.3407 47.6992 71.3472L47.0501 67.9938C52.4158 66.7119 54.9952 65.6226 59.0032 63.1801L60.8962 66.0467C65.4724 63.026 67.6565 60.8101 71.0104 56.1489L68.252 54.2559C70.9808 50.176 72.0579 47.5777 73.282 42.465L76.5272 43.1141C77.5073 37.9134 77.5253 34.8192 76.5272 28.9434L73.228 29.5925C71.9527 24.738 70.87 22.1736 68.1438 17.9639L71.1186 15.9086C66.9368 10.6493 64.6895 8.63046 60.7881 6.06488L58.8951 8.98555C54.6217 6.32998 52.017 5.2769 47.0501 4.22594L47.6992 0.656239C42.1706 -0.22948 39.0665 -0.207946 33.5285 0.656239L34.2316 4.22594C29.1821 5.30946 26.6243 6.43313 22.3326 8.98555C22.2966 8.8954 20.3855 6.06488 20.3855 6.06488C15.4533 9.47119 13.2819 11.6515 10.2173 15.9086C10.2173 15.9086 10.9312 16.4495 13.1379 17.9639C10.7581 20.5168 8.75694 26.816 8.05382 29.6466Z" fill="#FFCB0A"/>
</g>
<path d="M70.5139 36.0746C70.5139 51.7715 57.4835 64.6424 41.2274 64.6424C24.9714 64.6424 11.941 51.7715 11.941 36.0746C11.941 20.3778 24.9714 7.50688 41.2274 7.50688C57.4835 7.50688 70.5139 20.3778 70.5139 36.0746Z" fill="#FAAD17" stroke="#FFCB0A" stroke-width="7.87423"/>
<path d="M49.811 36.5184C49.811 41.035 46.0179 45.0023 40.9574 45.0023C35.8968 45.0023 32.1038 41.035 32.1038 36.5184C32.1038 32.0019 35.8968 28.0345 40.9574 28.0345C46.0179 28.0345 49.811 32.0019 49.811 36.5184Z" fill="#FFB700" stroke="url(#paint0_radial_1290_306)" stroke-width="16.4809"/>
<path d="M39.1367 35.1322L91.3331 63.7259L113.011 57.5648L39.1367 35.1322Z" fill="#EC1C24"/>
<path d="M39.1367 35.1322L84.4264 68.471V91.4742L91.3331 63.7259L39.1367 35.1322Z" fill="#9D005D"/>
<g filter="url(#filter2_d_1290_306)">
<path d="M39.1367 35.1322L59.6253 83.1784L73.7103 74.8255L84.4264 68.471L75.4875 61.9256L74.7432 61.3782L39.1367 35.1322Z" fill="#F05A24"/>
</g>
<g filter="url(#filter3_d_1290_306)">
<path d="M108.034 48H102.761L110.795 24.7273H117.136L125.159 48H119.886L114.057 30.0455H113.875L108.034 48ZM107.705 38.8523H120.159V42.6932H107.705V38.8523ZM132.881 24.7273V48H127.96V24.7273H132.881ZM136.929 24.7273H142.997L149.406 40.3636H149.679L156.088 24.7273H162.156V48H157.384V32.8523H157.19L151.168 47.8864H147.918L141.895 32.7955H141.702V48H136.929V24.7273ZM165.324 28.7841V24.7273H184.438V28.7841H177.312V48H172.449V28.7841H165.324ZM187.585 48V24.7273H203.267V28.7841H192.506V34.3295H202.46V38.3864H192.506V43.9432H203.312V48H187.585ZM227.713 32.875H222.736C222.645 32.2311 222.459 31.6591 222.179 31.1591C221.899 30.6515 221.539 30.2197 221.099 29.8636C220.66 29.5076 220.152 29.2348 219.577 29.0455C219.009 28.8561 218.391 28.7614 217.724 28.7614C216.52 28.7614 215.471 29.0606 214.577 29.6591C213.683 30.25 212.99 31.1136 212.497 32.25C212.005 33.3788 211.759 34.75 211.759 36.3636C211.759 38.0227 212.005 39.4167 212.497 40.5455C212.997 41.6742 213.694 42.5265 214.588 43.1023C215.482 43.678 216.516 43.9659 217.69 43.9659C218.349 43.9659 218.959 43.8788 219.52 43.7045C220.088 43.5303 220.592 43.2765 221.031 42.9432C221.471 42.6023 221.834 42.1894 222.122 41.7045C222.418 41.2197 222.622 40.6667 222.736 40.0455L227.713 40.0682C227.584 41.1364 227.262 42.1667 226.747 43.1591C226.24 44.1439 225.554 45.0265 224.69 45.8068C223.834 46.5795 222.812 47.1932 221.622 47.6477C220.44 48.0947 219.103 48.3182 217.611 48.3182C215.535 48.3182 213.679 47.8485 212.043 46.9091C210.414 45.9697 209.126 44.6098 208.179 42.8295C207.24 41.0492 206.77 38.8939 206.77 36.3636C206.77 33.8258 207.247 31.6667 208.202 29.8864C209.156 28.1061 210.452 26.75 212.088 25.8182C213.724 24.8788 215.565 24.4091 217.611 24.4091C218.959 24.4091 220.209 24.5985 221.361 24.9773C222.52 25.3561 223.546 25.9091 224.44 26.6364C225.334 27.3561 226.062 28.2386 226.622 29.2841C227.19 30.3295 227.554 31.5265 227.713 32.875ZM231.241 48V24.7273H236.162V34.3295H246.151V24.7273H251.06V48H246.151V38.3864H236.162V48H231.241Z" fill="white"/>
</g>
<g filter="url(#filter4_d_1290_306)">
<path d="M129.906 55.9091V69H127.138V55.9091H129.906ZM143.132 55.9091V69H140.742L135.046 60.7607H134.95V69H132.183V55.9091H134.612L140.262 64.142H140.377V55.9091H143.132ZM156.369 55.9091V69H153.978L148.283 60.7607H148.187V69H145.419V55.9091H147.848L153.499 64.142H153.614V55.9091H156.369ZM170.685 62.4545C170.685 63.8821 170.415 65.0966 169.873 66.098C169.336 67.0994 168.604 67.8643 167.675 68.3928C166.75 68.9169 165.71 69.179 164.555 69.179C163.392 69.179 162.348 68.9148 161.423 68.3864C160.498 67.858 159.768 67.093 159.231 66.0916C158.694 65.0902 158.425 63.8778 158.425 62.4545C158.425 61.027 158.694 59.8125 159.231 58.8111C159.768 57.8097 160.498 57.0469 161.423 56.5227C162.348 55.9943 163.392 55.7301 164.555 55.7301C165.71 55.7301 166.75 55.9943 167.675 56.5227C168.604 57.0469 169.336 57.8097 169.873 58.8111C170.415 59.8125 170.685 61.027 170.685 62.4545ZM167.879 62.4545C167.879 61.5298 167.741 60.75 167.464 60.1151C167.191 59.4801 166.805 58.9986 166.307 58.6705C165.808 58.3423 165.224 58.1783 164.555 58.1783C163.886 58.1783 163.302 58.3423 162.804 58.6705C162.305 58.9986 161.917 59.4801 161.64 60.1151C161.368 60.75 161.231 61.5298 161.231 62.4545C161.231 63.3793 161.368 64.1591 161.64 64.794C161.917 65.429 162.305 65.9105 162.804 66.2386C163.302 66.5668 163.886 66.7308 164.555 66.7308C165.224 66.7308 165.808 66.5668 166.307 66.2386C166.805 65.9105 167.191 65.429 167.464 64.794C167.741 64.1591 167.879 63.3793 167.879 62.4545ZM174.362 55.9091L177.526 65.8551H177.648L180.818 55.9091H183.886L179.374 69H175.807L171.288 55.9091H174.362ZM185.978 69H183.012L187.531 55.9091H191.098L195.611 69H192.645L189.366 58.9006H189.264L185.978 69ZM185.793 63.8544H192.798V66.0149H185.793V63.8544ZM195.088 58.1911V55.9091H205.84V58.1911H201.832V69H199.096V58.1911H195.088ZM207.61 69V55.9091H216.431V58.1911H210.378V61.3104H215.978V63.5923H210.378V66.718H216.457V69H207.61Z" fill="white"/>
</g>
<defs>
<filter id="filter0_d_1290_306" x="71.5295" y="67.079" width="13.5339" height="27.1176" filterUnits="userSpaceOnUse" color-interpolation-filters="sRGB">
<feFlood flood-opacity="0" result="BackgroundImageFix"/>
<feColorMatrix in="SourceAlpha" type="matrix" values="0 0 0 0 0 0 0 0 0 0 0 0 0 0 0 0 0 0 127 0" result="hardAlpha"/>
<feOffset dx="-1.1899" dy="0.432691"/>
<feGaussianBlur stdDeviation="0.730167"/>
<feComposite in2="hardAlpha" operator="out"/>
<feColorMatrix type="matrix" values="0 0 0 0 0 0 0 0 0 0 0 0 0 0 0 0 0 0 0.25 0"/>
<feBlend mode="normal" in2="BackgroundImageFix" result="effect1_dropShadow_1290_306"/>
<feBlend mode="normal" in="SourceGraphic" in2="effect1_dropShadow_1290_306" result="shape"/>
</filter>
<filter id="filter1_d_1290_306" x="0.127412" y="0" width="77.3368" height="77.2719" filterUnits="userSpaceOnUse" color-interpolation-filters="sRGB">
<feFlood flood-opacity="0" result="BackgroundImageFix"/>
<feColorMatrix in="SourceAlpha" type="matrix" values="0 0 0 0 0 0 0 0 0 0 0 0 0 0 0 0 0 0 127 0" result="hardAlpha"/>
<feOffset dx="-1.83894" dy="3.13701"/>
<feGaussianBlur stdDeviation="1.01682"/>
<feComposite in2="hardAlpha" operator="out"/>
<feColorMatrix type="matrix" values="0 0 0 0 0 0 0 0 0 0 0 0 0 0 0 0 0 0 0.25 0"/>
<feBlend mode="normal" in2="BackgroundImageFix" result="effect1_dropShadow_1290_306"/>
<feBlend mode="normal" in="SourceGraphic" in2="effect1_dropShadow_1290_306" result="shape"/>
</filter>
<filter id="filter2_d_1290_306" x="35.7293" y="33.78" width="48.8588" height="51.6159" filterUnits="userSpaceOnUse" color-interpolation-filters="sRGB">
<feFlood flood-opacity="0" result="BackgroundImageFix"/>
<feColorMatrix in="SourceAlpha" type="matrix" values="0 0 0 0 0 0 0 0 0 0 0 0 0 0 0 0 0 0 127 0" result="hardAlpha"/>
<feOffset dx="-1.62259" dy="0.432691"/>
<feGaussianBlur stdDeviation="0.892426"/>
<feComposite in2="hardAlpha" operator="out"/>
<feColorMatrix type="matrix" values="0 0 0 0 0 0 0 0 0 0 0 0 0 0 0 0 0 0 0.25 0"/>
<feBlend mode="normal" in2="BackgroundImageFix" result="effect1_dropShadow_1290_306"/>
<feBlend mode="normal" in="SourceGraphic" in2="effect1_dropShadow_1290_306" result="shape"/>
</filter>
<filter id="filter3_d_1290_306" x="98.7617" y="24.4091" width="156.297" height="31.9091" filterUnits="userSpaceOnUse" color-interpolation-filters="sRGB">
<feFlood flood-opacity="0" result="BackgroundImageFix"/>
<feColorMatrix in="SourceAlpha" type="matrix" values="0 0 0 0 0 0 0 0 0 0 0 0 0 0 0 0 0 0 127 0" result="hardAlpha"/>
<feOffset dy="4"/>
<feGaussianBlur stdDeviation="2"/>
<feComposite in2="hardAlpha" operator="out"/>
<feColorMatrix type="matrix" values="0 0 0 0 0 0 0 0 0 0 0 0 0 0 0 0 0 0 0.25 0"/>
<feBlend mode="normal" in2="BackgroundImageFix" result="effect1_dropShadow_1290_306"/>
<feBlend mode="normal" in="SourceGraphic" in2="effect1_dropShadow_1290_306" result="shape"/>
</filter>
<filter id="filter4_d_1290_306" x="123.137" y="55.7301" width="97.3203" height="21.4489" filterUnits="userSpaceOnUse" color-interpolation-filters="sRGB">
<feFlood flood-opacity="0" result="BackgroundImageFix"/>
<feColorMatrix in="SourceAlpha" type="matrix" values="0 0 0 0 0 0 0 0 0 0 0 0 0 0 0 0 0 0 127 0" result="hardAlpha"/>
<feOffset dy="4"/>
<feGaussianBlur stdDeviation="2"/>
<feComposite in2="hardAlpha" operator="out"/>
<feColorMatrix type="matrix" values="0 0 0 0 0 0 0 0 0 0 0 0 0 0 0 0 0 0 0.25 0"/>
<feBlend mode="normal" in2="BackgroundImageFix" result="effect1_dropShadow_1290_306"/>
<feBlend mode="normal" in="SourceGraphic" in2="effect1_dropShadow_1290_306" result="shape"/>
</filter>
<radialGradient id="paint0_radial_1290_306" cx="0" cy="0" r="1" gradientUnits="userSpaceOnUse" gradientTransform="translate(40.9574 36.5184) rotate(90) scale(16.7243 17.0941)">
<stop offset="0.465" stop-color="#3869C5"/>
<stop offset="0.885" stop-color="#1B3360"/>
</radialGradient>
</defs>
</svg>
