<svg width="535" height="512" viewBox="0 0 535 512" fill="none" xmlns="http://www.w3.org/2000/svg">
<g clip-path="url(#clip0_2702_925)">
<g filter="url(#filter0_d_2702_925)">
<ellipse cx="272.999" cy="257.63" rx="256.089" ry="248.63" fill="#FFB700"/>
</g>
<path d="M483.399 398.49H449.285V398.74H483.399V398.49Z" fill="#EBEBEB"/>
<path d="M361.158 401.21H352.207V401.46H361.158V401.21Z" fill="#EBEBEB"/>
<path d="M448.254 389.21H428.488V389.46H448.254V389.21Z" fill="#EBEBEB"/>
<path d="M118.521 390.89H74.0352V391.14H118.521V390.89Z" fill="#EBEBEB"/>
<path d="M134.215 390.89H127.695V391.14H134.215V390.89Z" fill="#EBEBEB"/>
<path d="M251.904 395.11H155.414V395.36H251.904V395.11Z" fill="#EBEBEB"/>
<path d="M535 382.4H20V382.65H535V382.4Z" fill="#EBEBEB"/>
<path d="M405.293 280.12V383.01H412.225H452.498H459.43V280.12H405.293Z" fill="#EBEBEB"/>
<path d="M415.684 267.42V290.22H419.958H444.761H449.035V267.42H415.684Z" fill="#EBEBEB"/>
<path d="M415.686 283.49H408.754V290.22H415.686V283.49Z" fill="#FAFAFA"/>
<path d="M429.116 283.49H422.184V290.22H429.116V283.49Z" fill="#FAFAFA"/>
<path d="M442.537 283.49H435.605V290.22H442.537V283.49Z" fill="#FAFAFA"/>
<path d="M455.967 283.49H449.035V290.22H455.967V283.49Z" fill="#F0F0F0"/>
<path d="M415.686 295.71H408.754V302.44H415.686V295.71Z" fill="#F0F0F0"/>
<path d="M429.116 295.71H422.184V302.44H429.116V295.71Z" fill="#F0F0F0"/>
<path d="M442.537 295.71H435.605V302.44H442.537V295.71Z" fill="#FAFAFA"/>
<path d="M455.967 295.71H449.035V302.44H455.967V295.71Z" fill="#FAFAFA"/>
<path d="M415.686 307.94H408.754V314.67H415.686V307.94Z" fill="#F0F0F0"/>
<path d="M429.116 307.94H422.184V314.67H429.116V307.94Z" fill="#FAFAFA"/>
<path d="M442.537 307.94H435.605V314.67H442.537V307.94Z" fill="#FAFAFA"/>
<path d="M429.116 272.92H422.184V279.65H429.116V272.92Z" fill="#FAFAFA"/>
<path d="M442.537 272.92H435.605V279.65H442.537V272.92Z" fill="#F0F0F0"/>
<path d="M455.967 307.94H449.035V314.67H455.967V307.94Z" fill="#F0F0F0"/>
<path d="M415.686 320.17H408.754V326.9H415.686V320.17Z" fill="#FAFAFA"/>
<path d="M429.116 320.17H422.184V326.9H429.116V320.17Z" fill="#F0F0F0"/>
<path d="M442.537 320.17H435.605V326.9H442.537V320.17Z" fill="#F0F0F0"/>
<path d="M455.967 320.17H449.035V326.9H455.967V320.17Z" fill="#FAFAFA"/>
<path d="M415.686 332.4H408.754V339.13H415.686V332.4Z" fill="#F0F0F0"/>
<path d="M429.116 332.4H422.184V339.13H429.116V332.4Z" fill="#FAFAFA"/>
<path d="M442.537 332.4H435.605V339.13H442.537V332.4Z" fill="#FAFAFA"/>
<path d="M455.967 332.4H449.035V339.13H455.967V332.4Z" fill="#F0F0F0"/>
<path d="M415.686 344.62H408.754V351.35H415.686V344.62Z" fill="#F0F0F0"/>
<path d="M429.116 344.62H422.184V351.35H429.116V344.62Z" fill="#FAFAFA"/>
<path d="M442.537 344.62H435.605V351.35H442.537V344.62Z" fill="#F0F0F0"/>
<path d="M455.967 344.62H449.035V351.35H455.967V344.62Z" fill="#FAFAFA"/>
<path d="M415.686 356.85H408.754V363.58H415.686V356.85Z" fill="#FAFAFA"/>
<path d="M429.116 356.85H422.184V363.58H429.116V356.85Z" fill="#FAFAFA"/>
<path d="M442.537 356.85H435.605V363.58H442.537V356.85Z" fill="#F0F0F0"/>
<path d="M455.967 356.85H449.035V363.58H455.967V356.85Z" fill="#F0F0F0"/>
<path d="M415.686 369.08H408.754V375.81H415.686V369.08Z" fill="#F0F0F0"/>
<path d="M455.967 369.08H449.035V375.81H455.967V369.08Z" fill="#FAFAFA"/>
<path d="M442.547 369.08H422.184V371.01H423.008V383.01H424.996V371.01H439.724V383.01H441.723V371.01H442.547V369.08Z" fill="#F5F5F5"/>
<path d="M432.361 371.01H424.996V383.01H432.361V371.01Z" fill="#E6E6E6"/>
<path d="M439.724 371.01H432.359V383.01H439.724V371.01Z" fill="#EBEBEB"/>
<path d="M88.957 280.12V383.01H95.8786H136.162H143.094V280.12H88.957Z" fill="#F5F5F5"/>
<path d="M92.418 283.49V295.71V299.08V302.44H99.3499V299.08V295.71V283.49H92.418Z" fill="#E6E6E6"/>
<path d="M105.852 283.49V295.71V299.08V302.44H112.783V299.08V295.71V283.49H105.852Z" fill="#F0F0F0"/>
<path d="M119.273 283.49V295.71V299.08V302.44H126.205V299.08V295.71V283.49H119.273Z" fill="#E6E6E6"/>
<path d="M132.703 283.49V295.71V300.91V302.44H139.635V300.91V295.71V283.49H132.703Z" fill="#F0F0F0"/>
<path d="M92.418 307.94V320.17V323.53V326.9H99.3499V323.53V320.17V307.94H92.418Z" fill="#F0F0F0"/>
<path d="M105.852 307.94V320.17V324.91V326.9H112.783V324.91V320.17V307.94H105.852Z" fill="#F0F0F0"/>
<path d="M119.273 307.94V320.17V323.53V326.9H126.205V323.53V320.17V307.94H119.273Z" fill="#E6E6E6"/>
<path d="M132.703 307.94V320.17V323.53V326.9H139.635V323.53V320.17V307.94H132.703Z" fill="#F0F0F0"/>
<path d="M92.418 332.4V344.62V347.99V351.35H99.3499V347.99V344.62V332.4H92.418Z" fill="#E6E6E6"/>
<path d="M105.852 332.4V344.62V347.99V351.35H112.783V347.99V344.62V332.4H105.852Z" fill="#F0F0F0"/>
<path d="M119.273 332.4V344.62V347.99V351.35H126.205V347.99V344.62V332.4H119.273Z" fill="#F0F0F0"/>
<path d="M132.703 332.4V344.62V349.27V351.35H139.635V349.27V344.62V332.4H132.703Z" fill="#E6E6E6"/>
<path d="M136.162 356.85H132.701H126.202H119.27H112.781H105.849H92.418V363.58H105.849H112.781H119.27H126.202H132.701H136.162H139.633V356.85H136.162Z" fill="#F0F0F0"/>
<path d="M126.204 369.08H105.852V371.01H106.676V383.01H108.663V371.01H123.392V383.01H125.38V371.01H126.204V369.08Z" fill="#EBEBEB"/>
<path d="M116.029 371.01H108.664V383.01H116.029V371.01Z" fill="#FAFAFA"/>
<path d="M123.392 371.01H116.027V383.01H123.392V371.01Z" fill="#F5F5F5"/>
<path d="M143.094 326.9V383.01H150.026H190.309H197.231V326.9H143.094Z" fill="#E6E6E6"/>
<path d="M153.498 332.4H146.566V339.13H153.498V332.4Z" fill="#F0F0F0"/>
<path d="M166.92 332.4H159.988V339.13H166.92V332.4Z" fill="#F0F0F0"/>
<path d="M180.35 332.4H173.418V339.13H180.35V332.4Z" fill="#F0F0F0"/>
<path d="M193.772 332.4H186.84V339.13H193.772V332.4Z" fill="#F0F0F0"/>
<path d="M153.498 344.62H146.566V351.35H153.498V344.62Z" fill="#F0F0F0"/>
<path d="M166.92 344.62H159.988V351.35H166.92V344.62Z" fill="#F0F0F0"/>
<path d="M180.35 344.62H173.418V351.35H180.35V344.62Z" fill="#F0F0F0"/>
<path d="M193.772 344.62H186.84V351.35H193.772V344.62Z" fill="#F0F0F0"/>
<path d="M153.498 356.85H146.566V363.58H153.498V356.85Z" fill="#F0F0F0"/>
<path d="M166.92 356.85H159.988V363.58H166.92V356.85Z" fill="#F0F0F0"/>
<path d="M180.35 356.85H173.418V363.58H180.35V356.85Z" fill="#F0F0F0"/>
<path d="M193.772 356.85H186.84V363.58H193.772V356.85Z" fill="#F0F0F0"/>
<path d="M153.498 369.08H146.566V375.81H153.498V369.08Z" fill="#F0F0F0"/>
<path d="M193.772 369.08H186.84V375.81H193.772V369.08Z" fill="#F0F0F0"/>
<path d="M180.351 369.08H159.988V371.01H160.812V383.01H162.8V371.01H177.539V383.01H179.527V371.01H180.351V369.08Z" fill="#F5F5F5"/>
<path d="M170.165 371.01H162.801V383.01H170.165V371.01Z" fill="#E6E6E6"/>
<path d="M177.529 371.01H170.164V383.01H177.529V371.01Z" fill="#EBEBEB"/>
<path d="M341.605 280.12V383.01H348.537H388.821H395.753V280.12H341.605Z" fill="#FAFAFA"/>
<path d="M361.311 356.85H358.499H345.078V360.22V363.58V375.81H352.01V363.58H358.499H361.311H365.431V356.85H361.311Z" fill="#F0F0F0"/>
<path d="M387.555 356.85H385.351H371.93V363.58H385.351V375.81H392.282V363.58V358.71V356.85H387.555Z" fill="#F0F0F0"/>
<path d="M378.863 369.08H358.5V371.01H359.324V383.01H361.312V371.01H376.051V383.01H378.039V371.01H378.863V369.08Z" fill="#F5F5F5"/>
<path d="M368.677 371.01H361.312V383.01H368.677V371.01Z" fill="#EBEBEB"/>
<path d="M376.04 371.01H368.676V383.01H376.04V371.01Z" fill="#E0E0E0"/>
<path d="M365.431 283.49H345.078V302.45H365.431V283.49Z" fill="#F0F0F0"/>
<path d="M392.282 283.49H371.93V302.45H392.282V283.49Z" fill="#F0F0F0"/>
<path d="M365.431 307.94H345.078V326.9H365.431V307.94Z" fill="#F0F0F0"/>
<path d="M392.282 307.94H371.93V326.9H392.282V307.94Z" fill="#F0F0F0"/>
<path d="M365.431 332.4H345.078V351.36H365.431V332.4Z" fill="#F0F0F0"/>
<path d="M392.282 332.4H371.93V351.36H392.282V332.4Z" fill="#F0F0F0"/>
<path d="M149.544 255.69C149.15 256.026 148.865 256.465 148.723 256.955C148.58 257.445 148.588 257.964 148.744 258.45C148.9 258.936 149.197 259.367 149.601 259.692C150.004 260.017 150.496 260.221 151.017 260.28C167.816 262.04 201.775 264.47 210.963 256.62C222.777 246.52 189.127 256.07 186.531 253.77C183.936 251.47 193.154 246.39 185.903 246.52C180.825 246.61 172.915 255.35 164.799 254.19C158.176 253.25 167.003 248.58 160.854 248.58C155.539 248.58 153.098 252.61 149.544 255.69Z" fill="#F0F0F0"/>
<path d="M181.875 253.08C181.591 253.318 181.384 253.631 181.28 253.981C181.175 254.331 181.178 254.702 181.287 255.051C181.396 255.399 181.607 255.709 181.894 255.944C182.181 256.178 182.533 256.326 182.905 256.37C194.935 257.63 219.243 259.37 225.825 253.75C234.281 246.52 210.19 253.35 208.315 251.75C206.441 250.15 213.053 246.47 207.862 246.56C204.226 246.62 198.592 252.88 192.752 252.05C188.014 251.38 194.328 248.05 189.93 248.05C186.16 248 184.419 250.88 181.875 253.08Z" fill="#F5F5F5"/>
<path d="M302.51 173.7C326.402 173.7 345.77 154.896 345.77 131.7C345.77 108.504 326.402 89.7002 302.51 89.7002C278.618 89.7002 259.25 108.504 259.25 131.7C259.25 154.896 278.618 173.7 302.51 173.7Z" fill="#F0F0F0"/>
<path d="M295.205 144.37C294.761 144.637 294.413 145.03 294.21 145.497C294.007 145.964 293.958 146.481 294.072 146.976C294.185 147.471 294.454 147.919 294.842 148.258C295.229 148.598 295.716 148.812 296.235 148.87C322.5 151.87 387.524 157.52 404.323 143.16C424.593 125.84 366.883 142.22 362.423 138.29C357.963 134.36 373.753 125.63 361.393 125.85C352.607 126 339.042 141 325.116 139C313.786 137.38 328.896 129.38 318.359 129.38C307.493 129.39 303.641 139.18 295.205 144.37Z" fill="#FAFAFA"/>
<path d="M361.9 81.0002C361.548 81.2849 361.29 81.6639 361.158 82.09C361.026 82.516 361.026 82.9704 361.157 83.3966C361.289 83.8227 361.547 84.202 361.899 84.4871C362.25 84.7722 362.681 84.9506 363.136 85.0002C379.328 86.7302 413.441 89.2902 422.578 81.4902C434.155 71.5902 401.195 80.9502 398.64 78.7002C396.086 76.4502 405.129 71.4702 398.033 71.6002C393.047 71.6802 385.302 80.2502 377.35 79.1102C370.872 78.1902 379.513 73.6202 373.488 73.6202C368.029 73.6002 365.67 77.9302 361.9 81.0002Z" fill="#F5F5F5"/>
<path d="M272.535 423.71C382.83 423.71 472.242 418.642 472.242 412.39C472.242 406.138 382.83 401.07 272.535 401.07C162.24 401.07 72.8281 406.138 72.8281 412.39C72.8281 418.642 162.24 423.71 272.535 423.71Z" fill="#F5F5F5"/>
<path d="M164.325 391.42H130.613V407.78H164.325V391.42Z" fill="#FFB700"/>
<path opacity="0.3" d="M164.325 391.42H130.613V407.78H164.325V391.42Z" fill="white"/>
<path opacity="0.2" d="M164.312 407.78V391.42H155.887V407.78H164.312Z" fill="black"/>
<path d="M231.729 358.7H198.027V407.79H231.729V358.7Z" fill="#FFB700"/>
<path opacity="0.4" d="M231.729 358.7H198.027V407.79H231.729V358.7Z" fill="white"/>
<path opacity="0.2" d="M231.727 407.79V358.7H223.301V407.79H231.727Z" fill="black"/>
<path d="M299.153 325.97H265.441V407.78H299.153V325.97Z" fill="#FFB700"/>
<path opacity="0.3" d="M299.153 325.97H265.441V407.78H299.153V325.97Z" fill="white"/>
<path opacity="0.2" d="M299.141 407.79V325.98H290.715V407.79H299.141Z" fill="black"/>
<path d="M366.553 276.88H332.852V407.78H366.553V276.88Z" fill="#FFB700"/>
<path opacity="0.2" d="M366.553 276.88H332.852V407.78H366.553V276.88Z" fill="white"/>
<path opacity="0.2" d="M366.566 407.78V276.88H358.141V407.78H366.566Z" fill="black"/>
<path d="M433.978 211.43H400.266V407.78H433.978V211.43Z" fill="#FFB700"/>
<path opacity="0.2" d="M433.969 407.79V211.44H425.543V407.79H433.969Z" fill="black"/>
<path d="M175.109 367.11H131.128L115.266 360.57H157.774V327.84H225.187V295.12H292.601V246.03H360.014V180.58H416.881V123.55H434.215V187.13H377.349V252.57H309.936V301.66H242.522V334.39H175.109V367.11Z" fill="#FFB700"/>
<g opacity="0.4">
<path d="M175.109 367.11H131.128L115.266 360.57H157.774V327.84H225.187V295.12H292.601V246.03H360.014V180.58H416.881V123.55H434.215V187.13H377.349V252.57H309.936V301.66H242.522V334.39H175.109V367.11Z" fill="white"/>
</g>
<path d="M416.879 180.58V123.55H434.214V187.13L416.879 180.58Z" fill="#FFB700"/>
<path d="M360.016 246.03V180.58L377.351 187.13V252.57L360.016 246.03Z" fill="#FFB700"/>
<path d="M292.602 295.12V246.03L309.936 252.57V301.66L292.602 295.12Z" fill="#FFB700"/>
<path d="M225.188 327.84V295.12L242.522 301.66V334.39L225.188 327.84Z" fill="#FFB700"/>
<path d="M157.773 360.57V327.84L175.108 334.39V367.11L157.773 360.57Z" fill="#FFB700"/>
<path d="M405.293 128.21L425.543 104.57L445.793 142.52L405.293 128.21Z" fill="#FFB700"/>
<path d="M220.622 162.59C219.044 165.656 217.772 168.86 216.821 172.16L216.759 172.4C216.615 172.91 216.337 174.05 216.326 174.1C216.203 174.62 216.1 175.1 215.997 175.67C215.997 175.67 215.791 176.85 215.719 177.41C215.714 177.474 215.714 177.537 215.719 177.6C215.564 178.74 215.461 181.15 215.461 181.19C215.461 181.78 215.461 182.36 215.461 182.94C215.461 182.94 215.564 184.22 215.647 184.81V184.98C215.642 184.924 215.642 184.867 215.647 184.81C217.212 194.34 218.675 195.58 219.88 199.12C223.403 209.53 226.132 242.53 226.132 242.53C205.759 247.86 181.234 269.53 181.234 269.53L185.632 279.41C185.632 279.41 238.492 255.14 242.282 250.21C246.732 244.36 244.178 213.36 245.578 201.15C246.093 196.63 246.681 192.7 247.278 189.15L253.901 179.23L220.622 162.59Z" fill="#263238"/>
<path opacity="0.2" d="M230.471 188.67L226.526 184.58C226.526 184.58 219.193 190.5 245.066 212.27C245.066 207.92 245.211 204.03 245.54 201.18C245.54 200.8 245.623 200.46 245.674 200.1L230.471 188.67Z" fill="black"/>
<path d="M181.988 271.31L171.266 276.61L174.572 281.86L184.553 277.56L181.988 271.31Z" fill="#FFC3BD"/>
<path d="M175.036 283.18C175.017 283.149 175.009 283.113 175.013 283.078C175.017 283.042 175.034 283.009 175.06 282.983C175.086 282.958 175.12 282.942 175.157 282.938C175.194 282.933 175.231 282.941 175.263 282.96C175.386 283.01 178.033 284.24 178.456 285.4C178.544 285.612 178.544 285.848 178.456 286.06C178.412 286.186 178.329 286.295 178.218 286.372C178.107 286.449 177.974 286.491 177.838 286.49C177.343 286.49 176.674 285.81 176.159 285.08C175.729 284.479 175.353 283.844 175.036 283.18ZM175.541 283.5C176.179 284.68 177.24 286.15 177.827 286.15C177.899 286.15 178.013 286.15 178.116 285.92C178.146 285.856 178.162 285.786 178.162 285.715C178.162 285.644 178.146 285.574 178.116 285.51C178.075 285.409 178.023 285.311 177.961 285.22C177.268 284.505 176.444 283.921 175.53 283.5H175.541Z" fill="#FFB700"/>
<path d="M174.984 283.1C174.983 283.069 174.991 283.038 175.008 283.012C175.024 282.985 175.048 282.964 175.077 282.95C175.976 282.438 177.016 282.211 178.054 282.3C178.219 282.344 178.374 282.419 178.509 282.522C178.643 282.625 178.755 282.754 178.837 282.9C179.074 283.31 178.96 283.56 178.837 283.69C178.25 284.27 175.942 283.74 175.129 283.25C175.107 283.239 175.089 283.222 175.077 283.2C175.056 283.191 175.036 283.177 175.02 283.16C175.004 283.142 174.992 283.122 174.984 283.1ZM178.507 282.99C178.379 282.816 178.194 282.689 177.982 282.63C177.155 282.549 176.322 282.713 175.592 283.1C176.55 283.53 178.219 283.76 178.6 283.45C178.6 283.45 178.723 283.33 178.6 283.07L178.538 282.99H178.507Z" fill="#FFB700"/>
<path d="M175.447 282L170.905 275.62C170.82 275.505 170.698 275.42 170.558 275.38C170.418 275.34 170.268 275.347 170.132 275.4L163.952 277.84C163.82 277.886 163.698 277.959 163.595 278.052C163.492 278.146 163.41 278.259 163.354 278.385C163.298 278.51 163.269 278.646 163.27 278.782C163.27 278.919 163.299 279.055 163.355 279.18C163.383 279.25 163.417 279.317 163.458 279.38C165.137 281.65 166.723 283.61 168.762 286.47C171.162 289.85 170.143 289.27 172.882 293.28C174.551 295.69 177.662 294.28 177.085 293.14C174.376 288.14 175.478 286.64 175.911 283.7C175.975 283.098 175.81 282.493 175.447 282Z" fill="#263238"/>
<path opacity="0.2" d="M180.298 272.15L176.281 274.13L179.186 279.87L182.502 278.45L180.298 272.15Z" fill="black"/>
<path d="M181.214 266.28L176.672 268.84L182.357 281.49L187.631 280.07L181.214 266.28Z" fill="#FFB700"/>
<path d="M276.872 235.28C276.872 235.28 230.45 197.28 226.495 190.52C222.54 183.76 233.118 174.52 233.118 174.52L244.891 176.12C244.891 176.12 294.506 219.83 292.477 228.57L276.872 235.28Z" fill="#263238"/>
<path d="M292.474 228.57C291.166 237.45 271.565 280.15 271.565 280.15C271.565 280.15 267.518 279.92 260.102 275.42C260.102 275.42 267.847 241.67 275.716 228.57H292.474Z" fill="#263238"/>
<path d="M263.428 277.44L259.926 288.61L266.116 289.94L269.845 279.98L263.428 277.44Z" fill="#FFC3BD"/>
<path d="M267.414 290.54C267.382 290.526 267.355 290.503 267.335 290.475C267.315 290.447 267.303 290.414 267.301 290.38C267.299 290.345 267.309 290.31 267.33 290.281C267.35 290.252 267.38 290.231 267.414 290.22C267.538 290.17 270.288 289.17 271.442 289.69C271.656 289.781 271.826 289.95 271.915 290.16C271.977 290.276 271.999 290.408 271.979 290.538C271.959 290.667 271.897 290.787 271.802 290.88C271.115 291.211 270.326 291.282 269.588 291.08C268.849 290.959 268.122 290.778 267.414 290.54ZM268.012 290.4C269.32 290.77 271.102 291.05 271.555 290.65C271.617 290.65 271.678 290.51 271.555 290.28C271.537 290.22 271.507 290.164 271.466 290.116C271.425 290.068 271.375 290.029 271.318 290C271.215 289.959 271.108 289.929 270.999 289.91C269.98 289.887 268.966 290.054 268.012 290.4Z" fill="#FFB700"/>
<path d="M267.334 290.51C267.318 290.487 267.309 290.459 267.309 290.43C267.309 290.402 267.318 290.374 267.334 290.35C267.566 289.362 268.119 288.472 268.91 287.81C269.064 287.721 269.234 287.663 269.411 287.641C269.589 287.619 269.769 287.632 269.94 287.68C270.404 287.8 270.507 288.06 270.497 288.25C270.497 289.06 268.529 290.31 267.602 290.54H267.53C267.5 290.561 267.463 290.569 267.426 290.563C267.39 290.558 267.357 290.539 267.334 290.51ZM269.683 287.98C269.47 287.94 269.249 287.98 269.065 288.09C268.427 288.612 267.967 289.309 267.746 290.09C268.725 289.72 270.064 288.71 270.095 288.23C270.095 288.18 270.095 288.06 269.786 287.98H269.683Z" fill="#FFB700"/>
<path d="M266.85 289.44L258.96 288.2C258.816 288.176 258.668 288.201 258.54 288.27C258.413 288.339 258.314 288.449 258.259 288.58L255.798 294.58C255.74 294.706 255.709 294.841 255.707 294.979C255.705 295.116 255.733 295.253 255.788 295.38C255.843 295.506 255.925 295.621 256.027 295.715C256.13 295.81 256.252 295.883 256.385 295.93L256.601 296C259.454 296.4 261.998 296.64 265.542 297.21C269.713 297.86 268.57 298.21 273.473 299.02C276.418 299.53 277.51 296.35 276.284 296.02C270.661 294.42 270.341 292.64 268.467 290.3C268.055 289.83 267.479 289.524 266.85 289.44Z" fill="#263238"/>
<path opacity="0.2" d="M262.885 279.2L261.566 283.39L267.839 285.34L269.085 282.03L262.885 279.2Z" fill="black"/>
<path d="M259.164 274.49L257.918 279.44L271.246 284.24L273.842 279.57L259.164 274.49Z" fill="#FFB700"/>
<path d="M205.926 147.24L206.698 140L213.208 141.32L210.993 148.66C210.993 148.66 213.187 152.05 213.053 155.07C212.92 158.09 211.107 157.67 211.107 157.67C211.107 157.67 211.292 160.86 208.501 159.92C205.71 158.98 202.105 157.59 202.712 154.92C203.503 152.257 204.58 149.683 205.926 147.24Z" fill="#FFC3BD"/>
<path d="M253.337 116.79C251.102 108.61 225.373 116.41 225.373 116.41C225.373 116.41 212.817 120.34 209.521 123.3C206.225 126.26 204.371 143.66 204.371 143.66L213.384 145.57L218.976 130.57C244.098 126.4 255.511 124.72 253.337 116.79Z" fill="#FFB700"/>
<path d="M213.639 142.77C213.499 142.906 213.31 142.985 213.112 142.991C212.914 142.997 212.72 142.929 212.571 142.802C212.422 142.675 212.328 142.498 212.309 142.307C212.289 142.115 212.345 141.923 212.465 141.77C212.602 141.619 212.795 141.527 213.001 141.514C213.208 141.501 213.411 141.568 213.567 141.7C213.645 141.765 213.709 141.845 213.755 141.934C213.801 142.023 213.828 142.121 213.835 142.22C213.842 142.32 213.828 142.42 213.794 142.515C213.761 142.609 213.708 142.696 213.639 142.77Z" fill="white"/>
<path opacity="0.1" d="M246.837 121.73L246.899 114.01C246.899 114.01 241.491 113.11 233.262 128.16C236.959 127.48 240.152 126.83 242.841 126.16L246.837 121.73Z" fill="black"/>
<path d="M279.973 101.94L281.003 106.79C280.417 106.908 279.81 106.891 279.233 106.74C278.655 106.589 278.121 106.308 277.676 105.92L279.973 101.94Z" fill="#BA4D3C"/>
<path d="M281.075 100C281.075 100.5 280.724 100.89 280.385 100.87C280.045 100.85 279.787 100.39 279.839 99.87C279.89 99.35 280.189 98.98 280.529 99.01C280.869 99.04 281.116 99.51 281.075 100Z" fill="#263238"/>
<path d="M257.094 115.46C257.094 115.46 261.564 115.77 262.924 107.92C262.924 107.92 267.311 106.82 269.516 109.58C271.72 112.34 265.735 116.91 268.578 119.75C271.421 122.59 257.094 115.46 257.094 115.46Z" fill="#FFC3BD"/>
<path opacity="0.2" d="M266.508 112.34C266.997 113.482 267.631 114.56 268.393 115.55C268.815 114.55 269.351 113.55 269.691 112.63L266.508 112.34Z" fill="black"/>
<path d="M261.08 96.3701C260.205 103.07 259.679 105.89 262.45 109.93C267.034 114.37 275.305 115.6 278.24 109.28C280.877 103.6 281.876 93.6301 275.717 89.7101C274.36 88.8543 272.801 88.3484 271.187 88.2402C269.573 88.132 267.957 88.425 266.492 89.0916C265.027 89.7582 263.762 90.7764 262.815 92.0499C261.868 93.3234 261.271 94.8103 261.08 96.3701Z" fill="#FFC3BD"/>
<path d="M278.868 97.32C278.901 97.3491 278.941 97.3699 278.984 97.3804C279.027 97.3908 279.072 97.3907 279.115 97.38C279.442 97.2851 279.788 97.2683 280.124 97.3309C280.459 97.3936 280.774 97.5339 281.041 97.74C281.093 97.7901 281.164 97.8182 281.237 97.8182C281.31 97.8182 281.381 97.7901 281.433 97.74C281.458 97.7158 281.478 97.687 281.492 97.6552C281.505 97.6235 281.512 97.5894 281.512 97.555C281.512 97.5206 281.505 97.4865 281.492 97.4547C281.478 97.423 281.458 97.3942 281.433 97.37C281.098 97.1046 280.702 96.9215 280.279 96.8362C279.856 96.7509 279.418 96.7659 279.002 96.88C278.931 96.8987 278.871 96.944 278.834 97.0058C278.797 97.0676 278.787 97.141 278.806 97.21C278.817 97.251 278.839 97.2888 278.868 97.32Z" fill="#263238"/>
<path d="M274.679 102.6L277.13 102.47C276.8 101.513 276.734 100.489 276.938 99.4996C277.142 98.5101 277.61 97.5898 278.294 96.8301C280.663 93.8301 286.534 92.2901 281.765 87.1701C280.462 85.6922 278.822 84.5302 276.974 83.7768C275.127 83.0233 273.124 82.6991 271.125 82.8301L275.049 85.5601C275.049 85.5601 266.954 79.7901 262.174 86.0601C263.354 85.6954 264.624 85.7165 265.79 86.1201C265.79 86.1201 244.283 93.1801 262.453 109.93C262.453 109.93 263.143 108.57 266.047 110.78C268.114 109.399 269.838 107.588 271.094 105.48C272.835 102.29 274.071 99.2901 274.679 102.6Z" fill="#263238"/>
<path d="M274.575 100.35C275.008 100.888 275.327 101.505 275.513 102.165C275.699 102.824 275.747 103.512 275.656 104.19C275.399 106.01 273.545 106.19 272.165 105.11C270.784 104.03 269.559 101.98 270.517 100.44C270.728 100.107 271.023 99.8306 271.373 99.636C271.723 99.4414 272.117 99.3348 272.52 99.3258C272.924 99.3169 273.323 99.4059 273.682 99.5848C274.04 99.7636 274.347 100.027 274.575 100.35Z" fill="#FFC3BD"/>
<path d="M284.072 89C284.072 89 284.7 92.64 278.809 94.8C278.809 94.8 287.007 95.61 284.072 89Z" fill="#263238"/>
<path d="M256.469 116.47L258.807 113.57C258.807 113.57 270.013 114.57 270.693 120.74L256.469 116.47Z" fill="#FFB700"/>
<path opacity="0.5" d="M256.469 116.47L258.807 113.57C258.807 113.57 270.013 114.57 270.693 120.74L256.469 116.47Z" fill="white"/>
<path d="M231.777 141.54C234.867 134.08 239.842 114.26 247.762 113.36C255.683 112.46 278.456 121.29 281.145 129.15C283.833 137.01 252.645 181.72 252.645 181.72L219.551 164C219.551 164 229.336 147.44 231.777 141.54Z" fill="#FFB700"/>
<path opacity="0.1" d="M270.669 126.56C270.669 126.56 264.664 137.68 271.905 151.68C274.626 147.114 277.075 142.399 279.239 137.56L276.695 131.72L270.669 126.56Z" fill="black"/>
<path d="M237.524 142.29C241.85 142.92 246.599 141.68 250.451 139.85C254.859 137.77 258.134 134.63 261.369 131.13C264.253 128 268.126 124.44 272.627 123.86C282.844 122.53 284.987 138.36 283.957 145.26C282.69 153.46 277.941 160.97 272.74 167.39C269.651 171.261 266.203 174.849 262.44 178.11C261.225 179.11 263.13 180.75 264.335 179.73C274.099 171.41 283.576 159.64 286.161 147.08C287.726 139.5 285.759 128.69 278.796 123.78C272.503 119.34 265.55 123.44 260.946 127.94C254.766 133.94 247.721 141.29 237.977 139.89C236.381 139.66 235.917 142.06 237.493 142.29H237.524Z" fill="#FFB700"/>
<g opacity="0.3">
<path d="M237.524 142.29C241.85 142.92 246.599 141.68 250.451 139.85C254.859 137.77 258.134 134.63 261.369 131.13C264.253 128 268.126 124.44 272.627 123.86C282.844 122.53 284.987 138.36 283.957 145.26C282.69 153.46 277.941 160.97 272.74 167.39C269.651 171.261 266.203 174.849 262.44 178.11C261.225 179.11 263.13 180.75 264.335 179.73C274.099 171.41 283.576 159.64 286.161 147.08C287.726 139.5 285.759 128.69 278.796 123.78C272.503 119.34 265.55 123.44 260.946 127.94C254.766 133.94 247.721 141.29 237.977 139.89C236.381 139.66 235.917 142.06 237.493 142.29H237.524Z" fill="black"/>
</g>
<path d="M311.045 155.63L304.092 157.92L303.145 152.83L310.272 150.66C310.272 150.66 311.683 147.09 314.516 146C317.348 144.91 318.502 146.91 318.502 146.91C318.502 146.91 321.345 145.44 321.592 148.24C321.839 151.04 321.777 155.51 319.11 156.06C316.442 156.61 313.383 155.66 311.045 155.63Z" fill="#FFC3BD"/>
<path d="M307.371 150.16L292.703 152.4C283.073 130.49 278.881 120.8 271.568 124.6C263.884 128.6 277.511 149.84 277.511 149.84C277.511 149.84 283.979 161.38 287.409 164.22C287.617 164.407 287.853 164.562 288.11 164.68C292.466 165.82 308.905 158.14 308.905 158.14L307.371 150.16Z" fill="#FFB700"/>
<path d="M307.37 157.94C307.305 158.023 307.223 158.092 307.129 158.142C307.036 158.193 306.932 158.225 306.825 158.235C306.719 158.246 306.611 158.234 306.509 158.203C306.406 158.171 306.312 158.119 306.231 158.05C306.151 157.982 306.086 157.898 306.04 157.803C305.994 157.709 305.969 157.607 305.965 157.503C305.962 157.398 305.981 157.295 306.02 157.198C306.06 157.101 306.12 157.013 306.196 156.94C306.334 156.791 306.528 156.7 306.734 156.689C306.941 156.678 307.143 156.747 307.298 156.88C307.374 156.945 307.437 157.024 307.482 157.112C307.527 157.201 307.554 157.297 307.561 157.395C307.567 157.494 307.554 157.593 307.521 157.686C307.489 157.779 307.437 157.866 307.37 157.94Z" fill="white"/>
<path d="M239.682 141.33L264.497 176.11C264.746 176.46 264.922 176.854 265.015 177.27C265.108 177.686 265.115 178.116 265.037 178.534C264.958 178.953 264.796 179.352 264.559 179.71C264.321 180.068 264.014 180.377 263.654 180.619L245.272 192.981C244.65 193.399 243.95 193.694 243.211 193.849C242.472 194.005 241.708 194.017 240.964 193.886C240.22 193.755 239.51 193.483 238.875 193.085C238.239 192.688 237.69 192.172 237.26 191.569L215.225 160.685C214.794 160.081 214.49 159.401 214.33 158.684C214.171 157.966 214.158 157.225 214.293 156.503C214.428 155.781 214.708 155.091 215.118 154.474C215.527 153.857 216.058 153.324 216.679 152.906L235.061 140.544C235.422 140.302 235.827 140.131 236.256 140.041C236.684 139.951 237.127 139.944 237.558 140.02C237.989 140.096 238.401 140.253 238.769 140.484C239.137 140.714 239.455 141.013 239.705 141.363L239.682 141.33Z" fill="#FFB700"/>
<path opacity="0.3" d="M239.682 141.33L264.497 176.11C264.746 176.46 264.922 176.854 265.015 177.27C265.108 177.686 265.115 178.116 265.037 178.534C264.958 178.953 264.796 179.352 264.559 179.71C264.321 180.068 264.014 180.377 263.654 180.619L245.272 192.981C244.65 193.399 243.95 193.694 243.211 193.849C242.472 194.005 241.708 194.017 240.964 193.886C240.22 193.755 239.51 193.483 238.875 193.085C238.239 192.688 237.69 192.172 237.26 191.569L215.225 160.685C214.794 160.081 214.49 159.401 214.33 158.684C214.171 157.966 214.158 157.225 214.293 156.503C214.428 155.781 214.708 155.091 215.118 154.474C215.527 153.857 216.058 153.324 216.679 152.906L235.061 140.544C235.422 140.302 235.827 140.131 236.256 140.041C236.684 139.951 237.127 139.944 237.558 140.02C237.989 140.096 238.401 140.253 238.769 140.484C239.137 140.714 239.455 141.013 239.705 141.363L239.682 141.33Z" fill="white"/>
<path opacity="0.1" d="M262.565 178.3L236.815 142.24C236.625 141.973 236.382 141.746 236.1 141.57C235.819 141.394 235.505 141.274 235.176 141.217C234.847 141.159 234.509 141.165 234.183 141.234C233.856 141.304 233.546 141.435 233.272 141.62L232.499 142.14C230.946 143.198 229.885 144.807 229.546 146.619C229.207 148.431 229.617 150.299 230.687 151.82L251.153 180.49C252.242 181.998 253.899 183.028 255.766 183.357C257.632 183.687 259.557 183.289 261.123 182.25L261.885 181.74C262.445 181.371 262.83 180.801 262.958 180.156C263.085 179.512 262.944 178.844 262.565 178.3Z" fill="black"/>
<path d="M264.934 176.75L239.184 140.69C238.993 140.423 238.75 140.196 238.469 140.02C238.188 139.845 237.874 139.725 237.545 139.667C237.216 139.61 236.878 139.615 236.551 139.685C236.225 139.754 235.915 139.885 235.641 140.07L234.878 140.59C233.325 141.648 232.264 143.257 231.925 145.069C231.586 146.881 231.995 148.75 233.066 150.27L253.521 178.94C254.611 180.448 256.268 181.478 258.134 181.808C260.001 182.137 261.926 181.739 263.492 180.7L264.264 180.19C264.541 180.008 264.779 179.773 264.963 179.501C265.146 179.229 265.273 178.925 265.335 178.605C265.397 178.286 265.394 177.957 265.325 177.639C265.256 177.321 265.123 177.019 264.934 176.75Z" fill="#FFB700"/>
<path d="M264.934 176.75L239.184 140.69C238.993 140.423 238.75 140.196 238.469 140.02C238.188 139.845 237.874 139.725 237.545 139.667C237.216 139.61 236.878 139.615 236.551 139.685C236.225 139.754 235.915 139.885 235.641 140.07L234.878 140.59C233.325 141.648 232.264 143.257 231.925 145.069C231.586 146.881 231.995 148.75 233.066 150.27L253.521 178.94C254.611 180.448 256.268 181.478 258.134 181.808C260.001 182.137 261.926 181.739 263.492 180.7L264.264 180.19C264.541 180.008 264.779 179.773 264.963 179.501C265.146 179.229 265.273 178.925 265.335 178.605C265.397 178.286 265.394 177.957 265.325 177.639C265.256 177.321 265.123 177.019 264.934 176.75Z" fill="#FFB700"/>
<path opacity="0.5" d="M264.934 176.75L239.184 140.69C238.993 140.423 238.75 140.196 238.469 140.02C238.188 139.845 237.874 139.725 237.545 139.667C237.216 139.61 236.878 139.615 236.551 139.685C236.225 139.754 235.915 139.885 235.641 140.07L234.878 140.59C233.325 141.648 232.264 143.257 231.925 145.069C231.586 146.881 231.995 148.75 233.066 150.27L253.521 178.94C254.611 180.448 256.268 181.478 258.134 181.808C260.001 182.137 261.926 181.739 263.492 180.7L264.264 180.19C264.541 180.008 264.779 179.773 264.963 179.501C265.146 179.229 265.273 178.925 265.335 178.605C265.397 178.286 265.394 177.957 265.325 177.639C265.256 177.321 265.123 177.019 264.934 176.75Z" fill="white"/>
<path d="M240.189 152.863L239.737 152.23C239.106 151.345 237.855 151.124 236.943 151.737L231.939 155.103C231.027 155.716 230.8 156.931 231.431 157.816L231.883 158.449C232.515 159.334 233.766 159.555 234.678 158.942L239.682 155.576C240.594 154.963 240.821 153.748 240.189 152.863Z" fill="#FFB700"/>
<path d="M254.037 172.284L253.585 171.651C252.954 170.766 251.702 170.546 250.791 171.159L245.787 174.525C244.875 175.139 244.648 176.353 245.28 177.239L245.732 177.871C246.364 178.757 247.615 178.977 248.527 178.364L253.53 174.997C254.442 174.384 254.669 173.169 254.037 172.284Z" fill="#FFB700"/>
<path opacity="0.3" d="M240.189 152.863L239.737 152.23C239.106 151.345 237.855 151.124 236.943 151.737L231.939 155.103C231.027 155.716 230.8 156.931 231.431 157.816L231.883 158.449C232.515 159.334 233.766 159.555 234.678 158.942L239.682 155.576C240.594 154.963 240.821 153.748 240.189 152.863Z" fill="black"/>
<path opacity="0.3" d="M254.037 172.284L253.585 171.651C252.954 170.766 251.702 170.546 250.791 171.159L245.787 174.525C244.875 175.139 244.648 176.353 245.28 177.239L245.732 177.871C246.364 178.757 247.615 178.977 248.527 178.364L253.53 174.997C254.442 174.384 254.669 173.169 254.037 172.284Z" fill="black"/>
<path opacity="0.2" d="M216.379 162.31C216.379 162.31 224.969 176 232.334 172L226.215 176.12L216.379 162.31Z" fill="black"/>
<path d="M248.579 154.84C250.639 154.56 251.669 153.46 253.389 152.69C254.542 152.16 253.162 151.69 254.192 152.62C254.538 153.008 254.836 153.434 255.078 153.89C255.768 154.95 256.355 156.08 257.066 157.13C257.684 158.02 259.291 158.98 259.692 159.9C260.341 161.4 256.994 163.5 256.025 164.27C254.872 165.19 256.201 167.08 257.375 166.15C259.043 164.81 262.37 162.67 262.257 160.15C262.185 158.61 260.794 157.9 259.836 156.87C258.034 154.94 257.313 151.5 254.923 150.11C254.581 149.882 254.175 149.76 253.759 149.76C253.344 149.76 252.938 149.882 252.596 150.11C251.669 150.6 251.226 151.59 250.154 152.05C249.594 152.284 249.006 152.449 248.403 152.54C246.9 152.74 247.075 155.02 248.579 154.82V154.84Z" fill="#FFB700"/>
<g opacity="0.3">
<path d="M248.579 154.84C250.639 154.56 251.669 153.46 253.389 152.69C254.542 152.16 253.162 151.69 254.192 152.62C254.538 153.008 254.836 153.434 255.078 153.89C255.768 154.95 256.355 156.08 257.066 157.13C257.684 158.02 259.291 158.98 259.692 159.9C260.341 161.4 256.994 163.5 256.025 164.27C254.872 165.19 256.201 167.08 257.375 166.15C259.043 164.81 262.37 162.67 262.257 160.15C262.185 158.61 260.794 157.9 259.836 156.87C258.034 154.94 257.313 151.5 254.923 150.11C254.581 149.882 254.175 149.76 253.759 149.76C253.344 149.76 252.938 149.882 252.596 150.11C251.669 150.6 251.226 151.59 250.154 152.05C249.594 152.284 249.006 152.449 248.403 152.54C246.9 152.74 247.075 155.02 248.579 154.82V154.84Z" fill="black"/>
</g>
</g>
<defs>
<filter id="filter0_d_2702_925" x="12.9102" y="9" width="520.176" height="505.26" filterUnits="userSpaceOnUse" color-interpolation-filters="sRGB">
<feFlood flood-opacity="0" result="BackgroundImageFix"/>
<feColorMatrix in="SourceAlpha" type="matrix" values="0 0 0 0 0 0 0 0 0 0 0 0 0 0 0 0 0 0 127 0" result="hardAlpha"/>
<feOffset dy="4"/>
<feGaussianBlur stdDeviation="2"/>
<feComposite in2="hardAlpha" operator="out"/>
<feColorMatrix type="matrix" values="0 0 0 0 0 0 0 0 0 0 0 0 0 0 0 0 0 0 0.25 0"/>
<feBlend mode="normal" in2="BackgroundImageFix" result="effect1_dropShadow_2702_925"/>
<feBlend mode="normal" in="SourceGraphic" in2="effect1_dropShadow_2702_925" result="shape"/>
</filter>
<clipPath id="clip0_2702_925">
<rect width="535" height="512" fill="white"/>
</clipPath>
</defs>
</svg>
