<svg width="500" height="500" viewBox="0 0 500 500" fill="none" xmlns="http://www.w3.org/2000/svg">
<g clip-path="url(#clip0_2702_925)">
<g filter="url(#filter0_d_2702_925)">
<circle cx="245.63" cy="257.63" r="248.63" fill="#FFB700"/>
</g>
<path d="M449.901 398.49H416.781V398.74H449.901V398.49Z" fill="#EBEBEB"/>
<path d="M331.221 401.21H322.531V401.46H331.221V401.21Z" fill="#EBEBEB"/>
<path d="M415.78 389.21H396.59V389.46H415.78V389.21Z" fill="#EBEBEB"/>
<path d="M95.6509 390.89H52.4609V391.14H95.6509V390.89Z" fill="#EBEBEB"/>
<path d="M110.889 390.89H104.559V391.14H110.889V390.89Z" fill="#EBEBEB"/>
<path d="M225.149 395.11H131.469V395.36H225.149V395.11Z" fill="#EBEBEB"/>
<path d="M500 382.4H0V382.65H500V382.4Z" fill="#EBEBEB"/>
<path d="M374.07 280.12V383.01H380.8H419.9H426.63V280.12H374.07Z" fill="#EBEBEB"/>
<path d="M384.16 267.42V290.22H388.31H412.39H416.54V267.42H384.16Z" fill="#EBEBEB"/>
<path d="M384.16 283.49H377.43V290.22H384.16V283.49Z" fill="#FAFAFA"/>
<path d="M397.199 283.49H390.469V290.22H397.199V283.49Z" fill="#FAFAFA"/>
<path d="M410.23 283.49H403.5V290.22H410.23V283.49Z" fill="#FAFAFA"/>
<path d="M423.269 283.49H416.539V290.22H423.269V283.49Z" fill="#F0F0F0"/>
<path d="M384.16 295.71H377.43V302.44H384.16V295.71Z" fill="#F0F0F0"/>
<path d="M397.199 295.71H390.469V302.44H397.199V295.71Z" fill="#F0F0F0"/>
<path d="M410.23 295.71H403.5V302.44H410.23V295.71Z" fill="#FAFAFA"/>
<path d="M423.269 295.71H416.539V302.44H423.269V295.71Z" fill="#FAFAFA"/>
<path d="M384.16 307.94H377.43V314.67H384.16V307.94Z" fill="#F0F0F0"/>
<path d="M397.199 307.94H390.469V314.67H397.199V307.94Z" fill="#FAFAFA"/>
<path d="M410.23 307.94H403.5V314.67H410.23V307.94Z" fill="#FAFAFA"/>
<path d="M397.199 272.92H390.469V279.65H397.199V272.92Z" fill="#FAFAFA"/>
<path d="M410.23 272.92H403.5V279.65H410.23V272.92Z" fill="#F0F0F0"/>
<path d="M423.269 307.94H416.539V314.67H423.269V307.94Z" fill="#F0F0F0"/>
<path d="M384.16 320.17H377.43V326.9H384.16V320.17Z" fill="#FAFAFA"/>
<path d="M397.199 320.17H390.469V326.9H397.199V320.17Z" fill="#F0F0F0"/>
<path d="M410.23 320.17H403.5V326.9H410.23V320.17Z" fill="#F0F0F0"/>
<path d="M423.269 320.17H416.539V326.9H423.269V320.17Z" fill="#FAFAFA"/>
<path d="M384.16 332.4H377.43V339.13H384.16V332.4Z" fill="#F0F0F0"/>
<path d="M397.199 332.4H390.469V339.13H397.199V332.4Z" fill="#FAFAFA"/>
<path d="M410.23 332.4H403.5V339.13H410.23V332.4Z" fill="#FAFAFA"/>
<path d="M423.269 332.4H416.539V339.13H423.269V332.4Z" fill="#F0F0F0"/>
<path d="M384.16 344.62H377.43V351.35H384.16V344.62Z" fill="#F0F0F0"/>
<path d="M397.199 344.62H390.469V351.35H397.199V344.62Z" fill="#FAFAFA"/>
<path d="M410.23 344.62H403.5V351.35H410.23V344.62Z" fill="#F0F0F0"/>
<path d="M423.269 344.62H416.539V351.35H423.269V344.62Z" fill="#FAFAFA"/>
<path d="M384.16 356.85H377.43V363.58H384.16V356.85Z" fill="#FAFAFA"/>
<path d="M397.199 356.85H390.469V363.58H397.199V356.85Z" fill="#FAFAFA"/>
<path d="M410.23 356.85H403.5V363.58H410.23V356.85Z" fill="#F0F0F0"/>
<path d="M423.269 356.85H416.539V363.58H423.269V356.85Z" fill="#F0F0F0"/>
<path d="M384.16 369.08H377.43V375.81H384.16V369.08Z" fill="#F0F0F0"/>
<path d="M423.269 369.08H416.539V375.81H423.269V369.08Z" fill="#FAFAFA"/>
<path d="M410.239 369.08H390.469V371.01H391.269V383.01H393.199V371.01H407.499V383.01H409.439V371.01H410.239V369.08Z" fill="#F5F5F5"/>
<path d="M400.349 371.01H393.199V383.01H400.349V371.01Z" fill="#E6E6E6"/>
<path d="M407.502 371.01H400.352V383.01H407.502V371.01Z" fill="#EBEBEB"/>
<path d="M66.9492 280.12V383.01H73.6692H112.779H119.509V280.12H66.9492Z" fill="#F5F5F5"/>
<path d="M70.3086 283.49V295.71V299.08V302.44H77.0386V299.08V295.71V283.49H70.3086Z" fill="#E6E6E6"/>
<path d="M83.3516 283.49V295.71V299.08V302.44H90.0816V299.08V295.71V283.49H83.3516Z" fill="#F0F0F0"/>
<path d="M96.3789 283.49V295.71V299.08V302.44H103.109V299.08V295.71V283.49H96.3789Z" fill="#E6E6E6"/>
<path d="M109.422 283.49V295.71V300.91V302.44H116.152V300.91V295.71V283.49H109.422Z" fill="#F0F0F0"/>
<path d="M70.3086 307.94V320.17V323.53V326.9H77.0386V323.53V320.17V307.94H70.3086Z" fill="#F0F0F0"/>
<path d="M83.3516 307.94V320.17V324.91V326.9H90.0816V324.91V320.17V307.94H83.3516Z" fill="#F0F0F0"/>
<path d="M96.3789 307.94V320.17V323.53V326.9H103.109V323.53V320.17V307.94H96.3789Z" fill="#E6E6E6"/>
<path d="M109.422 307.94V320.17V323.53V326.9H116.152V323.53V320.17V307.94H109.422Z" fill="#F0F0F0"/>
<path d="M70.3086 332.4V344.62V347.99V351.35H77.0386V347.99V344.62V332.4H70.3086Z" fill="#E6E6E6"/>
<path d="M83.3516 332.4V344.62V347.99V351.35H90.0816V347.99V344.62V332.4H83.3516Z" fill="#F0F0F0"/>
<path d="M96.3789 332.4V344.62V347.99V351.35H103.109V347.99V344.62V332.4H96.3789Z" fill="#F0F0F0"/>
<path d="M109.422 332.4V344.62V349.27V351.35H116.152V349.27V344.62V332.4H109.422Z" fill="#E6E6E6"/>
<path d="M112.779 356.85H109.419H103.109H96.3786H90.0786H83.3486H70.3086V363.58H83.3486H90.0786H96.3786H103.109H109.419H112.779H116.149V356.85H112.779Z" fill="#F0F0F0"/>
<path d="M103.112 369.08H83.3516V371.01H84.1516V383.01H86.0816V371.01H100.382V383.01H102.312V371.01H103.112V369.08Z" fill="#EBEBEB"/>
<path d="M93.2281 371.01H86.0781V383.01H93.2281V371.01Z" fill="#FAFAFA"/>
<path d="M100.38 371.01H93.2305V383.01H100.38V371.01Z" fill="#F5F5F5"/>
<path d="M119.512 326.9V383.01H126.242H165.352H172.072V326.9H119.512Z" fill="#E6E6E6"/>
<path d="M129.609 332.4H122.879V339.13H129.609V332.4Z" fill="#F0F0F0"/>
<path d="M142.64 332.4H135.91V339.13H142.64V332.4Z" fill="#F0F0F0"/>
<path d="M155.679 332.4H148.949V339.13H155.679V332.4Z" fill="#F0F0F0"/>
<path d="M168.71 332.4H161.98V339.13H168.71V332.4Z" fill="#F0F0F0"/>
<path d="M129.609 344.62H122.879V351.35H129.609V344.62Z" fill="#F0F0F0"/>
<path d="M142.64 344.62H135.91V351.35H142.64V344.62Z" fill="#F0F0F0"/>
<path d="M155.679 344.62H148.949V351.35H155.679V344.62Z" fill="#F0F0F0"/>
<path d="M168.71 344.62H161.98V351.35H168.71V344.62Z" fill="#F0F0F0"/>
<path d="M129.609 356.85H122.879V363.58H129.609V356.85Z" fill="#F0F0F0"/>
<path d="M142.64 356.85H135.91V363.58H142.64V356.85Z" fill="#F0F0F0"/>
<path d="M155.679 356.85H148.949V363.58H155.679V356.85Z" fill="#F0F0F0"/>
<path d="M168.71 356.85H161.98V363.58H168.71V356.85Z" fill="#F0F0F0"/>
<path d="M129.609 369.08H122.879V375.81H129.609V369.08Z" fill="#F0F0F0"/>
<path d="M168.71 369.08H161.98V375.81H168.71V369.08Z" fill="#F0F0F0"/>
<path d="M155.68 369.08H135.91V371.01H136.71V383.01H138.64V371.01H152.95V383.01H154.88V371.01H155.68V369.08Z" fill="#F5F5F5"/>
<path d="M145.791 371.01H138.641V383.01H145.791V371.01Z" fill="#E6E6E6"/>
<path d="M152.939 371.01H145.789V383.01H152.939V371.01Z" fill="#EBEBEB"/>
<path d="M312.238 280.12V383.01H318.968H358.078H364.808V280.12H312.238Z" fill="#FAFAFA"/>
<path d="M331.369 356.85H328.639H315.609V360.22V363.58V375.81H322.339V363.58H328.639H331.369H335.369V356.85H331.369Z" fill="#F0F0F0"/>
<path d="M356.85 356.85H354.71H341.68V363.58H354.71V375.81H361.44V363.58V358.71V356.85H356.85Z" fill="#F0F0F0"/>
<path d="M348.411 369.08H328.641V371.01H329.441V383.01H331.371V371.01H345.681V383.01H347.611V371.01H348.411V369.08Z" fill="#F5F5F5"/>
<path d="M338.521 371.01H331.371V383.01H338.521V371.01Z" fill="#EBEBEB"/>
<path d="M345.67 371.01H338.52V383.01H345.67V371.01Z" fill="#E0E0E0"/>
<path d="M335.369 283.49H315.609V302.45H335.369V283.49Z" fill="#F0F0F0"/>
<path d="M361.44 283.49H341.68V302.45H361.44V283.49Z" fill="#F0F0F0"/>
<path d="M335.369 307.94H315.609V326.9H335.369V307.94Z" fill="#F0F0F0"/>
<path d="M361.44 307.94H341.68V326.9H361.44V307.94Z" fill="#F0F0F0"/>
<path d="M335.369 332.4H315.609V351.36H335.369V332.4Z" fill="#F0F0F0"/>
<path d="M361.44 332.4H341.68V351.36H361.44V332.4Z" fill="#F0F0F0"/>
<path d="M125.771 255.69C125.389 256.026 125.111 256.465 124.973 256.955C124.836 257.445 124.843 257.964 124.994 258.45C125.145 258.936 125.435 259.367 125.826 259.692C126.218 260.017 126.696 260.221 127.201 260.28C143.511 262.04 176.481 264.47 185.401 256.62C196.871 246.52 164.201 256.07 161.681 253.77C159.161 251.47 168.111 246.39 161.071 246.52C156.141 246.61 148.461 255.35 140.581 254.19C134.151 253.25 142.721 248.58 136.751 248.58C131.591 248.58 129.221 252.61 125.771 255.69Z" fill="#F0F0F0"/>
<path d="M157.16 253.08C156.884 253.318 156.684 253.631 156.582 253.981C156.481 254.331 156.483 254.702 156.589 255.051C156.695 255.399 156.9 255.709 157.179 255.944C157.458 256.178 157.799 256.326 158.16 256.37C169.84 257.63 193.44 259.37 199.83 253.75C208.04 246.52 184.65 253.35 182.83 251.75C181.01 250.15 187.43 246.47 182.39 246.56C178.86 246.62 173.39 252.88 167.72 252.05C163.12 251.38 169.25 248.05 164.98 248.05C161.32 248 159.63 250.88 157.16 253.08Z" fill="#F5F5F5"/>
<path d="M274.281 173.7C297.477 173.7 316.281 154.896 316.281 131.7C316.281 108.504 297.477 89.7002 274.281 89.7002C251.085 89.7002 232.281 108.504 232.281 131.7C232.281 154.896 251.085 173.7 274.281 173.7Z" fill="#F0F0F0"/>
<path d="M267.19 144.37C266.758 144.637 266.421 145.03 266.223 145.497C266.026 145.964 265.979 146.481 266.089 146.976C266.199 147.471 266.461 147.919 266.837 148.258C267.213 148.598 267.686 148.812 268.19 148.87C293.69 151.87 356.82 157.52 373.13 143.16C392.81 125.84 336.78 142.22 332.45 138.29C328.12 134.36 343.45 125.63 331.45 125.85C322.92 126 309.75 141 296.23 139C285.23 137.38 299.9 129.38 289.67 129.38C279.12 129.39 275.38 139.18 267.19 144.37Z" fill="#FAFAFA"/>
<path d="M331.938 81.0002C331.596 81.2849 331.346 81.6639 331.217 82.09C331.089 82.516 331.089 82.9704 331.217 83.3966C331.345 83.8227 331.595 84.202 331.937 84.4871C332.278 84.7722 332.696 84.9506 333.138 85.0002C348.858 86.7302 381.978 89.2902 390.848 81.4902C402.088 71.5902 370.088 80.9502 367.608 78.7002C365.128 76.4502 373.908 71.4702 367.018 71.6002C362.178 71.6802 354.658 80.2502 346.938 79.1102C340.648 78.1902 349.038 73.6202 343.188 73.6202C337.888 73.6002 335.598 77.9302 331.938 81.0002Z" fill="#F5F5F5"/>
<path d="M245.179 423.71C352.262 423.71 439.069 418.642 439.069 412.39C439.069 406.138 352.262 401.07 245.179 401.07C138.097 401.07 51.2891 406.138 51.2891 412.39C51.2891 418.642 138.097 423.71 245.179 423.71Z" fill="#F5F5F5"/>
<path d="M140.117 391.42H107.387V407.78H140.117V391.42Z" fill="#FFB700"/>
<path opacity="0.3" d="M140.117 391.42H107.387V407.78H140.117V391.42Z" fill="white"/>
<path opacity="0.2" d="M140.109 407.78V391.42H131.929V407.78H140.109Z" fill="black"/>
<path d="M205.56 358.7H172.84V407.79H205.56V358.7Z" fill="#FFB700"/>
<path opacity="0.4" d="M205.56 358.7H172.84V407.79H205.56V358.7Z" fill="white"/>
<path opacity="0.2" d="M205.559 407.79V358.7H197.379V407.79H205.559Z" fill="black"/>
<path d="M271.019 325.97H238.289V407.78H271.019V325.97Z" fill="#FFB700"/>
<path opacity="0.3" d="M271.019 325.97H238.289V407.78H271.019V325.97Z" fill="white"/>
<path opacity="0.2" d="M271.008 407.79V325.98H262.828V407.79H271.008Z" fill="black"/>
<path d="M336.458 276.88H303.738V407.78H336.458V276.88Z" fill="#FFB700"/>
<path opacity="0.2" d="M336.458 276.88H303.738V407.78H336.458V276.88Z" fill="white"/>
<path opacity="0.2" d="M336.469 407.78V276.88H328.289V407.78H336.469Z" fill="black"/>
<path d="M401.918 211.43H369.188V407.78H401.918V211.43Z" fill="#FFB700"/>
<path opacity="0.2" d="M401.91 407.79V211.44H393.73V407.79H401.91Z" fill="black"/>
<path d="M150.588 367.11H107.888L92.4883 360.57H133.758V327.84H199.208V295.12H264.658V246.03H330.108V180.58H385.318V123.55H402.148V187.13H346.938V252.57H281.488V301.66H216.038V334.39H150.588V367.11Z" fill="#FFB700"/>
<g opacity="0.4">
<path d="M150.588 367.11H107.888L92.4883 360.57H133.758V327.84H199.208V295.12H264.658V246.03H330.108V180.58H385.318V123.55H402.148V187.13H346.938V252.57H281.488V301.66H216.038V334.39H150.588V367.11Z" fill="white"/>
</g>
<path d="M385.316 180.58V123.55H402.146V187.13L385.316 180.58Z" fill="#FFB700"/>
<path d="M330.109 246.03V180.58L346.939 187.13V252.57L330.109 246.03Z" fill="#FFB700"/>
<path d="M264.66 295.12V246.03L281.49 252.57V301.66L264.66 295.12Z" fill="#FFB700"/>
<path d="M199.207 327.84V295.12L216.037 301.66V334.39L199.207 327.84Z" fill="#FFB700"/>
<path d="M133.758 360.57V327.84L150.588 334.39V367.11L133.758 360.57Z" fill="#FFB700"/>
<path d="M374.066 128.21L393.726 104.57L413.386 142.52L374.066 128.21Z" fill="#FFB700"/>
<path d="M194.779 162.59C193.248 165.656 192.012 168.86 191.089 172.16L191.029 172.4C190.889 172.91 190.619 174.05 190.609 174.1C190.489 174.62 190.389 175.1 190.289 175.67C190.289 175.67 190.089 176.85 190.019 177.41C190.014 177.474 190.014 177.537 190.019 177.6C189.869 178.74 189.769 181.15 189.769 181.19C189.769 181.78 189.769 182.36 189.769 182.94C189.769 182.94 189.869 184.22 189.949 184.81V184.98C189.944 184.924 189.944 184.867 189.949 184.81C191.469 194.34 192.889 195.58 194.059 199.12C197.479 209.53 200.129 242.53 200.129 242.53C180.349 247.86 156.539 269.53 156.539 269.53L160.809 279.41C160.809 279.41 212.129 255.14 215.809 250.21C220.129 244.36 217.649 213.36 219.009 201.15C219.509 196.63 220.079 192.7 220.659 189.15L227.089 179.23L194.779 162.59Z" fill="#263238"/>
<path opacity="0.2" d="M204.34 188.67L200.51 184.58C200.51 184.58 193.39 190.5 218.51 212.27C218.51 207.92 218.65 204.03 218.97 201.18C218.97 200.8 219.05 200.46 219.1 200.1L204.34 188.67Z" fill="black"/>
<path d="M157.269 271.31L146.859 276.61L150.069 281.86L159.759 277.56L157.269 271.31Z" fill="#FFC3BD"/>
<path d="M150.52 283.18C150.501 283.149 150.493 283.113 150.497 283.078C150.501 283.042 150.518 283.009 150.543 282.983C150.568 282.958 150.602 282.942 150.637 282.938C150.673 282.933 150.709 282.941 150.74 282.96C150.86 283.01 153.43 284.24 153.84 285.4C153.925 285.612 153.925 285.848 153.84 286.06C153.798 286.186 153.717 286.295 153.609 286.372C153.501 286.449 153.372 286.491 153.24 286.49C152.76 286.49 152.11 285.81 151.61 285.08C151.192 284.479 150.827 283.844 150.52 283.18ZM151.01 283.5C151.63 284.68 152.66 286.15 153.23 286.15C153.3 286.15 153.41 286.15 153.51 285.92C153.539 285.856 153.555 285.786 153.555 285.715C153.555 285.644 153.539 285.574 153.51 285.51C153.47 285.409 153.419 285.311 153.36 285.22C152.687 284.505 151.887 283.921 151 283.5H151.01Z" fill="#FFB700"/>
<path d="M150.469 283.1C150.468 283.069 150.476 283.038 150.492 283.012C150.508 282.985 150.531 282.964 150.559 282.95C151.431 282.438 152.441 282.211 153.449 282.3C153.61 282.344 153.76 282.419 153.89 282.522C154.021 282.625 154.129 282.754 154.209 282.9C154.439 283.31 154.329 283.56 154.209 283.69C153.639 284.27 151.399 283.74 150.609 283.25C150.588 283.239 150.57 283.222 150.559 283.2C150.538 283.191 150.519 283.177 150.504 283.16C150.488 283.142 150.476 283.122 150.469 283.1ZM153.889 282.99C153.765 282.816 153.585 282.689 153.379 282.63C152.576 282.549 151.767 282.713 151.059 283.1C151.989 283.53 153.609 283.76 153.979 283.45C153.979 283.45 154.099 283.33 153.979 283.07L153.919 282.99H153.889Z" fill="#FFB700"/>
<path d="M150.921 282L146.51 275.62C146.429 275.505 146.31 275.42 146.174 275.38C146.038 275.34 145.892 275.347 145.76 275.4L139.76 277.84C139.632 277.886 139.514 277.959 139.414 278.052C139.314 278.146 139.234 278.259 139.18 278.385C139.126 278.51 139.098 278.646 139.098 278.782C139.098 278.919 139.126 279.055 139.18 279.18C139.208 279.25 139.241 279.317 139.281 279.38C140.911 281.65 142.45 283.61 144.43 286.47C146.76 289.85 145.77 289.27 148.43 293.28C150.05 295.69 153.07 294.28 152.51 293.14C149.88 288.14 150.95 286.64 151.37 283.7C151.433 283.098 151.273 282.493 150.921 282Z" fill="#263238"/>
<path opacity="0.2" d="M155.63 272.15L151.73 274.13L154.55 279.87L157.77 278.45L155.63 272.15Z" fill="black"/>
<path d="M156.519 266.28L152.109 268.84L157.629 281.49L162.749 280.07L156.519 266.28Z" fill="#FFB700"/>
<path d="M249.391 235.28C249.391 235.28 204.321 197.28 200.481 190.52C196.641 183.76 206.911 174.52 206.911 174.52L218.341 176.12C218.341 176.12 266.511 219.83 264.541 228.57L249.391 235.28Z" fill="#263238"/>
<path d="M264.539 228.57C263.269 237.45 244.239 280.15 244.239 280.15C244.239 280.15 240.309 279.92 233.109 275.42C233.109 275.42 240.629 241.67 248.269 228.57H264.539Z" fill="#263238"/>
<path d="M236.341 277.44L232.941 288.61L238.951 289.94L242.571 279.98L236.341 277.44Z" fill="#FFC3BD"/>
<path d="M240.212 290.54C240.181 290.526 240.154 290.503 240.135 290.475C240.115 290.447 240.104 290.414 240.102 290.38C240.1 290.345 240.11 290.31 240.13 290.281C240.15 290.252 240.178 290.231 240.212 290.22C240.332 290.17 243.002 289.17 244.122 289.69C244.33 289.781 244.495 289.95 244.582 290.16C244.642 290.276 244.663 290.408 244.644 290.538C244.624 290.667 244.564 290.787 244.472 290.88C243.805 291.211 243.038 291.282 242.322 291.08C241.605 290.959 240.899 290.778 240.212 290.54ZM240.792 290.4C242.062 290.77 243.792 291.05 244.232 290.65C244.292 290.65 244.352 290.51 244.232 290.28C244.214 290.22 244.185 290.164 244.145 290.116C244.106 290.068 244.057 290.029 244.002 290C243.902 289.959 243.798 289.929 243.692 289.91C242.703 289.887 241.718 290.054 240.792 290.4Z" fill="#FFB700"/>
<path d="M240.131 290.51C240.114 290.487 240.105 290.459 240.105 290.43C240.105 290.402 240.114 290.374 240.131 290.35C240.356 289.362 240.892 288.472 241.661 287.81C241.809 287.721 241.975 287.663 242.147 287.641C242.319 287.619 242.494 287.632 242.661 287.68C243.111 287.8 243.211 288.06 243.201 288.25C243.201 289.06 241.291 290.31 240.391 290.54H240.321C240.291 290.561 240.255 290.569 240.22 290.563C240.184 290.558 240.152 290.539 240.131 290.51ZM242.411 287.98C242.204 287.94 241.99 287.98 241.811 288.09C241.191 288.612 240.745 289.309 240.531 290.09C241.481 289.72 242.781 288.71 242.811 288.23C242.811 288.18 242.811 288.06 242.511 287.98H242.411Z" fill="#FFB700"/>
<path d="M239.662 289.44L232.002 288.2C231.862 288.176 231.718 288.201 231.595 288.27C231.471 288.339 231.375 288.449 231.322 288.58L228.932 294.58C228.875 294.706 228.845 294.841 228.844 294.979C228.842 295.116 228.869 295.253 228.923 295.38C228.976 295.506 229.055 295.621 229.155 295.715C229.254 295.81 229.373 295.883 229.502 295.93L229.712 296C232.482 296.4 234.952 296.64 238.392 297.21C242.442 297.86 241.332 298.21 246.092 299.02C248.952 299.53 250.012 296.35 248.822 296.02C243.362 294.42 243.052 292.64 241.232 290.3C240.832 289.83 240.273 289.524 239.662 289.44Z" fill="#263238"/>
<path opacity="0.2" d="M235.811 279.2L234.531 283.39L240.621 285.34L241.831 282.03L235.811 279.2Z" fill="black"/>
<path d="M232.202 274.49L230.992 279.44L243.932 284.24L246.452 279.57L232.202 274.49Z" fill="#FFB700"/>
<path d="M180.51 147.24L181.26 140L187.58 141.32L185.43 148.66C185.43 148.66 187.56 152.05 187.43 155.07C187.3 158.09 185.54 157.67 185.54 157.67C185.54 157.67 185.72 160.86 183.01 159.92C180.3 158.98 176.8 157.59 177.39 154.92C178.157 152.257 179.203 149.683 180.51 147.24Z" fill="#FFC3BD"/>
<path d="M226.54 116.79C224.37 108.61 199.39 116.41 199.39 116.41C199.39 116.41 187.2 120.34 184 123.3C180.8 126.26 179 143.66 179 143.66L187.75 145.57L193.18 130.57C217.57 126.4 228.65 124.72 226.54 116.79Z" fill="#FFB700"/>
<path d="M187.999 142.77C187.862 142.906 187.679 142.985 187.487 142.991C187.294 142.997 187.107 142.929 186.962 142.802C186.817 142.675 186.726 142.498 186.707 142.307C186.688 142.115 186.742 141.923 186.859 141.77C186.992 141.619 187.179 141.527 187.379 141.514C187.58 141.501 187.777 141.568 187.929 141.7C188.005 141.765 188.067 141.845 188.111 141.934C188.156 142.023 188.182 142.121 188.189 142.22C188.195 142.32 188.182 142.42 188.149 142.515C188.117 142.609 188.066 142.696 187.999 142.77Z" fill="white"/>
<path opacity="0.1" d="M220.231 121.73L220.291 114.01C220.291 114.01 215.041 113.11 207.051 128.16C210.641 127.48 213.741 126.83 216.351 126.16L220.231 121.73Z" fill="black"/>
<path d="M252.402 101.94L253.402 106.79C252.833 106.908 252.244 106.891 251.683 106.74C251.122 106.589 250.605 106.308 250.172 105.92L252.402 101.94Z" fill="#BA4D3C"/>
<path d="M253.472 100C253.472 100.5 253.132 100.89 252.802 100.87C252.472 100.85 252.222 100.39 252.272 99.87C252.322 99.35 252.612 98.98 252.942 99.01C253.272 99.04 253.512 99.51 253.472 100Z" fill="#263238"/>
<path d="M230.191 115.46C230.191 115.46 234.531 115.77 235.851 107.92C235.851 107.92 240.111 106.82 242.251 109.58C244.391 112.34 238.581 116.91 241.341 119.75C244.101 122.59 230.191 115.46 230.191 115.46Z" fill="#FFC3BD"/>
<path opacity="0.2" d="M239.332 112.34C239.807 113.482 240.422 114.56 241.162 115.55C241.572 114.55 242.092 113.55 242.422 112.63L239.332 112.34Z" fill="black"/>
<path d="M234.06 96.3701C233.21 103.07 232.7 105.89 235.39 109.93C239.84 114.37 247.87 115.6 250.72 109.28C253.28 103.6 254.25 93.6301 248.27 89.7101C246.953 88.8543 245.439 88.3484 243.872 88.2402C242.305 88.132 240.736 88.425 239.314 89.0916C237.892 89.7582 236.663 90.7764 235.744 92.0499C234.824 93.3234 234.245 94.8103 234.06 96.3701Z" fill="#FFC3BD"/>
<path d="M251.331 97.32C251.363 97.3491 251.401 97.3699 251.443 97.3804C251.485 97.3908 251.529 97.3907 251.571 97.38C251.888 97.2851 252.224 97.2683 252.55 97.3309C252.875 97.3936 253.181 97.5339 253.441 97.74C253.491 97.7901 253.56 97.8182 253.631 97.8182C253.702 97.8182 253.77 97.7901 253.821 97.74C253.845 97.7158 253.865 97.687 253.878 97.6552C253.891 97.6235 253.898 97.5894 253.898 97.555C253.898 97.5206 253.891 97.4865 253.878 97.4547C253.865 97.423 253.845 97.3942 253.821 97.37C253.496 97.1046 253.112 96.9215 252.701 96.8362C252.29 96.7509 251.865 96.7659 251.461 96.88C251.392 96.8987 251.333 96.944 251.298 97.0058C251.262 97.0676 251.252 97.141 251.271 97.21C251.282 97.251 251.302 97.2888 251.331 97.32Z" fill="#263238"/>
<path d="M247.259 102.6L249.639 102.47C249.318 101.513 249.254 100.489 249.452 99.4996C249.65 98.5101 250.104 97.5898 250.769 96.8301C253.069 93.8301 258.769 92.2901 254.139 87.1701C252.874 85.6922 251.281 84.5302 249.488 83.7768C247.694 83.0233 245.749 82.6991 243.809 82.8301L247.619 85.5601C247.619 85.5601 239.759 79.7901 235.119 86.0601C236.264 85.6954 237.497 85.7165 238.629 86.1201C238.629 86.1201 217.749 93.1801 235.389 109.93C235.389 109.93 236.059 108.57 238.879 110.78C240.885 109.399 242.559 107.588 243.779 105.48C245.469 102.29 246.669 99.2901 247.259 102.6Z" fill="#263238"/>
<path d="M247.161 100.35C247.583 100.888 247.892 101.505 248.072 102.165C248.253 102.824 248.3 103.512 248.211 104.19C247.961 106.01 246.161 106.19 244.821 105.11C243.481 104.03 242.291 101.98 243.221 100.44C243.427 100.107 243.713 99.8306 244.053 99.636C244.393 99.4414 244.776 99.3348 245.167 99.3258C245.558 99.3169 245.946 99.4059 246.294 99.5848C246.643 99.7636 246.941 100.027 247.161 100.35Z" fill="#FFC3BD"/>
<path d="M256.38 89C256.38 89 256.99 92.64 251.27 94.8C251.27 94.8 259.23 95.61 256.38 89Z" fill="#263238"/>
<path d="M229.582 116.47L231.852 113.57C231.852 113.57 242.732 114.57 243.392 120.74L229.582 116.47Z" fill="#FFB700"/>
<path opacity="0.5" d="M229.582 116.47L231.852 113.57C231.852 113.57 242.732 114.57 243.392 120.74L229.582 116.47Z" fill="white"/>
<path d="M205.612 141.54C208.612 134.08 213.442 114.26 221.132 113.36C228.822 112.46 250.932 121.29 253.542 129.15C256.152 137.01 225.872 181.72 225.872 181.72L193.742 164C193.742 164 203.242 147.44 205.612 141.54Z" fill="#FFB700"/>
<path opacity="0.1" d="M243.371 126.56C243.371 126.56 237.541 137.68 244.571 151.68C247.213 147.114 249.59 142.399 251.691 137.56L249.221 131.72L243.371 126.56Z" fill="black"/>
<path d="M211.19 142.29C215.39 142.92 220 141.68 223.74 139.85C228.02 137.77 231.2 134.63 234.34 131.13C237.14 128 240.9 124.44 245.27 123.86C255.19 122.53 257.27 138.36 256.27 145.26C255.04 153.46 250.43 160.97 245.38 167.39C242.381 171.261 239.034 174.849 235.38 178.11C234.2 179.11 236.05 180.75 237.22 179.73C246.7 171.41 255.9 159.64 258.41 147.08C259.93 139.5 258.02 128.69 251.26 123.78C245.15 119.34 238.4 123.44 233.93 127.94C227.93 133.94 221.09 141.29 211.63 139.89C210.08 139.66 209.63 142.06 211.16 142.29H211.19Z" fill="#FFB700"/>
<g opacity="0.3">
<path d="M211.19 142.29C215.39 142.92 220 141.68 223.74 139.85C228.02 137.77 231.2 134.63 234.34 131.13C237.14 128 240.9 124.44 245.27 123.86C255.19 122.53 257.27 138.36 256.27 145.26C255.04 153.46 250.43 160.97 245.38 167.39C242.381 171.261 239.034 174.849 235.38 178.11C234.2 179.11 236.05 180.75 237.22 179.73C246.7 171.41 255.9 159.64 258.41 147.08C259.93 139.5 258.02 128.69 251.26 123.78C245.15 119.34 238.4 123.44 233.93 127.94C227.93 133.94 221.09 141.29 211.63 139.89C210.08 139.66 209.63 142.06 211.16 142.29H211.19Z" fill="black"/>
</g>
<path d="M282.572 155.63L275.822 157.92L274.902 152.83L281.822 150.66C281.822 150.66 283.192 147.09 285.942 146C288.692 144.91 289.812 146.91 289.812 146.91C289.812 146.91 292.572 145.44 292.812 148.24C293.052 151.04 292.992 155.51 290.402 156.06C287.812 156.61 284.842 155.66 282.572 155.63Z" fill="#FFC3BD"/>
<path d="M279.002 150.16L264.762 152.4C255.412 130.49 251.342 120.8 244.242 124.6C236.782 128.6 250.012 149.84 250.012 149.84C250.012 149.84 256.292 161.38 259.622 164.22C259.824 164.407 260.053 164.562 260.302 164.68C264.532 165.82 280.492 158.14 280.492 158.14L279.002 150.16Z" fill="#FFB700"/>
<path d="M279.001 157.94C278.938 158.023 278.858 158.092 278.767 158.142C278.676 158.193 278.576 158.225 278.472 158.235C278.369 158.246 278.264 158.234 278.165 158.203C278.065 158.171 277.974 158.119 277.896 158.05C277.817 157.982 277.754 157.898 277.709 157.803C277.665 157.709 277.64 157.607 277.637 157.503C277.634 157.398 277.652 157.295 277.691 157.198C277.729 157.101 277.787 157.013 277.861 156.94C277.995 156.791 278.183 156.7 278.384 156.689C278.584 156.678 278.781 156.747 278.931 156.88C279.005 156.945 279.066 157.024 279.11 157.112C279.154 157.201 279.18 157.297 279.186 157.395C279.193 157.494 279.18 157.593 279.148 157.686C279.116 157.779 279.066 157.866 279.001 157.94Z" fill="white"/>
<path d="M213.283 141.33L237.375 176.11C237.618 176.46 237.789 176.854 237.879 177.27C237.969 177.686 237.976 178.116 237.9 178.534C237.824 178.953 237.666 179.352 237.436 179.71C237.205 180.068 236.907 180.377 236.557 180.619L218.71 192.981C218.107 193.399 217.427 193.694 216.709 193.849C215.992 194.005 215.251 194.017 214.529 193.886C213.806 193.755 213.117 193.483 212.5 193.085C211.883 192.688 211.35 192.172 210.932 191.569L189.539 160.685C189.121 160.081 188.826 159.401 188.67 158.684C188.515 157.966 188.503 157.225 188.634 156.503C188.765 155.781 189.037 155.091 189.435 154.474C189.832 153.857 190.347 153.324 190.951 152.906L208.798 140.544C209.147 140.302 209.541 140.131 209.957 140.041C210.373 139.951 210.803 139.944 211.221 140.02C211.64 140.096 212.039 140.253 212.397 140.484C212.755 140.714 213.064 141.013 213.306 141.363L213.283 141.33Z" fill="#FFB700"/>
<path opacity="0.3" d="M213.283 141.33L237.375 176.11C237.618 176.46 237.789 176.854 237.879 177.27C237.969 177.686 237.976 178.116 237.9 178.534C237.824 178.953 237.666 179.352 237.436 179.71C237.205 180.068 236.907 180.377 236.557 180.619L218.71 192.981C218.107 193.399 217.427 193.694 216.709 193.849C215.992 194.005 215.251 194.017 214.529 193.886C213.806 193.755 213.117 193.483 212.5 193.085C211.883 192.688 211.35 192.172 210.932 191.569L189.539 160.685C189.121 160.081 188.826 159.401 188.67 158.684C188.515 157.966 188.503 157.225 188.634 156.503C188.765 155.781 189.037 155.091 189.435 154.474C189.832 153.857 190.347 153.324 190.951 152.906L208.798 140.544C209.147 140.302 209.541 140.131 209.957 140.041C210.373 139.951 210.803 139.944 211.221 140.02C211.64 140.096 212.039 140.253 212.397 140.484C212.755 140.714 213.064 141.013 213.306 141.363L213.283 141.33Z" fill="white"/>
<path opacity="0.1" d="M235.502 178.3L210.502 142.24C210.317 141.973 210.082 141.746 209.809 141.57C209.535 141.394 209.23 141.274 208.911 141.217C208.591 141.159 208.264 141.165 207.947 141.234C207.629 141.304 207.329 141.435 207.062 141.62L206.312 142.14C204.805 143.198 203.774 144.807 203.445 146.619C203.116 148.431 203.513 150.299 204.552 151.82L224.422 180.49C225.48 181.998 227.089 183.028 228.901 183.357C230.713 183.687 232.582 183.289 234.102 182.25L234.842 181.74C235.385 181.371 235.76 180.801 235.884 180.156C236.007 179.512 235.87 178.844 235.502 178.3Z" fill="black"/>
<path d="M237.801 176.75L212.801 140.69C212.616 140.423 212.38 140.196 212.107 140.02C211.834 139.845 211.529 139.725 211.21 139.667C210.89 139.61 210.562 139.615 210.245 139.685C209.928 139.754 209.628 139.885 209.361 140.07L208.621 140.59C207.113 141.648 206.083 143.257 205.754 145.069C205.424 146.881 205.822 148.75 206.861 150.27L226.721 178.94C227.779 180.448 229.388 181.478 231.2 181.808C233.012 182.137 234.88 181.739 236.401 180.7L237.151 180.19C237.42 180.008 237.651 179.773 237.829 179.501C238.007 179.229 238.13 178.925 238.191 178.605C238.251 178.286 238.248 177.957 238.181 177.639C238.114 177.321 237.985 177.019 237.801 176.75Z" fill="#FFB700"/>
<path d="M237.801 176.75L212.801 140.69C212.616 140.423 212.38 140.196 212.107 140.02C211.834 139.845 211.529 139.725 211.21 139.667C210.89 139.61 210.562 139.615 210.245 139.685C209.928 139.754 209.628 139.885 209.361 140.07L208.621 140.59C207.113 141.648 206.083 143.257 205.754 145.069C205.424 146.881 205.822 148.75 206.861 150.27L226.721 178.94C227.779 180.448 229.388 181.478 231.2 181.808C233.012 182.137 234.88 181.739 236.401 180.7L237.151 180.19C237.42 180.008 237.651 179.773 237.829 179.501C238.007 179.229 238.13 178.925 238.191 178.605C238.251 178.286 238.248 177.957 238.181 177.639C238.114 177.321 237.985 177.019 237.801 176.75Z" fill="#FFB700"/>
<path opacity="0.5" d="M237.801 176.75L212.801 140.69C212.616 140.423 212.38 140.196 212.107 140.02C211.834 139.845 211.529 139.725 211.21 139.667C210.89 139.61 210.562 139.615 210.245 139.685C209.928 139.754 209.628 139.885 209.361 140.07L208.621 140.59C207.113 141.648 206.083 143.257 205.754 145.069C205.424 146.881 205.822 148.75 206.861 150.27L226.721 178.94C227.779 180.448 229.388 181.478 231.2 181.808C233.012 182.137 234.88 181.739 236.401 180.7L237.151 180.19C237.42 180.008 237.651 179.773 237.829 179.501C238.007 179.229 238.13 178.925 238.191 178.605C238.251 178.286 238.248 177.957 238.181 177.639C238.114 177.321 237.985 177.019 237.801 176.75Z" fill="white"/>
<path d="M213.779 152.863L213.341 152.23C212.728 151.345 211.513 151.124 210.627 151.737L205.769 155.103C204.884 155.716 204.663 156.931 205.277 157.816L205.715 158.449C206.328 159.334 207.543 159.555 208.428 158.942L213.287 155.576C214.172 154.963 214.393 153.748 213.779 152.863Z" fill="#FFB700"/>
<path d="M227.221 172.284L226.783 171.651C226.169 170.766 224.954 170.546 224.069 171.159L219.211 174.525C218.326 175.139 218.106 176.353 218.719 177.239L219.158 177.871C219.771 178.757 220.986 178.977 221.871 178.364L226.729 174.997C227.614 174.384 227.834 173.169 227.221 172.284Z" fill="#FFB700"/>
<path opacity="0.3" d="M213.779 152.863L213.341 152.23C212.728 151.345 211.513 151.124 210.627 151.737L205.769 155.103C204.884 155.716 204.663 156.931 205.277 157.816L205.715 158.449C206.328 159.334 207.543 159.555 208.428 158.942L213.287 155.576C214.172 154.963 214.393 153.748 213.779 152.863Z" fill="black"/>
<path opacity="0.3" d="M227.221 172.284L226.783 171.651C226.169 170.766 224.954 170.546 224.069 171.159L219.211 174.525C218.326 175.139 218.106 176.353 218.719 177.239L219.158 177.871C219.771 178.757 220.986 178.977 221.871 178.364L226.729 174.997C227.614 174.384 227.834 173.169 227.221 172.284Z" fill="black"/>
<path opacity="0.2" d="M190.66 162.31C190.66 162.31 199 176 206.15 172L200.21 176.12L190.66 162.31Z" fill="black"/>
<path d="M221.922 154.84C223.922 154.56 224.922 153.46 226.592 152.69C227.712 152.16 226.372 151.69 227.372 152.62C227.708 153.008 227.997 153.434 228.232 153.89C228.902 154.95 229.472 156.08 230.162 157.13C230.762 158.02 232.322 158.98 232.712 159.9C233.342 161.4 230.092 163.5 229.152 164.27C228.032 165.19 229.322 167.08 230.462 166.15C232.082 164.81 235.312 162.67 235.202 160.15C235.132 158.61 233.782 157.9 232.852 156.87C231.102 154.94 230.402 151.5 228.082 150.11C227.749 149.882 227.355 149.76 226.952 149.76C226.549 149.76 226.155 149.882 225.822 150.11C224.922 150.6 224.492 151.59 223.452 152.05C222.908 152.284 222.337 152.449 221.752 152.54C220.292 152.74 220.462 155.02 221.922 154.82V154.84Z" fill="#FFB700"/>
<g opacity="0.3">
<path d="M221.922 154.84C223.922 154.56 224.922 153.46 226.592 152.69C227.712 152.16 226.372 151.69 227.372 152.62C227.708 153.008 227.997 153.434 228.232 153.89C228.902 154.95 229.472 156.08 230.162 157.13C230.762 158.02 232.322 158.98 232.712 159.9C233.342 161.4 230.092 163.5 229.152 164.27C228.032 165.19 229.322 167.08 230.462 166.15C232.082 164.81 235.312 162.67 235.202 160.15C235.132 158.61 233.782 157.9 232.852 156.87C231.102 154.94 230.402 151.5 228.082 150.11C227.749 149.882 227.355 149.76 226.952 149.76C226.549 149.76 226.155 149.882 225.822 150.11C224.922 150.6 224.492 151.59 223.452 152.05C222.908 152.284 222.337 152.449 221.752 152.54C220.292 152.74 220.462 155.02 221.922 154.82V154.84Z" fill="black"/>
</g>
</g>
<defs>
<filter id="filter0_d_2702_925" x="-7" y="9" width="505.262" height="505.26" filterUnits="userSpaceOnUse" color-interpolation-filters="sRGB">
<feFlood flood-opacity="0" result="BackgroundImageFix"/>
<feColorMatrix in="SourceAlpha" type="matrix" values="0 0 0 0 0 0 0 0 0 0 0 0 0 0 0 0 0 0 127 0" result="hardAlpha"/>
<feOffset dy="4"/>
<feGaussianBlur stdDeviation="2"/>
<feComposite in2="hardAlpha" operator="out"/>
<feColorMatrix type="matrix" values="0 0 0 0 0 0 0 0 0 0 0 0 0 0 0 0 0 0 0.25 0"/>
<feBlend mode="normal" in2="BackgroundImageFix" result="effect1_dropShadow_2702_925"/>
<feBlend mode="normal" in="SourceGraphic" in2="effect1_dropShadow_2702_925" result="shape"/>
</filter>
<clipPath id="clip0_2702_925">
<rect width="500" height="500" fill="white"/>
</clipPath>
</defs>
</svg>
